<?xml version="1.0" encoding="iso-8859-1"?>
<!-- Generator: Adobe Illustrator 19.0.0, SVG Export Plug-In . SVG Version: 6.00 Build 0)  -->
<svg version="1.1" id="Capa_1" xmlns="http://www.w3.org/2000/svg" xmlns:xlink="http://www.w3.org/1999/xlink" x="0px" y="0px"
	 viewBox="0 0 480 480" style="enable-background:new 0 0 480 480;" xml:space="preserve">
<path style="fill:#F7C7C0;" d="M479.334,468.808L434.166,365.24c-2.432-7.288-8.256-13.016-15.608-15.312l-17.872-5.584
	l-64.688-209.536V104V72v-8c0-35.288-28.712-64-64-64h-64c-35.288,0-64,28.712-64,64v8v32v30.792L79.31,344.336l-17.888,5.584
	c-7.336,2.304-13.168,8.024-15.344,14.648L0.662,468.808c-1.072,2.48-0.832,5.32,0.648,7.576C2.782,478.64,5.302,480,7.998,480h464
	c2.696,0,5.208-1.36,6.696-3.616C480.166,474.128,480.414,471.28,479.334,468.808z"/>
<path style="fill:#F2F2F2;" d="M295.998,320l-56,56l-56-56L63.814,357.56c-4.912,1.536-8.784,5.336-10.408,10.216L7.998,472h464
	L426.59,367.768c-1.624-4.88-5.496-8.68-10.408-10.216L295.998,320z"/>
<polygon style="fill:#F5B9B0;" points="199.998,280 182.198,320 239.998,376 295.998,320 279.998,280 239.998,296 "/>
<path d="M239.998,384c-2.008,0-4.016-0.752-5.568-2.256l-57.8-56c-2.408-2.336-3.112-5.928-1.744-8.992l17.8-40
	c1.744-3.928,6.272-5.776,10.28-4.176l37.032,14.808l37.032-14.816c4.072-1.64,8.76,0.352,10.4,4.464l16,40
	c1.184,2.968,0.496,6.36-1.776,8.624l-56,56C244.094,383.216,242.046,384,239.998,384z M191.782,318.152l48.128,46.624
	l46.696-46.704L275.542,290.4l-32.576,13.032c-1.912,0.768-4.032,0.768-5.944,0l-32.848-13.144L191.782,318.152z"/>
<polyline style="fill:#F7C7C0;" points="319.998,128 319.998,232 279.998,280 239.998,296 199.998,280 159.998,232 159.998,128 "/>
<path style="fill:#F2F2F2;" d="M327.998,136h-176V64c0-30.928,25.072-56,56-56h64c30.928,0,56,25.072,56,56V136z"/>
<rect x="151.998" y="72" style="fill:#FCB641;" width="176" height="32"/>
<path style="fill:#606060;" d="M199.998,280l30.008-24c5.84-4.672,14.144-4.672,19.992,0l30,24l-40,16L199.998,280z"/>
<g>
	<polygon style="fill:#E1E1E1;" points="151.998,136 85.71,350.712 183.998,320 199.998,280 159.998,232 159.998,147.168 	"/>
	<polygon style="fill:#E1E1E1;" points="327.998,136 394.286,350.712 298.286,320 282.286,280 319.998,232 319.998,147.168 	"/>
</g>
<path d="M207.998,248c-2.064,0-4.112-0.8-5.664-2.344l-8-8l11.312-11.312l3.368,3.368l26.856-17.856
	c2.704-1.792,6.224-1.784,8.92,0.04l26.208,17.784l3.328-3.328l11.312,11.312l-8,8c-2.72,2.72-6.968,3.112-10.152,0.968
	l-27.232-18.48l-27.84,18.512C211.078,247.56,209.534,248,207.998,248z"/>
<g>
	<polygon style="fill:#FCB641;" points="183.998,320 159.998,360 239.998,416 239.998,376 	"/>
	<polygon style="fill:#FCB641;" points="295.998,320 319.998,360 239.998,416 239.998,376 	"/>
</g>
<path d="M479.334,468.808L434.166,365.24c-2.432-7.288-8.256-13.016-15.608-15.312l-17.872-5.584l-64.688-209.536V104V72v-8
	c0-35.288-28.712-64-64-64h-64c-35.288,0-64,28.712-64,64v8v32v30.792L79.31,344.336l-17.888,5.584
	c-7.336,2.304-13.168,8.024-15.344,14.648L0.662,468.808c-1.072,2.48-0.832,5.32,0.648,7.576C2.782,478.64,5.302,480,7.998,480h464
	c2.696,0,5.208-1.36,6.696-3.616C480.166,474.128,480.414,471.28,479.334,468.808z M382.126,338.424l-77.808-24.888L291.43,281.32
	l34.712-44.176l0.008-0.008l0,0l0.136-0.176c0.328-0.416,0.512-0.904,0.744-1.36c0.16-0.312,0.384-0.592,0.504-0.92
	c0.296-0.872,0.464-1.768,0.464-2.68v-68.88L382.126,338.424z M215.718,277.672l19.28-15.424c2.944-2.352,7.048-2.344,9.992,0.008
	l19.28,15.416l-24.272,9.712L215.718,277.672z M254.99,249.76c-8.832-7.08-21.168-7.072-29.984-0.008l-23.88,19.104l-33.128-39.752
	v-81.936V144h144v3.168v81.928l-33.128,39.752L254.99,249.76z M207.998,16h64c26.472,0,48,21.528,48,48h-160
	C159.998,37.528,181.526,16,207.998,16z M159.998,80h160v16h-160V80z M159.998,112h160v16h-8h-144h-8V112z M151.998,163.12V232
	c0,1.872,0.656,3.688,1.856,5.128l36.944,44.336l-12.816,32.04l-80.144,25.04L151.998,163.12z M231.998,379.312v21.32
	l-61.304-42.912l14.896-24.816L231.998,379.312z M20.206,464l40.792-93.704c0.808-2.432,2.76-4.336,5.2-5.112l100.128-31.288
	l-13.192,21.984c-2.16,3.6-1.168,8.264,2.272,10.672l76.76,53.728L232.79,464H20.206z M193.382,318.072l11.072-27.672l32.568,13.032
	c0.96,0.384,1.968,0.568,2.976,0.568s2.016-0.184,2.976-0.568l34.544-13.816l10.728,26.832l-48.248,48.24L193.382,318.072z
	 M247.998,379.312l46.416-46.416l14.888,24.824l-61.304,42.912V379.312z M248.782,464l-0.616-43.952l76.416-53.488
	c3.448-2.408,4.44-7.072,2.272-10.672l-13.192-21.984l100.12,31.288c2.456,0.768,4.4,2.68,5.464,5.776L459.79,464H248.782z"/>
<g>
</g>
<g>
</g>
<g>
</g>
<g>
</g>
<g>
</g>
<g>
</g>
<g>
</g>
<g>
</g>
<g>
</g>
<g>
</g>
<g>
</g>
<g>
</g>
<g>
</g>
<g>
</g>
<g>
</g>
</svg>
