<svg id="Capa_1" enable-background="new 0 0 512 512" height="512" viewBox="0 0 512 512" width="512" xmlns="http://www.w3.org/2000/svg"><g clip-rule="evenodd" fill-rule="evenodd"><path d="m444.495 179.2c0 114.332-92.684 207.016-207.016 207.016-46.043 0-88.573-15.033-122.955-40.457l-31.871 31.871 10.652 10.652c2.3 1.268 4.46 2.875 6.405 4.82s3.551 4.104 4.819 6.404l10.653 10.653 11.175-11.175c85.014 64.846 219.678 56.26 293.856-3.316 7.547-6.061 14.683-12.613 21.359-19.608 37.439-39.221 60.428-92.353 60.428-150.855 0-85.978-49.664-160.346-121.863-196.015 39.645 37.713 64.358 90.974 64.358 150.01z" fill="#fff"/><path d="m183.787 199.996 35.397-35.397 70.987-70.987-97.589-32.528-130.117 130.117 65.059 65.059z" fill="#b6bccf"/><path d="m93.306 388.281c-10.927-6.025-25.02-4.418-34.257 4.82l-40.662 40.662c-11.182 11.182-11.182 29.479.001 40.662 11.182 11.182 29.479 11.182 40.661 0l40.662-40.662c9.238-9.238 10.844-23.331 4.82-34.257z" fill="#c68a65"/><path d="m336.776 360.891c18.296-10.02 34.913-22.724 49.322-37.581l-.01-.009-166.904-158.702-35.397 35.397 152.983 160.889z" fill="#c68a65"/><path d="m420.214 395.668c-9.461 7.598-19.905 14.367-31.105 20.26l.372.391 53.536 56.303c13.074 13.751 35.376 13.419 48.794 0 13.419-13.418 13.752-35.717 0-48.794l-50.237-47.769c-6.677 6.996-13.813 13.548-21.36 19.609z" fill="#c68a65"/></g><path d="m498.701 416.582-43.146-41.026c3.176-3.633 6.247-7.359 9.189-11.187 3.366-4.378 2.546-10.656-1.832-14.022s-10.656-2.546-14.023 1.832c-10.18 13.241-21.935 25.249-34.938 35.691-67.2 53.974-196.361 68.124-281.53 3.162-3.981-3.038-9.595-2.661-13.136.88l-4.104 4.104-2.641-2.641c-1.599-2.642-3.524-5.109-5.76-7.345-2.237-2.237-4.704-4.162-7.347-5.761l-2.64-2.64 18.83-18.83c36.005 24.507 77.949 37.416 121.854 37.416 57.967 0 112.465-22.574 153.453-63.563.808-.808 1.595-1.63 2.389-2.448.005-.005.01-.009.015-.014.003-.003.005-.006.008-.01 39.454-40.697 61.151-94.168 61.151-150.983 0-30.249-6.107-59.525-18.152-87.014-2.707-6.176-5.683-12.197-8.921-18.05 40.796 38.675 64.58 92.666 64.58 151.072 0 16.754-1.995 33.433-5.931 49.573-1.309 5.366 1.98 10.776 7.346 12.084 5.367 1.308 10.775-1.981 12.084-7.346 4.313-17.689 6.501-35.962 6.501-54.311 0-43.445-12.246-85.711-35.413-122.23-22.539-35.53-54.359-64.145-92.02-82.75-4.433-2.19-9.799-.812-12.628 3.239-2.83 4.052-2.275 9.564 1.306 12.971 39.497 37.574 61.249 88.275 61.249 142.765 0 49.676-18.488 95.109-48.934 129.8l-152.054-144.581 63.736-63.736c2.45-2.451 3.457-5.995 2.661-9.368s-3.282-6.093-6.57-7.189l-97.589-32.528c-3.591-1.197-7.555-.263-10.233 2.416l-56.478 56.477c-3.905 3.905-3.905 10.237 0 14.142 3.905 3.906 10.235 3.906 14.143 0l52.107-52.107 76.375 25.458-144.135 144.133-50.916-50.917 2.93-2.929c3.905-3.905 3.905-10.237 0-14.142-3.904-3.905-10.234-3.905-14.143 0l-10 10c-1.876 1.875-2.93 4.419-2.93 7.071s1.054 5.196 2.929 7.071l65.059 65.059c1.953 1.953 4.512 2.929 7.071 2.929s5.118-.977 7.071-2.929l49.012-49.012 136.601 143.66c-25.169 11.694-53.197 18.237-82.729 18.237-42.488 0-82.949-13.312-117.009-38.498-3.979-2.943-9.515-2.531-13.017.97l-31.871 31.87c-1.302 1.303-2.197 2.931-2.629 4.691-7.921 1.307-15.21 5.015-20.975 10.781l-40.662 40.661c-7.296 7.298-11.315 17.03-11.315 27.404.001 10.374 4.02 20.105 11.316 27.401 7.297 7.297 17.028 11.316 27.401 11.316s20.104-4.019 27.401-11.315l40.662-40.662c5.765-5.765 9.473-13.053 10.781-20.974 1.718-.42 3.349-1.289 4.692-2.631l5.126-5.126c39.085 27.248 88.979 41.989 142.202 41.989 2.672 0 5.356-.037 8.045-.112 39.081-1.086 77.048-10.209 109.325-25.808l48.818 51.341c8.01 8.424 18.943 13.145 30.787 13.294.187.002.372.003.559.003 11.861 0 23.412-4.763 31.767-13.117 8.486-8.486 13.267-20.268 13.114-32.324-.148-11.842-4.87-22.777-13.295-30.787zm-300.948-216.41 21.607-21.607 152.264 144.783c-10.097 9.403-21.176 17.762-33.071 24.901zm-105.114 226.52-40.662 40.662c-3.519 3.519-8.228 5.458-13.259 5.457-5.031 0-9.74-1.938-13.26-5.458-7.312-7.312-7.312-19.208 0-26.52l40.662-40.662c3.52-3.52 8.229-5.458 13.26-5.458 2.825 0 5.538.631 8.006 1.79l8.933 8.933c3.274 6.956 2.061 15.516-3.68 21.256zm392.1 38.859c-4.696 4.697-11.241 7.338-17.931 7.258-6.406-.081-12.282-2.594-16.545-7.078l-45.1-47.43c7.545-4.563 14.68-9.511 21.312-14.837 5.288-4.247 10.386-8.733 15.279-13.434l43.165 41.045c4.483 4.263 6.998 10.139 7.078 16.545.085 6.699-2.56 13.234-7.258 17.931z"/><path d="m104.28 159.384c2.719 0 5.429-1.103 7.402-3.273l.005-.005c3.715-4.086 3.411-10.408-.675-14.123-4.088-3.715-10.415-3.412-14.129.675-3.715 4.086-3.414 10.411.673 14.126 1.917 1.741 4.324 2.6 6.724 2.6z"/><path d="m485.783 311.234c-4.705-2.896-10.865-1.425-13.76 3.279-2.895 4.703-1.428 10.863 3.275 13.757 1.635 1.006 3.443 1.485 5.231 1.485 3.357 0 6.638-1.691 8.526-4.761l.004-.006c2.896-4.703 1.427-10.859-3.276-13.754z"/></svg>