<?xml version="1.0" encoding="iso-8859-1"?>
<!-- Generator: Adobe Illustrator 19.0.0, SVG Export Plug-In . SVG Version: 6.00 Build 0)  -->
<svg version="1.1" id="Capa_1" xmlns="http://www.w3.org/2000/svg" xmlns:xlink="http://www.w3.org/1999/xlink" x="0px" y="0px"
	 viewBox="0 0 512.002 512.002" style="enable-background:new 0 0 512.002 512.002;" xml:space="preserve">
<path style="fill:#CF301B;" d="M376.469,336.517l-77.62-153.052h-60l122.152,219.844c7.777-2.073,16.747-4.048,27.5-5.809h2.5
	C391.001,375.554,385.76,354.835,376.469,336.517z"/>
<path style="fill:#FF4128;" d="M346.469,336.517l-77.62-153.052h-55.696l-77.62,153.052c-9.291,18.318-14.532,39.037-14.532,60.982
	h2.5c66.579,10.901,65.047,30,132.5,30c56.558,0,64.624-13.427,105-24.191v-5.809C361.001,375.554,355.76,354.835,346.469,336.517z"
	/>
<path style="fill:#116F97;" d="M256.001,337.499c24.853,0,45-20.147,45-45v-30l-45-20V337.499z"/>
<path style="fill:#2DADE3;" d="M281.001,172.499h-30v90h50v-70C301.001,181.453,292.047,172.499,281.001,172.499z"/>
<path style="fill:#1990C2;" d="M211.001,262.499v30c0,24.853,20.147,45,45,45c8.284,0,15-20.147,15-45v-30l-30-20L211.001,262.499z"
	/>
<path style="fill:#49C9FF;" d="M271.001,192.499c0-11.046-8.954-20-20-20h-20c-11.046,0-20,8.954-20,20v70h60V192.499z"/>
<circle style="fill:#60312C;" cx="256" cy="29.999" r="22.5"/>
<path style="fill:#A45E43;" d="M290.256,68.334c0.01-0.01-34.255-0.005-34.255-0.005v74.17c24.85,0,45-20.15,45-45
	C301.001,86.379,296.956,76.184,290.256,68.334z"/>
<path style="fill:#C27749;" d="M269.891,80.509l-48.145-12.175c-6.7,7.85-10.745,18.045-10.745,29.165c0,24.85,20.15,45,45,45
	c8.28,0,15-20.15,15-45C271.001,91.489,270.611,85.749,269.891,80.509z"/>
<path style="fill:#40211D;" d="M256.001,52.499l13.89,28.01c7.45-2.23,14.475-6.295,20.365-12.175
	C282.006,58.644,269.721,52.499,256.001,52.499z"/>
<path style="fill:#60312C;" d="M256.001,52.499c-13.72,0-26.005,6.145-34.255,15.835c13.04,13.04,31.645,17.105,48.145,12.175
	C267.661,64.079,262.281,52.499,256.001,52.499z"/>
<path d="M315.123,198.973c47.093-6.863,83.378-47.508,83.378-96.474c0-4.143-3.357-7.5-7.5-7.5s-7.5,3.357-7.5,7.5
	c0,43.172-33.34,78.681-75.621,82.191l-2.342-4.618c-0.051-0.102-0.112-0.194-0.167-0.292c-4.599-8.776-13.794-14.781-24.37-14.781
	h-50c-10.577,0-19.772,6.006-24.371,14.783c-0.055,0.098-0.115,0.189-0.166,0.29l-2.342,4.618
	c-42.281-3.511-75.621-39.02-75.621-82.191c0-4.143-3.357-7.5-7.5-7.5s-7.5,3.357-7.5,7.5c0,48.966,36.285,89.61,83.378,96.474
	l-68.034,134.152c-10.182,20.07-15.344,41.729-15.344,64.374c0,4.143,3.357,7.5,7.5,7.5h1.887
	c27.49,4.551,43.118,10.598,56.917,15.937c11.933,4.616,22.879,8.845,38.696,11.435v56.724l-24.872,8.29
	c-3.93,1.31-6.053,5.558-4.743,9.487c1.048,3.143,3.974,5.13,7.114,5.13c0.786,0,1.586-0.125,2.373-0.387l30-10
	c3.063-1.021,5.128-3.887,5.128-7.115v-60.331c6.63,0.535,14.043,0.831,22.5,0.831s15.87-0.296,22.5-0.831v60.33
	c0,3.229,2.065,6.095,5.128,7.115l30,10c0.787,0.262,1.587,0.387,2.373,0.387c3.141,0,6.066-1.987,7.114-5.13
	c1.31-3.93-0.813-8.178-4.743-9.487l-24.872-8.29V432.37c15.817-2.59,26.763-6.818,38.696-11.435
	c13.799-5.339,29.427-11.386,56.917-15.937h1.887c4.143,0,7.5-3.357,7.5-7.5c0-22.644-5.162-44.302-15.344-64.374L315.123,198.973z
	 M256.001,329.999c-20.678,0-37.5-16.822-37.5-37.5v-22.5h75v22.5C293.501,313.177,276.679,329.999,256.001,329.999z
	 M231.001,179.999h50c6.893,0,12.5,5.607,12.5,12.5v62.5h-75v-62.5C218.501,185.606,224.108,179.999,231.001,179.999z
	 M185.217,406.945c-13.912-5.382-29.594-11.45-56.545-16.177c0.912-17.828,5.459-34.907,13.551-50.858l61.278-120.83v73.419
	c0,14.269,5.73,27.22,15,36.692v87.958C205.458,414.771,195.98,411.109,185.217,406.945z M256.001,419.999
	c-8.585,0-15.969-0.313-22.5-0.879v-79.197c6.824,3.251,14.452,5.076,22.5,5.076s15.676-1.825,22.5-5.076v79.197
	C271.97,419.687,264.586,419.999,256.001,419.999z M326.784,406.945c-10.763,4.164-20.241,7.826-33.283,10.204v-87.958
	c9.27-9.473,15-22.424,15-36.692V219.08l61.279,120.83c8.091,15.953,12.638,33.031,13.55,50.858
	C356.379,395.495,340.696,401.563,326.784,406.945z"/>
<path d="M256.001,149.999c28.948,0,52.5-23.552,52.5-52.5c0-12.813-4.621-24.564-12.275-33.688c-0.204-0.27-0.422-0.532-0.667-0.777
	c-4.778-5.462-10.622-9.916-17.222-13.032c4.762-5.313,7.665-12.323,7.665-20.002c0-16.542-13.458-30-30-30s-30,13.458-30,30
	c0,7.679,2.903,14.689,7.665,20.002c-6.6,3.116-12.445,7.57-17.195,13.008c-0.273,0.27-0.49,0.532-0.695,0.802
	c-7.655,9.124-12.275,20.875-12.275,33.688C203.501,126.447,227.053,149.999,256.001,149.999z M256.001,134.999
	c-20.678,0-37.5-16.822-37.5-37.5c0-6.567,1.702-12.742,4.68-18.116c9.75,7.072,21.284,10.614,32.82,10.614
	s23.07-3.542,32.82-10.614c2.978,5.374,4.68,11.549,4.68,18.116C293.501,118.177,276.679,134.999,256.001,134.999z M232.979,67.931
	c6.36-4.964,14.349-7.932,23.022-7.932s16.663,2.968,23.022,7.932C265.184,77.35,246.818,77.35,232.979,67.931z M241.001,29.999
	c0-8.271,6.729-15,15-15s15,6.729,15,15s-6.729,15-15,15S241.001,38.27,241.001,29.999z"/>
<g>
</g>
<g>
</g>
<g>
</g>
<g>
</g>
<g>
</g>
<g>
</g>
<g>
</g>
<g>
</g>
<g>
</g>
<g>
</g>
<g>
</g>
<g>
</g>
<g>
</g>
<g>
</g>
<g>
</g>
</svg>
