<?xml version="1.0" encoding="iso-8859-1"?>
<!-- Generator: Adobe Illustrator 19.0.0, SVG Export Plug-In . SVG Version: 6.00 Build 0)  -->
<svg version="1.1" id="Capa_1" xmlns="http://www.w3.org/2000/svg" xmlns:xlink="http://www.w3.org/1999/xlink" x="0px" y="0px"
	 viewBox="0 0 512.002 512.002" style="enable-background:new 0 0 512.002 512.002;" xml:space="preserve">
<path style="fill:#1990C2;" d="M233.5,232.5v105c24.853,0,45-20.147,45-45v-30L233.5,232.5z"/>
<path style="fill:#FF4128;" d="M278.5,192.5c0-11.046-8.954-20-20-20h-30l5,90h45V192.5z"/>
<path style="fill:#2DADE3;" d="M188.5,262.5v30c0,24.853,20.147,45,45,45c8.284,0,15-20.147,15-45v-30l-30-20L188.5,262.5z"/>
<path style="fill:#FF6337;" d="M248.5,192.5c0-11.046-8.954-20-20-20h-20c-11.046,0-20,8.954-20,20v70h60V192.5z"/>
<circle style="fill:#60312C;" cx="233.499" cy="30" r="22.5"/>
<path style="fill:#A45E43;" d="M267.755,68.335c0.01-0.01-34.255-0.005-34.255-0.005v74.17c24.85,0,45-20.15,45-45
	C278.5,86.38,274.455,76.185,267.755,68.335z"/>
<path style="fill:#C27749;" d="M247.39,80.51l-48.145-12.175c-6.7,7.85-10.745,18.045-10.745,29.165c0,24.85,20.15,45,45,45
	c8.28,0,15-20.15,15-45C248.5,91.49,248.11,85.75,247.39,80.51z"/>
<path style="fill:#40211D;" d="M233.5,52.5l13.89,28.01c7.45-2.23,14.475-6.295,20.365-12.175
	C259.505,58.645,247.22,52.5,233.5,52.5z"/>
<path style="fill:#60312C;" d="M233.5,52.5c-13.72,0-26.005,6.145-34.255,15.835c13.04,13.04,31.645,17.105,48.145,12.175
	C245.16,64.08,239.78,52.5,233.5,52.5z"/>
<polygon style="fill:#A8E5FF;" points="128.5,7.5 143.5,22.5 143.5,162.5 113.5,162.5 113.5,22.5 "/>
<path style="fill:#808080;" d="M331,162.5v165c45.563,0,82.5-36.937,82.5-82.5S376.563,162.5,331,162.5z"/>
<path style="fill:#999999;" d="M383.5,245c0-45.563-23.505-82.5-52.5-82.5c-45.563,0-82.5,36.937-82.5,82.5s36.937,82.5,82.5,82.5
	C359.995,327.5,383.5,290.563,383.5,245z"/>
<circle style="fill:#CCCCCC;" cx="330.999" cy="245" r="22.5"/>
<circle cx="330.999" cy="297.5" r="7.5"/>
<circle cx="376.469" cy="271.25" r="7.5"/>
<circle cx="376.469" cy="218.75" r="7.5"/>
<circle cx="330.999" cy="192.5" r="7.5"/>
<circle cx="285.539" cy="218.75" r="7.5"/>
<circle cx="285.539" cy="271.25" r="7.5"/>
<path d="M233.5,150c28.948,0,52.5-23.552,52.5-52.5c0-12.813-4.621-24.564-12.275-33.688c-0.204-0.27-0.422-0.532-0.667-0.777
	c-4.778-5.462-10.622-9.916-17.222-13.032c4.762-5.313,7.665-12.323,7.665-20.002c0-16.542-13.458-30-30-30s-30,13.458-30,30
	c0,7.679,2.903,14.689,7.665,20.002c-6.6,3.116-12.445,7.57-17.195,13.008c-0.273,0.27-0.49,0.532-0.695,0.802
	c-7.654,9.124-12.275,20.875-12.275,33.688C181,126.448,204.552,150,233.5,150z M233.5,135c-20.678,0-37.5-16.822-37.5-37.5
	c0-6.567,1.702-12.742,4.68-18.116c9.75,7.072,21.284,10.614,32.82,10.614s23.07-3.542,32.82-10.614
	C269.298,84.758,271,90.933,271,97.5C271,118.178,254.178,135,233.5,135z M210.478,67.932C216.838,62.968,224.827,60,233.5,60
	s16.663,2.968,23.022,7.932C242.683,77.351,224.317,77.351,210.478,67.932z M218.5,30c0-8.271,6.729-15,15-15s15,6.729,15,15
	s-6.729,15-15,15S218.5,38.271,218.5,30z"/>
<path d="M331,155c-20.011,0-38.515,6.568-53.477,17.657C272.489,167.814,265.732,165,258.5,165h-50
	c-12.563,0-23.178,8.472-26.452,20H136v-15h22.5c4.143,0,7.5-3.357,7.5-7.5s-3.357-7.5-7.5-7.5H151V22.5
	c0-1.989-0.79-3.896-2.196-5.304l-15-15c-2.93-2.928-7.678-2.928-10.607,0l-15,15c-1.406,1.407-2.196,3.314-2.196,5.304V155h-7.5
	c-4.143,0-7.5,3.357-7.5,7.5s3.357,7.5,7.5,7.5h22.5v15h-7.5c-12.406,0-22.5,10.094-22.5,22.5s10.094,22.5,22.5,22.5h15
	c4.143,0,7.5-3.357,7.5-7.5V200h45v92.5c0,14.269,5.73,27.22,15,36.692v159.902l-24.872,8.29c-3.93,1.31-6.053,5.558-4.743,9.487
	c1.048,3.143,3.974,5.13,7.114,5.13c0.786,0,1.586-0.125,2.373-0.387l30-10c3.063-1.021,5.128-3.887,5.128-7.115V339.924
	c6.824,3.251,14.452,5.076,22.5,5.076c7.978,0,15.624-1.797,22.5-5.054V494.5c0,3.229,2.065,6.095,5.128,7.115l30,10
	c0.787,0.262,1.587,0.387,2.373,0.387c3.141,0,6.066-1.987,7.114-5.13c1.31-3.93-0.813-8.178-4.743-9.487l-24.872-8.29V329.256
	c3.127-3.192,5.867-6.796,8.118-10.756c14.673,10.388,32.577,16.5,51.882,16.5c49.626,0,90-40.374,90-90S380.626,155,331,155z
	 M121,25.606l7.5-7.5l7.5,7.5V155h-15C121,155,121,25.606,121,25.606z M121,215h-7.5c-4.136,0-7.5-3.364-7.5-7.5s3.364-7.5,7.5-7.5
	h7.5V215z M208.5,180h50c2.838,0,5.516,0.959,7.669,2.641C250.592,198.829,241,220.815,241,245c0,3.38,0.194,6.716,0.559,10H196
	v-62.5C196,185.607,201.607,180,208.5,180z M196,292.5V270h48.536c4.278,14.772,12.244,27.993,22.837,38.592
	c-2.103,4.438-5.017,8.348-8.531,11.567c-0.227,0.181-0.447,0.37-0.652,0.575c-6.673,5.838-15.366,9.266-24.69,9.266
	C212.822,330,196,313.178,196,292.5z M331,320c-41.355,0-75-33.645-75-75s33.645-75,75-75s75,33.645,75,75S372.355,320,331,320z"/>
<path d="M331,215c-0.557,0-1.108,0.018-1.657,0.047c-4.136,0.225-7.307,3.76-7.083,7.896c0.224,4.137,3.785,7.305,7.896,7.083
	c0.279-0.016,0.562-0.025,0.845-0.025c8.271,0,15,6.729,15,15s-6.729,15-15,15s-15-6.729-15-15c0-0.283,0.01-0.565,0.025-0.845
	c0.224-4.136-2.947-7.671-7.083-7.896c-4.146-0.218-7.672,2.946-7.896,7.083C301.018,243.892,301,244.444,301,245
	c0,16.542,13.458,30,30,30s30-13.458,30-30S347.542,215,331,215z"/>
<g>
</g>
<g>
</g>
<g>
</g>
<g>
</g>
<g>
</g>
<g>
</g>
<g>
</g>
<g>
</g>
<g>
</g>
<g>
</g>
<g>
</g>
<g>
</g>
<g>
</g>
<g>
</g>
<g>
</g>
</svg>
