<?xml version="1.0" encoding="iso-8859-1"?>
<!-- Generator: Adobe Illustrator 19.0.0, SVG Export Plug-In . SVG Version: 6.00 Build 0)  -->
<svg version="1.1" id="Capa_1" xmlns="http://www.w3.org/2000/svg" xmlns:xlink="http://www.w3.org/1999/xlink" x="0px" y="0px"
	 viewBox="0 0 512.001 512.001" style="enable-background:new 0 0 512.001 512.001;" xml:space="preserve">
<circle style="fill:#60312C;" cx="112.5" cy="29.999" r="22.5"/>
<path style="fill:#A45E43;" d="M146.757,68.334c0.01-0.01-34.255-0.005-34.255-0.005v74.17c24.85,0,45-20.15,45-45
	C157.502,86.379,153.457,76.184,146.757,68.334z"/>
<path style="fill:#C27749;" d="M126.392,80.509L78.247,68.334c-6.7,7.85-10.745,18.045-10.745,29.165c0,24.85,20.15,45,45,45
	c8.28,0,15-20.15,15-45C127.502,91.489,127.112,85.749,126.392,80.509z"/>
<path style="fill:#40211D;" d="M112.502,52.499l13.89,28.01c7.45-2.23,14.475-6.295,20.365-12.175
	C138.507,58.644,126.222,52.499,112.502,52.499z"/>
<path style="fill:#60312C;" d="M112.502,52.499c-13.72,0-26.005,6.145-34.255,15.835c13.04,13.04,31.645,17.105,48.145,12.175
	C124.162,64.079,118.782,52.499,112.502,52.499z"/>
<path style="fill:#2DADE3;" d="M137.502,172.499h-30v120h50v-100C157.502,181.453,148.548,172.499,137.502,172.499z"/>
<path style="fill:#49C9FF;" d="M107.502,172.499h-20c-11.046,0-20,8.954-20,20v100h60v-100
	C127.502,181.453,118.548,172.499,107.502,172.499z"/>
<path style="fill:#FF4128;" d="M157.502,262.499h-30l15,90h30v-50.335C172.502,286.953,166.831,273.074,157.502,262.499z"/>
<path style="fill:#FF6337;" d="M127.502,262.499h-60c-9.329,10.575-15,24.454-15,39.665v50.335h90v-50.335
	C142.502,286.953,136.831,273.074,127.502,262.499z"/>
<path style="fill:#FFF0D3;" d="M339.502,22.499v240c66.168,0,120-53.832,120-120S405.67,22.499,339.502,22.499z"/>
<path style="fill:#FFFFFF;" d="M429.502,142.499c0-66.168-40.374-120-90-120c-60.676,0-110.971,45.269-118.903,103.806
	l-39.097,16.194l39.097,16.194c7.932,58.536,58.227,103.806,118.903,103.806C389.128,262.499,429.502,208.667,429.502,142.499z"/>
<path d="M174.874,497.384l-24.872-8.29V359.999h22.5c4.142,0,7.5-3.357,7.5-7.5v-50.335c0-15.472-5.307-30.417-15-42.406v-67.259
	c0-15.163-12.336-27.5-27.5-27.5h-17.5v-15.544c25.407-3.651,45-25.555,45-51.956c0-12.813-4.621-24.564-12.275-33.689
	c-0.205-0.27-0.422-0.531-0.668-0.777c-4.778-5.462-10.622-9.916-17.222-13.031c4.762-5.313,7.665-12.323,7.665-20.002
	c0-16.542-13.458-30-30-30s-30,13.458-30,30c0,7.679,2.903,14.689,7.665,20.002c-6.6,3.115-12.444,7.569-17.194,13.006
	c-0.274,0.271-0.491,0.533-0.696,0.803c-7.654,9.124-12.275,20.875-12.275,33.688c0,26.401,19.593,48.305,45,51.956v15.544h-17.5
	c-15.164,0-27.5,12.337-27.5,27.5v67.259c-9.693,11.989-15,26.935-15,42.406v50.335c0,4.143,3.358,7.5,7.5,7.5h22.5v129.095
	l-24.872,8.29c-3.93,1.31-6.053,5.558-4.744,9.487c1.048,3.143,3.974,5.13,7.114,5.13c0.786,0,1.586-0.125,2.373-0.387l30-10
	c3.063-1.021,5.128-3.887,5.128-7.115v-134.5h45v134.5c0,3.229,2.066,6.095,5.128,7.115l30,10c0.787,0.262,1.586,0.387,2.373,0.387
	c3.14,0,6.066-1.987,7.114-5.13C180.927,502.941,178.803,498.693,174.874,497.384z M135.524,67.93
	c-13.839,9.42-32.206,9.42-46.045,0c6.361-4.963,14.349-7.931,23.023-7.931S129.164,62.967,135.524,67.93z M97.502,29.999
	c0-8.271,6.729-15,15-15s15,6.729,15,15s-6.729,15-15,15S97.502,38.27,97.502,29.999z M75.002,97.499
	c0-6.567,1.702-12.742,4.68-18.116c9.75,7.072,21.284,10.615,32.82,10.615s23.07-3.543,32.82-10.615
	c2.978,5.374,4.68,11.549,4.68,18.116c0,18.109-12.904,33.261-30,36.745v-6.745c0-4.143-3.358-7.5-7.5-7.5s-7.5,3.357-7.5,7.5v6.745
	C87.906,130.76,75.002,115.608,75.002,97.499z M87.502,179.999h17.5v37.5c0,12.406,10.093,22.5,22.5,22.5c4.142,0,7.5-3.357,7.5-7.5
	s-3.358-7.5-7.5-7.5c-4.136,0-7.5-3.364-7.5-7.5v-37.5h17.5c6.893,0,12.5,5.607,12.5,12.5v62.5h-75v-62.5
	C75.002,185.606,80.609,179.999,87.502,179.999z M60.002,302.164c0-11.687,3.906-22.981,11.039-32.165h82.922
	c7.134,9.184,11.039,20.479,11.039,32.165v42.835h-105V302.164z"/>
<path d="M339.502,14.999c-28.566,0-55.59,9.276-78.146,26.827c-3.27,2.543-3.857,7.255-1.313,10.524s7.258,3.859,10.524,1.313
	c19.899-15.48,43.736-23.664,68.935-23.664c62.032,0,112.5,50.468,112.5,112.5s-50.468,112.5-112.5,112.5
	c-56.031,0-103.954-41.835-111.471-97.313c-0.358-2.646-2.096-4.9-4.562-5.922l-22.368-9.266l22.368-9.266
	c2.466-1.021,4.204-3.276,4.562-5.922c2.645-19.518,10.474-38.103,22.64-53.746c2.543-3.27,1.954-7.981-1.315-10.524
	s-7.981-1.953-10.525,1.315c-12.892,16.576-21.489,36.076-25.004,56.636l-35.194,14.578c-2.803,1.16-4.63,3.896-4.63,6.929
	s1.827,5.769,4.63,6.929l35.193,14.578c10.359,60.728,63.631,105.994,125.676,105.994c70.304,0,127.5-57.196,127.5-127.5
	S409.806,14.999,339.502,14.999z"/>
<path d="M347.002,155.884l17.29-15.257c8.077-7.123,12.71-17.376,12.71-28.128c0-20.678-16.822-37.5-37.5-37.5
	s-37.5,16.822-37.5,37.5c0,4.143,3.357,7.5,7.5,7.5s7.5-3.357,7.5-7.5c0-12.406,10.094-22.5,22.5-22.5s22.5,10.094,22.5,22.5
	c0,6.449-2.781,12.601-7.633,16.879l-19.829,17.497c-1.614,1.424-2.538,3.473-2.538,5.624v10c0,4.143,3.357,7.5,7.5,7.5
	s7.5-3.357,7.5-7.5V155.884z"/>
<path d="M339.502,184.999c-4.143,0-7.5,3.357-7.5,7.5v10c0,4.143,3.357,7.5,7.5,7.5s7.5-3.357,7.5-7.5v-10
	C347.002,188.356,343.645,184.999,339.502,184.999z"/>
<g>
</g>
<g>
</g>
<g>
</g>
<g>
</g>
<g>
</g>
<g>
</g>
<g>
</g>
<g>
</g>
<g>
</g>
<g>
</g>
<g>
</g>
<g>
</g>
<g>
</g>
<g>
</g>
<g>
</g>
</svg>
