<?xml version="1.0" encoding="iso-8859-1"?>
<!-- Generator: Adobe Illustrator 19.0.0, SVG Export Plug-In . SVG Version: 6.00 Build 0)  -->
<svg version="1.1" id="Capa_1" xmlns="http://www.w3.org/2000/svg" xmlns:xlink="http://www.w3.org/1999/xlink" x="0px" y="0px"
	 viewBox="0 0 512.001 512.001" style="enable-background:new 0 0 512.001 512.001;" xml:space="preserve">
<circle style="fill:#60312C;" cx="275" cy="29.999" r="22.5"/>
<path style="fill:#A45E43;" d="M309.256,68.334c0.01-0.01-34.255-0.005-34.255-0.005v74.17c24.85,0,45-20.15,45-45
	C320.001,86.379,315.956,76.184,309.256,68.334z"/>
<path style="fill:#C27749;" d="M288.891,80.509l-48.145-12.175c-6.7,7.85-10.745,18.045-10.745,29.165c0,24.85,20.15,45,45,45
	c8.28,0,15-20.15,15-45C290.001,91.489,289.611,85.749,288.891,80.509z"/>
<path style="fill:#40211D;" d="M275.001,52.499l13.89,28.01c7.45-2.23,14.475-6.295,20.365-12.175
	C301.006,58.644,288.721,52.499,275.001,52.499z"/>
<path style="fill:#60312C;" d="M275.001,52.499c-13.72,0-26.005,6.145-34.255,15.835c13.04,13.04,31.645,17.105,48.145,12.175
	C286.661,64.079,281.281,52.499,275.001,52.499z"/>
<path style="fill:#2DADE3;" d="M300.001,172.499h-30v120h50v-100C320.001,181.453,311.047,172.499,300.001,172.499z"/>
<path style="fill:#49C9FF;" d="M270.001,172.499h-20c-11.046,0-20,8.954-20,20v100h60v-100
	C290.001,181.453,281.047,172.499,270.001,172.499z"/>
<path style="fill:#FF4128;" d="M320.001,262.499h-30l15,90h30v-50.335C335.001,286.953,329.33,273.074,320.001,262.499z"/>
<path style="fill:#FF6337;" d="M290.001,262.499h-60c-9.329,10.575-15,24.454-15,39.665v50.335h90v-50.335
	C305.001,286.953,299.33,273.074,290.001,262.499z"/>
<path d="M200.001,142.499c4.142,0,7.5-3.357,7.5-7.5v-10c0-4.143-3.358-7.5-7.5-7.5s-7.5,3.357-7.5,7.5v10
	C192.501,139.142,195.859,142.499,200.001,142.499z"/>
<path d="M200.001,102.499c4.142,0,7.5-3.357,7.5-7.5v-80c0-4.143-3.358-7.5-7.5-7.5s-7.5,3.357-7.5,7.5v80
	C192.501,99.142,195.859,102.499,200.001,102.499z"/>
<path d="M170.001,142.499c4.142,0,7.5-3.357,7.5-7.5v-10c0-4.143-3.358-7.5-7.5-7.5s-7.5,3.357-7.5,7.5v10
	C162.501,139.142,165.859,142.499,170.001,142.499z"/>
<path d="M170.001,102.499c4.142,0,7.5-3.357,7.5-7.5v-80c0-4.143-3.358-7.5-7.5-7.5s-7.5,3.357-7.5,7.5v80
	C162.501,99.142,165.859,102.499,170.001,102.499z"/>
<path d="M350.001,119.999c-4.142,0-7.5,3.357-7.5,7.5v75c0,9.777-6.271,18.114-15,21.21v-31.21c0-15.163-12.336-27.5-27.5-27.5
	h-17.5v-15.544c25.407-3.651,45-25.555,45-51.956c0-12.813-4.621-24.564-12.275-33.689c-0.205-0.27-0.422-0.531-0.668-0.777
	c-4.778-5.462-10.622-9.916-17.222-13.031c4.762-5.313,7.665-12.323,7.665-20.002c0-16.542-13.458-30-30-30s-30,13.458-30,30
	c0,7.679,2.903,14.689,7.665,20.002c-6.6,3.115-12.444,7.569-17.194,13.006c-0.274,0.271-0.491,0.533-0.696,0.803
	c-7.654,9.125-12.275,20.876-12.275,33.689c0,26.401,19.593,48.305,45,51.956v15.543h-17.5c-15.164,0-27.5,12.337-27.5,27.5v67.259
	c-9.693,11.989-15,26.935-15,42.406v50.335c0,4.143,3.358,7.5,7.5,7.5h22.5v42.145l-77.936,26.768
	c-3.03,1.041-5.064,3.891-5.064,7.094v30c0,4.143,3.358,7.5,7.5,7.5s7.5-3.357,7.5-7.5v-24.647l77.936-26.768
	c3.03-1.041,5.064-3.891,5.064-7.094v-47.498h45v134.5c0,3.229,2.066,6.095,5.128,7.115l30,10c0.787,0.262,1.586,0.387,2.373,0.387
	c3.14,0,6.066-1.987,7.114-5.13c1.31-3.93-0.814-8.178-4.744-9.487l-24.872-8.29V359.999H335c4.142,0,7.5-3.357,7.5-7.5v-50.335
	c0-15.472-5.307-30.417-15-42.406v-20.514c17.096-3.484,30-18.636,30-36.745v-75C357.501,123.356,354.143,119.999,350.001,119.999z
	 M298.023,67.93c-13.839,9.42-32.206,9.42-46.045,0c6.36-4.963,14.349-7.931,23.022-7.931S291.663,62.967,298.023,67.93z
	 M260.001,29.999c0-8.271,6.729-15,15-15s15,6.729,15,15s-6.729,15-15,15S260.001,38.27,260.001,29.999z M237.501,97.499
	c0-6.567,1.702-12.742,4.68-18.116c9.75,7.072,21.284,10.615,32.82,10.615s23.07-3.543,32.82-10.615
	c2.978,5.374,4.68,11.549,4.68,18.116c0,18.109-12.904,33.261-30,36.745v-6.745c0-4.143-3.358-7.5-7.5-7.5s-7.5,3.357-7.5,7.5v6.745
	C250.405,130.76,237.501,115.608,237.501,97.499z M250.001,179.999h17.5v37.5c0,4.136-3.364,7.5-7.5,7.5c-4.142,0-7.5,3.357-7.5,7.5
	s3.358,7.5,7.5,7.5c12.407,0,22.5-10.094,22.5-22.5v-37.5h17.5c6.893,0,12.5,5.607,12.5,12.5v62.5h-75v-62.5
	C237.501,185.606,243.108,179.999,250.001,179.999z M327.501,344.999h-105v-42.835c0-11.687,3.905-22.981,11.039-32.165h82.922
	c7.134,9.184,11.039,20.479,11.039,32.165V344.999z"/>
<g>
</g>
<g>
</g>
<g>
</g>
<g>
</g>
<g>
</g>
<g>
</g>
<g>
</g>
<g>
</g>
<g>
</g>
<g>
</g>
<g>
</g>
<g>
</g>
<g>
</g>
<g>
</g>
<g>
</g>
</svg>
