<?xml version="1.0" encoding="iso-8859-1"?>
<!-- Generator: Adobe Illustrator 19.0.0, SVG Export Plug-In . SVG Version: 6.00 Build 0)  -->
<svg version="1.1" id="Capa_1" xmlns="http://www.w3.org/2000/svg" xmlns:xlink="http://www.w3.org/1999/xlink" x="0px" y="0px"
	 viewBox="0 0 512.002 512.002" style="enable-background:new 0 0 512.002 512.002;" xml:space="preserve">
<path style="fill:#2DADE3;" d="M281.001,172.5h-30v120h50v-100C301.001,181.454,292.047,172.5,281.001,172.5z"/>
<path style="fill:#49C9FF;" d="M251.001,172.5h-20c-11.046,0-20,8.954-20,20v100h60v-100
	C271.001,181.454,262.047,172.5,251.001,172.5z"/>
<path style="fill:#FF4128;" d="M301.001,262.5h-30l15,90h30v-50.335C316.001,286.954,310.33,273.075,301.001,262.5z"/>
<path style="fill:#FF6337;" d="M271.001,262.5h-60c-9.329,10.575-15,24.454-15,39.665V352.5h90v-50.335
	C286.001,286.954,280.33,273.075,271.001,262.5z"/>
<path style="fill:#CF301B;" d="M256.001,47.5l5,80h30c0,0,0-25.67,0-45S275.331,47.5,256.001,47.5z"/>
<path style="fill:#FF4128;" d="M256.001,47.5c-19.33,0-35,15.67-35,35s0,45,0,45h40c0,0,0-25.67,0-45S258.762,47.5,256.001,47.5z"/>
<polygon style="fill:#696969;" points="271.001,112.5 251.001,127.5 271.001,142.5 301.001,142.5 301.001,112.5 "/>
<rect x="211" y="112.5" style="fill:#808080;" width="60" height="30"/>
<g>
	<path style="fill:#FF4128;" d="M256.001,25c-4.143,0-7.5-3.357-7.5-7.5v-10c0-4.143,3.357-7.5,7.5-7.5s7.5,3.357,7.5,7.5v10
		C263.501,21.643,260.144,25,256.001,25z"/>
	<path style="fill:#FF4128;" d="M210.039,44.038c-1.919,0-3.839-0.732-5.304-2.196l-7.071-7.071c-2.929-2.93-2.929-7.678,0-10.607
		c2.93-2.928,7.678-2.928,10.607,0l7.071,7.071c2.929,2.93,2.929,7.678,0,10.607C213.878,43.306,211.958,44.038,210.039,44.038z"/>
	<path style="fill:#FF4128;" d="M301.963,44.038c-1.919,0-3.839-0.732-5.304-2.196c-2.929-2.93-2.929-7.678,0-10.607l7.071-7.071
		c2.93-2.928,7.678-2.928,10.607,0c2.929,2.93,2.929,7.678,0,10.607l-7.071,7.071C305.802,43.306,303.882,44.038,301.963,44.038z"/>
</g>
<path d="M348.501,120h-12.57V97.5c0-4.143-3.357-7.5-7.5-7.5s-7.5,3.357-7.5,7.5v30c0,4.143,3.357,7.5,7.5,7.5h20.07
	c13.785,0,25,11.215,25,25s-11.215,25-25,25h-41.048c-3.274-11.528-13.889-20-26.452-20h-50c-12.563,0-23.178,8.472-26.452,20
	h-41.048c-13.785,0-25-11.215-25-25s11.215-25,25-25h20.07c4.143,0,7.5-3.357,7.5-7.5v-30c0-4.143-3.357-7.5-7.5-7.5
	s-7.5,3.357-7.5,7.5V120h-12.57c-22.056,0-40,17.944-40,40s17.944,40,40,40h40v59.759c-9.693,11.989-15,26.935-15,42.406V352.5
	c0,4.143,3.357,7.5,7.5,7.5h22.5v129.095l-24.872,8.29c-3.929,1.31-6.053,5.558-4.743,9.487c1.048,3.143,3.974,5.13,7.114,5.13
	c0.786,0,1.586-0.125,2.373-0.387l30-10c3.063-1.021,5.128-3.887,5.128-7.115V360h45v134.5c0,3.229,2.065,6.095,5.128,7.115l30,10
	c0.787,0.262,1.587,0.387,2.373,0.387c3.141,0,6.066-1.987,7.114-5.13c1.31-3.93-0.814-8.178-4.743-9.487l-24.872-8.29V360h22.5
	c4.143,0,7.5-3.357,7.5-7.5v-50.335c0-15.472-5.307-30.417-15-42.406V200h40c22.056,0,40-17.944,40-40S370.557,120,348.501,120z
	 M231.001,180h50c6.893,0,12.5,5.607,12.5,12.5V255h-75v-62.5C218.501,185.607,224.108,180,231.001,180z M308.501,345h-105v-42.835
	c0-11.687,3.905-22.981,11.039-32.165h82.923c7.133,9.184,11.039,20.479,11.039,32.165V345H308.501z"/>
<path d="M211.001,150h90c4.143,0,7.5-3.357,7.5-7.5v-30c0-4.143-3.357-7.5-7.5-7.5h-2.5V82.5c0-23.435-19.065-42.5-42.5-42.5
	s-42.5,19.065-42.5,42.5c0,4.143,3.357,7.5,7.5,7.5s7.5-3.357,7.5-7.5c0-15.163,12.337-27.5,27.5-27.5s27.5,12.337,27.5,27.5V105
	h-72.5c-4.143,0-7.5,3.357-7.5,7.5v30C203.501,146.643,206.858,150,211.001,150z M218.501,120h75v15h-75V120z"/>
<g>
</g>
<g>
</g>
<g>
</g>
<g>
</g>
<g>
</g>
<g>
</g>
<g>
</g>
<g>
</g>
<g>
</g>
<g>
</g>
<g>
</g>
<g>
</g>
<g>
</g>
<g>
</g>
<g>
</g>
</svg>
