<?xml version="1.0" encoding="iso-8859-1"?>
<!-- Generator: Adobe Illustrator 19.0.0, SVG Export Plug-In . SVG Version: 6.00 Build 0)  -->
<svg version="1.1" id="Capa_1" xmlns="http://www.w3.org/2000/svg" xmlns:xlink="http://www.w3.org/1999/xlink" x="0px" y="0px"
	 viewBox="0 0 512.002 512.002" style="enable-background:new 0 0 512.002 512.002;" xml:space="preserve">
<path style="fill:#2DADE3;" d="M281.002,172.5h-30v120h50v-100C301.002,181.454,292.048,172.5,281.002,172.5z"/>
<path style="fill:#49C9FF;" d="M251.002,172.5h-20c-11.046,0-20,8.954-20,20v100h60v-100
	C271.002,181.454,262.048,172.5,251.002,172.5z"/>
<path style="fill:#FF4128;" d="M301.002,262.5h-30l15,90h30v-50.335C316.002,286.954,310.331,273.075,301.002,262.5z"/>
<path style="fill:#FF6337;" d="M271.002,262.5h-60c-9.329,10.575-15,24.454-15,39.665V352.5h90v-50.335
	C286.002,286.954,280.331,273.075,271.002,262.5z"/>
<g>
	<rect x="240.911" y="37.5" style="fill:#353535;" width="30.18" height="41.99"/>
	<path style="fill:#353535;" d="M256.002,52.5v90c24.853,0,45-20.147,45-45S280.855,52.5,256.002,52.5z"/>
</g>
<path style="fill:#4F4F4F;" d="M271.002,97.5c0-24.853-6.716-45-15-45c-24.853,0-45,20.147-45,45s20.147,45,45,45
	C264.286,142.5,271.002,122.353,271.002,97.5z"/>
<path style="fill:#FFA754;" d="M212.432,34.138l-28.978-7.764c-3.999-1.073-8.113,1.302-9.186,5.303
	c-1.072,4.002,1.303,8.114,5.304,9.186l1.941,0.52l-1.421,1.421c-2.929,2.93-2.929,7.678,0,10.607c2.929,2.928,7.678,2.928,10.606,0
	l1.421-1.421l0.52,1.941c0.898,3.351,3.928,5.561,7.24,5.561c0.643,0,1.296-0.083,1.946-0.258c4.001-1.071,6.375-5.185,5.304-9.186
	l-0.52-1.942l1.941,0.521c0.65,0.175,1.303,0.258,1.946,0.258c3.311,0,6.342-2.21,7.24-5.561
	C218.807,39.321,216.433,35.209,212.432,34.138z"/>
<path d="M348.502,120h-12.57V97.5c0-4.143-3.357-7.5-7.5-7.5s-7.5,3.357-7.5,7.5v30c0,4.143,3.357,7.5,7.5,7.5h20.07
	c13.785,0,25,11.215,25,25s-11.215,25-25,25h-41.048c-3.274-11.528-13.889-20-26.452-20h-50c-12.563,0-23.178,8.472-26.452,20
	h-41.048c-13.785,0-25-11.215-25-25s11.215-25,25-25h20.07c4.142,0,7.5-3.357,7.5-7.5v-30c0-4.143-3.358-7.5-7.5-7.5
	s-7.5,3.357-7.5,7.5V120h-12.57c-22.056,0-40,17.944-40,40s17.944,40,40,40h40v59.759c-9.693,11.989-15,26.935-15,42.406V352.5
	c0,4.143,3.358,7.5,7.5,7.5h22.5v129.095l-24.872,8.29c-3.93,1.31-6.053,5.558-4.744,9.487c1.048,3.143,3.974,5.13,7.114,5.13
	c0.786,0,1.586-0.125,2.373-0.387l30-10c3.063-1.021,5.128-3.887,5.128-7.115V360h45v134.5c0,3.229,2.065,6.095,5.128,7.115l30,10
	c0.787,0.262,1.587,0.387,2.373,0.387c3.141,0,6.066-1.987,7.114-5.13c1.31-3.93-0.814-8.178-4.743-9.487l-24.872-8.29V360H316
	c4.143,0,7.5-3.357,7.5-7.5v-50.335c0-15.472-5.307-30.417-15-42.406V200h40c22.056,0,40-17.944,40-40S370.558,120,348.502,120z
	 M231.002,180h50c6.893,0,12.5,5.607,12.5,12.5V255h-75v-62.5C218.502,185.607,224.109,180,231.002,180z M308.502,345h-105v-42.835
	c0-11.687,3.906-22.981,11.039-32.165h82.922c7.133,9.184,11.039,20.479,11.039,32.165V345z"/>
<path d="M196.002,45c4.142,0,7.5-3.357,7.5-7.5c0-12.406,10.093-22.5,22.5-22.5c9.777,0,18.114,6.271,21.21,15h-6.301
	c-4.142,0-7.5,3.357-7.5,7.5v12.605c-18.089,8.63-29.909,27.052-29.909,47.395c0,28.948,23.551,52.5,52.5,52.5
	c28.948,0,52.5-23.552,52.5-52.5c0-20.343-11.819-38.765-29.909-47.395V37.5c0-4.143-3.357-7.5-7.5-7.5h-8.345
	c-3.484-17.096-18.635-30-36.745-30c-20.678,0-37.5,16.822-37.5,37.5C188.502,41.643,191.86,45,196.002,45z M268.577,62.167
	c14.908,5.307,24.925,19.506,24.925,35.333c0,20.678-16.822,37.5-37.5,37.5s-37.5-16.822-37.5-37.5
	c0-15.827,10.016-30.026,24.924-35.333c2.989-1.063,4.985-3.893,4.985-7.065V45h15.182v10.102
	C263.593,58.274,265.589,61.104,268.577,62.167z"/>
<g>
</g>
<g>
</g>
<g>
</g>
<g>
</g>
<g>
</g>
<g>
</g>
<g>
</g>
<g>
</g>
<g>
</g>
<g>
</g>
<g>
</g>
<g>
</g>
<g>
</g>
<g>
</g>
<g>
</g>
</svg>
