<?xml version="1.0" encoding="iso-8859-1"?>
<!-- Generator: Adobe Illustrator 19.0.0, SVG Export Plug-In . SVG Version: 6.00 Build 0)  -->
<svg version="1.1" id="Capa_1" xmlns="http://www.w3.org/2000/svg" xmlns:xlink="http://www.w3.org/1999/xlink" x="0px" y="0px"
	 viewBox="0 0 512.001 512.001" style="enable-background:new 0 0 512.001 512.001;" xml:space="preserve">
<circle style="fill:#60312C;" cx="256.001" cy="29.999" r="22.5"/>
<path style="fill:#A45E43;" d="M290.257,68.334c0.01-0.01-34.255-0.005-34.255-0.005v74.17c24.85,0,45-20.15,45-45
	C301.002,86.379,296.957,76.184,290.257,68.334z"/>
<path style="fill:#C27749;" d="M269.892,80.509l-48.145-12.175c-6.7,7.85-10.745,18.045-10.745,29.165c0,24.85,20.15,45,45,45
	c8.28,0,15-20.15,15-45C271.002,91.489,270.612,85.749,269.892,80.509z"/>
<path style="fill:#40211D;" d="M256.002,52.499l13.89,28.01c7.45-2.23,14.475-6.295,20.365-12.175
	C282.007,58.644,269.722,52.499,256.002,52.499z"/>
<path style="fill:#60312C;" d="M256.002,52.499c-13.72,0-26.005,6.145-34.255,15.835c13.04,13.04,31.645,17.105,48.145,12.175
	C267.662,64.079,262.282,52.499,256.002,52.499z"/>
<path style="fill:#2DADE3;" d="M281.002,172.499h-30v120h50v-100C301.002,181.453,292.048,172.499,281.002,172.499z"/>
<path style="fill:#49C9FF;" d="M251.002,172.499h-20c-11.046,0-20,8.954-20,20v100h60v-100
	C271.002,181.453,262.048,172.499,251.002,172.499z"/>
<path style="fill:#FF4128;" d="M301.002,262.499h-30l15,90h30v-50.335C316.002,286.953,310.331,273.074,301.002,262.499z"/>
<path style="fill:#FF6337;" d="M271.002,262.499h-60c-9.329,10.575-15,24.454-15,39.665v50.335h90v-50.335
	C286.002,286.953,280.331,273.074,271.002,262.499z"/>
<g>
	<path style="fill:#49C9FF;" d="M170.408,77.189c-0.768,0-1.549-0.119-2.319-0.369l-14.266-4.636
		c-3.939-1.28-6.095-5.512-4.815-9.451c1.28-3.938,5.509-6.092,9.451-4.814l14.266,4.636c3.939,1.28,6.095,5.512,4.815,9.451
		C176.51,75.175,173.57,77.189,170.408,77.189z"/>
	<path style="fill:#49C9FF;" d="M183.184,52.1c-1.528,0-3.071-0.466-4.402-1.434l-12.135-8.817
		c-3.351-2.435-4.094-7.125-1.659-10.476c2.434-3.353,7.123-4.097,10.476-1.659l12.135,8.817c3.351,2.435,4.094,7.125,1.659,10.476
		C187.791,51.027,185.503,52.1,183.184,52.1z"/>
	<path style="fill:#49C9FF;" d="M203.107,32.188c-2.319,0-4.606-1.073-6.074-3.093l-8.816-12.136
		c-2.435-3.352-1.691-8.041,1.66-10.476c3.351-2.436,8.042-1.69,10.476,1.659l8.816,12.136c2.435,3.352,1.691,8.041-1.66,10.476
		C206.178,31.723,204.636,32.188,203.107,32.188z"/>
	<path style="fill:#49C9FF;" d="M308.897,32.188c-1.528,0-3.07-0.466-4.402-1.434c-3.351-2.435-4.094-7.124-1.66-10.476
		l8.816-12.136c2.435-3.352,7.123-4.097,10.476-1.659c3.351,2.435,4.094,7.124,1.66,10.476l-8.816,12.136
		C313.503,31.115,311.216,32.188,308.897,32.188z"/>
	<path style="fill:#49C9FF;" d="M328.82,52.1c-2.319,0-4.606-1.072-6.074-3.093c-2.435-3.351-1.692-8.041,1.659-10.476l12.135-8.817
		c3.352-2.434,8.041-1.691,10.476,1.659s1.692,8.041-1.659,10.476l-12.135,8.817C331.891,51.633,330.348,52.1,328.82,52.1z"/>
	<path style="fill:#49C9FF;" d="M341.596,77.189c-3.162,0-6.102-2.015-7.131-5.184c-1.28-3.939,0.875-8.171,4.815-9.451
		l14.266-4.636c3.94-1.277,8.17,0.876,9.451,4.814c1.28,3.939-0.875,8.171-4.815,9.451l-14.266,4.636
		C343.145,77.07,342.364,77.189,341.596,77.189z"/>
</g>
<path d="M348.502,119.999h-12.57v-22.5c0-4.143-3.358-7.5-7.5-7.5s-7.5,3.357-7.5,7.5v30c0,4.143,3.358,7.5,7.5,7.5h20.07
	c13.785,0,25,11.215,25,25s-11.215,25-25,25h-41.048c-3.274-11.528-13.889-20-26.452-20h-50c-12.563,0-23.178,8.472-26.452,20
	h-41.048c-13.785,0-25-11.215-25-25s11.215-25,25-25h20.07c4.142,0,7.5-3.357,7.5-7.5v-30c0-4.143-3.358-7.5-7.5-7.5
	s-7.5,3.357-7.5,7.5v22.5h-12.57c-22.056,0-40,17.944-40,40s17.944,40,40,40h40v59.759c-9.693,11.989-15,26.935-15,42.406v50.335
	c0,4.143,3.358,7.5,7.5,7.5h21.176c-0.182,0.46-0.378,0.924-0.585,1.413c-1.377,3.259-3.091,7.315-3.091,14.752
	c0,7.436,1.714,11.492,3.091,14.751c1.108,2.622,1.909,4.517,1.909,8.914s-0.801,6.292-1.909,8.914
	c-1.377,3.259-3.091,7.315-3.091,14.751s1.714,11.492,3.091,14.752c1.108,2.622,1.909,4.517,1.909,8.914
	c0,4.398-0.801,6.293-1.909,8.916c-1.377,3.26-3.091,7.317-3.091,14.754s1.714,11.493,3.091,14.753
	c0.541,1.28,1.009,2.388,1.346,3.698l-24.309,8.103c-3.93,1.31-6.053,5.558-4.744,9.487c1.048,3.143,3.974,5.13,7.114,5.13
	c0.786,0,1.586-0.125,2.373-0.387l30-10c3.063-1.021,5.128-3.887,5.128-7.115c0-7.437-1.714-11.494-3.091-14.754
	c-1.108-2.623-1.909-4.518-1.909-8.915c0-4.398,0.801-6.293,1.909-8.916c1.377-3.26,3.091-7.317,3.091-14.754
	c0-7.436-1.714-11.492-3.091-14.752c-1.108-2.622-1.909-4.517-1.909-8.914c0-4.396,0.8-6.291,1.909-8.913
	c1.377-3.259,3.091-7.315,3.091-14.752s-1.714-11.493-3.091-14.752c-1.108-2.622-1.909-4.517-1.909-8.913
	c0-4.397,0.801-6.292,1.909-8.914c0.823-1.946,1.763-4.185,2.389-7.251h46.404c0.626,3.067,1.566,5.307,2.389,7.254
	c1.108,2.623,1.909,4.518,1.909,8.915c0,4.398-0.801,6.293-1.909,8.916c-1.377,3.26-3.091,7.317-3.091,14.754
	c0,7.436,1.714,11.492,3.091,14.752c1.108,2.622,1.909,4.517,1.909,8.914c0,4.396-0.8,6.291-1.909,8.913
	c-1.377,3.259-3.091,7.315-3.091,14.752c0,7.436,1.714,11.492,3.091,14.751c1.108,2.622,1.909,4.517,1.909,8.914
	s-0.801,6.292-1.909,8.914c-1.377,3.259-3.091,7.315-3.091,14.751c0,3.229,2.066,6.095,5.128,7.115l30,10
	c0.787,0.262,1.586,0.387,2.373,0.387c3.14,0,6.066-1.987,7.114-5.13c1.31-3.93-0.814-8.178-4.744-9.487l-24.309-8.103
	c0.337-1.309,0.805-2.415,1.346-3.695c1.377-3.259,3.091-7.315,3.091-14.752s-1.714-11.493-3.091-14.752
	c-1.108-2.622-1.909-4.517-1.909-8.913c0-4.397,0.801-6.292,1.909-8.914c1.377-3.259,3.091-7.315,3.091-14.751
	s-1.714-11.492-3.091-14.752c-1.108-2.622-1.909-4.517-1.909-8.914c0-4.398,0.801-6.293,1.909-8.916
	c1.377-3.26,3.091-7.317,3.091-14.754s-1.714-11.493-3.091-14.753c-0.207-0.49-0.404-0.955-0.586-1.416H316
	c4.142,0,7.5-3.357,7.5-7.5v-50.335c0-15.472-5.307-30.417-15-42.406v-59.759h40c22.056,0,40-17.944,40-40
	S370.558,119.999,348.502,119.999z M231.002,179.999h50c6.893,0,12.5,5.607,12.5,12.5v62.5h-75v-62.5
	C218.502,185.606,224.109,179.999,231.002,179.999z M308.502,344.999h-105v-42.835c0-11.687,3.905-22.981,11.039-32.165h82.922
	c7.134,9.184,11.039,20.479,11.039,32.165V344.999z"/>
<path d="M256.002,149.999c28.949,0,52.5-23.552,52.5-52.5c0-12.813-4.621-24.564-12.275-33.689c-0.205-0.27-0.422-0.531-0.668-0.777
	c-4.778-5.462-10.622-9.916-17.222-13.031c4.762-5.313,7.665-12.323,7.665-20.002c0-16.542-13.458-30-30-30s-30,13.458-30,30
	c0,7.679,2.903,14.689,7.665,20.002c-6.6,3.115-12.444,7.569-17.194,13.006c-0.274,0.271-0.491,0.533-0.696,0.803
	c-7.654,9.125-12.275,20.876-12.275,33.689C203.502,126.447,227.053,149.999,256.002,149.999z M256.002,134.999
	c-20.678,0-37.5-16.822-37.5-37.5c0-6.567,1.702-12.742,4.68-18.116c9.75,7.072,21.284,10.615,32.82,10.615
	c11.536,0,23.07-3.543,32.82-10.615c2.978,5.374,4.68,11.549,4.68,18.116C293.502,118.177,276.68,134.999,256.002,134.999z
	 M232.98,67.93c6.36-4.963,14.349-7.931,23.022-7.931c8.673,0,16.662,2.968,23.022,7.931C265.185,77.35,246.819,77.35,232.98,67.93z
	 M241.002,29.999c0-8.271,6.729-15,15-15c8.271,0,15,6.729,15,15s-6.729,15-15,15C247.731,44.999,241.002,38.27,241.002,29.999z"/>
<g>
</g>
<g>
</g>
<g>
</g>
<g>
</g>
<g>
</g>
<g>
</g>
<g>
</g>
<g>
</g>
<g>
</g>
<g>
</g>
<g>
</g>
<g>
</g>
<g>
</g>
<g>
</g>
<g>
</g>
</svg>
