<?xml version="1.0" encoding="iso-8859-1"?>
<!-- Generator: Adobe Illustrator 19.0.0, SVG Export Plug-In . SVG Version: 6.00 Build 0)  -->
<svg version="1.1" id="Capa_1" xmlns="http://www.w3.org/2000/svg" xmlns:xlink="http://www.w3.org/1999/xlink" x="0px" y="0px"
	 viewBox="0 0 512.002 512.002" style="enable-background:new 0 0 512.002 512.002;" xml:space="preserve">
<g>
	<path style="fill:#7DD9FF;" d="M183.845,75.727l-13.858-5.74c-3.827-1.585-5.644-5.972-4.059-9.799
		c1.585-3.827,5.972-5.644,9.799-4.059l13.858,5.74c3.827,1.585,5.644,5.972,4.059,9.799S187.672,77.312,183.845,75.727z"/>
	<path style="fill:#7DD9FF;" d="M328.167,75.729l13.858-5.74c3.827-1.585,5.644-5.972,4.059-9.799
		c-1.585-3.827-5.972-5.644-9.799-4.059l-13.858,5.74c-3.827,1.585-5.644,5.972-4.059,9.799S324.34,77.314,328.167,75.729z"/>
	<path style="fill:#7DD9FF;" d="M181.006,105h-15c-4.142,0-7.5-3.357-7.5-7.5s3.358-7.5,7.5-7.5h15c4.142,0,7.5,3.357,7.5,7.5
		S185.148,105,181.006,105z"/>
	<path style="fill:#7DD9FF;" d="M346.006,105h-15c-4.142,0-7.5-3.357-7.5-7.5s3.358-7.5,7.5-7.5h15c4.142,0,7.5,3.357,7.5,7.5
		S350.148,105,346.006,105z"/>
</g>
<circle style="fill:#60312C;" cx="256.005" cy="30" r="22.5"/>
<path style="fill:#A45E43;" d="M290.261,68.335c0.01-0.01-34.255-0.005-34.255-0.005v74.17c24.85,0,45-20.15,45-45
	C301.006,86.38,296.961,76.185,290.261,68.335z"/>
<path style="fill:#C27749;" d="M269.896,80.51l-48.145-12.175c-6.7,7.85-10.745,18.045-10.745,29.165c0,24.85,20.15,45,45,45
	c8.28,0,15-20.15,15-45C271.006,91.49,270.616,85.75,269.896,80.51z"/>
<path style="fill:#40211D;" d="M256.006,52.5l13.89,28.01c7.45-2.23,14.475-6.295,20.365-12.175
	C282.011,58.645,269.726,52.5,256.006,52.5z"/>
<path style="fill:#60312C;" d="M256.006,52.5c-13.72,0-26.005,6.145-34.255,15.835c13.04,13.04,31.645,17.105,48.145,12.175
	C267.666,64.08,262.286,52.5,256.006,52.5z"/>
<path style="fill:#2DADE3;" d="M281.006,172.5h-30v120h50v-100C301.006,181.454,292.052,172.5,281.006,172.5z"/>
<path style="fill:#49C9FF;" d="M251.006,172.5h-20c-11.046,0-20,8.954-20,20v100h60v-100
	C271.006,181.454,262.052,172.5,251.006,172.5z"/>
<path style="fill:#FF4128;" d="M301.006,262.5h-30l15,90h30v-50.335C316.006,286.954,310.335,273.075,301.006,262.5z"/>
<path style="fill:#FF6337;" d="M271.006,262.5h-60c-9.329,10.575-15,24.454-15,39.665V352.5h90v-50.335
	C286.006,286.954,280.335,273.075,271.006,262.5z"/>
<path d="M380.312,155.416c-0.17-0.033-0.342-0.061-0.515-0.082c-4.365-0.536-6.148-1.562-8.617-2.981
	c-3.068-1.764-6.886-3.96-14.267-4.866c-7.383-0.904-11.617,0.301-15.021,1.271c-2.739,0.78-4.718,1.346-9.083,0.808
	c-4.364-0.535-6.147-1.561-8.615-2.98c-3.067-1.764-6.884-3.96-14.265-4.866c-4.109-0.506-7.853,2.419-8.358,6.53
	s2.418,7.854,6.53,8.358c4.364,0.536,6.146,1.562,8.614,2.98c3.067,1.765,6.885,3.96,14.266,4.866
	c7.381,0.907,11.617-0.301,15.021-1.271c2.738-0.781,4.718-1.347,9.082-0.808c4.365,0.536,6.148,1.562,8.616,2.98
	c3.024,1.739,6.777,3.898,13.953,4.827c3.402,0.758,5.851,3.803,5.851,7.317c0,4.136-3.364,7.5-7.5,7.5
	c-4.397,0-6.292-0.801-8.914-1.908c-3.26-1.378-7.316-3.092-14.752-3.092c-7.437,0-11.494,1.714-14.754,3.092
	c-2.623,1.107-4.518,1.908-8.916,1.908s-6.293-0.801-8.916-1.908c-3.186-1.347-7.143-3.01-14.263-3.085
	C300.933,171.108,291.672,165,281.006,165h-50c-10.667,0-19.927,6.108-24.486,15.007c-7.12,0.075-11.077,1.738-14.263,3.085
	c-2.623,1.107-4.518,1.908-8.916,1.908s-6.293-0.801-8.916-1.908c-3.26-1.378-7.317-3.092-14.754-3.092
	c-7.436,0-11.493,1.714-14.752,3.092c-2.622,1.107-4.517,1.908-8.914,1.908c-4.136,0-7.5-3.364-7.5-7.5
	c0-3.515,2.448-6.56,5.851-7.317c7.176-0.929,10.929-3.088,13.953-4.827c2.468-1.419,4.251-2.444,8.616-2.98
	c4.362-0.538,6.343,0.026,9.082,0.808c3.404,0.97,7.641,2.179,15.02,1.271c7.381-0.906,11.199-3.102,14.267-4.866
	c2.468-1.419,4.25-2.444,8.614-2.98c4.111-0.505,7.035-4.247,6.53-8.358s-4.246-7.038-8.358-6.53
	c-7.38,0.906-11.198,3.103-14.265,4.866c-2.468,1.42-4.251,2.445-8.616,2.98c-4.364,0.537-6.344-0.028-9.082-0.808
	c-3.403-0.97-7.64-2.177-15.021-1.271s-11.199,3.103-14.267,4.866c-2.468,1.42-4.251,2.445-8.617,2.981
	c-0.172,0.021-0.344,0.049-0.515,0.082c-10.542,2.046-18.194,11.333-18.194,22.084c0,12.406,10.093,22.5,22.5,22.5
	c7.436,0,11.493-1.714,14.752-3.092c2.623-1.107,4.517-1.908,8.914-1.908c4.398,0,6.293,0.801,8.916,1.909
	c3.26,1.377,7.317,3.091,14.753,3.091s11.494-1.714,14.753-3.091c1.798-0.76,3.255-1.375,5.411-1.687v64.536
	c-9.693,11.989-15,26.935-15,42.406V352.5c0,4.143,3.358,7.5,7.5,7.5h21.176c-0.182,0.46-0.378,0.924-0.585,1.413
	c-1.377,3.259-3.091,7.315-3.091,14.752c0,7.436,1.714,11.492,3.091,14.751c1.108,2.622,1.909,4.517,1.909,8.914
	s-0.801,6.292-1.909,8.914c-1.377,3.259-3.091,7.315-3.091,14.751s1.714,11.492,3.091,14.752c1.108,2.622,1.909,4.517,1.909,8.914
	c0,4.398-0.801,6.293-1.909,8.916c-1.377,3.26-3.091,7.317-3.091,14.754s1.714,11.493,3.091,14.753
	c0.541,1.28,1.009,2.388,1.346,3.698l-24.309,8.103c-3.93,1.31-6.053,5.558-4.744,9.487c1.048,3.143,3.974,5.13,7.114,5.13
	c0.786,0,1.586-0.125,2.373-0.387l30-10c3.063-1.021,5.128-3.887,5.128-7.115c0-7.437-1.714-11.494-3.091-14.754
	c-1.108-2.623-1.909-4.518-1.909-8.915c0-4.398,0.801-6.293,1.909-8.916c1.377-3.26,3.091-7.317,3.091-14.754
	c0-7.436-1.714-11.492-3.091-14.752c-1.108-2.622-1.909-4.517-1.909-8.914c0-4.396,0.8-6.291,1.909-8.913
	c1.377-3.259,3.091-7.315,3.091-14.752s-1.714-11.493-3.091-14.752c-1.108-2.622-1.909-4.517-1.909-8.913
	c0-4.397,0.801-6.292,1.909-8.914c0.823-1.946,1.763-4.185,2.389-7.251h46.404c0.626,3.067,1.566,5.307,2.389,7.254
	c1.108,2.623,1.909,4.518,1.909,8.915c0,4.398-0.801,6.293-1.909,8.916c-1.377,3.26-3.091,7.317-3.091,14.754
	c0,7.436,1.714,11.492,3.091,14.752c1.108,2.622,1.909,4.517,1.909,8.914c0,4.396-0.8,6.291-1.909,8.913
	c-1.377,3.259-3.091,7.315-3.091,14.752c0,7.436,1.714,11.492,3.091,14.751c1.108,2.622,1.909,4.517,1.909,8.914
	s-0.801,6.292-1.909,8.914c-1.377,3.259-3.091,7.315-3.091,14.751c0,3.229,2.066,6.095,5.128,7.115l30,10
	c0.787,0.262,1.586,0.387,2.373,0.387c3.14,0,6.066-1.987,7.114-5.13c1.31-3.93-0.814-8.178-4.744-9.487l-24.309-8.103
	c0.337-1.309,0.805-2.415,1.346-3.695c1.377-3.259,3.091-7.315,3.091-14.752s-1.714-11.493-3.091-14.752
	c-1.108-2.622-1.909-4.517-1.909-8.913c0-4.397,0.801-6.292,1.909-8.914c1.377-3.259,3.091-7.315,3.091-14.751
	s-1.714-11.492-3.091-14.752c-1.108-2.622-1.909-4.517-1.909-8.914c0-4.398,0.801-6.293,1.909-8.916
	c1.377-3.26,3.091-7.317,3.091-14.754s-1.714-11.493-3.091-14.753c-0.207-0.49-0.404-0.955-0.586-1.416H316
	c4.142,0,7.5-3.357,7.5-7.5v-50.335c0-15.472-5.307-30.417-15-42.406v-64.536c2.156,0.312,3.613,0.927,5.411,1.687
	c3.26,1.377,7.317,3.091,14.753,3.091s11.494-1.714,14.753-3.091c2.623-1.108,4.518-1.909,8.916-1.909
	c4.397,0,6.292,0.801,8.914,1.908c3.259,1.378,7.316,3.092,14.752,3.092c12.407,0,22.5-10.094,22.5-22.5
	C398.506,166.749,390.855,157.462,380.312,155.416z M231.006,180h50c6.893,0,12.5,5.607,12.5,12.5V255h-75v-62.5
	C218.506,185.607,224.113,180,231.006,180z M308.506,345h-105v-42.835c0-11.687,3.905-22.981,11.039-32.165h82.922
	c7.134,9.184,11.039,20.479,11.039,32.165V345z"/>
<path d="M256.006,150c28.949,0,52.5-23.552,52.5-52.5c0-20.964-12.356-39.091-30.165-47.498c4.762-5.313,7.665-12.323,7.665-20.002
	c0-16.542-13.458-30-30-30s-30,13.458-30,30c0,7.679,2.903,14.689,7.665,20.002c-17.808,8.407-30.165,26.534-30.165,47.498
	C203.506,126.448,227.057,150,256.006,150z M279.028,67.931c-13.839,9.42-32.206,9.42-46.045,0
	c6.36-4.963,14.349-7.931,23.022-7.931S272.668,62.968,279.028,67.931z M241.006,30c0-8.271,6.729-15,15-15c8.271,0,15,6.729,15,15
	s-6.729,15-15,15C247.735,45,241.006,38.271,241.006,30z M223.186,79.384c9.75,7.072,21.284,10.615,32.82,10.615
	c11.536,0,23.07-3.543,32.82-10.615c2.978,5.374,4.68,11.549,4.68,18.116c0,20.678-16.822,37.5-37.5,37.5s-37.5-16.822-37.5-37.5
	C218.506,90.933,220.208,84.758,223.186,79.384z"/>
<g>
</g>
<g>
</g>
<g>
</g>
<g>
</g>
<g>
</g>
<g>
</g>
<g>
</g>
<g>
</g>
<g>
</g>
<g>
</g>
<g>
</g>
<g>
</g>
<g>
</g>
<g>
</g>
<g>
</g>
</svg>
