<?xml version="1.0" encoding="iso-8859-1"?>
<!-- Generator: Adobe Illustrator 19.0.0, SVG Export Plug-In . SVG Version: 6.00 Build 0)  -->
<svg version="1.1" id="Capa_1" xmlns="http://www.w3.org/2000/svg" xmlns:xlink="http://www.w3.org/1999/xlink" x="0px" y="0px"
	 viewBox="0 0 512.002 512.002" style="enable-background:new 0 0 512.002 512.002;" xml:space="preserve">
<path style="fill:#2DADE3;" d="M261,172.5h-30v120h50v-100C281,181.454,272.046,172.5,261,172.5z"/>
<path style="fill:#49C9FF;" d="M231,172.5h-20c-11.046,0-20,8.954-20,20v100h60v-100C251,181.454,242.046,172.5,231,172.5z"/>
<path style="fill:#FF4128;" d="M294.97,291.04c-2.15-10.8-6.97-20.61-13.97-28.54h-30l26.93,90h30
	C307.93,352.5,298.04,306.44,294.97,291.04z"/>
<path style="fill:#FF6337;" d="M264.97,291.04c-2.15-10.8-6.97-20.61-13.97-28.54h-60c-9.329,10.575-15,24.454-15,39.665V352.5
	h101.93C277.93,352.5,268.04,306.44,264.97,291.04z"/>
<circle style="fill:#60312C;" cx="251" cy="30" r="22.5"/>
<path style="fill:#A45E43;" d="M285.255,68.335C285.265,68.325,251,68.33,251,68.33v74.17c24.85,0,45-20.15,45-45
	C296,86.38,291.955,76.185,285.255,68.335z"/>
<path style="fill:#C27749;" d="M264.89,80.51l-48.145-12.175C210.045,76.185,206,86.38,206,97.5c0,24.85,20.15,45,45,45
	c8.28,0,15-20.15,15-45C266,91.49,265.61,85.75,264.89,80.51z"/>
<path style="fill:#40211D;" d="M251,52.5l13.89,28.01c7.45-2.23,14.475-6.295,20.365-12.175C277.005,58.645,264.72,52.5,251,52.5z"
	/>
<path style="fill:#60312C;" d="M251,52.5c-13.72,0-26.005,6.145-34.255,15.835c13.04,13.04,31.645,17.105,48.145,12.175
	C262.66,64.08,257.28,52.5,251,52.5z"/>
<path d="M358.372,497.385l-25.923-8.641L305.25,360h2.677c2.266,0,4.409-1.024,5.833-2.786s1.976-4.073,1.5-6.288
	c-0.099-0.46-9.912-46.185-12.937-61.354c-1.538-7.718-4.326-15.039-8.203-21.653c17.031-5.543,29.379-21.562,29.379-40.418
	c0-21.19-15.59-38.806-35.902-41.985C284.499,173.724,273.75,165,261,165h-50c-12.75,0-23.499,8.724-26.598,20.515
	C164.09,188.694,148.5,206.31,148.5,227.5c0,18.85,12.34,34.864,29.362,40.412c-6.085,10.314-9.362,22.118-9.362,34.253V352.5
	c0,4.143,3.357,7.5,7.5,7.5h22.5v129.095l-24.872,8.29c-3.929,1.31-6.053,5.558-4.743,9.487c1.048,3.143,3.974,5.13,7.114,5.13
	c0.786,0,1.586-0.125,2.373-0.387l30-10c3.063-1.021,5.128-3.887,5.128-7.115V360h76.419l28.743,136.05
	c0.55,2.605,2.44,4.724,4.966,5.565l30,10c0.787,0.262,1.587,0.387,2.373,0.387c3.141,0,6.066-1.987,7.114-5.13
	C364.425,502.942,362.301,498.694,358.372,497.385z M308.5,227.5c0,12.563-8.472,23.178-20,26.452v-52.904
	C300.028,204.322,308.5,214.938,308.5,227.5z M211,180h50c6.893,0,12.5,5.607,12.5,12.5V255h-75v-62.5
	C198.5,185.607,204.107,180,211,180z M163.5,227.5c0-12.563,8.472-23.178,20-26.452v52.904
	C171.972,250.678,163.5,240.063,163.5,227.5z M183.5,302.165c0-11.687,3.905-22.981,11.039-32.165h82.926
	c4.999,6.467,8.489,14.18,10.148,22.504c2.21,11.081,7.991,38.238,11.039,52.496H183.5V302.165z"/>
<path d="M251,150c28.948,0,52.5-23.552,52.5-52.5c0-12.813-4.621-24.564-12.275-33.688c-0.204-0.27-0.422-0.532-0.667-0.777
	c-4.778-5.462-10.622-9.916-17.222-13.032C278.097,44.689,281,37.679,281,30c0-16.542-13.458-30-30-30s-30,13.458-30,30
	c0,7.679,2.903,14.689,7.665,20.002c-6.6,3.116-12.445,7.57-17.195,13.008c-0.273,0.27-0.49,0.532-0.695,0.802
	C203.121,72.936,198.5,84.687,198.5,97.5C198.5,126.448,222.052,150,251,150z M251,135c-20.678,0-37.5-16.822-37.5-37.5
	c0-6.567,1.702-12.742,4.68-18.116c9.75,7.072,21.284,10.614,32.82,10.614s23.07-3.542,32.82-10.614
	c2.978,5.374,4.68,11.549,4.68,18.116C288.5,118.178,271.678,135,251,135z M227.978,67.932C234.337,62.968,242.326,60,251,60
	c8.674,0,16.663,2.968,23.022,7.932C260.183,77.351,241.817,77.351,227.978,67.932z M236,30c0-8.271,6.729-15,15-15s15,6.729,15,15
	s-6.729,15-15,15S236,38.271,236,30z"/>
<g>
</g>
<g>
</g>
<g>
</g>
<g>
</g>
<g>
</g>
<g>
</g>
<g>
</g>
<g>
</g>
<g>
</g>
<g>
</g>
<g>
</g>
<g>
</g>
<g>
</g>
<g>
</g>
<g>
</g>
</svg>
