<?xml version="1.0" encoding="iso-8859-1"?>
<!-- Generator: Adobe Illustrator 19.0.0, SVG Export Plug-In . SVG Version: 6.00 Build 0)  -->
<svg version="1.1" id="Capa_1" xmlns="http://www.w3.org/2000/svg" xmlns:xlink="http://www.w3.org/1999/xlink" x="0px" y="0px"
	 viewBox="0 0 512.002 512.002" style="enable-background:new 0 0 512.002 512.002;" xml:space="preserve">
<circle style="fill:#60312C;" cx="127.5" cy="30" r="22.5"/>
<path style="fill:#A45E43;" d="M161.756,68.335c0.01-0.01-34.255-0.005-34.255-0.005v74.17c24.85,0,45-20.15,45-45
	C172.501,86.38,168.456,76.185,161.756,68.335z"/>
<path style="fill:#C27749;" d="M141.391,80.51L93.246,68.335c-6.7,7.85-10.745,18.045-10.745,29.165c0,24.85,20.15,45,45,45
	c8.28,0,15-20.15,15-45C142.501,91.49,142.111,85.75,141.391,80.51z"/>
<path style="fill:#40211D;" d="M127.501,52.5l13.89,28.01c7.45-2.23,14.475-6.295,20.365-12.175
	C153.506,58.645,141.221,52.5,127.501,52.5z"/>
<path style="fill:#60312C;" d="M127.501,52.5c-13.72,0-26.005,6.145-34.255,15.835c13.04,13.04,31.645,17.105,48.145,12.175
	C139.161,64.08,133.781,52.5,127.501,52.5z"/>
<path style="fill:#7DD9FF;" d="M93.489,67.52L67.501,22.5L41.513,67.52c-2.547,4.409-4.012,9.522-4.012,14.98
	c0,16.568,13.431,30,30,30s30-13.432,30-30C97.501,77.042,96.036,71.929,93.489,67.52z"/>
<path style="fill:#2DADE3;" d="M152.501,172.5h-30v120h50v-100C172.501,181.454,163.547,172.5,152.501,172.5z"/>
<path style="fill:#49C9FF;" d="M122.501,172.5h-20c-11.046,0-20,8.954-20,20v100h60v-100
	C142.501,181.454,133.547,172.5,122.501,172.5z"/>
<path style="fill:#FF4128;" d="M172.501,262.5h-30l15,90h30v-50.335C187.501,286.954,181.83,273.075,172.501,262.5z"/>
<path style="fill:#FF6337;" d="M142.501,262.5h-60c-9.329,10.575-15,24.454-15,39.665V352.5h90v-50.335
	C157.501,286.954,151.83,273.075,142.501,262.5z"/>
<path style="fill:#FFF0D3;" d="M354.501,22.5v240c66.168,0,120-53.832,120-120S420.669,22.5,354.501,22.5z"/>
<path style="fill:#FFFFFF;" d="M444.501,142.5c0-66.168-40.374-120-90-120c-60.676,0-110.971,45.269-118.903,103.806L196.501,142.5
	l39.097,16.194C243.53,217.231,293.825,262.5,354.501,262.5C404.127,262.5,444.501,208.668,444.501,142.5z"/>
<path style="fill:#FFA754;" d="M354.501,52.5v180c49.706,0,90-40.294,90-90S404.207,52.5,354.501,52.5z"/>
<path style="fill:#FFCB63;" d="M414.501,142.5c0-49.706-26.863-90-60-90c-49.706,0-90,40.294-90,90s40.294,90,90,90
	C387.638,232.5,414.501,192.206,414.501,142.5z"/>
<path style="fill:#FF8646;" d="M399.501,127.5h-90c-8.284,0-15,6.716-15,15s6.716,15,15,15h90c8.284,0,15-6.716,15-15
	S407.785,127.5,399.501,127.5z"/>
<path d="M79.203,118.12C87.306,137.265,106.062,150,127.5,150c28.948,0,52.5-23.552,52.5-52.5c0-12.812-4.619-24.561-12.271-33.685
	c-0.205-0.271-0.424-0.535-0.671-0.782c-4.781-5.464-10.624-9.916-17.222-13.031c4.762-5.313,7.665-12.323,7.665-20.002
	c0-16.542-13.458-30-30-30s-30,13.458-30,30c0,7.683,2.906,14.697,7.672,20.01c-3.43,1.615-6.684,3.604-9.707,5.935l-21.47-37.194
	C72.657,16.43,70.181,15,67.501,15s-5.156,1.43-6.495,3.751L35.02,63.767c-3.283,5.683-5.019,12.16-5.019,18.733
	c0,20.678,16.822,37.5,37.5,37.5C71.587,120,75.519,119.334,79.203,118.12z M104.47,67.938C111.009,62.842,119.096,60,127.501,60
	c8.679,0,16.672,2.972,23.034,7.94C136.686,77.424,118.397,77.483,104.47,67.938z M127.501,135
	c-15.931,0-29.786-9.844-35.157-24.442c7.102-6.296,11.8-15.236,12.542-25.265c7.201,3.205,14.913,4.806,22.622,4.806
	c11.531,0,23.049-3.583,32.819-10.704c2.974,5.371,4.674,11.543,4.674,18.105C165.001,118.178,148.179,135,127.501,135z M112.501,30
	c0-8.271,6.729-15,15-15s15,6.729,15,15s-6.729,15-15,15S112.501,38.271,112.501,30z M45.001,82.5c0-3.941,1.04-7.824,3.008-11.231
	l19.492-33.767l19.493,33.77c0.247,0.428,0.479,0.863,0.697,1.305c0.029,0.066,0.059,0.133,0.09,0.198
	c1.453,3.024,2.22,6.353,2.22,9.726c0,12.406-10.094,22.5-22.5,22.5S45.001,94.906,45.001,82.5z"/>
<path d="M189.873,497.385l-24.872-8.29V360h22.5c4.143,0,7.5-3.357,7.5-7.5v-50.335c0-15.472-5.307-30.417-15-42.406V192.5
	c0-15.163-12.337-27.5-27.5-27.5h-50c-15.163,0-27.5,12.337-27.5,27.5v67.259c-9.693,11.989-15,26.935-15,42.406V352.5
	c0,4.143,3.357,7.5,7.5,7.5h22.5v45.214l-43.727,65.104c-0.83,1.236-1.273,2.692-1.273,4.182v30c0,4.143,3.357,7.5,7.5,7.5
	s7.5-3.357,7.5-7.5v-27.715l43.727-65.104c0.83-1.236,1.273-2.692,1.273-4.182V360h45v134.5c0,3.229,2.065,6.095,5.128,7.115l30,10
	c0.787,0.262,1.587,0.387,2.373,0.387c3.141,0,6.066-1.987,7.114-5.13C195.926,502.942,193.802,498.694,189.873,497.385z
	 M102.501,180h50c6.893,0,12.5,5.607,12.5,12.5V255h-15v-52.5c0-4.143-3.357-7.5-7.5-7.5s-7.5,3.357-7.5,7.5V255h-15v-52.5
	c0-4.143-3.357-7.5-7.5-7.5s-7.5,3.357-7.5,7.5V255h-15v-62.5C90.001,185.607,95.608,180,102.501,180z M120.001,270h15v37.5
	c0,4.136-3.364,7.5-7.5,7.5c-4.136,0-7.5-3.364-7.5-7.5C120.001,307.5,120.001,270,120.001,270z M75.001,302.165
	c0-11.687,3.905-22.981,11.039-32.165h18.961v37.5c0,12.406,10.094,22.5,22.5,22.5s22.5-10.094,22.5-22.5V270h18.961
	c7.133,9.184,11.039,20.479,11.039,32.165V345h-105C75.001,345,75.001,302.165,75.001,302.165z"/>
<path d="M354.501,15c-28.566,0-55.589,9.276-78.146,26.825c-3.27,2.544-3.857,7.256-1.314,10.525
	c2.546,3.27,7.256,3.858,10.525,1.314C305.465,38.183,329.303,30,354.501,30c62.032,0,112.5,50.468,112.5,112.5
	S416.533,255,354.501,255c-56.031,0-103.953-41.835-111.472-97.313c-0.358-2.646-2.096-4.9-4.562-5.922L216.1,142.5l22.368-9.266
	c2.466-1.021,4.203-3.276,4.562-5.922c2.645-19.518,10.474-38.103,22.641-53.746c2.543-3.27,1.954-7.981-1.315-10.524
	c-3.271-2.543-7.981-1.955-10.524,1.315c-12.894,16.576-21.489,36.076-25.005,56.636l-35.194,14.578
	c-2.803,1.16-4.63,3.896-4.63,6.929s1.827,5.769,4.63,6.929l35.193,14.578C239.185,224.734,292.457,270,354.501,270
	c70.304,0,127.5-57.196,127.5-127.5S424.805,15,354.501,15z"/>
<path d="M329.501,157.5c0,4.143,3.357,7.5,7.5,7.5h35c4.143,0,7.5-3.357,7.5-7.5s-3.357-7.5-7.5-7.5h-35
	C332.858,150,329.501,153.357,329.501,157.5z"/>
<path d="M328.501,135c4.143,0,7.5-3.357,7.5-7.5v-10c0-4.143-3.357-7.5-7.5-7.5s-7.5,3.357-7.5,7.5v10
	C321.001,131.643,324.358,135,328.501,135z"/>
<path d="M380.501,135c4.143,0,7.5-3.357,7.5-7.5v-10c0-4.143-3.357-7.5-7.5-7.5s-7.5,3.357-7.5,7.5v10
	C373.001,131.643,376.358,135,380.501,135z"/>
<path d="M354.501,240c53.762,0,97.5-43.738,97.5-97.5S408.263,45,354.501,45s-97.5,43.738-97.5,97.5S300.739,240,354.501,240z
	 M354.501,60c45.49,0,82.5,37.01,82.5,82.5s-37.01,82.5-82.5,82.5s-82.5-37.01-82.5-82.5S309.011,60,354.501,60z"/>
<g>
</g>
<g>
</g>
<g>
</g>
<g>
</g>
<g>
</g>
<g>
</g>
<g>
</g>
<g>
</g>
<g>
</g>
<g>
</g>
<g>
</g>
<g>
</g>
<g>
</g>
<g>
</g>
<g>
</g>
</svg>
