<?xml version="1.0" encoding="iso-8859-1"?>
<!-- Generator: Adobe Illustrator 19.0.0, SVG Export Plug-In . SVG Version: 6.00 Build 0)  -->
<svg version="1.1" id="Capa_1" xmlns="http://www.w3.org/2000/svg" xmlns:xlink="http://www.w3.org/1999/xlink" x="0px" y="0px"
	 viewBox="0 0 512.001 512.001" style="enable-background:new 0 0 512.001 512.001;" xml:space="preserve">
<path style="fill:#FFF0D3;" d="M504.5,142.499l-39.091-16.192C457.501,67.691,407.282,22.499,346.5,22.499v240
	c60.782,0,111.001-45.192,118.909-103.808L504.5,142.499z"/>
<path style="fill:#FFFFFF;" d="M346.5,22.499c-66.274,0-120,53.726-120,120s53.726,120,120,120c49.706,0,90-53.726,90-120
	S396.206,22.499,346.5,22.499z"/>
<path style="fill:#FFCB63;" d="M383.461,198.48c14.349,8.284,32.697,3.368,40.981-10.981s3.368-32.696-10.981-40.981
	c-19.008-10.974-41.469-6.226-60.033-0.019C357.335,165.679,364.453,187.505,383.461,198.48z"/>
<path style="fill:#FFE2A8;" d="M279.539,146.518c-14.349,8.285-19.265,26.632-10.981,40.981s26.632,19.265,40.981,10.981
	c19.008-10.974,26.127-32.8,30.033-51.981C321.008,140.292,298.547,135.544,279.539,146.518z"/>
<path style="fill:#FFF0D3;" d="M316.5,202.499c0,16.569,13.431,30,30,30s30-13.431,30-30c0-21.949-15.343-39.027-30-52
	C331.843,163.472,316.5,180.55,316.5,202.499z"/>
<path style="fill:#FFCB63;" d="M376.5,82.499c0-16.569-13.431-30-30-30s-30,13.431-30,30c0,21.949,15.343,39.027,30,52
	C361.157,121.526,376.5,104.448,376.5,82.499z"/>
<path style="fill:#FFF0D3;" d="M309.539,86.518c-14.349-8.284-32.697-3.368-40.981,10.981s-3.368,32.696,10.981,40.981
	c19.008,10.974,41.469,6.226,60.033,0.019C335.665,119.319,328.547,97.493,309.539,86.518z"/>
<path style="fill:#FFE2A8;" d="M413.461,138.48c14.349-8.285,19.265-26.632,10.981-40.981s-26.632-19.265-40.981-10.981
	c-19.008,10.974-26.127,32.8-30.033,51.981C371.992,144.706,394.453,149.454,413.461,138.48z"/>
<path style="fill:#FF6337;" d="M346.5,112.499l-10,30l10,30c16.569,0,30-13.432,30-30S363.068,112.499,346.5,112.499z"/>
<path style="fill:#FF8646;" d="M316.5,142.499c0,16.568,13.431,30,30,30v-60C329.931,112.499,316.5,125.931,316.5,142.499z"/>
<circle style="fill:#60312C;" cx="82.499" cy="29.999" r="22.5"/>
<path style="fill:#A45E43;" d="M116.755,68.334c0.01-0.01-34.255-0.005-34.255-0.005v74.17c24.85,0,45-20.15,45-45
	C127.5,86.379,123.455,76.184,116.755,68.334z"/>
<path style="fill:#C27749;" d="M96.39,80.509L48.245,68.334c-6.7,7.85-10.745,18.045-10.745,29.165c0,24.85,20.15,45,45,45
	c8.28,0,15-20.15,15-45C97.5,91.489,97.11,85.749,96.39,80.509z"/>
<path style="fill:#40211D;" d="M82.5,52.499l13.89,28.01c7.45-2.23,14.475-6.295,20.365-12.175
	C108.505,58.644,96.22,52.499,82.5,52.499z"/>
<path style="fill:#60312C;" d="M82.5,52.499c-13.72,0-26.005,6.145-34.255,15.835c13.04,13.04,31.645,17.105,48.145,12.175
	C94.16,64.079,88.78,52.499,82.5,52.499z"/>
<path style="fill:#2DADE3;" d="M107.5,172.499h-30v120h50v-100C127.5,181.453,118.546,172.499,107.5,172.499z"/>
<path style="fill:#49C9FF;" d="M77.5,172.499h-20c-11.046,0-20,8.954-20,20v100h60v-100C97.5,181.453,88.546,172.499,77.5,172.499z"
	/>
<path style="fill:#FF4128;" d="M127.5,262.499h-30l15,90h30v-50.335C142.5,286.953,136.829,273.074,127.5,262.499z"/>
<path style="fill:#FF6337;" d="M97.5,262.499h-60c-9.329,10.575-15,24.454-15,39.665v50.335h90v-50.335
	C112.5,286.953,106.829,273.074,97.5,262.499z"/>
<path d="M507.37,135.57l-35.187-14.575c-4.872-28.64-19.479-54.851-41.443-74.2c-23.273-20.504-53.19-31.796-84.24-31.796
	c-28.605,0-55.641,9.262-78.184,26.784c-3.271,2.542-3.861,7.254-1.319,10.524c2.543,3.271,7.254,3.86,10.524,1.319
	c19.886-15.457,43.739-23.627,68.979-23.627c56.067,0,103.992,41.834,111.476,97.311c0.357,2.646,2.095,4.904,4.563,5.926
	l22.363,9.264l-22.363,9.264c-2.468,1.021-4.205,3.279-4.563,5.926c-7.484,55.475-55.409,97.309-111.476,97.309
	c-62.032,0-112.5-50.468-112.5-112.5c0-25.241,8.17-49.093,23.628-68.979c2.542-3.27,1.952-7.981-1.318-10.523
	c-3.271-2.543-7.982-1.952-10.524,1.318c-17.523,22.542-26.785,49.577-26.785,78.184c0,70.304,57.196,127.5,127.5,127.5
	c31.05,0,60.967-11.292,84.24-31.796c21.964-19.35,36.571-45.561,41.443-74.2l35.187-14.575c2.803-1.16,4.63-3.896,4.63-6.929
	S510.173,136.73,507.37,135.57z"/>
<path d="M430.937,93.749c-9.583-16.598-30.017-23.089-47.214-15.723c-2.218-18.576-18.06-33.027-37.223-33.027
	s-35.005,14.451-37.224,33.027c-17.198-7.367-37.632-0.872-47.214,15.723c-9.581,16.595-4.988,37.538,9.988,48.748
	c-6.716,5.013-11.532,12.077-13.734,20.297c-2.593,9.675-1.263,19.78,3.746,28.455c6.938,12.018,19.568,18.743,32.539,18.742
	c4.941,0,9.93-0.99,14.674-3.022c2.218,18.577,18.06,33.03,37.224,33.03c19.165,0,35.007-14.453,37.224-33.03
	c4.745,2.032,9.732,3.022,14.675,3.022c12.969,0,25.601-6.727,32.538-18.742c9.582-16.596,4.987-37.54-9.99-48.75
	C435.925,131.289,440.519,110.345,430.937,93.749z M324,142.499c0-12.406,10.094-22.5,22.5-22.5s22.5,10.094,22.5,22.5
	s-10.094,22.5-22.5,22.5S324,154.905,324,142.499z M346.5,59.999c12.406,0,22.5,10.094,22.5,22.5c0,2.026-0.164,4.037-0.493,6.092
	c-4.867,4.814-9.008,10.668-12.486,17.637c-3.042-0.799-6.232-1.229-9.521-1.229s-6.479,0.43-9.521,1.229
	c-3.477-6.969-7.619-12.822-12.486-17.637c-0.329-2.055-0.493-4.065-0.493-6.092C324,70.093,334.094,59.999,346.5,59.999z
	 M275.053,101.249c6.203-10.741,19.987-14.438,30.735-8.235c7.353,4.245,13.192,10.782,17.748,19.87
	c-7.57,5.883-12.83,14.595-14.183,24.537c-10.14,0.595-18.716-1.194-26.065-5.437C272.544,125.781,268.85,111.993,275.053,101.249z
	 M288.715,194.232c-5.806-1.556-10.657-5.278-13.662-10.483s-3.803-11.269-2.248-17.073c1.556-5.806,5.278-10.657,10.483-13.662
	c1.752-1.012,3.571-1.873,5.512-2.616c5.23,1.433,10.792,2.152,16.743,2.152c1.567,0,3.168-0.063,4.79-0.161
	c1.726,6.306,5.055,11.953,9.527,16.473c-4.302,6.502-7.305,13.022-9.043,19.651c-1.617,1.313-3.276,2.46-5.03,3.472
	C300.584,194.988,294.52,195.785,288.715,194.232z M346.5,224.999c-12.406,0-22.5-10.094-22.5-22.5
	c0-8.485,2.739-16.806,8.325-25.291c4.376,1.794,9.161,2.791,14.175,2.791s9.799-0.997,14.175-2.791
	c5.586,8.485,8.325,16.806,8.325,25.291C369,214.905,358.906,224.999,346.5,224.999z M417.947,183.749
	c-6.203,10.744-19.989,14.44-30.737,8.234c-1.753-1.012-3.412-2.158-5.027-3.471c-1.738-6.629-4.741-13.148-9.043-19.651
	c4.473-4.52,7.801-10.167,9.527-16.473c1.621,0.099,3.223,0.161,4.79,0.161c5.951,0,11.513-0.72,16.743-2.152
	c1.941,0.743,3.76,1.604,5.512,2.616C420.456,159.217,424.15,173.005,417.947,183.749z M409.712,131.984
	c-7.348,4.243-15.923,6.032-26.065,5.437c-1.353-9.942-6.613-18.654-14.183-24.537c4.557-9.088,10.396-15.625,17.748-19.87
	c10.747-6.205,24.533-2.509,30.735,8.235C424.15,111.993,420.456,125.781,409.712,131.984z"/>
<path d="M196.5,194.999c-4.142,0-7.5,3.357-7.5,7.5c0,12.406-10.093,22.5-22.5,22.5H135v-32.5c0-15.163-12.336-27.5-27.5-27.5H90
	v-15.544c25.407-3.651,45-25.555,45-51.956c0-12.813-4.621-24.564-12.275-33.689c-0.205-0.27-0.422-0.531-0.668-0.777
	c-4.778-5.462-10.622-9.916-17.222-13.031C109.597,44.689,112.5,37.679,112.5,30c0-16.542-13.458-30-30-30s-30,13.458-30,30
	c0,7.679,2.903,14.689,7.665,20.002c-6.6,3.115-12.444,7.569-17.194,13.006c-0.274,0.271-0.491,0.533-0.696,0.803
	C34.621,72.935,30,84.686,30,97.499c0,26.401,19.593,48.305,45,51.956v15.544H57.5c-15.164,0-27.5,12.337-27.5,27.5v67.259
	c-9.693,11.989-15,26.935-15,42.406v50.335c0,4.143,3.358,7.5,7.5,7.5H45v45.214L1.274,470.317C0.443,471.553,0,473.009,0,474.499
	v30c0,4.143,3.358,7.5,7.5,7.5s7.5-3.357,7.5-7.5v-27.715l43.726-65.104c0.831-1.236,1.274-2.692,1.274-4.182v-47.499h45v134.5
	c0,3.229,2.066,6.095,5.128,7.115l30,10c0.787,0.262,1.586,0.387,2.373,0.387c3.14,0,6.066-1.987,7.114-5.13
	c1.31-3.93-0.814-8.178-4.744-9.487l-24.872-8.29V359.999h22.5c4.142,0,7.5-3.357,7.5-7.5v-50.335c0-15.472-5.307-30.417-15-42.406
	v-19.759h31.5c20.678,0,37.5-16.822,37.5-37.5C204,198.356,200.642,194.999,196.5,194.999z M105.522,67.93
	c-13.839,9.42-32.206,9.42-46.045,0c6.361-4.963,14.349-7.931,23.023-7.931S99.162,62.967,105.522,67.93z M67.5,29.999
	c0-8.271,6.729-15,15-15s15,6.729,15,15s-6.729,15-15,15S67.5,38.27,67.5,29.999z M45,97.499c0-6.567,1.702-12.742,4.68-18.116
	c9.75,7.072,21.284,10.615,32.82,10.615s23.07-3.543,32.82-10.615c2.978,5.374,4.68,11.549,4.68,18.116
	c0,18.109-12.904,33.261-30,36.745v-6.745c0-4.143-3.358-7.5-7.5-7.5s-7.5,3.357-7.5,7.5v6.745C57.904,130.76,45,115.608,45,97.499z
	 M57.5,179.999H75v37.5c0,4.136-3.364,7.5-7.5,7.5c-4.142,0-7.5,3.357-7.5,7.5s3.358,7.5,7.5,7.5c12.407,0,22.5-10.094,22.5-22.5
	v-37.5h17.5c6.893,0,12.5,5.607,12.5,12.5v62.5H45v-62.5C45,185.606,50.607,179.999,57.5,179.999z M135,344.999H30v-42.835
	c0-11.687,3.906-22.981,11.039-32.165h82.922c7.134,9.184,11.039,20.479,11.039,32.165V344.999z"/>
<g>
</g>
<g>
</g>
<g>
</g>
<g>
</g>
<g>
</g>
<g>
</g>
<g>
</g>
<g>
</g>
<g>
</g>
<g>
</g>
<g>
</g>
<g>
</g>
<g>
</g>
<g>
</g>
<g>
</g>
</svg>
