<?xml version="1.0" encoding="iso-8859-1"?>
<!-- Generator: Adobe Illustrator 19.0.0, SVG Export Plug-In . SVG Version: 6.00 Build 0)  -->
<svg version="1.1" id="Capa_1" xmlns="http://www.w3.org/2000/svg" xmlns:xlink="http://www.w3.org/1999/xlink" x="0px" y="0px"
	 viewBox="0 0 512.002 512.002" style="enable-background:new 0 0 512.002 512.002;" xml:space="preserve">
<path style="fill:#7DD9FF;" d="M395.001,7.5v135c28.995,0,52.5-30.221,52.5-67.5S423.996,7.5,395.001,7.5z"/>
<path style="fill:#A8E5FF;" d="M417.501,75c0-37.279-10.074-67.5-22.5-67.5c-28.995,0-52.5,30.221-52.5,67.5s23.505,67.5,52.5,67.5
	C407.427,142.5,417.501,112.279,417.501,75z"/>
<path style="fill:#CF301B;" d="M135.501,52.5c-3.423,0-6.696,0.639-9.709,1.802L113.501,142.5c0,0,49-26.525,49-63
	C162.501,64.588,150.413,52.5,135.501,52.5z"/>
<path style="fill:#FF4128;" d="M125.792,54.302c-4.977,1.922-9.242,5.275-12.291,9.556c-4.895-6.871-12.921-11.357-22-11.357
	c-14.912,0-27,12.088-27,27c0,36.475,49,63,49,63s19-26.525,19-63C132.501,68.008,129.716,58.199,125.792,54.302z"/>
<circle style="fill:#60312C;" cx="237.5" cy="30" r="22.5"/>
<path style="fill:#A45E43;" d="M271.756,68.335c0.01-0.01-34.255-0.005-34.255-0.005v74.17c24.85,0,45-20.15,45-45
	C282.501,86.38,278.456,76.185,271.756,68.335z"/>
<path style="fill:#C27749;" d="M251.391,80.51l-48.145-12.175c-6.7,7.85-10.745,18.045-10.745,29.165c0,24.85,20.15,45,45,45
	c8.28,0,15-20.15,15-45C252.501,91.49,252.111,85.75,251.391,80.51z"/>
<path style="fill:#40211D;" d="M237.501,52.5l13.89,28.01c7.45-2.23,14.475-6.295,20.365-12.175
	C263.506,58.645,251.221,52.5,237.501,52.5z"/>
<path style="fill:#60312C;" d="M237.501,52.5c-13.72,0-26.005,6.145-34.255,15.835c13.04,13.04,31.645,17.105,48.145,12.175
	C249.161,64.08,243.781,52.5,237.501,52.5z"/>
<path style="fill:#2DADE3;" d="M262.501,172.5h-30v120h50v-100C282.501,181.454,273.547,172.5,262.501,172.5z"/>
<path style="fill:#49C9FF;" d="M232.501,172.5h-20c-11.046,0-20,8.954-20,20v100h60v-100
	C252.501,181.454,243.547,172.5,232.501,172.5z"/>
<path style="fill:#FF4128;" d="M282.501,262.5h-30l15,90h30v-50.335C297.501,286.954,291.83,273.075,282.501,262.5z"/>
<path style="fill:#FF6337;" d="M252.501,262.5h-60c-9.329,10.575-15,24.454-15,39.665V352.5h90v-50.335
	C267.501,286.954,261.83,273.075,252.501,262.5z"/>
<path d="M455.001,75c0-41.355-26.916-75-60-75s-60,33.645-60,75c0,38.179,22.945,69.763,52.5,74.394V185h-98.548
	c-3.274-11.528-13.889-20-26.452-20h-17.5v-15.544c25.407-3.651,45-25.555,45-51.956c0-12.813-4.621-24.564-12.275-33.689
	c-0.205-0.27-0.422-0.531-0.668-0.777c-4.778-5.462-10.622-9.916-17.222-13.031c4.762-5.313,7.665-12.323,7.665-20.002
	c0-16.542-13.458-30-30-30s-30,13.458-30,30c0,7.679,2.903,14.689,7.665,20.002c-6.6,3.115-12.444,7.569-17.194,13.006
	c-0.274,0.271-0.491,0.533-0.696,0.803c-7.654,9.125-12.275,20.876-12.275,33.689c0,26.401,19.593,48.305,45,51.956V165h-17.5
	c-15.164,0-27.5,12.337-27.5,27.5v67.259c-9.693,11.989-15,26.935-15,42.406V352.5c0,4.143,3.358,7.5,7.5,7.5h22.5v45.214
	l-43.726,65.104c-0.831,1.236-1.274,2.692-1.274,4.182v30c0,4.143,3.358,7.5,7.5,7.5s7.5-3.357,7.5-7.5v-27.715l43.726-65.104
	c0.831-1.236,1.274-2.692,1.274-4.182V360h45v134.5c0,3.229,2.066,6.095,5.128,7.115l30,10c0.787,0.262,1.586,0.387,2.373,0.387
	c3.14,0,6.066-1.987,7.114-5.13c1.31-3.93-0.814-8.178-4.744-9.487L275,489.095V360h22.5c4.142,0,7.5-3.357,7.5-7.5v-50.335
	c0-15.472-5.307-30.417-15-42.406V200h97.5v17.5c0,4.143,3.358,7.5,7.5,7.5s7.5-3.357,7.5-7.5V200h7.5c4.142,0,7.5-3.357,7.5-7.5
	s-3.358-7.5-7.5-7.5h-7.5v-35.606C432.056,144.763,455.001,113.179,455.001,75z M260.523,67.931c-13.839,9.42-32.206,9.42-46.045,0
	C220.838,62.968,228.827,60,237.5,60S254.163,62.968,260.523,67.931z M222.501,30c0-8.271,6.729-15,15-15s15,6.729,15,15
	s-6.729,15-15,15S222.501,38.271,222.501,30z M200.001,97.5c0-6.567,1.702-12.742,4.68-18.116
	c9.75,7.072,21.284,10.615,32.82,10.615s23.07-3.543,32.82-10.615c2.978,5.374,4.68,11.549,4.68,18.116
	c0,18.109-12.904,33.261-30,36.745V127.5c0-4.143-3.358-7.5-7.5-7.5s-7.5,3.357-7.5,7.5v6.745
	C212.905,130.761,200.001,115.609,200.001,97.5z M212.501,180h17.5v37.5c0,4.136-3.364,7.5-7.5,7.5c-4.142,0-7.5,3.357-7.5,7.5
	s3.358,7.5,7.5,7.5c12.407,0,22.5-10.094,22.5-22.5V180h17.5c6.893,0,12.5,5.607,12.5,12.5V255h-75v-62.5
	C200.001,185.607,205.608,180,212.501,180z M290.001,345h-105v-42.835c0-11.687,3.905-22.981,11.039-32.165h82.922
	c7.134,9.184,11.039,20.479,11.039,32.165V345z M350.001,75c0-33.084,20.187-60,45-60s45,26.916,45,60s-20.187,60-45,60
	S350.001,108.084,350.001,75z"/>
<path d="M135.501,45c-8.103,0-15.875,2.873-22,7.94c-6.125-5.067-13.897-7.94-22-7.94c-19.023,0-34.5,15.477-34.5,34.5
	c0,40.478,50.769,68.426,52.93,69.596c1.114,0.603,2.342,0.904,3.57,0.904s2.457-0.302,3.57-0.904
	c2.161-1.17,52.93-29.118,52.93-69.596C170.001,60.477,154.524,45,135.501,45z M113.501,133.783
	c-10.667-6.632-41.5-28.074-41.5-54.283c0-10.752,8.748-19.5,19.5-19.5c6.289,0,12.23,3.068,15.892,8.209
	c1.407,1.976,3.683,3.148,6.108,3.148s4.701-1.173,6.108-3.148c3.662-5.141,9.603-8.209,15.892-8.209c10.752,0,19.5,8.748,19.5,19.5
	C155.001,105.709,124.167,127.151,113.501,133.783z"/>
<g>
</g>
<g>
</g>
<g>
</g>
<g>
</g>
<g>
</g>
<g>
</g>
<g>
</g>
<g>
</g>
<g>
</g>
<g>
</g>
<g>
</g>
<g>
</g>
<g>
</g>
<g>
</g>
<g>
</g>
</svg>
