<?xml version="1.0" encoding="iso-8859-1"?>
<!-- Generator: Adobe Illustrator 19.0.0, SVG Export Plug-In . SVG Version: 6.00 Build 0)  -->
<svg version="1.1" id="Capa_1" xmlns="http://www.w3.org/2000/svg" xmlns:xlink="http://www.w3.org/1999/xlink" x="0px" y="0px"
	 viewBox="0 0 512.001 512.001" style="enable-background:new 0 0 512.001 512.001;" xml:space="preserve">
<path style="fill:#CF301B;" d="M278.001,52.499c-3.423,0-6.696,0.639-9.709,1.802l-12.291,88.198c0,0,49-26.525,49-63
	C305.001,64.587,292.913,52.499,278.001,52.499z"/>
<path style="fill:#FF4128;" d="M268.292,54.301c-4.977,1.922-9.242,5.275-12.291,9.556c-4.895-6.871-12.921-11.357-22-11.357
	c-14.912,0-27,12.088-27,27c0,36.475,49,63,49,63s19-26.525,19-63C275.001,68.007,272.216,58.198,268.292,54.301z"/>
<path style="fill:#2DADE3;" d="M111.001,262.499v75c24.853,0,45-20.147,45-45L111.001,262.499z"/>
<path style="fill:#49C9FF;" d="M126.001,292.499l-15-30l-45,30c0,24.853,20.147,45,45,45
	C119.285,337.499,126.001,317.352,126.001,292.499z"/>
<path style="fill:#9DB55F;" d="M136.001,172.499h-30l20,120h30v-100C156.001,181.453,147.047,172.499,136.001,172.499z"/>
<path style="fill:#B9D171;" d="M106.001,172.499h-20c-11.046,0-20,8.954-20,20v100h60v-100
	C126.001,181.453,117.047,172.499,106.001,172.499z"/>
<path style="fill:#FFB4A9;" d="M111.001,52.499v101l45-46v-10C156.001,72.646,135.854,52.499,111.001,52.499z"/>
<path style="fill:#FFD9D4;" d="M111.001,52.499c-24.853,0-45,20.147-45,45v10l60,46v-56
	C126.001,72.646,119.285,52.499,111.001,52.499z"/>
<path style="fill:#FF6337;" d="M129.71,107.499c-1.053-1.573-2.303-3.002-3.709-4.261l-15,69.261c24.853,0,45-20.147,45-45v-20
	H129.71z"/>
<path style="fill:#FF8646;" d="M126.001,127.499v-24.261c-3.981-3.566-9.235-5.739-15-5.739c-7.801,0-14.672,3.971-18.709,10H66.001
	v20c0,24.853,20.147,45,45,45C119.285,172.499,126.001,152.352,126.001,127.499z"/>
<path style="fill:#A0DEDC;" d="M241.001,387.499l15,60c16.569,0,30-13.432,30-30v-15L241.001,387.499z"/>
<path style="fill:#CDF2F1;" d="M226.001,402.499v15c0,16.568,13.431,30,30,30v-60L226.001,402.499z"/>
<path style="fill:#F63E31;" d="M256.001,352.499h10c11.046,0,20,8.954,20,20v30h-30l-15-25L256.001,352.499z"/>
<path style="fill:#FE5D26;" d="M256.001,352.499h-10c-11.046,0-20,8.954-20,20v30h30V352.499z"/>
<path style="fill:#A45E43;" d="M256.001,262.499l-15,30l15,30c16.569,0,30-13.431,30-30S272.57,262.499,256.001,262.499z"/>
<path style="fill:#C27749;" d="M226.001,292.499c0,16.569,13.431,30,30,30v-60C239.432,262.499,226.001,275.93,226.001,292.499z"/>
<circle style="fill:#60312C;" cx="401" cy="29.999" r="22.5"/>
<path style="fill:#A45E43;" d="M435.256,68.334c0.01-0.01-34.255-0.005-34.255-0.005v74.17c24.85,0,45-20.15,45-45
	C446.001,86.379,441.956,76.184,435.256,68.334z"/>
<path style="fill:#C27749;" d="M414.891,80.509l-48.145-12.175c-6.7,7.85-10.745,18.045-10.745,29.165c0,24.85,20.15,45,45,45
	c8.28,0,15-20.15,15-45C416.001,91.489,415.611,85.749,414.891,80.509z"/>
<path style="fill:#40211D;" d="M401.001,52.499l13.89,28.01c7.45-2.23,14.475-6.295,20.365-12.175
	C427.006,58.644,414.721,52.499,401.001,52.499z"/>
<path style="fill:#60312C;" d="M401.001,52.499c-13.72,0-26.005,6.145-34.255,15.835c13.04,13.04,31.645,17.105,48.145,12.175
	C412.661,64.079,407.281,52.499,401.001,52.499z"/>
<path style="fill:#2DADE3;" d="M426.001,172.499h-30v120h50v-100C446.001,181.453,437.047,172.499,426.001,172.499z"/>
<path style="fill:#49C9FF;" d="M396.001,172.499h-20c-11.046,0-20,8.954-20,20v100h60v-100
	C416.001,181.453,407.047,172.499,396.001,172.499z"/>
<path style="fill:#FF4128;" d="M446.001,262.499h-30l15,90h30v-50.335C461.001,286.953,455.329,273.074,446.001,262.499z"/>
<path style="fill:#FF6337;" d="M416.001,262.499h-60v90h75v-50.335C431.001,286.953,425.329,273.074,416.001,262.499z"/>
<path d="M252.431,149.095c1.114,0.603,2.342,0.904,3.57,0.904c1.228,0,2.457-0.302,3.57-0.904c2.161-1.17,52.93-29.118,52.93-69.596
	c0-19.023-15.477-34.5-34.5-34.5c-8.103,0-15.875,2.873-22,7.94c-6.125-5.067-13.897-7.94-22-7.94c-19.023,0-34.5,15.477-34.5,34.5
	C199.501,119.977,250.27,147.925,252.431,149.095z M234.001,59.999c6.289,0,12.23,3.068,15.892,8.209
	c1.407,1.976,3.683,3.148,6.108,3.148c2.425,0,4.701-1.173,6.108-3.148c3.662-5.141,9.603-8.209,15.892-8.209
	c10.752,0,19.5,8.748,19.5,19.5c0,26.209-30.833,47.651-41.5,54.283c-10.667-6.632-41.5-28.074-41.5-54.283
	C214.501,68.747,223.249,59.999,234.001,59.999z"/>
<path d="M256.001,254.999c-20.678,0-37.5,16.822-37.5,37.5s16.822,37.5,37.5,37.5s37.5-16.822,37.5-37.5
	S276.678,254.999,256.001,254.999z M256.001,314.999c-12.407,0-22.5-10.094-22.5-22.5s10.093-22.5,22.5-22.5
	c12.407,0,22.5,10.094,22.5,22.5S268.408,314.999,256.001,314.999z"/>
<path d="M503.501,242.499c0-29.486-22.313-53.847-50.938-57.114c-3.144-11.726-13.859-20.386-26.562-20.386h-50
	c-12.78,0-23.552,8.764-26.622,20.598c-17.529,3.138-30.878,18.485-30.878,36.902v110c0,15.773-11.297,28.953-26.223,31.886
	c-3.47-11.215-13.937-19.386-26.277-19.386h-20c-12.34,0-22.807,8.171-26.277,19.386c-14.926-2.933-26.223-16.112-26.223-31.886
	v-110c0-18.417-13.349-33.765-30.878-36.902c-2.245-8.651-8.608-15.657-16.861-18.802c10.869-9.626,17.739-23.67,17.739-39.296v-30
	c0-28.948-23.551-52.5-52.5-52.5s-52.5,23.552-52.5,52.5v30c0,15.626,6.87,29.67,17.739,39.296
	c-8.185,3.119-14.507,10.037-16.801,18.59c-28.625,3.267-50.938,27.628-50.938,57.114c0,29.331,22.08,53.585,50.488,57.057
	c1.547,11.458,6.797,21.753,14.512,29.636v159.902l-24.872,8.29c-3.93,1.31-6.053,5.558-4.744,9.487
	c1.048,3.143,3.974,5.13,7.114,5.13c0.786,0,1.586-0.125,2.373-0.387l30-10c3.063-1.021,5.128-3.887,5.128-7.115V339.923
	c6.824,3.251,14.452,5.076,22.5,5.076s15.676-1.825,22.5-5.076v154.576c0,3.229,2.066,6.095,5.128,7.115l30,10
	c0.787,0.262,1.586,0.387,2.373,0.387c3.14,0,6.066-1.987,7.114-5.13c1.31-3.93-0.814-8.178-4.744-9.487l-24.872-8.29V329.191
	c9.27-9.473,15-22.423,15-36.692v-91.21c8.729,3.096,15,11.433,15,21.21v110c0,23.64,17.36,43.295,40,46.902v125.098
	c0,4.143,3.358,7.5,7.5,7.5s7.5-3.357,7.5-7.5v-57.021c6.272,4.719,14.064,7.521,22.5,7.521c8.436,0,16.228-2.802,22.5-7.521v57.021
	c0,4.143,3.358,7.5,7.5,7.5s7.5-3.357,7.5-7.5V379.401c22.64-3.607,40-23.263,40-46.902v-110c0-9.777,6.271-18.114,15-21.21v151.21
	c0,4.143,3.358,7.5,7.5,7.5h7.5v129.095l-24.872,8.29c-3.93,1.31-6.053,5.558-4.744,9.487c1.048,3.143,3.974,5.13,7.114,5.13
	c0.786,0,1.586-0.125,2.373-0.387l30-10c3.063-1.021,5.128-3.887,5.128-7.115v-134.5h45v134.5c0,3.229,2.066,6.095,5.128,7.115
	l30,10c0.787,0.262,1.586,0.387,2.373,0.387c3.14,0,6.066-1.987,7.114-5.13c1.31-3.93-0.814-8.178-4.744-9.487l-24.872-8.29V359.999
	h22.5c4.142,0,7.5-3.357,7.5-7.5v-50.335c0-2.216-0.121-4.418-0.336-6.605C489.258,286.72,503.501,265.764,503.501,242.499z
	 M111.001,59.999c20.678,0,37.5,16.822,37.5,37.5v2.5h-15.139c-5.652-6.325-13.746-10-22.361-10s-16.708,3.675-22.361,10H73.501
	v-2.5C73.501,76.821,90.323,59.999,111.001,59.999z M73.501,127.499v-12.5h18.792c2.502,0,4.84-1.248,6.232-3.328
	c2.797-4.178,7.461-6.672,12.476-6.672s9.679,2.494,12.476,6.672c1.392,2.08,3.73,3.328,6.232,3.328h18.792v12.5
	c0,20.678-16.822,37.5-37.5,37.5S73.501,148.177,73.501,127.499z M86.001,179.999h50c6.893,0,12.5,5.607,12.5,12.5v92.5h-75v-92.5
	C73.501,185.606,79.108,179.999,86.001,179.999z M23.501,242.499c0-20.875,15.132-38.27,35-41.824v83.648
	C38.633,280.769,23.501,263.374,23.501,242.499z M74.256,299.999h73.491c-3.484,17.096-18.635,30-36.745,30
	S77.74,317.095,74.256,299.999z M246.001,359.999h20c6.893,0,12.5,5.607,12.5,12.5v22.5h-45v-22.5
	C233.501,365.606,239.108,359.999,246.001,359.999z M256.001,439.999c-12.407,0-22.5-10.094-22.5-22.5v-7.5h45v7.5
	C278.501,429.905,268.408,439.999,256.001,439.999z M376.001,179.999h50c6.893,0,12.5,5.607,12.5,12.5v62.5h-75v-62.5
	C363.501,185.606,369.108,179.999,376.001,179.999z M453.501,344.999h-90v-75h78.961c7.134,9.184,11.039,20.479,11.039,32.165
	V344.999z M464.931,280.549c-2.539-7.501-6.384-14.549-11.43-20.791v-59.083c19.868,3.555,35,20.949,35,41.824
	C488.501,258.743,479.108,273.462,464.931,280.549z"/>
<path d="M401.001,149.999c28.949,0,52.5-23.552,52.5-52.5c0-12.813-4.621-24.564-12.275-33.689c-0.205-0.27-0.422-0.531-0.668-0.777
	c-4.778-5.462-10.622-9.916-17.222-13.031c4.762-5.313,7.665-12.323,7.665-20.002c0-16.542-13.458-30-30-30s-30,13.458-30,30
	c0,7.679,2.903,14.689,7.665,20.002c-6.6,3.115-12.444,7.569-17.194,13.006c-0.274,0.271-0.491,0.533-0.696,0.803
	c-7.654,9.125-12.275,20.876-12.275,33.689C348.501,126.447,372.052,149.999,401.001,149.999z M401.001,134.999
	c-20.678,0-37.5-16.822-37.5-37.5c0-6.567,1.702-12.742,4.68-18.116c9.75,7.072,21.284,10.615,32.82,10.615
	s23.07-3.543,32.82-10.615c2.978,5.374,4.68,11.549,4.68,18.116C438.501,118.177,421.678,134.999,401.001,134.999z M377.979,67.93
	c6.36-4.963,14.349-7.931,23.022-7.931s16.662,2.968,23.022,7.931C410.184,77.35,391.818,77.35,377.979,67.93z M386.001,29.999
	c0-8.271,6.729-15,15-15s15,6.729,15,15s-6.729,15-15,15S386.001,38.27,386.001,29.999z"/>
<g>
</g>
<g>
</g>
<g>
</g>
<g>
</g>
<g>
</g>
<g>
</g>
<g>
</g>
<g>
</g>
<g>
</g>
<g>
</g>
<g>
</g>
<g>
</g>
<g>
</g>
<g>
</g>
<g>
</g>
</svg>
