<?xml version="1.0" encoding="iso-8859-1"?>
<!-- Generator: Adobe Illustrator 19.0.0, SVG Export Plug-In . SVG Version: 6.00 Build 0)  -->
<svg version="1.1" id="Capa_1" xmlns="http://www.w3.org/2000/svg" xmlns:xlink="http://www.w3.org/1999/xlink" x="0px" y="0px"
	 viewBox="0 0 512.002 512.002" style="enable-background:new 0 0 512.002 512.002;" xml:space="preserve">
<path style="fill:#2DADE3;" d="M171,172.5h-30v120l50-30v-70C191,181.454,182.046,172.5,171,172.5z"/>
<path style="fill:#49C9FF;" d="M141,172.5h-20c-11.046,0-20,8.954-20,20v100h60v-100C161,181.454,152.046,172.5,141,172.5z"/>
<polygon style="fill:#FF4128;" points="191,262.5 161,262.5 131,307.5 161,352.5 191,352.5 "/>
<path style="fill:#FF6337;" d="M161,262.5h-60c-9.329,10.575-15,24.454-15,39.665V352.5h75V262.5z"/>
<path style="fill:#CF301B;" d="M400,7.5c-2.966,0-5.849,0.34-8.631,0.952L366,142.5c0,0,74-39.999,74-95
	C440,25.408,422.092,7.5,400,7.5z"/>
<path style="fill:#FF4128;" d="M410,47.5c0-19.114-7.974-35.087-18.631-39.048c-10.685,2.354-19.771,8.965-25.369,17.98
	C358.944,15.07,346.359,7.5,332,7.5c-22.091,0-40,17.908-40,40c0.014,54.993,74,95,74,95S410,102.501,410,47.5z"/>
<path style="fill:#2DADE3;" d="M366,262.5v75c24.853,0,45-20.147,45-45L366,262.5z"/>
<path style="fill:#49C9FF;" d="M382,292.5l-15-30l-45,30c0,24.853,20.147,45,45,45C375.284,337.5,382,317.353,382,292.5z"/>
<path style="fill:#9DB55F;" d="M391,172.5h-30l20,120h30v-100C411,181.454,402.046,172.5,391,172.5z"/>
<path style="fill:#B9D171;" d="M361,172.5h-20c-11.046,0-20,8.954-20,20v100h60v-100C381,181.454,372.046,172.5,361,172.5z"/>
<path style="fill:#CF301B;" d="M179.994,7.5c-2.966,0-5.849,0.34-8.631,0.952L145.994,142.5c0,0,74-39.999,74-95
	C219.994,25.408,202.085,7.5,179.994,7.5z"/>
<path style="fill:#FF4128;" d="M189.994,47.5c0-19.114-7.974-35.087-18.631-39.048c-10.685,2.354-19.771,8.965-25.369,17.98
	c-7.056-11.362-19.641-18.933-34-18.933c-22.091,0-40,17.908-40,40c0.014,54.993,74,95,74,95S189.994,102.501,189.994,47.5z"/>
<path d="M362.433,149.098C363.546,149.7,364.773,150,366,150s2.454-0.301,3.566-0.902c3.182-1.72,77.934-42.801,77.934-101.598
	C447.5,21.309,426.191,0,400,0c-13.032,0-25.165,5.216-34,14.313C357.165,5.216,345.032,0,332,0c-26.191,0-47.5,21.309-47.5,47.502
	C284.515,106.289,359.251,147.377,362.433,149.098z M332,15c11.316,0,21.645,5.753,27.629,15.389
	c1.368,2.204,3.777,3.544,6.371,3.544s5.003-1.34,6.371-3.544C378.355,20.753,388.684,15,400,15c17.921,0,32.5,14.579,32.5,32.5
	c0,43.245-52.225,77.715-66.504,86.328c-14.285-8.6-66.485-42.999-66.496-86.328C299.5,29.579,314.079,15,332,15z"/>
<path d="M481.437,428.912L403.5,402.145v-72.953c9.27-9.473,15-22.424,15-36.692v-100c0-15.163-12.337-27.5-27.5-27.5h-50
	c-15.163,0-27.5,12.337-27.5,27.5v28.178c-19.017-1.167-37.698-8.981-52.196-23.481c-2.93-2.928-7.678-2.928-10.607,0
	c-14.499,14.5-33.18,22.314-52.196,23.481V192.5c0-15.163-12.337-27.5-27.5-27.5h-50c-15.163,0-27.5,12.337-27.5,27.5v67.259
	c-9.693,11.989-15,26.935-15,42.406V352.5c0,4.143,3.357,7.5,7.5,7.5h22.5v42.145l-77.937,26.768
	c-3.029,1.041-5.063,3.891-5.063,7.094v30c0,4.143,3.357,7.5,7.5,7.5c4.143,0,7.5-3.357,7.5-7.5V441.36l77.937-26.768
	c3.029-1.041,5.063-3.891,5.063-7.094V360h45v134.5c0,3.229,2.065,6.095,5.128,7.115l30,10c0.787,0.262,1.587,0.387,2.373,0.387
	c3.141,0,6.066-1.987,7.114-5.13c1.31-3.93-0.814-8.178-4.743-9.487l-24.872-8.29V360h7.5c4.143,0,7.5-3.357,7.5-7.5V235.705
	c20.606-1.066,40.931-8.722,57.5-22.98c16.568,14.259,36.895,21.909,57.5,22.976v56.8c0,14.269,5.73,27.22,15,36.692v159.902
	l-24.872,8.29c-3.93,1.31-6.053,5.558-4.743,9.487c1.048,3.143,3.974,5.13,7.114,5.13c0.786,0,1.586-0.125,2.373-0.387l30-10
	c3.063-1.021,5.128-3.887,5.128-7.115V339.924c6.824,3.251,14.452,5.076,22.5,5.076s15.676-1.825,22.5-5.076V407.5
	c0,3.203,2.034,6.053,5.063,7.094l77.937,26.767v24.646c0,4.143,3.357,7.5,7.5,7.5s7.5-3.357,7.5-7.5v-30
	C486.5,432.803,484.466,429.953,481.437,428.912z M121,180h50c6.893,0,12.5,5.607,12.5,12.5v27.713
	c-17.265-2.134-33.971-9.791-47.196-23.017c-2.93-2.928-7.678-2.928-10.607,0c-2.929,2.93-2.929,7.678,0,10.607
	c16.151,16.151,36.681,25.3,57.804,27.495V255h-75v-62.5C108.5,185.607,114.107,180,121,180z M93.5,345v-42.835
	c0-11.687,3.905-22.981,11.039-32.165H183.5v75H93.5z M341,180h50c6.893,0,12.5,5.607,12.5,12.5V285h-75v-49.69
	c21.123-2.196,41.652-11.354,57.804-27.506c2.929-2.93,2.929-7.678,0-10.607c-2.93-2.928-7.678-2.928-10.607,0
	c-13.225,13.226-29.931,20.883-47.196,23.017V192.5C328.5,185.607,334.107,180,341,180z M329.255,300h73.491
	c-3.484,17.096-18.635,30-36.745,30S332.739,317.096,329.255,300z"/>
<path d="M142.427,149.098c1.113,0.602,2.34,0.902,3.567,0.902s2.454-0.301,3.566-0.902c3.182-1.72,77.934-42.801,77.934-101.598
	c0-26.191-21.309-47.5-47.5-47.5c-13.032,0-25.165,5.216-34,14.313C137.159,5.216,125.026,0,111.994,0
	c-26.191,0-47.5,21.309-47.5,47.502C64.509,106.289,139.245,147.377,142.427,149.098z M111.994,15
	c11.316,0,21.645,5.753,27.629,15.389c1.368,2.204,3.777,3.544,6.371,3.544s5.003-1.34,6.371-3.544
	C158.35,20.753,168.678,15,179.994,15c17.921,0,32.5,14.579,32.5,32.5c0,43.245-52.225,77.715-66.504,86.328
	c-14.285-8.6-66.485-42.999-66.496-86.328C79.494,29.579,94.073,15,111.994,15z"/>
<g>
</g>
<g>
</g>
<g>
</g>
<g>
</g>
<g>
</g>
<g>
</g>
<g>
</g>
<g>
</g>
<g>
</g>
<g>
</g>
<g>
</g>
<g>
</g>
<g>
</g>
<g>
</g>
<g>
</g>
</svg>
