<?xml version="1.0" encoding="iso-8859-1"?>
<!-- Generator: Adobe Illustrator 19.0.0, SVG Export Plug-In . SVG Version: 6.00 Build 0)  -->
<svg version="1.1" id="Capa_1" xmlns="http://www.w3.org/2000/svg" xmlns:xlink="http://www.w3.org/1999/xlink" x="0px" y="0px"
	 viewBox="0 0 512.001 512.001" style="enable-background:new 0 0 512.001 512.001;" xml:space="preserve">
<path style="fill:#60312C;" d="M442.501,262.499v75c24.853,0,45-20.147,45-45L442.501,262.499z"/>
<path style="fill:#85453D;" d="M457.501,292.499l-15-30l-45,30c0,24.853,20.147,45,45,45
	C450.785,337.499,457.501,317.352,457.501,292.499z"/>
<path style="fill:#FFA754;" d="M467.501,172.499h-30l20,120h30v-100C487.501,181.453,478.547,172.499,467.501,172.499z"/>
<path style="fill:#FFCB63;" d="M437.501,172.499h-20c-11.046,0-20,8.954-20,20v100h60v-100
	C457.501,181.453,448.547,172.499,437.501,172.499z"/>
<path style="fill:#FF8D7E;" d="M442.501,52.499v90c24.853,0,45-20.147,45-45S467.354,52.499,442.501,52.499z"/>
<path style="fill:#FFB4A9;" d="M457.501,97.499c0-24.853-6.716-45-15-45c-24.853,0-45,20.147-45,45s20.147,45,45,45
	C450.785,142.499,457.501,122.352,457.501,97.499z"/>
<path style="fill:#CF301B;" d="M304.501,52.499c-3.423,0-6.696,0.639-9.709,1.802l-12.291,88.198c0,0,49-26.525,49-63
	C331.501,64.587,319.413,52.499,304.501,52.499z"/>
<path style="fill:#FF4128;" d="M294.792,54.301c-4.977,1.922-9.242,5.275-12.291,9.556c-4.895-6.871-12.921-11.357-22-11.357
	c-14.912,0-27,12.088-27,27c0,36.475,49,63,49,63s19-26.525,19-63C301.501,68.007,298.716,58.198,294.792,54.301z"/>
<circle style="fill:#60312C;" cx="137.499" cy="29.999" r="22.5"/>
<path style="fill:#A45E43;" d="M171.755,68.334c0.01-0.01-34.255-0.005-34.255-0.005v74.17c24.85,0,45-20.15,45-45
	C182.501,86.379,178.455,76.184,171.755,68.334z"/>
<path style="fill:#C27749;" d="M151.391,80.509l-48.145-12.175c-6.7,7.85-10.745,18.045-10.745,29.165c0,24.85,20.15,45,45,45
	c8.28,0,15-20.15,15-45C152.501,91.489,152.11,85.749,151.391,80.509z"/>
<path style="fill:#40211D;" d="M137.501,52.499l13.89,28.01c7.45-2.23,14.475-6.295,20.365-12.175
	C163.505,58.644,151.22,52.499,137.501,52.499z"/>
<path style="fill:#60312C;" d="M137.501,52.499c-13.72,0-26.005,6.145-34.255,15.835c13.04,13.04,31.645,17.105,48.145,12.175
	C149.16,64.079,143.781,52.499,137.501,52.499z"/>
<path style="fill:#2DADE3;" d="M162.501,172.499h-30v120h50v-100C182.501,181.453,173.546,172.499,162.501,172.499z"/>
<path style="fill:#49C9FF;" d="M132.501,172.499h-20c-11.046,0-20,8.954-20,20v100h60v-100
	C152.501,181.453,143.546,172.499,132.501,172.499z"/>
<path style="fill:#FF4128;" d="M182.501,262.499h-30l15,90h30v-50.335C197.501,286.953,191.829,273.074,182.501,262.499z"/>
<path style="fill:#FF6337;" d="M152.501,262.499h-60c-9.329,10.575-15,24.454-15,39.665v50.335h90v-50.335
	C167.501,286.953,161.829,273.074,152.501,262.499z"/>
<path d="M467.501,164.999h-32.5v-15.544c2.451,0.352,4.953,0.544,7.5,0.544c28.948,0,52.5-23.552,52.5-52.5s-23.552-52.5-52.5-52.5
	s-52.5,23.552-52.5,52.5c0,20.9,12.279,38.982,30,47.424v20.076h-2.5c-15.163,0-27.5,12.337-27.5,27.5v31.21
	c-8.729-3.097-15-11.433-15-21.21v-60c0-4.143-3.357-7.5-7.5-7.5s-7.5,3.357-7.5,7.5v60c0,18.109,12.904,33.261,30,36.745v53.255
	c0,14.269,5.73,27.22,15,36.692v159.902l-24.872,8.29c-3.93,1.31-6.053,5.558-4.743,9.487c1.048,3.143,3.974,5.13,7.114,5.13
	c0.786,0,1.586-0.125,2.373-0.387l30-10c3.063-1.021,5.128-3.887,5.128-7.115V339.923c6.824,3.251,14.452,5.076,22.5,5.076
	s15.676-1.825,22.5-5.076v149.171l-24.872,8.29c-3.93,1.31-6.053,5.558-4.743,9.487c1.048,3.143,3.974,5.13,7.114,5.13
	c0.786,0,1.586-0.125,2.373-0.387l30-10c3.063-1.021,5.128-3.887,5.128-7.115V329.191c9.27-9.473,15-22.424,15-36.692v-100
	C495.001,177.336,482.664,164.999,467.501,164.999z M405.001,97.499c0-20.678,16.822-37.5,37.5-37.5s37.5,16.822,37.5,37.5
	s-16.822,37.5-37.5,37.5S405.001,118.177,405.001,97.499z M405.001,192.499c0-6.893,5.607-12.5,12.5-12.5h2.5v22.5
	c0,20.678,16.822,37.5,37.5,37.5c4.143,0,7.5-3.357,7.5-7.5s-3.357-7.5-7.5-7.5c-12.406,0-22.5-10.094-22.5-22.5v-22.5h32.5
	c6.893,0,12.5,5.607,12.5,12.5v92.5h-75V192.499z M405.756,299.999h73.491c-3.484,17.096-18.635,30-36.745,30
	S409.24,317.095,405.756,299.999z"/>
<path d="M297.501,164.999h-30c-4.143,0-7.5,3.357-7.5,7.5c0,28.948-23.552,52.5-52.5,52.5h-17.5v-32.5
	c0-15.163-12.337-27.5-27.5-27.5h-50c-15.163,0-27.5,12.337-27.5,27.5v67.259c-9.693,11.989-15,26.935-15,42.406v50.335
	c0,4.143,3.357,7.5,7.5,7.5h22.5v42.145l-77.937,26.768c-3.029,1.041-5.063,3.891-5.063,7.094v30c0,4.143,3.357,7.5,7.5,7.5
	s7.5-3.357,7.5-7.5v-24.647l77.937-26.768c3.029-1.041,5.063-3.891,5.063-7.094v-47.498h45v134.5c0,3.229,2.065,6.095,5.128,7.115
	l30,10c0.787,0.262,1.587,0.387,2.373,0.387c3.141,0,6.066-1.987,7.114-5.13c1.31-3.93-0.814-8.178-4.743-9.487l-24.872-8.29
	V359.999h22.5c4.143,0,7.5-3.357,7.5-7.5v-50.335c0-15.472-5.307-30.417-15-42.406v-19.759h17.5c34.685,0,63.343-26.298,67.086-60
	h22.914c4.143,0,7.5-3.357,7.5-7.5S301.644,164.999,297.501,164.999z M112.5,179.999h50c6.893,0,12.5,5.607,12.5,12.5v62.5h-75
	v-62.5C100,185.606,105.607,179.999,112.5,179.999z M190.001,344.999h-105v-42.835c0-11.687,3.905-22.981,11.039-32.165h82.923
	c7.133,9.184,11.039,20.479,11.039,32.165v42.835H190.001z"/>
<path d="M304.501,44.999c-8.103,0-15.875,2.873-22,7.94c-6.125-5.067-13.897-7.94-22-7.94c-19.023,0-34.5,15.477-34.5,34.5
	c0,40.478,50.769,68.426,52.93,69.596c1.113,0.603,2.342,0.904,3.57,0.904s2.457-0.302,3.57-0.904
	c2.161-1.17,52.93-29.118,52.93-69.596C339.001,60.476,323.523,44.999,304.501,44.999z M282.501,133.782
	c-10.666-6.632-41.5-28.074-41.5-54.283c0-10.752,8.748-19.5,19.5-19.5c6.289,0,12.229,3.068,15.892,8.209
	c1.407,1.976,3.683,3.148,6.108,3.148s4.701-1.173,6.108-3.148c3.662-5.141,9.603-8.209,15.892-8.209c10.752,0,19.5,8.748,19.5,19.5
	C324.001,105.708,293.167,127.15,282.501,133.782z"/>
<path d="M137.501,149.999c28.948,0,52.5-23.552,52.5-52.5c0-12.813-4.621-24.564-12.275-33.688c-0.204-0.27-0.422-0.532-0.667-0.777
	c-4.778-5.462-10.622-9.916-17.222-13.032c4.762-5.313,7.665-12.323,7.665-20.002c0-16.542-13.458-30-30-30s-30,13.458-30,30
	c0,7.679,2.903,14.689,7.665,20.002c-6.6,3.116-12.445,7.57-17.195,13.008c-0.273,0.27-0.49,0.532-0.695,0.802
	C89.621,72.935,85,84.686,85,97.499C85,126.447,108.552,149.999,137.501,149.999z M137.501,134.999c-20.678,0-37.5-16.822-37.5-37.5
	c0-6.567,1.702-12.742,4.68-18.116c9.75,7.072,21.284,10.614,32.82,10.614s23.07-3.542,32.82-10.614
	c2.978,5.374,4.68,11.549,4.68,18.116C175.001,118.177,158.178,134.999,137.501,134.999z M114.478,67.931
	c6.36-4.964,14.349-7.932,23.022-7.932s16.663,2.968,23.022,7.932C146.684,77.35,128.317,77.35,114.478,67.931z M122.5,29.999
	c0-8.271,6.729-15,15-15s15,6.729,15,15s-6.729,15-15,15S122.5,38.27,122.5,29.999z"/>
<g>
</g>
<g>
</g>
<g>
</g>
<g>
</g>
<g>
</g>
<g>
</g>
<g>
</g>
<g>
</g>
<g>
</g>
<g>
</g>
<g>
</g>
<g>
</g>
<g>
</g>
<g>
</g>
<g>
</g>
</svg>
