<?xml version="1.0" encoding="iso-8859-1"?>
<!-- Generator: Adobe Illustrator 19.0.0, SVG Export Plug-In . SVG Version: 6.00 Build 0)  -->
<svg version="1.1" id="Capa_1" xmlns="http://www.w3.org/2000/svg" xmlns:xlink="http://www.w3.org/1999/xlink" x="0px" y="0px"
	 viewBox="0 0 512.001 512.001" style="enable-background:new 0 0 512.001 512.001;" xml:space="preserve">
<circle style="fill:#60312C;" cx="180.999" cy="29.999" r="22.5"/>
<path style="fill:#A45E43;" d="M215.255,68.334c0.01-0.01-34.255-0.005-34.255-0.005v74.17c24.85,0,45-20.15,45-45
	C226.001,86.379,221.955,76.184,215.255,68.334z"/>
<path style="fill:#C27749;" d="M194.891,80.509l-48.145-12.175c-6.7,7.85-10.745,18.045-10.745,29.165c0,24.85,20.15,45,45,45
	c8.28,0,15-20.15,15-45C196.001,91.489,195.61,85.749,194.891,80.509z"/>
<path style="fill:#40211D;" d="M181.001,52.499l13.89,28.01c7.45-2.23,14.475-6.295,20.365-12.175
	C207.005,58.644,194.72,52.499,181.001,52.499z"/>
<path style="fill:#60312C;" d="M181.001,52.499c-13.72,0-26.005,6.145-34.255,15.835c13.04,13.04,31.645,17.105,48.145,12.175
	C192.66,64.079,187.281,52.499,181.001,52.499z"/>
<path style="fill:#2DADE3;" d="M206.001,172.499h-30v120h50v-100C226.001,181.453,217.046,172.499,206.001,172.499z"/>
<path style="fill:#49C9FF;" d="M176.001,172.499h-20c-11.046,0-20,8.954-20,20v100h60v-100
	C196.001,181.453,187.046,172.499,176.001,172.499z"/>
<path style="fill:#FF4128;" d="M226.001,262.499h-30l15,90h30v-50.335C241.001,286.953,235.329,273.074,226.001,262.499z"/>
<path style="fill:#FF6337;" d="M196.001,262.499h-60c-9.329,10.575-15,24.454-15,39.665v50.335h90v-50.335
	C211.001,286.953,205.329,273.074,196.001,262.499z"/>
<path style="fill:#60312C;" d="M331.001,262.499v75c24.853,0,45-20.147,45-45L331.001,262.499z"/>
<path style="fill:#85453D;" d="M346.001,292.499l-15-30l-45,30c0,24.853,20.147,45,45,45
	C339.285,337.499,346.001,317.352,346.001,292.499z"/>
<path style="fill:#FFA754;" d="M356.001,172.499h-30l20,120h30v-100C376.001,181.453,367.047,172.499,356.001,172.499z"/>
<path style="fill:#FFCB63;" d="M326.001,172.499h-20c-11.046,0-20,8.954-20,20v100h60v-100
	C346.001,181.453,337.047,172.499,326.001,172.499z"/>
<path style="fill:#FF8D7E;" d="M331.001,52.499v90c24.853,0,45-20.147,45-45S355.854,52.499,331.001,52.499z"/>
<path style="fill:#FFB4A9;" d="M346.001,97.499c0-24.853-6.716-45-15-45c-24.853,0-45,20.147-45,45s20.147,45,45,45
	C339.285,142.499,346.001,122.352,346.001,97.499z"/>
<path d="M181.001,149.999c28.949,0,52.5-23.552,52.5-52.5c0-12.813-4.621-24.564-12.275-33.689c-0.205-0.27-0.422-0.531-0.668-0.777
	c-4.778-5.462-10.622-9.916-17.222-13.031c4.762-5.313,7.665-12.323,7.665-20.002c0-16.542-13.458-30-30-30s-30,13.458-30,30
	c0,7.679,2.903,14.689,7.665,20.002c-6.6,3.115-12.444,7.569-17.194,13.006c-0.274,0.271-0.491,0.533-0.696,0.803
	c-7.654,9.125-12.275,20.876-12.275,33.689C128.501,126.447,152.051,149.999,181.001,149.999z M181.001,134.999
	c-20.678,0-37.5-16.822-37.5-37.5c0-6.567,1.702-12.742,4.68-18.116c9.75,7.072,21.284,10.615,32.82,10.615
	s23.07-3.543,32.82-10.615c2.978,5.374,4.68,11.549,4.68,18.116C218.501,118.177,201.678,134.999,181.001,134.999z M157.979,67.93
	c6.36-4.963,14.349-7.931,23.022-7.931s16.662,2.968,23.022,7.931C190.184,77.35,171.817,77.35,157.979,67.93z M166.001,29.999
	c0-8.271,6.729-15,15-15s15,6.729,15,15s-6.729,15-15,15S166.001,38.27,166.001,29.999z"/>
<path d="M383.501,292.499v-92.786c50.271-3.842,90-45.976,90-97.214c0-4.143-3.357-7.5-7.5-7.5s-7.5,3.357-7.5,7.5
	c0,43.343-33.605,78.961-76.125,82.229c-3.362-11.389-13.91-19.729-26.375-19.729h-50c-12.563,0-23.178,8.472-26.452,20h-47.096
	c-3.274-11.528-13.889-20-26.452-20h-50c-12.465,0-23.013,8.34-26.375,19.729c-42.52-3.269-76.125-38.887-76.125-82.229
	c0-4.143-3.358-7.5-7.5-7.5s-7.5,3.357-7.5,7.5c0,51.238,39.729,93.372,90,97.214v60.045c-9.693,11.989-15,26.935-15,42.406v50.335
	c0,4.143,3.358,7.5,7.5,7.5h22.5v129.095l-24.872,8.29c-3.93,1.31-6.053,5.558-4.744,9.487c1.048,3.143,3.974,5.13,7.114,5.13
	c0.786,0,1.586-0.125,2.373-0.387l30-10c3.063-1.021,5.128-3.887,5.128-7.115v-134.5h45v134.5c0,3.229,2.066,6.095,5.128,7.115
	l30,10c0.787,0.262,1.586,0.387,2.373,0.387c3.14,0,6.066-1.987,7.114-5.13c1.31-3.93-0.814-8.178-4.744-9.487l-24.872-8.29V359.999
	h22.5c4.142,0,7.5-3.357,7.5-7.5v-50.335c0-15.472-5.307-30.417-15-42.406v-59.759h45v92.5c0,14.269,5.73,27.22,15,36.692v159.902
	l-24.872,8.29c-3.93,1.31-6.053,5.558-4.743,9.487c1.048,3.143,3.974,5.13,7.114,5.13c0.786,0,1.586-0.125,2.373-0.387l30-10
	c3.063-1.021,5.128-3.887,5.128-7.115V339.923c6.824,3.251,14.452,5.076,22.5,5.076s15.676-1.825,22.5-5.076v154.576
	c0,3.229,2.065,6.095,5.128,7.115l30,10c0.787,0.262,1.587,0.387,2.373,0.387c3.141,0,6.066-1.987,7.114-5.13
	c1.31-3.93-0.813-8.178-4.743-9.487l-24.872-8.29V329.191C377.771,319.719,383.501,306.768,383.501,292.499z M306.001,179.999h50
	c6.893,0,12.5,5.607,12.5,12.5v92.5h-75v-92.5C293.501,185.606,299.108,179.999,306.001,179.999z M156.001,179.999h50
	c6.893,0,12.5,5.607,12.5,12.5v62.5h-75v-62.5C143.501,185.606,149.107,179.999,156.001,179.999z M233.501,344.999h-105v-42.835
	c0-11.687,3.906-22.981,11.039-32.165h82.922c7.134,9.184,11.039,20.479,11.039,32.165V344.999z M294.256,299.999h73.491
	c-3.484,17.096-18.635,30-36.745,30S297.74,317.095,294.256,299.999z"/>
<path d="M331.001,149.999c28.948,0,52.5-23.552,52.5-52.5s-23.552-52.5-52.5-52.5s-52.5,23.552-52.5,52.5
	S302.053,149.999,331.001,149.999z M331.001,59.999c20.678,0,37.5,16.822,37.5,37.5s-16.822,37.5-37.5,37.5s-37.5-16.822-37.5-37.5
	S310.323,59.999,331.001,59.999z"/>
<g>
</g>
<g>
</g>
<g>
</g>
<g>
</g>
<g>
</g>
<g>
</g>
<g>
</g>
<g>
</g>
<g>
</g>
<g>
</g>
<g>
</g>
<g>
</g>
<g>
</g>
<g>
</g>
<g>
</g>
</svg>
