<?xml version="1.0" encoding="iso-8859-1"?>
<!-- Generator: Adobe Illustrator 19.0.0, SVG Export Plug-In . SVG Version: 6.00 Build 0)  -->
<svg version="1.1" id="Capa_1" xmlns="http://www.w3.org/2000/svg" xmlns:xlink="http://www.w3.org/1999/xlink" x="0px" y="0px"
	 viewBox="0 0 512.001 512.001" style="enable-background:new 0 0 512.001 512.001;" xml:space="preserve">
<path style="fill:#2DADE3;" d="M323.501,262.499v75c24.853,0,45-20.147,45-45L323.501,262.499z"/>
<path style="fill:#49C9FF;" d="M338.501,292.499l-15-30l-45,30c0,24.853,20.147,45,45,45
	C331.785,337.499,338.501,317.352,338.501,292.499z"/>
<path style="fill:#9DB55F;" d="M348.501,172.499h-30l20,120h30v-100C368.501,181.453,359.547,172.499,348.501,172.499z"/>
<path style="fill:#B9D171;" d="M318.501,172.499h-20c-11.046,0-20,8.954-20,20v100h60v-100
	C338.501,181.453,329.547,172.499,318.501,172.499z"/>
<path style="fill:#FFB4A9;" d="M323.501,52.499v101l45-46v-10C368.501,72.646,348.354,52.499,323.501,52.499z"/>
<path style="fill:#FFD9D4;" d="M323.501,52.499c-24.853,0-45,20.147-45,45v10l60,46v-56
	C338.501,72.646,331.785,52.499,323.501,52.499z"/>
<path style="fill:#FF6337;" d="M342.21,107.499c-1.053-1.573-2.303-3.002-3.709-4.261l-15,69.261c24.853,0,45-20.147,45-45v-20
	H342.21z"/>
<path style="fill:#FF8646;" d="M338.501,127.499v-24.261c-3.981-3.566-9.235-5.739-15-5.739c-7.801,0-14.672,3.971-18.709,10
	h-26.291v20c0,24.853,20.147,45,45,45C331.785,172.499,338.501,152.352,338.501,127.499z"/>
<circle style="fill:#60312C;" cx="203.5" cy="29.999" r="22.5"/>
<path style="fill:#A45E43;" d="M237.756,68.334c0.01-0.01-34.255-0.005-34.255-0.005v74.17c24.85,0,45-20.15,45-45
	C248.501,86.379,244.456,76.184,237.756,68.334z"/>
<path style="fill:#C27749;" d="M217.391,80.509l-48.145-12.175c-6.7,7.85-10.745,18.045-10.745,29.165c0,24.85,20.15,45,45,45
	c8.28,0,15-20.15,15-45C218.501,91.489,218.111,85.749,217.391,80.509z"/>
<path style="fill:#40211D;" d="M203.501,52.499l13.89,28.01c7.45-2.23,14.475-6.295,20.365-12.175
	C229.506,58.644,217.221,52.499,203.501,52.499z"/>
<path style="fill:#60312C;" d="M203.501,52.499c-13.72,0-26.005,6.145-34.255,15.835c13.04,13.04,31.645,17.105,48.145,12.175
	C215.161,64.079,209.781,52.499,203.501,52.499z"/>
<path style="fill:#2DADE3;" d="M228.501,172.499h-30v120h50v-100C248.501,181.453,239.547,172.499,228.501,172.499z"/>
<path style="fill:#49C9FF;" d="M198.501,172.499h-20c-11.046,0-20,8.954-20,20v100h60v-100
	C218.501,181.453,209.547,172.499,198.501,172.499z"/>
<polygon style="fill:#FF4128;" points="248.501,262.499 218.501,262.499 188.501,307.499 218.501,352.499 248.501,352.499 "/>
<path style="fill:#FF6337;" d="M218.501,262.499h-60c-9.329,10.575-15,24.454-15,39.665v50.335h75V262.499z"/>
<path d="M323.501,44.999c-28.949,0-52.5,23.552-52.5,52.5v30c0,15.626,6.87,29.67,17.739,39.296
	c-8.061,3.072-14.313,9.829-16.691,18.204h-17.096c-3.274-11.528-13.889-20-26.452-20h-50c-15.164,0-27.5,12.337-27.5,27.5v67.259
	c-9.693,11.989-15,26.936-15,42.406v50.335c0,4.143,3.358,7.5,7.5,7.5h22.5v134.5c0,3.229,2.066,6.095,5.128,7.115l30,10
	c0.787,0.262,1.586,0.387,2.373,0.387c3.14,0,6.066-1.987,7.114-5.13c1.31-3.93-0.814-8.178-4.744-9.487l-24.872-8.29V359.999h45
	v134.5c0,3.229,2.066,6.095,5.128,7.115l30,10c0.77,0.257,1.571,0.385,2.372,0.385s1.602-0.128,2.372-0.385l30-10
	c3.063-1.021,5.128-3.887,5.128-7.115V339.923c6.824,3.251,14.452,5.076,22.5,5.076s15.676-1.825,22.5-5.076v149.171l-24.872,8.29
	c-3.93,1.31-6.053,5.558-4.744,9.487c1.048,3.143,3.974,5.13,7.114,5.13c0.786,0,1.586-0.125,2.373-0.387l30-10
	c3.063-1.021,5.128-3.887,5.128-7.115V329.191c9.27-9.473,15-22.423,15-36.692v-100c0-11.727-7.381-21.757-17.739-25.704
	c10.869-9.626,17.739-23.67,17.739-39.296v-30C376.001,68.551,352.451,44.999,323.501,44.999z M323.501,59.999
	c20.678,0,37.5,16.822,37.5,37.5v2.5h-15.139c-5.652-6.325-13.746-10-22.361-10s-16.708,3.675-22.361,10h-15.139v-2.5
	C286.001,76.821,302.823,59.999,323.501,59.999z M256.001,199.999h15v25.732c-4.992,0.378-10.008,0.378-15,0V199.999z
	 M178.501,179.999h50c6.893,0,12.5,5.607,12.5,12.5v30.932c-17.308-4.03-33.732-12.771-47.197-26.235
	c-2.929-2.928-7.678-2.928-10.606,0c-2.929,2.93-2.929,7.678,0,10.607c16.399,16.398,36.608,26.717,57.803,30.97v16.226h-75v-62.5
	C166.001,185.606,171.608,179.999,178.501,179.999z M151.001,302.164c0-11.686,3.905-22.981,11.038-32.165h78.962v75h-90V302.164z
	 M263.501,496.594l-22.5-7.5V359.999h7.5c4.142,0,7.5-3.357,7.5-7.5V240.76c2.497,0.164,4.998,0.252,7.5,0.252
	s5.003-0.088,7.5-0.252v51.739c0,14.27,5.73,27.22,15,36.692v159.902L263.501,496.594z M286.757,299.999h73.491
	c-3.484,17.096-18.635,30-36.745,30S290.24,317.095,286.757,299.999z M348.501,179.999c6.893,0,12.5,5.607,12.5,12.5v92.5h-75
	v-46.227c21.195-4.253,41.404-14.571,57.803-30.97c2.929-2.93,2.929-7.678,0-10.607c-2.928-2.928-7.677-2.928-10.606,0
	c-13.464,13.465-29.889,22.205-47.197,26.235v-30.931c0-6.893,5.607-12.5,12.5-12.5H348.501z M323.501,164.999
	c-20.678,0-37.5-16.822-37.5-37.5v-12.5h18.792c2.502,0,4.84-1.248,6.232-3.328c2.797-4.178,7.461-6.672,12.476-6.672
	s9.679,2.494,12.476,6.672c1.392,2.08,3.73,3.328,6.232,3.328h18.792v12.5C361.001,148.177,344.179,164.999,323.501,164.999z"/>
<path d="M203.501,149.999c28.949,0,52.5-23.552,52.5-52.5c0-12.813-4.621-24.564-12.275-33.689c-0.205-0.27-0.422-0.531-0.668-0.777
	c-4.778-5.462-10.622-9.916-17.222-13.031c4.762-5.313,7.665-12.323,7.665-20.002c0-16.542-13.458-30-30-30s-30,13.458-30,30
	c0,7.679,2.903,14.689,7.665,20.002c-6.6,3.115-12.444,7.569-17.194,13.006c-0.274,0.271-0.491,0.533-0.696,0.803
	c-7.654,9.125-12.275,20.876-12.275,33.689C151.001,126.447,174.552,149.999,203.501,149.999z M203.501,134.999
	c-20.678,0-37.5-16.822-37.5-37.5c0-6.567,1.702-12.742,4.68-18.116c9.75,7.072,21.284,10.615,32.82,10.615
	s23.07-3.543,32.82-10.615c2.978,5.374,4.68,11.549,4.68,18.116C241.001,118.177,224.179,134.999,203.501,134.999z M180.479,67.93
	c6.36-4.963,14.349-7.931,23.022-7.931s16.662,2.968,23.022,7.931C212.684,77.35,194.318,77.35,180.479,67.93z M188.501,29.999
	c0-8.271,6.729-15,15-15s15,6.729,15,15s-6.729,15-15,15S188.501,38.27,188.501,29.999z"/>
<g>
</g>
<g>
</g>
<g>
</g>
<g>
</g>
<g>
</g>
<g>
</g>
<g>
</g>
<g>
</g>
<g>
</g>
<g>
</g>
<g>
</g>
<g>
</g>
<g>
</g>
<g>
</g>
<g>
</g>
</svg>
