<?xml version="1.0" encoding="iso-8859-1"?>
<!-- Generator: Adobe Illustrator 19.0.0, SVG Export Plug-In . SVG Version: 6.00 Build 0)  -->
<svg version="1.1" id="Capa_1" xmlns="http://www.w3.org/2000/svg" xmlns:xlink="http://www.w3.org/1999/xlink" x="0px" y="0px"
	 viewBox="0 0 512.002 512.002" style="enable-background:new 0 0 512.002 512.002;" xml:space="preserve">
<polygon style="fill:#D5E3AA;" points="354.131,7.5 324.131,7.5 301.001,60 324.131,112.5 354.131,142.5 "/>
<polygon style="fill:#FFF0D3;" points="324.131,7.5 324.13,112.5 202.872,112.5 172.872,142.5 172.872,7.5 "/>
<circle style="fill:#60312C;" cx="97.87" cy="30" r="22.5"/>
<path style="fill:#A45E43;" d="M132.127,68.335c0.01-0.01-34.255-0.005-34.255-0.005v74.17c24.85,0,45-20.15,45-45
	C142.872,86.38,138.827,76.185,132.127,68.335z"/>
<path style="fill:#C27749;" d="M111.762,80.51L63.617,68.335c-6.7,7.85-10.745,18.045-10.745,29.165c0,24.85,20.15,45,45,45
	c8.28,0,15-20.15,15-45C112.872,91.49,112.482,85.75,111.762,80.51z"/>
<path style="fill:#40211D;" d="M97.872,52.5l13.89,28.01c7.45-2.23,14.475-6.295,20.365-12.175
	C123.877,58.645,111.592,52.5,97.872,52.5z"/>
<path style="fill:#60312C;" d="M97.872,52.5c-13.72,0-26.005,6.145-34.255,15.835c13.04,13.04,31.645,17.105,48.145,12.175
	C109.532,64.08,104.152,52.5,97.872,52.5z"/>
<path style="fill:#2DADE3;" d="M122.872,172.5h-30v120h50v-100C142.872,181.454,133.918,172.5,122.872,172.5z"/>
<path style="fill:#49C9FF;" d="M92.872,172.5h-20c-11.046,0-20,8.954-20,20v100h60v-100C112.872,181.454,103.918,172.5,92.872,172.5
	z"/>
<polygon style="fill:#FF4128;" points="142.872,262.5 112.872,262.5 82.872,307.5 112.872,352.5 142.872,352.5 "/>
<path style="fill:#FF6337;" d="M112.872,262.5h-60c-9.329,10.575-15,24.454-15,39.665V352.5h75V262.5z"/>
<path style="fill:#2DADE3;" d="M429.13,262.5v75c24.853,0,45-20.147,45-45L429.13,262.5z"/>
<path style="fill:#49C9FF;" d="M444.13,292.5l-15-30l-45,30c0,24.853,20.147,45,45,45C437.414,337.5,444.13,317.353,444.13,292.5z"
	/>
<path style="fill:#9DB55F;" d="M454.13,172.5h-30l20,120h30v-100C474.13,181.454,465.176,172.5,454.13,172.5z"/>
<path style="fill:#B9D171;" d="M424.13,172.5h-20c-11.046,0-20,8.954-20,20v100h60v-100C444.13,181.454,435.176,172.5,424.13,172.5z
	"/>
<path style="fill:#FFB4A9;" d="M429.13,52.5v101l45-46v-10C474.13,72.647,453.983,52.5,429.13,52.5z"/>
<path style="fill:#FFD9D4;" d="M429.13,52.5c-24.853,0-45,20.147-45,45v10l60,46v-56C444.13,72.647,437.414,52.5,429.13,52.5z"/>
<path style="fill:#FF6337;" d="M447.839,107.5c-1.053-1.573-2.303-3.002-3.709-4.261l-15,69.261c24.853,0,45-20.147,45-45v-20
	H447.839z"/>
<path style="fill:#FF8646;" d="M444.13,127.5v-24.261c-3.981-3.566-9.235-5.739-15-5.739c-7.801,0-14.672,3.971-18.709,10H384.13v20
	c0,24.853,20.147,45,45,45C437.414,172.5,444.13,152.353,444.13,127.5z"/>
<circle cx="233.5" cy="60" r="7.5"/>
<circle cx="263.5" cy="60" r="7.5"/>
<circle cx="293.5" cy="60" r="7.5"/>
<path d="M97.872,150c28.949,0,52.5-23.552,52.5-52.5c0-12.815-4.622-24.568-12.279-33.693c-0.204-0.268-0.42-0.528-0.664-0.772
	c-4.775-5.461-10.62-9.916-17.222-13.032c4.762-5.313,7.665-12.323,7.665-20.002c0-16.542-13.458-30-30-30s-30,13.458-30,30
	c0,7.679,2.903,14.689,7.665,20.002c-6.6,3.115-12.444,7.569-17.194,13.006c-0.274,0.271-0.491,0.533-0.696,0.803
	C49.993,72.936,45.372,84.687,45.372,97.5C45.372,126.448,68.923,150,97.872,150z M97.872,135c-20.678,0-37.5-16.822-37.5-37.5
	c0-6.567,1.702-12.742,4.68-18.116c9.75,7.073,21.282,10.615,32.82,10.615c11.535,0,23.069-3.543,32.82-10.615
	c2.978,5.374,4.68,11.549,4.68,18.116C135.372,118.178,118.55,135,97.872,135z M74.85,67.932C81.21,62.968,89.198,60,97.872,60
	s16.662,2.968,23.022,7.931C107.055,77.351,88.688,77.351,74.85,67.932z M82.872,30c0-8.271,6.729-15,15-15s15,6.729,15,15
	s-6.729,15-15,15S82.872,38.271,82.872,30z"/>
<path d="M210.602,197.196c-16.118,16.119-37.475,25.079-60.229,25.331V192.5c0-15.163-12.336-27.5-27.5-27.5h-50
	c-15.164,0-27.5,12.337-27.5,27.5v67.259c-9.693,11.989-15,26.935-15,42.406V352.5c0,4.143,3.358,7.5,7.5,7.5h22.5v134.5
	c0,3.229,2.066,6.095,5.128,7.115l30,10c0.787,0.262,1.586,0.387,2.373,0.387c3.14,0,6.066-1.987,7.114-5.13
	c1.31-3.93-0.814-8.178-4.744-9.487l-24.872-8.29V360h45v134.5c0,3.229,2.066,6.095,5.128,7.115l30,10
	c0.787,0.262,1.586,0.387,2.373,0.387c3.14,0,6.066-1.987,7.114-5.13c1.31-3.93-0.814-8.178-4.744-9.487l-24.872-8.29V360h7.5
	c4.142,0,7.5-3.357,7.5-7.5V237.54c26.762-0.253,51.885-10.785,70.836-29.736c2.929-2.93,2.929-7.678,0-10.607
	C218.279,194.269,213.53,194.269,210.602,197.196z M72.872,180h50c6.893,0,12.5,5.607,12.5,12.5v28.909
	c-17.794-2.882-34.2-11.216-47.197-24.213c-2.929-2.928-7.678-2.928-10.606,0c-2.929,2.93-2.929,7.678,0,10.607
	c15.839,15.839,35.989,25.795,57.803,28.787V255h-75v-62.5C60.372,185.607,65.979,180,72.872,180z M45.372,345v-42.835
	c0-11.687,3.905-22.981,11.039-32.165h78.961v75H45.372z"/>
<path d="M294.13,105h-91.259c-1.989,0-3.897,0.79-5.303,2.196l-17.197,17.197V14.999H346.63v109.394l-17.196-17.197
	c-2.929-2.928-7.678-2.928-10.606,0c-2.929,2.93-2.929,7.678,0,10.607l30,30c1.435,1.435,3.353,2.196,5.305,2.196
	c0.966,0,1.941-0.187,2.869-0.571c2.803-1.16,4.63-3.896,4.63-6.929v-135c0-1.989-0.79-3.896-2.197-5.304
	C358.027,0.79,356.12,0,354.13,0H172.872c-4.142,0-7.5,3.357-7.5,7.5v135c0,3.033,1.827,5.769,4.63,6.929
	c2.802,1.162,6.029,0.521,8.173-1.625L205.978,120h88.152c4.142,0,7.5-3.357,7.5-7.5S298.272,105,294.13,105z"/>
<path d="M429.13,45c-28.949,0-52.5,23.552-52.5,52.5v30c0,15.626,6.87,29.67,17.739,39.296
	c-10.358,3.947-17.739,13.978-17.739,25.704v30.027c-22.755-0.252-44.112-9.212-60.229-25.331c-2.928-2.928-7.677-2.928-10.606,0
	c-2.929,2.93-2.929,7.678,0,10.607c18.951,18.951,44.074,29.483,70.836,29.736v54.96c0,14.27,5.73,27.22,15,36.692v159.902
	l-24.872,8.29c-3.93,1.31-6.053,5.558-4.744,9.487c1.048,3.143,3.974,5.13,7.114,5.13c0.786,0,1.586-0.125,2.373-0.387l30-10
	c3.063-1.021,5.128-3.887,5.128-7.115V339.924c6.824,3.251,14.452,5.076,22.5,5.076s15.676-1.825,22.5-5.076v149.171l-24.872,8.29
	c-3.93,1.31-6.053,5.558-4.744,9.487c1.048,3.143,3.974,5.13,7.114,5.13c0.786,0,1.586-0.125,2.373-0.387l30-10
	c3.063-1.021,5.128-3.887,5.128-7.115V329.192c9.27-9.473,15-22.423,15-36.692v-100c0-11.727-7.381-21.757-17.739-25.704
	c10.869-9.626,17.739-23.67,17.739-39.296v-30C481.63,68.552,458.079,45,429.13,45z M429.13,60c20.678,0,37.5,16.822,37.5,37.5v2.5
	h-15.139c-5.653-6.325-13.747-10-22.361-10s-16.708,3.675-22.361,10H391.63v-2.5C391.63,76.822,408.452,60,429.13,60z M392.385,300
	h73.491c-3.484,17.096-18.635,30-36.745,30S395.869,317.096,392.385,300z M454.13,180c6.893,0,12.5,5.607,12.5,12.5V285h-75v-48.409
	c21.814-2.992,41.964-12.948,57.803-28.787c2.929-2.93,2.929-7.678,0-10.607c-2.929-2.928-7.678-2.928-10.606,0
	c-12.996,12.997-29.403,21.331-47.197,24.213V192.5c0-6.893,5.607-12.5,12.5-12.5H454.13z M429.13,165
	c-20.678,0-37.5-16.822-37.5-37.5V115h18.792c2.502,0,4.84-1.248,6.232-3.327c2.797-4.179,7.461-6.673,12.476-6.673
	s9.68,2.494,12.477,6.673c1.393,2.079,3.73,3.327,6.232,3.327h18.791v12.5C466.63,148.178,449.808,165,429.13,165z"/>
<g>
</g>
<g>
</g>
<g>
</g>
<g>
</g>
<g>
</g>
<g>
</g>
<g>
</g>
<g>
</g>
<g>
</g>
<g>
</g>
<g>
</g>
<g>
</g>
<g>
</g>
<g>
</g>
<g>
</g>
</svg>
