<?xml version="1.0" encoding="iso-8859-1"?>
<!-- Generator: Adobe Illustrator 19.0.0, SVG Export Plug-In . SVG Version: 6.00 Build 0)  -->
<svg version="1.1" id="Capa_1" xmlns="http://www.w3.org/2000/svg" xmlns:xlink="http://www.w3.org/1999/xlink" x="0px" y="0px"
	 viewBox="0 0 512.001 512.001" style="enable-background:new 0 0 512.001 512.001;" xml:space="preserve">
<polygon style="fill:#A8E5FF;" points="353.501,202.499 308.501,202.499 308.501,232.499 353.501,232.499 368.501,217.499 "/>
<path style="fill:#2DADE3;" d="M288.501,172.499h-30v120h50v-100C308.501,181.453,299.547,172.499,288.501,172.499z"/>
<path style="fill:#49C9FF;" d="M258.501,172.499h-20c-11.046,0-20,8.954-20,20v100h60v-100
	C278.501,181.453,269.547,172.499,258.501,172.499z"/>
<path style="fill:#FF4128;" d="M308.501,262.499h-30l15,90h30v-50.335C323.501,286.953,317.829,273.074,308.501,262.499z"/>
<path style="fill:#FF6337;" d="M278.501,262.499h-60c-9.329,10.575-15,24.454-15,39.665v50.335h90v-50.335
	C293.501,286.953,287.829,273.074,278.501,262.499z"/>
<circle style="fill:#60312C;" cx="263.5" cy="29.999" r="22.5"/>
<path style="fill:#A45E43;" d="M297.756,68.334c0.01-0.01-34.255-0.005-34.255-0.005v74.17c24.85,0,45-20.15,45-45
	C308.501,86.379,304.456,76.184,297.756,68.334z"/>
<path style="fill:#C27749;" d="M277.391,80.509l-48.145-12.175c-6.7,7.85-10.745,18.045-10.745,29.165c0,24.85,20.15,45,45,45
	c8.28,0,15-20.15,15-45C278.501,91.489,278.111,85.749,277.391,80.509z"/>
<path style="fill:#40211D;" d="M263.501,52.499l13.89,28.01c7.45-2.23,14.475-6.295,20.365-12.175
	C289.506,58.644,277.221,52.499,263.501,52.499z"/>
<path style="fill:#60312C;" d="M263.501,52.499c-13.72,0-26.005,6.145-34.255,15.835c13.04,13.04,31.645,17.105,48.145,12.175
	C275.161,64.079,269.781,52.499,263.501,52.499z"/>
<rect x="158.499" y="202.499" style="fill:#A8E5FF;" width="105" height="30"/>
<g>
	<path style="fill:#FFB4A9;" d="M396.221,266.719c-1.919,0-3.839-0.732-5.304-2.196l-10.607-10.607
		c-2.929-2.93-2.929-7.678,0-10.607c2.93-2.928,7.678-2.928,10.607,0l10.607,10.607c2.929,2.93,2.929,7.678,0,10.607
		C400.06,265.986,398.14,266.719,396.221,266.719z"/>
	<path style="fill:#FFB4A9;" d="M413.501,224.999h-15c-4.143,0-7.5-3.357-7.5-7.5s3.357-7.5,7.5-7.5h15c4.143,0,7.5,3.357,7.5,7.5
		S417.644,224.999,413.501,224.999z"/>
	<path style="fill:#FFB4A9;" d="M385.613,193.887c-1.919,0-3.839-0.732-5.304-2.196c-2.929-2.93-2.929-7.678,0-10.607l10.607-10.607
		c2.93-2.928,7.678-2.928,10.607,0c2.929,2.93,2.929,7.678,0,10.607l-10.607,10.607
		C389.452,193.154,387.532,193.887,385.613,193.887z"/>
</g>
<path d="M308.501,269.999h-90c-4.143,0-7.5-3.357-7.5-7.5s3.357-7.5,7.5-7.5h90c4.143,0,7.5,3.357,7.5,7.5
	S312.644,269.999,308.501,269.999z"/>
<path d="M373.805,212.195l-15-15c-1.407-1.406-3.314-2.196-5.304-2.196h-37.5v-2.5c0-15.163-12.337-27.5-27.5-27.5h-50
	c-15.163,0-27.5,12.337-27.5,27.5v2.5h-45v-7.5c0-4.143-3.357-7.5-7.5-7.5s-7.5,3.357-7.5,7.5v22.5h-52.5
	c-4.143,0-7.5,3.357-7.5,7.5s3.357,7.5,7.5,7.5h52.5v22.5c0,4.143,3.357,7.5,7.5,7.5s7.5-3.357,7.5-7.5v-7.5h45v19.759
	c-9.693,11.988-15,26.935-15,42.406v50.335c0,4.143,3.357,7.5,7.5,7.5h22.5v129.095l-24.872,8.29
	c-3.929,1.31-6.053,5.558-4.743,9.487c1.048,3.143,3.974,5.13,7.114,5.13c0.786,0,1.586-0.125,2.373-0.387l30-10
	c3.063-1.021,5.128-3.887,5.128-7.115v-134.5h45v134.5c0,3.229,2.065,6.095,5.128,7.115l30,10c0.787,0.262,1.587,0.387,2.373,0.387
	c3.141,0,6.066-1.987,7.114-5.13c1.31-3.93-0.814-8.178-4.743-9.487l-24.872-8.29V359.999h22.5c4.143,0,7.5-3.357,7.5-7.5v-50.335
	c0-15.472-5.307-30.418-15-42.406v-19.759h37.5c1.989,0,3.896-0.79,5.304-2.196l15-15
	C376.733,219.873,376.733,215.125,373.805,212.195z M166.001,224.999v-15h52.442c0.02,0,0.039,0.003,0.058,0.003
	s0.038-0.003,0.058-0.003h37.442v15h-37.423c-0.026,0-0.051-0.004-0.077-0.004s-0.051,0.004-0.077,0.004H166.001z M316.001,344.999
	h-105v-42.835c0-12.785,4.661-25.109,13.124-34.703c1.209-1.37,1.876-3.135,1.876-4.962v-22.5h30v53.566c0,4.143,3.357,7.5,7.5,7.5
	s7.5-3.357,7.5-7.5v-91.066c0-4.143-3.357-7.5-7.5-7.5h-37.5v-2.5c0-6.893,5.607-12.5,12.5-12.5h50c6.893,0,12.5,5.607,12.5,12.5v70
	c0,1.827,0.667,3.592,1.876,4.962c8.463,9.594,13.124,21.918,13.124,34.703V344.999z M350.395,224.999H316v-15h34.394l7.5,7.5
	L350.395,224.999z"/>
<path d="M263.501,149.999c28.948,0,52.5-23.552,52.5-52.5c0-12.813-4.621-24.564-12.275-33.688c-0.204-0.27-0.422-0.532-0.667-0.777
	c-4.778-5.462-10.622-9.916-17.222-13.032c4.762-5.313,7.665-12.323,7.665-20.002c0-16.542-13.458-30-30-30s-30,13.458-30,30
	c0,7.679,2.903,14.689,7.665,20.002c-6.6,3.116-12.445,7.57-17.195,13.008c-0.273,0.27-0.49,0.532-0.695,0.802
	c-7.654,9.124-12.275,20.875-12.275,33.688C211.001,126.447,234.552,149.999,263.501,149.999z M263.501,14.999
	c8.271,0,15,6.729,15,15s-6.729,15-15,15c-8.271,0-15-6.729-15-15S255.229,14.999,263.501,14.999z M263.501,59.999
	c8.674,0,16.663,2.968,23.022,7.932c-13.839,9.419-32.206,9.419-46.045,0C246.837,62.967,254.826,59.999,263.501,59.999z
	 M230.68,79.383c9.75,7.072,21.284,10.614,32.82,10.614c11.536,0,23.07-3.542,32.82-10.614c2.978,5.374,4.68,11.549,4.68,18.116
	c0,20.678-16.822,37.5-37.5,37.5s-37.5-16.822-37.5-37.5C226.001,90.932,227.702,84.757,230.68,79.383z"/>
<g>
</g>
<g>
</g>
<g>
</g>
<g>
</g>
<g>
</g>
<g>
</g>
<g>
</g>
<g>
</g>
<g>
</g>
<g>
</g>
<g>
</g>
<g>
</g>
<g>
</g>
<g>
</g>
<g>
</g>
</svg>
