<?xml version="1.0" encoding="iso-8859-1"?>
<!-- Generator: Adobe Illustrator 19.0.0, SVG Export Plug-In . SVG Version: 6.00 Build 0)  -->
<svg version="1.1" id="Capa_1" xmlns="http://www.w3.org/2000/svg" xmlns:xlink="http://www.w3.org/1999/xlink" x="0px" y="0px"
	 viewBox="0 0 512.001 512.001" style="enable-background:new 0 0 512.001 512.001;" xml:space="preserve">
<circle style="fill:#60312C;" cx="376" cy="29.999" r="22.5"/>
<path style="fill:#A45E43;" d="M410.256,68.334c0.01-0.01-34.255-0.005-34.255-0.005v74.17c24.85,0,45-20.15,45-45
	C421.001,86.379,416.956,76.184,410.256,68.334z"/>
<path style="fill:#C27749;" d="M389.891,80.509l-48.145-12.175c-6.7,7.85-10.745,18.045-10.745,29.165c0,24.85,20.15,45,45,45
	c8.28,0,15-20.15,15-45C391.001,91.489,390.611,85.749,389.891,80.509z"/>
<path style="fill:#40211D;" d="M376.001,52.499l13.89,28.01c7.45-2.23,14.475-6.295,20.365-12.175
	C402.006,58.644,389.721,52.499,376.001,52.499z"/>
<path style="fill:#60312C;" d="M376.001,52.499c-13.72,0-26.005,6.145-34.255,15.835c13.04,13.04,31.645,17.105,48.145,12.175
	C387.661,64.079,382.281,52.499,376.001,52.499z"/>
<path style="fill:#2DADE3;" d="M401.001,172.499h-30v120h50v-100C421.001,181.453,412.047,172.499,401.001,172.499z"/>
<path style="fill:#49C9FF;" d="M371.001,172.499h-20c-11.046,0-20,8.954-20,20v100h60v-100
	C391.001,181.453,382.047,172.499,371.001,172.499z"/>
<path style="fill:#FF4128;" d="M421.001,262.499h-30l15,90h30v-50.335C436.001,286.953,430.33,273.074,421.001,262.499z"/>
<path style="fill:#FF6337;" d="M391.001,262.499h-60c-9.329,10.575-15,24.454-15,39.665v50.335h90v-50.335
	C406.001,286.953,400.33,273.074,391.001,262.499z"/>
<circle style="fill:#60312C;" cx="136" cy="29.999" r="22.5"/>
<path style="fill:#A45E43;" d="M170.256,68.334c0.01-0.01-34.255-0.005-34.255-0.005v74.17c24.85,0,45-20.15,45-45
	C181.001,86.379,176.956,76.184,170.256,68.334z"/>
<path style="fill:#C27749;" d="M149.891,80.509l-48.145-12.175c-6.7,7.85-10.745,18.045-10.745,29.165c0,24.85,20.15,45,45,45
	c8.28,0,15-20.15,15-45C151.001,91.489,150.611,85.749,149.891,80.509z"/>
<path style="fill:#40211D;" d="M136.001,52.499l13.89,28.01c7.45-2.23,14.475-6.295,20.365-12.175
	C162.006,58.644,149.721,52.499,136.001,52.499z"/>
<path style="fill:#60312C;" d="M136.001,52.499c-13.72,0-26.005,6.145-34.255,15.835c13.04,13.04,31.645,17.105,48.145,12.175
	C147.661,64.079,142.281,52.499,136.001,52.499z"/>
<path style="fill:#2DADE3;" d="M161.001,172.499h-30v120h50v-100C181.001,181.453,172.047,172.499,161.001,172.499z"/>
<path style="fill:#49C9FF;" d="M131.001,172.499h-20c-11.046,0-20,8.954-20,20v100h60v-100
	C151.001,181.453,142.047,172.499,131.001,172.499z"/>
<path style="fill:#FF4128;" d="M181.001,262.499h-30l15,90h30v-50.335C196.001,286.953,190.33,273.074,181.001,262.499z"/>
<path style="fill:#FF6337;" d="M151.001,262.499h-60c-9.329,10.575-15,24.454-15,39.665v50.335h90v-50.335
	C166.001,286.953,160.33,273.074,151.001,262.499z"/>
<path d="M376.001,149.999c28.948,0,52.5-23.552,52.5-52.5c0-12.813-4.621-24.564-12.275-33.688c-0.204-0.27-0.422-0.532-0.667-0.777
	c-4.778-5.462-10.622-9.916-17.222-13.032c4.762-5.313,7.665-12.323,7.665-20.002c0-16.542-13.458-30-30-30s-30,13.458-30,30
	c0,7.679,2.903,14.689,7.665,20.002c-6.6,3.116-12.445,7.57-17.195,13.008c-0.273,0.27-0.49,0.532-0.695,0.802
	c-7.654,9.124-12.275,20.875-12.275,33.688C323.501,126.447,347.053,149.999,376.001,149.999z M376.001,134.999
	c-20.678,0-37.5-16.822-37.5-37.5c0-6.567,1.702-12.742,4.68-18.116c9.75,7.072,21.284,10.614,32.82,10.614
	s23.07-3.542,32.82-10.614c2.978,5.374,4.68,11.549,4.68,18.116C413.501,118.177,396.679,134.999,376.001,134.999z M352.979,67.931
	c6.36-4.964,14.349-7.932,23.022-7.932s16.663,2.968,23.022,7.932C385.184,77.35,366.818,77.35,352.979,67.931z M361.001,29.999
	c0-8.271,6.729-15,15-15s15,6.729,15,15s-6.729,15-15,15S361.001,38.27,361.001,29.999z"/>
<path d="M428.501,259.758v-67.259c0-15.163-12.337-27.5-27.5-27.5h-50c-15.163,0-27.5,12.337-27.5,27.5v67.259
	c-9.693,11.989-15,26.935-15,42.406v50.335c0,4.143,3.357,7.5,7.5,7.5h22.5v129.095l-24.872,8.29
	c-3.929,1.31-6.053,5.558-4.743,9.487c1.048,3.143,3.974,5.13,7.114,5.13c0.786,0,1.586-0.125,2.373-0.387l30-10
	c3.063-1.021,5.128-3.887,5.128-7.115v-134.5h45v129.095l-24.872,8.29c-3.929,1.31-6.053,5.558-4.743,9.487
	c1.048,3.143,3.974,5.13,7.114,5.13c0.786,0,1.586-0.125,2.373-0.387l30-10c3.063-1.021,5.128-3.887,5.128-7.115v-134.5H436
	c4.143,0,7.5-3.357,7.5-7.5v-50.335C443.501,286.692,438.194,271.747,428.501,259.758z M351.001,179.999h50
	c6.893,0,12.5,5.607,12.5,12.5v62.5h-15v-52.5c0-4.143-3.357-7.5-7.5-7.5s-7.5,3.357-7.5,7.5v52.5h-45v-62.5
	C338.501,185.606,344.108,179.999,351.001,179.999z M428.501,344.999h-105v-42.835c0-11.687,3.905-22.981,11.039-32.165h48.961v37.5
	c0,12.406,10.094,22.5,22.5,22.5c4.143,0,7.5-3.357,7.5-7.5s-3.357-7.5-7.5-7.5c-4.136,0-7.5-3.364-7.5-7.5v-37.5h18.961
	c7.133,9.184,11.039,20.479,11.039,32.165V344.999z"/>
<path d="M136.001,149.999c28.949,0,52.5-23.552,52.5-52.5c0-12.813-4.621-24.564-12.275-33.689c-0.205-0.27-0.422-0.531-0.668-0.777
	c-4.778-5.462-10.622-9.916-17.222-13.031c4.762-5.313,7.665-12.323,7.665-20.002c0-16.542-13.458-30-30-30s-30,13.458-30,30
	c0,7.679,2.903,14.689,7.665,20.002c-6.6,3.115-12.444,7.569-17.194,13.006c-0.274,0.271-0.491,0.533-0.696,0.803
	c-7.654,9.124-12.275,20.875-12.275,33.688C83.501,126.447,107.052,149.999,136.001,149.999z M136.001,134.999
	c-20.678,0-37.5-16.822-37.5-37.5c0-6.567,1.702-12.742,4.68-18.116c9.75,7.072,21.284,10.615,32.82,10.615
	s23.07-3.543,32.82-10.615c2.978,5.374,4.68,11.549,4.68,18.116C173.501,118.177,156.679,134.999,136.001,134.999z M112.979,67.93
	c6.36-4.963,14.349-7.931,23.022-7.931s16.662,2.968,23.022,7.931C145.184,77.35,126.818,77.35,112.979,67.93z M121.001,29.999
	c0-8.271,6.729-15,15-15s15,6.729,15,15s-6.729,15-15,15S121.001,38.27,121.001,29.999z"/>
<path d="M198.373,497.384l-24.872-8.29V359.999h22.5c4.142,0,7.5-3.357,7.5-7.5v-50.335c0-15.472-5.307-30.417-15-42.406v-67.259
	c0-15.163-12.336-27.5-27.5-27.5h-50c-15.164,0-27.5,12.337-27.5,27.5v67.259c-9.693,11.989-15,26.935-15,42.406v50.335
	c0,4.143,3.358,7.5,7.5,7.5h22.5v134.5c0,3.229,2.066,6.095,5.128,7.115l30,10c0.787,0.262,1.586,0.387,2.373,0.387
	c3.14,0,6.066-1.987,7.114-5.13c1.31-3.93-0.814-8.178-4.744-9.487l-24.872-8.29V359.999h45v134.5c0,3.229,2.066,6.095,5.128,7.115
	l30,10c0.787,0.262,1.586,0.387,2.373,0.387c3.14,0,6.066-1.987,7.114-5.13C204.426,502.941,202.302,498.693,198.373,497.384z
	 M111.001,179.999h50c6.893,0,12.5,5.607,12.5,12.5v62.5h-45v-52.5c0-4.143-3.358-7.5-7.5-7.5s-7.5,3.357-7.5,7.5v52.5h-15v-62.5
	C98.501,185.606,104.108,179.999,111.001,179.999z M83.501,302.164c0-11.687,3.906-22.981,11.039-32.165h18.961v37.5
	c0,4.136-3.364,7.5-7.5,7.5c-4.142,0-7.5,3.357-7.5,7.5s3.358,7.5,7.5,7.5c12.407,0,22.5-10.094,22.5-22.5v-37.5h48.961
	c7.134,9.184,11.039,20.479,11.039,32.165v42.835h-105C83.501,344.999,83.501,302.164,83.501,302.164z"/>
<path d="M221.001,89.999h-10c-4.142,0-7.5,3.357-7.5,7.5s3.358,7.5,7.5,7.5h10c4.142,0,7.5-3.357,7.5-7.5
	S225.143,89.999,221.001,89.999z"/>
<path d="M261.001,89.999h-10c-4.142,0-7.5,3.357-7.5,7.5s3.358,7.5,7.5,7.5h10c4.143,0,7.5-3.357,7.5-7.5
	S265.144,89.999,261.001,89.999z"/>
<path d="M301.001,89.999h-10c-4.143,0-7.5,3.357-7.5,7.5s3.357,7.5,7.5,7.5h10c4.143,0,7.5-3.357,7.5-7.5
	S305.144,89.999,301.001,89.999z"/>
<g>
</g>
<g>
</g>
<g>
</g>
<g>
</g>
<g>
</g>
<g>
</g>
<g>
</g>
<g>
</g>
<g>
</g>
<g>
</g>
<g>
</g>
<g>
</g>
<g>
</g>
<g>
</g>
<g>
</g>
</svg>
