<?xml version="1.0" encoding="iso-8859-1"?>
<!-- Generator: Adobe Illustrator 19.0.0, SVG Export Plug-In . SVG Version: 6.00 Build 0)  -->
<svg version="1.1" id="Capa_1" xmlns="http://www.w3.org/2000/svg" xmlns:xlink="http://www.w3.org/1999/xlink" x="0px" y="0px"
	 viewBox="0 0 512.002 512.002" style="enable-background:new 0 0 512.002 512.002;" xml:space="preserve">
<circle style="fill:#60312C;" cx="90.37" cy="30" r="22.5"/>
<path style="fill:#A45E43;" d="M124.627,68.335c0.01-0.01-34.255-0.005-34.255-0.005v74.17c24.85,0,45-20.15,45-45
	C135.372,86.38,131.327,76.185,124.627,68.335z"/>
<path style="fill:#C27749;" d="M104.262,80.51L56.117,68.335c-6.7,7.85-10.745,18.045-10.745,29.165c0,24.85,20.15,45,45,45
	c8.28,0,15-20.15,15-45C105.372,91.49,104.982,85.75,104.262,80.51z"/>
<path style="fill:#40211D;" d="M90.372,52.5l13.89,28.01c7.45-2.23,14.475-6.295,20.365-12.175
	C116.377,58.645,104.092,52.5,90.372,52.5z"/>
<path style="fill:#60312C;" d="M90.372,52.5c-13.72,0-26.005,6.145-34.255,15.835c13.04,13.04,31.645,17.105,48.145,12.175
	C102.032,64.08,96.652,52.5,90.372,52.5z"/>
<path style="fill:#2DADE3;" d="M115.372,172.5h-30v120h50v-100C135.372,181.454,126.418,172.5,115.372,172.5z"/>
<path style="fill:#49C9FF;" d="M85.372,172.5h-20c-11.046,0-20,8.954-20,20v100h60v-100C105.372,181.454,96.418,172.5,85.372,172.5z
	"/>
<polygon style="fill:#FF4128;" points="135.372,262.5 105.372,262.5 75.372,307.5 105.372,352.5 135.372,352.5 "/>
<path style="fill:#FF6337;" d="M105.372,262.5h-60c-9.329,10.575-15,24.454-15,39.665V352.5h75V262.5z"/>
<polygon style="fill:#FFF0D3;" points="227.001,60 247.001,33.75 227.001,7.5 165.372,7.5 165.372,142.5 195.372,112.5 
	227.001,112.5 247.001,86.25 "/>
<polygon style="fill:#B9D171;" points="316.631,7.5 296.631,92.5 346.63,142.5 346.631,7.5 "/>
<polygon style="fill:#D5E3AA;" points="265.001,7.5 285.001,33.75 265.001,60 285.001,86.25 265.001,112.5 316.63,112.5 
	316.631,7.5 "/>
<path style="fill:#2DADE3;" d="M421.63,262.5v75c24.853,0,45-20.147,45-45L421.63,262.5z"/>
<path style="fill:#49C9FF;" d="M436.63,292.5l-15-30l-45,30c0,24.853,20.147,45,45,45C429.914,337.5,436.63,317.353,436.63,292.5z"
	/>
<path style="fill:#9DB55F;" d="M446.63,172.5h-30l20,120h30v-100C466.63,181.454,457.676,172.5,446.63,172.5z"/>
<path style="fill:#B9D171;" d="M416.63,172.5h-20c-11.046,0-20,8.954-20,20v100h60v-100C436.63,181.454,427.676,172.5,416.63,172.5z
	"/>
<path style="fill:#FFB4A9;" d="M421.63,52.5v101l45-46v-10C466.63,72.647,446.483,52.5,421.63,52.5z"/>
<path style="fill:#FFD9D4;" d="M421.63,52.5c-24.853,0-45,20.147-45,45v10l60,46v-56C436.63,72.647,429.914,52.5,421.63,52.5z"/>
<path style="fill:#FF6337;" d="M440.339,107.5c-1.053-1.573-2.303-3.002-3.709-4.261l-15,69.261c24.853,0,45-20.147,45-45v-20
	H440.339z"/>
<path style="fill:#FF8646;" d="M436.63,127.5v-24.261c-3.981-3.566-9.235-5.739-15-5.739c-7.801,0-14.672,3.971-18.709,10H376.63v20
	c0,24.853,20.147,45,45,45C429.914,172.5,436.63,152.353,436.63,127.5z"/>
<path d="M90.372,150c28.948,0,52.5-23.552,52.5-52.5c0-12.813-4.621-24.564-12.275-33.688c-0.204-0.27-0.422-0.532-0.667-0.777
	c-4.778-5.462-10.622-9.916-17.222-13.032c4.762-5.313,7.665-12.323,7.665-20.002c0-16.542-13.458-30-30-30s-30,13.458-30,30
	c0,7.679,2.903,14.689,7.665,20.002c-6.599,3.115-12.442,7.567-17.191,13.003c-0.278,0.275-0.497,0.54-0.702,0.811
	C42.491,72.939,37.872,84.688,37.872,97.5C37.872,126.448,61.424,150,90.372,150z M90.372,135c-20.678,0-37.5-16.822-37.5-37.5
	c0-6.567,1.702-12.742,4.68-18.115c9.75,7.072,21.282,10.614,32.82,10.614c11.534,0,23.069-3.544,32.82-10.615
	c2.978,5.374,4.68,11.549,4.68,18.116C127.872,118.178,111.05,135,90.372,135z M67.35,67.932C73.709,62.968,81.698,60,90.372,60
	s16.663,2.968,23.023,7.932C99.555,77.352,81.188,77.352,67.35,67.932z M75.372,30c0-8.271,6.729-15,15-15s15,6.729,15,15
	s-6.729,15-15,15S75.372,38.271,75.372,30z"/>
<path d="M252.967,29.205l-20-26.25C231.548,1.093,229.342,0,227.001,0h-61.629c-4.143,0-7.5,3.357-7.5,7.5l-0.001,135
	c0,3.033,1.827,5.769,4.63,6.929c0.928,0.385,1.902,0.571,2.868,0.571c1.952,0,3.87-0.762,5.306-2.196L198.478,120h28.523
	c2.341,0,4.547-1.093,5.966-2.955l20-26.25c2.046-2.685,2.046-6.405,0-9.09L236.43,60l16.537-21.705
	C255.013,35.61,255.013,31.89,252.967,29.205z M221.035,55.455c-2.046,2.685-2.046,6.405,0,9.09l16.537,21.705L223.286,105h-27.915
	c-1.989,0-3.896,0.79-5.304,2.196l-17.196,17.197L172.872,15h50.414l14.286,18.75L221.035,55.455z"/>
<path d="M346.632,150c0.966,0,1.94-0.187,2.868-0.571c2.803-1.16,4.63-3.896,4.63-6.929l0.001-135c0-1.989-0.79-3.896-2.196-5.304
	C350.527,0.79,348.62,0,346.631,0h-81.63c-2.851,0-5.455,1.616-6.721,4.171c-1.266,2.556-0.973,5.606,0.755,7.874l16.537,21.705
	l-16.537,21.705c-2.046,2.685-2.046,6.405,0,9.09l16.537,21.705l-16.537,21.705c-1.728,2.268-2.021,5.318-0.755,7.874
	c1.266,2.555,3.87,4.171,6.721,4.171h48.523l27.802,27.803C342.762,149.238,344.68,150,346.632,150z M339.13,124.394l-17.195-17.196
	c-1.407-1.407-3.314-2.197-5.304-2.197h-36.486l10.822-14.205c2.046-2.685,2.046-6.405,0-9.09L274.43,60l16.537-21.705
	c2.046-2.685,2.046-6.405,0-9.09L280.145,15h58.986L339.13,124.394z"/>
<path d="M141.994,185.598C138.924,173.764,128.152,165,115.372,165h-50c-12.78,0-23.552,8.764-26.622,20.598
	C21.221,188.735,7.872,204.082,7.872,222.5v40c0,12.255,5.88,23.477,15.641,30.456c-0.418,3.036-0.641,6.111-0.641,9.209V352.5
	c0,4.143,3.357,7.5,7.5,7.5h22.5v134.5c0,3.229,2.065,6.095,5.128,7.115l30,10c0.787,0.262,1.587,0.387,2.373,0.387
	c3.141,0,6.066-1.987,7.114-5.13c1.31-3.93-0.814-8.178-4.743-9.487l-24.872-8.29V360h45v134.5c0,3.229,2.065,6.095,5.128,7.115
	l30,10c0.787,0.262,1.587,0.387,2.373,0.387c3.141,0,6.066-1.987,7.114-5.13c1.31-3.93-0.814-8.178-4.743-9.487l-24.872-8.29V360
	h7.5c4.143,0,7.5-3.357,7.5-7.5v-53.255c17.096-3.484,30-18.636,30-36.745v-40C172.872,204.082,159.523,188.735,141.994,185.598z
	 M65.372,180h50c6.893,0,12.5,5.607,12.5,12.5V255h-75v-62.5C52.872,185.607,58.479,180,65.372,180z M22.872,262.5v-40
	c0-9.777,6.271-18.113,15-21.21v58.469c-4.166,5.153-7.516,10.854-9.989,16.907C24.691,272.736,22.872,267.777,22.872,262.5z
	 M127.872,345h-90v-42.835c0-11.687,3.905-22.981,11.039-32.165h78.961V345z M157.872,262.5c0,9.777-6.271,18.113-15,21.21v-82.42
	c8.729,3.097,15,11.433,15,21.21V262.5z"/>
<path d="M473.252,185.598c-2.245-8.651-8.608-15.657-16.861-18.802c10.869-9.626,17.739-23.67,17.739-39.296v-30
	c0-28.948-23.552-52.5-52.5-52.5s-52.5,23.552-52.5,52.5v30c0,15.626,6.87,29.67,17.739,39.296
	c-8.253,3.145-14.616,10.15-16.861,18.802c-17.529,3.138-30.878,18.484-30.878,36.902v40c0,18.271,13.136,33.521,30.458,36.827
	c1.508,11.55,6.775,21.93,14.542,29.865v159.902l-24.872,8.29c-3.93,1.31-6.053,5.558-4.743,9.487
	c1.048,3.143,3.974,5.13,7.114,5.13c0.786,0,1.586-0.125,2.373-0.387l30-10c3.063-1.021,5.128-3.887,5.128-7.115V339.924
	c6.824,3.251,14.452,5.076,22.5,5.076s15.676-1.825,22.5-5.076v149.171l-24.872,8.29c-3.93,1.31-6.053,5.558-4.743,9.487
	c1.048,3.143,3.974,5.13,7.114,5.13c0.786,0,1.586-0.125,2.373-0.387l30-10c3.063-1.021,5.128-3.887,5.128-7.115V329.192
	c7.766-7.936,13.034-18.315,14.542-29.865c17.322-3.306,30.458-18.557,30.458-36.827v-40
	C504.13,204.082,490.781,188.735,473.252,185.598z M421.63,60c20.678,0,37.5,16.822,37.5,37.5v2.5h-15.139
	c-5.652-6.325-13.746-10-22.361-10s-16.708,3.675-22.36,10h-15.14v-2.5C384.13,76.822,400.952,60,421.63,60z M384.13,127.5V115
	h18.792c2.503,0,4.84-1.248,6.232-3.328c2.797-4.178,7.461-6.672,12.476-6.672c5.016,0,9.68,2.494,12.477,6.672
	c1.393,2.08,3.729,3.328,6.232,3.328h18.791v12.5c0,20.678-16.822,37.5-37.5,37.5S384.13,148.178,384.13,127.5z M396.63,180h50
	c6.893,0,12.5,5.607,12.5,12.5V285h-75v-92.5C384.13,185.607,389.737,180,396.63,180z M354.13,262.5v-40
	c0-9.777,6.271-18.113,15-21.21v82.42C360.401,280.613,354.13,272.277,354.13,262.5z M384.885,300h73.491
	c-3.484,17.096-18.635,30-36.745,30S388.369,317.096,384.885,300z M489.13,262.5c0,9.777-6.271,18.113-15,21.21v-82.42
	c8.729,3.097,15,11.433,15,21.21V262.5z"/>
<g>
</g>
<g>
</g>
<g>
</g>
<g>
</g>
<g>
</g>
<g>
</g>
<g>
</g>
<g>
</g>
<g>
</g>
<g>
</g>
<g>
</g>
<g>
</g>
<g>
</g>
<g>
</g>
<g>
</g>
</svg>
