<?xml version="1.0" encoding="iso-8859-1"?>
<!-- Generator: Adobe Illustrator 19.0.0, SVG Export Plug-In . SVG Version: 6.00 Build 0)  -->
<svg version="1.1" id="Capa_1" xmlns="http://www.w3.org/2000/svg" xmlns:xlink="http://www.w3.org/1999/xlink" x="0px" y="0px"
	 viewBox="0 0 512.002 512.002" style="enable-background:new 0 0 512.002 512.002;" xml:space="preserve">
<path style="fill:#2DADE3;" d="M281.002,172.5h-30v120h50v-100C301.002,181.454,292.048,172.5,281.002,172.5z"/>
<path style="fill:#49C9FF;" d="M251.002,172.5h-20c-11.046,0-20,8.954-20,20v100h60v-100
	C271.002,181.454,262.048,172.5,251.002,172.5z"/>
<path style="fill:#FF4128;" d="M301.002,262.5h-30l15,90h30v-50.335C316.002,286.954,310.331,273.075,301.002,262.5z"/>
<path style="fill:#FF6337;" d="M271.002,262.5h-60c-9.329,10.575-15,24.454-15,39.665V352.5h90v-50.335
	C286.002,286.954,280.331,273.075,271.002,262.5z"/>
<path style="fill:#CF301B;" d="M290.002,7.5c-2.966,0-5.849,0.34-8.631,0.952L256.002,142.5c0,0,74-39.999,74-95
	C330.002,25.408,312.094,7.5,290.002,7.5z"/>
<path style="fill:#FF4128;" d="M300.002,47.5c0-19.114-7.974-35.087-18.631-39.048c-10.685,2.354-19.771,8.965-25.369,17.98
	c-7.056-11.362-19.641-18.932-34-18.932c-22.091,0-40,17.908-40,40c0.014,54.993,74,95,74,95S300.002,102.501,300.002,47.5z"/>
<path d="M346.002,185h-38.548c-3.274-11.528-13.889-20-26.452-20h-50c-12.563,0-23.178,8.472-26.452,20h-38.548
	c-12.407,0-22.5,10.094-22.5,22.5s10.093,22.5,22.5,22.5h37.5v29.759c-9.693,11.989-15,26.935-15,42.406V352.5
	c0,4.143,3.358,7.5,7.5,7.5h22.5v129.095l-24.872,8.29c-3.93,1.31-6.053,5.558-4.744,9.487c1.048,3.143,3.974,5.13,7.114,5.13
	c0.786,0,1.586-0.125,2.373-0.387l30-10c3.063-1.021,5.128-3.887,5.128-7.115V360h45v134.5c0,3.229,2.066,6.095,5.128,7.115l30,10
	c0.787,0.262,1.586,0.387,2.373,0.387c3.14,0,6.066-1.987,7.114-5.13c1.31-3.93-0.814-8.178-4.744-9.487l-24.872-8.29V360H316
	c4.142,0,7.5-3.357,7.5-7.5v-50.335c0-15.472-5.307-30.417-15-42.406V230H346c12.407,0,22.5-10.094,22.5-22.5
	S358.409,185,346.002,185z M231.002,180h50c6.893,0,12.5,5.607,12.5,12.5V215h-30v-12.5c0-4.143-3.358-7.5-7.5-7.5
	s-7.5,3.357-7.5,7.5V215h-30v-22.5C218.502,185.607,224.109,180,231.002,180z M166.002,215c-4.136,0-7.5-3.364-7.5-7.5
	s3.364-7.5,7.5-7.5h37.5v15H166.002z M308.502,345h-105v-42.835c0-11.687,3.905-22.981,11.039-32.165h82.922
	c7.134,9.184,11.039,20.479,11.039,32.165V345z M293.502,255h-75v-25h75V255z M346.002,215h-37.5v-15h37.5
	c4.136,0,7.5,3.364,7.5,7.5S350.138,215,346.002,215z"/>
<path d="M252.435,149.098c1.113,0.602,2.34,0.902,3.567,0.902c1.227,0,2.454-0.301,3.566-0.902
	c3.182-1.72,77.934-42.801,77.934-101.598c0-26.191-21.309-47.5-47.5-47.5c-13.032,0-25.165,5.216-34,14.313
	C247.167,5.216,235.034,0,222.002,0c-26.191,0-47.5,21.309-47.5,47.502C174.517,106.289,249.253,147.377,252.435,149.098z
	 M222.002,15c11.316,0,21.645,5.753,27.628,15.389c1.368,2.204,3.778,3.544,6.372,3.544s5.003-1.34,6.372-3.544
	C268.357,20.753,278.686,15,290.002,15c17.92,0,32.5,14.579,32.5,32.5c0,43.245-52.225,77.715-66.504,86.328
	c-14.285-8.6-66.485-42.999-66.496-86.328C189.502,29.579,204.082,15,222.002,15z"/>
<g>
</g>
<g>
</g>
<g>
</g>
<g>
</g>
<g>
</g>
<g>
</g>
<g>
</g>
<g>
</g>
<g>
</g>
<g>
</g>
<g>
</g>
<g>
</g>
<g>
</g>
<g>
</g>
<g>
</g>
</svg>
