<?xml version="1.0" encoding="iso-8859-1"?>
<!-- Generator: Adobe Illustrator 19.0.0, SVG Export Plug-In . SVG Version: 6.00 Build 0)  -->
<svg version="1.1" id="Capa_1" xmlns="http://www.w3.org/2000/svg" xmlns:xlink="http://www.w3.org/1999/xlink" x="0px" y="0px"
	 viewBox="0 0 512.002 512.002" style="enable-background:new 0 0 512.002 512.002;" xml:space="preserve">
<g>
	<path style="fill:#E18F4E;" d="M383.502,7.5c-8.284,0-15,6.716-15,15v45h30v-45C398.502,14.216,391.786,7.5,383.502,7.5z"/>
	<polygon style="fill:#E18F4E;" points="310.22,227.5 278.502,504.5 308.502,504.5 340.22,227.5 	"/>
	<polygon style="fill:#E18F4E;" points="456.784,227.5 488.502,504.5 458.502,504.5 426.784,227.5 	"/>
</g>
<path style="fill:#2DADE3;" d="M168.502,172.5h-30v120h50v-100C188.502,181.454,179.548,172.5,168.502,172.5z"/>
<path style="fill:#49C9FF;" d="M138.502,172.5h-20c-11.046,0-20,8.954-20,20v100h60v-100
	C158.502,181.454,149.548,172.5,138.502,172.5z"/>
<path style="fill:#FF4128;" d="M188.502,262.5h-30l15,90h30v-50.335C203.502,286.954,197.831,273.075,188.502,262.5z"/>
<path style="fill:#FF6337;" d="M158.502,262.5h-60c-9.329,10.575-15,24.454-15,39.665V352.5h90v-50.335
	C173.502,286.954,167.831,273.075,158.502,262.5z"/>
<circle style="fill:#60312C;" cx="143.501" cy="30" r="22.5"/>
<path style="fill:#A45E43;" d="M177.757,68.335c0.01-0.01-34.255-0.005-34.255-0.005v74.17c24.85,0,45-20.15,45-45
	C188.502,86.38,184.456,76.185,177.757,68.335z"/>
<path style="fill:#C27749;" d="M157.392,80.51l-48.145-12.175c-6.7,7.85-10.745,18.045-10.745,29.165c0,24.85,20.15,45,45,45
	c8.28,0,15-20.15,15-45C158.502,91.49,158.111,85.75,157.392,80.51z"/>
<path style="fill:#40211D;" d="M143.502,52.5l13.89,28.01c7.45-2.23,14.475-6.295,20.365-12.175
	C169.507,58.645,157.221,52.5,143.502,52.5z"/>
<path style="fill:#60312C;" d="M143.502,52.5c-13.72,0-26.005,6.145-34.255,15.835c13.04,13.04,31.645,17.105,48.145,12.175
	C155.161,64.08,149.782,52.5,143.502,52.5z"/>
<polygon style="fill:#9DB55F;" points="458.502,167.5 458.502,212.5 428.502,212.5 398.502,137.5 "/>
<polygon style="fill:#B9D171;" points="428.502,137.5 428.502,212.5 308.502,212.5 308.502,167.5 "/>
<polygon style="fill:#A8E5FF;" points="458.502,37.5 458.502,167.5 428.502,167.5 398.502,102.5 428.502,37.5 "/>
<rect x="308.501" y="37.5" style="fill:#DBF4FF;" width="120" height="130"/>
<path style="fill:#9DB55F;" d="M413.502,67.5c-8.284,0-15,6.716-15,15v45c0,8.284,6.716,15,15,15s15-6.716,15-15v-45
	C428.502,74.216,421.786,67.5,413.502,67.5z"/>
<circle style="fill:#FFCB63;" cx="353.501" cy="82.5" r="15"/>
<polygon style="fill:#C27749;" points="473.502,212.5 428.502,227.5 473.502,242.5 503.502,242.5 503.502,212.5 "/>
<rect x="263.501" y="212.5" style="fill:#E18F4E;" width="210" height="30"/>
<path d="M205.874,497.385l-24.872-8.29V360h22.5c4.142,0,7.5-3.357,7.5-7.5v-50.335c0-15.472-5.307-30.417-15-42.406v-60.045
	c50.271-3.842,90-45.976,90-97.214c0-4.143-3.358-7.5-7.5-7.5s-7.5,3.357-7.5,7.5c0,43.343-33.605,78.961-76.125,82.229
	C191.515,173.34,180.967,165,168.502,165h-50c-12.563,0-23.178,8.472-26.452,20H46.002v-52.5c0-4.143-3.358-7.5-7.5-7.5
	s-7.5,3.357-7.5,7.5V185h-7.5c-12.407,0-22.5,10.094-22.5,22.5s10.093,22.5,22.5,22.5h7.5v22.5c0,4.143,3.358,7.5,7.5,7.5
	s7.5-3.357,7.5-7.5V200h45v59.759c-9.693,11.989-15,26.935-15,42.406V352.5c0,4.143,3.358,7.5,7.5,7.5h22.5v42.145l-77.936,26.768
	c-3.03,1.041-5.064,3.891-5.064,7.094v30c0,4.143,3.358,7.5,7.5,7.5s7.5-3.357,7.5-7.5V441.36l77.936-26.768
	c3.03-1.041,5.064-3.891,5.064-7.094V360h45v134.5c0,3.229,2.066,6.095,5.128,7.115l30,10c0.787,0.262,1.586,0.387,2.373,0.387
	c3.14,0,6.066-1.987,7.114-5.13C211.926,502.942,209.803,498.694,205.874,497.385z M31.002,215h-7.5c-4.136,0-7.5-3.364-7.5-7.5
	s3.364-7.5,7.5-7.5h7.5V215z M118.502,180h50c6.893,0,12.5,5.607,12.5,12.5V255h-75v-62.5C106.002,185.607,111.609,180,118.502,180z
	 M91.002,302.165c0-11.687,3.905-22.981,11.039-32.165h82.922c7.134,9.184,11.039,20.479,11.039,32.165V345h-105
	C91.002,345,91.002,302.165,91.002,302.165z"/>
<path d="M143.502,150c28.949,0,52.5-23.552,52.5-52.5c0-12.813-4.621-24.564-12.275-33.689c-0.205-0.27-0.422-0.531-0.668-0.777
	c-4.778-5.462-10.622-9.916-17.222-13.031c4.762-5.313,7.665-12.323,7.665-20.002c0-16.542-13.458-30-30-30s-30,13.458-30,30
	c0,7.679,2.903,14.689,7.665,20.002c-6.6,3.115-12.444,7.569-17.194,13.006c-0.274,0.271-0.491,0.533-0.696,0.803
	C95.623,72.936,91.002,84.687,91.002,97.5C91.002,126.448,114.553,150,143.502,150z M143.502,135c-20.678,0-37.5-16.822-37.5-37.5
	c0-6.567,1.702-12.742,4.68-18.116c9.75,7.072,21.284,10.615,32.82,10.615s23.07-3.543,32.82-10.615
	c2.978,5.374,4.68,11.549,4.68,18.116C181.002,118.178,164.18,135,143.502,135z M120.479,67.931
	C126.84,62.968,134.829,60,143.501,60s16.662,2.968,23.022,7.931C152.685,77.351,134.318,77.351,120.479,67.931z M128.502,30
	c0-8.271,6.729-15,15-15s15,6.729,15,15s-6.729,15-15,15S128.502,38.271,128.502,30z"/>
<path d="M376.002,82.5c0-12.406-10.093-22.5-22.5-22.5s-22.5,10.094-22.5,22.5s10.093,22.5,22.5,22.5S376.002,94.906,376.002,82.5z
	 M346.002,82.5c0-4.136,3.364-7.5,7.5-7.5s7.5,3.364,7.5,7.5s-3.364,7.5-7.5,7.5S346.002,86.636,346.002,82.5z"/>
<path d="M503.502,205h-37.5V37.5c0-4.143-3.358-7.5-7.5-7.5h-52.5v-7.5c0-12.406-10.093-22.5-22.5-22.5s-22.5,10.094-22.5,22.5V30
	h-52.5c-4.142,0-7.5,3.357-7.5,7.5v73.501c0,4.143,3.358,7.5,7.5,7.5s7.5-3.357,7.5-7.5V45h135v115h-30v-11.29
	c8.729-3.096,15-11.433,15-21.21v-45c0-12.406-10.093-22.5-22.5-22.5s-22.5,10.094-22.5,22.5v45c0,9.777,6.271,18.114,15,21.21V160
	h-90v-18.999c0-4.143-3.358-7.5-7.5-7.5s-7.5,3.357-7.5,7.5V205h-37.5c-4.142,0-7.5,3.357-7.5,7.5v30c0,4.143,3.358,7.5,7.5,7.5
	h36.592l-29.043,253.646c-0.243,2.124,0.431,4.251,1.854,5.846c1.423,1.596,3.459,2.508,5.597,2.508h30
	c3.812,0,7.018-2.859,7.451-6.646L345.192,250h76.62l29.239,255.354c0.434,3.787,3.639,6.646,7.451,6.646h30
	c2.138,0,4.174-0.912,5.597-2.508c1.423-1.595,2.098-3.722,1.854-5.846l-26.565-232.001c-0.472-4.115-4.189-7.074-8.304-6.598
	c-4.115,0.471-7.069,4.189-6.598,8.305L480.094,497h-14.902l-28.283-247h66.592c4.142,0,7.5-3.357,7.5-7.5v-30
	C511.002,208.357,507.644,205,503.502,205z M376.002,22.5c0-4.136,3.364-7.5,7.5-7.5s7.5,3.364,7.5,7.5V30h-15V22.5z M406.002,82.5
	c0-4.136,3.364-7.5,7.5-7.5s7.5,3.364,7.5,7.5v45c0,4.136-3.364,7.5-7.5,7.5s-7.5-3.364-7.5-7.5V82.5z M316.002,175h135v30h-135V175
	z M301.812,497H286.91l28.282-247h14.902L301.812,497z M496.002,235h-225v-15h225V235z"/>
<path style="fill:#696969;" d="M57.947,113.054c-2.929-2.928-7.678-2.929-10.606,0.001l-1.339,1.339V112.5
	c0-4.143-3.358-7.5-7.5-7.5s-7.5,3.357-7.5,7.5v1.894l-1.339-1.339c-2.929-2.93-7.678-2.929-10.606-0.001
	c-2.929,2.929-2.929,7.678,0,10.606l14.142,14.143c1.406,1.407,3.314,2.197,5.303,2.197s3.897-0.79,5.303-2.197l14.142-14.143
	C60.876,120.731,60.876,115.982,57.947,113.054z"/>
<g>
</g>
<g>
</g>
<g>
</g>
<g>
</g>
<g>
</g>
<g>
</g>
<g>
</g>
<g>
</g>
<g>
</g>
<g>
</g>
<g>
</g>
<g>
</g>
<g>
</g>
<g>
</g>
<g>
</g>
</svg>
