<?xml version="1.0" encoding="iso-8859-1"?>
<!-- Generator: Adobe Illustrator 19.0.0, SVG Export Plug-In . SVG Version: 6.00 Build 0)  -->
<svg version="1.1" id="Capa_1" xmlns="http://www.w3.org/2000/svg" xmlns:xlink="http://www.w3.org/1999/xlink" x="0px" y="0px"
	 viewBox="0 0 512.002 512.002" style="enable-background:new 0 0 512.002 512.002;" xml:space="preserve">
<path style="fill:#FFE2A8;" d="M348.501,52.5l5,93.532h10l15-15c8.735-8.735,15-20.207,15-33.532
	C393.501,72.647,373.354,52.5,348.501,52.5z"/>
<path style="fill:#FFF0D3;" d="M363.501,97.5c0-24.853-6.716-45-15-45c-24.853,0-45,20.147-45,45v48.532h50l5-15
	C361.413,122.297,363.501,110.825,363.501,97.5z"/>
<path style="fill:#2DADE3;" d="M238.501,172.5h-30v120h50v-100C258.501,181.454,249.547,172.5,238.501,172.5z"/>
<path style="fill:#49C9FF;" d="M208.501,172.5h-20c-11.046,0-20,8.954-20,20v100h60v-100
	C228.501,181.454,219.547,172.5,208.501,172.5z"/>
<path style="fill:#FF4128;" d="M258.501,262.5h-30l15,90h30v-50.335C273.501,286.954,267.83,273.075,258.501,262.5z"/>
<path style="fill:#FF6337;" d="M228.501,262.5h-60c-9.329,10.575-15,24.454-15,39.665V352.5h90v-50.335
	C243.501,286.954,237.83,273.075,228.501,262.5z"/>
<circle style="fill:#60312C;" cx="213.5" cy="30" r="22.5"/>
<path style="fill:#A45E43;" d="M247.756,68.335c0.01-0.01-34.255-0.005-34.255-0.005v74.17c24.85,0,45-20.15,45-45
	C258.501,86.38,254.456,76.185,247.756,68.335z"/>
<path style="fill:#C27749;" d="M227.391,80.51l-48.145-12.175c-6.7,7.85-10.745,18.045-10.745,29.165c0,24.85,20.15,45,45,45
	c8.28,0,15-20.15,15-45C228.501,91.49,228.111,85.75,227.391,80.51z"/>
<path style="fill:#40211D;" d="M213.501,52.5l13.89,28.01c7.45-2.23,14.475-6.295,20.365-12.175
	C239.506,58.645,227.221,52.5,213.501,52.5z"/>
<path style="fill:#60312C;" d="M213.501,52.5c-13.72,0-26.005,6.145-34.255,15.835c13.04,13.04,31.645,17.105,48.145,12.175
	C225.161,64.08,219.781,52.5,213.501,52.5z"/>
<circle cx="350" cy="90.54" r="15"/>
<path d="M213.501,150c28.948,0,52.5-23.552,52.5-52.5c0-12.813-4.621-24.564-12.275-33.689c-0.204-0.269-0.422-0.531-0.667-0.777
	c-4.778-5.462-10.622-9.917-17.222-13.033c4.762-5.312,7.665-12.323,7.665-20.001c0-16.542-13.458-30-30-30s-30,13.458-30,30
	c0,7.679,2.903,14.689,7.665,20.001c-6.6,3.116-12.445,7.571-17.195,13.008c-0.273,0.271-0.49,0.533-0.695,0.802
	c-7.655,9.125-12.275,20.875-12.275,33.689C161.001,126.448,184.553,150,213.501,150z M213.501,135c-20.678,0-37.5-16.822-37.5-37.5
	c0-6.567,1.702-12.742,4.68-18.116c9.75,7.072,21.284,10.614,32.82,10.614s23.07-3.542,32.82-10.614
	c2.978,5.374,4.68,11.549,4.68,18.116C251.001,118.178,234.179,135,213.501,135z M190.479,67.931
	c6.36-4.963,14.349-7.931,23.022-7.931s16.663,2.968,23.022,7.931C222.684,77.351,204.318,77.351,190.479,67.931z M198.501,30
	c0-8.271,6.729-15,15-15s15,6.729,15,15s-6.729,15-15,15S198.501,38.271,198.501,30z"/>
<path d="M401.001,97.5c0-28.948-23.552-52.5-52.5-52.5s-52.5,23.552-52.5,52.5v48.532c0,4.143,3.357,7.5,7.5,7.5h52.474
	C355.427,170.976,341.076,185,323.501,185h-58.548c-3.274-11.528-13.889-20-26.452-20h-50c-12.703,0-23.417,8.661-26.562,20.385
	c-28.626,3.269-50.938,27.628-50.938,57.115c0,23.265,14.243,44.22,35.336,53.06c-0.215,2.187-0.336,4.39-0.336,6.605V352.5
	c0,4.143,3.357,7.5,7.5,7.5h22.5v129.095l-24.872,8.29c-3.929,1.31-6.053,5.558-4.743,9.487c1.048,3.143,3.974,5.13,7.114,5.13
	c0.786,0,1.586-0.125,2.373-0.387l30-10c3.063-1.021,5.128-3.887,5.128-7.115V360h45v134.5c0,3.229,2.065,6.095,5.128,7.115l30,10
	c0.787,0.262,1.587,0.387,2.373,0.387c3.141,0,6.066-1.987,7.114-5.13c1.31-3.93-0.814-8.178-4.743-9.487l-24.872-8.29V360h22.5
	c4.143,0,7.5-3.357,7.5-7.5v-50.335c0-15.472-5.307-30.417-15-42.406V200h57.5c26.191,0,47.5-21.309,47.5-47.5v-3.36l12.804-12.805
	C395.055,125.084,401.001,111.655,401.001,97.5z M188.501,180h50c6.893,0,12.5,5.607,12.5,12.5V255h-75v-62.5
	C176.001,185.607,181.608,180,188.501,180z M126.001,242.5c0-20.875,15.132-38.27,35-41.824v59.083
	c-5.047,6.242-8.892,13.29-11.43,20.792C135.394,273.463,126.001,258.745,126.001,242.5z M266.001,345h-105v-42.835
	c0-11.687,3.905-22.982,11.039-32.165h82.923c7.133,9.183,11.039,20.478,11.039,32.165V345H266.001z M360.395,138.532h-49.394v-15
	h12.5c4.143,0,7.5-3.357,7.5-7.5s-3.357-7.5-7.5-7.5h-12.5V97.5c0-20.678,16.822-37.5,37.5-37.5s37.5,16.822,37.5,37.5
	c0,12.748-6.963,22.388-12.804,28.229L360.395,138.532z"/>
<g>
</g>
<g>
</g>
<g>
</g>
<g>
</g>
<g>
</g>
<g>
</g>
<g>
</g>
<g>
</g>
<g>
</g>
<g>
</g>
<g>
</g>
<g>
</g>
<g>
</g>
<g>
</g>
<g>
</g>
</svg>
