<?xml version="1.0" encoding="iso-8859-1"?>
<!-- Generator: Adobe Illustrator 19.0.0, SVG Export Plug-In . SVG Version: 6.00 Build 0)  -->
<svg version="1.1" id="Capa_1" xmlns="http://www.w3.org/2000/svg" xmlns:xlink="http://www.w3.org/1999/xlink" x="0px" y="0px"
	 viewBox="0 0 512.002 512.002" style="enable-background:new 0 0 512.002 512.002;" xml:space="preserve">
<path style="fill:#2DADE3;" d="M281.001,172.5h-30v120h50v-100C301.001,181.454,292.047,172.5,281.001,172.5z"/>
<path style="fill:#49C9FF;" d="M251.001,172.5h-20c-11.046,0-20,8.954-20,20v100h60v-100
	C271.001,181.454,262.047,172.5,251.001,172.5z"/>
<path style="fill:#FF4128;" d="M314.971,291.04c-2.15-10.8-6.97-20.61-13.97-28.54h-30l26.93,90h30
	C327.931,352.5,318.041,306.44,314.971,291.04z"/>
<path style="fill:#FF6337;" d="M297.931,352.5h-113.86c0,0,9.89-46.06,12.96-61.46c2.15-10.8,6.97-20.61,13.97-28.54h60
	c7,7.93,11.82,17.74,13.97,28.54C288.041,306.44,297.931,352.5,297.931,352.5z"/>
<circle style="fill:#60312C;" cx="256" cy="30" r="22.5"/>
<path style="fill:#A45E43;" d="M290.256,68.335c0.01-0.01-34.255-0.005-34.255-0.005v74.17c24.85,0,45-20.15,45-45
	C301.001,86.38,296.956,76.185,290.256,68.335z"/>
<path style="fill:#C27749;" d="M269.891,80.51l-48.145-12.175c-6.7,7.85-10.745,18.045-10.745,29.165c0,24.85,20.15,45,45,45
	c8.28,0,15-20.15,15-45C271.001,91.49,270.611,85.75,269.891,80.51z"/>
<path style="fill:#40211D;" d="M256.001,52.5l13.89,28.01c7.45-2.23,14.475-6.295,20.365-12.175
	C282.006,58.645,269.721,52.5,256.001,52.5z"/>
<path style="fill:#60312C;" d="M256.001,52.5c-13.72,0-26.005,6.145-34.255,15.835c13.04,13.04,31.645,17.105,48.145,12.175
	C267.661,64.08,262.281,52.5,256.001,52.5z"/>
<path style="fill:#FF4128;" d="M401.001,82.5v30l-48.842-7.535c-0.738-2.36-1.158-4.862-1.158-7.466v-15c0-13.807,11.193-25,25-25
	C389.808,57.501,401.001,68.693,401.001,82.5z"/>
<path style="fill:#FF6337;" d="M376.001,87.501c13.807,0,25,11.193,25,25v40h-30V122c-8.954-1.818-16.15-8.43-18.842-17.034
	C355.355,94.841,364.82,87.501,376.001,87.501z"/>
<path style="fill:#FF4128;" d="M111.001,82.5v30l48.842-7.535c0.738-2.36,1.158-4.862,1.158-7.466v-15c0-13.807-11.193-25-25-25
	C122.194,57.501,111.001,68.693,111.001,82.5z"/>
<path style="fill:#FF6337;" d="M136.001,87.501c-13.807,0-25,11.193-25,25v40h30V122c8.954-1.818,16.15-8.43,18.842-17.034
	C156.647,94.841,147.182,87.501,136.001,87.501z"/>
<path d="M256.001,150c28.948,0,52.5-23.552,52.5-52.5c0-12.813-4.621-24.564-12.275-33.689c-0.204-0.269-0.422-0.531-0.667-0.777
	c-4.778-5.462-10.622-9.917-17.222-13.033c4.762-5.312,7.665-12.323,7.665-20.001c0-16.542-13.458-30-30-30s-30,13.458-30,30
	c0,7.679,2.903,14.689,7.665,20.001c-6.6,3.116-12.445,7.571-17.195,13.008c-0.273,0.271-0.49,0.533-0.695,0.802
	c-7.654,9.125-12.275,20.875-12.275,33.689C203.501,126.448,227.053,150,256.001,150z M256.001,135c-20.678,0-37.5-16.822-37.5-37.5
	c0-6.567,1.702-12.742,4.68-18.116c9.75,7.072,21.284,10.614,32.82,10.614s23.07-3.542,32.82-10.614
	c2.978,5.374,4.68,11.549,4.68,18.116C293.501,118.178,276.679,135,256.001,135z M232.979,67.931
	c6.36-4.963,14.349-7.931,23.022-7.931s16.663,2.968,23.022,7.931C265.184,77.351,246.818,77.351,232.979,67.931z M241.001,30
	c0-8.271,6.729-15,15-15s15,6.729,15,15s-6.729,15-15,15S241.001,38.271,241.001,30z"/>
<path d="M376.001,50.001c-17.921,0-32.5,14.579-32.5,32.499v15c0,13.263,8.117,25.04,20,30.005V152.5c0,4.143,3.357,7.5,7.5,7.5
	h7.491v2.5c0,12.406-10.094,22.5-22.5,22.5h-48.539c-3.274-11.528-13.889-20-26.452-20h-50c-12.563,0-23.178,8.472-26.452,20H156.01
	c-12.406,0-22.5-10.094-22.5-22.5V160h7.491c4.143,0,7.5-3.357,7.5-7.5v-24.995c11.883-4.965,20-16.742,20-30.005v-15
	c0-17.92-14.579-32.499-32.5-32.499c-17.921,0-32.5,14.579-32.5,32.499v70c0,4.143,3.357,7.5,7.5,7.5h7.509v2.5
	c0,20.678,16.822,37.5,37.5,37.5h47.491v59.763c-6.861,8.511-11.62,18.756-13.823,29.808c-3.024,15.171-12.838,60.896-12.937,61.355
	c-0.476,2.215,0.076,4.526,1.5,6.288c1.424,1.762,3.567,2.786,5.833,2.786h2.677l-27.199,128.744l-25.923,8.641
	c-3.929,1.31-6.053,5.558-4.743,9.487c1.048,3.143,3.974,5.13,7.114,5.13c0.786,0,1.586-0.125,2.373-0.387l30-10
	c2.525-0.842,4.416-2.96,4.966-5.565L202.082,360H309.92l28.743,136.05c0.55,2.605,2.44,4.724,4.966,5.565l30,10
	c0.787,0.262,1.587,0.387,2.373,0.387c3.141,0,6.066-1.987,7.114-5.13c1.31-3.93-0.814-8.178-4.743-9.487l-25.923-8.641L325.251,360
	h2.678c2.266,0,4.409-1.024,5.833-2.786c1.425-1.762,1.976-4.073,1.5-6.288c-0.099-0.46-9.913-46.185-12.938-61.354
	c-2.203-11.053-6.962-21.298-13.823-29.809V200h47.491c20.678,0,37.5-16.822,37.5-37.5V160h7.509c4.143,0,7.5-3.357,7.5-7.5v-70
	C408.501,64.58,393.922,50.001,376.001,50.001z M118.501,82.5c0-9.649,7.851-17.499,17.5-17.499s17.5,7.85,17.5,17.499v15
	c0,8.291-5.885,15.503-13.992,17.149c-3.495,0.709-6.008,3.782-6.008,7.35V145h-15C118.501,145,118.501,82.5,118.501,82.5z
	 M231.001,180h50c6.893,0,12.5,5.607,12.5,12.5V255h-75v-62.5C218.501,185.607,224.108,180,231.001,180z M318.653,345h-2.675
	c-0.03,0-119.898,0-119.898,0c-0.03,0-0.06,0-0.089,0h-2.642c3.048-14.258,8.829-41.415,11.039-52.497
	c1.659-8.324,5.149-16.036,10.148-22.503h82.929c4.999,6.467,8.489,14.18,10.148,22.504
	C309.823,303.585,315.605,330.742,318.653,345z M393.501,145h-15v-23.001c0-3.567-2.513-6.641-6.008-7.35
	c-8.107-1.646-13.992-8.858-13.992-17.149v-15c0-9.649,7.851-17.499,17.5-17.499s17.5,7.85,17.5,17.499V145z"/>
<g>
</g>
<g>
</g>
<g>
</g>
<g>
</g>
<g>
</g>
<g>
</g>
<g>
</g>
<g>
</g>
<g>
</g>
<g>
</g>
<g>
</g>
<g>
</g>
<g>
</g>
<g>
</g>
<g>
</g>
</svg>
