<?xml version="1.0" encoding="iso-8859-1"?>
<!-- Generator: Adobe Illustrator 19.0.0, SVG Export Plug-In . SVG Version: 6.00 Build 0)  -->
<svg version="1.1" id="Capa_1" xmlns="http://www.w3.org/2000/svg" xmlns:xlink="http://www.w3.org/1999/xlink" x="0px" y="0px"
	 viewBox="0 0 512.001 512.001" style="enable-background:new 0 0 512.001 512.001;" xml:space="preserve">
<polygon style="fill:#B3B3B3;" points="47.5,172.499 107.501,172.499 107.501,142.499 77.501,122.499 47.5,142.499 "/>
<polygon style="fill:#FFF0D3;" points="77.501,67.499 62.5,104.999 77.501,142.499 107.501,142.499 107.501,67.499 "/>
<rect x="47.5" y="67.499" style="fill:#FFFFFF;" width="30" height="75"/>
<path style="fill:#2DADE3;" d="M207.501,172.499h-30v120h50v-100C227.501,181.453,218.546,172.499,207.501,172.499z"/>
<path style="fill:#49C9FF;" d="M177.501,172.499h-20c-11.046,0-20,8.954-20,20v70l60,30v-100
	C197.501,181.453,188.546,172.499,177.501,172.499z"/>
<path style="fill:#FF4128;" d="M227.501,262.499h-30l15,90h30v-50.335C242.501,286.953,236.829,273.074,227.501,262.499z"/>
<path style="fill:#FF6337;" d="M197.501,262.499h-60v90h75v-50.335C212.501,286.953,206.829,273.074,197.501,262.499z"/>
<circle style="fill:#60312C;" cx="182.499" cy="29.999" r="22.5"/>
<path style="fill:#A45E43;" d="M216.755,68.334c0.01-0.01-34.255-0.005-34.255-0.005v74.17c24.85,0,45-20.15,45-45
	C227.501,86.379,223.455,76.184,216.755,68.334z"/>
<path style="fill:#C27749;" d="M196.391,80.509l-48.145-12.175c-6.7,7.85-10.745,18.045-10.745,29.165c0,24.85,20.15,45,45,45
	c8.28,0,15-20.15,15-45C197.501,91.489,197.11,85.749,196.391,80.509z"/>
<path style="fill:#40211D;" d="M182.501,52.499l13.89,28.01c7.45-2.23,14.475-6.295,20.365-12.175
	C208.505,58.644,196.22,52.499,182.501,52.499z"/>
<g>
	<path style="fill:#60312C;" d="M182.501,52.499c-13.72,0-26.005,6.145-34.255,15.835c13.04,13.04,31.645,17.105,48.145,12.175
		C194.16,64.079,188.781,52.499,182.501,52.499z"/>
	<path style="fill:#60312C;" d="M399.501,107.499v90c24.853,0,45-20.147,45-45S424.354,107.499,399.501,107.499z"/>
</g>
<path style="fill:#85453D;" d="M414.501,152.499c0-24.853-6.716-45-15-45c-24.853,0-45,20.147-45,45s20.147,45,45,45
	C407.785,197.499,414.501,177.352,414.501,152.499z"/>
<path style="fill:#999999;" d="M384.501,277.499v90c24.853,0,45-20.147,45-45L384.501,277.499z"/>
<path style="fill:#CCCCCC;" d="M399.501,322.499l-15-45l-45,45c0,24.853,20.147,45,45,45
	C392.785,367.499,399.501,347.352,399.501,322.499z"/>
<path style="fill:#FF6337;" d="M409.501,227.499h-30l20,95h30v-75C429.501,236.453,420.547,227.499,409.501,227.499z"/>
<path style="fill:#FF8646;" d="M379.501,227.499h-20c-11.046,0-20,8.954-20,20v75h60v-75
	C399.501,236.453,390.547,227.499,379.501,227.499z"/>
<path d="M234.063,185.385c-3.144-11.725-13.859-20.386-26.562-20.386h-50c-15.164,0-27.5,12.337-27.5,27.5v32.5h-37.5
	c-20.678,0-37.5-16.822-37.5-37.5v-7.5h52.5c4.142,0,7.5-3.357,7.5-7.5v-105c0-4.143-3.358-7.5-7.5-7.5h-60
	c-4.142,0-7.5,3.357-7.5,7.5v120c0,28.948,23.551,52.5,52.5,52.5h37.5v112.5c0,4.143,3.358,7.5,7.5,7.5h7.5v129.095l-24.872,8.29
	c-3.93,1.31-6.053,5.558-4.744,9.487c1.048,3.143,3.974,5.13,7.114,5.13c0.786,0,1.586-0.125,2.373-0.387l30-10
	c3.063-1.021,5.128-3.887,5.128-7.115v-134.5h45v129.095l-24.872,8.29c-3.93,1.31-6.053,5.558-4.744,9.487
	c1.048,3.143,3.974,5.13,7.114,5.13c0.786,0,1.586-0.125,2.373-0.387l30-10c3.063-1.021,5.128-3.887,5.128-7.115v-134.5h22.5
	c4.142,0,7.5-3.357,7.5-7.5v-50.335c0-2.216-0.121-4.418-0.336-6.605c21.093-8.839,35.336-29.794,35.336-53.06
	C285.001,213.013,262.688,188.653,234.063,185.385z M55,164.999v-15h45v15H55z M100.001,74.999v60H55v-60H100.001z M145.001,192.499
	c0-6.893,5.607-12.5,12.5-12.5h50c6.893,0,12.5,5.607,12.5,12.5v62.5h-75V192.499z M235.001,344.999h-90v-75h78.961
	c7.134,9.183,11.039,20.478,11.039,32.165V344.999z M246.43,280.549c-2.539-7.501-6.384-14.549-11.43-20.791v-59.083
	c19.868,3.554,35,20.949,35,41.824C270.001,258.743,260.608,273.461,246.43,280.549z"/>
<path d="M182.501,149.999c28.949,0,52.5-23.552,52.5-52.5c0-12.814-4.621-24.565-12.275-33.689
	c-0.205-0.269-0.422-0.532-0.668-0.777c-4.778-5.462-10.622-9.916-17.222-13.032c4.762-5.312,7.665-12.323,7.665-20.001
	c0-16.542-13.458-30-30-30s-30,13.458-30,30c0,7.678,2.903,14.689,7.665,20.001c-6.6,3.116-12.444,7.57-17.194,13.006
	c-0.274,0.271-0.491,0.534-0.696,0.803c-7.654,9.125-12.275,20.875-12.275,33.689C130.001,126.447,153.551,149.999,182.501,149.999z
	 M182.501,134.999c-20.678,0-37.5-16.822-37.5-37.5c0-6.567,1.702-12.742,4.68-18.116c9.75,7.072,21.284,10.615,32.82,10.615
	s23.07-3.543,32.82-10.615c2.978,5.374,4.68,11.549,4.68,18.116C220.001,118.177,203.178,134.999,182.501,134.999z M159.479,67.93
	c6.36-4.963,14.349-7.931,23.022-7.931s16.662,2.968,23.022,7.931C191.684,77.35,173.317,77.35,159.479,67.93z M167.501,29.999
	c0-8.271,6.729-15,15-15s15,6.729,15,15s-6.729,15-15,15S167.501,38.27,167.501,29.999z"/>
<path d="M399.501,204.999c28.948,0,52.5-23.552,52.5-52.5s-23.552-52.5-52.5-52.5s-52.5,23.552-52.5,52.5
	S370.553,204.999,399.501,204.999z M399.501,114.999c20.678,0,37.5,16.822,37.5,37.5c0,20.678-16.822,37.5-37.5,37.5
	s-37.5-16.822-37.5-37.5C362.001,131.821,378.823,114.999,399.501,114.999z"/>
<path d="M437.001,322.499v-27.5h7.5c15.163,0,27.5-12.337,27.5-27.5s-12.337-27.5-27.5-27.5h-8.548
	c-3.274-11.528-13.889-20-26.452-20h-50c-12.563,0-23.178,8.472-26.452,20h-8.548c-15.163,0-27.5,12.337-27.5,27.5
	s12.337,27.5,27.5,27.5h7.5v27.5c0,14.269,5.73,27.22,15,36.692v129.903l-24.872,8.29c-3.929,1.31-6.053,5.558-4.743,9.487
	c1.048,3.143,3.974,5.13,7.114,5.13c0.786,0,1.586-0.125,2.373-0.387l30-10c3.063-1.021,5.128-3.887,5.128-7.115V369.923
	c6.824,3.251,14.452,5.076,22.5,5.076s15.676-1.825,22.5-5.076v124.576c0,3.229,2.065,6.095,5.128,7.115l30,10
	c0.787,0.262,1.587,0.387,2.373,0.387c3.14,0,6.066-1.987,7.114-5.13c1.31-3.93-0.814-8.178-4.743-9.487L422,489.094V359.191
	C431.271,349.719,437.001,336.768,437.001,322.499z M457.001,267.499c0,6.893-5.607,12.5-12.5,12.5h-7.5v-25h7.5
	C451.394,254.999,457.001,260.606,457.001,267.499z M359.501,234.999h50c6.893,0,12.5,5.607,12.5,12.5v32.5h-75v-32.5
	C347.001,240.606,352.608,234.999,359.501,234.999z M324.501,279.999c-6.893,0-12.5-5.607-12.5-12.5s5.607-12.5,12.5-12.5h7.5v25
	H324.501z M422.001,294.999v20h-75v-20H422.001z M347.756,329.999h73.491c-3.484,17.096-18.635,30-36.745,30
	S351.24,347.095,347.756,329.999z"/>
<g>
</g>
<g>
</g>
<g>
</g>
<g>
</g>
<g>
</g>
<g>
</g>
<g>
</g>
<g>
</g>
<g>
</g>
<g>
</g>
<g>
</g>
<g>
</g>
<g>
</g>
<g>
</g>
<g>
</g>
</svg>
