<?xml version="1.0" encoding="iso-8859-1"?>
<!-- Generator: Adobe Illustrator 19.0.0, SVG Export Plug-In . SVG Version: 6.00 Build 0)  -->
<svg version="1.1" id="Capa_1" xmlns="http://www.w3.org/2000/svg" xmlns:xlink="http://www.w3.org/1999/xlink" x="0px" y="0px"
	 viewBox="0 0 512.001 512.001" style="enable-background:new 0 0 512.001 512.001;" xml:space="preserve">
<path style="fill:#2DADE3;" d="M153.501,172.499h-30v120h50v-100C173.501,181.453,164.547,172.499,153.501,172.499z"/>
<path style="fill:#49C9FF;" d="M123.501,172.499h-20c-11.046,0-20,8.954-20,20v100h60v-100
	C143.501,181.453,134.547,172.499,123.501,172.499z"/>
<path style="fill:#FF4128;" d="M173.501,262.499h-30l15,90h30v-50.335C188.501,286.953,182.829,273.074,173.501,262.499z"/>
<path style="fill:#FF6337;" d="M143.501,262.499h-60c-9.329,10.575-15,24.454-15,39.665v50.335h90v-50.335
	C158.501,286.953,152.829,273.074,143.501,262.499z"/>
<circle style="fill:#60312C;" cx="128.5" cy="29.999" r="22.5"/>
<path style="fill:#A45E43;" d="M162.755,68.334c0.01-0.01-34.255-0.005-34.255-0.005v74.17c24.85,0,45-20.15,45-45
	C173.501,86.379,169.456,76.184,162.755,68.334z"/>
<path style="fill:#C27749;" d="M142.391,80.509L94.246,68.334c-6.7,7.85-10.745,18.045-10.745,29.165c0,24.85,20.15,45,45,45
	c8.28,0,15-20.15,15-45C143.501,91.489,143.111,85.749,142.391,80.509z"/>
<path style="fill:#40211D;" d="M128.501,52.499l13.89,28.01c7.45-2.23,14.475-6.295,20.365-12.175
	C154.505,58.644,142.22,52.499,128.501,52.499z"/>
<path style="fill:#60312C;" d="M128.501,52.499c-13.72,0-26.005,6.145-34.255,15.835c13.04,13.04,31.645,17.105,48.145,12.175
	C140.16,64.079,134.781,52.499,128.501,52.499z"/>
<path style="fill:#FFF0D3;" d="M358.501,22.499v240c66.168,0,120-53.832,120-120S424.669,22.499,358.501,22.499z"/>
<path style="fill:#FFFFFF;" d="M448.501,142.499c0-66.168-40.374-120-90-120c-60.676,0-110.971,45.269-118.903,103.806
	l-39.097,16.194l39.097,16.194c7.932,58.537,58.227,103.806,118.903,103.806C408.127,262.499,448.501,208.667,448.501,142.499z"/>
<path style="fill:#FF8646;" d="M403.501,146.749l-18,64.25h18c16.5,0,30-13.5,30-30v-34.25H403.501z"/>
<path style="fill:#FFA754;" d="M403.501,180.999v-34.25h-120v34.25c0,16.5,13.5,30,30,30h72
	C395.401,210.999,403.501,197.499,403.501,180.999z"/>
<path style="fill:#FF6337;" d="M358.501,52.499l45,94.25h30v-19.25C433.501,86.078,399.922,52.499,358.501,52.499z"/>
<path style="fill:#FF8646;" d="M403.501,127.499c0-41.421-20.147-75-45-75c-41.421,0-75,33.579-75,75v19.25h120V127.499z"/>
<path style="fill:#60312C;" d="M433.501,127.499h-30v38.5h30c10.631,0,19.25-8.619,19.25-19.25
	C452.751,136.118,444.132,127.499,433.501,127.499z"/>
<path style="fill:#85453D;" d="M422.751,146.749c0-10.631-8.619-19.25-19.25-19.25h-120c-10.631,0-19.25,8.619-19.25,19.25
	c0,10.631,8.619,19.25,19.25,19.25h120C414.132,165.999,422.751,157.38,422.751,146.749z"/>
<g>
	<circle style="fill:#FFFFFF;" cx="358.5" cy="82.499" r="7.5"/>
	<circle style="fill:#FFFFFF;" cx="388.5" cy="97.499" r="7.5"/>
	<circle style="fill:#FFFFFF;" cx="328.5" cy="97.499" r="7.5"/>
</g>
<path d="M128.501,149.999c28.949,0,52.5-23.552,52.5-52.5c0-12.814-4.621-24.565-12.275-33.689
	c-0.205-0.269-0.422-0.532-0.668-0.777c-4.778-5.462-10.622-9.916-17.222-13.032c4.762-5.312,7.665-12.323,7.665-20.001
	c0-16.542-13.458-30-30-30s-30,13.458-30,30c0,7.678,2.903,14.689,7.665,20.001c-6.6,3.116-12.444,7.57-17.194,13.006
	c-0.274,0.271-0.491,0.534-0.696,0.803c-7.654,9.124-12.275,20.875-12.275,33.689C76.001,126.447,99.552,149.999,128.501,149.999z
	 M128.501,134.999c-20.678,0-37.5-16.822-37.5-37.5c0-6.567,1.702-12.742,4.68-18.116c9.75,7.072,21.284,10.615,32.82,10.615
	c11.536,0,23.07-3.543,32.82-10.615c2.978,5.374,4.68,11.549,4.68,18.116C166.001,118.177,149.178,134.999,128.501,134.999z
	 M105.479,67.93c6.36-4.963,14.349-7.931,23.022-7.931c8.673,0,16.662,2.968,23.022,7.931
	C137.684,77.35,119.318,77.35,105.479,67.93z M113.501,29.999c0-8.271,6.729-15,15-15c8.271,0,15,6.729,15,15s-6.729,15-15,15
	S113.501,38.27,113.501,29.999z"/>
<path d="M358.501,14.999c-28.566,0-55.589,9.276-78.147,26.825c-3.269,2.544-3.857,7.256-1.314,10.525s7.256,3.858,10.525,1.314
	c19.9-15.481,43.738-23.664,68.936-23.664c62.033,0,112.5,50.468,112.5,112.5s-50.467,112.5-112.5,112.5
	c-56.031,0-103.954-41.835-111.471-97.313c-0.358-2.646-2.096-4.9-4.562-5.922l-22.368-9.265l22.368-9.266
	c2.466-1.021,4.204-3.276,4.562-5.922c2.645-19.518,10.474-38.103,22.641-53.746c2.543-3.27,1.954-7.981-1.316-10.524
	c-3.27-2.544-7.982-1.953-10.525,1.315c-12.892,16.576-21.489,36.076-25.004,56.636l-35.194,14.578
	c-2.803,1.16-4.63,3.896-4.63,6.929c0,3.033,1.827,5.769,4.63,6.929l35.193,14.578c10.359,60.727,63.631,105.993,125.676,105.993
	c70.304,0,127.5-57.196,127.5-127.5S428.805,14.999,358.501,14.999z"/>
<path d="M203.501,184.999h-23.548c-3.274-11.528-13.889-20-26.452-20h-50c-12.563,0-23.178,8.472-26.452,20H53.501
	c-15.164,0-27.5,12.337-27.5,27.5s12.336,27.5,27.5,27.5h22.5v19.759c-9.693,11.989-15,26.935-15,42.406v50.335
	c0,4.143,3.358,7.5,7.5,7.5h22.5v129.095l-24.872,8.29c-3.93,1.31-6.053,5.558-4.744,9.487c1.048,3.143,3.974,5.13,7.114,5.13
	c0.786,0,1.586-0.125,2.373-0.387l30-10c3.063-1.021,5.128-3.887,5.128-7.115v-134.5h45v134.5c0,3.229,2.066,6.095,5.128,7.115
	l30,10c0.787,0.262,1.586,0.387,2.373,0.387c3.14,0,6.066-1.987,7.114-5.13c1.31-3.93-0.814-8.178-4.744-9.487l-24.872-8.29V359.999
	h22.5c4.142,0,7.5-3.357,7.5-7.5v-50.335c0-15.472-5.307-30.417-15-42.406v-19.759h22.5c15.164,0,27.5-12.337,27.5-27.5
	S218.664,184.999,203.501,184.999z M53.501,224.999c-6.893,0-12.5-5.607-12.5-12.5s5.607-12.5,12.5-12.5h22.5v25H53.501z
	 M181.001,344.999h-105v-42.835c0-11.687,3.905-22.982,11.039-32.165h82.922c7.134,9.183,11.039,20.478,11.039,32.165V344.999z
	 M166.001,254.999h-75v-15h22.5c4.142,0,7.5-3.357,7.5-7.5s-3.358-7.5-7.5-7.5h-22.5v-32.5c0-6.893,5.607-12.5,12.5-12.5h50
	c6.893,0,12.5,5.607,12.5,12.5v32.5h-22.5c-4.142,0-7.5,3.357-7.5,7.5s3.358,7.5,7.5,7.5h22.5V254.999z M203.501,224.999h-22.5v-25
	h22.5c6.893,0,12.5,5.607,12.5,12.5S210.393,224.999,203.501,224.999z"/>
<path d="M313.501,218.499h90c20.678,0,37.5-16.822,37.5-37.5v-8.578c11.11-3.251,19.25-13.526,19.25-25.672
	c0-12.248-8.278-22.593-19.53-25.752c-3.33-42.459-38.92-75.998-82.22-75.998s-78.89,33.539-82.22,75.998
	c-11.253,3.159-19.53,13.504-19.53,25.752c0,12.146,8.14,22.421,19.25,25.672v8.578
	C276.001,201.677,292.823,218.499,313.501,218.499z M403.501,203.499h-90c-12.407,0-22.5-10.094-22.5-22.5v-7.5h135v7.5
	C426.001,193.405,415.908,203.499,403.501,203.499z M358.501,59.999c34.684,0,63.329,26.298,67.073,60H291.428
	C295.172,86.297,323.816,59.999,358.501,59.999z M271.751,146.749c0-6.479,5.271-11.75,11.75-11.75h150
	c6.479,0,11.75,5.271,11.75,11.75s-5.271,11.75-11.75,11.75h-150C277.022,158.499,271.751,153.228,271.751,146.749z"/>
<g>
</g>
<g>
</g>
<g>
</g>
<g>
</g>
<g>
</g>
<g>
</g>
<g>
</g>
<g>
</g>
<g>
</g>
<g>
</g>
<g>
</g>
<g>
</g>
<g>
</g>
<g>
</g>
<g>
</g>
</svg>
