<?xml version="1.0" encoding="iso-8859-1"?>
<!-- Generator: Adobe Illustrator 19.0.0, SVG Export Plug-In . SVG Version: 6.00 Build 0)  -->
<svg version="1.1" id="Capa_1" xmlns="http://www.w3.org/2000/svg" xmlns:xlink="http://www.w3.org/1999/xlink" x="0px" y="0px"
	 viewBox="0 0 512.001 512.001" style="enable-background:new 0 0 512.001 512.001;" xml:space="preserve">
<path style="fill:#60312C;" d="M181.001,262.499v75c24.853,0,45-20.147,45-45L181.001,262.499z"/>
<path style="fill:#85453D;" d="M196.001,292.499l-15-30l-45,30c0,24.853,20.147,45,45,45
	C189.285,337.499,196.001,317.352,196.001,292.499z"/>
<path style="fill:#FFA754;" d="M206.001,172.499h-30l20,120h30v-100C226.001,181.453,217.046,172.499,206.001,172.499z"/>
<path style="fill:#FFCB63;" d="M176.001,172.499h-20c-11.046,0-20,8.954-20,20v100h60v-100
	C196.001,181.453,187.046,172.499,176.001,172.499z"/>
<path style="fill:#FF8D7E;" d="M181.001,52.499v90c24.853,0,45-20.147,45-45S205.854,52.499,181.001,52.499z"/>
<path style="fill:#FFB4A9;" d="M196.001,97.499c0-24.853-6.716-45-15-45c-24.853,0-45,20.147-45,45s20.147,45,45,45
	C189.285,142.499,196.001,122.352,196.001,97.499z"/>
<path style="fill:#2DADE3;" d="M356.001,172.499h-30v120h50v-100C376.001,181.453,367.047,172.499,356.001,172.499z"/>
<path style="fill:#49C9FF;" d="M326.001,172.499h-20c-11.046,0-20,8.954-20,20v100h60v-100
	C346.001,181.453,337.047,172.499,326.001,172.499z"/>
<path style="fill:#FF4128;" d="M376.001,262.499h-30l15,90h30v-50.335C391.001,286.953,385.329,273.074,376.001,262.499z"/>
<path style="fill:#FF6337;" d="M346.001,262.499h-60c-9.329,10.575-15,24.454-15,39.665v50.335h90v-50.335
	C361.001,286.953,355.329,273.074,346.001,262.499z"/>
<circle style="fill:#60312C;" cx="331" cy="29.999" r="22.5"/>
<path style="fill:#A45E43;" d="M365.256,68.334c0.01-0.01-34.255-0.005-34.255-0.005v74.17c24.85,0,45-20.15,45-45
	C376.001,86.379,371.956,76.184,365.256,68.334z"/>
<path style="fill:#C27749;" d="M344.891,80.509l-48.145-12.175c-6.7,7.85-10.745,18.045-10.745,29.165c0,24.85,20.15,45,45,45
	c8.28,0,15-20.15,15-45C346.001,91.489,345.611,85.749,344.891,80.509z"/>
<path style="fill:#40211D;" d="M331.001,52.499l13.89,28.01c7.45-2.23,14.475-6.295,20.365-12.175
	C357.006,58.644,344.721,52.499,331.001,52.499z"/>
<path style="fill:#60312C;" d="M331.001,52.499c-13.72,0-26.005,6.145-34.255,15.835c13.04,13.04,31.645,17.105,48.145,12.175
	C342.661,64.079,337.281,52.499,331.001,52.499z"/>
<path d="M181.001,149.999c28.949,0,52.5-23.552,52.5-52.5s-23.551-52.5-52.5-52.5s-52.5,23.552-52.5,52.5
	S152.051,149.999,181.001,149.999z M181.001,59.999c20.678,0,37.5,16.822,37.5,37.5s-16.822,37.5-37.5,37.5s-37.5-16.822-37.5-37.5
	S160.322,59.999,181.001,59.999z"/>
<path d="M446.437,428.911l-77.936-26.768v-42.144h22.5c4.142,0,7.5-3.357,7.5-7.5v-50.335c0-15.472-5.307-30.417-15-42.406v-60.044
	c50.271-3.842,90-45.976,90-97.214c0-4.143-3.358-7.5-7.5-7.5s-7.5,3.357-7.5,7.5c0,43.343-33.605,78.961-76.125,82.229
	c-3.362-11.39-13.91-19.729-26.375-19.729h-50c-12.563,0-23.178,8.472-26.452,20h-47.096c-3.274-11.528-13.889-20-26.452-20h-50
	c-12.465,0-23.013,8.339-26.375,19.729c-42.52-3.269-76.125-38.887-76.125-82.229c0-4.143-3.358-7.5-7.5-7.5s-7.5,3.357-7.5,7.5
	c0,51.238,39.729,93.372,90,97.214v92.785c0,14.269,5.73,27.22,15,36.692v72.952l-77.936,26.768
	c-3.03,1.041-5.064,3.891-5.064,7.094v30c0,4.143,3.358,7.5,7.5,7.5c4.142,0,7.5-3.357,7.5-7.5v-24.646l77.936-26.768
	c3.03-1.041,5.064-3.891,5.064-7.094v-67.575c6.824,3.25,14.452,5.076,22.5,5.076s15.676-1.826,22.5-5.076v154.577
	c0,3.229,2.066,6.095,5.128,7.115l30,10c0.787,0.262,1.586,0.387,2.373,0.387c3.14,0,6.066-1.987,7.114-5.13
	c1.31-3.93-0.814-8.178-4.744-9.487l-24.872-8.29V329.191c9.27-9.473,15-22.423,15-36.692v-92.5h45v59.759
	c-9.693,11.989-15,26.935-15,42.406v50.335c0,4.143,3.358,7.5,7.5,7.5h22.5v129.095l-24.872,8.29
	c-3.93,1.31-6.053,5.558-4.744,9.487c1.048,3.143,3.974,5.13,7.114,5.13c0.786,0,1.586-0.125,2.373-0.387l30-10
	c3.063-1.021,5.128-3.887,5.128-7.115v-134.5h45v47.499c0,3.203,2.034,6.053,5.064,7.094l77.936,26.768v24.646
	c0,4.143,3.358,7.5,7.5,7.5s7.5-3.357,7.5-7.5v-30C451.501,432.802,449.467,429.952,446.437,428.911z M306.001,179.999h50
	c6.893,0,12.5,5.607,12.5,12.5v62.5h-75v-62.5C293.501,185.606,299.108,179.999,306.001,179.999z M156.001,179.999h50
	c6.893,0,12.5,5.607,12.5,12.5v92.5h-75v-92.5C143.501,185.606,149.107,179.999,156.001,179.999z M144.255,299.999h73.491
	c-3.484,17.096-18.635,30-36.745,30S147.74,317.095,144.255,299.999z M278.501,302.164c0-11.687,3.905-22.982,11.039-32.165h82.922
	c7.134,9.183,11.039,20.478,11.039,32.165v42.835h-105V302.164z"/>
<path d="M331.001,149.999c28.949,0,52.5-23.552,52.5-52.5c0-12.814-4.621-24.565-12.275-33.689
	c-0.205-0.269-0.422-0.532-0.668-0.777c-4.778-5.462-10.622-9.916-17.222-13.032c4.762-5.312,7.665-12.323,7.665-20.001
	c0-16.542-13.458-30-30-30s-30,13.458-30,30c0,7.678,2.903,14.689,7.665,20.001c-6.6,3.116-12.444,7.57-17.194,13.006
	c-0.274,0.271-0.491,0.534-0.696,0.803c-7.654,9.125-12.275,20.875-12.275,33.689C278.501,126.447,302.052,149.999,331.001,149.999z
	 M331.001,134.999c-20.678,0-37.5-16.822-37.5-37.5c0-6.567,1.702-12.742,4.68-18.116c9.75,7.072,21.284,10.615,32.82,10.615
	s23.07-3.543,32.82-10.615c2.978,5.374,4.68,11.549,4.68,18.116C368.501,118.177,351.678,134.999,331.001,134.999z M307.979,67.93
	c6.36-4.963,14.349-7.931,23.022-7.931s16.662,2.968,23.022,7.931C340.184,77.35,321.818,77.35,307.979,67.93z M316.001,29.999
	c0-8.271,6.729-15,15-15s15,6.729,15,15s-6.729,15-15,15S316.001,38.27,316.001,29.999z"/>
<g>
</g>
<g>
</g>
<g>
</g>
<g>
</g>
<g>
</g>
<g>
</g>
<g>
</g>
<g>
</g>
<g>
</g>
<g>
</g>
<g>
</g>
<g>
</g>
<g>
</g>
<g>
</g>
<g>
</g>
</svg>
