<?xml version="1.0" encoding="iso-8859-1"?>
<!-- Generator: Adobe Illustrator 19.0.0, SVG Export Plug-In . SVG Version: 6.00 Build 0)  -->
<svg version="1.1" id="Capa_1" xmlns="http://www.w3.org/2000/svg" xmlns:xlink="http://www.w3.org/1999/xlink" x="0px" y="0px"
	 viewBox="0 0 512 512" style="enable-background:new 0 0 512 512;" xml:space="preserve">
<path style="fill:#40211D;" d="M112.5,67.25v90c24.853,0,45-20.147,45-45S137.353,67.25,112.5,67.25z"/>
<g>
	<path style="fill:#60312C;" d="M127.5,112.25c0-24.853-6.716-45-15-45c-24.853,0-45,20.147-45,45s20.147,45,45,45
		C120.784,157.25,127.5,137.103,127.5,112.25z"/>
	<circle style="fill:#60312C;" cx="112.5" cy="44.75" r="22.5"/>
</g>
<rect x="122.5" y="317.25" style="fill:#FF4128;" width="50" height="70"/>
<rect x="52.5" y="317.25" style="fill:#FF6337;" width="90" height="70"/>
<path style="fill:#2DADE3;" d="M137.5,187.25h-30l20,120h30v-100C157.5,196.205,148.546,187.25,137.5,187.25z"/>
<path style="fill:#49C9FF;" d="M107.5,187.25h-20c-11.046,0-20,8.954-20,20v100h60v-100C127.5,196.205,118.546,187.25,107.5,187.25z
	"/>
<g>
	<polygon style="fill:#85453D;" points="187.93,367.25 137.93,387.25 187.93,407.25 217.5,407.25 217.5,367.25 	"/>
	<polygon style="fill:#85453D;" points="187.93,247.25 137.93,292.25 187.93,337.25 217.5,337.25 217.5,247.25 	"/>
</g>
<g>
	<rect x="7.5" y="367.25" style="fill:#A45E43;" width="180.43" height="40"/>
	<rect x="7.5" y="247.25" style="fill:#A45E43;" width="180.43" height="90"/>
</g>
<g>
	<polygon style="fill:#85453D;" points="474.93,372.25 424.93,392.25 474.93,412.25 504.5,412.25 504.5,372.25 	"/>
	<polygon style="fill:#85453D;" points="474.93,252.25 424.93,297.25 474.93,342.25 504.5,342.25 504.5,252.25 	"/>
</g>
<g>
	<rect x="294.5" y="372.25" style="fill:#A45E43;" width="180.43" height="40"/>
	<rect x="294.5" y="252.25" style="fill:#A45E43;" width="180.43" height="90"/>
</g>
<path style="fill:#CF301B;" d="M421.5,72.25c-3.423,0-6.696,0.639-9.709,1.802L399.5,162.25c0,0,49-26.525,49-63
	C448.5,84.338,436.412,72.25,421.5,72.25z"/>
<path style="fill:#FF4128;" d="M411.791,74.052c-4.977,1.922-9.242,5.275-12.291,9.556c-4.895-6.871-12.921-11.357-22-11.357
	c-14.912,0-27,12.088-27,27c0,36.475,49,63,49,63s19-26.525,19-63C418.5,87.758,415.715,77.95,411.791,74.052z"/>
<path d="M112.5,164.75c28.948,0,52.5-23.552,52.5-52.5c0-20.964-12.356-39.09-30.165-47.499c4.762-5.312,7.665-12.323,7.665-20.001
	c0-16.542-13.458-30-30-30s-30,13.458-30,30c0,7.679,2.903,14.689,7.665,20.001C72.356,73.16,60,91.286,60,112.25
	C60,141.198,83.552,164.75,112.5,164.75z M97.5,44.75c0-8.271,6.729-15,15-15s15,6.729,15,15s-6.729,15-15,15
	S97.5,53.021,97.5,44.75z M112.5,74.75c20.678,0,37.5,16.822,37.5,37.5s-16.822,37.5-37.5,37.5S75,132.928,75,112.25
	S91.822,74.75,112.5,74.75z"/>
<path d="M217.5,219.75c-4.143,0-7.5,3.357-7.5,7.5v12.5h-15v-2.5c0-18.417-13.349-33.765-30.878-36.903
	c-3.07-11.833-13.842-20.597-26.622-20.597h-50c-12.78,0-23.552,8.764-26.622,20.597C43.349,203.485,30,218.833,30,237.25v2.5H15
	v-7.5c0-4.143-3.357-7.5-7.5-7.5s-7.5,3.357-7.5,7.5v252.5c0,4.143,3.357,7.5,7.5,7.5s7.5-3.357,7.5-7.5v-70h60v70
	c0,4.143,3.357,7.5,7.5,7.5s7.5-3.357,7.5-7.5v-70h45v70c0,4.143,3.357,7.5,7.5,7.5s7.5-3.357,7.5-7.5v-70h60v70
	c0,4.143,3.357,7.5,7.5,7.5s7.5-3.357,7.5-7.5v-257.5C225,223.107,221.643,219.75,217.5,219.75z M60,359.75v-15h105v15H60z
	 M15,359.75v-15h30v15H15z M180,344.75h30v15h-30V344.75z M180,237.25v2.5h-15v-23.71C173.729,219.136,180,227.473,180,237.25z
	 M87.5,194.75h50c6.893,0,12.5,5.607,12.5,12.5v32.5H75v-32.5C75,200.357,80.607,194.75,87.5,194.75z M45,237.25
	c0-9.777,6.271-18.114,15-21.21v23.71H45V237.25z M210,254.75v75H15v-75H210z M15,399.75v-25h195v25H15z"/>
<path d="M504.5,224.75c-4.143,0-7.5,3.357-7.5,7.5v12.5H302v-7.5c0-4.143-3.357-7.5-7.5-7.5s-7.5,3.357-7.5,7.5v252.5
	c0,4.143,3.357,7.5,7.5,7.5s7.5-3.357,7.5-7.5v-70h195v70c0,4.143,3.357,7.5,7.5,7.5s7.5-3.357,7.5-7.5v-257.5
	C512,228.107,508.643,224.75,504.5,224.75z M497,259.75v75h-22.069c-4.143,0-7.5,3.357-7.5,7.5s3.357,7.5,7.5,7.5H497v15H302v-15
	h142.931c4.143,0,7.5-3.357,7.5-7.5s-3.357-7.5-7.5-7.5H302v-75H497z M302,404.75v-25h195v25H302z"/>
<path d="M395.93,168.846c1.113,0.603,2.342,0.904,3.57,0.904s2.457-0.302,3.57-0.904c2.161-1.17,52.93-29.118,52.93-69.596
	c0-19.023-15.477-34.5-34.5-34.5c-8.103,0-15.875,2.873-22,7.94c-6.125-5.067-13.897-7.94-22-7.94c-19.023,0-34.5,15.477-34.5,34.5
	C343,139.728,393.769,167.676,395.93,168.846z M377.5,79.75c6.289,0,12.229,3.068,15.892,8.209c1.407,1.976,3.683,3.148,6.108,3.148
	s4.701-1.173,6.108-3.148c3.662-5.141,9.603-8.209,15.892-8.209c10.752,0,19.5,8.748,19.5,19.5c0,26.209-30.834,47.651-41.5,54.283
	c-10.666-6.632-41.5-28.074-41.5-54.283C358,88.498,366.748,79.75,377.5,79.75z"/>
<g>
</g>
<g>
</g>
<g>
</g>
<g>
</g>
<g>
</g>
<g>
</g>
<g>
</g>
<g>
</g>
<g>
</g>
<g>
</g>
<g>
</g>
<g>
</g>
<g>
</g>
<g>
</g>
<g>
</g>
</svg>
