<?xml version="1.0" encoding="iso-8859-1"?>
<!-- Generator: Adobe Illustrator 19.0.0, SVG Export Plug-In . SVG Version: 6.00 Build 0)  -->
<svg version="1.1" id="Capa_1" xmlns="http://www.w3.org/2000/svg" xmlns:xlink="http://www.w3.org/1999/xlink" x="0px" y="0px"
	 viewBox="0 0 512.002 512.002" style="enable-background:new 0 0 512.002 512.002;" xml:space="preserve">
<path style="fill:#FFB4A9;" d="M436.001,52.5v101l45-46v-10C481.001,72.647,460.854,52.5,436.001,52.5z"/>
<path style="fill:#FFD9D4;" d="M436.001,52.5c-24.853,0-45,20.147-45,45v10l60,46v-56C451.001,72.647,444.285,52.5,436.001,52.5z"/>
<path style="fill:#FF6337;" d="M454.71,107.5c-1.053-1.573-2.303-3.002-3.709-4.261l-15,69.261c24.853,0,45-20.147,45-45v-20H454.71
	z"/>
<path style="fill:#FF8646;" d="M451.001,127.5v-24.261c-3.981-3.566-9.235-5.739-15-5.739c-7.801,0-14.672,3.971-18.709,10h-26.291
	v20c0,24.853,20.147,45,45,45C444.285,172.5,451.001,152.352,451.001,127.5z"/>
<path style="fill:#2DADE3;" d="M436.001,262.5v75c24.853,0,45-20.147,45-45L436.001,262.5z"/>
<path style="fill:#49C9FF;" d="M452.001,292.5l-15-30l-45,30c0,24.853,20.147,45,45,45C445.285,337.5,452.001,317.352,452.001,292.5
	z"/>
<path style="fill:#9DB55F;" d="M461.001,172.5h-30l20,120h30v-100C481.001,181.454,472.047,172.5,461.001,172.5z"/>
<path style="fill:#B9D171;" d="M431.001,172.5h-20c-11.046,0-20,8.954-20,20v100h60v-100
	C451.001,181.454,442.047,172.5,431.001,172.5z"/>
<path style="fill:#2DADE3;" d="M116.001,172.5h-30v120l50-30v-70C136.001,181.454,127.047,172.5,116.001,172.5z"/>
<path style="fill:#49C9FF;" d="M86.001,172.5h-20c-11.046,0-20,8.954-20,20v100h60v-100C106.001,181.454,97.047,172.5,86.001,172.5z
	"/>
<polygon style="fill:#FF4128;" points="136.001,262.5 106.001,262.5 76.001,307.5 106.001,352.5 136.001,352.5 "/>
<path style="fill:#FF6337;" d="M106.001,262.5h-60c-9.329,10.575-15,24.454-15,39.665V352.5h75V262.5z"/>
<circle style="fill:#60312C;" cx="91" cy="30" r="22.5"/>
<path style="fill:#A45E43;" d="M125.256,68.335c0.01-0.01-34.255-0.005-34.255-0.005v74.17c24.85,0,45-20.15,45-45
	C136.001,86.38,131.956,76.184,125.256,68.335z"/>
<path style="fill:#C27749;" d="M104.891,80.51L56.746,68.335c-6.7,7.85-10.745,18.045-10.745,29.165c0,24.85,20.15,45,45,45
	c8.28,0,15-20.15,15-45C106.001,91.49,105.611,85.75,104.891,80.51z"/>
<path style="fill:#40211D;" d="M91.001,52.5l13.89,28.01c7.45-2.23,14.475-6.295,20.365-12.175
	C117.006,58.645,104.721,52.5,91.001,52.5z"/>
<path style="fill:#60312C;" d="M91.001,52.5c-13.72,0-26.005,6.145-34.255,15.835c13.04,13.04,31.645,17.105,48.145,12.175
	C102.661,64.08,97.281,52.5,91.001,52.5z"/>
<g>
	<polygon style="fill:#CCCCCC;" points="241.001,322.5 241.001,282.5 211.001,282.5 181.001,302.5 211.001,322.5 	"/>
	<polygon style="fill:#CCCCCC;" points="241.001,242.5 241.001,202.5 211.001,202.5 181.001,222.5 211.001,242.5 	"/>
</g>
<g>
	<polygon style="fill:#084F6D;" points="211.001,322.5 211.001,282.5 181.001,282.5 151.001,302.5 181.001,322.5 	"/>
	<polygon style="fill:#084F6D;" points="211.001,242.5 211.001,202.5 181.001,202.5 151.001,222.5 181.001,242.5 	"/>
</g>
<path style="fill:#116F97;" d="M166.001,242.5h15v-40h-15c-33.137,0-60,26.863-60,60s26.863,60,60,60h15v-40h-15
	c-11.028,0-20-8.972-20-20S154.973,242.5,166.001,242.5z"/>
<g>
	<polygon style="fill:#CCCCCC;" points="286.001,322.5 286.001,282.5 316.001,282.5 346.001,302.5 316.001,322.5 	"/>
	<polygon style="fill:#CCCCCC;" points="286.001,242.5 286.001,202.5 316.001,202.5 346.001,222.5 316.001,242.5 	"/>
</g>
<path style="fill:#FF4128;" d="M361.001,202.5h-45v40h45c11.028,0,20,8.972,20,20c0,11.028-8.972,20-20,20h-45v40h45
	c33.137,0,60-26.863,60-60C421.001,229.362,394.138,202.5,361.001,202.5z"/>
<path d="M436.001,45c-28.948,0-52.5,23.552-52.5,52.5v30c0,15.626,6.87,29.67,17.739,39.296
	c-10.358,3.947-17.739,13.978-17.739,25.704v6.37c-7.042-2.498-14.612-3.87-22.5-3.87h-75c-4.143,0-7.5,3.357-7.5,7.5v40
	c0,4.143,3.357,7.5,7.5,7.5h30c4.143,0,7.5-3.357,7.5-7.5V210h37.5c26.401,0,48.304,19.593,51.956,45h-25.504
	c-3.274-11.528-13.889-20-26.452-20h-15c-4.143,0-7.5,3.357-7.5,7.5s3.357,7.5,7.5,7.5h15c6.893,0,12.5,5.607,12.5,12.5
	s-5.607,12.5-12.5,12.5h-75c-4.143,0-7.5,3.357-7.5,7.5v40c0,4.143,3.357,7.5,7.5,7.5h75c11.426,0,22.191-2.863,31.634-7.895
	c1.753,2.572,3.717,4.966,5.866,7.16v159.83l-24.872,8.29c-3.93,1.31-6.053,5.558-4.743,9.487c1.048,3.143,3.974,5.13,7.114,5.13
	c0.786,0,1.586-0.125,2.373-0.387l30-10c3.063-1.021,5.128-3.887,5.128-7.115V339.954c6.889,3.262,14.542,5.046,22.5,5.046
	c8.048,0,15.676-1.825,22.5-5.076v149.171l-24.872,8.29c-3.93,1.31-6.053,5.558-4.743,9.487c1.048,3.143,3.974,5.13,7.114,5.13
	c0.786,0,1.586-0.125,2.373-0.387l30-10c3.063-1.021,5.128-3.887,5.128-7.115V329.192c9.27-9.472,15-22.423,15-36.692v-100
	c0-11.727-7.381-21.757-17.739-25.704c10.869-9.625,17.739-23.67,17.739-39.296v-30C488.501,68.552,464.949,45,436.001,45z
	 M308.501,235h-15v-25h15V235z M436.001,60c20.678,0,37.5,16.822,37.5,37.5v2.5h-15.139c-5.653-6.324-13.747-10-22.361-10
	s-16.708,3.676-22.361,10h-15.139v-2.5C398.501,76.822,415.323,60,436.001,60z M293.501,290h15v25h-15V290z M323.501,315v-25h37.5
	c12.563,0,23.178-8.472,26.452-20h25.504c-3.652,25.407-25.554,45-51.956,45H323.501z M411.263,320.69
	c-0.172-0.169-0.352-0.331-0.54-0.483c-2.139-1.952-4.051-4.166-5.706-6.598c4.606-3.972,8.679-8.543,12.077-13.609h55.652
	c-3.484,17.096-18.635,30-36.745,30C426.687,330,417.966,326.573,411.263,320.69z M461.001,180c6.893,0,12.5,5.607,12.5,12.5V285
	h-48.87c1.77-4.991,2.98-10.245,3.528-15.693c17.265-3.351,30.343-18.577,30.343-36.807v-30c0-4.143-3.357-7.5-7.5-7.5
	s-7.5,3.357-7.5,7.5v30c0,9.987-6.543,18.471-15.567,21.402c-2.525-19.763-13.613-36.885-29.433-47.496V192.5
	c0-6.893,5.607-12.5,12.5-12.5H461.001z M436.001,165c-20.678,0-37.5-16.822-37.5-37.5V115h18.791c2.502,0,4.84-1.248,6.232-3.327
	c2.797-4.179,7.462-6.673,12.477-6.673s9.68,2.494,12.477,6.673c1.393,2.079,3.73,3.327,6.232,3.327h18.791v12.5
	C473.501,148.178,456.679,165,436.001,165z"/>
<path d="M91.001,150c28.948,0,52.5-23.552,52.5-52.5c0-12.809-4.617-24.556-12.267-33.679c-0.207-0.273-0.427-0.54-0.676-0.789
	c-4.784-5.465-10.625-9.916-17.222-13.031c4.762-5.312,7.665-12.323,7.665-20.001c0-16.542-13.458-30-30-30s-30,13.458-30,30
	c0,7.679,2.903,14.689,7.665,20.001C62.069,53.116,56.227,57.567,51.479,63c-0.284,0.281-0.504,0.547-0.711,0.82
	c-7.65,9.123-12.267,20.87-12.267,33.679C38.501,126.448,62.053,150,91.001,150z M91.001,135c-20.678,0-37.5-16.822-37.5-37.5
	c0-6.567,1.702-12.743,4.68-18.117c9.751,7.072,21.284,10.615,32.82,10.615s23.069-3.543,32.82-10.615
	c2.978,5.374,4.68,11.549,4.68,18.117C128.501,118.178,111.679,135,91.001,135z M67.979,67.931C74.339,62.968,82.327,60,91.001,60
	s16.662,2.968,23.022,7.931C100.185,77.352,81.817,77.352,67.979,67.931z M76.001,30c0-8.271,6.729-15,15-15s15,6.729,15,15
	s-6.729,15-15,15S76.001,38.271,76.001,30z"/>
<path d="M241.001,195h-75c-7.888,0-15.458,1.373-22.5,3.87v-6.37c0-15.163-12.337-27.5-27.5-27.5h-50
	c-15.163,0-27.5,12.337-27.5,27.5v67.259c-9.693,11.988-15,26.935-15,42.406V352.5c0,4.143,3.357,7.5,7.5,7.5h22.5v134.5
	c0,3.229,2.065,6.095,5.128,7.115l30,10c0.787,0.262,1.587,0.387,2.373,0.387c3.141,0,6.066-1.987,7.114-5.13
	c1.31-3.93-0.814-8.178-4.743-9.487l-24.872-8.29V360h45v134.5c0,3.229,2.065,6.095,5.128,7.115l30,10
	c0.787,0.262,1.587,0.387,2.373,0.387c3.141,0,6.066-1.987,7.114-5.13c1.31-3.93-0.814-8.178-4.743-9.487l-24.872-8.29V360h7.5
	c4.143,0,7.5-3.357,7.5-7.5v-26.37c7.042,2.498,14.612,3.87,22.5,3.87h75c4.143,0,7.5-3.357,7.5-7.5v-40c0-4.143-3.357-7.5-7.5-7.5
	h-75c-6.893,0-12.5-5.607-12.5-12.5s5.607-12.5,12.5-12.5h75c4.143,0,7.5-3.357,7.5-7.5v-40
	C248.501,198.357,245.144,195,241.001,195z M66.001,180h50c6.893,0,12.5,5.607,12.5,12.5v13.906
	c-15.82,10.611-26.908,27.732-29.433,47.496c-9.023-2.931-15.567-11.415-15.567-21.402v-30c0-4.143-3.357-7.5-7.5-7.5
	s-7.5,3.357-7.5,7.5v30c0,8.436,2.801,16.228,7.52,22.5h-22.52v-62.5C53.501,185.607,59.108,180,66.001,180z M128.501,345h-90
	v-42.835c0-11.687,3.905-22.982,11.039-32.165h49.388c2.247,20.228,13.46,37.786,29.573,48.594V345z M233.501,315h-15v-25h15V315z
	 M166.001,290h37.5v25h-37.5c-26.401,0-48.304-19.593-51.956-45h25.504C142.823,281.528,153.438,290,166.001,290z M139.549,255
	h-25.504c3.652-25.407,25.554-45,51.956-45h37.5v25h-37.5C153.438,235,142.823,243.472,139.549,255z M233.501,235h-15v-25h15V235z"
	/>
<g>
</g>
<g>
</g>
<g>
</g>
<g>
</g>
<g>
</g>
<g>
</g>
<g>
</g>
<g>
</g>
<g>
</g>
<g>
</g>
<g>
</g>
<g>
</g>
<g>
</g>
<g>
</g>
<g>
</g>
</svg>
