<?xml version="1.0" encoding="iso-8859-1"?>
<!-- Generator: Adobe Illustrator 19.0.0, SVG Export Plug-In . SVG Version: 6.00 Build 0)  -->
<svg version="1.1" id="Capa_1" xmlns="http://www.w3.org/2000/svg" xmlns:xlink="http://www.w3.org/1999/xlink" x="0px" y="0px"
	 viewBox="0 0 512 512" style="enable-background:new 0 0 512 512;" xml:space="preserve">
<path style="fill:#2DADE3;" d="M145.001,172.499h-30v119.999l50-30v-70C165.001,181.453,156.046,172.499,145.001,172.499z"/>
<path style="fill:#49C9FF;" d="M115.001,172.499h-20c-11.046,0-20,8.954-20,20v99.999h60v-99.999
	C135.001,181.453,126.046,172.499,115.001,172.499z"/>
<polygon style="fill:#FF4128;" points="165.001,262.498 135.001,262.498 105.001,307.498 135.001,352.498 165.001,352.498 "/>
<path style="fill:#FF6337;" d="M135.001,262.498h-60c-9.329,10.575-15,24.454-15,39.665v50.335h75V262.498z"/>
<path style="fill:#CF301B;" d="M426.005,7.5c-2.966,0-5.849,0.34-8.631,0.952l-25.369,134.047c0,0,74-39.999,74-94.999
	C466.005,25.408,448.096,7.5,426.005,7.5z"/>
<path style="fill:#FF4128;" d="M436.005,47.5c0-19.114-7.974-35.087-18.631-39.048c-10.685,2.354-19.771,8.965-25.369,17.98
	c-7.056-11.362-19.641-18.933-34-18.933c-22.091,0-40,17.908-40,40c0.014,54.993,74,94.999,74,94.999S436.005,102.5,436.005,47.5z"
	/>
<path style="fill:#2DADE3;" d="M392.006,262.498v75c24.853,0,45-20.147,45-45L392.006,262.498z"/>
<path style="fill:#49C9FF;" d="M408.006,292.498l-15-30l-45,30c0,24.853,20.147,45,45,45
	C401.29,337.498,408.006,317.351,408.006,292.498z"/>
<path style="fill:#9DB55F;" d="M417.006,172.499h-30l20,119.999h30v-99.999C437.005,181.453,428.051,172.499,417.006,172.499z"/>
<path style="fill:#B9D171;" d="M387.006,172.499h-20c-11.046,0-20,8.954-20,20v99.999h60v-99.999
	C407.006,181.453,398.051,172.499,387.006,172.499z"/>
<path style="fill:#CF301B;" d="M153.995,7.5c-2.966,0-5.849,0.34-8.631,0.952l-25.369,134.047c0,0,74-39.999,74-94.999
	C193.994,25.408,176.086,7.5,153.995,7.5z"/>
<path style="fill:#FF4128;" d="M163.995,47.5c0-19.114-7.974-35.087-18.631-39.048c-10.685,2.354-19.771,8.965-25.369,17.98
	C112.939,15.07,100.353,7.5,85.995,7.5c-22.091,0-40,17.908-40,40c0.014,54.993,74,94.999,74,94.999S163.995,102.5,163.995,47.5z"/>
<path d="M417.006,164.999h-17.5v-18.155c15.976-9.492,74-47.539,74-99.344c0-26.191-21.309-47.5-47.5-47.5
	c-13.032,0-25.165,5.216-34,14.313C383.171,5.216,371.038,0,358.006,0c-26.191,0-47.5,21.309-47.5,47.502
	c0.013,51.798,58.027,89.848,74,99.342v18.155h-17.5c-15.163,0-27.5,12.337-27.5,27.5v31.21c-8.729-3.096-15-11.433-15-21.21v-75
	c0-4.143-3.357-7.5-7.5-7.5s-7.5,3.357-7.5,7.5v75c0,18.11,12.904,33.261,30,36.745v53.255c0,14.269,5.73,27.22,15,36.692v159.902
	l-24.872,8.29c-3.93,1.31-6.053,5.558-4.743,9.487c1.048,3.143,3.974,5.13,7.114,5.13c0.786,0,1.586-0.125,2.373-0.387l30-10
	c3.063-1.021,5.128-3.887,5.128-7.115V339.922c6.824,3.251,14.452,5.076,22.5,5.076c8.048,0,15.676-1.825,22.5-5.076v149.171
	l-24.872,8.29c-3.93,1.31-6.053,5.558-4.743,9.487c1.048,3.143,3.974,5.13,7.114,5.13c0.786,0,1.586-0.125,2.373-0.387l30-10
	c3.063-1.021,5.128-3.887,5.128-7.115V329.19c9.27-9.472,15-22.423,15-36.692v-99.999
	C444.505,177.336,432.168,164.999,417.006,164.999z M325.506,47.5c0-17.921,14.579-32.5,32.5-32.5
	c11.316,0,21.645,5.753,27.629,15.389c1.368,2.204,3.777,3.544,6.371,3.544c2.594,0,5.003-1.34,6.371-3.544
	C404.361,20.753,414.689,15,426.005,15c17.921,0,32.5,14.579,32.5,32.5c0,43.245-52.225,77.715-66.504,86.327
	C377.717,125.228,325.516,90.828,325.506,47.5z M354.506,192.499c0-6.893,5.607-12.5,12.5-12.5h17.5v37.5
	c0,12.406,10.094,22.5,22.5,22.5c4.143,0,7.5-3.357,7.5-7.5s-3.357-7.5-7.5-7.5c-4.136,0-7.5-3.364-7.5-7.5v-37.5h17.5
	c6.893,0,12.5,5.607,12.5,12.5v92.499h-75V192.499z M355.26,299.998h73.491c-3.484,17.096-18.635,30-36.745,30
	C373.896,329.998,358.744,317.094,355.26,299.998z"/>
<path d="M221.001,89.999h-10c-4.142,0-7.5,3.357-7.5,7.5c0,4.143,3.358,7.5,7.5,7.5h10c4.142,0,7.5-3.357,7.5-7.5
	C228.501,93.356,225.143,89.999,221.001,89.999z"/>
<path d="M261,89.999h-10c-4.142,0-7.5,3.357-7.5,7.5c0,4.143,3.358,7.5,7.5,7.5h10c4.143,0,7.5-3.357,7.5-7.5
	C268.5,93.356,265.142,89.999,261,89.999z"/>
<path d="M301,89.999h-10c-4.143,0-7.5,3.357-7.5,7.5c0,4.143,3.357,7.5,7.5,7.5h10c4.143,0,7.5-3.357,7.5-7.5
	C308.5,93.356,305.142,89.999,301,89.999z"/>
<path d="M195.001,119.999c-4.142,0-7.5,3.357-7.5,7.5v75c0,9.777-6.271,18.114-15,21.21v-31.21c0-15.163-12.336-27.5-27.5-27.5
	h-17.5V146.84c15.985-9.499,73.994-47.542,73.994-99.34c0-26.191-21.309-47.5-47.5-47.5c-13.031,0-25.165,5.216-34,14.313
	C111.159,5.216,99.026,0,85.994,0c-26.191,0-47.5,21.309-47.5,47.502c0.013,51.805,58.042,89.858,74.006,99.346v18.151H95
	c-15.164,0-27.5,12.337-27.5,27.5v67.259c-9.693,11.989-15,26.935-15,42.406v50.335c0,4.143,3.358,7.5,7.5,7.5h22.5v134.499
	c0,3.229,2.066,6.095,5.128,7.115l30,10c0.787,0.262,1.586,0.387,2.373,0.387c3.14,0,6.066-1.987,7.114-5.13
	c1.31-3.93-0.814-8.178-4.744-9.487l-24.872-8.29V359.998h45v134.499c0,3.229,2.066,6.095,5.128,7.115l30,10
	c0.787,0.262,1.586,0.387,2.373,0.387c3.14,0,6.066-1.987,7.114-5.13c1.31-3.93-0.814-8.178-4.744-9.487l-24.872-8.29V359.998h7.5
	c4.142,0,7.5-3.357,7.5-7.5V239.244c17.096-3.484,30-18.635,30-36.745v-75C202.501,123.356,199.143,119.999,195.001,119.999z
	 M53.495,47.5c0-17.921,14.58-32.5,32.5-32.5c11.316,0,21.645,5.753,27.628,15.389c1.368,2.204,3.778,3.544,6.372,3.544
	c2.593,0,5.003-1.34,6.372-3.543C132.35,20.753,142.678,15,153.994,15c17.92,0,32.5,14.579,32.5,32.5
	c0,43.245-52.225,77.715-66.504,86.327C105.705,125.228,53.506,90.828,53.495,47.5z M95.001,179.999h17.5v37.5
	c0,4.136-3.364,7.5-7.5,7.5c-4.142,0-7.5,3.357-7.5,7.5s3.358,7.5,7.5,7.5c12.407,0,22.5-10.094,22.5-22.5v-37.5h17.5
	c6.893,0,12.5,5.607,12.5,12.5v62.5h-75v-62.5C82.502,185.606,88.108,179.999,95.001,179.999z M67.502,344.998v-42.835
	c0-11.687,3.906-22.982,11.039-32.165h78.961v75H67.502z"/>
<g>
</g>
<g>
</g>
<g>
</g>
<g>
</g>
<g>
</g>
<g>
</g>
<g>
</g>
<g>
</g>
<g>
</g>
<g>
</g>
<g>
</g>
<g>
</g>
<g>
</g>
<g>
</g>
<g>
</g>
</svg>
