<?xml version="1.0" encoding="iso-8859-1"?>
<!-- Generator: Adobe Illustrator 19.0.0, SVG Export Plug-In . SVG Version: 6.00 Build 0)  -->
<svg version="1.1" id="Capa_1" xmlns="http://www.w3.org/2000/svg" xmlns:xlink="http://www.w3.org/1999/xlink" x="0px" y="0px"
	 viewBox="0 0 512.002 512.002" style="enable-background:new 0 0 512.002 512.002;" xml:space="preserve">
<polygon style="fill:#85453D;" points="471.001,7.5 261.001,7.5 275.376,125 261.001,242.5 471.001,242.5 456.626,125 "/>
<g>
	<polygon style="fill:#A45E43;" points="321.001,125 291.001,212.5 261.001,242.5 261.001,7.5 291.001,37.5 	"/>
	<polygon style="fill:#A45E43;" points="471.001,7.5 471.001,242.5 441.001,212.5 411.001,125 441.001,37.5 	"/>
</g>
<polygon style="fill:#9DB55F;" points="441.001,167.5 441.001,212.5 411.001,212.5 381.001,137.5 "/>
<polygon style="fill:#B9D171;" points="411.001,137.5 411.001,212.5 291.001,212.5 291.001,167.5 "/>
<polygon style="fill:#A8E5FF;" points="441.001,37.5 441.001,167.5 411.001,167.5 381.001,102.5 411.001,37.5 "/>
<rect x="291" y="37.5" style="fill:#DBF4FF;" width="120" height="130"/>
<path style="fill:#2DADE3;" d="M161.001,172.5h-30v120h50v-100C181.001,181.454,172.047,172.5,161.001,172.5z"/>
<path style="fill:#49C9FF;" d="M131.001,172.5h-20c-11.046,0-20,8.954-20,20v100h60v-100
	C151.001,181.454,142.047,172.5,131.001,172.5z"/>
<path style="fill:#FF4128;" d="M181.001,262.5h-30l15,90h30v-50.335C196.001,286.954,190.33,273.075,181.001,262.5z"/>
<path style="fill:#FF6337;" d="M151.001,262.5h-60c-9.329,10.575-15,24.454-15,39.665V352.5h90v-50.335
	C166.001,286.954,160.33,273.075,151.001,262.5z"/>
<circle style="fill:#60312C;" cx="136" cy="30" r="22.5"/>
<path style="fill:#A45E43;" d="M170.256,68.335c0.01-0.01-34.255-0.005-34.255-0.005v74.17c24.85,0,45-20.15,45-45
	C181.001,86.38,176.956,76.185,170.256,68.335z"/>
<path style="fill:#C27749;" d="M149.891,80.51l-48.145-12.175c-6.7,7.85-10.745,18.045-10.745,29.165c0,24.85,20.15,45,45,45
	c8.28,0,15-20.15,15-45C151.001,91.49,150.611,85.75,149.891,80.51z"/>
<path style="fill:#40211D;" d="M136.001,52.5l13.89,28.01c7.45-2.23,14.475-6.295,20.365-12.175
	C162.006,58.645,149.721,52.5,136.001,52.5z"/>
<path style="fill:#60312C;" d="M136.001,52.5c-13.72,0-26.005,6.145-34.255,15.835c13.04,13.04,31.645,17.105,48.145,12.175
	C147.661,64.08,142.281,52.5,136.001,52.5z"/>
<rect x="396" y="272.5" style="fill:#DBF4FF;" width="75" height="30"/>
<path style="fill:#9DB55F;" d="M396.001,67.5c-8.284,0-15,6.716-15,15v45c0,8.284,6.716,15,15,15s15-6.716,15-15v-45
	C411.001,74.216,404.285,67.5,396.001,67.5z"/>
<circle style="fill:#FFCB63;" cx="336" cy="82.5" r="15"/>
<path d="M478.501,7.502c0-0.248-0.013-0.496-0.037-0.744c-0.01-0.107-0.031-0.211-0.046-0.317c-0.019-0.136-0.036-0.273-0.062-0.408
	c-0.024-0.124-0.058-0.243-0.089-0.364c-0.029-0.116-0.055-0.233-0.089-0.347c-0.036-0.12-0.081-0.235-0.123-0.352
	c-0.041-0.114-0.078-0.229-0.125-0.342c-0.045-0.109-0.099-0.214-0.149-0.321c-0.054-0.115-0.105-0.231-0.165-0.344
	c-0.055-0.103-0.118-0.202-0.178-0.302c-0.065-0.109-0.127-0.22-0.199-0.327c-0.074-0.111-0.157-0.215-0.237-0.322
	c-0.067-0.089-0.129-0.181-0.2-0.268c-0.148-0.181-0.305-0.353-0.469-0.519c-0.228-0.225-0.399-0.38-0.578-0.527
	c-0.086-0.071-0.177-0.132-0.266-0.199c-0.107-0.081-0.212-0.164-0.323-0.238c-0.104-0.07-0.212-0.13-0.318-0.194
	c-0.104-0.062-0.206-0.127-0.313-0.185c-0.106-0.057-0.215-0.104-0.323-0.155c-0.114-0.054-0.227-0.111-0.344-0.16
	c-0.103-0.042-0.208-0.076-0.312-0.114c-0.127-0.046-0.252-0.094-0.381-0.134c-0.101-0.03-0.204-0.052-0.307-0.079
	c-0.135-0.035-0.268-0.072-0.406-0.099c-0.112-0.022-0.224-0.034-0.336-0.051c-0.13-0.02-0.258-0.043-0.39-0.056
	c-0.185-0.018-0.371-0.024-0.557-0.028C471.119,0.008,471.061,0,471.001,0h-210c-0.06,0-0.118,0.008-0.178,0.009
	c-0.186,0.004-0.372,0.01-0.557,0.028c-0.132,0.013-0.26,0.037-0.39,0.056c-0.112,0.017-0.224,0.029-0.336,0.051
	c-0.138,0.027-0.271,0.064-0.406,0.099c-0.102,0.026-0.205,0.048-0.306,0.079c-0.13,0.04-0.255,0.088-0.381,0.134
	c-0.104,0.038-0.209,0.071-0.312,0.114c-0.117,0.049-0.23,0.105-0.344,0.16c-0.108,0.051-0.217,0.099-0.323,0.155
	c-0.107,0.058-0.21,0.123-0.314,0.186c-0.106,0.063-0.213,0.123-0.317,0.192c-0.112,0.075-0.218,0.158-0.325,0.239
	c-0.088,0.066-0.179,0.127-0.265,0.198c-0.179,0.147-0.35,0.302-0.514,0.465c-0.227,0.229-0.384,0.401-0.532,0.582
	c-0.071,0.086-0.133,0.178-0.2,0.268c-0.08,0.106-0.163,0.211-0.237,0.322c-0.071,0.107-0.133,0.218-0.199,0.327
	c-0.06,0.1-0.123,0.199-0.178,0.302c-0.06,0.112-0.111,0.228-0.165,0.342c-0.051,0.107-0.104,0.213-0.15,0.323
	c-0.046,0.111-0.083,0.226-0.124,0.339c-0.042,0.117-0.087,0.233-0.124,0.354c-0.035,0.114-0.06,0.231-0.089,0.347
	c-0.03,0.121-0.064,0.241-0.089,0.364c-0.027,0.135-0.043,0.272-0.062,0.408c-0.015,0.106-0.035,0.21-0.046,0.317
	c-0.024,0.248-0.037,0.496-0.037,0.744v234.995c0,0.248,0.013,0.496,0.037,0.744c0.01,0.107,0.031,0.211,0.046,0.317
	c0.019,0.136,0.036,0.273,0.062,0.408c0.024,0.124,0.058,0.243,0.089,0.364c0.029,0.116,0.055,0.233,0.089,0.347
	c0.036,0.12,0.081,0.236,0.123,0.353c0.041,0.114,0.078,0.228,0.124,0.34c0.046,0.11,0.099,0.215,0.149,0.322
	c0.054,0.115,0.105,0.23,0.165,0.343c0.055,0.103,0.118,0.202,0.178,0.302c0.065,0.109,0.127,0.22,0.199,0.327
	c0.074,0.111,0.157,0.215,0.237,0.322c0.067,0.089,0.129,0.181,0.2,0.268c0.148,0.181,0.305,0.353,0.469,0.519
	c0.228,0.225,0.399,0.38,0.578,0.527c0.087,0.071,0.178,0.133,0.267,0.199c0.107,0.08,0.212,0.163,0.323,0.237
	c0.105,0.071,0.215,0.131,0.323,0.196c0.102,0.061,0.202,0.125,0.307,0.182c0.11,0.059,0.223,0.108,0.336,0.162
	c0.109,0.052,0.217,0.106,0.329,0.152c0.11,0.045,0.222,0.082,0.333,0.122c0.12,0.043,0.238,0.089,0.36,0.126
	c0.111,0.033,0.223,0.058,0.335,0.086c0.125,0.032,0.249,0.067,0.377,0.092c0.129,0.025,0.26,0.041,0.39,0.06
	c0.112,0.016,0.221,0.037,0.334,0.048c0.246,0.024,0.493,0.037,0.74,0.037h210c0.247,0,0.494-0.013,0.74-0.037
	c0.113-0.011,0.222-0.032,0.334-0.048c0.131-0.019,0.262-0.034,0.391-0.06c0.128-0.025,0.251-0.061,0.376-0.092
	c0.112-0.028,0.224-0.053,0.335-0.086c0.122-0.037,0.24-0.083,0.36-0.126c0.111-0.04,0.223-0.077,0.333-0.122
	c0.112-0.046,0.22-0.101,0.329-0.152c0.112-0.053,0.225-0.103,0.336-0.162c0.105-0.056,0.204-0.12,0.306-0.181
	c0.108-0.065,0.218-0.126,0.324-0.197c0.111-0.074,0.215-0.157,0.321-0.236c0.089-0.067,0.181-0.129,0.268-0.201
	c0.179-0.147,0.35-0.302,0.514-0.465c0.227-0.229,0.384-0.401,0.532-0.582c0.071-0.086,0.133-0.178,0.2-0.268
	c0.08-0.106,0.163-0.211,0.237-0.322c0.071-0.107,0.133-0.218,0.199-0.327c0.06-0.1,0.123-0.199,0.178-0.302
	c0.06-0.113,0.112-0.229,0.166-0.345c0.05-0.106,0.103-0.211,0.149-0.32c0.047-0.113,0.084-0.228,0.125-0.343
	c0.042-0.116,0.086-0.231,0.123-0.351c0.035-0.114,0.06-0.231,0.089-0.347c0.03-0.121,0.064-0.241,0.089-0.364
	c0.027-0.135,0.043-0.272,0.062-0.408c0.015-0.106,0.035-0.21,0.046-0.317c0.024-0.248,0.037-0.496,0.037-0.744V7.502H478.501z
	 M298.501,205v-30h135v30H298.501z M396.001,135c-4.136,0-7.5-3.364-7.5-7.5v-45c0-4.136,3.364-7.5,7.5-7.5s7.5,3.364,7.5,7.5v45
	C403.501,131.636,400.137,135,396.001,135z M437.894,30H294.108l-15-15h173.786L437.894,30z M283.501,40.607v70.394
	c0,4.143,3.358,7.5,7.5,7.5s7.5-3.357,7.5-7.5V45h135v115h-30v-11.29c8.729-3.096,15-11.433,15-21.21v-45
	c0-12.406-10.093-22.5-22.5-22.5s-22.5,10.094-22.5,22.5v45c0,9.777,6.271,18.114,15,21.21V160h-90v-18.999
	c0-4.143-3.358-7.5-7.5-7.5s-7.5,3.357-7.5,7.5v68.392l-15,15V25.607L283.501,40.607z M294.108,220h143.786l15,15H279.108
	L294.108,220z M448.501,209.393V40.607l15-15v198.786L448.501,209.393z"/>
<path d="M187.563,185.386C184.419,173.661,173.704,165,161.001,165h-50c-12.703,0-23.418,8.661-26.562,20.386
	c-28.625,3.268-50.938,27.628-50.938,57.114c0,23.265,14.243,44.221,35.336,53.06c-0.215,2.187-0.336,4.39-0.336,6.605V352.5
	c0,4.143,3.358,7.5,7.5,7.5h22.5v134.5c0,3.229,2.066,6.095,5.128,7.115l30,10c0.787,0.262,1.586,0.387,2.373,0.387
	c3.14,0,6.066-1.987,7.114-5.13c1.31-3.93-0.814-8.178-4.744-9.487l-24.872-8.29V360h45v134.5c0,3.229,2.066,6.095,5.128,7.115
	l30,10c0.787,0.262,1.586,0.387,2.373,0.387c3.14,0,6.066-1.987,7.114-5.13c1.31-3.93-0.814-8.178-4.744-9.487l-24.872-8.29V360
	h22.5c4.142,0,7.5-3.357,7.5-7.5v-50.335c0-2.216-0.121-4.418-0.336-6.605c21.093-8.839,35.336-29.794,35.336-53.06
	C238.501,213.014,216.188,188.654,187.563,185.386z M111.001,180h50c6.893,0,12.5,5.607,12.5,12.5V255h-75v-62.5
	C98.501,185.607,104.108,180,111.001,180z M48.501,242.5c0-20.875,15.132-38.27,35-41.824v59.083
	c-5.047,6.242-8.892,13.29-11.43,20.791C57.894,273.462,48.501,258.744,48.501,242.5z M188.501,345h-105v-42.835
	c0-11.687,3.905-22.982,11.039-32.165h82.922c7.134,9.183,11.039,20.478,11.039,32.165V345z M199.931,280.55
	c-2.539-7.501-6.384-14.549-11.43-20.791v-59.083c19.868,3.554,35,20.949,35,41.824C223.501,258.744,214.108,273.462,199.931,280.55
	z"/>
<path d="M136.001,150c28.949,0,52.5-23.552,52.5-52.5c0-12.814-4.621-24.565-12.275-33.689c-0.205-0.269-0.422-0.532-0.668-0.777
	c-4.778-5.462-10.622-9.916-17.222-13.032c4.762-5.312,7.665-12.323,7.665-20.001c0-16.542-13.458-30-30-30s-30,13.458-30,30
	c0,7.678,2.903,14.689,7.665,20.001c-6.6,3.116-12.444,7.57-17.194,13.006c-0.274,0.271-0.491,0.534-0.696,0.803
	C88.122,72.935,83.501,84.686,83.501,97.5C83.501,126.448,107.052,150,136.001,150z M136.001,135c-20.678,0-37.5-16.822-37.5-37.5
	c0-6.567,1.702-12.742,4.68-18.116c9.75,7.072,21.284,10.615,32.82,10.615s23.07-3.543,32.82-10.615
	c2.978,5.374,4.68,11.549,4.68,18.116C173.501,118.178,156.679,135,136.001,135z M112.979,67.931
	c6.36-4.963,14.349-7.931,23.022-7.931s16.662,2.968,23.022,7.931C145.184,77.351,126.818,77.351,112.979,67.931z M121.001,30
	c0-8.271,6.729-15,15-15s15,6.729,15,15s-6.729,15-15,15S121.001,38.271,121.001,30z"/>
<path d="M471.001,265h-75c-4.142,0-7.5,3.357-7.5,7.5v30c0,4.143,3.358,7.5,7.5,7.5h75c4.142,0,7.5-3.357,7.5-7.5v-30
	C478.501,268.357,475.143,265,471.001,265z M463.501,295h-60v-15h60V295z"/>
<path d="M336.001,105c12.407,0,22.5-10.094,22.5-22.5S348.408,60,336.001,60s-22.5,10.094-22.5,22.5S323.594,105,336.001,105z
	 M336.001,75c4.136,0,7.5,3.364,7.5,7.5s-3.364,7.5-7.5,7.5s-7.5-3.364-7.5-7.5S331.865,75,336.001,75z"/>
<g>
</g>
<g>
</g>
<g>
</g>
<g>
</g>
<g>
</g>
<g>
</g>
<g>
</g>
<g>
</g>
<g>
</g>
<g>
</g>
<g>
</g>
<g>
</g>
<g>
</g>
<g>
</g>
<g>
</g>
</svg>
