<?xml version="1.0" encoding="iso-8859-1"?>
<!-- Generator: Adobe Illustrator 19.0.0, SVG Export Plug-In . SVG Version: 6.00 Build 0)  -->
<svg version="1.1" id="Capa_1" xmlns="http://www.w3.org/2000/svg" xmlns:xlink="http://www.w3.org/1999/xlink" x="0px" y="0px"
	 viewBox="0 0 512 512" style="enable-background:new 0 0 512 512;" xml:space="preserve">
<path style="fill:#999999;" d="M474.5,257.731l-60,127.134l60,119.634h30v-265C498.867,250.33,487.551,257.731,474.5,257.731z"/>
<path style="fill:#B3B3B3;" d="M444.5,239.5c-5.633,10.83-16.949,18.231-30,18.231s-24.367-7.401-30-18.231
	c-5.633,10.83-16.949,18.231-30,18.231s-24.367-7.401-30-18.231c-5.633,10.83-16.949,18.231-30,18.231s-13.5,0-13.5,0h-50
	c0,0-0.449,0-13.5,0s-24.367-7.401-30-18.231c-5.633,10.83-16.949,18.231-30,18.231s-24.367-7.401-30-18.231
	c-5.633,10.83-16.949,18.231-30,18.231s-24.367-7.401-30-18.231c-5.633,10.83-16.949,18.231-30,18.231s-24.367-7.401-30-18.231v265
	h467V257.731C461.449,257.731,450.133,250.33,444.5,239.5z"/>
<polygon style="fill:#A45E43;" points="364.31,466.5 376,504.5 346,504.5 307.23,436.5 "/>
<g>
	<polygon style="fill:#C27749;" points="337.23,466.5 346,504.5 136.001,504.5 147.691,466.5 242.461,446.5 	"/>
	<polygon style="fill:#C27749;" points="352.62,428.5 364.31,466.5 337.23,466.5 298.46,398.5 	"/>
</g>
<polygon style="fill:#E18F4E;" points="328.46,428.5 337.23,466.5 147.691,466.5 159.381,428.5 256,408.5 "/>
<polygon style="fill:#A45E43;" points="352.62,428.5 328.46,428.5 289.69,360.5 340.921,390.5 "/>
<g>
	<polygon style="fill:#C27749;" points="319.69,390.5 328.46,428.5 159.381,428.5 171.081,390.5 245.385,370.5 	"/>
	<polygon style="fill:#C27749;" points="329.23,352.5 340.921,390.5 319.69,390.5 280.921,322.5 	"/>
</g>
<polygon style="fill:#E18F4E;" points="310.921,352.5 319.69,390.5 171.081,390.5 182.771,352.5 246.846,332.5 "/>
<polygon style="fill:#A45E43;" points="317.54,314.5 329.23,352.5 310.921,352.5 286.449,333.5 302.15,314.5 "/>
<polygon style="fill:#C27749;" points="302.15,314.5 310.921,352.5 182.771,352.5 194.461,314.5 "/>
<polygon style="fill:#FFF0D3;" points="281,284.5 256,284.5 241.001,245.133 256,209.5 281,209.5 "/>
<rect x="231.001" y="209.5" style="fill:#FFFFFF;" width="25" height="75"/>
<path style="fill:#FFB4A9;" d="M256,129.5l-15,25l15,25c13.807,0,25-11.193,25-25S269.807,129.5,256,129.5z"/>
<path style="fill:#FFD9D4;" d="M231.001,154.5c0,13.807,11.193,25,25,25v-50C242.193,129.5,231.001,140.693,231.001,154.5z"/>
<path style="fill:#B3B3B3;" d="M301,37.5h-2.571c-6.179-17.476-22.838-30-42.429-30l15,90h30c16.569,0,30-13.432,30-30
	C331,50.931,317.569,37.5,301,37.5z"/>
<path style="fill:#CCCCCC;" d="M256,7.5c-19.592,0-36.251,12.524-42.429,30h-2.571c-16.569,0-30,13.431-30,30
	c0,16.568,13.431,30,30,30h60c0,0,0-20.147,0-45S264.284,7.5,256,7.5z"/>
<g>
	<path style="fill:#FFFFFF;" d="M440.25,474h-44.554c-4.143,0-7.5-3.357-7.5-7.5s3.357-7.5,7.5-7.5h44.554
		c4.143,0,7.5,3.357,7.5,7.5S444.393,474,440.25,474z"/>
	<path style="fill:#FFFFFF;" d="M71.751,421H7.501v15h64.25c4.143,0,7.5-3.357,7.5-7.5S75.894,421,71.751,421z"/>
	<path style="fill:#FFFFFF;" d="M440.25,345c-4.143,0-7.5,3.357-7.5,7.5s3.357,7.5,7.5,7.5h64.25v-15H440.25z"/>
	<path style="fill:#FFFFFF;" d="M473.438,390H410.25c-4.143,0-7.5-3.357-7.5-7.5s3.357-7.5,7.5-7.5h63.188
		c4.143,0,7.5,3.357,7.5,7.5S477.58,390,473.438,390z"/>
	<path style="fill:#FFFFFF;" d="M410.25,360h-30c-4.143,0-7.5-3.357-7.5-7.5s3.357-7.5,7.5-7.5h30c4.143,0,7.5,3.357,7.5,7.5
		S414.393,360,410.25,360z"/>
	<path style="fill:#FFFFFF;" d="M151.383,361H37.501c-4.143,0-7.5-3.357-7.5-7.5s3.357-7.5,7.5-7.5h113.882
		c4.143,0,7.5,3.357,7.5,7.5S155.525,361,151.383,361z"/>
	<path style="fill:#FFFFFF;" d="M141.997,391H95.116c-4.143,0-7.5-3.357-7.5-7.5s3.357-7.5,7.5-7.5h46.882
		c4.143,0,7.5,3.357,7.5,7.5S146.141,391,141.997,391z"/>
</g>
<path d="M371.482,464.316c-0.009-0.029-0.018-0.059-0.027-0.087l-11.666-37.913c-0.009-0.029-0.018-0.059-0.027-0.087
	l-11.666-37.913c-0.009-0.029-0.018-0.059-0.027-0.087l-11.666-37.913c-0.009-0.029-0.018-0.059-0.027-0.087l-11.672-37.935
	c-0.968-3.146-3.875-5.294-7.168-5.294H288.5v-97.5c0-4.143-3.357-7.5-7.5-7.5h-50c-4.143,0-7.5,3.357-7.5,7.5V307h-29.039
	c-3.293,0-6.2,2.147-7.168,5.294l-11.676,37.948c-0.006,0.02-0.012,0.039-0.018,0.059l-11.673,37.938
	c-0.007,0.021-0.013,0.043-0.02,0.065l-11.671,37.931c-0.008,0.024-0.015,0.048-0.022,0.073l-11.669,37.924
	c-0.009,0.026-0.017,0.053-0.025,0.08l-11.687,37.981c-0.7,2.275-0.279,4.747,1.135,6.662c1.414,1.915,3.653,3.045,6.033,3.045h240
	c2.38,0,4.619-1.13,6.033-3.044c1.414-1.915,1.835-4.387,1.135-6.662L371.482,464.316z M164.924,436h76.077
	c4.143,0,7.5-3.357,7.5-7.5s-3.357-7.5-7.5-7.5H169.54l7.077-23h158.768l7.077,23H271c-4.143,0-7.5,3.357-7.5,7.5s3.357,7.5,7.5,7.5
	h76.076l7.077,23H157.846L164.924,436z M188.309,360h35.192v9.5c0,4.143,3.357,7.5,7.5,7.5s7.5-3.357,7.5-7.5V360h35v9.5
	c0,4.143,3.357,7.5,7.5,7.5s7.5-3.357,7.5-7.5V360h35.191l7.077,23H181.232L188.309,360z M238.501,345v-23h35v23H238.501z
	 M311.999,322l7.077,23H288.5v-23H311.999z M273.5,217v60h-35v-60H273.5z M238.501,292h35v15h-35V292z M200.001,322h23.5v23h-30.577
	L200.001,322z M146.155,497l7.077-23h205.538l7.077,23H146.155z"/>
<path d="M506.281,232.215c-3.35-0.82-6.84,0.758-8.436,3.824c-4.553,8.754-13.498,14.192-23.346,14.192s-18.793-5.438-23.346-14.192
	c-1.291-2.481-3.856-4.039-6.654-4.039s-5.363,1.558-6.654,4.039c-4.553,8.754-13.498,14.192-23.346,14.192
	s-18.793-5.438-23.346-14.192c-1.291-2.481-3.856-4.039-6.654-4.039s-5.363,1.558-6.654,4.039
	c-4.553,8.754-13.498,14.192-23.346,14.192s-18.793-5.438-23.346-14.192c-1.291-2.481-3.856-4.039-6.654-4.039
	s-5.363,1.558-6.654,4.039c-2.189,4.211-5.48,7.76-9.518,10.265c-3.52,2.184-4.603,6.808-2.419,10.327
	c2.185,3.521,6.806,4.602,10.327,2.419c3.042-1.888,5.814-4.153,8.254-6.731c7.685,8.146,18.45,12.913,30.01,12.913
	c11.555,0,22.316-4.764,30-12.903c7.684,8.14,18.445,12.903,30,12.903s22.316-4.764,30-12.903c7.684,8.14,18.445,12.903,30,12.903
	c8.164,0,15.934-2.379,22.5-6.646V497h-91c-4.143,0-7.5,3.357-7.5,7.5s3.357,7.5,7.5,7.5h98.5c4.143,0,7.5-3.357,7.5-7.5v-265
	C512,236.044,509.639,233.035,506.281,232.215z"/>
<path d="M157.501,265.231c11.558,0,22.321-4.766,30.006-12.909c2.851,3.014,6.155,5.594,9.825,7.652
	c3.614,2.028,8.185,0.74,10.21-2.872c2.026-3.613,0.74-8.185-2.872-10.21c-4.499-2.523-8.135-6.276-10.515-10.854
	c-1.291-2.481-3.856-4.039-6.654-4.039s-5.363,1.558-6.654,4.039c-4.553,8.754-13.498,14.192-23.346,14.192
	s-18.793-5.438-23.346-14.192c-1.291-2.481-3.856-4.039-6.654-4.039s-5.363,1.558-6.654,4.039
	c-4.553,8.754-13.498,14.192-23.346,14.192s-18.793-5.438-23.346-14.192c-1.291-2.48-3.856-4.038-6.654-4.038
	s-5.363,1.558-6.654,4.039c-4.553,8.754-13.498,14.192-23.346,14.192s-18.793-5.438-23.346-14.192
	c-1.595-3.066-5.081-4.646-8.436-3.824c-3.357,0.82-5.718,3.829-5.718,7.285v265c0,4.143,3.357,7.5,7.5,7.5h98.5
	c4.143,0,7.5-3.357,7.5-7.5s-3.357-7.5-7.5-7.5h-91V258.585c6.566,4.268,14.336,6.646,22.5,6.646c11.555,0,22.316-4.764,30-12.903
	c7.684,8.14,18.445,12.903,30,12.903s22.316-4.764,30-12.903C135.185,260.468,145.946,265.231,157.501,265.231z"/>
<path d="M223.501,154.5c0,17.921,14.579,32.5,32.5,32.5c17.921,0,32.5-14.579,32.5-32.5S273.921,122,256,122
	S223.501,136.579,223.501,154.5z M273.5,154.5c0,9.649-7.851,17.5-17.5,17.5c-9.649,0-17.5-7.851-17.5-17.5S246.352,137,256,137
	S273.5,144.851,273.5,154.5z"/>
<path d="M211.001,105h90c20.678,0,37.5-16.822,37.5-37.5c0-19.846-15.496-36.141-35.024-37.419C294.882,11.892,276.419,0,256,0
	s-38.881,11.892-47.476,30.081c-19.528,1.278-35.024,17.573-35.024,37.419C173.501,88.178,190.323,105,211.001,105z M211.001,45
	h2.57c3.179,0,6.012-2.003,7.071-5c5.287-14.953,19.496-25,35.358-25s30.071,10.047,35.358,25c1.06,2.997,3.893,5,7.071,5H301
	c12.406,0,22.5,10.094,22.5,22.5S313.406,90,301,90h-90c-12.406,0-22.5-10.094-22.5-22.5S198.594,45,211.001,45z"/>
<g>
</g>
<g>
</g>
<g>
</g>
<g>
</g>
<g>
</g>
<g>
</g>
<g>
</g>
<g>
</g>
<g>
</g>
<g>
</g>
<g>
</g>
<g>
</g>
<g>
</g>
<g>
</g>
<g>
</g>
</svg>
