<?xml version="1.0" encoding="iso-8859-1"?>
<!-- Generator: Adobe Illustrator 19.0.0, SVG Export Plug-In . SVG Version: 6.00 Build 0)  -->
<svg version="1.1" id="Capa_1" xmlns="http://www.w3.org/2000/svg" xmlns:xlink="http://www.w3.org/1999/xlink" x="0px" y="0px"
	 viewBox="0 0 512.002 512.002" style="enable-background:new 0 0 512.002 512.002;" xml:space="preserve">
<path style="fill:#2DADE3;" d="M208.501,172.5h-30v120h50v-100C228.501,181.454,219.547,172.5,208.501,172.5z"/>
<path style="fill:#49C9FF;" d="M178.501,172.5h-20c-11.046,0-20,8.954-20,20v100h60v-100
	C198.501,181.454,189.547,172.5,178.501,172.5z"/>
<path style="fill:#FF4128;" d="M228.501,262.5h-30l15,90h30v-50.335C243.501,286.954,237.83,273.075,228.501,262.5z"/>
<path style="fill:#FF6337;" d="M198.501,262.5h-60c-9.329,10.575-15,24.454-15,39.665V352.5h90v-50.335
	C213.501,286.954,207.83,273.075,198.501,262.5z"/>
<circle style="fill:#60312C;" cx="183.5" cy="30" r="22.5"/>
<path style="fill:#A45E43;" d="M217.756,68.335c0.01-0.01-34.255-0.005-34.255-0.005v74.17c24.85,0,45-20.15,45-45
	C228.501,86.38,224.456,76.185,217.756,68.335z"/>
<path style="fill:#C27749;" d="M197.391,80.51l-48.145-12.175c-6.7,7.85-10.745,18.045-10.745,29.165c0,24.85,20.15,45,45,45
	c8.28,0,15-20.15,15-45C198.501,91.49,198.111,85.75,197.391,80.51z"/>
<path style="fill:#40211D;" d="M183.501,52.5l13.89,28.01c7.45-2.23,14.475-6.295,20.365-12.175
	C209.506,58.645,197.221,52.5,183.501,52.5z"/>
<path style="fill:#60312C;" d="M183.501,52.5c-13.72,0-26.005,6.145-34.255,15.835c13.04,13.04,31.645,17.105,48.145,12.175
	C195.161,64.08,189.781,52.5,183.501,52.5z"/>
<path style="fill:#A45E43;" d="M448.502,352.5h-15.001l-20,76l20,76h15c8.25,0,15-6.75,15-15v-122
	C463.501,359.25,456.751,352.5,448.502,352.5z"/>
<path style="fill:#C27749;" d="M288.5,352.5c-8.249,0-14.999,6.75-14.999,15v122c0,8.25,6.75,15,15,15h145v-152H288.5z"/>
<rect x="333.5" y="404.5" style="fill:#B9D171;" width="40" height="40"/>
<rect x="363.5" y="434.5" style="fill:#FFCB63;" width="40" height="40"/>
<path d="M245.873,497.385l-24.872-8.29V360h22.5c4.143,0,7.5-3.357,7.5-7.5v-50.335c0-15.472-5.307-30.417-15-42.406v-60.044
	c50.271-3.842,90-45.976,90-97.214c0-4.143-3.357-7.5-7.5-7.5s-7.5,3.357-7.5,7.5c0,43.343-33.605,78.961-76.125,82.229
	c-3.362-11.39-13.91-19.729-26.375-19.729h-50c-12.465,0-23.013,8.339-26.375,19.729c-42.52-3.269-76.125-38.887-76.125-82.229
	c0-4.143-3.357-7.5-7.5-7.5s-7.5,3.357-7.5,7.5c0,51.238,39.729,93.372,90,97.214v60.044c-9.693,11.989-15,26.935-15,42.406V352.5
	c0,4.143,3.357,7.5,7.5,7.5h22.5v129.095l-24.872,8.29c-3.929,1.31-6.053,5.558-4.743,9.487c1.048,3.143,3.974,5.13,7.114,5.13
	c0.786,0,1.586-0.125,2.373-0.387l30-10c3.063-1.021,5.128-3.887,5.128-7.115V360h45v134.5c0,3.229,2.065,6.095,5.128,7.115l30,10
	c0.787,0.262,1.587,0.387,2.373,0.387c3.141,0,6.066-1.987,7.114-5.13C251.926,502.942,249.802,498.694,245.873,497.385z
	 M158.501,180h50c6.893,0,12.5,5.607,12.5,12.5V255h-75v-62.5C146.001,185.607,151.608,180,158.501,180z M131.001,302.165
	c0-11.687,3.905-22.982,11.039-32.165h82.923c7.133,9.183,11.039,20.478,11.039,32.165V345h-105v-42.835H131.001z"/>
<path d="M183.501,150c28.948,0,52.5-23.552,52.5-52.5c0-12.813-4.621-24.564-12.275-33.689c-0.204-0.269-0.422-0.531-0.667-0.777
	c-4.778-5.462-10.622-9.917-17.222-13.033c4.762-5.312,7.665-12.323,7.665-20.001c0-16.542-13.458-30-30-30s-30,13.458-30,30
	c0,7.679,2.903,14.689,7.665,20.001c-6.6,3.116-12.445,7.571-17.195,13.008c-0.273,0.271-0.49,0.533-0.695,0.802
	c-7.654,9.125-12.275,20.875-12.275,33.689C131.001,126.448,154.553,150,183.501,150z M183.501,135c-20.678,0-37.5-16.822-37.5-37.5
	c0-6.567,1.702-12.742,4.68-18.116c9.75,7.072,21.284,10.614,32.82,10.614s23.07-3.542,32.82-10.614
	c2.978,5.374,4.68,11.549,4.68,18.116C221.001,118.178,204.179,135,183.501,135z M160.479,67.931
	c6.36-4.963,14.349-7.931,23.022-7.931s16.663,2.968,23.022,7.931C192.684,77.351,174.318,77.351,160.479,67.931z M168.501,30
	c0-8.271,6.729-15,15-15s15,6.729,15,15s-6.729,15-15,15S168.501,38.271,168.501,30z"/>
<path d="M448.501,345h-37.5v-7.5c0-12.406-10.094-22.5-22.5-22.5h-40c-12.406,0-22.5,10.094-22.5,22.5v7.5h-37.5
	c-12.406,0-22.5,10.094-22.5,22.5v122c0,12.406,10.094,22.5,22.5,22.5h160c12.406,0,22.5-10.094,22.5-22.5v-122
	C471.001,355.094,460.907,345,448.501,345z M341.001,337.5c0-4.136,3.364-7.5,7.5-7.5h40c4.136,0,7.5,3.364,7.5,7.5v7.5h-55V337.5z
	 M281.001,489.5v-122c0-4.136,3.364-7.5,7.5-7.5H296v137h-7.499C284.365,497,281.001,493.636,281.001,489.5z M456.001,489.5
	c0,4.136-3.364,7.5-7.5,7.5h-7.5v-53.5c0-4.143-3.357-7.5-7.5-7.5s-7.5,3.357-7.5,7.5V497H311V360h115.001v53.5
	c0,4.143,3.357,7.5,7.5,7.5s7.5-3.357,7.5-7.5V360h7.5c4.136,0,7.5,3.364,7.5,7.5V489.5z"/>
<path d="M403.501,427h-22.5v-22.5c0-4.143-3.357-7.5-7.5-7.5H333.5c-4.143,0-7.5,3.357-7.5,7.5v40c0,4.143,3.357,7.5,7.5,7.5H356
	v22.5c0,4.143,3.357,7.5,7.5,7.5h40.001c4.143,0,7.5-3.357,7.5-7.5v-40C411.001,430.357,407.644,427,403.501,427z M341,437v-25
	h25.001v15H363.5c-4.143,0-7.5,3.357-7.5,7.5v2.5H341z M396.001,467H371v-25h25.001V467z"/>
<g>
</g>
<g>
</g>
<g>
</g>
<g>
</g>
<g>
</g>
<g>
</g>
<g>
</g>
<g>
</g>
<g>
</g>
<g>
</g>
<g>
</g>
<g>
</g>
<g>
</g>
<g>
</g>
<g>
</g>
</svg>
