<?xml version="1.0" encoding="iso-8859-1"?>
<!-- Generator: Adobe Illustrator 19.0.0, SVG Export Plug-In . SVG Version: 6.00 Build 0)  -->
<svg version="1.1" id="Capa_1" xmlns="http://www.w3.org/2000/svg" xmlns:xlink="http://www.w3.org/1999/xlink" x="0px" y="0px"
	 viewBox="0 0 512.002 512.002" style="enable-background:new 0 0 512.002 512.002;" xml:space="preserve">
<path style="fill:#FFA754;" d="M256.001,82.5v90c24.853,0,45-20.147,45-45S280.854,82.5,256.001,82.5z"/>
<path style="fill:#FFCB63;" d="M271.001,127.5c0-24.853-6.716-45-15-45c-24.853,0-45,20.147-45,45s20.147,45,45,45
	C264.285,172.5,271.001,152.353,271.001,127.5z"/>
<path style="fill:#2DADE3;" d="M113.501,262.5v75c24.853,0,45-20.147,45-45L113.501,262.5z"/>
<path style="fill:#49C9FF;" d="M128.501,292.5l-15-30l-45,30c0,24.853,20.147,45,45,45C121.785,337.5,128.501,317.353,128.501,292.5
	z"/>
<path style="fill:#9DB55F;" d="M138.501,172.5h-30l20,120h30v-100C158.501,181.454,149.547,172.5,138.501,172.5z"/>
<path style="fill:#B9D171;" d="M108.501,172.5h-20c-11.046,0-20,8.954-20,20v100h60v-100
	C128.501,181.454,119.547,172.5,108.501,172.5z"/>
<path style="fill:#FFB4A9;" d="M113.501,52.5v101l45-46v-10C158.501,72.647,138.354,52.5,113.501,52.5z"/>
<path style="fill:#FFD9D4;" d="M113.501,52.5c-24.853,0-45,20.147-45,45v10l60,46v-56C128.501,72.647,121.785,52.5,113.501,52.5z"/>
<path style="fill:#FF6337;" d="M132.21,107.5c-1.053-1.573-2.303-3.002-3.709-4.261l-15,69.261c24.853,0,45-20.147,45-45v-20H132.21
	z"/>
<path style="fill:#FF8646;" d="M128.501,127.5v-24.261c-3.981-3.566-9.235-5.739-15-5.739c-7.801,0-14.672,3.971-18.709,10H68.501
	v20c0,24.853,20.147,45,45,45C121.785,172.5,128.501,152.353,128.501,127.5z"/>
<path style="fill:#2DADE3;" d="M423.501,172.5h-30v120h50v-100C443.501,181.454,434.547,172.5,423.501,172.5z"/>
<path style="fill:#49C9FF;" d="M393.501,172.5h-20c-11.046,0-20,8.954-20,20v100h60v-100
	C413.501,181.454,404.547,172.5,393.501,172.5z"/>
<path style="fill:#FF4128;" d="M443.501,262.5h-30l15,90h30v-50.335C458.501,286.954,452.83,273.075,443.501,262.5z"/>
<path style="fill:#FF6337;" d="M413.501,262.5h-60c-9.329,10.575-15,24.454-15,39.665V352.5h90v-50.335
	C428.501,286.954,422.83,273.075,413.501,262.5z"/>
<circle style="fill:#60312C;" cx="398.5" cy="30" r="22.5"/>
<path style="fill:#A45E43;" d="M432.756,68.335c0.01-0.01-34.255-0.005-34.255-0.005v74.17c24.85,0,45-20.15,45-45
	C443.501,86.38,439.456,76.185,432.756,68.335z"/>
<path style="fill:#C27749;" d="M412.391,80.51l-48.145-12.175c-6.7,7.85-10.745,18.045-10.745,29.165c0,24.85,20.15,45,45,45
	c8.28,0,15-20.15,15-45C413.501,91.49,413.111,85.75,412.391,80.51z"/>
<path style="fill:#40211D;" d="M398.501,52.5l13.89,28.01c7.45-2.23,14.475-6.295,20.365-12.175
	C424.506,58.645,412.221,52.5,398.501,52.5z"/>
<path style="fill:#60312C;" d="M398.501,52.5c-13.72,0-26.005,6.145-34.255,15.835c13.04,13.04,31.645,17.105,48.145,12.175
	C410.161,64.08,404.781,52.5,398.501,52.5z"/>
<path d="M287.425,169.531l11.002,11.002c1.465,1.464,3.385,2.196,5.304,2.196s3.839-0.732,5.304-2.196
	c2.929-2.93,2.929-7.678,0-10.607l-11.002-11.002c5.15-6.871,8.648-15.043,9.925-23.924h15.544c4.143,0,7.5-3.357,7.5-7.5
	s-3.357-7.5-7.5-7.5h-15.544c-1.276-8.88-4.775-17.053-9.925-23.924l11.002-11.002c2.929-2.93,2.929-7.678,0-10.607
	c-2.93-2.928-7.678-2.928-10.607,0l-11.002,11.002c-6.871-5.15-15.043-8.648-23.924-9.924V60c0-4.143-3.357-7.5-7.5-7.5
	c-4.142,0-7.5,3.357-7.5,7.5v15.544c-8.881,1.276-17.053,4.774-23.924,9.925l-11.002-11.001c-2.928-2.929-7.677-2.93-10.606-0.001
	c-2.929,2.93-2.929,7.678,0,10.607l11.002,11.001c-5.15,6.871-8.649,15.043-9.925,23.924h-15.544c-4.142,0-7.5,3.357-7.5,7.5
	c0,4.143,3.358,7.5,7.5,7.5h15.544c1.276,8.881,4.775,17.053,9.925,23.924l-11.002,11.001c-2.929,2.93-2.929,7.678,0,10.607
	c1.464,1.464,3.384,2.196,5.303,2.196s3.839-0.732,5.303-2.197l11.002-11.001c6.871,5.15,15.043,8.649,23.924,9.925V195
	c0,4.143,3.358,7.5,7.5,7.5c4.143,0,7.5-3.357,7.5-7.5v-15.544C272.381,178.18,280.554,174.681,287.425,169.531z M218.501,127.5
	c0-20.678,16.822-37.5,37.5-37.5s37.5,16.822,37.5,37.5s-16.822,37.5-37.5,37.5S218.501,148.178,218.501,127.5z"/>
<path d="M504.501,67.5c-4.143,0-7.5,3.357-7.5,7.5v56.5c0,27.354-20.639,49.963-47.159,53.111
	c-3.4-11.33-13.919-19.611-26.341-19.611h-50c-12.703,0-23.418,8.661-26.562,20.385c-28.626,3.269-50.938,27.628-50.938,57.115
	c0,23.265,14.243,44.22,35.336,53.06c-0.215,2.187-0.336,4.39-0.336,6.605V352.5c0,4.143,3.357,7.5,7.5,7.5h22.5v129.095
	l-24.872,8.29c-3.929,1.31-6.053,5.558-4.743,9.487c1.048,3.143,3.974,5.13,7.114,5.13c0.786,0,1.586-0.125,2.373-0.387l30-10
	c3.063-1.021,5.128-3.887,5.128-7.115V360h45v134.5c0,3.229,2.065,6.095,5.128,7.115l30,10c0.787,0.262,1.587,0.387,2.373,0.387
	c3.141,0,6.066-1.987,7.114-5.13c1.31-3.93-0.814-8.178-4.743-9.487l-24.872-8.29V360h22.5c4.143,0,7.5-3.357,7.5-7.5v-50.335
	c0-15.472-5.307-30.417-15-42.406v-60.178c34.255-3.749,61-32.845,61-68.081V75C512.001,70.857,508.644,67.5,504.501,67.5z
	 M373.501,180h50c6.893,0,12.5,5.607,12.5,12.5V255h-75v-62.5C361.001,185.607,366.608,180,373.501,180z M311.001,242.5
	c0-20.875,15.132-38.27,35-41.824v59.083c-5.047,6.242-8.892,13.29-11.43,20.791C320.393,273.462,311.001,258.745,311.001,242.5z
	 M451.001,345h-105v-42.835c0-11.687,3.905-22.982,11.039-32.165h82.923c7.133,9.183,11.039,20.478,11.039,32.165V345H451.001z"/>
<path d="M165.063,185.386c-2.293-8.553-8.615-15.471-16.801-18.59c10.869-9.625,17.739-23.67,17.739-39.296v-30
	c0-28.948-23.551-52.5-52.5-52.5s-52.5,23.552-52.5,52.5v30c0,15.626,6.87,29.67,17.739,39.296
	c-7.937,3.024-14.121,9.62-16.58,17.815c-26.52-3.148-47.159-25.758-47.159-53.111V75c0-4.143-3.358-7.5-7.5-7.5s-7.5,3.357-7.5,7.5
	v56.5c0,35.236,26.746,64.333,61,68.081V292.5c0,14.269,5.73,27.22,15,36.692v159.902l-24.872,8.29
	c-3.93,1.31-6.053,5.558-4.744,9.487c1.048,3.143,3.974,5.13,7.114,5.13c0.786,0,1.586-0.125,2.373-0.387l30-10
	c3.063-1.021,5.128-3.887,5.128-7.115V339.924c6.824,3.25,14.452,5.076,22.5,5.076s15.676-1.826,22.5-5.076V494.5
	c0,3.229,2.066,6.095,5.128,7.115l30,10c0.787,0.262,1.586,0.387,2.373,0.387c3.14,0,6.066-1.987,7.114-5.13
	c1.31-3.93-0.814-8.178-4.744-9.487l-24.872-8.29V329.192c7.715-7.883,12.965-18.178,14.512-29.635
	c28.408-3.472,50.488-27.726,50.488-57.057C216.001,213.014,193.688,188.654,165.063,185.386z M113.501,60
	c20.678,0,37.5,16.822,37.5,37.5v2.5h-15.139c-5.652-6.325-13.746-10-22.361-10s-16.708,3.675-22.361,10H76.001v-2.5
	C76.001,76.822,92.823,60,113.501,60z M76.001,127.5V115h18.792c2.502,0,4.84-1.248,6.232-3.328
	c2.797-4.178,7.461-6.672,12.476-6.672s9.679,2.494,12.476,6.672c1.392,2.08,3.73,3.328,6.232,3.328h18.792v12.5
	c0,20.678-16.822,37.5-37.5,37.5S76.001,148.178,76.001,127.5z M88.501,180h50c6.893,0,12.5,5.607,12.5,12.5V285h-75v-92.5
	C76.001,185.607,81.608,180,88.501,180z M76.756,300h73.491c-3.484,17.096-18.635,30-36.745,30S80.24,317.096,76.756,300z
	 M166.001,284.324v-83.647c19.868,3.554,35,20.949,35,41.824S185.869,280.77,166.001,284.324z"/>
<path d="M398.501,150c28.948,0,52.5-23.552,52.5-52.5c0-12.813-4.621-24.564-12.275-33.689c-0.204-0.269-0.422-0.531-0.667-0.777
	c-4.778-5.462-10.622-9.917-17.222-13.033c4.762-5.312,7.665-12.323,7.665-20.001c0-16.542-13.458-30-30-30s-30,13.458-30,30
	c0,7.679,2.903,14.689,7.665,20.001c-6.6,3.116-12.445,7.571-17.195,13.008c-0.273,0.271-0.49,0.533-0.695,0.802
	c-7.654,9.125-12.275,20.875-12.275,33.689C346.001,126.448,369.553,150,398.501,150z M398.501,135c-20.678,0-37.5-16.822-37.5-37.5
	c0-6.567,1.702-12.742,4.68-18.116c9.75,7.072,21.284,10.614,32.82,10.614s23.07-3.542,32.82-10.614
	c2.978,5.374,4.68,11.549,4.68,18.116C436.001,118.178,419.179,135,398.501,135z M375.479,67.931
	c6.36-4.963,14.349-7.931,23.022-7.931s16.663,2.968,23.022,7.931C407.684,77.351,389.318,77.351,375.479,67.931z M383.501,30
	c0-8.271,6.729-15,15-15s15,6.729,15,15s-6.729,15-15,15S383.501,38.271,383.501,30z"/>
<g>
</g>
<g>
</g>
<g>
</g>
<g>
</g>
<g>
</g>
<g>
</g>
<g>
</g>
<g>
</g>
<g>
</g>
<g>
</g>
<g>
</g>
<g>
</g>
<g>
</g>
<g>
</g>
<g>
</g>
</svg>
