<?xml version="1.0" encoding="iso-8859-1"?>
<!-- Generator: Adobe Illustrator 19.0.0, SVG Export Plug-In . SVG Version: 6.00 Build 0)  -->
<svg version="1.1" id="Capa_1" xmlns="http://www.w3.org/2000/svg" xmlns:xlink="http://www.w3.org/1999/xlink" x="0px" y="0px"
	 viewBox="0 0 512.001 512.001" style="enable-background:new 0 0 512.001 512.001;" xml:space="preserve">
<g>
	<path style="fill:#116F97;" d="M231,128c-4.142,0-7.5-3.357-7.5-7.5v-23c0-4.143,3.358-7.5,7.5-7.5s7.5,3.357,7.5,7.5v23
		C238.5,124.643,235.143,128,231,128z"/>
	<path style="fill:#116F97;" d="M206,150c-4.142,0-7.5-3.357-7.5-7.5v-15c0-4.143,3.358-7.5,7.5-7.5s7.5,3.357,7.5,7.5v15
		C213.5,146.643,210.143,150,206,150z"/>
	<path style="fill:#116F97;" d="M256,150c-4.142,0-7.5-3.357-7.5-7.5v-15c0-4.143,3.358-7.5,7.5-7.5s7.5,3.357,7.5,7.5v15
		C263.5,146.643,260.143,150,256,150z"/>
	<path style="fill:#116F97;" d="M306,150c-4.142,0-7.5-3.357-7.5-7.5v-15c0-4.143,3.358-7.5,7.5-7.5s7.5,3.357,7.5,7.5v15
		C313.5,146.643,310.143,150,306,150z"/>
	<path style="fill:#116F97;" d="M281,128c-4.142,0-7.5-3.357-7.5-7.5v-23c0-4.143,3.358-7.5,7.5-7.5s7.5,3.357,7.5,7.5v23
		C288.5,124.643,285.143,128,281,128z"/>
</g>
<path style="fill:#2DADE3;" d="M281,307.5h-30v120h50v-100C301,316.454,292.046,307.5,281,307.5z"/>
<path style="fill:#49C9FF;" d="M251,307.5h-20c-11.046,0-20,8.954-20,20v100h60v-100C271,316.454,262.046,307.5,251,307.5z"/>
<path style="fill:#FF4128;" d="M301,397.5h-30l15,52h30v-12.335C316,421.954,310.329,408.075,301,397.5z"/>
<path style="fill:#FF6337;" d="M271,397.5h-60c-9.329,10.575-15,24.454-15,39.665V449.5h90v-12.335
	C286,421.954,280.329,408.075,271,397.5z"/>
<circle style="fill:#60312C;" cx="256" cy="195" r="22.5"/>
<path style="fill:#A45E43;" d="M290.255,233.335c0.01-0.01-34.255-0.005-34.255-0.005v74.17c24.85,0,45-20.15,45-45
	C301,251.38,296.956,241.185,290.255,233.335z"/>
<path style="fill:#C27749;" d="M269.891,245.51l-48.145-12.175C215.046,241.185,211,251.38,211,262.5c0,24.85,20.15,45,45,45
	c8.28,0,15-20.15,15-45C271,256.49,270.61,250.75,269.891,245.51z"/>
<path style="fill:#40211D;" d="M256,217.5l13.89,28.01c7.45-2.23,14.475-6.295,20.365-12.175
	C282.005,223.645,269.721,217.5,256,217.5z"/>
<path style="fill:#60312C;" d="M256,217.5c-13.72,0-26.005,6.145-34.255,15.835c13.04,13.04,31.645,17.105,48.145,12.175
	C267.661,229.08,262.281,217.5,256,217.5z"/>
<path style="fill:#B3B3B3;" d="M301,37.5h-2.571c-6.179-17.476-22.838-30-42.429-30l15,90h30c16.569,0,30-13.432,30-30
	C331,50.931,317.569,37.5,301,37.5z"/>
<path style="fill:#CCCCCC;" d="M256,7.5c-19.592,0-36.251,12.524-42.429,30H211c-16.569,0-30,13.431-30,30c0,16.568,13.431,30,30,30
	h60c0,0,0-20.147,0-45S264.285,7.5,256,7.5z"/>
<path d="M316,375c15.164,0,27.5-12.337,27.5-27.5S331.164,320,316,320h-8.548c-2.378-8.375-8.63-15.132-16.691-18.204
	c10.869-9.625,17.739-23.67,17.739-39.296c0-12.814-4.621-24.565-12.275-33.689c-0.205-0.269-0.422-0.532-0.668-0.777
	c-4.778-5.462-10.622-9.916-17.222-13.032C283.098,209.689,286,202.678,286,195c0-16.542-13.458-30-30-30s-30,13.458-30,30
	c0,7.678,2.903,14.689,7.665,20.001c-6.6,3.116-12.444,7.57-17.194,13.006c-0.274,0.271-0.491,0.534-0.696,0.803
	c-7.654,9.125-12.275,20.875-12.275,33.689c0,15.626,6.87,29.67,17.739,39.296c-8.061,3.072-14.313,9.83-16.691,18.204H196
	c-15.164,0-27.5,12.337-27.5,27.5S180.837,375,196,375h7.5v19.759c-9.693,11.988-15,26.935-15,42.406V449.5
	c0,4.143,3.358,7.5,7.5,7.5h37.5v20.423l-13.931,23.219c-2.131,3.552-0.979,8.158,2.572,10.29c1.208,0.725,2.539,1.069,3.852,1.069
	c2.548,0,5.032-1.299,6.438-3.643l15-25c0.699-1.165,1.069-2.499,1.069-3.858V457h15v22.5c0,1.359,0.37,2.693,1.069,3.858l15,25
	c1.406,2.345,3.89,3.643,6.438,3.643c1.313,0,2.644-0.345,3.852-1.069c3.552-2.132,4.704-6.738,2.572-10.29L278.5,477.423V457H316
	c4.142,0,7.5-3.357,7.5-7.5v-12.335c0-15.472-5.307-30.418-15-42.406V375H316z M328.5,347.5c0,6.893-5.607,12.5-12.5,12.5h-7.5v-25
	h7.5C322.893,335,328.5,340.607,328.5,347.5z M279.023,232.931c-13.839,9.419-32.206,9.419-46.045,0
	C239.338,227.968,247.327,225,256,225S272.663,227.968,279.023,232.931z M241,195c0-8.271,6.729-15,15-15s15,6.729,15,15
	s-6.729,15-15,15S241,203.271,241,195z M218.5,262.5c0-6.567,1.702-12.742,4.68-18.116c9.75,7.072,21.284,10.615,32.82,10.615
	s23.07-3.543,32.82-10.615c2.978,5.374,4.68,11.549,4.68,18.116c0,20.678-16.822,37.5-37.5,37.5S218.5,283.178,218.5,262.5z
	 M231,315h50c6.893,0,12.5,5.607,12.5,12.5V360h-15v-22.5c0-4.143-3.358-7.5-7.5-7.5s-7.5,3.357-7.5,7.5V360h-15v-22.5
	c0-4.143-3.358-7.5-7.5-7.5s-7.5,3.357-7.5,7.5V360h-15v-32.5C218.5,320.607,224.108,315,231,315z M263.5,375v15h-15v-15H263.5z
	 M196,360c-6.893,0-12.5-5.607-12.5-12.5S189.108,335,196,335h7.5v25H196z M233.5,375v15h-15v-15H233.5z M203.5,442v-4.835
	c0-11.687,3.905-22.982,11.039-32.165H233.5v37H203.5z M248.5,442v-37h15v37H248.5z M308.5,442h-30v-37h18.961
	c7.134,9.183,11.039,20.478,11.039,32.165V442z M293.5,390h-15v-15h15V390z"/>
<path d="M211,105h90c20.678,0,37.5-16.822,37.5-37.5c0-19.846-15.497-36.141-35.025-37.419C294.882,11.892,276.419,0,256,0
	c-20.418,0-38.88,11.892-47.475,30.081C188.998,31.359,173.5,47.654,173.5,67.5C173.5,88.178,190.323,105,211,105z M211,45h2.571
	c3.178,0,6.012-2.003,7.071-5c5.287-14.953,19.496-25,35.358-25s30.072,10.047,35.358,25c1.06,2.996,3.893,5,7.071,5H301
	c12.407,0,22.5,10.094,22.5,22.5S313.408,90,301,90h-90c-12.407,0-22.5-10.094-22.5-22.5S198.594,45,211,45z"/>
<g>
</g>
<g>
</g>
<g>
</g>
<g>
</g>
<g>
</g>
<g>
</g>
<g>
</g>
<g>
</g>
<g>
</g>
<g>
</g>
<g>
</g>
<g>
</g>
<g>
</g>
<g>
</g>
<g>
</g>
</svg>
