<?xml version="1.0" encoding="iso-8859-1"?>
<!-- Generator: Adobe Illustrator 19.0.0, SVG Export Plug-In . SVG Version: 6.00 Build 0)  -->
<svg version="1.1" id="Capa_1" xmlns="http://www.w3.org/2000/svg" xmlns:xlink="http://www.w3.org/1999/xlink" x="0px" y="0px"
	 viewBox="0 0 512.002 512.002" style="enable-background:new 0 0 512.002 512.002;" xml:space="preserve">
<path style="fill:#FF8D7E;" d="M454.502,82.5v90c24.853,0,45-20.147,45-45S479.355,82.5,454.502,82.5z"/>
<path style="fill:#FFB4A9;" d="M469.502,127.5c0-24.853-6.716-45-15-45c-24.853,0-45,20.147-45,45s20.147,45,45,45
	C462.786,172.5,469.502,152.353,469.502,127.5z"/>
<path style="fill:#60312C;" d="M429.502,262.5v75c24.853,0,45-20.147,45-45L429.502,262.5z"/>
<path style="fill:#85453D;" d="M444.502,292.5l-15-30l-45,30c0,24.853,20.147,45,45,45C437.786,337.5,444.502,317.353,444.502,292.5
	z"/>
<path style="fill:#FFA754;" d="M454.502,172.5h-30l20,120h30v-100C474.502,181.454,465.548,172.5,454.502,172.5z"/>
<path style="fill:#FFCB63;" d="M424.502,172.5h-20c-11.046,0-20,8.954-20,20v100h60v-100
	C444.502,181.454,435.548,172.5,424.502,172.5z"/>
<path style="fill:#2DADE3;" d="M152.502,172.5h-30v120h50v-100C172.502,181.454,163.548,172.5,152.502,172.5z"/>
<path style="fill:#49C9FF;" d="M122.502,172.5h-20c-11.046,0-20,8.954-20,20v100h60v-100
	C142.502,181.454,133.548,172.5,122.502,172.5z"/>
<path style="fill:#FF4128;" d="M186.472,291.04c-2.15-10.8-6.97-20.61-13.97-28.54h-30l26.93,90h30
	C199.432,352.5,189.542,306.44,186.472,291.04z"/>
<path style="fill:#FF6337;" d="M169.432,352.5H55.572c0,0,9.89-46.06,12.96-61.46c2.15-10.8,6.97-20.61,13.97-28.54h60
	c7,7.93,11.82,17.74,13.97,28.54C159.542,306.44,169.432,352.5,169.432,352.5z"/>
<circle style="fill:#60312C;" cx="127.5" cy="30" r="22.5"/>
<path style="fill:#A45E43;" d="M161.757,68.335c0.01-0.01-34.255-0.005-34.255-0.005v74.17c24.85,0,45-20.15,45-45
	C172.502,86.38,168.457,76.185,161.757,68.335z"/>
<path style="fill:#C27749;" d="M141.392,80.51L93.247,68.335c-6.7,7.85-10.745,18.045-10.745,29.165c0,24.85,20.15,45,45,45
	c8.28,0,15-20.15,15-45C142.502,91.49,142.112,85.75,141.392,80.51z"/>
<path style="fill:#40211D;" d="M127.502,52.5l13.89,28.01c7.45-2.23,14.475-6.295,20.365-12.175
	C153.507,58.645,141.222,52.5,127.502,52.5z"/>
<path style="fill:#60312C;" d="M127.502,52.5c-13.72,0-26.005,6.145-34.255,15.835c13.04,13.04,31.645,17.105,48.145,12.175
	C139.162,64.08,133.782,52.5,127.502,52.5z"/>
<path style="fill:#FFCB63;" d="M302.002,97.5l-7.5,95c20.711,0,37.5-16.789,37.5-37.5s0-57.5,0-57.5H302.002z"/>
<path style="fill:#FFE2A8;" d="M302.002,155c0-20.711,0-57.5,0-57.5h-45c0,0,0,36.789,0,57.5s16.789,37.5,37.5,37.5
	C298.644,192.5,302.002,175.711,302.002,155z"/>
<path d="M481.124,185.597c-0.982-3.783-2.755-7.249-5.126-10.219c18.257-8.229,31.004-26.587,31.004-47.878
	c0-28.948-23.552-52.5-52.5-52.5s-52.5,23.552-52.5,52.5c0,14.679,6.063,27.963,15.808,37.5h-13.308
	c-12.78,0-23.552,8.764-26.622,20.597c-17.529,3.138-30.878,18.485-30.878,36.903v40c0,18.271,13.136,33.522,30.458,36.828
	c1.508,11.549,6.775,21.929,14.542,29.864V494.5c0,3.229,2.065,6.095,5.128,7.115l30,10c0.787,0.262,1.587,0.387,2.373,0.387
	c3.141,0,6.066-1.987,7.114-5.13c1.31-3.93-0.813-8.178-4.743-9.487l-24.872-8.29V339.924c6.824,3.251,14.452,5.076,22.5,5.076
	s15.676-1.825,22.5-5.076V494.5c0,3.229,2.065,6.095,5.128,7.115l30,10c0.787,0.262,1.587,0.387,2.373,0.387
	c3.141,0,6.066-1.987,7.114-5.13c1.31-3.93-0.813-8.178-4.743-9.487l-24.872-8.29V329.192c7.766-7.936,13.034-18.315,14.542-29.864
	c17.322-3.306,30.458-18.557,30.458-36.828v-40C512.002,204.083,498.653,188.735,481.124,185.597z M417.002,127.5
	c0-20.678,16.822-37.5,37.5-37.5s37.5,16.822,37.5,37.5s-16.822,37.5-37.5,37.5S417.002,148.178,417.002,127.5z M404.502,180h50
	c6.893,0,12.5,5.607,12.5,12.5V285h-75v-92.5C392.002,185.607,397.609,180,404.502,180z M362.002,262.5v-40
	c0-9.777,6.271-18.114,15-21.21v82.42C368.273,280.614,362.002,272.277,362.002,262.5z M392.757,300h73.491
	c-3.484,17.096-18.635,30-36.745,30S396.241,317.096,392.757,300z M497.002,262.5c0,9.777-6.271,18.114-15,21.21v-82.42
	c8.729,3.096,15,11.433,15,21.21V262.5z"/>
<path d="M127.502,150c28.948,0,52.5-23.552,52.5-52.5c0-12.813-4.621-24.564-12.275-33.689c-0.204-0.269-0.422-0.531-0.667-0.777
	c-4.778-5.462-10.622-9.917-17.222-13.033c4.762-5.312,7.665-12.323,7.665-20.001c0-16.542-13.458-30-30-30s-30,13.458-30,30
	c0,7.679,2.903,14.689,7.665,20.001c-6.6,3.116-12.445,7.571-17.195,13.008c-0.273,0.271-0.49,0.533-0.695,0.802
	C79.623,72.936,75.002,84.687,75.002,97.5C75.002,126.448,98.554,150,127.502,150z M127.502,135c-20.678,0-37.5-16.822-37.5-37.5
	c0-6.567,1.702-12.742,4.68-18.116c9.75,7.072,21.284,10.614,32.82,10.614s23.07-3.542,32.82-10.614
	c2.978,5.374,4.68,11.549,4.68,18.116C165.002,118.178,148.18,135,127.502,135z M104.48,67.931C110.84,62.968,118.829,60,127.502,60
	c8.673,0,16.663,2.968,23.022,7.931C136.685,77.351,118.319,77.351,104.48,67.931z M112.502,30c0-8.271,6.729-15,15-15
	s15,6.729,15,15s-6.729,15-15,15S112.502,38.271,112.502,30z"/>
<path d="M319.502,220h-17.5v-20.637c19.035-3.208,34.053-18.398,36.981-37.525c17.352-3.282,30.519-18.547,30.519-36.838V97.5
	c0-4.143-3.357-7.5-7.5-7.5h-135c-4.143,0-7.5,3.357-7.5,7.5V125c0,18.292,13.167,33.557,30.519,36.838
	c1.35,8.821,5.276,16.802,10.976,23.162h-82.043c-3.274-11.528-13.889-20-26.452-20h-50c-12.703,0-23.417,8.661-26.562,20.385
	c-28.626,3.269-50.938,27.628-50.938,57.115c0,23.138,14.085,43.996,34.988,52.918c-3.831,18.618-11.661,55.097-11.749,55.507
	c-0.476,2.215,0.075,4.526,1.5,6.288c1.424,1.762,3.567,2.786,5.833,2.786h2.678L31.053,488.744L5.13,497.385
	c-3.929,1.31-6.053,5.558-4.743,9.487c1.048,3.143,3.974,5.13,7.114,5.13c0.786,0,1.586-0.125,2.373-0.387l30-10
	c2.525-0.842,4.416-2.96,4.966-5.565L73.583,360h107.838l28.743,136.05c0.55,2.605,2.44,4.724,4.966,5.565l30,10
	c0.787,0.262,1.587,0.387,2.373,0.387c3.141,0,6.066-1.987,7.114-5.13c1.31-3.93-0.814-8.178-4.743-9.487l-25.923-8.641L196.752,360
	h2.677c2.266,0,4.409-1.024,5.833-2.786s1.976-4.073,1.5-6.288c-0.099-0.46-9.912-46.185-12.937-61.354
	c-2.203-11.053-6.962-21.298-13.823-29.809V200h107v20h-17.5c-4.143,0-7.5,3.357-7.5,7.5s3.357,7.5,7.5,7.5h50
	c4.143,0,7.5-3.357,7.5-7.5S323.645,220,319.502,220z M354.502,125c0,9.777-6.271,18.114-15,21.21V105h15V125z M234.502,125v-20h15
	v41.21C240.773,143.114,234.502,134.777,234.502,125z M264.502,155v-50h60v50c0,16.542-13.458,30-30,30S264.502,171.542,264.502,155
	z M102.502,180h50c6.893,0,12.5,5.607,12.5,12.5V255h-75v-62.5C90.002,185.607,95.609,180,102.502,180z M40.002,242.5
	c0-20.875,15.132-38.27,35-41.824v59.086c-4.955,6.146-8.806,13.199-11.397,20.804C49.41,273.486,40.002,258.757,40.002,242.5z
	 M190.153,345h-2.68c-0.02,0-119.916,0-119.916,0c-0.032,0-2.708,0-2.708,0c3.048-14.258,8.83-41.415,11.04-52.497
	c1.659-8.324,5.149-16.036,10.148-22.503h82.929c4.999,6.467,8.489,14.18,10.148,22.504
	C181.324,303.585,187.105,330.742,190.153,345z"/>
<g>
</g>
<g>
</g>
<g>
</g>
<g>
</g>
<g>
</g>
<g>
</g>
<g>
</g>
<g>
</g>
<g>
</g>
<g>
</g>
<g>
</g>
<g>
</g>
<g>
</g>
<g>
</g>
<g>
</g>
</svg>
