<?xml version="1.0" encoding="iso-8859-1"?>
<!-- Generator: Adobe Illustrator 19.0.0, SVG Export Plug-In . SVG Version: 6.00 Build 0)  -->
<svg version="1.1" id="Capa_1" xmlns="http://www.w3.org/2000/svg" xmlns:xlink="http://www.w3.org/1999/xlink" x="0px" y="0px"
	 viewBox="0 0 512.002 512.002" style="enable-background:new 0 0 512.002 512.002;" xml:space="preserve">
<path style="fill:#2DADE3;" d="M113.501,262.5v75c24.853,0,45-20.147,45-45L113.501,262.5z"/>
<path style="fill:#49C9FF;" d="M128.501,292.5l-15-30l-45,30c0,24.853,20.147,45,45,45C121.785,337.5,128.501,317.353,128.501,292.5
	z"/>
<path style="fill:#9DB55F;" d="M138.501,172.5h-30l20,120h30v-100C158.501,181.454,149.547,172.5,138.501,172.5z"/>
<path style="fill:#B9D171;" d="M108.501,172.5h-20c-11.046,0-20,8.954-20,20v100h60v-100
	C128.501,181.454,119.547,172.5,108.501,172.5z"/>
<path style="fill:#FFB4A9;" d="M113.501,52.5v101l45-46v-10C158.501,72.647,138.354,52.5,113.501,52.5z"/>
<path style="fill:#FFD9D4;" d="M113.501,52.5c-24.853,0-45,20.147-45,45v10l60,46v-56C128.501,72.647,121.785,52.5,113.501,52.5z"/>
<path style="fill:#FF6337;" d="M132.21,107.5c-1.053-1.573-2.303-3.002-3.709-4.261l-15,69.261c24.853,0,45-20.147,45-45v-20H132.21
	z"/>
<path style="fill:#FF8646;" d="M128.501,127.5v-24.261c-3.981-3.566-9.235-5.739-15-5.739c-7.801,0-14.672,3.971-18.709,10H68.501
	v20c0,24.853,20.147,45,45,45C121.785,172.5,128.501,152.353,128.501,127.5z"/>
<path style="fill:#2DADE3;" d="M423.501,172.5h-30v120h50v-100C443.501,181.454,434.547,172.5,423.501,172.5z"/>
<path style="fill:#49C9FF;" d="M393.501,172.5h-20c-11.046,0-20,8.954-20,20v100h60v-100
	C413.501,181.454,404.547,172.5,393.501,172.5z"/>
<path style="fill:#FF4128;" d="M443.501,262.5h-30l15,90h30v-50.335C458.501,286.954,452.83,273.075,443.501,262.5z"/>
<path style="fill:#FF6337;" d="M413.501,262.5h-60c-9.329,10.575-15,24.454-15,39.665V352.5h90v-50.335
	C428.501,286.954,422.83,273.075,413.501,262.5z"/>
<circle style="fill:#60312C;" cx="398.5" cy="30" r="22.5"/>
<path style="fill:#A45E43;" d="M432.756,68.335c0.01-0.01-34.255-0.005-34.255-0.005v74.17c24.85,0,45-20.15,45-45
	C443.501,86.38,439.456,76.185,432.756,68.335z"/>
<path style="fill:#C27749;" d="M412.391,80.51l-48.145-12.175c-6.7,7.85-10.745,18.045-10.745,29.165c0,24.85,20.15,45,45,45
	c8.28,0,15-20.15,15-45C413.501,91.49,413.111,85.75,412.391,80.51z"/>
<path style="fill:#40211D;" d="M398.501,52.5l13.89,28.01c7.45-2.23,14.475-6.295,20.365-12.175
	C424.506,58.645,412.221,52.5,398.501,52.5z"/>
<path style="fill:#60312C;" d="M398.501,52.5c-13.72,0-26.005,6.145-34.255,15.835c13.04,13.04,31.645,17.105,48.145,12.175
	C410.161,64.08,404.781,52.5,398.501,52.5z"/>
<path style="fill:#FFCB63;" d="M263.501,105l-7.5,95c20.711,0,37.5-16.789,37.5-37.5s0-57.5,0-57.5H263.501z"/>
<path style="fill:#FFE2A8;" d="M263.501,162.5c0-20.711,0-57.5,0-57.5h-45c0,0,0,36.789,0,57.5s16.789,37.5,37.5,37.5
	C260.143,200,263.501,183.211,263.501,162.5z"/>
<path d="M504.501,67.5c-4.143,0-7.5,3.357-7.5,7.5v56.5c0,27.354-20.639,49.963-47.159,53.111
	c-3.4-11.33-13.919-19.611-26.341-19.611h-50c-15.163,0-27.5,12.337-27.5,27.5v33.705c-8.713-3.101-14.982-11.437-15-21.205V105
	c0-4.143-3.357-7.5-7.5-7.5h-135c-4.143,0-7.5,3.357-7.5,7.5v99.985c-0.018,9.78-6.287,18.118-15,21.22V192.5
	c0-11.727-7.381-21.757-17.739-25.704c10.869-9.625,17.739-23.67,17.739-39.296v-30c0-28.948-23.552-52.5-52.5-52.5
	s-52.5,23.552-52.5,52.5v30c0,15.626,6.87,29.67,17.739,39.296c-7.936,3.024-14.121,9.62-16.58,17.815
	c-26.52-3.148-47.159-25.758-47.159-53.111V75c0-4.143-3.357-7.5-7.5-7.5s-7.5,3.357-7.5,7.5v56.5c0,35.236,26.745,64.333,61,68.081
	V292.5c0,14.269,5.73,27.22,15,36.692v159.903l-24.872,8.29c-3.93,1.31-6.053,5.558-4.743,9.487c1.048,3.143,3.974,5.13,7.114,5.13
	c0.786,0,1.586-0.125,2.373-0.387l30-10c3.063-1.021,5.128-3.887,5.128-7.115V339.924c6.824,3.251,14.452,5.076,22.5,5.076
	s15.676-1.825,22.5-5.076V494.5c0,3.229,2.065,6.095,5.128,7.115l30,10c0.787,0.262,1.587,0.387,2.373,0.387
	c3.141,0,6.066-1.987,7.114-5.13c1.31-3.93-0.813-8.178-4.743-9.487l-24.872-8.29V329.192c9.27-9.472,15-22.423,15-36.692v-50.757
	c17.064-3.488,29.966-18.633,30-36.743v-42.521c4.498,3.384,9.78,5.773,15.519,6.859c2.928,19.127,17.947,34.316,36.981,37.525
	V227.5h-17.5c-4.143,0-7.5,3.357-7.5,7.5s3.357,7.5,7.5,7.5h50c4.143,0,7.5-3.357,7.5-7.5s-3.357-7.5-7.5-7.5h-17.5v-20.637
	c19.035-3.208,34.053-18.398,36.981-37.525c5.739-1.085,11.021-3.475,15.519-6.859v42.535c0.034,18.098,12.936,33.241,30,36.729
	v18.016c-9.693,11.989-15,26.935-15,42.406V352.5c0,4.143,3.357,7.5,7.5,7.5h22.5v129.095l-24.872,8.29
	c-3.929,1.31-6.053,5.558-4.743,9.487c1.048,3.143,3.974,5.13,7.114,5.13c0.786,0,1.586-0.125,2.373-0.387l30-10
	c3.063-1.021,5.128-3.887,5.128-7.115V360h45v134.5c0,3.229,2.065,6.095,5.128,7.115l30,10c0.787,0.262,1.587,0.387,2.373,0.387
	c3.141,0,6.066-1.987,7.114-5.13c1.31-3.93-0.814-8.178-4.743-9.487l-24.872-8.29V360h22.5c4.143,0,7.5-3.357,7.5-7.5v-50.335
	c0-15.472-5.307-30.417-15-42.406v-60.178c34.255-3.749,61-32.845,61-68.081V75C512.001,70.857,508.644,67.5,504.501,67.5z
	 M113.501,60c20.678,0,37.5,16.822,37.5,37.5v2.5h-15.139c-5.653-6.324-13.747-10-22.361-10s-16.708,3.676-22.361,10H76.001v-2.5
	C76.001,76.822,92.823,60,113.501,60z M76.001,127.5V115h18.791c2.502,0,4.84-1.248,6.232-3.327
	c2.797-4.179,7.462-6.673,12.477-6.673s9.68,2.494,12.477,6.673c1.393,2.079,3.73,3.327,6.232,3.327h18.791v12.5
	c0,20.678-16.822,37.5-37.5,37.5S76.001,148.178,76.001,127.5z M88.501,180h50c6.893,0,12.5,5.607,12.5,12.5V285h-75v-92.5
	C76.001,185.607,81.608,180,88.501,180z M76.756,300h73.491c-3.484,17.096-18.635,30-36.745,30S80.24,317.096,76.756,300z
	 M196.001,132.5v-20h15v41.21C202.272,150.614,196.001,142.277,196.001,132.5z M256.001,192.5c-16.542,0-30-13.458-30-30v-50h60v50
	C286.001,179.042,272.543,192.5,256.001,192.5z M301.001,153.71V112.5h15v20C316.001,142.277,309.73,150.614,301.001,153.71z
	 M361.001,192.5c0-6.893,5.607-12.5,12.5-12.5h50c6.893,0,12.5,5.607,12.5,12.5V255h-75V192.5z M451.001,345h-105v-42.835
	c0-11.687,3.905-22.982,11.039-32.165h82.923c7.133,9.183,11.039,20.478,11.039,32.165V345H451.001z"/>
<path d="M398.501,150c28.948,0,52.5-23.552,52.5-52.5c0-12.813-4.621-24.564-12.275-33.689c-0.204-0.269-0.422-0.531-0.667-0.777
	c-4.778-5.462-10.622-9.917-17.222-13.033c4.762-5.312,7.665-12.323,7.665-20.001c0-16.542-13.458-30-30-30s-30,13.458-30,30
	c0,7.679,2.903,14.689,7.665,20.001c-6.6,3.116-12.445,7.571-17.195,13.008c-0.273,0.271-0.49,0.533-0.695,0.802
	c-7.654,9.125-12.275,20.875-12.275,33.689C346.001,126.448,369.553,150,398.501,150z M398.501,135c-20.678,0-37.5-16.822-37.5-37.5
	c0-6.567,1.702-12.742,4.68-18.116c9.75,7.072,21.284,10.614,32.82,10.614s23.07-3.542,32.82-10.614
	c2.978,5.374,4.68,11.549,4.68,18.116C436.001,118.178,419.179,135,398.501,135z M375.479,67.931
	c6.36-4.963,14.349-7.931,23.022-7.931s16.663,2.968,23.022,7.931C407.684,77.351,389.318,77.351,375.479,67.931z M383.501,30
	c0-8.271,6.729-15,15-15s15,6.729,15,15s-6.729,15-15,15S383.501,38.271,383.501,30z"/>
<g>
</g>
<g>
</g>
<g>
</g>
<g>
</g>
<g>
</g>
<g>
</g>
<g>
</g>
<g>
</g>
<g>
</g>
<g>
</g>
<g>
</g>
<g>
</g>
<g>
</g>
<g>
</g>
<g>
</g>
</svg>
