<?xml version="1.0" encoding="iso-8859-1"?>
<!-- Generator: Adobe Illustrator 19.0.0, SVG Export Plug-In . SVG Version: 6.00 Build 0)  -->
<svg version="1.1" id="Capa_1" xmlns="http://www.w3.org/2000/svg" xmlns:xlink="http://www.w3.org/1999/xlink" x="0px" y="0px"
	 viewBox="0 0 512.001 512.001" style="enable-background:new 0 0 512.001 512.001;" xml:space="preserve">
<path style="fill:#2DADE3;" d="M394.501,262.499v75c24.853,0,45-20.147,45-45L394.501,262.499z"/>
<path style="fill:#49C9FF;" d="M409.501,292.499l-15-30l-45,30c0,24.853,20.147,45,45,45
	C402.785,337.499,409.501,317.352,409.501,292.499z"/>
<path style="fill:#9DB55F;" d="M419.501,172.499h-30l20,120h30v-100C439.501,181.453,430.547,172.499,419.501,172.499z"/>
<path style="fill:#B9D171;" d="M389.501,172.499h-20c-11.046,0-20,8.954-20,20v100h60v-100
	C409.501,181.453,400.547,172.499,389.501,172.499z"/>
<path style="fill:#FFB4A9;" d="M394.501,52.499v101l45-46v-10C439.501,72.646,419.354,52.499,394.501,52.499z"/>
<path style="fill:#FFD9D4;" d="M394.501,52.499c-24.853,0-45,20.147-45,45v10l60,46v-56
	C409.501,72.646,402.785,52.499,394.501,52.499z"/>
<path style="fill:#FF6337;" d="M413.21,107.499c-1.053-1.573-2.303-3.002-3.709-4.261l-15,69.261c24.853,0,45-20.147,45-45v-20
	H413.21z"/>
<path style="fill:#FF8646;" d="M409.501,127.499v-24.261c-3.981-3.566-9.235-5.739-15-5.739c-7.801,0-14.672,3.971-18.709,10H349.5
	v20c0,24.853,20.147,45,45,45C402.785,172.499,409.501,152.352,409.501,127.499z"/>
<polygon style="fill:#4F4F4F;" points="102.501,202.499 102.501,232.499 192.501,232.499 222.501,202.499 192.501,187.499 
	162.501,202.499 "/>
<polygon style="fill:#999999;" points="244.501,202.499 274.501,202.499 274.501,172.499 244.501,172.499 224.501,187.499 "/>
<rect x="162.499" y="172.499" style="fill:#B3B3B3;" width="82" height="30"/>
<path style="fill:#2DADE3;" d="M112.501,172.499h-30v120l50-30v-70C132.501,181.453,123.546,172.499,112.501,172.499z"/>
<path style="fill:#49C9FF;" d="M82.501,172.499h-20c-11.046,0-20,8.954-20,20v100h60v-100
	C102.501,181.453,93.546,172.499,82.501,172.499z"/>
<polygon style="fill:#FF4128;" points="132.501,262.499 102.501,262.499 72.501,307.499 102.501,352.499 132.501,352.499 "/>
<path style="fill:#FF6337;" d="M102.501,262.499h-60c-9.329,10.575-15,24.454-15,39.665v50.335h75V262.499z"/>
<circle style="fill:#60312C;" cx="87.499" cy="29.999" r="22.5"/>
<path style="fill:#A45E43;" d="M121.755,68.334c0.01-0.01-34.255-0.005-34.255-0.005v74.17c24.85,0,45-20.15,45-45
	C132.501,86.379,128.455,76.184,121.755,68.334z"/>
<path style="fill:#C27749;" d="M101.391,80.509L53.245,68.334c-6.7,7.85-10.745,18.045-10.745,29.165c0,24.85,20.15,45,45,45
	c8.28,0,15-20.15,15-45C102.501,91.489,102.111,85.749,101.391,80.509z"/>
<path style="fill:#40211D;" d="M87.501,52.499l13.89,28.01c7.45-2.23,14.475-6.295,20.365-12.175
	C113.505,58.644,101.221,52.499,87.501,52.499z"/>
<path style="fill:#60312C;" d="M87.501,52.499c-13.72,0-26.005,6.145-34.255,15.835c13.04,13.04,31.645,17.105,48.145,12.175
	C99.161,64.079,93.781,52.499,87.501,52.499z"/>
<path d="M484.501,54.999c-4.143,0-7.5,3.357-7.5,7.5v85c0,18.531-13.514,33.955-31.202,36.96
	c-2.489-8.126-8.649-14.659-16.537-17.665c10.869-9.625,17.739-23.67,17.739-39.296v-30c0-28.948-23.552-52.5-52.5-52.5
	s-52.5,23.552-52.5,52.5v30c0,15.626,6.87,29.67,17.739,39.296c-7.888,3.006-14.048,9.539-16.537,17.665
	c-17.688-3.005-31.202-18.43-31.202-36.96v-85c0-4.143-3.357-7.5-7.5-7.5s-7.5,3.357-7.5,7.5v85c0,26.401,19.593,48.304,45,51.956
	v93.044c0,14.269,5.73,27.22,15,36.692v159.903l-24.872,8.29c-3.93,1.31-6.053,5.558-4.743,9.487c1.048,3.143,3.974,5.13,7.114,5.13
	c0.786,0,1.586-0.125,2.373-0.387l30-10c3.063-1.021,5.128-3.887,5.128-7.115V339.923c6.824,3.251,14.452,5.076,22.5,5.076
	s15.676-1.825,22.5-5.076v149.171l-24.872,8.29c-3.93,1.31-6.053,5.558-4.743,9.487c1.048,3.143,3.974,5.13,7.114,5.13
	c0.786,0,1.586-0.125,2.373-0.387l30-10c3.063-1.021,5.128-3.887,5.128-7.115V329.191c9.27-9.472,15-22.423,15-36.692v-93.044
	c25.407-3.651,45-25.554,45-51.956v-85C492.001,58.356,488.644,54.999,484.501,54.999z M394.501,59.999
	c20.678,0,37.5,16.822,37.5,37.5v2.5h-15.139c-5.653-6.324-13.747-10-22.361-10s-16.708,3.676-22.361,10h-15.139v-2.5
	C357.001,76.821,373.823,59.999,394.501,59.999z M357.001,127.499v-12.5h18.791c2.502,0,4.84-1.248,6.232-3.327
	c2.797-4.179,7.462-6.673,12.477-6.673s9.68,2.494,12.477,6.673c1.393,2.079,3.73,3.327,6.232,3.327H432v12.5
	c0,20.678-16.822,37.5-37.5,37.5S357.001,148.177,357.001,127.499z M369.501,179.999h50c6.893,0,12.5,5.607,12.5,12.5v92.5h-75
	v-92.5C357.001,185.606,362.608,179.999,369.501,179.999z M357.756,299.999h73.491c-3.484,17.096-18.635,30-36.745,30
	S361.24,317.095,357.756,299.999z"/>
<path d="M87.501,149.999c28.949,0,52.5-23.552,52.5-52.5c0-12.814-4.621-24.565-12.275-33.689c-0.205-0.269-0.422-0.532-0.668-0.777
	c-4.778-5.462-10.622-9.916-17.222-13.032c4.762-5.312,7.665-12.323,7.665-20.001c0-16.542-13.458-30-30-30s-30,13.458-30,30
	c0,7.678,2.903,14.689,7.665,20.001c-6.6,3.116-12.444,7.57-17.194,13.006c-0.274,0.271-0.491,0.534-0.696,0.803
	C39.622,72.934,35,84.685,35,97.499C35,126.447,58.551,149.999,87.501,149.999z M87.501,134.999c-20.678,0-37.5-16.822-37.5-37.5
	c0-6.567,1.702-12.742,4.68-18.116c9.75,7.072,21.284,10.615,32.82,10.615c11.536,0,23.07-3.543,32.82-10.615
	c2.978,5.374,4.68,11.549,4.68,18.116C125.001,118.177,108.178,134.999,87.501,134.999z M64.479,67.93
	c6.36-4.963,14.348-7.931,23.022-7.931s16.662,2.968,23.022,7.931C96.684,77.35,78.318,77.35,64.479,67.93z M72.501,29.999
	c0-8.271,6.729-15,15-15c8.271,0,15,6.729,15,15s-6.729,15-15,15C79.229,44.999,72.501,38.27,72.501,29.999z"/>
<path d="M274.501,149.999c4.143,0,7.5-3.357,7.5-7.5s-3.357-7.5-7.5-7.5h-60c-4.142,0-7.5,3.357-7.5,7.5s3.358,7.5,7.5,7.5h22.5v15
	h-74.5c-4.142,0-7.5,3.357-7.5,7.5v22.5h-15v-2.5c0-15.163-12.336-27.5-27.5-27.5h-50c-15.164,0-27.5,12.337-27.5,27.5v67.259
	c-9.693,11.989-15,26.936-15,42.406v50.335c0,4.143,3.358,7.5,7.5,7.5h22.5v134.5c0,3.229,2.066,6.095,5.128,7.115l30,10
	c0.787,0.262,1.586,0.387,2.373,0.387c3.14,0,6.066-1.987,7.114-5.13c1.31-3.93-0.814-8.178-4.744-9.487l-24.872-8.29V359.999h45
	v134.5c0,3.229,2.066,6.095,5.128,7.115l30,10c0.787,0.262,1.586,0.387,2.373,0.387c3.14,0,6.066-1.987,7.114-5.13
	c1.31-3.93-0.814-8.178-4.744-9.487l-24.872-8.29V359.999h7.5c4.142,0,7.5-3.357,7.5-7.5v-82.5h7.5c12.407,0,22.5-10.094,22.5-22.5
	v-7.5h22.5c1.989,0,3.897-0.79,5.303-2.196l27.806-27.804h48.893c4.143,0,7.5-3.357,7.5-7.5v-30c0-4.143-3.357-7.5-7.5-7.5h-22.5
	v-15H274.501z M170.001,179.999h43.695c-3.109,8.73-11.44,15-21.195,15h-22.5V179.999z M62.5,179.999h50
	c6.893,0,12.5,5.607,12.5,12.5v2.5H72.484c-4.142,0-7.5,3.357-7.5,7.5s3.358,7.5,7.5,7.5h52.517v45H50v-62.5
	C50,185.606,55.608,179.999,62.5,179.999z M125.001,344.999H35v-42.835c0-11.686,3.905-22.981,11.038-32.165h78.962V344.999z
	 M155.001,247.499c0,4.136-3.364,7.5-7.5,7.5h-7.5v-15h15V247.499z M189.395,224.999h-49.394v-15h64.393L189.395,224.999z
	 M267.001,194.999h-44.545c3.285-4.363,5.643-9.461,6.779-15h37.766V194.999z"/>
<g>
</g>
<g>
</g>
<g>
</g>
<g>
</g>
<g>
</g>
<g>
</g>
<g>
</g>
<g>
</g>
<g>
</g>
<g>
</g>
<g>
</g>
<g>
</g>
<g>
</g>
<g>
</g>
<g>
</g>
</svg>
