<?xml version="1.0" encoding="iso-8859-1"?>
<!-- Generator: Adobe Illustrator 19.0.0, SVG Export Plug-In . SVG Version: 6.00 Build 0)  -->
<svg version="1.1" id="Capa_1" xmlns="http://www.w3.org/2000/svg" xmlns:xlink="http://www.w3.org/1999/xlink" x="0px" y="0px"
	 viewBox="0 0 512 512" style="enable-background:new 0 0 512 512;" xml:space="preserve">
<path style="fill:#49C9FF;" d="M76.471,258.41h69.796v61.426c-8.226,10.17-20.799,16.678-34.898,16.678s-26.672-6.508-34.898-16.678
	C76.471,319.836,76.471,258.41,76.471,258.41z"/>
<polygon style="fill:#CCCCCC;" points="96.413,171.996 126.325,171.996 146.266,291.646 76.471,291.646 "/>
<g>
	<path style="fill:#FFA754;" d="M126.325,171.996v209.387h29.912V191.938c0-11.018-8.924-19.942-19.942-19.942H126.325z"/>
	<path style="fill:#FFA754;" d="M66.5,191.938v189.445h29.912V171.996h-9.971C75.424,171.996,66.5,180.92,66.5,191.938z"/>
</g>
<path style="fill:#60312C;" d="M125.42,81.807l-14.051,60.276c24.78,0,44.869-20.088,44.869-44.869L125.42,81.807z"/>
<path style="fill:#85453D;" d="M126.325,97.215c0-5.413-0.32-10.603-0.905-15.408L84.445,61.322
	C73.549,69.508,66.5,82.538,66.5,97.215c0,24.78,20.088,44.869,44.869,44.869C119.629,142.084,126.325,121.996,126.325,97.215z"/>
<path style="fill:#CCCCCC;" d="M111.369,52.347l14.855,39.716c9.385,3.331,19.486,5.153,30.013,5.153
	C156.237,72.435,136.149,52.347,111.369,52.347z"/>
<g>
	<path style="fill:#FFFFFF;" d="M111.369,52.347c-10.102,0-19.424,3.34-26.924,8.976c10.501,13.979,24.993,24.783,41.779,30.741
		C125.372,69.711,119.047,52.347,111.369,52.347z"/>
	<circle style="fill:#FFFFFF;" cx="111.364" cy="29.912" r="22.434"/>
</g>
<path style="fill:#2DADE3;" d="M400.631,261.733v74.781c24.78,0,44.869-20.088,44.869-44.869L400.631,261.733z"/>
<path style="fill:#49C9FF;" d="M415.587,291.646l-14.956-29.912l-44.869,29.912c0,24.78,20.088,44.869,44.869,44.869
	C408.891,336.514,415.587,316.426,415.587,291.646z"/>
<path style="fill:#9DB55F;" d="M425.558,171.996h-29.912l19.942,119.649H445.5v-99.708
	C445.5,180.924,436.572,171.996,425.558,171.996z"/>
<path style="fill:#B9D171;" d="M395.646,171.996h-19.942c-11.014,0-19.942,8.928-19.942,19.942v99.708h59.825v-99.708
	C415.587,180.924,406.66,171.996,395.646,171.996z"/>
<path style="fill:#FFB4A9;" d="M400.631,52.347v100.705l44.869-45.866v-9.971C445.5,72.435,425.412,52.347,400.631,52.347z"/>
<path style="fill:#FFD9D4;" d="M400.631,52.347c-24.78,0-44.869,20.088-44.869,44.869v9.971l59.825,45.866V97.215
	C415.587,72.435,408.892,52.347,400.631,52.347z"/>
<path style="fill:#FF6337;" d="M419.286,107.186c-1.05-1.568-2.296-2.993-3.698-4.249l-14.956,69.059
	c24.78,0,44.869-20.088,44.869-44.869v-19.942H419.286z"/>
<path style="fill:#FF8646;" d="M415.587,127.128v-24.19c-3.969-3.556-9.208-5.722-14.956-5.722c-7.778,0-14.629,3.959-18.654,9.971
	h-26.214v19.942c0,24.78,20.088,44.869,44.869,44.869C408.892,171.996,415.587,151.908,415.587,127.128z"/>
<circle cx="248.562" cy="124.276" r="7.478"/>
<path d="M111.369,149.562c28.864,0,52.347-23.483,52.347-52.347c0-20.903-12.32-38.976-30.077-47.36
	c4.748-5.296,7.643-12.287,7.643-19.943C141.281,13.419,127.862,0,111.369,0S81.456,13.419,81.456,29.912
	c0,7.656,2.895,14.646,7.643,19.943c-3.033,1.432-5.906,3.147-8.587,5.111c-0.189,0.118-0.377,0.24-0.558,0.377
	c-0.208,0.157-0.406,0.321-0.592,0.495C67.001,65.421,59.022,80.4,59.022,97.215C59.022,126.079,82.504,149.562,111.369,149.562z
	 M147.912,89.318c-20.095-1.994-38.467-11.179-52.144-26.07c4.752-2.193,10.035-3.424,15.601-3.424
	C129.276,59.825,144.277,72.482,147.912,89.318z M96.413,29.912c0-8.247,6.709-14.956,14.956-14.956s14.956,6.709,14.956,14.956
	s-6.709,14.956-14.956,14.956S96.413,38.159,96.413,29.912z M83.649,72.151c16.643,18.748,39.46,30.155,64.418,32.204
	c-3.342,17.213-18.523,30.251-36.698,30.251c-20.618,0-37.39-16.773-37.39-37.39C73.978,87.58,77.643,78.787,83.649,72.151z"/>
<path d="M208.028,285.265c-3.037-17.587-18.393-31.01-36.834-31.01h-7.478v-62.317c0-15.119-12.3-27.42-27.42-27.42H86.442
	c-12.666,0-23.35,8.636-26.484,20.326c-28.541,3.258-50.789,27.547-50.789,56.947c0,29.078,21.764,53.151,49.854,56.829v82.763
	c0,4.131,3.348,7.478,7.478,7.478h7.478v16.665L30.38,470.44c-0.829,1.232-1.27,2.684-1.27,4.17v29.912
	c0,4.131,3.348,7.478,7.478,7.478s7.478-3.347,7.478-7.478v-27.634l43.598-64.914c0.829-1.232,1.27-2.684,1.27-4.17v-18.943h7.478
	c4.13,0,7.478-3.347,7.478-7.478v-37.932c2.466,0.353,4.96,0.541,7.478,0.541c2.518,0,5.012-0.188,7.478-0.541v37.932
	c0,4.131,3.348,7.478,7.478,7.478h7.478v104.195c0,3.22,2.06,6.077,5.113,7.094l29.912,9.971c0.785,0.261,1.581,0.386,2.366,0.386
	c3.131,0,6.048-1.981,7.093-5.115c1.306-3.919-0.812-8.154-4.73-9.459l-24.799-8.266v-98.806h7.478c4.13,0,7.478-3.347,7.478-7.478
	V269.211h7.478c10.332,0,19.049,7.021,21.644,16.543c-8.289,3.299-14.165,11.398-14.165,20.848c0,4.131,3.348,7.478,7.478,7.478
	s7.478-3.347,7.478-7.478c0-4.124,3.354-7.478,7.478-7.478c4.124,0,7.478,3.354,7.478,7.478v196.425
	c0,4.131,3.348,7.478,7.478,7.478s7.478-3.347,7.478-7.478V306.602C223.54,296.647,217.02,288.19,208.028,285.265z M118.847,179.474
	v104.693h-14.956V179.474H118.847z M24.124,241.792c0-20.814,15.088-38.158,34.898-41.702v83.403
	C39.212,279.95,24.124,262.606,24.124,241.792z M88.934,373.905H73.978V191.938c0-6.873,5.591-12.463,12.463-12.463h2.493V373.905z
	 M103.891,328.276v-29.153h14.956v29.154C113.929,329.266,108.808,329.266,103.891,328.276z M148.759,373.905h-14.956v-194.43h2.493
	c6.873,0,12.463,5.591,12.463,12.463V373.905z"/>
<path d="M272.512,114.482c1.385,2.399,3.899,3.74,6.483,3.74c1.268,0,2.555-0.323,3.732-1.003l12.214-7.051v14.105
	c0,4.131,3.348,7.478,7.478,7.478c4.13,0,7.478-3.347,7.478-7.478v-14.105l12.214,7.051c1.178,0.68,2.464,1.003,3.732,1.003
	c2.584,0,5.098-1.341,6.483-3.74c2.065-3.577,0.84-8.15-2.737-10.215l-12.214-7.051l12.214-7.051
	c3.577-2.065,4.802-6.639,2.737-10.215c-2.065-3.578-6.639-4.8-10.215-2.737l-12.214,7.051V70.158c0-4.131-3.348-7.478-7.478-7.478
	c-4.13,0-7.478,3.347-7.478,7.478v14.105l-12.214-7.051c-3.577-2.064-8.15-0.841-10.215,2.737c-2.065,3.577-0.84,8.15,2.737,10.215
	l12.214,7.051l-12.214,7.051C271.672,106.332,270.447,110.905,272.512,114.482z"/>
<path d="M248.558,107.549c4.13,0,7.478-3.347,7.478-7.478V70.158c0-4.131-3.348-7.478-7.478-7.478c-4.13,0-7.478,3.347-7.478,7.478
	v29.912C241.08,104.202,244.428,107.549,248.558,107.549z"/>
<path d="M502.832,241.792c0-29.4-22.248-53.689-50.789-56.947c-2.286-8.528-8.591-15.426-16.752-18.536
	c10.837-9.597,17.687-23.601,17.687-39.181V97.215c0-28.863-23.482-52.347-52.347-52.347s-52.347,23.483-52.347,52.347v29.912
	c0,15.58,6.85,29.583,17.687,39.181c-8.037,3.063-14.271,9.801-16.642,18.151H234.119c-4.13,0-7.478,3.347-7.478,7.478
	s3.348,7.478,7.478,7.478h114.166v92.23c0,14.227,5.713,27.141,14.956,36.585v159.435l-24.799,8.266
	c-3.919,1.306-6.035,5.542-4.73,9.459c1.045,3.134,3.962,5.115,7.093,5.115c0.784,0,1.581-0.125,2.366-0.386l29.912-9.971
	c3.054-1.018,5.113-3.876,5.113-7.094V338.931c6.804,3.241,14.41,5.061,22.434,5.061s15.63-1.821,22.434-5.061v148.735
	l-24.799,8.266c-3.919,1.306-6.035,5.542-4.73,9.459c1.045,3.134,3.962,5.115,7.093,5.115c0.784,0,1.581-0.125,2.366-0.386
	l29.912-9.971c3.054-1.018,5.113-3.876,5.113-7.094V328.23c7.692-7.86,12.927-18.125,14.47-29.548
	C480.816,295.22,502.832,271.037,502.832,241.792z M487.876,241.792c0,20.814-15.088,38.158-34.898,41.702v-83.403
	C472.788,203.633,487.876,220.978,487.876,241.792z M400.631,59.825c20.618,0,37.39,16.773,37.39,37.39v2.493h-15.095
	c-5.636-6.307-13.707-9.971-22.296-9.971c-8.589,0-16.659,3.664-22.296,9.971h-15.095v-2.493
	C363.241,76.598,380.014,59.825,400.631,59.825z M363.241,127.128v-12.463h18.737c2.495,0,4.826-1.244,6.214-3.317
	c2.789-4.167,7.439-6.654,12.44-6.654s9.652,2.487,12.441,6.654c1.389,2.073,3.719,3.317,6.214,3.317h18.736v12.463
	c0,20.618-16.773,37.39-37.39,37.39S363.241,147.745,363.241,127.128z M375.704,179.474h49.854c6.873,0,12.463,5.591,12.463,12.463
	v92.23h-74.781v-92.23C363.241,185.065,368.832,179.474,375.704,179.474z M363.994,299.124h73.276
	c-3.474,17.046-18.581,29.912-36.638,29.912C382.575,329.036,367.467,316.17,363.994,299.124z"/>
<g>
</g>
<g>
</g>
<g>
</g>
<g>
</g>
<g>
</g>
<g>
</g>
<g>
</g>
<g>
</g>
<g>
</g>
<g>
</g>
<g>
</g>
<g>
</g>
<g>
</g>
<g>
</g>
<g>
</g>
</svg>
