<?xml version="1.0" encoding="iso-8859-1"?>
<!-- Generator: Adobe Illustrator 19.0.0, SVG Export Plug-In . SVG Version: 6.00 Build 0)  -->
<svg version="1.1" id="Capa_1" xmlns="http://www.w3.org/2000/svg" xmlns:xlink="http://www.w3.org/1999/xlink" x="0px" y="0px"
	 viewBox="0 0 512 512" style="enable-background:new 0 0 512 512;" xml:space="preserve">
<path style="fill:#FFB4A9;" d="M337.263,52.347v100.705l44.869-45.866v-9.971C382.132,72.435,362.043,52.347,337.263,52.347z"/>
<path style="fill:#FFD9D4;" d="M337.263,52.347c-24.78,0-44.869,20.088-44.869,44.869v9.971l59.825,45.866V97.215
	C352.219,72.435,345.523,52.347,337.263,52.347z"/>
<path style="fill:#FF6337;" d="M355.917,107.186c-1.05-1.568-2.296-2.993-3.698-4.249l-14.956,69.059
	c24.78,0,44.869-20.088,44.869-44.869v-19.942H355.917z"/>
<path style="fill:#FF8646;" d="M352.219,127.128v-24.19c-3.969-3.556-9.208-5.722-14.956-5.722c-7.778,0-14.629,3.959-18.654,9.971
	h-26.214v19.942c0,24.78,20.088,44.869,44.869,44.869C345.523,171.996,352.219,151.908,352.219,127.128z"/>
<path style="fill:#808080;" d="M337.263,261.733v74.781c24.78,0,44.869-20.088,44.869-44.869L337.263,261.733z"/>
<path style="fill:#999999;" d="M352.219,291.646l-29.912-29.912l-29.912,29.912c0,24.78,20.088,44.869,44.869,44.869
	C345.523,336.514,352.219,316.426,352.219,291.646z"/>
<path style="fill:#353535;" d="M362.19,171.996l-44.869,14.956l19.942,104.693h44.869v-99.708
	C382.132,180.924,373.204,171.996,362.19,171.996z"/>
<path style="fill:#4F4F4F;" d="M312.336,171.996c-11.014,0-19.942,8.928-19.942,19.942v99.708h44.869v-74.781L312.336,171.996z"/>
<polygon style="fill:#FFFFFF;" points="362.19,171.996 312.336,171.996 337.263,216.865 "/>
<polygon style="fill:#353535;" points="367.175,7.478 367.175,37.39 322.307,52.347 337.263,7.478 "/>
<polygon style="fill:#4F4F4F;" points="307.351,7.478 307.351,37.39 337.263,52.347 337.263,7.478 "/>
<polygon style="fill:#FFE2A8;" points="337.263,37.39 322.307,52.347 337.263,67.303 367.175,67.303 367.175,37.39 "/>
<rect x="307.351" y="37.39" style="fill:#FFF0D3;" width="29.912" height="29.912"/>
<path style="fill:#49C9FF;" d="M107.935,258.41h69.796v61.426c-8.226,10.17-20.799,16.678-34.898,16.678
	s-26.672-6.508-34.898-16.678V258.41z"/>
<polygon style="fill:#CCCCCC;" points="127.876,171.996 157.789,171.996 177.73,291.646 107.935,291.646 "/>
<g>
	<path style="fill:#FFA754;" d="M157.789,171.996v209.387h29.912V191.938c0-11.018-8.924-19.942-19.942-19.942H157.789z"/>
	<path style="fill:#FFA754;" d="M97.964,191.938v189.445h29.912V171.996h-9.971C106.888,171.996,97.964,180.92,97.964,191.938z"/>
</g>
<path style="fill:#60312C;" d="M156.883,81.807l-14.051,60.276c24.78,0,44.869-20.088,44.869-44.869L156.883,81.807z"/>
<path style="fill:#85453D;" d="M157.789,97.215c0-5.413-0.32-10.603-0.905-15.408l-40.975-20.486
	c-10.895,8.187-17.944,21.217-17.944,35.894c0,24.78,20.088,44.869,44.869,44.869C151.092,142.084,157.789,121.996,157.789,97.215z"
	/>
<path style="fill:#CCCCCC;" d="M142.833,52.347l14.855,39.716c9.385,3.331,19.486,5.153,30.013,5.153
	C187.701,72.435,167.613,52.347,142.833,52.347z"/>
<g>
	<path style="fill:#FFFFFF;" d="M142.833,52.347c-10.102,0-19.424,3.34-26.924,8.976c10.501,13.979,24.993,24.783,41.779,30.741
		C156.836,69.711,150.511,52.347,142.833,52.347z"/>
	<circle style="fill:#FFFFFF;" cx="142.833" cy="29.912" r="22.434"/>
</g>
<path d="M503.775,184.46h-115.21c-2.371-8.351-8.605-15.088-16.642-18.151c10.837-9.597,17.687-23.601,17.687-39.181V97.215
	c0-7.837-1.757-15.483-5.056-22.434h12.534c4.13,0,7.478-3.347,7.478-7.478s-3.348-7.478-7.478-7.478h-22.434V7.478
	c0-4.131-3.348-7.478-7.478-7.478h-59.825c-4.13,0-7.478,3.347-7.478,7.478v52.347h-22.434c-4.13,0-7.478,3.347-7.478,7.478
	s3.348,7.478,7.478,7.478h12.534c-3.299,6.952-5.056,14.597-5.056,22.434v29.912c0,15.58,6.85,29.583,17.687,39.181
	c-8.229,3.136-14.573,10.12-16.812,18.746c-17.478,3.129-30.788,18.431-30.788,36.795v39.883c0,18.218,13.098,33.424,30.37,36.72
	c1.504,11.515,6.755,21.865,14.499,29.778v159.435l-24.799,8.266c-3.919,1.306-6.035,5.542-4.73,9.459
	c1.045,3.134,3.962,5.115,7.093,5.115c0.784,0,1.581-0.125,2.366-0.386l29.912-9.971c3.054-1.018,5.113-3.876,5.113-7.094V338.931
	c6.804,3.241,14.41,5.061,22.434,5.061s15.63-1.821,22.434-5.061v154.124c0,3.22,2.06,6.077,5.113,7.094l29.912,9.971
	c0.785,0.261,1.581,0.386,2.366,0.386c3.131,0,6.048-1.981,7.093-5.115c1.306-3.919-0.812-8.154-4.73-9.459l-24.799-8.266V328.23
	c9.243-9.445,14.956-22.358,14.956-36.585v-92.23h114.166c4.13,0,7.478-3.347,7.478-7.478S507.905,184.46,503.775,184.46z
	 M374.653,284.167h-29.912v-65.365l21.472-38.65c4.902,1.679,8.44,6.321,8.44,11.784V284.167z M349.481,179.474l-12.218,21.993
	l-12.218-21.993H349.481z M367.172,74.781c4.843,6.447,7.481,14.298,7.481,22.434v2.493h-15.095
	c-5.635-6.307-13.706-9.971-22.296-9.971s-16.659,3.664-22.296,9.971h-15.095v-2.493c0-8.135,2.639-15.986,7.481-22.434H367.172z
	 M359.697,14.956v14.956h-44.869V14.956H359.697z M314.829,44.869h44.869v14.956h-44.869V44.869z M299.872,127.128v-12.463h18.737
	c2.495,0,4.826-1.244,6.214-3.318c2.789-4.166,7.439-6.653,12.44-6.653s9.651,2.487,12.44,6.653
	c1.388,2.074,3.719,3.318,6.214,3.318h18.737v12.463c0,20.618-16.773,37.39-37.39,37.39S299.872,147.745,299.872,127.128z
	 M308.313,180.153l21.472,38.65v65.365h-29.912v-92.23C299.872,186.475,303.411,181.831,308.313,180.153z M269.96,261.733V221.85
	c0-9.748,6.253-18.061,14.956-21.148v82.179C276.213,279.794,269.96,271.482,269.96,261.733z M300.625,299.124h73.276
	c-3.474,17.046-18.581,29.912-36.638,29.912C319.207,329.036,304.099,316.17,300.625,299.124z"/>
<path d="M142.833,149.562c28.864,0,52.347-23.483,52.347-52.347c0-20.903-12.32-38.976-30.077-47.36
	c4.748-5.296,7.643-12.287,7.643-19.943C172.745,13.419,159.326,0,142.833,0S112.92,13.419,112.92,29.912
	c0,7.656,2.895,14.646,7.643,19.943c-3.033,1.433-5.906,3.148-8.588,5.111c-0.189,0.118-0.376,0.24-0.557,0.377
	c-0.208,0.157-0.406,0.321-0.592,0.495C98.465,65.421,90.486,80.4,90.486,97.215C90.486,126.079,113.968,149.562,142.833,149.562z
	 M179.376,89.318c-20.095-1.994-38.467-11.179-52.144-26.07c4.752-2.193,10.034-3.424,15.6-3.424
	C160.74,59.825,175.741,72.482,179.376,89.318z M127.876,29.912c0-8.247,6.709-14.956,14.956-14.956
	c8.247,0,14.956,6.709,14.956,14.956s-6.709,14.956-14.956,14.956C134.586,44.869,127.876,38.159,127.876,29.912z M115.113,72.151
	c16.643,18.748,39.46,30.155,64.418,32.204c-3.342,17.213-18.523,30.251-36.698,30.251c-20.618,0-37.39-16.773-37.39-37.39
	C105.442,87.58,109.106,78.787,115.113,72.151z"/>
<path d="M239.492,285.265c-3.038-17.587-18.393-31.01-36.835-31.01h-7.478v-62.317c0-15.119-12.3-27.42-27.42-27.42h-49.854
	c-12.429,0-22.946,8.315-26.298,19.671c-42.396-3.259-75.903-38.773-75.903-81.989c0-4.131-3.348-7.478-7.478-7.478
	s-7.478,3.347-7.478,7.478c0,51.088,39.613,93.099,89.737,96.93v182.252c0,4.131,3.348,7.478,7.478,7.478h7.478v16.665
	L61.844,470.44c-0.829,1.232-1.27,2.684-1.27,4.17v29.912c0,4.131,3.348,7.478,7.478,7.478c4.13,0,7.478-3.347,7.478-7.478v-27.634
	l43.598-64.914c0.829-1.232,1.27-2.684,1.27-4.17v-18.943h7.478c4.13,0,7.478-3.347,7.478-7.478v-37.932
	c2.466,0.353,4.96,0.541,7.478,0.541c2.518,0,5.012-0.188,7.478-0.541v37.932c0,4.131,3.348,7.478,7.478,7.478h7.478v104.195
	c0,3.22,2.06,6.077,5.113,7.094l29.912,9.971c0.785,0.261,1.581,0.386,2.366,0.386c3.131,0,6.048-1.981,7.093-5.115
	c1.306-3.919-0.812-8.154-4.73-9.459l-24.799-8.266v-98.806h7.478c4.13,0,7.478-3.347,7.478-7.478V269.211h7.478
	c10.332,0,19.049,7.021,21.644,16.543c-8.289,3.299-14.165,11.398-14.165,20.848c0,4.131,3.348,7.478,7.478,7.478
	s7.478-3.347,7.478-7.478c0-4.124,3.354-7.478,7.478-7.478s7.478,3.354,7.478,7.478v196.425c0,4.131,3.348,7.478,7.478,7.478
	s7.478-3.347,7.478-7.478V306.602C255.004,296.647,248.484,288.19,239.492,285.265z M150.311,179.474v104.693h-14.956V179.474
	H150.311z M120.398,373.905h-14.956V191.938c0-6.873,5.591-12.463,12.463-12.463h2.493V373.905z M135.354,328.276v-29.153h14.956
	v29.154C145.393,329.266,140.272,329.266,135.354,328.276z M180.223,373.905h-14.956v-194.43h2.493
	c6.873,0,12.463,5.591,12.463,12.463V373.905z"/>
<g>
</g>
<g>
</g>
<g>
</g>
<g>
</g>
<g>
</g>
<g>
</g>
<g>
</g>
<g>
</g>
<g>
</g>
<g>
</g>
<g>
</g>
<g>
</g>
<g>
</g>
<g>
</g>
<g>
</g>
</svg>
