<?xml version="1.0" encoding="iso-8859-1"?>
<!-- Generator: Adobe Illustrator 19.0.0, SVG Export Plug-In . SVG Version: 6.00 Build 0)  -->
<svg version="1.1" id="Capa_1" xmlns="http://www.w3.org/2000/svg" xmlns:xlink="http://www.w3.org/1999/xlink" x="0px" y="0px"
	 viewBox="0 0 512.002 512.002" style="enable-background:new 0 0 512.002 512.002;" xml:space="preserve">
<path style="fill:#2DADE3;" d="M406.001,262.5v75c24.853,0,45-20.147,45-45L406.001,262.5z"/>
<path style="fill:#49C9FF;" d="M421.001,292.5l-15-30l-45,30c0,24.853,20.147,45,45,45C414.285,337.5,421.001,317.352,421.001,292.5
	z"/>
<path style="fill:#9DB55F;" d="M431.001,172.499h-30l20,120h30v-100C451.001,181.454,442.046,172.499,431.001,172.499z"/>
<path style="fill:#B9D171;" d="M401.001,172.499h-20c-11.046,0-20,8.954-20,20v100h60v-100
	C421.001,181.454,412.046,172.499,401.001,172.499z"/>
<path style="fill:#FFB4A9;" d="M406.001,52.5v101l45-46v-10C451.001,72.647,430.854,52.5,406.001,52.5z"/>
<path style="fill:#FFD9D4;" d="M406.001,52.5c-24.853,0-45,20.147-45,45v10l60,46v-56C421.001,72.647,414.285,52.5,406.001,52.5z"/>
<path style="fill:#FF6337;" d="M424.709,107.5c-1.053-1.573-2.303-3.002-3.709-4.261L406,172.5c24.853,0,45-20.147,45-45v-20
	H424.709z"/>
<path style="fill:#FF8646;" d="M421.001,127.5v-24.261c-3.981-3.566-9.235-5.739-15-5.739c-7.801,0-14.672,3.971-18.709,10h-26.291
	v20c0,24.853,20.147,45,45,45C414.285,172.5,421.001,152.352,421.001,127.5z"/>
<polygon style="fill:#A8E5FF;" points="301.001,7.499 316.001,22.499 316.001,162.5 286.001,162.5 286.001,22.499 "/>
<path style="fill:#60312C;" d="M106.001,262.5v75c24.853,0,45-20.147,45-45L106.001,262.5z"/>
<path style="fill:#85453D;" d="M121.001,292.5l-15-30l-45,30c0,24.853,20.147,45,45,45C114.285,337.5,121.001,317.352,121.001,292.5
	z"/>
<path style="fill:#FFA754;" d="M131.001,172.499h-30l20,120h30v-100C151.001,181.454,142.046,172.499,131.001,172.499z"/>
<path style="fill:#FFCB63;" d="M101.001,172.499h-20c-11.046,0-20,8.954-20,20v100h60v-100
	C121.001,181.454,112.046,172.499,101.001,172.499z"/>
<path style="fill:#FF8D7E;" d="M106.001,52.5v90c24.853,0,45-20.147,45-45S130.854,52.5,106.001,52.5z"/>
<path style="fill:#FFB4A9;" d="M121.001,97.5c0-24.853-6.716-45-15-45c-24.853,0-45,20.147-45,45s20.147,45,45,45
	C114.285,142.5,121.001,122.352,121.001,97.5z"/>
<polygon style="fill:#A8E5FF;" points="211.001,7.499 196.001,22.499 196.001,162.5 226.001,162.5 226.001,22.499 "/>
<path d="M406.001,45c-28.948,0-52.5,23.552-52.5,52.5v30c0,15.626,6.87,29.67,17.739,39.296c-8.061,3.072-14.313,9.83-16.691,18.204
	h-46.048v-15h22.5c4.143,0,7.5-3.357,7.5-7.5s-3.357-7.5-7.5-7.5h-7.5V22.5c0-1.989-0.79-3.896-2.196-5.304l-15-15
	c-2.93-2.928-7.678-2.928-10.607,0l-15,15c-1.406,1.407-2.196,3.314-2.196,5.304v110c0,4.143,3.357,7.5,7.5,7.5s7.5-3.357,7.5-7.5
	V25.606l7.5-7.5l7.5,7.5V155h-37.5c-4.143,0-7.5,3.357-7.5,7.5s3.357,7.5,7.5,7.5h22.5v15h-7.5c-12.406,0-22.5,10.094-22.5,22.5
	s10.094,22.5,22.5,22.5h67.5v62.5c0,14.269,5.73,27.22,15,36.692v159.903l-24.872,8.29c-3.93,1.31-6.053,5.558-4.743,9.487
	c1.048,3.143,3.974,5.13,7.114,5.13c0.786,0,1.586-0.125,2.373-0.387l30-10c3.063-1.021,5.128-3.887,5.128-7.115V339.923
	c6.824,3.251,14.452,5.076,22.5,5.076s15.676-1.825,22.5-5.076v149.171l-24.872,8.29c-3.93,1.31-6.053,5.558-4.743,9.487
	c1.048,3.143,3.974,5.13,7.114,5.13c0.786,0,1.586-0.125,2.373-0.387l30-10c3.063-1.021,5.128-3.887,5.128-7.115V329.191
	c9.27-9.472,15-22.423,15-36.692v-100c0-11.727-7.381-21.757-17.739-25.704c10.869-9.625,17.739-23.67,17.739-39.296v-30
	C458.501,68.551,434.949,45,406.001,45z M406.001,60c20.678,0,37.5,16.822,37.5,37.5v2.5h-15.139c-5.653-6.324-13.747-10-22.361-10
	s-16.708,3.676-22.361,10h-15.139v-2.5C368.501,76.822,385.323,60,406.001,60z M278.501,207.5c0-4.136,3.364-7.5,7.5-7.5h7.5v15
	h-7.5C281.865,215,278.501,211.635,278.501,207.5z M308.501,215v-15h45v15H308.501z M369.255,300h73.491
	c-3.484,17.096-18.635,30-36.745,30S372.74,317.096,369.255,300z M431.001,180c6.893,0,12.5,5.607,12.5,12.5V285h-75v-55h4.216
	c20.242,0,39.273-7.883,53.588-22.196c2.929-2.93,2.929-7.678,0-10.607c-2.93-2.928-7.678-2.928-10.607,0
	C404.217,208.677,388.953,215,372.717,215h-4.216v-22.5c0-6.893,5.607-12.5,12.5-12.5H431.001z M406.001,165
	c-20.678,0-37.5-16.822-37.5-37.5V115h18.791c2.502,0,4.84-1.248,6.232-3.327c2.797-4.179,7.462-6.673,12.477-6.673
	s9.68,2.494,12.477,6.673c1.393,2.079,3.73,3.327,6.232,3.327h18.791v12.5C443.501,148.177,426.678,165,406.001,165z"/>
<path d="M106.001,150c28.948,0,52.5-23.552,52.5-52.5S134.949,45,106.001,45s-52.5,23.552-52.5,52.5S77.052,150,106.001,150z
	 M106.001,60c20.678,0,37.5,16.822,37.5,37.5s-16.822,37.5-37.5,37.5s-37.5-16.822-37.5-37.5S85.323,60,106.001,60z"/>
<path d="M241.001,170c4.143,0,7.5-3.357,7.5-7.5s-3.357-7.5-7.5-7.5h-7.5V22.5c0-1.989-0.79-3.896-2.196-5.304l-15-15
	c-2.93-2.928-7.678-2.928-10.607,0l-15,15c-1.406,1.407-2.196,3.314-2.196,5.304V155h-7.5c-4.143,0-7.5,3.357-7.5,7.5
	s3.357,7.5,7.5,7.5h22.5v15h-46.048c-3.274-11.528-13.889-20-26.452-20h-50c-15.163,0-27.5,12.337-27.5,27.5v100
	c0,14.269,5.73,27.22,15,36.692V494.5c0,3.229,2.065,6.095,5.128,7.115l30,10c0.787,0.262,1.587,0.387,2.373,0.387
	c3.141,0,6.066-1.987,7.114-5.13c1.31-3.93-0.813-8.178-4.743-9.487l-24.872-8.29V339.923c6.824,3.251,14.452,5.076,22.5,5.076
	s15.676-1.825,22.5-5.076V494.5c0,3.229,2.065,6.095,5.128,7.115l30,10c0.787,0.262,1.587,0.387,2.373,0.387
	c3.141,0,6.066-1.987,7.114-5.13c1.31-3.93-0.813-8.178-4.743-9.487l-24.872-8.29V329.191c9.27-9.472,15-22.423,15-36.692V230h67.5
	c12.406,0,22.5-10.094,22.5-22.5s-10.094-22.5-22.5-22.5h-7.5v-15H241.001z M69.255,300h73.491c-3.484,17.096-18.635,30-36.745,30
	S72.74,317.096,69.255,300z M143.501,285h-75v-92.5c0-6.893,5.607-12.5,12.5-12.5h50c6.893,0,12.5,5.607,12.5,12.5V215h-4.216
	c-16.236,0-31.5-6.322-42.98-17.804c-2.93-2.928-7.678-2.928-10.607,0c-2.929,2.93-2.929,7.678,0,10.607
	C100.011,222.117,119.043,230,139.285,230h4.216V285z M158.501,200h45v15h-45V200z M226.001,200c4.136,0,7.5,3.364,7.5,7.5
	s-3.364,7.5-7.5,7.5h-7.5v-15H226.001z M203.501,25.606l7.5-7.5l7.5,7.5V155h-15V25.606z"/>
<g>
</g>
<g>
</g>
<g>
</g>
<g>
</g>
<g>
</g>
<g>
</g>
<g>
</g>
<g>
</g>
<g>
</g>
<g>
</g>
<g>
</g>
<g>
</g>
<g>
</g>
<g>
</g>
<g>
</g>
</svg>
