<?xml version="1.0" encoding="iso-8859-1"?>
<!-- Generator: Adobe Illustrator 19.0.0, SVG Export Plug-In . SVG Version: 6.00 Build 0)  -->
<svg version="1.1" id="Capa_1" xmlns="http://www.w3.org/2000/svg" xmlns:xlink="http://www.w3.org/1999/xlink" x="0px" y="0px"
	 viewBox="0 0 512.001 512.001" style="enable-background:new 0 0 512.001 512.001;" xml:space="preserve">
<path style="fill:#2DADE3;" d="M279.501,262.499v75c24.853,0,45-20.147,45-45L279.501,262.499z"/>
<path style="fill:#49C9FF;" d="M294.501,292.499l-15-30l-45,30c0,24.853,20.147,45,45,45
	C287.785,337.499,294.501,317.352,294.501,292.499z"/>
<path style="fill:#9DB55F;" d="M304.501,172.499h-30l20,120h30v-100C324.501,181.453,315.547,172.499,304.501,172.499z"/>
<path style="fill:#B9D171;" d="M274.501,172.499h-20c-11.046,0-20,8.954-20,20v100h60v-100
	C294.501,181.453,285.547,172.499,274.501,172.499z"/>
<path style="fill:#FFB4A9;" d="M279.501,52.499v101l45-46v-10C324.501,72.646,304.354,52.499,279.501,52.499z"/>
<path style="fill:#FFD9D4;" d="M279.501,52.499c-24.853,0-45,20.147-45,45v10l60,46v-56
	C294.501,72.646,287.785,52.499,279.501,52.499z"/>
<path style="fill:#FF6337;" d="M298.21,107.499c-1.053-1.573-2.303-3.002-3.709-4.261l-15,69.261c24.853,0,45-20.147,45-45v-20
	H298.21z"/>
<path style="fill:#FF8646;" d="M294.501,127.499v-24.261c-3.981-3.566-9.235-5.739-15-5.739c-7.801,0-14.672,3.971-18.709,10
	h-26.291v20c0,24.853,20.147,45,45,45C287.785,172.499,294.501,152.352,294.501,127.499z"/>
<path style="fill:#FF8D7E;" d="M429.501,52.499v90c24.853,0,45-20.147,45-45S454.354,52.499,429.501,52.499z"/>
<path style="fill:#FFB4A9;" d="M444.501,97.499c0-24.853-6.716-45-15-45c-24.853,0-45,20.147-45,45s20.147,45,45,45
	C437.785,142.499,444.501,122.352,444.501,97.499z"/>
<path style="fill:#60312C;" d="M429.501,262.499v75c24.853,0,45-20.147,45-45L429.501,262.499z"/>
<path style="fill:#85453D;" d="M444.501,292.499l-15-30l-45,30c0,24.853,20.147,45,45,45
	C437.785,337.499,444.501,317.352,444.501,292.499z"/>
<path style="fill:#FFA754;" d="M454.501,172.499h-30l20,120h30v-100C474.501,181.453,465.547,172.499,454.501,172.499z"/>
<path style="fill:#FFCB63;" d="M424.501,172.499h-20c-11.046,0-20,8.954-20,20v100h60v-100
	C444.501,181.453,435.547,172.499,424.501,172.499z"/>
<path style="fill:#2DADE3;" d="M92.501,172.499h-30v120l50-30v-70C112.501,181.453,103.547,172.499,92.501,172.499z"/>
<path style="fill:#49C9FF;" d="M62.501,172.499h-20c-11.046,0-20,8.954-20,20v100h60v-100
	C82.501,181.453,73.547,172.499,62.501,172.499z"/>
<polygon style="fill:#FF4128;" points="112.501,262.499 82.501,262.499 52.501,307.499 82.501,352.499 112.501,352.499 "/>
<path style="fill:#FF6337;" d="M82.501,262.499h-60c-9.329,10.575-15,24.454-15,39.665v50.335h75V262.499z"/>
<circle style="fill:#60312C;" cx="67.5" cy="29.999" r="22.5"/>
<path style="fill:#A45E43;" d="M101.756,68.334c0.01-0.01-34.255-0.005-34.255-0.005v74.17c24.85,0,45-20.15,45-45
	C112.501,86.379,108.456,76.184,101.756,68.334z"/>
<path style="fill:#C27749;" d="M81.391,80.509L33.246,68.334c-6.7,7.85-10.745,18.045-10.745,29.165c0,24.85,20.15,45,45,45
	c8.28,0,15-20.15,15-45C82.501,91.489,82.111,85.749,81.391,80.509z"/>
<path style="fill:#40211D;" d="M67.501,52.499l13.89,28.01c7.45-2.23,14.475-6.295,20.365-12.175
	C93.506,58.644,81.221,52.499,67.501,52.499z"/>
<path style="fill:#60312C;" d="M67.501,52.499c-13.72,0-26.005,6.145-34.255,15.835c13.04,13.04,31.645,17.105,48.145,12.175
	C79.161,64.079,73.781,52.499,67.501,52.499z"/>
<path d="M429.501,149.999c28.948,0,52.5-23.552,52.5-52.5s-23.552-52.5-52.5-52.5s-52.5,23.552-52.5,52.5
	S400.553,149.999,429.501,149.999z M429.501,59.999c20.678,0,37.5,16.822,37.5,37.5s-16.822,37.5-37.5,37.5s-37.5-16.822-37.5-37.5
	S408.823,59.999,429.501,59.999z"/>
<path d="M481.123,185.596c-3.071-11.833-13.842-20.597-26.622-20.597h-50c-12.78,0-23.552,8.764-26.622,20.597
	c-9.511,1.703-17.794,6.994-23.378,14.429c-5.584-7.435-13.867-12.726-23.378-14.429c-2.245-8.651-8.608-15.656-16.861-18.801
	c10.869-9.625,17.739-23.67,17.739-39.296v-30c0-28.948-23.552-52.5-52.5-52.5c-28.949,0-52.5,23.552-52.5,52.5v30
	c0,15.626,6.87,29.67,17.739,39.296c-7.888,3.006-14.048,9.539-16.537,17.665c-17.688-3.005-31.202-18.43-31.202-36.96v-85
	c0-4.143-3.358-7.5-7.5-7.5s-7.5,3.357-7.5,7.5v85c0,26.401,19.593,48.304,45,51.956v93.043c0,14.269,5.73,27.22,15,36.692v159.902
	l-24.872,8.29c-3.93,1.31-6.053,5.558-4.744,9.487c1.048,3.143,3.974,5.13,7.114,5.13c0.786,0,1.586-0.125,2.373-0.387l30-10
	c3.063-1.021,5.128-3.887,5.128-7.115V339.923c6.824,3.25,14.452,5.076,22.5,5.076s15.676-1.825,22.5-5.076v154.576
	c0,3.229,2.065,6.095,5.128,7.115l30,10c0.787,0.262,1.587,0.387,2.373,0.387c3.141,0,6.066-1.987,7.114-5.13
	c1.31-3.93-0.813-8.178-4.743-9.487L317,489.094V329.191c7.766-7.936,13.034-18.315,14.542-29.864
	c9.335-1.782,17.456-7.027,22.958-14.354c5.502,7.326,13.623,12.572,22.958,14.354c1.508,11.549,6.775,21.929,14.542,29.864v159.903
	l-24.872,8.29c-3.93,1.31-6.053,5.558-4.743,9.487c1.048,3.143,3.974,5.13,7.114,5.13c0.786,0,1.586-0.125,2.373-0.387l30-10
	c3.063-1.021,5.128-3.887,5.128-7.115V339.923c6.824,3.251,14.452,5.076,22.5,5.076s15.676-1.825,22.5-5.076v149.171l-24.872,8.29
	c-3.93,1.31-6.053,5.558-4.743,9.487c1.048,3.143,3.974,5.13,7.114,5.13c0.786,0,1.586-0.125,2.373-0.387l30-10
	c3.063-1.021,5.128-3.887,5.128-7.115V329.191c7.766-7.936,13.034-18.315,14.542-29.864C498.864,296.021,512,280.77,512,262.499v-40
	C512.001,204.082,498.652,188.734,481.123,185.596z M404.501,179.999h50c6.893,0,12.5,5.607,12.5,12.5v92.5h-75v-92.5
	C392.001,185.606,397.608,179.999,404.501,179.999z M279.501,59.999c20.678,0,37.5,16.822,37.5,37.5v2.5h-15.139
	c-5.653-6.324-13.747-10-22.361-10s-16.708,3.676-22.361,10h-15.139v-2.5C242.001,76.821,258.823,59.999,279.501,59.999z
	 M242.001,127.499v-12.5h18.791c2.502,0,4.84-1.248,6.232-3.327c2.797-4.179,7.462-6.673,12.477-6.673s9.68,2.494,12.477,6.673
	c1.393,2.079,3.73,3.327,6.232,3.327h18.791v12.5c0,20.678-16.822,37.5-37.5,37.5S242.001,148.177,242.001,127.499z
	 M254.501,179.999h50c6.893,0,12.5,5.607,12.5,12.5v92.5h-75v-92.5C242.001,185.606,247.608,179.999,254.501,179.999z
	 M242.756,299.999h73.491c-3.484,17.096-18.635,30-36.745,30S246.24,317.095,242.756,299.999z M332.001,283.709v-82.42
	c8.729,3.096,15,11.433,15,21.21v40C347.001,272.276,340.73,280.613,332.001,283.709z M362.001,262.499v-40
	c0-9.777,6.271-18.114,15-21.21v82.42C368.272,280.613,362.001,272.276,362.001,262.499z M392.756,299.999h73.491
	c-3.484,17.096-18.635,30-36.745,30S396.24,317.095,392.756,299.999z M497.001,262.499c0,9.777-6.271,18.114-15,21.21v-82.42
	c8.729,3.096,15,11.433,15,21.21V262.499z"/>
<path d="M157.501,54.999c-4.142,0-7.5,3.357-7.5,7.5v85c0,18.531-13.514,33.955-31.202,36.96
	c-3.447-11.252-13.931-19.46-26.298-19.46h-50c-15.164,0-27.5,12.337-27.5,27.5v67.259c-9.693,11.989-15,26.935-15,42.406v50.335
	c0,4.143,3.358,7.5,7.5,7.5h22.5v134.5c0,3.229,2.066,6.095,5.128,7.115l30,10c0.787,0.262,1.586,0.387,2.373,0.387
	c3.14,0,6.066-1.987,7.114-5.13c1.31-3.93-0.814-8.178-4.744-9.487L45,489.094V359.999h45v134.5c0,3.229,2.066,6.095,5.128,7.115
	l30,10c0.787,0.262,1.586,0.387,2.373,0.387c3.14,0,6.066-1.987,7.114-5.13c1.31-3.93-0.814-8.178-4.744-9.487l-24.872-8.29V359.999
	h7.5c4.142,0,7.5-3.357,7.5-7.5V199.455c25.407-3.651,45-25.554,45-51.956v-85C165.001,58.356,161.643,54.999,157.501,54.999z
	 M42.501,179.999h50c6.893,0,12.5,5.607,12.5,12.5v62.5h-75v-62.5C30.001,185.606,35.608,179.999,42.501,179.999z M15.001,344.999
	v-42.835c0-11.687,3.906-22.982,11.039-32.165h78.961v75H15.001z"/>
<path d="M67.501,149.999c28.949,0,52.5-23.552,52.5-52.5c0-12.814-4.621-24.565-12.275-33.689c-0.205-0.269-0.422-0.532-0.668-0.777
	c-4.778-5.462-10.622-9.916-17.222-13.032c4.762-5.312,7.665-12.323,7.665-20.001c0-16.542-13.458-30-30-30s-30,13.458-30,30
	c0,7.678,2.903,14.689,7.665,20.001c-6.6,3.116-12.444,7.57-17.194,13.006c-0.274,0.271-0.491,0.534-0.696,0.803
	c-7.654,9.124-12.275,20.875-12.275,33.689C15.001,126.447,38.552,149.999,67.501,149.999z M67.501,134.999
	c-20.678,0-37.5-16.822-37.5-37.5c0-6.567,1.702-12.742,4.68-18.116c9.75,7.072,21.284,10.615,32.82,10.615
	s23.07-3.543,32.82-10.615c2.978,5.374,4.68,11.549,4.68,18.116C105.001,118.177,88.179,134.999,67.501,134.999z M44.479,67.93
	c6.36-4.963,14.348-7.931,23.022-7.931s16.662,2.968,23.022,7.931C76.684,77.35,58.318,77.35,44.479,67.93z M52.501,29.999
	c0-8.271,6.729-15,15-15s15,6.729,15,15s-6.729,15-15,15S52.501,38.27,52.501,29.999z"/>
<g>
</g>
<g>
</g>
<g>
</g>
<g>
</g>
<g>
</g>
<g>
</g>
<g>
</g>
<g>
</g>
<g>
</g>
<g>
</g>
<g>
</g>
<g>
</g>
<g>
</g>
<g>
</g>
<g>
</g>
</svg>
