<?xml version="1.0" encoding="iso-8859-1"?>
<!-- Generator: Adobe Illustrator 19.0.0, SVG Export Plug-In . SVG Version: 6.00 Build 0)  -->
<svg version="1.1" id="Capa_1" xmlns="http://www.w3.org/2000/svg" xmlns:xlink="http://www.w3.org/1999/xlink" x="0px" y="0px"
	 viewBox="0 0 512.001 512.001" style="enable-background:new 0 0 512.001 512.001;" xml:space="preserve">
<path style="fill:#2DADE3;" d="M279.504,262.499v75c24.853,0,45-20.147,45-45L279.504,262.499z"/>
<path style="fill:#49C9FF;" d="M294.504,292.499l-15-30l-45,30c0,24.853,20.147,45,45,45
	C287.788,337.499,294.504,317.352,294.504,292.499z"/>
<path style="fill:#9DB55F;" d="M304.504,172.499h-30l20,120h30v-100C324.504,181.453,315.55,172.499,304.504,172.499z"/>
<path style="fill:#B9D171;" d="M274.504,172.499h-20c-11.046,0-20,8.954-20,20v100h60v-100
	C294.504,181.453,285.55,172.499,274.504,172.499z"/>
<path style="fill:#FFB4A9;" d="M279.504,52.499v101l45-46v-10C324.504,72.646,304.357,52.499,279.504,52.499z"/>
<path style="fill:#FFD9D4;" d="M279.504,52.499c-24.853,0-45,20.147-45,45v10l60,46v-56
	C294.504,72.646,287.788,52.499,279.504,52.499z"/>
<path style="fill:#FF6337;" d="M298.213,107.499c-1.053-1.573-2.303-3.002-3.709-4.261l-15,69.261c24.853,0,45-20.147,45-45v-20
	H298.213z"/>
<path style="fill:#FF8646;" d="M294.504,127.499v-24.261c-3.981-3.566-9.235-5.739-15-5.739c-7.801,0-14.672,3.971-18.709,10
	h-26.291v20c0,24.853,20.147,45,45,45C287.788,172.499,294.504,152.352,294.504,127.499z"/>
<path style="fill:#FF8D7E;" d="M429.504,52.499v90c24.853,0,45-20.147,45-45S454.357,52.499,429.504,52.499z"/>
<path style="fill:#FFB4A9;" d="M444.504,97.499c0-24.853-6.716-45-15-45c-24.853,0-45,20.147-45,45s20.147,45,45,45
	C437.788,142.499,444.504,122.352,444.504,97.499z"/>
<path style="fill:#60312C;" d="M429.504,262.499v75c24.853,0,45-20.147,45-45L429.504,262.499z"/>
<path style="fill:#85453D;" d="M444.504,292.499l-15-30l-45,30c0,24.853,20.147,45,45,45
	C437.788,337.499,444.504,317.352,444.504,292.499z"/>
<path style="fill:#FFA754;" d="M454.504,172.499h-30l20,120h30v-100C474.504,181.453,465.55,172.499,454.504,172.499z"/>
<path style="fill:#FFCB63;" d="M424.504,172.499h-20c-11.046,0-20,8.954-20,20v100h60v-100
	C444.504,181.453,435.55,172.499,424.504,172.499z"/>
<path style="fill:#2DADE3;" d="M92.504,172.499h-30v120h50v-100C112.504,181.453,103.55,172.499,92.504,172.499z"/>
<path style="fill:#49C9FF;" d="M62.504,172.499h-20c-11.046,0-20,8.954-20,20v70l60,30v-100
	C82.504,181.453,73.55,172.499,62.504,172.499z"/>
<path style="fill:#FF4128;" d="M112.504,262.499h-30l15,90h30v-50.335C127.504,286.953,121.833,273.074,112.504,262.499z"/>
<path style="fill:#FF6337;" d="M82.504,262.499h-60v90h75v-50.335C97.504,286.953,91.833,273.074,82.504,262.499z"/>
<circle style="fill:#60312C;" cx="67.502" cy="29.999" r="22.5"/>
<path style="fill:#A45E43;" d="M101.759,68.334c0.01-0.01-34.255-0.005-34.255-0.005v74.17c24.85,0,45-20.15,45-45
	C112.504,86.379,108.459,76.184,101.759,68.334z"/>
<path style="fill:#C27749;" d="M81.394,80.509L33.249,68.334c-6.7,7.85-10.745,18.045-10.745,29.165c0,24.85,20.15,45,45,45
	c8.28,0,15-20.15,15-45C82.504,91.489,82.114,85.749,81.394,80.509z"/>
<path style="fill:#40211D;" d="M67.504,52.499l13.89,28.01c7.45-2.23,14.475-6.295,20.365-12.175
	C93.509,58.644,81.224,52.499,67.504,52.499z"/>
<path style="fill:#60312C;" d="M67.504,52.499c-13.72,0-26.005,6.145-34.255,15.835c13.04,13.04,31.645,17.105,48.145,12.175
	C79.164,64.079,73.784,52.499,67.504,52.499z"/>
<path d="M429.504,149.999c28.949,0,52.5-23.552,52.5-52.5s-23.551-52.5-52.5-52.5s-52.5,23.552-52.5,52.5
	S400.555,149.999,429.504,149.999z M429.504,59.999c20.678,0,37.5,16.822,37.5,37.5s-16.822,37.5-37.5,37.5s-37.5-16.822-37.5-37.5
	S408.826,59.999,429.504,59.999z"/>
<path d="M481.126,185.596c-3.07-11.833-13.842-20.597-26.622-20.597h-50c-12.78,0-23.552,8.764-26.622,20.597
	c-9.511,1.703-17.794,6.994-23.378,14.429c-5.584-7.435-13.867-12.726-23.378-14.429c-2.245-8.651-8.608-15.656-16.861-18.801
	c10.869-9.625,17.739-23.67,17.739-39.296v-30c0-28.948-23.551-52.5-52.5-52.5s-52.5,23.552-52.5,52.5v30
	c0,15.626,6.87,29.67,17.739,39.296c-7.888,3.006-14.048,9.539-16.537,17.665c-17.688-3.005-31.202-18.43-31.202-36.96v-85
	c0-4.143-3.358-7.5-7.5-7.5s-7.5,3.357-7.5,7.5v85c0,26.401,19.593,48.304,45,51.956v93.043c0,14.269,5.73,27.22,15,36.692v159.902
	l-24.872,8.29c-3.93,1.31-6.053,5.558-4.744,9.487c1.048,3.143,3.974,5.13,7.114,5.13c0.786,0,1.586-0.125,2.373-0.387l30-10
	c3.063-1.021,5.128-3.887,5.128-7.115V339.923c6.824,3.25,14.452,5.076,22.5,5.076s15.676-1.826,22.5-5.076v154.576
	c0,3.229,2.066,6.095,5.128,7.115l30,10c0.787,0.262,1.586,0.387,2.373,0.387c3.14,0,6.066-1.987,7.114-5.13
	c1.31-3.93-0.814-8.178-4.744-9.487l-24.872-8.29V329.191c7.766-7.936,13.034-18.315,14.541-29.865
	c9.336-1.782,17.456-7.027,22.959-14.354c5.502,7.326,13.623,12.572,22.959,14.354c1.508,11.549,6.775,21.929,14.541,29.865v159.902
	l-24.872,8.29c-3.93,1.31-6.053,5.558-4.744,9.487c1.048,3.143,3.974,5.13,7.114,5.13c0.786,0,1.586-0.125,2.373-0.387l30-10
	c3.063-1.021,5.128-3.887,5.128-7.115V339.923c6.824,3.25,14.452,5.076,22.5,5.076s15.676-1.826,22.5-5.076v149.171l-24.872,8.29
	c-3.93,1.31-6.053,5.558-4.744,9.487c1.048,3.143,3.974,5.13,7.114,5.13c0.786,0,1.586-0.125,2.373-0.387l30-10
	c3.063-1.021,5.128-3.887,5.128-7.115V329.191c7.766-7.936,13.034-18.315,14.541-29.865C498.863,296.02,512,280.769,512,262.498v-40
	C512.004,204.082,498.655,188.734,481.126,185.596z M404.504,179.999h50c6.893,0,12.5,5.607,12.5,12.5v92.5h-75v-92.5
	C392.004,185.606,397.611,179.999,404.504,179.999z M279.504,59.999c20.678,0,37.5,16.822,37.5,37.5v2.5h-15.139
	c-5.652-6.325-13.746-10-22.361-10s-16.708,3.675-22.361,10h-15.139v-2.5C242.004,76.821,258.826,59.999,279.504,59.999z
	 M242.004,127.499v-12.5h18.792c2.502,0,4.84-1.248,6.232-3.328c2.797-4.178,7.461-6.672,12.476-6.672s9.679,2.494,12.476,6.672
	c1.392,2.08,3.73,3.328,6.232,3.328h18.792v12.5c0,20.678-16.822,37.5-37.5,37.5S242.004,148.177,242.004,127.499z M254.504,179.999
	h50c6.893,0,12.5,5.607,12.5,12.5v92.5h-75v-92.5C242.004,185.606,247.611,179.999,254.504,179.999z M242.759,299.999h73.491
	c-3.484,17.096-18.635,30-36.745,30S246.243,317.095,242.759,299.999z M332.004,283.709v-82.42c8.729,3.096,15,11.433,15,21.21v40
	C347.004,272.276,340.733,280.613,332.004,283.709z M362.004,262.499v-40c0-9.777,6.271-18.114,15-21.21v82.42
	C368.275,280.613,362.004,272.276,362.004,262.499z M392.759,299.999h73.491c-3.484,17.096-18.635,30-36.745,30
	S396.243,317.095,392.759,299.999z M497.004,262.499c0,9.777-6.271,18.114-15,21.21v-82.42c8.729,3.096,15,11.433,15,21.21V262.499z
	"/>
<path d="M105.004,405.213v-45.214h22.5c4.142,0,7.5-3.357,7.5-7.5v-50.335c0-15.472-5.307-30.417-15-42.406v-67.259
	c0-15.163-12.336-27.5-27.5-27.5h-50c-15.164,0-27.5,12.337-27.5,27.5v160c0,4.143,3.358,7.5,7.5,7.5h7.5v129.095l-24.872,8.29
	c-3.93,1.31-6.053,5.558-4.744,9.487c1.048,3.143,3.974,5.13,7.114,5.13c0.786,0,1.586-0.125,2.373-0.387l30-10
	c3.063-1.021,5.128-3.887,5.128-7.115v-134.5h45v47.499c0,1.489,0.443,2.945,1.274,4.182l43.726,65.104v27.715
	c0,4.143,3.358,7.5,7.5,7.5s7.5-3.357,7.5-7.5v-30c0-1.489-0.443-2.945-1.274-4.182L105.004,405.213z M120.004,344.999h-90v-75h15
	v37.5c0,12.406,10.093,22.5,22.5,22.5s22.5-10.094,22.5-22.5v-37.5h18.961c7.134,9.183,11.039,20.478,11.039,32.165V344.999z
	 M60.004,269.999h15v37.5c0,4.136-3.364,7.5-7.5,7.5s-7.5-3.364-7.5-7.5V269.999z M42.504,179.999h50c6.893,0,12.5,5.607,12.5,12.5
	v62.5h-15v-52.5c0-4.143-3.358-7.5-7.5-7.5s-7.5,3.357-7.5,7.5v52.5h-15v-52.5c0-4.143-3.358-7.5-7.5-7.5s-7.5,3.357-7.5,7.5v52.5
	h-15v-62.5C30.004,185.606,35.611,179.999,42.504,179.999z"/>
<path d="M67.504,149.999c28.949,0,52.5-23.552,52.5-52.5c0-12.814-4.621-24.565-12.275-33.689c-0.205-0.269-0.422-0.532-0.668-0.777
	c-4.778-5.462-10.622-9.916-17.222-13.032c4.762-5.312,7.665-12.323,7.665-20.001c0-16.542-13.458-30-30-30s-30,13.458-30,30
	c0,7.678,2.903,14.689,7.665,20.001c-6.6,3.116-12.444,7.57-17.194,13.006c-0.274,0.271-0.491,0.534-0.696,0.803
	c-7.654,9.124-12.275,20.875-12.275,33.689C15.004,126.447,38.555,149.999,67.504,149.999z M67.504,134.999
	c-20.678,0-37.5-16.822-37.5-37.5c0-6.567,1.702-12.742,4.68-18.116c9.75,7.072,21.284,10.615,32.82,10.615
	s23.07-3.543,32.82-10.615c2.978,5.374,4.68,11.549,4.68,18.116C105.004,118.177,88.182,134.999,67.504,134.999z M44.482,67.93
	c6.36-4.963,14.348-7.931,23.022-7.931s16.662,2.968,23.022,7.931C76.687,77.35,58.321,77.35,44.482,67.93z M52.504,29.999
	c0-8.271,6.729-15,15-15s15,6.729,15,15s-6.729,15-15,15S52.504,38.271,52.504,29.999z"/>
<g>
</g>
<g>
</g>
<g>
</g>
<g>
</g>
<g>
</g>
<g>
</g>
<g>
</g>
<g>
</g>
<g>
</g>
<g>
</g>
<g>
</g>
<g>
</g>
<g>
</g>
<g>
</g>
<g>
</g>
</svg>
