<?xml version="1.0" encoding="iso-8859-1"?>
<!-- Generator: Adobe Illustrator 19.0.0, SVG Export Plug-In . SVG Version: 6.00 Build 0)  -->
<svg version="1.1" id="Capa_1" xmlns="http://www.w3.org/2000/svg" xmlns:xlink="http://www.w3.org/1999/xlink" x="0px" y="0px"
	 viewBox="0 0 512 512" style="enable-background:new 0 0 512 512;" xml:space="preserve">
<rect x="7.5" y="7.5" style="fill:#E18F4E;" width="497" height="497"/>
<polygon style="fill:#85453D;" points="474.5,37.5 37.5,37.5 67.73,256 37.5,474.5 474.5,474.5 444.27,256 "/>
<polygon style="fill:#E18F4E;" points="436,106 436,406 376,406 301,256 376,106 "/>
<rect x="76" y="106" style="fill:#FFA754;" width="300" height="300"/>
<polygon style="fill:#A45E43;" points="474.5,37.5 474.5,474.5 444.5,444.5 414.5,256 444.5,67.5 "/>
<g>
	<polygon style="fill:#C27749;" points="444.5,67.5 444.5,444.5 406,406 406,106 	"/>
	<polygon style="fill:#C27749;" points="106,106 106,406 37.5,474.5 37.5,37.5 	"/>
</g>
<polygon style="fill:#FFF0D3;" points="281,291 256,291 241,251.633 256,216 281,216 "/>
<rect x="231" y="216" style="fill:#FFFFFF;" width="25" height="75"/>
<path style="fill:#FFB4A9;" d="M256,136l-15,25l15,25c13.807,0,25-11.193,25-25S269.807,136,256,136z"/>
<path style="fill:#FFD9D4;" d="M231,161c0,13.807,11.193,25,25,25v-50C242.193,136,231,147.193,231,161z"/>
<path d="M504.5,0H7.5C3.358,0,0,3.357,0,7.5v497c0,4.143,3.358,7.5,7.5,7.5h497c4.142,0,7.5-3.357,7.5-7.5V7.5
	C512,3.357,508.642,0,504.5,0z M497,497H15V15h482V497z"/>
<path d="M30.037,475.241c0.01,0.107,0.031,0.211,0.046,0.317c0.019,0.136,0.036,0.273,0.062,0.408
	c0.024,0.124,0.058,0.243,0.089,0.364c0.029,0.116,0.055,0.233,0.089,0.347c0.036,0.12,0.081,0.236,0.123,0.353
	c0.041,0.114,0.078,0.228,0.124,0.34c0.046,0.11,0.099,0.215,0.149,0.322c0.054,0.115,0.105,0.23,0.165,0.343
	c0.055,0.103,0.118,0.202,0.178,0.302c0.065,0.109,0.127,0.22,0.199,0.327c0.074,0.111,0.157,0.215,0.237,0.322
	c0.067,0.089,0.129,0.181,0.2,0.268c0.148,0.181,0.305,0.353,0.469,0.519c0.228,0.225,0.399,0.38,0.578,0.527
	c0.087,0.071,0.178,0.133,0.267,0.199c0.107,0.08,0.212,0.163,0.323,0.237c0.105,0.071,0.215,0.131,0.323,0.196
	c0.102,0.061,0.202,0.125,0.307,0.182c0.11,0.059,0.223,0.108,0.336,0.162c0.109,0.052,0.217,0.106,0.329,0.152
	c0.11,0.045,0.222,0.082,0.333,0.122c0.12,0.043,0.238,0.089,0.36,0.126c0.111,0.033,0.223,0.058,0.335,0.086
	c0.125,0.032,0.249,0.067,0.377,0.092c0.129,0.025,0.26,0.041,0.39,0.06c0.112,0.016,0.221,0.037,0.334,0.048
	c0.246,0.024,0.493,0.037,0.74,0.037h437c0.247,0,0.494-0.013,0.74-0.037c0.113-0.011,0.222-0.032,0.334-0.048
	c0.131-0.019,0.262-0.034,0.391-0.06c0.128-0.025,0.251-0.061,0.376-0.092c0.112-0.028,0.224-0.053,0.335-0.086
	c0.122-0.037,0.24-0.083,0.36-0.126c0.111-0.04,0.223-0.077,0.333-0.122c0.112-0.046,0.22-0.101,0.329-0.152
	c0.112-0.053,0.225-0.103,0.336-0.162c0.105-0.056,0.204-0.12,0.306-0.181c0.108-0.065,0.218-0.126,0.324-0.197
	c0.111-0.074,0.215-0.157,0.321-0.236c0.089-0.067,0.181-0.129,0.268-0.201c0.179-0.147,0.35-0.302,0.514-0.465
	c0.227-0.229,0.384-0.401,0.532-0.582c0.071-0.086,0.133-0.178,0.2-0.268c0.08-0.106,0.163-0.211,0.237-0.322
	c0.071-0.107,0.133-0.218,0.199-0.327c0.06-0.1,0.123-0.199,0.178-0.302c0.06-0.113,0.112-0.229,0.166-0.345
	c0.05-0.106,0.103-0.211,0.149-0.32c0.047-0.113,0.084-0.228,0.125-0.343c0.042-0.116,0.086-0.231,0.123-0.351
	c0.035-0.114,0.06-0.231,0.089-0.347c0.03-0.121,0.064-0.241,0.089-0.364c0.027-0.135,0.043-0.272,0.062-0.408
	c0.015-0.106,0.035-0.21,0.046-0.317c0.024-0.248,0.037-0.496,0.037-0.744V37.502c0-0.248-0.013-0.496-0.037-0.744
	c-0.01-0.107-0.031-0.211-0.046-0.317c-0.019-0.136-0.036-0.273-0.062-0.408c-0.024-0.124-0.058-0.243-0.089-0.364
	c-0.029-0.116-0.055-0.233-0.089-0.347c-0.036-0.12-0.081-0.235-0.123-0.352c-0.041-0.114-0.078-0.229-0.125-0.342
	c-0.045-0.109-0.099-0.214-0.149-0.321c-0.054-0.115-0.105-0.231-0.165-0.344c-0.055-0.103-0.118-0.202-0.178-0.302
	c-0.065-0.109-0.127-0.22-0.199-0.327c-0.074-0.111-0.157-0.215-0.237-0.322c-0.067-0.089-0.129-0.181-0.2-0.268
	c-0.148-0.181-0.305-0.353-0.469-0.519c-0.228-0.225-0.399-0.38-0.578-0.527c-0.086-0.071-0.177-0.132-0.266-0.199
	c-0.107-0.081-0.212-0.164-0.323-0.238c-0.104-0.07-0.212-0.13-0.318-0.194c-0.104-0.062-0.206-0.127-0.313-0.185
	c-0.106-0.057-0.215-0.104-0.323-0.155c-0.114-0.054-0.227-0.111-0.344-0.16c-0.103-0.042-0.208-0.076-0.312-0.114
	c-0.127-0.046-0.252-0.094-0.381-0.134c-0.101-0.03-0.204-0.052-0.307-0.079c-0.135-0.035-0.268-0.072-0.406-0.099
	c-0.112-0.022-0.224-0.034-0.336-0.051c-0.13-0.02-0.258-0.043-0.39-0.056c-0.185-0.018-0.371-0.024-0.557-0.028
	C474.618,30.008,474.56,30,474.5,30h-437c-0.06,0-0.118,0.008-0.178,0.009c-0.186,0.004-0.372,0.01-0.557,0.028
	c-0.132,0.013-0.26,0.037-0.39,0.056c-0.112,0.017-0.224,0.029-0.336,0.051c-0.138,0.027-0.271,0.064-0.406,0.099
	c-0.102,0.026-0.205,0.048-0.306,0.079c-0.13,0.04-0.255,0.088-0.381,0.134c-0.104,0.038-0.209,0.071-0.312,0.114
	c-0.117,0.049-0.23,0.105-0.344,0.16c-0.108,0.051-0.217,0.099-0.323,0.155c-0.107,0.058-0.21,0.123-0.314,0.186
	c-0.106,0.063-0.213,0.123-0.317,0.192c-0.112,0.075-0.218,0.158-0.325,0.239c-0.088,0.066-0.179,0.127-0.265,0.198
	c-0.179,0.147-0.35,0.302-0.514,0.465c-0.227,0.229-0.384,0.401-0.532,0.582c-0.071,0.086-0.133,0.178-0.2,0.268
	c-0.08,0.106-0.163,0.211-0.237,0.322c-0.071,0.107-0.133,0.218-0.199,0.327c-0.06,0.1-0.123,0.199-0.178,0.302
	c-0.06,0.112-0.111,0.228-0.165,0.342c-0.051,0.107-0.104,0.213-0.15,0.323c-0.046,0.111-0.083,0.226-0.124,0.339
	c-0.042,0.117-0.087,0.233-0.124,0.354c-0.035,0.114-0.06,0.231-0.089,0.347c-0.03,0.121-0.064,0.241-0.089,0.364
	c-0.027,0.135-0.043,0.272-0.062,0.408c-0.015,0.106-0.035,0.21-0.046,0.317C30.013,37.006,30,37.254,30,37.502v436.995
	C30,474.746,30.013,474.994,30.037,475.241z M109.107,413.5h293.786l53.5,53.5H55.607L109.107,413.5z M413.5,402.893V109.107
	l53.5-53.5v400.786L413.5,402.893z M402.893,98.5H109.107L55.607,45h400.786L402.893,98.5z M98.5,109.107V241
	c0,4.143,3.358,7.5,7.5,7.5s7.5-3.357,7.5-7.5V113.5h285v285h-285V271c0-4.143-3.358-7.5-7.5-7.5s-7.5,3.357-7.5,7.5v131.893
	l-53.5,53.5V55.607L98.5,109.107z"/>
<path d="M176,278.5c4.142,0,7.5-3.357,7.5-7.5c0-23.639,17.36-43.295,40-46.902V376c0,4.143,3.358,7.5,7.5,7.5s7.5-3.357,7.5-7.5
	v-77.5h35V376c0,4.143,3.358,7.5,7.5,7.5s7.5-3.357,7.5-7.5V224.098c22.64,3.607,40,23.263,40,46.902c0,4.143,3.358,7.5,7.5,7.5
	s7.5-3.357,7.5-7.5c0-34.463-28.038-62.5-62.5-62.5h-50c-34.462,0-62.5,28.037-62.5,62.5C168.5,275.143,171.858,278.5,176,278.5z
	 M238.5,283.5v-60h35v60H238.5z"/>
<path d="M256,193.5c17.92,0,32.5-14.579,32.5-32.5s-14.58-32.5-32.5-32.5s-32.5,14.579-32.5,32.5S238.08,193.5,256,193.5z
	 M256,143.5c9.649,0,17.5,7.851,17.5,17.5s-7.851,17.5-17.5,17.5s-17.5-7.851-17.5-17.5S246.351,143.5,256,143.5z"/>
<g>
</g>
<g>
</g>
<g>
</g>
<g>
</g>
<g>
</g>
<g>
</g>
<g>
</g>
<g>
</g>
<g>
</g>
<g>
</g>
<g>
</g>
<g>
</g>
<g>
</g>
<g>
</g>
<g>
</g>
</svg>
