<?xml version="1.0" encoding="iso-8859-1"?>
<!-- Generator: Adobe Illustrator 19.0.0, SVG Export Plug-In . SVG Version: 6.00 Build 0)  -->
<svg version="1.1" id="Capa_1" xmlns="http://www.w3.org/2000/svg" xmlns:xlink="http://www.w3.org/1999/xlink" x="0px" y="0px"
	 viewBox="0 0 512.002 512.002" style="enable-background:new 0 0 512.002 512.002;" xml:space="preserve">
<path style="fill:#2DADE3;" d="M422.576,262.5v75c24.853,0,45-20.147,45-45L422.576,262.5z"/>
<path style="fill:#49C9FF;" d="M437.576,292.5l-15-30l-45,30c0,24.853,20.147,45,45,45C430.86,337.5,437.576,317.353,437.576,292.5z
	"/>
<path style="fill:#9DB55F;" d="M447.576,172.5h-30l20,120h30v-100C467.576,181.454,458.622,172.5,447.576,172.5z"/>
<path style="fill:#B9D171;" d="M417.576,172.5h-20c-11.046,0-20,8.954-20,20v100h60v-100
	C437.576,181.454,428.622,172.5,417.576,172.5z"/>
<path style="fill:#FFB4A9;" d="M422.576,52.5v101l45-46v-10C467.576,72.647,447.429,52.5,422.576,52.5z"/>
<path style="fill:#FFD9D4;" d="M422.576,52.5c-24.853,0-45,20.147-45,45v10l60,46v-56C437.576,72.647,430.86,52.5,422.576,52.5z"/>
<path style="fill:#FF6337;" d="M441.285,107.5c-1.053-1.573-2.303-3.002-3.709-4.261l-15,69.261c24.853,0,45-20.147,45-45v-20
	H441.285z"/>
<path style="fill:#FF8646;" d="M437.576,127.5v-24.261c-3.981-3.566-9.235-5.739-15-5.739c-7.801,0-14.672,3.971-18.709,10h-26.291
	v20c0,24.853,20.147,45,45,45C430.86,172.5,437.576,152.353,437.576,127.5z"/>
<path style="fill:#FF4128;" d="M328.396,20.68c-8.787-8.787-20.303-13.18-31.82-13.18v108.64l31.82-31.82
	C345.969,66.746,345.969,38.254,328.396,20.68z"/>
<path style="fill:#FF6337;" d="M307.183,84.32c5.858-17.574,5.858-46.066,0-63.64c-2.929-8.787-6.768-13.18-10.607-13.18
	c-11.517,0-23.033,4.393-31.82,13.18c-17.573,17.574-17.573,46.066,0,63.64l31.82,31.82L307.183,84.32z"/>
<circle style="fill:#60312C;" cx="185.43" cy="30" r="22.5"/>
<path style="fill:#A45E43;" d="M219.681,68.335c0.01-0.01-34.255-0.005-34.255-0.005v74.17c24.85,0,45-20.15,45-45
	C230.426,86.38,226.381,76.185,219.681,68.335z"/>
<path style="fill:#C27749;" d="M199.316,80.51l-48.145-12.175c-6.7,7.85-10.745,18.045-10.745,29.165c0,24.85,20.15,45,45,45
	c8.28,0,15-20.15,15-45C200.426,91.49,200.036,85.75,199.316,80.51z"/>
<path style="fill:#40211D;" d="M185.426,52.5l13.89,28.01c7.45-2.23,14.475-6.295,20.365-12.175
	C211.431,58.645,199.146,52.5,185.426,52.5z"/>
<path style="fill:#60312C;" d="M185.426,52.5c-13.72,0-26.005,6.145-34.255,15.835c13.04,13.04,31.645,17.105,48.145,12.175
	C197.086,64.08,191.706,52.5,185.426,52.5z"/>
<path style="fill:#2DADE3;" d="M210.426,172.5h-30v120h50v-100C230.426,181.454,221.472,172.5,210.426,172.5z"/>
<path style="fill:#49C9FF;" d="M180.426,172.5h-20c-11.046,0-20,8.954-20,20v100h60v-100
	C200.426,181.454,191.472,172.5,180.426,172.5z"/>
<path style="fill:#FF4128;" d="M230.426,262.5h-30l15,90h30v-50.335C245.426,286.954,239.755,273.075,230.426,262.5z"/>
<path style="fill:#FF6337;" d="M200.426,262.5h-60c-9.329,10.575-15,24.454-15,39.665V352.5h90v-50.335
	C215.426,286.954,209.755,273.075,200.426,262.5z"/>
<path style="fill:#FF8646;" d="M58.516,100.23c-8.787-8.787-8.787-23.033,0-31.82s23.033-8.787,31.82,0s8.787,23.033,0,31.82
	l-15.91,15.91L58.516,100.23z"/>
<path d="M289.076,119.247v6.893c0,4.142,3.357,7.5,7.5,7.5s7.5-3.358,7.5-7.5v-6.893l29.623-29.624
	c9.916-9.916,15.377-23.1,15.377-37.123s-5.461-27.207-15.377-37.123S310.6,0,296.576,0s-27.207,5.461-37.124,15.377
	c-20.469,20.47-20.469,53.776,0,74.246L289.076,119.247z M270.06,25.983C277.143,18.9,286.56,15,296.576,15
	s19.434,3.9,26.516,10.983c7.084,7.083,10.984,16.5,10.984,26.517s-3.9,19.434-10.984,26.517l-26.516,26.517L270.06,79.017
	C255.438,64.396,255.438,40.604,270.06,25.983z"/>
<path d="M422.576,45c-28.948,0-52.5,23.551-52.5,52.5v30c0,15.626,6.87,29.67,17.739,39.296
	c-10.358,3.947-17.739,13.978-17.739,25.704v2.5h-66v-38.86c0-4.142-3.357-7.5-7.5-7.5s-7.5,3.358-7.5,7.5V195h-7.5
	c-4.143,0-7.5,3.358-7.5,7.5s3.357,7.5,7.5,7.5h7.5v82.5c0,4.142,3.357,7.5,7.5,7.5s7.5-3.358,7.5-7.5V210h66v82.5
	c0,14.269,5.73,27.22,15,36.692v159.902l-24.872,8.291c-3.93,1.31-6.053,5.557-4.743,9.487c1.048,3.143,3.974,5.13,7.114,5.13
	c0.786,0,1.586-0.125,2.373-0.387l30-10c3.063-1.021,5.128-3.887,5.128-7.115V339.924c6.824,3.251,14.452,5.076,22.5,5.076
	s15.676-1.825,22.5-5.076v149.17l-24.872,8.291c-3.93,1.31-6.053,5.557-4.743,9.487c1.048,3.143,3.974,5.13,7.114,5.13
	c0.786,0,1.586-0.125,2.373-0.387l30-10c3.063-1.021,5.128-3.887,5.128-7.115V329.192c9.27-9.473,15-22.423,15-36.692v-100
	c0-11.727-7.381-21.757-17.739-25.704c10.869-9.625,17.739-23.67,17.739-39.296v-30C475.076,68.551,451.524,45,422.576,45z
	 M422.576,60c20.678,0,37.5,16.822,37.5,37.5v2.5h-15.14c-5.652-6.325-13.745-10-22.36-10s-16.709,3.675-22.361,10h-15.139v-2.5
	C385.076,76.822,401.898,60,422.576,60z M385.831,300h73.491c-3.484,17.096-18.635,30-36.745,30S389.315,317.096,385.831,300z
	 M447.576,180c6.893,0,12.5,5.607,12.5,12.5V285h-75v-75h52.5c4.143,0,7.5-3.358,7.5-7.5s-3.357-7.5-7.5-7.5h-52.5v-2.5
	c0-6.893,5.607-12.5,12.5-12.5H447.576z M422.576,165c-20.678,0-37.5-16.822-37.5-37.5V115h18.791c2.503,0,4.84-1.248,6.232-3.328
	c2.797-4.178,7.461-6.672,12.477-6.672c5.015,0,9.679,2.494,12.476,6.672c1.393,2.08,3.729,3.328,6.232,3.328h18.792v12.5
	C460.076,148.178,443.254,165,422.576,165z"/>
<path d="M185.426,150c28.948,0,52.5-23.551,52.5-52.5c0-12.814-4.621-24.566-12.276-33.69c-0.204-0.269-0.421-0.531-0.667-0.776
	c-4.776-5.461-10.621-9.916-17.221-13.032c4.762-5.312,7.665-12.323,7.665-20.001c0-16.542-13.458-30-30-30s-30,13.458-30,30
	c0,7.678,2.903,14.689,7.665,20.001c-6.599,3.116-12.442,7.568-17.192,13.004c-0.277,0.274-0.496,0.539-0.701,0.81
	c-7.652,9.124-12.271,20.873-12.271,33.685C132.926,126.449,156.478,150,185.426,150z M185.426,135c-20.678,0-37.5-16.822-37.5-37.5
	c0-6.565,1.701-12.739,4.678-18.112c9.49,6.91,20.87,10.648,32.822,10.648c11.953,0,23.333-3.739,32.823-10.648
	c2.977,5.373,4.677,11.546,4.677,18.112C222.926,118.178,206.104,135,185.426,135z M162.394,67.939
	C168.755,62.971,176.748,60,185.426,60s16.671,2.971,23.032,7.939c-6.742,4.611-14.697,7.098-23.032,7.098
	S169.136,72.55,162.394,67.939z M170.426,30c0-8.271,6.729-15,15-15s15,6.729,15,15s-6.729,15-15,15S170.426,38.271,170.426,30z"/>
<path d="M260.426,120c-4.143,0-7.5,3.358-7.5,7.5v75c0,9.777-6.271,18.114-15,21.21V192.5c0-15.164-12.337-27.5-27.5-27.5h-50
	c-12.563,0-23.178,8.472-26.452,20H81.926v-28.86c0-4.142-3.357-7.5-7.5-7.5c-4.143,0-7.5,3.358-7.5,7.5V185h-7.5
	c-12.406,0-22.5,10.093-22.5,22.5S47.02,230,59.426,230h7.5v62.5c0,4.142,3.357,7.5,7.5,7.5c4.143,0,7.5-3.358,7.5-7.5V230h7.5
	c4.143,0,7.5-3.358,7.5-7.5s-3.357-7.5-7.5-7.5h-7.5v-15h51v59.759c-9.693,11.989-15,26.935-15,42.406V352.5
	c0,4.142,3.357,7.5,7.5,7.5h22.5v134.5c0,3.228,2.065,6.094,5.128,7.115l30,10c0.787,0.262,1.587,0.387,2.373,0.387
	c3.141,0,6.066-1.988,7.114-5.13c1.31-3.93-0.814-8.177-4.743-9.487l-24.872-8.291V360h45v134.5c0,3.228,2.065,6.094,5.128,7.115
	l30,10c0.787,0.262,1.587,0.387,2.373,0.387c3.141,0,6.066-1.988,7.114-5.13c1.31-3.93-0.814-8.177-4.743-9.487l-24.872-8.291V360
	h22.5c4.143,0,7.5-3.358,7.5-7.5v-50.335c0-15.471-5.307-30.417-15-42.406v-20.514c17.096-3.484,30-18.635,30-36.745v-75
	C267.926,123.358,264.568,120,260.426,120z M66.926,215h-7.5c-4.136,0-7.5-3.364-7.5-7.5s3.364-7.5,7.5-7.5h7.5V215z M160.426,180
	h50c6.893,0,12.5,5.607,12.5,12.5V255h-75v-62.5C147.926,185.607,153.533,180,160.426,180z M237.926,345h-105v-42.835
	c0-11.687,3.905-22.981,11.038-32.165h82.923c7.133,9.184,11.038,20.479,11.038,32.165V345H237.926z"/>
<path d="M66.926,119.247v6.893c0,4.142,3.357,7.5,7.5,7.5c4.143,0,7.5-3.358,7.5-7.5v-6.893l13.713-13.714
	c5.667-5.666,8.788-13.2,8.788-21.213s-3.121-15.547-8.787-21.213c-5.667-5.667-13.2-8.787-21.214-8.787s-15.547,3.121-21.214,8.787
	c-11.696,11.697-11.696,30.729,0,42.426L66.926,119.247z M63.819,73.713c2.833-2.833,6.6-4.394,10.606-4.394
	c4.006,0,7.773,1.561,10.607,4.394c2.833,2.833,4.394,6.6,4.394,10.606s-1.561,7.773-4.395,10.606l-10.606,10.607L63.819,94.926
	C57.971,89.078,57.971,79.562,63.819,73.713z"/>
<g>
</g>
<g>
</g>
<g>
</g>
<g>
</g>
<g>
</g>
<g>
</g>
<g>
</g>
<g>
</g>
<g>
</g>
<g>
</g>
<g>
</g>
<g>
</g>
<g>
</g>
<g>
</g>
<g>
</g>
</svg>
