<?xml version="1.0" encoding="iso-8859-1"?>
<!-- Generator: Adobe Illustrator 19.0.0, SVG Export Plug-In . SVG Version: 6.00 Build 0)  -->
<svg version="1.1" id="Capa_1" xmlns="http://www.w3.org/2000/svg" xmlns:xlink="http://www.w3.org/1999/xlink" x="0px" y="0px"
	 viewBox="0 0 512.002 512.002" style="enable-background:new 0 0 512.002 512.002;" xml:space="preserve">
<path style="fill:#353535;" d="M478.431,82.5l-42.43,15v-45C455.591,52.5,472.261,65.02,478.431,82.5z"/>
<path style="fill:#4F4F4F;" d="M450.141,82.5l-14.14,15l-42.28-15l-0.14-0.05c6.19-17.45,22.85-29.95,42.42-29.95
	C442.531,52.5,448.081,65.02,450.141,82.5z"/>
<path style="fill:#2DADE3;" d="M101.001,172.5h-30v120l50-30v-70C121.001,181.454,112.047,172.5,101.001,172.5z"/>
<path style="fill:#49C9FF;" d="M71.001,172.5h-20c-11.046,0-20,8.954-20,20v100h60v-100C91.001,181.454,82.047,172.5,71.001,172.5z"
	/>
<polygon style="fill:#FF4128;" points="121.001,262.5 91.001,262.5 61.001,307.5 91.001,352.5 121.001,352.5 "/>
<path style="fill:#FF6337;" d="M91.001,262.5h-60c-9.329,10.575-15,24.454-15,39.665V352.5h75V262.5z"/>
<polygon style="fill:#808080;" points="411.001,192.5 411.001,292.5 481.001,262.5 481.001,192.5 "/>
<polygon style="fill:#999999;" points="391.001,192.5 391.001,262.5 451.001,292.5 451.001,192.5 "/>
<path style="fill:#353535;" d="M436.001,97.5l15,111.87c10.99-2.66,21.41-8.28,30-16.87v-95H436.001z"/>
<path style="fill:#4F4F4F;" d="M391.001,97.5v95c16.28,16.28,39.16,21.9,60,16.87V97.5H391.001z"/>
<path style="fill:#C27749;" d="M478.431,82.5h-28.29l-14.14,60c24.85,0,45-20.15,45-45C481.001,92.24,480.101,87.19,478.431,82.5z"
	/>
<path style="fill:#E18F4E;" d="M450.141,82.5c0.56,4.69,0.86,9.74,0.86,15c0,24.85-6.72,45-15,45c-24.85,0-45-20.15-45-45
	c0-5.28,0.91-10.34,2.58-15.05l0.14,0.05H450.141z"/>
<path style="fill:#353535;" d="M481.001,262.5h-30l15,187h30V302.165C496.001,286.954,490.33,273.075,481.001,262.5z"/>
<path style="fill:#4F4F4F;" d="M451.001,262.5h-60v187h75V302.165C466.001,286.954,460.33,273.075,451.001,262.5z"/>
<circle style="fill:#60312C;" cx="76" cy="30" r="22.5"/>
<path style="fill:#A45E43;" d="M110.256,68.335c0.01-0.01-34.255-0.005-34.255-0.005v74.17c24.85,0,45-20.15,45-45
	C121.001,86.38,116.956,76.185,110.256,68.335z"/>
<path style="fill:#C27749;" d="M89.891,80.51L41.746,68.335c-6.7,7.85-10.745,18.045-10.745,29.165c0,24.85,20.15,45,45,45
	c8.28,0,15-20.15,15-45C91.001,91.49,90.611,85.75,89.891,80.51z"/>
<path style="fill:#40211D;" d="M76.001,52.5l13.89,28.01c7.45-2.23,14.475-6.295,20.365-12.175
	C102.006,58.645,89.721,52.5,76.001,52.5z"/>
<g>
	<path style="fill:#60312C;" d="M76.001,52.5c-13.72,0-26.005,6.145-34.255,15.835c13.04,13.04,31.645,17.105,48.145,12.175
		C87.661,64.08,82.281,52.5,76.001,52.5z"/>
	<path style="fill:#60312C;" d="M196.001,107.5v90c24.853,0,45-20.147,45-45S220.854,107.5,196.001,107.5z"/>
</g>
<path style="fill:#85453D;" d="M211.001,152.5c0-24.853-6.716-45-15-45c-24.853,0-45,20.147-45,45s20.147,45,45,45
	C204.285,197.5,211.001,177.353,211.001,152.5z"/>
<path style="fill:#999999;" d="M196.001,277.5v90c24.853,0,45-20.147,45-45L196.001,277.5z"/>
<path style="fill:#CCCCCC;" d="M211.001,322.5l-15-45l-45,45c0,24.853,20.147,45,45,45C204.285,367.5,211.001,347.353,211.001,322.5
	z"/>
<path style="fill:#FF6337;" d="M221.001,227.5h-30l20,95h30v-75C241.001,236.454,232.047,227.5,221.001,227.5z"/>
<path style="fill:#FF8646;" d="M191.001,227.5h-20c-11.046,0-20,8.954-20,20v75h60v-75C211.001,236.454,202.047,227.5,191.001,227.5
	z"/>
<path style="fill:#2DADE3;" d="M316.001,262.5v75c24.853,0,45-20.147,45-45L316.001,262.5z"/>
<path style="fill:#49C9FF;" d="M331.001,292.5l-15-30l-45,30c0,24.853,20.147,45,45,45C324.285,337.5,331.001,317.353,331.001,292.5
	z"/>
<path style="fill:#9DB55F;" d="M341.001,172.5h-30l20,120h30v-100C361.001,181.454,352.047,172.5,341.001,172.5z"/>
<path style="fill:#B9D171;" d="M311.001,172.5h-20c-11.046,0-20,8.954-20,20v100h60v-100
	C331.001,181.454,322.047,172.5,311.001,172.5z"/>
<path style="fill:#FFB4A9;" d="M316.001,52.5v101l45-46v-10C361.001,72.647,340.854,52.5,316.001,52.5z"/>
<path style="fill:#FFD9D4;" d="M316.001,52.5c-24.853,0-45,20.147-45,45v10l60,46v-56C331.001,72.647,324.285,52.5,316.001,52.5z"/>
<path style="fill:#FF6337;" d="M334.71,107.5c-1.053-1.573-2.303-3.002-3.709-4.261l-15,69.261c24.853,0,45-20.147,45-45v-20H334.71
	z"/>
<path style="fill:#FF8646;" d="M331.001,127.5v-24.261c-3.981-3.566-9.235-5.739-15-5.739c-7.801,0-14.672,3.971-18.709,10h-26.291
	v20c0,24.853,20.147,45,45,45C324.285,172.5,331.001,152.353,331.001,127.5z"/>
<path d="M76.001,150c28.948,0,52.5-23.551,52.5-52.5c0-12.812-4.619-24.561-12.271-33.685c-0.206-0.271-0.424-0.535-0.671-0.782
	c-4.78-5.463-10.623-9.916-17.222-13.032c4.762-5.312,7.665-12.323,7.665-20.001c0-16.542-13.458-30-30-30s-30,13.458-30,30
	c0,7.678,2.903,14.689,7.665,20.001c-6.599,3.116-12.442,7.568-17.192,13.004c-0.277,0.274-0.496,0.539-0.702,0.81
	C28.12,72.939,23.501,84.688,23.501,97.5C23.501,126.449,47.053,150,76.001,150z M76.001,135c-20.678,0-37.5-16.822-37.5-37.5
	c0-6.567,1.702-12.742,4.68-18.116c9.751,7.072,21.284,10.615,32.82,10.615s23.069-3.542,32.82-10.615
	c2.978,5.374,4.68,11.549,4.68,18.116C113.501,118.178,96.679,135,76.001,135z M52.979,67.931C59.339,62.968,67.327,60,76.001,60
	s16.662,2.968,23.022,7.931C85.185,77.351,66.817,77.351,52.979,67.931z M61.001,30c0-8.271,6.729-15,15-15s15,6.729,15,15
	s-6.729,15-15,15S61.001,38.271,61.001,30z"/>
<path d="M196.001,205c28.948,0,52.5-23.551,52.5-52.5s-23.552-52.5-52.5-52.5s-52.5,23.551-52.5,52.5S167.053,205,196.001,205z
	 M196.001,115c20.678,0,37.5,16.822,37.5,37.5s-16.822,37.5-37.5,37.5s-37.5-16.822-37.5-37.5S175.323,115,196.001,115z"/>
<path d="M488.501,259.759V97.5c0-5.988-1.021-11.738-2.876-17.104c-0.051-0.174-0.111-0.344-0.174-0.513
	C478.195,59.575,458.771,45,436.001,45c-28.948,0-52.5,23.551-52.5,52.5V185h-16.048c-2.378-8.375-8.63-15.132-16.691-18.204
	c10.869-9.625,17.739-23.67,17.739-39.296v-30c0-28.949-23.552-52.5-52.5-52.5s-52.5,23.551-52.5,52.5v30
	c0,15.626,6.87,29.67,17.739,39.296c-10.358,3.947-17.739,13.978-17.739,25.704V240h-16.048c-3.274-11.528-13.889-20-26.452-20h-50
	c-12.563,0-23.178,8.472-26.452,20h-16.048v-47.5c0-15.164-12.337-27.5-27.5-27.5h-50c-15.163,0-27.5,12.336-27.5,27.5v67.259
	c-9.693,11.989-15,26.935-15,42.406V352.5c0,4.142,3.357,7.5,7.5,7.5h22.5v134.5c0,3.228,2.065,6.094,5.128,7.115l30,10
	c0.787,0.262,1.587,0.387,2.373,0.387c3.141,0,6.066-1.988,7.114-5.13c1.31-3.93-0.814-8.177-4.743-9.487l-24.872-8.291V360h45
	v134.5c0,3.228,2.065,6.094,5.128,7.115l30,10c0.771,0.256,1.571,0.385,2.372,0.385s1.602-0.128,2.372-0.385l30-10
	c3.063-1.021,5.128-3.887,5.128-7.115V369.924c6.824,3.251,14.452,5.076,22.5,5.076s15.676-1.825,22.5-5.076V494.5
	c0,3.228,2.065,6.094,5.128,7.115l30,10c0.771,0.256,1.571,0.385,2.372,0.385c0.801,0,1.602-0.128,2.372-0.385l30-10
	c3.063-1.021,5.128-3.887,5.128-7.115V339.924c6.824,3.251,14.452,5.076,22.5,5.076c8.048,0,15.676-1.825,22.5-5.076V494.5
	c0,3.228,2.065,6.094,5.128,7.115l30,10c0.771,0.256,1.571,0.385,2.372,0.385c0.801,0,1.602-0.128,2.372-0.385l30-10
	c3.063-1.021,5.128-3.887,5.128-7.115V457h45v32.094l-24.872,8.291c-3.93,1.31-6.053,5.557-4.743,9.487
	c1.048,3.143,3.974,5.13,7.114,5.13c0.786,0,1.586-0.125,2.373-0.387l30-10c3.063-1.021,5.128-3.887,5.128-7.115V457h22.5
	c4.143,0,7.5-3.358,7.5-7.5V302.165C503.501,286.693,498.194,271.748,488.501,259.759z M458.501,255v-40.039
	c5.201-1.725,10.236-4.068,15-7.024V255H458.501z M398.501,207.938c11.441,7.099,24.466,10.669,37.5,10.669
	c2.504,0,5.007-0.144,7.5-0.406V255h-45V207.938z M399.256,90h73.491c0.494,2.424,0.755,4.932,0.755,7.5
	c0,20.678-16.822,37.5-37.5,37.5c-20.678,0-37.5-16.822-37.5-37.5C398.501,94.932,398.762,92.424,399.256,90z M436.001,60
	c12.242,0,23.131,5.898,29.979,15h-59.959C412.87,65.898,423.759,60,436.001,60z M436.001,150c14.679,0,27.963-6.063,37.5-15.808
	v55.082c-21.267,19.114-53.733,19.114-75,0v-55.082C408.038,143.937,421.322,150,436.001,150z M316.001,60
	c20.678,0,37.5,16.822,37.5,37.5v2.5h-15.139c-5.653-6.325-13.747-10-22.361-10c-8.614,0-16.708,3.675-22.361,10h-15.139v-2.5
	C278.501,76.822,295.323,60,316.001,60z M278.501,127.5V115h18.791c2.502,0,4.84-1.248,6.232-3.327
	c2.797-4.178,7.462-6.673,12.477-6.673c5.015,0,9.68,2.495,12.477,6.673c1.393,2.079,3.73,3.327,6.232,3.327h18.791v12.5
	c0,20.678-16.822,37.5-37.5,37.5C295.323,165,278.501,148.178,278.501,127.5z M278.501,192.5c0-6.893,5.607-12.5,12.5-12.5h50
	c6.893,0,12.5,5.607,12.5,12.5V285h-75V192.5z M171.001,235h50c6.893,0,12.5,5.607,12.5,12.5V315h-75v-67.5
	C158.501,240.607,164.108,235,171.001,235z M51.001,180h50c6.893,0,12.5,5.607,12.5,12.5V255h-45v-52.5c0-4.142-3.357-7.5-7.5-7.5
	s-7.5,3.358-7.5,7.5V255h-15v-62.5C38.501,185.607,44.108,180,51.001,180z M23.501,302.165c0-11.687,3.905-22.982,11.038-32.165
	h18.962v52.5c0,4.142,3.357,7.5,7.5,7.5s7.5-3.358,7.5-7.5V270h45v75h-90V302.165z M136.001,496.594l-22.5-7.5V360h7.5
	c4.143,0,7.5-3.358,7.5-7.5V255h15v67.5c0,14.269,5.73,27.22,15,36.692v129.902L136.001,496.594z M159.256,330h73.491
	c-3.484,17.096-18.635,30-36.745,30S162.74,347.096,159.256,330z M256.001,496.594l-22.5-7.5V359.192
	c9.27-9.473,15-22.423,15-36.692V255h15v37.5c0,14.269,5.73,27.22,15,36.692v159.902L256.001,496.594z M279.256,300h73.491
	c-3.484,17.096-18.635,30-36.745,30S282.74,317.096,279.256,300z M398.501,489.094l-22.5,7.5l-22.5-7.5V329.192
	c9.27-9.473,15-22.423,15-36.692V200h15v249.5c0,4.142,3.357,7.5,7.5,7.5h7.5V489.094z M488.501,442h-90V270h45v52.5
	c0,4.142,3.357,7.5,7.5,7.5s7.5-3.358,7.5-7.5V270h18.962c7.133,9.183,11.038,20.479,11.038,32.165V442z"/>
<g>
</g>
<g>
</g>
<g>
</g>
<g>
</g>
<g>
</g>
<g>
</g>
<g>
</g>
<g>
</g>
<g>
</g>
<g>
</g>
<g>
</g>
<g>
</g>
<g>
</g>
<g>
</g>
<g>
</g>
</svg>
