<?xml version="1.0" encoding="iso-8859-1"?>
<!-- Generator: Adobe Illustrator 19.0.0, SVG Export Plug-In . SVG Version: 6.00 Build 0)  -->
<svg version="1.1" id="Capa_1" xmlns="http://www.w3.org/2000/svg" xmlns:xlink="http://www.w3.org/1999/xlink" x="0px" y="0px"
	 viewBox="0 0 512.002 512.002" style="enable-background:new 0 0 512.002 512.002;" xml:space="preserve">
<path style="fill:#2DADE3;" d="M102.001,262.5v75c24.853,0,45-20.147,45-45L102.001,262.5z"/>
<path style="fill:#49C9FF;" d="M117.001,292.5l-15-30l-45,30c0,24.853,20.147,45,45,45C110.285,337.5,117.001,317.353,117.001,292.5
	z"/>
<path style="fill:#9DB55F;" d="M127.001,172.5h-30l20,120h30v-100C147.001,181.454,138.047,172.5,127.001,172.5z"/>
<path style="fill:#B9D171;" d="M97.001,172.5h-20c-11.046,0-20,8.954-20,20v100h60v-100C117.001,181.454,108.047,172.5,97.001,172.5
	z"/>
<path style="fill:#FFB4A9;" d="M102.001,52.5v101l45-46v-10C147.001,72.647,126.854,52.5,102.001,52.5z"/>
<path style="fill:#FFD9D4;" d="M102.001,52.5c-24.853,0-45,20.147-45,45v10l60,46v-56C117.001,72.647,110.285,52.5,102.001,52.5z"/>
<path style="fill:#FF6337;" d="M120.71,107.5c-1.053-1.573-2.303-3.002-3.709-4.261l-15,69.261c24.853,0,45-20.147,45-45v-20H120.71
	z"/>
<path style="fill:#FF8646;" d="M117.001,127.5v-24.261c-3.981-3.566-9.235-5.739-15-5.739c-7.801,0-14.672,3.971-18.709,10H57.001
	v20c0,24.853,20.147,45,45,45C110.285,172.5,117.001,152.353,117.001,127.5z"/>
<path style="fill:#CF301B;" d="M248.001,112.5c-3.423,0-6.696,0.639-9.709,1.802L226.001,202.5c0,0,49-26.525,49-63
	C275.001,124.588,262.913,112.5,248.001,112.5z"/>
<path style="fill:#FF4128;" d="M238.292,114.302c-4.977,1.922-9.242,5.275-12.291,9.556c-4.895-6.871-12.921-11.357-22-11.357
	c-14.912,0-27,12.088-27,27c0,36.475,49,63,49,63s19-26.525,19-63C245.001,128.008,242.216,118.199,238.292,114.302z"/>
<path style="fill:#2DADE3;" d="M420.001,172.5h-30v120h50v-100C440.001,181.454,431.047,172.5,420.001,172.5z"/>
<path style="fill:#49C9FF;" d="M390.001,172.5h-20c-11.046,0-20,8.954-20,20v100h60v-100
	C410.001,181.454,401.047,172.5,390.001,172.5z"/>
<path style="fill:#FF4128;" d="M440.001,262.5h-30l15,90h30v-50.335C455.001,286.954,449.33,273.075,440.001,262.5z"/>
<path style="fill:#FF6337;" d="M410.001,262.5h-60c-9.329,10.575-15,24.454-15,39.665V352.5h90v-50.335
	C425.001,286.954,419.33,273.075,410.001,262.5z"/>
<circle style="fill:#60312C;" cx="380" cy="30" r="22.5"/>
<path style="fill:#A45E43;" d="M414.256,68.335c0.01-0.01-34.255-0.005-34.255-0.005v74.17c24.85,0,45-20.15,45-45
	C425.001,86.38,420.956,76.185,414.256,68.335z"/>
<path style="fill:#C27749;" d="M393.891,80.51l-48.145-12.175c-6.7,7.85-10.745,18.045-10.745,29.165c0,24.85,20.15,45,45,45
	c8.28,0,15-20.15,15-45C395.001,91.49,394.611,85.75,393.891,80.51z"/>
<path style="fill:#40211D;" d="M380.001,52.5l13.89,28.01c7.45-2.23,14.475-6.295,20.365-12.175
	C406.006,58.645,393.721,52.5,380.001,52.5z"/>
<path style="fill:#60312C;" d="M380.001,52.5c-13.72,0-26.005,6.145-34.255,15.835c13.04,13.04,31.645,17.105,48.145,12.175
	C391.661,64.08,386.281,52.5,380.001,52.5z"/>
<path d="M226.001,225h-66.574c-1.649,0-3.291-0.044-4.926-0.127V192.5c0-11.727-7.381-21.757-17.739-25.704
	c10.869-9.625,17.739-23.67,17.739-39.296v-30c0-28.949-23.551-52.5-52.5-52.5s-52.5,23.551-52.5,52.5v30
	c0,15.626,6.87,29.67,17.739,39.296c-10.358,3.947-17.739,13.978-17.739,25.704v100c0,14.27,5.73,27.22,15,36.692V494.5
	c0,3.228,2.066,6.094,5.128,7.115l30,10c0.787,0.262,1.586,0.387,2.373,0.387c3.14,0,6.066-1.988,7.114-5.13
	c1.31-3.93-0.814-8.177-4.744-9.487L79.5,489.094v-149.17C86.324,343.175,93.952,345,102,345s15.676-1.825,22.5-5.076V494.5
	c0,3.228,2.066,6.094,5.128,7.115l30,10c0.787,0.262,1.586,0.387,2.373,0.387c3.14,0,6.066-1.988,7.114-5.13
	c1.31-3.93-0.814-8.177-4.744-9.487l-24.872-8.291V329.192c9.27-9.473,15-22.423,15-36.692v-52.613
	c1.636,0.072,3.278,0.113,4.926,0.113h66.574c4.142,0,7.5-3.358,7.5-7.5S230.143,225,226.001,225z M102.001,60
	c20.678,0,37.5,16.822,37.5,37.5v2.5h-15.139c-5.652-6.325-13.746-10-22.361-10s-16.708,3.675-22.361,10H64.501v-2.5
	C64.501,76.822,81.323,60,102.001,60z M64.501,127.5V115h18.792c2.502,0,4.84-1.248,6.232-3.328
	c2.797-4.178,7.461-6.672,12.476-6.672s9.679,2.494,12.476,6.672c1.392,2.08,3.73,3.328,6.232,3.328h18.792v12.5
	c0,20.678-16.822,37.5-37.5,37.5S64.501,148.178,64.501,127.5z M65.256,300h73.491c-3.484,17.096-18.635,30-36.745,30
	S68.74,317.096,65.256,300z M139.501,285h-75v-92.5c0-6.893,5.607-12.5,12.5-12.5h50c6.893,0,12.5,5.607,12.5,12.5v30.41
	c-17.752-3.773-34.061-12.578-47.197-25.713c-2.929-2.929-7.678-2.929-10.606,0c-2.929,2.929-2.929,7.678,0,10.606
	c15.984,15.984,36.027,26.433,57.803,30.398V285z"/>
<path d="M248.001,105c-8.103,0-15.875,2.873-22,7.941c-6.125-5.068-13.897-7.941-22-7.941c-19.023,0-34.5,15.477-34.5,34.5
	c0,40.478,50.769,68.426,52.93,69.596c1.114,0.603,2.342,0.904,3.57,0.904s2.457-0.301,3.57-0.904
	c2.161-1.17,52.93-29.118,52.93-69.596C282.501,120.477,267.024,105,248.001,105z M226.001,193.784
	c-10.667-6.632-41.5-28.074-41.5-54.284c0-10.752,8.748-19.5,19.5-19.5c6.289,0,12.23,3.069,15.892,8.209
	c1.407,1.976,3.683,3.148,6.108,3.148s4.701-1.173,6.108-3.148c3.662-5.14,9.603-8.209,15.892-8.209c10.752,0,19.5,8.748,19.5,19.5
	C267.501,165.709,236.667,187.152,226.001,193.784z"/>
<path d="M447.501,259.759V192.5c0-15.164-12.337-27.5-27.5-27.5h-50c-15.163,0-27.5,12.336-27.5,27.5v31.21
	c-8.729-3.096-15-11.433-15-21.21v-60c0-4.142-3.357-7.5-7.5-7.5s-7.5,3.358-7.5,7.5v60c0,18.11,12.904,33.261,30,36.745v20.514
	c-9.693,11.989-15,26.935-15,42.406V352.5c0,4.142,3.357,7.5,7.5,7.5h22.5v129.094l-24.872,8.291
	c-3.929,1.31-6.053,5.557-4.743,9.487c1.048,3.143,3.974,5.13,7.114,5.13c0.786,0,1.586-0.125,2.373-0.387l30-10
	c3.063-1.021,5.128-3.887,5.128-7.115V360h45v129.094l-24.872,8.291c-3.929,1.31-6.053,5.557-4.743,9.487
	c1.048,3.143,3.974,5.13,7.114,5.13c0.786,0,1.586-0.125,2.373-0.387l30-10c3.063-1.021,5.128-3.887,5.128-7.115V360h22.5
	c4.143,0,7.5-3.358,7.5-7.5v-50.335C462.501,286.694,457.194,271.748,447.501,259.759z M357.501,192.5c0-6.893,5.607-12.5,12.5-12.5
	h50c6.893,0,12.5,5.607,12.5,12.5V255h-15v-52.5c0-4.142-3.357-7.5-7.5-7.5s-7.5,3.358-7.5,7.5V255h-45V192.5z M447.501,345h-105
	v-42.835c0-11.687,3.905-22.982,11.038-32.165h48.962v37.5c0,12.407,10.094,22.5,22.5,22.5c4.143,0,7.5-3.358,7.5-7.5
	s-3.357-7.5-7.5-7.5c-4.136,0-7.5-3.364-7.5-7.5V270h18.962c7.133,9.183,11.038,20.479,11.038,32.165V345z"/>
<path d="M380.001,150c28.948,0,52.5-23.551,52.5-52.5c0-12.812-4.619-24.561-12.271-33.685c-0.206-0.271-0.424-0.535-0.671-0.782
	c-4.78-5.463-10.623-9.916-17.222-13.032c4.762-5.312,7.665-12.323,7.665-20.001c0-16.542-13.458-30-30-30s-30,13.458-30,30
	c0,7.678,2.903,14.689,7.665,20.001c-6.599,3.116-12.442,7.568-17.192,13.004c-0.277,0.274-0.496,0.539-0.702,0.81
	c-7.652,9.124-12.271,20.873-12.271,33.685C327.501,126.449,351.053,150,380.001,150z M380.001,135c-20.678,0-37.5-16.822-37.5-37.5
	c0-6.567,1.702-12.742,4.68-18.116c9.751,7.072,21.284,10.615,32.82,10.615s23.069-3.542,32.82-10.615
	c2.978,5.374,4.68,11.549,4.68,18.116C417.501,118.178,400.679,135,380.001,135z M356.979,67.931
	c6.36-4.963,14.349-7.931,23.022-7.931s16.662,2.968,23.022,7.931C389.185,77.351,370.817,77.351,356.979,67.931z M365.001,30
	c0-8.271,6.729-15,15-15s15,6.729,15,15s-6.729,15-15,15S365.001,38.271,365.001,30z"/>
<g>
</g>
<g>
</g>
<g>
</g>
<g>
</g>
<g>
</g>
<g>
</g>
<g>
</g>
<g>
</g>
<g>
</g>
<g>
</g>
<g>
</g>
<g>
</g>
<g>
</g>
<g>
</g>
<g>
</g>
</svg>
