<?xml version="1.0" encoding="iso-8859-1"?>
<!-- Generator: Adobe Illustrator 19.0.0, SVG Export Plug-In . SVG Version: 6.00 Build 0)  -->
<svg version="1.1" id="Capa_1" xmlns="http://www.w3.org/2000/svg" xmlns:xlink="http://www.w3.org/1999/xlink" x="0px" y="0px"
	 viewBox="0 0 512.002 512.002" style="enable-background:new 0 0 512.002 512.002;" xml:space="preserve">
<polygon style="fill:#B9D171;" points="238.501,351.074 238.501,393.5 208.501,363.5 193.501,363.5 208.501,321.074 "/>
<polygon style="fill:#49C9FF;" points="178.501,351.074 178.501,393.5 208.501,363.5 208.501,321.074 "/>
<polygon style="fill:#B9D171;" points="462.075,272.165 504.501,272.165 474.501,302.165 474.501,317.165 432.075,302.165 "/>
<polygon style="fill:#49C9FF;" points="462.075,332.165 504.501,332.165 474.501,302.165 432.075,302.165 "/>
<path style="fill:#B9D171;" d="M73.501,52.5c-8.284,0-15,6.716-15,15v85h30v-85C88.501,59.216,81.785,52.5,73.501,52.5z"/>
<path style="fill:#60312C;" d="M103.501,107.5v90c24.853,0,45-20.147,45-45S128.354,107.5,103.501,107.5z"/>
<path style="fill:#85453D;" d="M118.501,152.5c0-24.853-6.716-45-15-45c-24.853,0-45,20.147-45,45s20.147,45,45,45
	C111.785,197.5,118.501,177.353,118.501,152.5z"/>
<path style="fill:#999999;" d="M103.501,277.5v90c24.853,0,45-20.147,45-45L103.501,277.5z"/>
<path style="fill:#CCCCCC;" d="M118.501,322.5l-15-45l-45,45c0,24.853,20.147,45,45,45C111.785,367.5,118.501,347.353,118.501,322.5
	z"/>
<path style="fill:#FF6337;" d="M128.501,227.5h-30l20,95h30v-75C148.501,236.454,139.547,227.5,128.501,227.5z"/>
<path style="fill:#FF8646;" d="M98.501,227.5h-20c-11.046,0-20,8.954-20,20v75h60v-75C118.501,236.454,109.547,227.5,98.501,227.5z"
	/>
<path style="fill:#FFE2A8;" d="M338.501,7.5v135c37.279,0,67.5-30.221,67.5-67.5S375.78,7.5,338.501,7.5z"/>
<path style="fill:#FFF0D3;" d="M376.001,75c0-37.279-16.789-67.5-37.5-67.5c-37.279,0-67.5,30.221-67.5,67.5s30.221,67.5,67.5,67.5
	C359.211,142.5,376.001,112.279,376.001,75z"/>
<path style="fill:#2DADE3;" d="M363.501,172.5h-30v120h50v-100C383.501,181.454,374.546,172.5,363.501,172.5z"/>
<path style="fill:#49C9FF;" d="M333.501,172.5h-20c-11.046,0-20,8.954-20,20v100h60v-100
	C353.501,181.454,344.546,172.5,333.501,172.5z"/>
<path style="fill:#FF4128;" d="M383.501,262.5h-30l15,90h30v-50.335C398.501,286.954,392.83,273.075,383.501,262.5z"/>
<path style="fill:#FF6337;" d="M353.501,262.5h-60c-9.329,10.575-15,24.454-15,39.665V352.5h90v-50.335
	C368.501,286.954,362.83,273.075,353.501,262.5z"/>
<path d="M103.501,205c28.949,0,52.5-23.551,52.5-52.5c0-5.988-1.021-11.739-2.876-17.105c-0.05-0.172-0.109-0.339-0.171-0.506
	C145.698,114.578,126.274,100,103.501,100c-2.547,0-5.049,0.192-7.5,0.544V67.5c0-12.407-10.093-22.5-22.5-22.5
	s-22.5,10.093-22.5,22.5v85C51.001,181.449,74.552,205,103.501,205z M133.48,130H73.521c6.848-9.102,17.737-15,29.98-15
	S126.632,120.898,133.48,130z M73.501,60c4.136,0,7.5,3.364,7.5,7.5v37.576c-5.622,2.678-10.692,6.33-15,10.731V67.5
	C66.001,63.364,69.365,60,73.501,60z M66.756,145h73.491c0.494,2.424,0.755,4.932,0.755,7.5c0,20.678-16.822,37.5-37.5,37.5
	s-37.5-16.822-37.5-37.5C66.001,149.932,66.262,147.424,66.756,145z"/>
<path d="M338.501,150c41.355,0,75-33.645,75-75s-33.645-75-75-75s-75,33.645-75,75S297.146,150,338.501,150z M338.501,15
	c33.084,0,60,26.916,60,60s-26.916,60-60,60s-60-26.916-60-60S305.417,15,338.501,15z"/>
<path d="M338.501,82.5h37.5c4.142,0,7.5-3.358,7.5-7.5s-3.358-7.5-7.5-7.5h-30v-15c0-4.142-3.358-7.5-7.5-7.5s-7.5,3.358-7.5,7.5V75
	C331.001,79.142,334.359,82.5,338.501,82.5z"/>
<path d="M485.107,302.165l24.697-24.697c2.145-2.145,2.787-5.371,1.626-8.173c-1.161-2.803-3.896-4.63-6.929-4.63h-42.426
	c-1.989,0-3.897,0.79-5.303,2.197l-27.803,27.803h-23.4c-1.426-12.755-6.452-24.869-14.568-34.906V230h37.5
	c12.407,0,22.5-10.093,22.5-22.5s-10.093-22.5-22.5-22.5h-38.548c-3.274-11.528-13.889-20-26.452-20h-50
	c-12.563,0-23.178,8.472-26.452,20h-38.548c-12.407,0-22.5,10.093-22.5,22.5s10.093,22.5,22.5,22.5h37.5v29.759
	c-9.693,11.989-15,26.935-15,42.406V352.5c0,4.142,3.358,7.5,7.5,7.5h22.5v129.094l-24.872,8.291
	c-3.93,1.31-6.053,5.557-4.744,9.487c1.048,3.143,3.974,5.13,7.114,5.13c0.786,0,1.586-0.125,2.373-0.387l30-10
	c3.063-1.021,5.128-3.887,5.128-7.115V360h45v134.5c0,3.228,2.066,6.094,5.128,7.115l30,10c0.787,0.262,1.586,0.387,2.373,0.387
	c3.14,0,6.066-1.988,7.114-5.13c1.31-3.93-0.814-8.177-4.744-9.487l-24.872-8.291V360h22.5c4.142,0,7.5-3.358,7.5-7.5v-20.335
	c0-4.142-3.358-7.5-7.5-7.5s-7.5,3.358-7.5,7.5V345h-105v-42.835c0-11.687,3.905-22.982,11.039-32.165h82.923
	c5.593,7.2,9.198,15.696,10.493,24.665H338.5c-4.142,0-7.5,3.358-7.5,7.5s3.358,7.5,7.5,7.5h90.467l27.803,27.803
	c1.406,1.407,3.314,2.197,5.303,2.197h42.426c3.034,0,5.768-1.827,6.929-4.63s0.519-6.028-1.626-8.173L485.107,302.165z
	 M436.001,207.5c0,4.136-3.364,7.5-7.5,7.5h-37.5v-15h37.5C432.637,200,436.001,203.364,436.001,207.5z M313.501,180h50
	c6.893,0,12.5,5.607,12.5,12.5V215h-30v-12.5c0-4.142-3.358-7.5-7.5-7.5s-7.5,3.358-7.5,7.5V215h-30v-22.5
	C301.001,185.607,306.608,180,313.501,180z M248.501,215c-4.136,0-7.5-3.364-7.5-7.5s3.364-7.5,7.5-7.5h37.5v15H248.501z
	 M376.001,230v25h-75v-25H376.001z M465.181,279.665h21.213l-15,15h-21.213L465.181,279.665z M465.181,324.665l-15-15h21.213l15,15
	H465.181z"/>
<path d="M216.001,317.967V227.5c0-4.142-3.358-7.5-7.5-7.5s-7.5,3.358-7.5,7.5v26.785c-12.819,11.863-28.701,18.595-45,20.169V247.5
	c0-15.164-12.336-27.5-27.5-27.5h-50c-15.164,0-27.5,12.336-27.5,27.5v75c0,14.27,5.73,27.22,15,36.692v60.902L5.129,440.385
	c-3.062,1.021-5.128,3.887-5.128,7.115v30c0,4.142,3.358,7.5,7.5,7.5s7.5-3.358,7.5-7.5v-24.594l60.872-20.291
	c3.063-1.021,5.128-3.887,5.128-7.115v-55.576c6.824,3.251,14.452,5.076,22.5,5.076s15.676-1.825,22.5-5.076V494.5
	c0,3.228,2.066,6.094,5.128,7.115l30,10c0.787,0.262,1.586,0.387,2.373,0.387c3.14,0,6.066-1.988,7.114-5.13
	c1.31-3.929-0.814-8.177-4.744-9.487L141,489.094V359.192c9.27-9.473,15-22.423,15-36.692v-33.015
	c15.844-1.28,31.407-6.625,45-16.029v44.512l-27.803,27.803c-1.407,1.406-2.197,3.314-2.197,5.303V393.5
	c0,3.034,1.827,5.768,4.63,6.929c2.802,1.162,6.029,0.52,8.173-1.626l24.697-24.697l24.697,24.697
	c1.435,1.435,3.353,2.197,5.305,2.197c0.966,0,1.941-0.187,2.869-0.571c2.803-1.161,4.63-3.896,4.63-6.929v-42.426
	c0-1.989-0.79-3.897-2.197-5.303L216.001,317.967z M78.501,235h50c6.893,0,12.5,5.607,12.5,12.5v26.954
	c-17.239-1.665-34.022-9.083-47.197-22.257c-2.929-2.929-7.678-2.929-10.606,0c-2.929,2.929-2.929,7.678,0,10.606
	c16.099,16.099,36.713,24.978,57.803,26.682V315h-75v-67.5C66.001,240.607,71.608,235,78.501,235z M66.756,330h73.491
	c-3.484,17.096-18.635,30-36.745,30S70.24,347.096,66.756,330z M186.001,354.18l15-15v21.213l-15,15V354.18z M231.001,375.394
	l-15-15V339.18l15,15V375.394z"/>
<g>
</g>
<g>
</g>
<g>
</g>
<g>
</g>
<g>
</g>
<g>
</g>
<g>
</g>
<g>
</g>
<g>
</g>
<g>
</g>
<g>
</g>
<g>
</g>
<g>
</g>
<g>
</g>
<g>
</g>
</svg>
