<?xml version="1.0" encoding="iso-8859-1"?>
<!-- Generator: Adobe Illustrator 19.0.0, SVG Export Plug-In . SVG Version: 6.00 Build 0)  -->
<svg version="1.1" id="Capa_1" xmlns="http://www.w3.org/2000/svg" xmlns:xlink="http://www.w3.org/1999/xlink" x="0px" y="0px"
	 viewBox="0 0 512.002 512.002" style="enable-background:new 0 0 512.002 512.002;" xml:space="preserve">
<path style="fill:#2DADE3;" d="M277.69,172.5h-30v120h50v-100C297.69,181.454,288.736,172.5,277.69,172.5z"/>
<path style="fill:#49C9FF;" d="M247.69,172.5h-20c-11.046,0-20,8.954-20,20v100h60v-100C267.69,181.454,258.736,172.5,247.69,172.5z
	"/>
<path style="fill:#FF4128;" d="M311.66,291.04c-2.15-10.8-6.97-20.61-13.97-28.54h-30l26.93,90h30
	C324.62,352.5,314.73,306.44,311.66,291.04z"/>
<path style="fill:#FF6337;" d="M281.66,291.04c-2.15-10.8-6.97-20.61-13.97-28.54h-60c-9.329,10.575-15,24.454-15,39.665V352.5
	h101.93C294.62,352.5,284.73,306.44,281.66,291.04z"/>
<path style="fill:#FFE2A8;" d="M252.69,7.5v135c37.279,0,67.5-30.221,67.5-67.5S289.969,7.5,252.69,7.5z"/>
<path style="fill:#FFF0D3;" d="M290.19,75c0-37.279-16.789-67.5-37.5-67.5c-37.279,0-67.5,30.221-67.5,67.5s30.221,67.5,67.5,67.5
	C273.401,142.5,290.19,112.279,290.19,75z"/>
<path d="M356.682,496.76l-24.872-8.291V407.5c0-0.521-0.054-1.041-0.162-1.55L321.94,360h2.677c2.266,0,4.41-1.024,5.833-2.786
	c1.424-1.762,1.975-4.073,1.5-6.288c-0.088-0.411-7.918-36.891-11.748-55.507c20.903-8.922,34.988-29.781,34.988-52.918
	c0-29.486-22.313-53.846-50.938-57.114C301.108,173.66,290.393,165,277.69,165h-50c-12.703,0-23.418,8.66-26.562,20.386
	c-28.625,3.268-50.938,27.628-50.938,57.114c0,23.265,14.243,44.22,35.336,53.059c-0.215,2.188-0.336,4.39-0.336,6.606V352.5
	c0,4.142,3.358,7.5,7.5,7.5h22.5v129.094l-24.872,8.291c-3.93,1.31-6.053,5.557-4.744,9.487c1.048,3.143,3.974,5.13,7.114,5.13
	c0.786,0,1.586-0.125,2.373-0.387l30-10c3.063-1.021,5.128-3.887,5.128-7.115V360h76.419l10.201,48.284v85.591
	c0,3.228,2.066,6.094,5.128,7.115l30,10c0.787,0.262,1.586,0.387,2.373,0.387c3.14,0,6.066-1.988,7.114-5.13
	C362.735,502.317,360.611,498.07,356.682,496.76z M340.19,242.5c0,16.257-9.407,30.985-23.603,38.067
	c-2.591-7.605-6.443-14.658-11.397-20.804v-59.086C325.058,204.23,340.19,221.625,340.19,242.5z M227.69,180h50
	c6.893,0,12.5,5.607,12.5,12.5V255h-75v-62.5C215.19,185.607,220.797,180,227.69,180z M165.19,242.5
	c0-20.875,15.132-38.27,35-41.824v59.083c-5.047,6.242-8.892,13.29-11.43,20.791C174.583,273.462,165.19,258.745,165.19,242.5z
	 M200.19,302.165c0-11.687,3.905-22.981,11.039-32.165h82.926c4.999,6.467,8.489,14.18,10.148,22.504
	c2.209,11.082,7.992,38.239,11.039,52.496h-2.666c-0.047,0-112.486,0-112.486,0L200.19,302.165L200.19,302.165z"/>
<path d="M252.69,150c41.355,0,75-33.645,75-75s-33.645-75-75-75s-75,33.645-75,75S211.335,150,252.69,150z M252.69,15
	c33.084,0,60,26.916,60,60s-26.916,60-60,60s-60-26.916-60-60S219.606,15,252.69,15z"/>
<path d="M252.69,82.5h37.5c4.142,0,7.5-3.358,7.5-7.5s-3.358-7.5-7.5-7.5h-30v-15c0-4.142-3.358-7.5-7.5-7.5
	c-4.142,0-7.5,3.358-7.5,7.5V75C245.19,79.142,248.548,82.5,252.69,82.5z"/>
<g>
</g>
<g>
</g>
<g>
</g>
<g>
</g>
<g>
</g>
<g>
</g>
<g>
</g>
<g>
</g>
<g>
</g>
<g>
</g>
<g>
</g>
<g>
</g>
<g>
</g>
<g>
</g>
<g>
</g>
</svg>
