<?xml version="1.0" encoding="iso-8859-1"?>
<!-- Generator: Adobe Illustrator 19.0.0, SVG Export Plug-In . SVG Version: 6.00 Build 0)  -->
<svg version="1.1" id="Capa_1" xmlns="http://www.w3.org/2000/svg" xmlns:xlink="http://www.w3.org/1999/xlink" x="0px" y="0px"
	 viewBox="0 0 512.002 512.002" style="enable-background:new 0 0 512.002 512.002;" xml:space="preserve">
<path style="fill:#1990C2;" d="M256.001,232.5v105c24.853,0,45-20.147,45-45v-30L256.001,232.5z"/>
<path style="fill:#FF4128;" d="M301.001,192.5c0-11.046-8.954-20-20-20h-30l5,90h45V192.5z"/>
<path style="fill:#2DADE3;" d="M211.001,262.5v30c0,24.853,20.147,45,45,45c8.284,0,15-20.147,15-45v-30l-30-20L211.001,262.5z"/>
<path style="fill:#FF6337;" d="M271.001,192.5c0-11.046-8.954-20-20-20h-20c-11.046,0-20,8.954-20,20v70h60V192.5z"/>
<circle style="fill:#60312C;" cx="256" cy="30" r="22.5"/>
<path style="fill:#A45E43;" d="M290.256,68.335c0.01-0.01-34.255-0.005-34.255-0.005v74.17c24.85,0,45-20.15,45-45
	C301.001,86.38,296.956,76.185,290.256,68.335z"/>
<path style="fill:#C27749;" d="M269.891,80.51l-48.145-12.175c-6.7,7.85-10.745,18.045-10.745,29.165c0,24.85,20.15,45,45,45
	c8.28,0,15-20.15,15-45C271.001,91.49,270.611,85.75,269.891,80.51z"/>
<path style="fill:#40211D;" d="M256.001,52.5l13.89,28.01c7.45-2.23,14.475-6.295,20.365-12.175
	C282.006,58.645,269.721,52.5,256.001,52.5z"/>
<path style="fill:#60312C;" d="M256.001,52.5c-13.72,0-26.005,6.145-34.255,15.835c13.04,13.04,31.645,17.105,48.145,12.175
	C267.661,64.08,262.281,52.5,256.001,52.5z"/>
<path d="M256.001,150c28.948,0,52.5-23.551,52.5-52.5c0-12.812-4.619-24.561-12.271-33.685c-0.206-0.271-0.424-0.535-0.671-0.782
	c-4.78-5.463-10.623-9.916-17.222-13.032c4.762-5.312,7.665-12.323,7.665-20.001c0-16.542-13.458-30-30-30s-30,13.458-30,30
	c0,7.678,2.903,14.689,7.665,20.001c-6.599,3.116-12.442,7.568-17.192,13.004c-0.277,0.274-0.496,0.539-0.701,0.81
	c-7.652,9.124-12.271,20.873-12.271,33.685C203.501,126.449,227.053,150,256.001,150z M256.001,135c-20.678,0-37.5-16.822-37.5-37.5
	c0-6.567,1.702-12.742,4.68-18.116c9.751,7.072,21.284,10.615,32.82,10.615c11.536,0,23.069-3.542,32.82-10.615
	c2.978,5.374,4.68,11.549,4.68,18.116C293.501,118.178,276.679,135,256.001,135z M232.979,67.931
	c6.36-4.963,14.348-7.931,23.022-7.931c8.674,0,16.662,2.968,23.022,7.931C265.185,77.351,246.817,77.351,232.979,67.931z
	 M241.001,30c0-8.271,6.729-15,15-15c8.271,0,15,6.729,15,15s-6.729,15-15,15C247.73,45,241.001,38.271,241.001,30z"/>
<path d="M350.316,330.95l-50.336-9.83c5.38-8.239,8.521-18.067,8.521-28.62V230h37.5c12.406,0,22.5-10.093,22.5-22.5
	s-10.094-22.5-22.5-22.5h-38.548c-3.274-11.528-13.889-20-26.452-20h-50c-12.563,0-23.178,8.472-26.452,20h-38.548
	c-12.406,0-22.5,10.093-22.5,22.5s10.094,22.5,22.5,22.5h37.5v62.5c0,14.269,5.73,27.22,15,36.692v159.902l-24.872,8.291
	c-3.93,1.31-6.053,5.557-4.743,9.487c1.048,3.143,3.974,5.13,7.114,5.13c0.786,0,1.586-0.125,2.373-0.387l30-10
	c3.063-1.021,5.128-3.887,5.128-7.115V375.532h112.5c12.406,0,22.5-10.093,22.5-22.5C368.501,342.281,360.85,332.993,350.316,330.95
	z M218.501,292.5V270h75v22.5c0,20.678-16.822,37.5-37.5,37.5C235.323,330,218.501,313.178,218.501,292.5z M353.501,207.5
	c0,4.136-3.364,7.5-7.5,7.5h-37.5v-15h37.5C350.137,200,353.501,203.364,353.501,207.5z M231.001,180h50
	c6.893,0,12.5,5.607,12.5,12.5V215h-30v-12.5c0-4.142-3.357-7.5-7.5-7.5c-4.143,0-7.5,3.358-7.5,7.5V215h-30v-22.5
	C218.501,185.607,224.108,180,231.001,180z M166.001,215c-4.136,0-7.5-3.364-7.5-7.5s3.364-7.5,7.5-7.5h37.5v15H166.001z
	 M293.501,230v25h-75v-25H293.501z M346.001,360.532h-112.5v-20.608c6.824,3.251,14.452,5.076,22.5,5.076
	c12.044,0,23.146-4.087,32.015-10.933l59.435,11.606c3.506,0.68,6.051,3.775,6.051,7.358
	C353.501,357.167,350.137,360.532,346.001,360.532z"/>
<g>
</g>
<g>
</g>
<g>
</g>
<g>
</g>
<g>
</g>
<g>
</g>
<g>
</g>
<g>
</g>
<g>
</g>
<g>
</g>
<g>
</g>
<g>
</g>
<g>
</g>
<g>
</g>
<g>
</g>
</svg>
