<?xml version="1.0" encoding="iso-8859-1"?>
<!-- Generator: Adobe Illustrator 19.0.0, SVG Export Plug-In . SVG Version: 6.00 Build 0)  -->
<svg version="1.1" id="Capa_1" xmlns="http://www.w3.org/2000/svg" xmlns:xlink="http://www.w3.org/1999/xlink" x="0px" y="0px"
	 viewBox="0 0 512.002 512.002" style="enable-background:new 0 0 512.002 512.002;" xml:space="preserve">
<path style="fill:#60312C;" d="M98.501,107.5v90c24.853,0,45-20.147,45-45S123.354,107.5,98.501,107.5z"/>
<path style="fill:#85453D;" d="M113.501,152.5c0-24.853-6.716-45-15-45c-24.853,0-45,20.147-45,45s20.147,45,45,45
	C106.785,197.5,113.501,177.353,113.501,152.5z"/>
<path style="fill:#49C9FF;" d="M388.501,259.167h-70v61.606c8.25,10.2,20.86,16.727,35,16.727s26.75-6.527,35-16.727V259.167z"/>
<polygon style="fill:#CCCCCC;" points="368.501,172.5 338.501,172.5 318.501,292.5 388.501,292.5 "/>
<g>
	<path style="fill:#FFA754;" d="M338.501,172.5v210h-30v-190c0-11.05,8.95-20,20-20H338.501z"/>
	<path style="fill:#FFA754;" d="M398.501,192.5v190h-30v-210h10C389.551,172.5,398.501,181.45,398.501,192.5z"/>
</g>
<path style="fill:#60312C;" d="M367.593,82.047L353.501,142.5c24.853,0,45-20.147,45-45L367.593,82.047z"/>
<path style="fill:#85453D;" d="M368.501,97.5c0-5.429-0.321-10.634-0.908-15.453l-41.095-20.546
	c-10.928,8.21-17.997,21.278-17.997,35.998c0,24.853,20.147,45,45,45C361.785,142.5,368.501,122.353,368.501,97.5z"/>
<path style="fill:#CCCCCC;" d="M353.501,52.5L368.4,92.332c9.413,3.341,19.543,5.168,30.101,5.168
	C398.501,72.647,378.354,52.5,353.501,52.5z"/>
<g>
	<path style="fill:#FFFFFF;" d="M353.501,52.5c-10.132,0-19.481,3.35-27.003,9.002c10.532,14.02,25.066,24.856,41.901,30.831
		C367.545,69.915,361.202,52.5,353.501,52.5z"/>
	<circle style="fill:#FFFFFF;" cx="353.5" cy="30" r="22.5"/>
</g>
<path style="fill:#999999;" d="M98.501,277.5v90c24.853,0,45-20.147,45-45L98.501,277.5z"/>
<path style="fill:#CCCCCC;" d="M113.501,322.5l-15-45l-45,45c0,24.853,20.147,45,45,45C106.785,367.5,113.501,347.353,113.501,322.5
	z"/>
<path style="fill:#FF6337;" d="M123.501,227.5h-30l20,95h30v-75C143.501,236.454,134.547,227.5,123.501,227.5z"/>
<path style="fill:#FF8646;" d="M93.501,227.5h-20c-11.046,0-20,8.954-20,20v75h60v-75C113.501,236.454,104.547,227.5,93.501,227.5z"
	/>
<g>
	<polygon style="fill:#CF301B;" points="218.501,122.5 188.501,122.5 183.501,152.5 203.501,172.5 223.501,152.5 	"/>
	<path style="fill:#CF301B;" d="M203.501,152.5l-10,30l10,30c16.568,0,30-13.432,30-30v-30H203.501z"/>
</g>
<path style="fill:#FF4128;" d="M173.501,152.5v30c0,16.569,13.431,30,30,30v-60H173.501z"/>
<path d="M98.501,205c28.948,0,52.5-23.551,52.5-52.5s-23.552-52.5-52.5-52.5s-52.5,23.551-52.5,52.5S69.553,205,98.501,205z
	 M98.501,115c20.678,0,37.5,16.822,37.5,37.5s-16.822,37.5-37.5,37.5s-37.5-16.822-37.5-37.5S77.823,115,98.501,115z"/>
<path d="M353.501,150c28.948,0,52.5-23.551,52.5-52.5c0-20.965-12.356-39.09-30.165-47.499c4.762-5.312,7.665-12.323,7.665-20.001
	c0-16.542-13.458-30-30-30s-30,13.458-30,30c0,7.678,2.903,14.689,7.665,20.001c-3.037,1.434-5.914,3.152-8.6,5.118
	c-0.194,0.12-0.386,0.247-0.572,0.386c-0.21,0.158-0.409,0.325-0.597,0.499c-12.395,9.612-20.395,24.633-20.395,41.496
	C301.001,126.449,324.553,150,353.501,150z M390.152,89.58c-20.154-2-38.58-11.211-52.297-26.146
	C342.62,61.235,347.917,60,353.501,60C371.461,60,386.506,72.694,390.152,89.58z M338.501,30c0-8.271,6.729-15,15-15s15,6.729,15,15
	s-6.729,15-15,15S338.501,38.271,338.501,30z M325.7,72.361c16.692,18.803,39.576,30.244,64.607,32.299
	C386.955,121.924,371.73,135,353.501,135c-20.678,0-37.5-16.822-37.5-37.5C316.001,87.837,319.676,79.017,325.7,72.361z"/>
<path d="M451.001,286.291V237.5c0-26.721-20.072-48.828-45.927-52.074C401.944,173.681,391.219,165,378.501,165h-50
	c-15.163,0-27.5,12.336-27.5,27.5v31.745c-17.096-3.484-30-18.635-30-36.745v-65c0-4.142-3.357-7.5-7.5-7.5s-7.5,3.358-7.5,7.5v65
	c0,26.402,19.593,48.304,45,51.956V382.5c0,4.142,3.357,7.5,7.5,7.5h7.5v99.094l-24.872,8.291c-3.929,1.31-6.053,5.557-4.743,9.487
	c1.048,3.143,3.974,5.13,7.114,5.13c0.786,0,1.586-0.125,2.373-0.387l30-10c3.063-1.021,5.128-3.887,5.128-7.115V390h7.5
	c4.143,0,7.5-3.358,7.5-7.5v-38.043c2.473,0.354,4.975,0.543,7.5,0.543s5.027-0.189,7.5-0.543V382.5c0,4.142,3.357,7.5,7.5,7.5h7.5
	v99.094l-24.872,8.291c-3.929,1.31-6.053,5.557-4.743,9.487c1.048,3.143,3.974,5.13,7.114,5.13c0.786,0,1.586-0.125,2.373-0.387
	l30-10c3.063-1.021,5.128-3.887,5.128-7.115V390h7.5c4.143,0,7.5-3.358,7.5-7.5V200.755c17.096,3.484,30,18.636,30,36.746v48.79
	c-8.729,3.096-15,11.433-15,21.21v197c0,4.142,3.357,7.5,7.5,7.5s7.5-3.358,7.5-7.5v-197c0-4.136,3.364-7.5,7.5-7.5
	s7.5,3.364,7.5,7.5c0,4.142,3.357,7.5,7.5,7.5s7.5-3.358,7.5-7.5C466.001,297.723,459.73,289.387,451.001,286.291z M361.001,180v105
	h-15V180H361.001z M331.001,375h-15V192.5c0-6.893,5.607-12.5,12.5-12.5h2.5V375z M346.001,329.239V300h15v29.239
	C356.069,330.232,350.933,330.232,346.001,329.239z M391.001,375h-15V180h2.5c6.893,0,12.5,5.607,12.5,12.5V375z"/>
<path d="M233.501,145h-3.646l-3.956-23.733c-0.604-3.617-3.732-6.267-7.398-6.267h-30c-3.666,0-6.795,2.65-7.398,6.267L177.147,145
	h-3.646c-4.143,0-7.5,3.358-7.5,7.5v30c0,18.11,12.904,33.261,30,36.745V250h-45v-2.5c0-15.164-12.337-27.5-27.5-27.5h-50
	c-15.163,0-27.5,12.336-27.5,27.5v75c0,14.269,5.73,27.22,15,36.692V494.5c0,3.228,2.065,6.094,5.128,7.115l30,10
	c0.787,0.262,1.587,0.387,2.373,0.387c3.141,0,6.066-1.988,7.114-5.13c1.31-3.929-0.814-8.177-4.743-9.487l-24.872-8.291v-119.17
	c6.824,3.251,14.452,5.076,22.5,5.076s15.676-1.825,22.5-5.076V494.5c0,3.228,2.065,6.094,5.128,7.115l30,10
	c0.787,0.262,1.587,0.387,2.373,0.387c3.141,0,6.066-1.988,7.114-5.13c1.31-3.929-0.814-8.177-4.743-9.487l-24.872-8.291V359.192
	c9.27-9.473,15-22.423,15-36.692V265h45v67.5c0,4.142,3.357,7.5,7.5,7.5s7.5-3.358,7.5-7.5V219.245
	c17.096-3.484,30-18.635,30-36.745v-30C241.001,148.358,237.644,145,233.501,145z M61.756,330h73.491
	c-3.484,17.096-18.635,30-36.745,30S65.24,347.096,61.756,330z M136.001,315h-75v-67.5c0-6.893,5.607-12.5,12.5-12.5h50
	c6.893,0,12.5,5.607,12.5,12.5v2.5h-52.5c-4.143,0-7.5,3.358-7.5,7.5s3.357,7.5,7.5,7.5h52.5V315z M194.854,130h17.293l2.5,15
	h-22.292L194.854,130z M226.001,182.5c0,12.407-10.094,22.5-22.5,22.5s-22.5-10.093-22.5-22.5V160h42.469c0.033,0,2.531,0,2.531,0
	V182.5z"/>
<g>
</g>
<g>
</g>
<g>
</g>
<g>
</g>
<g>
</g>
<g>
</g>
<g>
</g>
<g>
</g>
<g>
</g>
<g>
</g>
<g>
</g>
<g>
</g>
<g>
</g>
<g>
</g>
<g>
</g>
</svg>
