<?xml version="1.0" encoding="iso-8859-1"?>
<!-- Generator: Adobe Illustrator 19.0.0, SVG Export Plug-In . SVG Version: 6.00 Build 0)  -->
<svg version="1.1" id="Capa_1" xmlns="http://www.w3.org/2000/svg" xmlns:xlink="http://www.w3.org/1999/xlink" x="0px" y="0px"
	 viewBox="0 0 512.002 512.002" style="enable-background:new 0 0 512.002 512.002;" xml:space="preserve">
<circle style="fill:#FFFFFF;" cx="329.711" cy="30" r="22.5"/>
<path style="fill:#49C9FF;" d="M364.715,259.167h-70v61.606c8.25,10.2,20.86,16.727,35,16.727s26.75-6.527,35-16.727V259.167z"/>
<polygon style="fill:#CCCCCC;" points="344.715,172.5 314.715,172.5 294.715,292.5 364.715,292.5 "/>
<g>
	<path style="fill:#FFA754;" d="M314.715,172.5v210h-30v-190c0-11.05,8.95-20,20-20H314.715z"/>
	<path style="fill:#FFA754;" d="M374.715,192.5v190h-30v-210h10C365.765,172.5,374.715,181.45,374.715,192.5z"/>
</g>
<path style="fill:#60312C;" d="M343.807,82.047L329.715,142.5c24.853,0,45-20.147,45-45L343.807,82.047z"/>
<path style="fill:#85453D;" d="M344.715,97.5c0-5.429-0.321-10.634-0.908-15.453l-41.095-20.546
	c-10.928,8.21-17.997,21.278-17.997,35.998c0,24.853,20.147,45,45,45C337.999,142.5,344.715,122.353,344.715,97.5z"/>
<path style="fill:#CCCCCC;" d="M329.715,52.5l14.899,39.832c9.413,3.341,19.543,5.168,30.101,5.168
	C374.715,72.647,354.568,52.5,329.715,52.5z"/>
<path style="fill:#FFFFFF;" d="M329.715,52.5c-10.132,0-19.481,3.35-27.003,9.002c10.532,14.02,25.066,24.856,41.901,30.831
	C343.759,69.915,337.416,52.5,329.715,52.5z"/>
<circle style="fill:#60312C;" cx="212.291" cy="30" r="22.5"/>
<path style="fill:#A45E43;" d="M246.544,68.335c0.01-0.01-34.255-0.005-34.255-0.005v74.17c24.85,0,45-20.15,45-45
	C257.289,86.38,253.244,76.185,246.544,68.335z"/>
<path style="fill:#C27749;" d="M226.179,80.51l-48.145-12.175c-6.7,7.85-10.745,18.045-10.745,29.165c0,24.85,20.15,45,45,45
	c8.28,0,15-20.15,15-45C227.289,91.49,226.899,85.75,226.179,80.51z"/>
<path style="fill:#40211D;" d="M212.289,52.5l13.89,28.01c7.45-2.23,14.475-6.295,20.365-12.175
	C238.294,58.645,226.009,52.5,212.289,52.5z"/>
<path style="fill:#60312C;" d="M212.289,52.5c-13.72,0-26.005,6.145-34.255,15.835c13.04,13.04,31.645,17.105,48.145,12.175
	C223.949,64.08,218.569,52.5,212.289,52.5z"/>
<path style="fill:#2DADE3;" d="M237.289,172.5h-30v120l50-30v-70C257.289,181.454,248.335,172.5,237.289,172.5z"/>
<path style="fill:#49C9FF;" d="M207.289,172.5h-20c-11.046,0-20,8.954-20,20v100h60v-100
	C227.289,181.454,218.335,172.5,207.289,172.5z"/>
<polygon style="fill:#FF4128;" points="257.289,262.5 227.289,262.5 207.289,300 227.289,352.5 257.289,352.5 "/>
<path style="fill:#FF6337;" d="M227.289,262.5h-60c-9.329,10.575-15,24.454-15,39.665V352.5h75V262.5z"/>
<path d="M329.715,150c28.948,0,52.5-23.551,52.5-52.5c0-20.965-12.356-39.09-30.165-47.499c4.762-5.312,7.665-12.323,7.665-20.001
	c0-16.542-13.458-30-30-30s-30,13.458-30,30c0,7.678,2.903,14.689,7.665,20.001c-3.037,1.434-5.914,3.152-8.6,5.118
	c-0.194,0.12-0.386,0.247-0.572,0.386c-0.21,0.158-0.409,0.325-0.597,0.499c-12.395,9.612-20.395,24.633-20.395,41.496
	C277.215,126.449,300.767,150,329.715,150z M366.366,89.58c-20.154-2-38.58-11.211-52.297-26.146
	C318.834,61.235,324.131,60,329.715,60C347.675,60,362.72,72.694,366.366,89.58z M314.715,30c0-8.271,6.729-15,15-15s15,6.729,15,15
	s-6.729,15-15,15S314.715,38.271,314.715,30z M301.914,72.361c16.692,18.803,39.576,30.244,64.607,32.299
	c-3.352,17.264-18.577,30.34-36.806,30.34c-20.678,0-37.5-16.822-37.5-37.5C292.215,87.837,295.89,79.017,301.914,72.361z"/>
<path d="M426.657,286.102C423.611,268.463,408.21,255,389.715,255h-7.5v-62.5c0-15.164-12.337-27.5-27.5-27.5h-50
	c-12.563,0-23.178,8.472-26.452,20h-14.522c-3.274-11.528-13.889-20-26.452-20h-50c-12.465,0-23.013,8.339-26.375,19.729
	c-42.52-3.269-76.125-38.886-76.125-82.229c0-4.142-3.358-7.5-7.5-7.5s-7.5,3.358-7.5,7.5c0,51.238,39.729,93.372,90,97.214v60.045
	c-9.693,11.989-15,26.935-15,42.406V352.5c0,4.142,3.358,7.5,7.5,7.5h22.5v134.5c0,3.228,2.066,6.094,5.128,7.115l30,10
	c0.787,0.262,1.586,0.387,2.373,0.387c3.14,0,6.066-1.988,7.114-5.13c1.31-3.93-0.814-8.177-4.744-9.487l-24.872-8.291V360h45v134.5
	c0,3.228,2.066,6.094,5.128,7.115l30,10c0.787,0.262,1.587,0.387,2.373,0.387c3.141,0,6.066-1.988,7.114-5.13
	c1.31-3.93-0.814-8.177-4.743-9.487l-24.872-8.291V360h7.5c4.143,0,7.5-3.358,7.5-7.5V200h12.426v182.5c0,4.142,3.357,7.5,7.5,7.5
	h7.5v104.5c0,3.228,2.065,6.094,5.128,7.115l30,10c0.787,0.262,1.587,0.387,2.373,0.387c3.14,0,6.066-1.988,7.114-5.13
	c1.31-3.93-0.814-8.177-4.743-9.487l-24.872-8.291V390h7.5c4.143,0,7.5-3.358,7.5-7.5v-38.043c2.473,0.354,4.975,0.543,7.5,0.543
	s5.027-0.189,7.5-0.543V382.5c0,4.142,3.357,7.5,7.5,7.5h7.5v104.5c0,3.228,2.065,6.094,5.128,7.115l30,10
	c0.787,0.262,1.587,0.387,2.373,0.387c3.14,0,6.066-1.988,7.114-5.13c1.31-3.93-0.814-8.177-4.743-9.487l-24.872-8.291V390h7.5
	c4.143,0,7.5-3.358,7.5-7.5V270h7.5c10.361,0,19.104,7.042,21.707,16.59c-8.313,3.309-14.207,11.431-14.207,20.91
	c0,4.142,3.357,7.5,7.5,7.5s7.5-3.358,7.5-7.5c0-4.136,3.364-7.5,7.5-7.5s7.5,3.364,7.5,7.5v197c0,4.142,3.357,7.5,7.5,7.5
	s7.5-3.358,7.5-7.5v-197C442.215,297.516,435.676,289.035,426.657,286.102z M337.215,180v105h-15V180H337.215z M187.289,180h50
	c6.893,0,12.5,5.607,12.5,12.5V255h-75v-62.5C174.789,185.607,180.397,180,187.289,180z M159.789,345v-42.835
	c0-11.687,3.905-22.981,11.039-32.165h78.961v75H159.789z M307.215,375h-15V192.5c0-6.893,5.607-12.5,12.5-12.5h2.5V375z
	 M322.215,329.239V300h15v29.239C332.282,330.232,327.147,330.232,322.215,329.239z M367.215,375h-15V180h2.5
	c6.893,0,12.5,5.607,12.5,12.5V375z"/>
<path d="M212.289,150c28.949,0,52.5-23.551,52.5-52.5c0-12.814-4.621-24.565-12.275-33.689c-0.205-0.269-0.422-0.532-0.668-0.777
	c-4.777-5.462-10.622-9.916-17.222-13.032c4.762-5.312,7.665-12.323,7.665-20.001c0-16.542-13.458-30-30-30s-30,13.458-30,30
	c0,7.678,2.903,14.689,7.665,20.001c-6.6,3.116-12.444,7.57-17.194,13.007c-0.273,0.271-0.491,0.533-0.695,0.802
	c-7.654,9.125-12.275,20.875-12.275,33.689C159.789,126.449,183.34,150,212.289,150z M212.289,135c-20.678,0-37.5-16.822-37.5-37.5
	c0-6.567,1.702-12.743,4.68-18.117c9.75,7.072,21.284,10.615,32.82,10.615c11.536,0,23.069-3.543,32.82-10.615
	c2.978,5.374,4.68,11.549,4.68,18.117C249.789,118.178,232.967,135,212.289,135z M189.267,67.931
	c6.36-4.963,14.349-7.931,23.022-7.931s16.663,2.968,23.023,7.931C221.474,77.351,203.106,77.351,189.267,67.931z M197.289,30
	c0-8.271,6.729-15,15-15s15,6.729,15,15s-6.729,15-15,15S197.289,38.271,197.289,30z"/>
<g>
</g>
<g>
</g>
<g>
</g>
<g>
</g>
<g>
</g>
<g>
</g>
<g>
</g>
<g>
</g>
<g>
</g>
<g>
</g>
<g>
</g>
<g>
</g>
<g>
</g>
<g>
</g>
<g>
</g>
</svg>
