<?xml version="1.0" encoding="iso-8859-1"?>
<!-- Generator: Adobe Illustrator 19.0.0, SVG Export Plug-In . SVG Version: 6.00 Build 0)  -->
<svg version="1.1" id="Capa_1" xmlns="http://www.w3.org/2000/svg" xmlns:xlink="http://www.w3.org/1999/xlink" x="0px" y="0px"
	 viewBox="0 0 512.001 512.001" style="enable-background:new 0 0 512.001 512.001;" xml:space="preserve">
<path style="fill:#2DADE3;" d="M167.502,172.499h-30v120h50v-100C187.502,181.453,178.548,172.499,167.502,172.499z"/>
<path style="fill:#49C9FF;" d="M137.502,172.499h-20c-11.046,0-20,8.954-20,20v100h60v-100
	C157.502,181.453,148.548,172.499,137.502,172.499z"/>
<path style="fill:#FF4128;" d="M201.472,291.039c-2.15-10.8-6.97-20.61-13.97-28.54h-30l26.93,90h30
	C214.432,352.499,204.542,306.439,201.472,291.039z"/>
<path style="fill:#FF6337;" d="M184.432,352.499H70.572c0,0,9.89-46.06,12.96-61.46c2.15-10.8,6.97-20.61,13.97-28.54h60
	c7,7.93,11.82,17.74,13.97,28.54C174.542,306.439,184.432,352.499,184.432,352.499z"/>
<circle style="fill:#60312C;" cx="142.5" cy="29.999" r="22.5"/>
<path style="fill:#A45E43;" d="M176.757,68.334c0.01-0.01-34.255-0.005-34.255-0.005v74.17c24.85,0,45-20.15,45-45
	C187.502,86.379,183.457,76.184,176.757,68.334z"/>
<path style="fill:#C27749;" d="M156.392,80.509l-48.145-12.175c-6.7,7.85-10.745,18.045-10.745,29.165c0,24.85,20.15,45,45,45
	c8.28,0,15-20.15,15-45C157.502,91.489,157.112,85.749,156.392,80.509z"/>
<path style="fill:#40211D;" d="M142.502,52.499l13.89,28.01c7.45-2.23,14.475-6.295,20.365-12.175
	C168.507,58.644,156.222,52.499,142.502,52.499z"/>
<path style="fill:#60312C;" d="M142.502,52.499c-13.72,0-26.005,6.145-34.255,15.835c13.04,13.04,31.645,17.105,48.145,12.175
	C154.162,64.079,148.782,52.499,142.502,52.499z"/>
<path style="fill:#A8E5FF;" d="M369.502,22.499v240c66.168,0,120-53.832,120-120S435.67,22.499,369.502,22.499z"/>
<path style="fill:#DBF4FF;" d="M459.502,142.499c0-66.168-40.374-120-90-120c-60.676,0-110.971,45.269-118.903,103.806
	l-39.097,16.194l39.097,16.194c7.932,58.536,58.227,103.806,118.903,103.806C419.128,262.499,459.502,208.667,459.502,142.499z"/>
<circle cx="423.25" cy="117.499" r="7.5"/>
<circle cx="453.25" cy="167.499" r="7.5"/>
<path d="M264.874,497.384l-25.922-8.641l-27.2-128.744h2.677c2.266,0,4.41-1.024,5.833-2.786c1.424-1.762,1.975-4.073,1.5-6.288
	c-0.089-0.411-7.918-36.891-11.749-55.507c20.903-8.922,34.988-29.781,34.988-52.918c0-29.486-22.313-53.846-50.938-57.114
	c-3.143-11.727-13.858-20.387-26.561-20.387h-50c-12.703,0-23.418,8.66-26.562,20.386c-28.625,3.268-50.938,27.628-50.938,57.114
	c0,23.138,14.085,43.996,34.988,52.918c-3.831,18.617-11.66,55.097-11.749,55.507c-0.476,2.215,0.076,4.526,1.5,6.288
	c1.424,1.762,3.568,2.786,5.833,2.786h2.677l-27.2,128.744l-25.922,8.641c-3.93,1.31-6.053,5.557-4.744,9.487
	c1.048,3.143,3.974,5.13,7.114,5.13c0.786,0,1.586-0.125,2.373-0.387l30-10c2.526-0.842,4.416-2.96,4.966-5.565l28.745-136.049
	h107.838l28.743,136.05c0.55,2.605,2.44,4.723,4.966,5.565l30,10c0.787,0.262,1.586,0.387,2.373,0.387
	c3.14,0,6.066-1.988,7.114-5.13C270.927,502.941,268.803,498.694,264.874,497.384z M82.576,344.999c-0.027,0-0.055,0-0.082,0H79.85
	c3.047-14.258,8.83-41.415,11.039-52.496c1.66-8.324,5.15-16.037,10.148-22.504h82.929c4.999,6.468,8.489,14.181,10.148,22.504
	c2.209,11.082,7.991,38.238,11.039,52.496h-2.658c-0.02,0-0.04,0-0.059,0H82.576z M230.002,242.499
	c0,16.257-9.407,30.985-23.603,38.067c-2.591-7.605-6.443-14.658-11.397-20.804v-59.086
	C214.87,204.229,230.002,221.624,230.002,242.499z M117.502,179.999h50c6.893,0,12.5,5.607,12.5,12.5v62.5h-75v-62.5
	C105.002,185.606,110.609,179.999,117.502,179.999z M55.002,242.499c0-20.875,15.132-38.27,35-41.824v59.086
	c-4.954,6.146-8.805,13.199-11.397,20.804C64.409,273.484,55.002,258.756,55.002,242.499z"/>
<path d="M142.502,149.999c28.949,0,52.5-23.551,52.5-52.5c0-12.814-4.621-24.565-12.275-33.689
	c-0.205-0.269-0.422-0.532-0.668-0.777c-4.777-5.462-10.622-9.916-17.222-13.032c4.762-5.312,7.665-12.323,7.665-20.001
	c0-16.542-13.458-30-30-30s-30,13.458-30,30c0,7.678,2.903,14.689,7.665,20.001c-6.6,3.116-12.444,7.57-17.194,13.007
	c-0.273,0.271-0.491,0.533-0.695,0.802c-7.655,9.124-12.276,20.875-12.276,33.689C90.002,126.448,113.553,149.999,142.502,149.999z
	 M142.502,134.999c-20.678,0-37.5-16.822-37.5-37.5c0-6.565,1.701-12.739,4.678-18.112c9.49,6.91,20.869,10.648,32.822,10.648
	s23.332-3.739,32.822-10.648c2.977,5.373,4.678,11.546,4.678,18.112C180.002,118.177,163.18,134.999,142.502,134.999z
	 M119.47,67.938c6.361-4.968,14.354-7.939,23.032-7.939s16.671,2.971,23.032,7.939c-6.742,4.611-14.697,7.098-23.032,7.098
	S126.212,72.549,119.47,67.938z M127.502,29.999c0-8.271,6.729-15,15-15s15,6.729,15,15s-6.729,15-15,15
	S127.502,38.27,127.502,29.999z"/>
<path d="M369.502,14.999c-28.566,0-55.589,9.276-78.147,26.826c-3.269,2.543-3.857,7.255-1.314,10.525
	c2.543,3.268,7.255,3.858,10.525,1.314c19.9-15.482,43.737-23.665,68.936-23.665c62.033,0,112.5,50.467,112.5,112.5
	s-50.467,112.5-112.5,112.5c-56.031,0-103.954-41.835-111.471-97.313c-0.358-2.645-2.096-4.9-4.562-5.922l-22.368-9.265
	l22.368-9.265c2.466-1.021,4.204-3.277,4.562-5.922c2.645-19.518,10.474-38.103,22.641-53.746c2.543-3.27,1.954-7.981-1.316-10.525
	c-3.27-2.543-7.982-1.955-10.525,1.316c-12.892,16.576-21.489,36.076-25.004,56.635l-35.194,14.578
	c-2.803,1.161-4.63,3.896-4.63,6.929c0,3.033,1.827,5.768,4.63,6.929l35.193,14.578c10.359,60.727,63.631,105.993,125.676,105.993
	c70.304,0,127.5-57.196,127.5-127.5S439.806,14.999,369.502,14.999z"/>
<path d="M280.752,167.499c0,4.142,3.358,7.5,7.5,7.5s7.5-3.358,7.5-7.5v-50c0-4.142-3.358-7.5-7.5-7.5s-7.5,3.358-7.5,7.5V167.499z"
	/>
<path d="M350.752,152.499v-20c0-12.407-10.093-22.5-22.5-22.5s-22.5,10.093-22.5,22.5v20c0,12.407,10.093,22.5,22.5,22.5
	S350.752,164.906,350.752,152.499z M320.752,152.499v-20c0-4.136,3.364-7.5,7.5-7.5s7.5,3.364,7.5,7.5v20c0,4.136-3.364,7.5-7.5,7.5
	S320.752,156.635,320.752,152.499z"/>
<path d="M405.752,152.499v-20c0-12.407-10.093-22.5-22.5-22.5s-22.5,10.093-22.5,22.5v20c0,12.407,10.093,22.5,22.5,22.5
	S405.752,164.906,405.752,152.499z M375.752,152.499v-20c0-4.136,3.364-7.5,7.5-7.5s7.5,3.364,7.5,7.5v20c0,4.136-3.364,7.5-7.5,7.5
	S375.752,156.635,375.752,152.499z"/>
<path d="M457.111,111.068c-3.553-2.131-8.159-0.979-10.29,2.572l-30,50c-2.131,3.552-0.979,8.159,2.572,10.29
	c1.208,0.725,2.539,1.07,3.852,1.07c2.548,0,5.032-1.298,6.438-3.642l30-50C461.814,117.806,460.663,113.199,457.111,111.068z"/>
<g>
</g>
<g>
</g>
<g>
</g>
<g>
</g>
<g>
</g>
<g>
</g>
<g>
</g>
<g>
</g>
<g>
</g>
<g>
</g>
<g>
</g>
<g>
</g>
<g>
</g>
<g>
</g>
<g>
</g>
</svg>
