<?xml version="1.0" encoding="iso-8859-1"?>
<!-- Generator: Adobe Illustrator 19.0.0, SVG Export Plug-In . SVG Version: 6.00 Build 0)  -->
<svg version="1.1" id="Capa_1" xmlns="http://www.w3.org/2000/svg" xmlns:xlink="http://www.w3.org/1999/xlink" x="0px" y="0px"
	 viewBox="0 0 512.001 512.001" style="enable-background:new 0 0 512.001 512.001;" xml:space="preserve">
<path style="fill:#FF8D7E;" d="M119.684,82.499v90c24.853,0,45-20.147,45-45S144.537,82.499,119.684,82.499z"/>
<path style="fill:#FFB4A9;" d="M134.684,127.499c0-24.853-6.716-45-15-45c-24.853,0-45,20.147-45,45s20.147,45,45,45
	C127.968,172.499,134.684,152.352,134.684,127.499z"/>
<path style="fill:#60312C;" d="M94.684,262.499v75c24.853,0,45-20.147,45-45L94.684,262.499z"/>
<path style="fill:#85453D;" d="M109.684,292.499l-15-30l-45,30c0,24.853,20.147,45,45,45
	C102.968,337.499,109.684,317.352,109.684,292.499z"/>
<path style="fill:#FFA754;" d="M119.684,172.499h-30l20,120h30v-100C139.684,181.453,130.729,172.499,119.684,172.499z"/>
<path style="fill:#FFCB63;" d="M89.684,172.499h-20c-11.046,0-20,8.954-20,20v100h60v-100
	C109.684,181.453,100.729,172.499,89.684,172.499z"/>
<path style="fill:#2DADE3;" d="M422.318,172.499h-30v120h50v-100C442.318,181.453,433.364,172.499,422.318,172.499z"/>
<path style="fill:#49C9FF;" d="M392.318,172.499h-20c-11.046,0-20,8.954-20,20v100h60v-100
	C412.318,181.453,403.364,172.499,392.318,172.499z"/>
<path style="fill:#FF4128;" d="M442.318,262.499h-30l15,90h30v-50.335C457.318,286.953,451.647,273.074,442.318,262.499z"/>
<path style="fill:#FF6337;" d="M412.318,262.499h-60c-9.329,10.575-15,24.454-15,39.665v50.335h90v-50.335
	C427.318,286.953,421.647,273.074,412.318,262.499z"/>
<circle style="fill:#60312C;" cx="397.32" cy="29.999" r="22.5"/>
<path style="fill:#A45E43;" d="M431.573,68.334c0.01-0.01-34.255-0.005-34.255-0.005v74.17c24.85,0,45-20.15,45-45
	C442.318,86.379,438.273,76.184,431.573,68.334z"/>
<path style="fill:#C27749;" d="M411.208,80.509l-48.145-12.175c-6.7,7.85-10.745,18.045-10.745,29.165c0,24.85,20.15,45,45,45
	c8.28,0,15-20.15,15-45C412.318,91.489,411.928,85.749,411.208,80.509z"/>
<path style="fill:#40211D;" d="M397.318,52.499l13.89,28.01c7.45-2.23,14.475-6.295,20.365-12.175
	C423.323,58.644,411.038,52.499,397.318,52.499z"/>
<path style="fill:#60312C;" d="M397.318,52.499c-13.72,0-26.005,6.145-34.255,15.835c13.04,13.04,31.645,17.105,48.145,12.175
	C408.978,64.079,403.598,52.499,397.318,52.499z"/>
<polygon style="fill:#FFCB63;" points="314.684,82.499 284.684,74.999 254.684,97.499 284.684,119.999 314.684,112.499 "/>
<polygon style="fill:#FFE2A8;" points="194.684,52.499 194.684,142.499 284.684,119.999 284.684,74.999 "/>
<path d="M146.306,185.596c-0.982-3.783-2.755-7.249-5.126-10.219c18.257-8.229,31.004-26.587,31.004-47.878
	c0-28.949-23.551-52.5-52.5-52.5s-52.5,23.551-52.5,52.5c0,14.679,6.063,27.963,15.808,37.5H69.684
	c-12.78,0-23.552,8.764-26.622,20.597c-17.529,3.138-30.878,18.485-30.878,36.903v40c0,18.271,13.137,33.522,30.459,36.828
	c1.508,11.55,6.775,21.929,14.541,29.865v165.307c0,3.228,2.066,6.094,5.128,7.115l30,10c0.787,0.262,1.586,0.387,2.373,0.387
	c3.14,0,6.066-1.988,7.114-5.13c1.31-3.93-0.814-8.177-4.744-9.487l-24.872-8.291v-149.17c6.824,3.251,14.452,5.076,22.5,5.076
	s15.676-1.825,22.5-5.076v154.576c0,3.228,2.066,6.094,5.128,7.115l30,10c0.787,0.262,1.586,0.387,2.373,0.387
	c3.14,0,6.066-1.988,7.114-5.13c1.31-3.93-0.814-8.177-4.744-9.487l-24.872-8.291V329.191c7.766-7.936,13.034-18.315,14.541-29.865
	c17.322-3.306,30.459-18.557,30.459-36.828v-40C177.184,204.082,163.834,188.734,146.306,185.596z M82.184,127.499
	c0-20.678,16.822-37.5,37.5-37.5s37.5,16.822,37.5,37.5s-16.822,37.5-37.5,37.5S82.184,148.177,82.184,127.499z M69.684,179.999h50
	c6.893,0,12.5,5.607,12.5,12.5v92.5h-75v-92.5C57.184,185.606,62.791,179.999,69.684,179.999z M27.184,262.499v-40
	c0-9.777,6.271-18.114,15-21.21v82.42C33.454,280.613,27.184,272.276,27.184,262.499z M57.938,299.999h73.491
	c-3.484,17.096-18.635,30-36.745,30S61.422,317.095,57.938,299.999z M162.184,262.499c0,9.777-6.271,18.114-15,21.21v-82.42
	c8.729,3.096,15,11.433,15,21.21V262.499z"/>
<path d="M499.818,242.499c0-29.486-22.313-53.846-50.938-57.114c-3.144-11.726-13.858-20.386-26.562-20.386h-50
	c-15.164,0-27.5,12.336-27.5,27.5v17.5h-37.5c-12.407,0-22.5-10.093-22.5-22.5v-23.488c12.856-3.386,22.365-15.108,22.365-29.012
	v-12.895l9.319-2.33c3.339-0.834,5.681-3.834,5.681-7.276v-30c0-3.441-2.342-6.441-5.681-7.276l-114.319-28.58v-4.143
	c0-4.142-3.358-7.5-7.5-7.5s-7.5,3.358-7.5,7.5v110c0,4.142,3.358,7.5,7.5,7.5s7.5-3.358,7.5-7.5v-4.145l45.081-11.27
	c0.903,13.074,10.213,23.87,22.554,26.997v23.418c0,20.678,16.822,37.5,37.5,37.5h37.5v34.759c-9.693,11.989-15,26.935-15,42.406
	v50.335c0,4.142,3.358,7.5,7.5,7.5h22.5v129.094l-24.872,8.291c-3.93,1.31-6.053,5.557-4.744,9.487
	c1.048,3.143,3.974,5.13,7.114,5.13c0.786,0,1.586-0.125,2.373-0.387l30-10c3.063-1.021,5.128-3.887,5.128-7.115v-134.5h45v129.094
	l-24.872,8.291c-3.93,1.31-6.053,5.557-4.744,9.487c1.048,3.143,3.974,5.13,7.114,5.13c0.786,0,1.586-0.125,2.373-0.387l30-10
	c3.063-1.021,5.128-3.887,5.128-7.115v-134.5h22.5c4.142,0,7.5-3.358,7.5-7.5v-50.335c0-2.216-0.121-4.418-0.336-6.606
	C485.575,286.719,499.818,265.764,499.818,242.499z M202.184,62.104l105,26.25v18.288l-105,26.25L202.184,62.104L202.184,62.104z
	 M262.184,134.999v-1.645l30-7.5v9.145c0,8.271-6.729,15-15,15S262.184,143.27,262.184,134.999z M359.818,192.499
	c0-6.893,5.607-12.5,12.5-12.5h50c6.893,0,12.5,5.607,12.5,12.5v62.5h-75V192.499z M449.818,344.999h-105v-42.835
	c0-11.687,3.905-22.982,11.039-32.165h82.923c7.133,9.184,11.039,20.479,11.039,32.165v42.835H449.818z M461.249,280.549
	c-2.539-7.501-6.384-14.549-11.43-20.791v-59.083c19.868,3.554,35,20.949,35,41.824
	C484.818,258.744,475.426,273.461,461.249,280.549z"/>
<path d="M397.318,149.999c28.949,0,52.5-23.551,52.5-52.5c0-12.814-4.621-24.565-12.275-33.689
	c-0.205-0.269-0.422-0.532-0.668-0.777c-4.777-5.462-10.622-9.916-17.222-13.032c4.762-5.312,7.665-12.323,7.665-20.001
	c0-16.542-13.458-30-30-30s-30,13.458-30,30c0,7.678,2.903,14.689,7.665,20.001c-6.6,3.116-12.444,7.57-17.194,13.007
	c-0.273,0.271-0.491,0.533-0.695,0.802c-7.654,9.125-12.275,20.875-12.275,33.689C344.818,126.448,368.37,149.999,397.318,149.999z
	 M397.318,134.999c-20.678,0-37.5-16.822-37.5-37.5c0-6.565,1.701-12.739,4.678-18.112c9.49,6.91,20.869,10.648,32.822,10.648
	s23.332-3.739,32.822-10.648c2.977,5.373,4.678,11.546,4.678,18.112C434.818,118.177,417.996,134.999,397.318,134.999z
	 M374.286,67.938c6.362-4.968,14.354-7.939,23.032-7.939s16.671,2.971,23.032,7.939c-6.742,4.611-14.697,7.098-23.032,7.098
	C388.983,75.036,381.028,72.549,374.286,67.938z M382.318,29.999c0-8.271,6.729-15,15-15s15,6.729,15,15s-6.729,15-15,15
	S382.318,38.27,382.318,29.999z"/>
<g>
</g>
<g>
</g>
<g>
</g>
<g>
</g>
<g>
</g>
<g>
</g>
<g>
</g>
<g>
</g>
<g>
</g>
<g>
</g>
<g>
</g>
<g>
</g>
<g>
</g>
<g>
</g>
<g>
</g>
</svg>
