<?xml version="1.0" encoding="iso-8859-1"?>
<!-- Generator: Adobe Illustrator 19.0.0, SVG Export Plug-In . SVG Version: 6.00 Build 0)  -->
<svg version="1.1" id="Capa_1" xmlns="http://www.w3.org/2000/svg" xmlns:xlink="http://www.w3.org/1999/xlink" x="0px" y="0px"
	 viewBox="0 0 512.002 512.002" style="enable-background:new 0 0 512.002 512.002;" xml:space="preserve">
<path style="fill:#2DADE3;" d="M147.501,172.5h-30v120h50v-100C167.501,181.454,158.547,172.5,147.501,172.5z"/>
<path style="fill:#49C9FF;" d="M117.501,172.5h-20c-11.046,0-20,8.954-20,20v100h60v-100
	C137.501,181.454,128.547,172.5,117.501,172.5z"/>
<path style="fill:#FF4128;" d="M181.471,291.04c-2.15-10.8-6.97-20.61-13.97-28.54h-30l26.93,90h30
	C194.431,352.5,184.541,306.44,181.471,291.04z"/>
<path style="fill:#FF6337;" d="M151.471,291.04c-2.15-10.8-6.97-20.61-13.97-28.54h-60c-9.329,10.575-15,24.454-15,39.665V352.5
	h101.93C164.431,352.5,154.541,306.44,151.471,291.04z"/>
<path style="fill:#A45E43;" d="M136.593,82.047L122.501,142.5c24.853,0,45-20.147,45-45L136.593,82.047z"/>
<path style="fill:#C27749;" d="M137.501,97.5c0-5.429-0.321-10.634-0.908-15.453L95.498,61.502
	C84.571,69.712,77.501,82.78,77.501,97.5c0,24.853,20.147,45,45,45C130.785,142.5,137.501,122.353,137.501,97.5z"/>
<path style="fill:#40211D;" d="M122.501,52.5L137.4,92.332c9.413,3.341,19.543,5.168,30.101,5.168
	C167.501,72.647,147.354,52.5,122.501,52.5z"/>
<g>
	<path style="fill:#60312C;" d="M122.501,52.5c-10.132,0-19.481,3.35-27.003,9.002c10.532,14.02,25.066,24.856,41.901,30.831
		C136.545,69.915,130.202,52.5,122.501,52.5z"/>
	<circle style="fill:#60312C;" cx="122.5" cy="30" r="22.5"/>
</g>
<path style="fill:#FFF0D3;" d="M349.501,22.5v240c66.168,0,120-53.832,120-120S415.669,22.5,349.501,22.5z"/>
<path style="fill:#FFFFFF;" d="M439.501,142.5c0-66.168-40.374-120-90-120c-60.676,0-110.971,45.269-118.903,103.806L191.501,142.5
	l39.097,16.194C238.53,217.231,288.825,262.5,349.501,262.5C399.127,262.5,439.501,208.668,439.501,142.5z"/>
<path style="fill:#FFA754;" d="M349.501,52.5v180c49.706,0,90-40.294,90-90S399.207,52.5,349.501,52.5z"/>
<path style="fill:#FFCB63;" d="M409.501,142.5c0-49.706-26.863-90-60-90c-49.706,0-90,40.294-90,90s40.294,90,90,90
	C382.638,232.5,409.501,192.206,409.501,142.5z"/>
<path d="M226.493,496.76l-24.872-8.291V407.5c0-0.521-0.055-1.041-0.162-1.55L191.751,360h2.678c2.266,0,4.409-1.024,5.833-2.786
	c1.425-1.762,1.976-4.073,1.5-6.288c-0.099-0.46-9.913-46.184-12.938-61.354c-2.203-11.052-6.962-21.298-13.823-29.809V240h7.5
	c15.163,0,27.5-12.336,27.5-27.5s-12.337-27.5-27.5-27.5h-8.548c-3.274-11.528-13.889-20-26.452-20h-50
	c-12.563,0-23.178,8.472-26.452,20h-8.548c-15.163,0-27.5,12.336-27.5,27.5s12.337,27.5,27.5,27.5h7.5v19.759
	c-9.693,11.989-15,26.935-15,42.406V352.5c0,4.142,3.357,7.5,7.5,7.5h22.5v129.094l-24.872,8.291
	c-3.929,1.31-6.053,5.557-4.743,9.487c1.048,3.143,3.974,5.13,7.114,5.13c0.786,0,1.586-0.125,2.373-0.387l30-10
	c3.063-1.021,5.128-3.887,5.128-7.115V360h76.419l10.201,48.284v85.591c0,3.228,2.065,6.094,5.128,7.115l30,10
	c0.787,0.262,1.587,0.387,2.373,0.387c3.14,0,6.066-1.988,7.114-5.13C232.546,502.317,230.423,498.07,226.493,496.76z
	 M195.001,212.5c0,6.893-5.607,12.5-12.5,12.5h-7.5v-25h7.5C189.394,200,195.001,205.607,195.001,212.5z M97.501,180h50
	c6.893,0,12.5,5.607,12.5,12.5V225h-75v-32.5C85.001,185.607,90.608,180,97.501,180z M62.501,225c-6.893,0-12.5-5.607-12.5-12.5
	s5.607-12.5,12.5-12.5h7.5v25H62.501z M160.001,240v15h-75v-15H160.001z M70.001,302.165c0-11.687,3.905-22.982,11.038-32.165
	h82.927c4.998,6.467,8.488,14.18,10.147,22.504c2.21,11.082,7.992,38.239,11.04,52.496h-2.677c-0.025,0-112.475,0-112.475,0V302.165
	z"/>
<path d="M122.501,150c28.948,0,52.5-23.551,52.5-52.5c0-20.965-12.356-39.091-30.165-47.499c4.762-5.312,7.665-12.323,7.665-20.001
	c0-16.542-13.458-30-30-30s-30,13.458-30,30c0,7.678,2.903,14.689,7.665,20.001c-3.034,1.432-5.907,3.147-8.59,5.11
	c-0.198,0.122-0.393,0.251-0.583,0.393c-0.211,0.158-0.41,0.326-0.599,0.501C78,65.618,70.001,80.638,70.001,97.5
	C70.001,126.449,93.553,150,122.501,150z M159.152,89.58c-20.154-2-38.58-11.212-52.297-26.147C111.62,61.236,116.918,60,122.501,60
	C140.461,60,155.506,72.694,159.152,89.58z M107.501,30c0-8.271,6.729-15,15-15s15,6.729,15,15s-6.729,15-15,15
	S107.501,38.271,107.501,30z M94.701,72.361c16.691,18.804,39.576,30.244,64.606,32.299C155.955,121.924,140.73,135,122.501,135
	c-20.678,0-37.5-16.822-37.5-37.5C85.001,87.837,88.676,79.017,94.701,72.361z"/>
<path d="M349.501,15c-28.566,0-55.589,9.276-78.146,26.826c-3.27,2.543-3.857,7.256-1.314,10.525
	c2.545,3.269,7.255,3.858,10.525,1.314C300.465,38.183,324.302,30,349.501,30c62.032,0,112.5,50.467,112.5,112.5
	S411.533,255,349.501,255c-56.031,0-103.953-41.835-111.472-97.313c-0.358-2.645-2.096-4.9-4.562-5.922L211.1,142.5l22.368-9.265
	c2.466-1.021,4.203-3.277,4.562-5.922c2.645-19.518,10.474-38.103,22.641-53.746c2.543-3.27,1.954-7.981-1.315-10.525
	c-3.271-2.542-7.981-1.954-10.524,1.316c-12.894,16.577-21.489,36.077-25.005,56.636l-35.194,14.578
	c-2.803,1.161-4.63,3.896-4.63,6.929s1.827,5.768,4.63,6.929l35.193,14.578C234.185,224.734,287.457,270,349.501,270
	c70.304,0,127.5-57.196,127.5-127.5S419.805,15,349.501,15z"/>
<path d="M304.501,125h22.5v2.5c0,4.142,3.357,7.5,7.5,7.5s7.5-3.358,7.5-7.5v-10c0-4.142-3.357-7.5-7.5-7.5h-30
	c-4.143,0-7.5,3.358-7.5,7.5S300.358,125,304.501,125z"/>
<path d="M364.501,125h22.5v2.5c0,4.142,3.357,7.5,7.5,7.5s7.5-3.358,7.5-7.5v-10c0-4.142-3.357-7.5-7.5-7.5h-30
	c-4.143,0-7.5,3.358-7.5,7.5S360.358,125,364.501,125z"/>
<path d="M349.501,240c53.762,0,97.5-43.738,97.5-97.5S403.263,45,349.501,45s-97.5,43.738-97.5,97.5S295.739,240,349.501,240z
	 M349.501,60c45.49,0,82.5,37.009,82.5,82.5s-37.01,82.5-82.5,82.5s-82.5-37.009-82.5-82.5S304.011,60,349.501,60z"/>
<path d="M331.001,157.5c0,4.142,3.357,7.5,7.5,7.5h22c4.143,0,7.5-3.358,7.5-7.5s-3.357-7.5-7.5-7.5h-22
	C334.358,150,331.001,153.358,331.001,157.5z"/>
<g>
</g>
<g>
</g>
<g>
</g>
<g>
</g>
<g>
</g>
<g>
</g>
<g>
</g>
<g>
</g>
<g>
</g>
<g>
</g>
<g>
</g>
<g>
</g>
<g>
</g>
<g>
</g>
<g>
</g>
</svg>
