<?xml version="1.0" encoding="iso-8859-1"?>
<!-- Generator: Adobe Illustrator 19.0.0, SVG Export Plug-In . SVG Version: 6.00 Build 0)  -->
<svg version="1.1" id="Capa_1" xmlns="http://www.w3.org/2000/svg" xmlns:xlink="http://www.w3.org/1999/xlink" x="0px" y="0px"
	 viewBox="0 0 512.002 512.002" style="enable-background:new 0 0 512.002 512.002;" xml:space="preserve">
<path style="fill:#40211D;" d="M173.502,262.5v75c24.853,0,45-20.147,45-45L173.502,262.5z"/>
<path style="fill:#60312C;" d="M188.502,292.5l-15-30l-45,30c0,24.853,20.147,45,45,45C181.786,337.5,188.502,317.353,188.502,292.5
	z"/>
<path style="fill:#C27749;" d="M198.502,172.5h-30l20,120h30v-100C218.502,181.454,209.548,172.5,198.502,172.5z"/>
<path style="fill:#E18F4E;" d="M168.502,172.5h-20c-11.046,0-20,8.954-20,20v100h60v-100
	C188.502,181.454,179.548,172.5,168.502,172.5z"/>
<path style="fill:#FFB4A9;" d="M173.502,52.5v101l45-46v-10C218.502,72.647,198.355,52.5,173.502,52.5z"/>
<path style="fill:#FFD9D4;" d="M173.502,52.5c-24.853,0-45,20.147-45,45v10l60,46v-56C188.502,72.647,181.786,52.5,173.502,52.5z"/>
<path style="fill:#FF6337;" d="M192.211,107.5c-1.053-1.573-2.303-3.002-3.709-4.261l-15,69.261c24.853,0,45-20.147,45-45v-20
	H192.211z"/>
<path style="fill:#FF8646;" d="M188.502,127.5v-24.261c-3.981-3.566-9.235-5.739-15-5.739c-7.801,0-14.672,3.971-18.709,10h-26.291
	v20c0,24.853,20.147,45,45,45C181.786,172.5,188.502,152.353,188.502,127.5z"/>
<path style="fill:#C27749;" d="M173.502,17.5l3.5,50h30V51C207.002,32.498,192.003,17.5,173.502,17.5z"/>
<path style="fill:#E18F4E;" d="M173.502,17.5c-18.502,0-33.5,14.998-33.5,33.5v16.5h37V51C177.002,32.498,175.435,17.5,173.502,17.5
	z"/>
<rect x="248.5" y="92.5" style="fill:#FFCB63;" width="60" height="30"/>
<polygon style="fill:#40211D;" points="338.499,85 323.499,107.5 338.499,130 368.499,130 368.499,85 "/>
<rect x="368.5" y="85" style="fill:#FFCB63;" width="30" height="45"/>
<rect x="293.5" y="85" style="fill:#60312C;" width="45" height="45"/>
<path d="M398.502,77.5h-105c-4.143,0-7.5,3.358-7.5,7.5h-37.5c-4.143,0-7.5,3.358-7.5,7.5v30c0,4.142,3.357,7.5,7.5,7.5h37.5
	c0,4.142,3.357,7.5,7.5,7.5h7.5v35c0,12.407-10.094,22.5-22.5,22.5h-15.02c4.719-6.272,7.52-14.064,7.52-22.5v-20
	c0-4.142-3.357-7.5-7.5-7.5s-7.5,3.358-7.5,7.5v20c0,12.407-10.094,22.5-22.5,22.5h-7.5v-2.5c0-11.727-7.381-21.757-17.739-25.704
	c10.869-9.625,17.739-23.67,17.739-39.296v-30c0-7.86-1.762-15.528-5.07-22.5h27.57c4.143,0,7.5-3.358,7.5-7.5s-3.357-7.5-7.5-7.5
	h-34v-9c0-20.045-14.464-36.765-33.5-40.3V7.5c0-4.142-3.357-7.5-7.5-7.5s-7.5,3.358-7.5,7.5v3.2
	c-19.036,3.535-33.5,20.255-33.5,40.3v13.721c-7.431,9.285-11.5,20.812-11.5,32.779v30c0,15.626,6.87,29.67,17.739,39.296
	c-10.358,3.947-17.739,13.977-17.739,25.704v100c0,14.269,5.73,27.22,15,36.692v159.902l-24.872,8.291
	c-3.93,1.31-6.053,5.557-4.743,9.487c1.048,3.143,3.974,5.13,7.114,5.13c0.786,0,1.586-0.125,2.373-0.387l30-10
	c3.063-1.021,5.128-3.887,5.128-7.115V339.924c6.824,3.25,14.452,5.076,22.5,5.076s15.676-1.825,22.5-5.076V494.5
	c0,3.228,2.065,6.094,5.128,7.115l30,10c0.787,0.262,1.587,0.387,2.373,0.387c3.141,0,6.066-1.988,7.114-5.13
	c1.31-3.93-0.813-8.177-4.743-9.487l-24.872-8.291V329.192c9.27-9.472,15-22.423,15-36.692V210h52.5c20.678,0,37.5-16.822,37.5-37.5
	v-35h82.5c4.143,0,7.5-3.358,7.5-7.5V85C406.002,80.858,402.645,77.5,398.502,77.5z M211.002,97.5v2.5h-15.139
	c-5.653-6.325-13.747-10-22.361-10s-16.708,3.675-22.361,10h-15.139v-2.5c0-8.16,2.646-16.034,7.503-22.5h59.994
	C208.355,81.466,211.002,89.34,211.002,97.5z M147.502,51c0-14.336,11.663-26,26-26s26,11.664,26,26v9h-52V51z M136.002,127.5V115
	h18.791c2.502,0,4.84-1.248,6.232-3.327c2.797-4.178,7.462-6.673,12.477-6.673s9.68,2.495,12.477,6.673
	c1.393,2.079,3.73,3.327,6.232,3.327h18.791v12.5c0,20.678-16.822,37.5-37.5,37.5S136.002,148.178,136.002,127.5z M136.757,300
	h73.491c-3.484,17.096-18.635,30-36.745,30S140.241,317.096,136.757,300z M211.002,285h-75v-92.5c0-6.893,5.607-12.5,12.5-12.5h50
	c6.893,0,12.5,5.607,12.5,12.5v2.5h-50.983c-4.143,0-7.5,3.358-7.5,7.5s3.357,7.5,7.5,7.5h50.983V285z M361.002,92.5v30h-60v-30
	H361.002z M256.002,115v-15h30v15H256.002z M391.002,122.5h-15v-30h15V122.5z"/>
<g>
</g>
<g>
</g>
<g>
</g>
<g>
</g>
<g>
</g>
<g>
</g>
<g>
</g>
<g>
</g>
<g>
</g>
<g>
</g>
<g>
</g>
<g>
</g>
<g>
</g>
<g>
</g>
<g>
</g>
</svg>
