<?xml version="1.0" encoding="iso-8859-1"?>
<!-- Generator: Adobe Illustrator 19.0.0, SVG Export Plug-In . SVG Version: 6.00 Build 0)  -->
<svg version="1.1" id="Capa_1" xmlns="http://www.w3.org/2000/svg" xmlns:xlink="http://www.w3.org/1999/xlink" x="0px" y="0px"
	 viewBox="0 0 512.002 512.002" style="enable-background:new 0 0 512.002 512.002;" xml:space="preserve">
<path style="fill:#2DADE3;" d="M397.501,262.5v75c24.853,0,45-20.147,45-45L397.501,262.5z"/>
<path style="fill:#49C9FF;" d="M412.501,292.5l-15-30l-45,30c0,24.853,20.147,45,45,45C405.785,337.5,412.501,317.353,412.501,292.5
	z"/>
<path style="fill:#9DB55F;" d="M422.501,172.5h-30l20,120h30v-100C442.501,181.454,433.547,172.5,422.501,172.5z"/>
<path style="fill:#B9D171;" d="M392.501,172.5h-20c-11.046,0-20,8.954-20,20v100h60v-100
	C412.501,181.454,403.547,172.5,392.501,172.5z"/>
<path style="fill:#FFB4A9;" d="M397.501,52.5v101l45-46v-10C442.501,72.647,422.354,52.5,397.501,52.5z"/>
<path style="fill:#FFD9D4;" d="M397.501,52.5c-24.853,0-45,20.147-45,45v10l60,46v-56C412.501,72.647,405.785,52.5,397.501,52.5z"/>
<path style="fill:#FF6337;" d="M416.21,107.5c-1.053-1.573-2.303-3.002-3.709-4.261l-15,69.261c24.853,0,45-20.147,45-45v-20H416.21
	z"/>
<path style="fill:#FF8646;" d="M412.501,127.5v-24.261c-3.981-3.566-9.235-5.739-15-5.739c-7.801,0-14.672,3.971-18.709,10h-26.291
	v20c0,24.853,20.147,45,45,45C405.785,172.5,412.501,152.353,412.501,127.5z"/>
<path style="fill:#FF4128;" d="M318.321,20.68c-8.787-8.787-20.303-13.18-31.82-13.18v108.64l31.82-31.82
	C335.894,66.746,335.894,38.254,318.321,20.68z"/>
<path style="fill:#FF6337;" d="M297.108,84.32c5.858-17.574,5.858-46.066,0-63.64c-2.929-8.787-6.768-13.18-10.607-13.18
	c-11.517,0-23.033,4.393-31.82,13.18c-17.573,17.574-17.573,46.066,0,63.64l31.82,31.82L297.108,84.32z"/>
<circle style="fill:#60312C;" cx="175.5" cy="30" r="22.5"/>
<path style="fill:#9DB55F;" d="M209.756,68.335c0.01-0.01-34.255-0.005-34.255-0.005v74.17c24.85,0,45-20.15,45-45
	C220.501,86.38,216.456,76.185,209.756,68.335z"/>
<path style="fill:#B9D171;" d="M189.391,80.51l-48.145-12.175c-6.7,7.85-10.745,18.045-10.745,29.165c0,24.85,20.15,45,45,45
	c8.28,0,15-20.15,15-45C190.501,91.49,190.111,85.75,189.391,80.51z"/>
<path style="fill:#40211D;" d="M175.501,52.5l13.89,28.01c7.45-2.23,14.475-6.295,20.365-12.175
	C201.506,58.645,189.221,52.5,175.501,52.5z"/>
<path style="fill:#60312C;" d="M175.501,52.5c-13.72,0-26.005,6.145-34.255,15.835c13.04,13.04,31.645,17.105,48.145,12.175
	C187.161,64.08,181.781,52.5,175.501,52.5z"/>
<path style="fill:#2DADE3;" d="M185.501,172.5h-30v120h50v-100C205.501,181.454,196.547,172.5,185.501,172.5z"/>
<path style="fill:#49C9FF;" d="M155.501,172.5h-20c-11.046,0-20,8.954-20,20v100h60v-100
	C175.501,181.454,166.547,172.5,155.501,172.5z"/>
<path style="fill:#FF4128;" d="M205.501,262.5h-30l15,90h30v-50.335C220.501,286.954,214.83,273.075,205.501,262.5z"/>
<path style="fill:#FF6337;" d="M175.501,262.5h-60c-9.329,10.575-15,24.454-15,39.665V352.5h90v-50.335
	C190.501,286.954,184.83,273.075,175.501,262.5z"/>
<path style="fill:#FF8646;" d="M33.591,100.23c-8.787-8.787-8.787-23.033,0-31.82s23.033-8.787,31.82,0
	c8.787,8.787,8.787,23.033,0,31.82l-15.91,15.91L33.591,100.23z"/>
<path d="M449.513,299.557c28.408-3.472,50.488-27.727,50.488-57.057c0-29.486-22.313-53.846-50.938-57.115
	c-2.293-8.553-8.616-15.471-16.801-18.59c10.869-9.625,17.739-23.67,17.739-39.296v-30c0-28.949-23.552-52.5-52.5-52.5
	s-52.5,23.551-52.5,52.5v30c0,15.626,6.87,29.67,17.739,39.296c-8.061,3.072-14.313,9.829-16.691,18.204h-52.048v-28.86
	c0-4.142-3.357-7.5-7.5-7.5s-7.5,3.358-7.5,7.5V185h-7.5c-12.406,0-22.5,10.093-22.5,22.5s10.094,22.5,22.5,22.5h7.5v62.5
	c0,4.142,3.357,7.5,7.5,7.5s7.5-3.358,7.5-7.5V230h7.5c4.143,0,7.5-3.358,7.5-7.5s-3.357-7.5-7.5-7.5h-7.5v-15h51v92.5
	c0,14.269,5.73,27.22,15,36.692v159.902l-24.872,8.291c-3.93,1.31-6.053,5.557-4.743,9.487c1.048,3.143,3.974,5.13,7.114,5.13
	c0.786,0,1.586-0.125,2.373-0.387l30-10c3.063-1.021,5.128-3.887,5.128-7.115V339.924c6.824,3.25,14.452,5.076,22.5,5.076
	s15.676-1.825,22.5-5.076V494.5c0,3.228,2.065,6.094,5.128,7.115l30,10c0.787,0.262,1.587,0.387,2.373,0.387
	c3.141,0,6.066-1.988,7.114-5.13c1.31-3.93-0.813-8.177-4.743-9.487l-24.872-8.291V329.192
	C442.716,321.309,447.966,311.015,449.513,299.557z M279.001,215h-7.5c-4.136,0-7.5-3.364-7.5-7.5s3.364-7.5,7.5-7.5h7.5V215z
	 M485.001,242.5c0,20.875-15.132,38.27-35,41.824v-83.647C469.869,204.23,485.001,221.625,485.001,242.5z M397.501,60
	c20.678,0,37.5,16.822,37.5,37.5v2.5h-15.139c-5.653-6.325-13.747-10-22.361-10s-16.708,3.675-22.361,10h-15.139v-2.5
	C360.001,76.822,376.823,60,397.501,60z M360.001,127.5V115h18.791c2.502,0,4.84-1.248,6.232-3.327
	c2.797-4.178,7.462-6.673,12.477-6.673s9.68,2.495,12.477,6.673c1.393,2.079,3.73,3.327,6.232,3.327h18.791v12.5
	c0,20.678-16.822,37.5-37.5,37.5S360.001,148.178,360.001,127.5z M372.501,180h50c6.893,0,12.5,5.607,12.5,12.5V285h-75v-92.5
	C360.001,185.607,365.608,180,372.501,180z M360.756,300h73.491c-3.484,17.096-18.635,30-36.745,30S364.24,317.096,360.756,300z"/>
<path d="M279.001,119.247v6.893c0,4.142,3.357,7.5,7.5,7.5s7.5-3.358,7.5-7.5v-6.893l29.624-29.624
	c20.469-20.47,20.469-53.776-0.001-74.246C313.708,5.461,300.524,0,286.501,0s-27.207,5.461-37.123,15.377
	c-20.47,20.47-20.47,53.776,0,74.246L279.001,119.247z M259.984,25.983C267.067,18.9,276.484,15,286.501,15
	s19.434,3.9,26.517,10.983c14.621,14.621,14.621,38.412,0,53.033l-26.517,26.517l-26.517-26.517
	C245.363,64.395,245.363,40.605,259.984,25.983z"/>
<path d="M215.058,63.033c-4.777-5.462-10.622-9.916-17.222-13.032c4.762-5.312,7.665-12.323,7.665-20.001c0-16.542-13.458-30-30-30
	s-30,13.458-30,30c0,7.678,2.903,14.689,7.665,20.001c-6.6,3.116-12.444,7.57-17.194,13.007c-0.273,0.271-0.491,0.533-0.695,0.802
	c-7.654,9.124-12.275,20.875-12.275,33.689c0,28.949,23.551,52.5,52.5,52.5s52.5-23.551,52.5-52.5
	c0-12.814-4.621-24.565-12.275-33.689C215.521,63.542,215.304,63.279,215.058,63.033z M198.533,67.939
	c-6.742,4.611-14.697,7.098-23.032,7.098c-8.335,0-16.29-2.487-23.032-7.098C158.83,62.971,166.823,60,175.501,60
	C184.179,60,192.172,62.971,198.533,67.939z M160.501,30c0-8.271,6.729-15,15-15s15,6.729,15,15s-6.729,15-15,15
	S160.501,38.271,160.501,30z M175.501,135c-20.678,0-37.5-16.822-37.5-37.5c0-6.565,1.701-12.739,4.677-18.112
	c9.49,6.91,20.87,10.648,32.823,10.648s23.333-3.739,32.823-10.648c2.977,5.373,4.677,11.546,4.677,18.112
	C213.001,118.178,196.179,135,175.501,135z"/>
<path d="M213.001,192.5c0-15.164-12.336-27.5-27.5-27.5h-50c-12.563,0-23.178,8.472-26.452,20H57.001v-28.86
	c0-4.142-3.358-7.5-7.5-7.5s-7.5,3.358-7.5,7.5V185h-7.5c-12.407,0-22.5,10.093-22.5,22.5s10.093,22.5,22.5,22.5h7.5v62.5
	c0,4.142,3.358,7.5,7.5,7.5s7.5-3.358,7.5-7.5V230h7.5c4.142,0,7.5-3.358,7.5-7.5s-3.358-7.5-7.5-7.5h-7.5v-15h51v59.759
	c-9.693,11.989-15,26.935-15,42.406V352.5c0,4.142,3.358,7.5,7.5,7.5h22.5v129.094l-24.872,8.291
	c-3.93,1.31-6.053,5.557-4.744,9.487c1.048,3.143,3.974,5.13,7.114,5.13c0.786,0,1.586-0.125,2.373-0.387l30-10
	c3.063-1.021,5.128-3.887,5.128-7.115V360h45v129.094l-24.872,8.291c-3.93,1.31-6.053,5.557-4.744,9.487
	c1.048,3.143,3.974,5.13,7.114,5.13c0.786,0,1.586-0.125,2.373-0.387l30-10c3.063-1.021,5.128-3.887,5.128-7.115V360h22.5
	c4.142,0,7.5-3.358,7.5-7.5v-50.335c0-15.471-5.307-30.417-15-42.406V192.5H213.001z M42.001,215h-7.5c-4.136,0-7.5-3.364-7.5-7.5
	s3.364-7.5,7.5-7.5h7.5V215z M135.501,180h50c6.893,0,12.5,5.607,12.5,12.5V255h-15v-52.5c0-4.142-3.358-7.5-7.5-7.5
	s-7.5,3.358-7.5,7.5V255h-45v-62.5C123.001,185.607,128.608,180,135.501,180z M213.001,345h-105v-42.835
	c0-11.687,3.905-22.981,11.039-32.165h48.961v52.5c0,4.142,3.358,7.5,7.5,7.5s7.5-3.358,7.5-7.5V270h18.961
	c7.133,9.184,11.039,20.479,11.039,32.165V345z"/>
<path d="M42.001,119.246v6.894c0,4.142,3.358,7.5,7.5,7.5s7.5-3.358,7.5-7.5v-6.894l13.713-13.713
	c5.667-5.666,8.787-13.2,8.787-21.213s-3.121-15.547-8.787-21.213c-5.666-5.667-13.2-8.787-21.213-8.787s-15.547,3.121-21.213,8.787
	s-8.787,13.2-8.787,21.213s3.121,15.547,8.787,21.213L42.001,119.246z M38.894,73.713c2.833-2.833,6.6-4.394,10.607-4.394
	c4.006,0,7.773,1.56,10.606,4.394c2.833,2.833,4.394,6.6,4.394,10.606s-1.56,7.773-4.394,10.606l-10.606,10.607L38.894,94.926
	c-2.833-2.833-4.393-6.6-4.393-10.606S36.061,76.546,38.894,73.713z"/>
<g>
</g>
<g>
</g>
<g>
</g>
<g>
</g>
<g>
</g>
<g>
</g>
<g>
</g>
<g>
</g>
<g>
</g>
<g>
</g>
<g>
</g>
<g>
</g>
<g>
</g>
<g>
</g>
<g>
</g>
</svg>
