<?xml version="1.0" encoding="iso-8859-1"?>
<!-- Generator: Adobe Illustrator 19.0.0, SVG Export Plug-In . SVG Version: 6.00 Build 0)  -->
<svg version="1.1" id="Capa_1" xmlns="http://www.w3.org/2000/svg" xmlns:xlink="http://www.w3.org/1999/xlink" x="0px" y="0px"
	 viewBox="0 0 512.002 512.002" style="enable-background:new 0 0 512.002 512.002;" xml:space="preserve">
<path style="fill:#2DADE3;" d="M218.567,172.5h-30v120h50v-100C238.567,181.454,229.613,172.5,218.567,172.5z"/>
<path style="fill:#49C9FF;" d="M188.567,172.5h-20c-11.046,0-20,8.954-20,20v100h60v-100
	C208.567,181.454,199.613,172.5,188.567,172.5z"/>
<path style="fill:#FF4128;" d="M238.567,262.5h-30l15,90h30v-50.335C253.567,286.954,247.896,273.075,238.567,262.5z"/>
<path style="fill:#FF6337;" d="M208.567,262.5h-60c-9.329,10.575-15,24.454-15,39.665V352.5h90v-50.335
	C223.567,286.954,217.896,273.075,208.567,262.5z"/>
<circle style="fill:#60312C;" cx="193.571" cy="30" r="22.5"/>
<path style="fill:#A45E43;" d="M227.822,68.335c0.01-0.01-34.255-0.005-34.255-0.005v74.17c24.85,0,45-20.15,45-45
	C238.567,86.38,234.522,76.185,227.822,68.335z"/>
<path style="fill:#C27749;" d="M207.457,80.51l-48.145-12.175c-6.7,7.85-10.745,18.045-10.745,29.165c0,24.85,20.15,45,45,45
	c8.28,0,15-20.15,15-45C208.567,91.49,208.177,85.75,207.457,80.51z"/>
<path style="fill:#40211D;" d="M193.567,52.5l13.89,28.01c7.45-2.23,14.475-6.295,20.365-12.175
	C219.572,58.645,207.287,52.5,193.567,52.5z"/>
<path style="fill:#60312C;" d="M193.567,52.5c-13.72,0-26.005,6.145-34.255,15.835c13.04,13.04,31.645,17.105,48.145,12.175
	C205.227,64.08,199.847,52.5,193.567,52.5z"/>
<path style="fill:#353535;" d="M353.437,424.5v80c22.091,0,40-17.909,40-40S375.528,424.5,353.437,424.5z"/>
<path style="fill:#4F4F4F;" d="M363.437,464.5c0-22.091-4.477-40-10-40c-22.091,0-40,17.909-40,40s17.909,40,40,40
	C358.96,504.5,363.437,486.591,363.437,464.5z"/>
<path d="M193.567,150c28.949,0,52.5-23.551,52.5-52.5c0-12.814-4.621-24.565-12.275-33.689c-0.205-0.269-0.422-0.532-0.668-0.778
	c-4.777-5.462-10.622-9.916-17.222-13.032c4.762-5.312,7.665-12.323,7.665-20.001c0-16.542-13.458-30-30-30s-30,13.458-30,30
	c0,7.678,2.903,14.689,7.665,20.001c-6.6,3.116-12.444,7.57-17.194,13.007c-0.273,0.271-0.491,0.533-0.695,0.802
	c-7.654,9.124-12.275,20.875-12.275,33.689C141.067,126.449,164.618,150,193.567,150z M193.567,135c-20.678,0-37.5-16.822-37.5-37.5
	c0-6.565,1.701-12.739,4.678-18.112c9.49,6.91,20.87,10.649,32.822,10.649c11.953,0,23.332-3.739,32.822-10.648
	c2.977,5.373,4.678,11.546,4.678,18.112C231.067,118.178,214.245,135,193.567,135z M170.535,67.939
	C176.896,62.971,184.889,60,193.567,60s16.671,2.971,23.032,7.939c-6.742,4.611-14.697,7.098-23.032,7.098
	S177.277,72.55,170.535,67.939z M178.567,30c0-8.271,6.729-15,15-15s15,6.729,15,15s-6.729,15-15,15S178.567,38.271,178.567,30z"/>
<path d="M353.437,417c-23.639,0-43.295,17.36-46.902,40h-75.468v-97h22.5c4.142,0,7.5-3.358,7.5-7.5v-50.335
	c0-3.098-0.222-6.172-0.641-9.208c9.761-6.981,15.641-18.203,15.641-30.457v-40c0-18.417-13.349-33.765-30.878-36.903
	C242.119,173.764,231.347,165,218.567,165h-50c-12.78,0-23.552,8.764-26.622,20.597c-17.529,3.138-30.878,18.485-30.878,36.903v40
	c0,12.254,5.88,23.476,15.641,30.457c-0.418,3.036-0.641,6.111-0.641,9.208V352.5c0,4.142,3.358,7.5,7.5,7.5h22.5v129.094
	l-24.872,8.291c-3.93,1.31-6.053,5.557-4.744,9.487c1.048,3.143,3.974,5.13,7.114,5.13c0.786,0,1.586-0.125,2.373-0.387l30-10
	c3.063-1.021,5.128-3.887,5.128-7.115V360h45v97h-7.5c-4.142,0-7.5,3.358-7.5,7.5s3.358,7.5,7.5,7.5h7.5v22.5
	c0,3.228,2.066,6.094,5.128,7.115l30,10c0.787,0.262,1.586,0.387,2.373,0.387c3.14,0,6.066-1.988,7.114-5.13
	c1.31-3.93-0.814-8.177-4.744-9.487l-24.872-8.291V472h75.468c3.607,22.64,23.263,40,46.902,40c26.191,0,47.5-21.309,47.5-47.5
	S379.628,417,353.437,417z M246.067,201.29c8.729,3.096,15,11.432,15,21.21v40c0,5.277-1.819,10.236-5.011,14.166
	c-2.473-6.052-5.822-11.754-9.989-16.907V201.29z M156.067,192.5c0-6.893,5.607-12.5,12.5-12.5h50c6.893,0,12.5,5.607,12.5,12.5V255
	h-75V192.5z M131.078,276.666c-3.192-3.93-5.011-8.889-5.011-14.166v-40c0-9.778,6.271-18.114,15-21.21v58.469
	C136.901,264.912,133.551,270.614,131.078,276.666z M141.067,345v-42.835c0-11.687,3.905-22.981,11.039-32.165h82.923
	c7.133,9.183,11.039,20.478,11.039,32.165V345H141.067z M353.437,497c-17.92,0-32.5-14.58-32.5-32.5s14.58-32.5,32.5-32.5
	s32.5,14.58,32.5,32.5S371.357,497,353.437,497z"/>
<g>
</g>
<g>
</g>
<g>
</g>
<g>
</g>
<g>
</g>
<g>
</g>
<g>
</g>
<g>
</g>
<g>
</g>
<g>
</g>
<g>
</g>
<g>
</g>
<g>
</g>
<g>
</g>
<g>
</g>
</svg>
