<?xml version="1.0" encoding="iso-8859-1"?>
<!-- Generator: Adobe Illustrator 19.0.0, SVG Export Plug-In . SVG Version: 6.00 Build 0)  -->
<svg version="1.1" id="Capa_1" xmlns="http://www.w3.org/2000/svg" xmlns:xlink="http://www.w3.org/1999/xlink" x="0px" y="0px"
	 viewBox="0 0 512.002 512.002" style="enable-background:new 0 0 512.002 512.002;" xml:space="preserve">
<polygon style="fill:#D5E3AA;" points="306.632,112.5 336.632,112.5 336.632,7.5 306.632,7.5 283.502,60 "/>
<polygon style="fill:#FFF0D3;" points="306.632,7.5 306.631,112.5 185.373,112.5 155.373,142.5 155.373,7.5 "/>
<path style="fill:#FFB4A9;" d="M80.373,52.5v101l45-46v-10C125.373,72.647,105.226,52.5,80.373,52.5z"/>
<path style="fill:#FFD9D4;" d="M80.373,52.5c-24.853,0-45,20.147-45,45v10l60,46v-56C95.373,72.647,88.657,52.5,80.373,52.5z"/>
<path style="fill:#FF6337;" d="M99.082,107.5c-1.053-1.573-2.303-3.002-3.709-4.261l-15,69.261c24.853,0,45-20.147,45-45v-20H99.082
	z"/>
<path style="fill:#FF8646;" d="M95.373,127.5v-24.261c-3.981-3.566-9.235-5.739-15-5.739c-7.801,0-14.672,3.971-18.709,10H35.373v20
	c0,24.853,20.147,45,45,45C88.657,172.5,95.373,152.353,95.373,127.5z"/>
<path style="fill:#2DADE3;" d="M80.373,262.5v75c24.853,0,45-20.147,45-45L80.373,262.5z"/>
<path style="fill:#49C9FF;" d="M95.373,292.5l-15-30l-45,30c0,24.853,20.147,45,45,45C88.657,337.5,95.373,317.353,95.373,292.5z"/>
<path style="fill:#9DB55F;" d="M105.373,172.5h-30l20,120h30v-100C125.373,181.454,116.419,172.5,105.373,172.5z"/>
<path style="fill:#B9D171;" d="M75.373,172.5h-20c-11.046,0-20,8.954-20,20v100h60v-100C95.373,181.454,86.419,172.5,75.373,172.5z"
	/>
<path style="fill:#2DADE3;" d="M436.631,172.5h-30v120h50v-100C456.631,181.454,447.677,172.5,436.631,172.5z"/>
<path style="fill:#49C9FF;" d="M406.631,172.5h-20c-11.046,0-20,8.954-20,20v100h60v-100
	C426.631,181.454,417.677,172.5,406.631,172.5z"/>
<path style="fill:#FF4128;" d="M456.631,262.5h-30l15,90h30v-50.335C471.631,286.954,465.96,273.075,456.631,262.5z"/>
<path style="fill:#FF6337;" d="M426.631,262.5h-60c-9.329,10.575-15,24.454-15,39.665V352.5h90v-50.335
	C441.631,286.954,435.96,273.075,426.631,262.5z"/>
<circle style="fill:#60312C;" cx="411.63" cy="30" r="22.5"/>
<path style="fill:#A45E43;" d="M445.886,68.335c0.01-0.01-34.255-0.005-34.255-0.005v74.17c24.85,0,45-20.15,45-45
	C456.631,86.38,452.586,76.185,445.886,68.335z"/>
<path style="fill:#C27749;" d="M425.521,80.51l-48.145-12.175c-6.7,7.85-10.745,18.045-10.745,29.165c0,24.85,20.15,45,45,45
	c8.28,0,15-20.15,15-45C426.631,91.49,426.241,85.75,425.521,80.51z"/>
<path style="fill:#40211D;" d="M411.631,52.5l13.89,28.01c7.45-2.23,14.475-6.295,20.365-12.175
	C437.636,58.645,425.351,52.5,411.631,52.5z"/>
<path style="fill:#60312C;" d="M411.631,52.5c-13.72,0-26.005,6.145-34.255,15.835c13.04,13.04,31.645,17.105,48.145,12.175
	C423.291,64.08,417.911,52.5,411.631,52.5z"/>
<circle cx="216" cy="60" r="7.5"/>
<circle cx="246" cy="60" r="7.5"/>
<circle cx="276" cy="60" r="7.5"/>
<path d="M193.103,197.197c-16.626,16.627-38.39,25.045-60.229,25.291V192.5c0-11.727-7.381-21.757-17.739-25.704
	c10.869-9.625,17.739-23.67,17.739-39.296v-30c0-28.949-23.552-52.5-52.5-52.5s-52.5,23.551-52.5,52.5v30
	c0,15.626,6.87,29.67,17.739,39.296c-10.358,3.947-17.739,13.977-17.739,25.704v100c0,14.269,5.73,27.22,15,36.692v159.902
	l-24.872,8.291c-3.93,1.31-6.053,5.557-4.743,9.487c1.048,3.143,3.974,5.13,7.114,5.13c0.786,0,1.586-0.125,2.373-0.387l30-10
	c3.063-1.021,5.128-3.887,5.128-7.115V339.924c6.824,3.25,14.452,5.076,22.5,5.076s15.676-1.825,22.5-5.076V494.5
	c0,3.228,2.065,6.094,5.128,7.115l30,10c0.787,0.262,1.587,0.387,2.373,0.387c3.141,0,6.066-1.988,7.114-5.13
	c1.31-3.93-0.813-8.177-4.743-9.487l-24.872-8.291V329.192c9.27-9.472,15-22.423,15-36.692v-55.008
	c25.681-0.246,51.286-10.138,70.837-29.689c2.929-2.929,2.929-7.678,0-10.606S196.033,194.267,193.103,197.197z M80.373,60
	c20.678,0,37.5,16.822,37.5,37.5v2.5h-15.14c-5.652-6.325-13.745-10-22.36-10s-16.709,3.675-22.361,10H42.873v-2.5
	C42.873,76.822,59.695,60,80.373,60z M42.873,127.5V115h18.791c2.503,0,4.84-1.248,6.232-3.328
	c2.797-4.178,7.461-6.672,12.477-6.672c5.015,0,9.679,2.494,12.476,6.672c1.393,2.08,3.729,3.328,6.232,3.328h18.792v12.5
	c0,20.678-16.822,37.5-37.5,37.5S42.873,148.178,42.873,127.5z M55.373,180h50c6.893,0,12.5,5.607,12.5,12.5v28.855
	c-17.292-2.815-33.891-10.852-47.196-24.158c-2.93-2.929-7.678-2.929-10.607,0s-2.929,7.678,0,10.606
	c16.235,16.235,36.644,25.808,57.804,28.732V285h-75v-92.5C42.873,185.607,48.481,180,55.373,180z M43.628,300h73.491
	c-3.484,17.096-18.635,30-36.745,30S47.112,317.096,43.628,300z"/>
<path d="M344.131,112.5l0.001-105c0-1.989-0.79-3.897-2.196-5.303C340.528,0.79,338.621,0,336.632,0H155.373
	c-4.143,0-7.5,3.358-7.5,7.5l-0.001,135c0,3.033,1.827,5.768,4.63,6.929c0.928,0.384,1.902,0.571,2.868,0.571
	c1.952,0,3.87-0.762,5.306-2.197L188.479,120h88.153c4.143,0,7.5-3.358,7.5-7.5s-3.357-7.5-7.5-7.5h-91.26
	c-1.989,0-3.896,0.79-5.304,2.197l-17.196,17.196L162.873,15h166.259l-0.001,90h-22.499c-4.143,0-7.5,3.358-7.5,7.5
	s3.357,7.5,7.5,7.5h29.999C340.773,120,344.131,116.642,344.131,112.5z"/>
<path d="M471.631,240c15.163,0,27.5-12.336,27.5-27.5s-12.337-27.5-27.5-27.5h-8.548c-3.274-11.528-13.889-20-26.452-20h-50
	c-12.563,0-23.178,8.472-26.452,20h-8.548c-15.163,0-27.5,12.336-27.5,27.5s12.337,27.5,27.5,27.5h7.5v19.759
	c-9.693,11.989-15,26.935-15,42.406V352.5c0,4.142,3.357,7.5,7.5,7.5h22.5v129.094l-24.872,8.291
	c-3.929,1.31-6.053,5.557-4.743,9.487c1.048,3.143,3.974,5.13,7.114,5.13c0.786,0,1.586-0.125,2.373-0.387l30-10
	c3.063-1.021,5.128-3.887,5.128-7.115V360h45v134.5c0,3.228,2.065,6.094,5.128,7.115l30,10c0.787,0.262,1.587,0.387,2.373,0.387
	c3.141,0,6.066-1.988,7.114-5.13c1.31-3.93-0.814-8.177-4.743-9.487l-24.872-8.291V360h22.5c4.143,0,7.5-3.358,7.5-7.5v-50.335
	c0-15.471-5.307-30.417-15-42.406V240H471.631z M484.131,212.5c0,6.893-5.607,12.5-12.5,12.5h-7.5v-25h7.5
	C478.523,200,484.131,205.607,484.131,212.5z M386.631,180h50c6.893,0,12.5,5.607,12.5,12.5V225h-75v-32.5
	C374.131,185.607,379.738,180,386.631,180z M351.631,225c-6.893,0-12.5-5.607-12.5-12.5s5.607-12.5,12.5-12.5h7.5v25H351.631z
	 M464.131,345h-105v-42.835c0-11.687,3.905-22.981,11.038-32.165h82.923c7.133,9.184,11.038,20.479,11.038,32.165V345H464.131z
	 M449.131,255h-75v-15h75V255z"/>
<path d="M411.631,150c28.948,0,52.5-23.551,52.5-52.5c0-12.812-4.619-24.561-12.271-33.685c-0.206-0.271-0.424-0.535-0.671-0.782
	c-4.78-5.463-10.623-9.916-17.222-13.032c4.762-5.312,7.665-12.323,7.665-20.001c0-16.542-13.458-30-30-30s-30,13.458-30,30
	c0,7.678,2.903,14.689,7.665,20.001c-6.599,3.116-12.442,7.569-17.192,13.004c-0.277,0.274-0.496,0.539-0.701,0.81
	c-7.652,9.124-12.271,20.873-12.271,33.685C359.131,126.449,382.683,150,411.631,150z M411.631,135c-20.678,0-37.5-16.822-37.5-37.5
	c0-6.567,1.702-12.742,4.68-18.116c9.751,7.072,21.284,10.615,32.82,10.615s23.069-3.542,32.82-10.615
	c2.978,5.374,4.68,11.549,4.68,18.116C449.131,118.178,432.309,135,411.631,135z M388.609,67.931
	c6.36-4.963,14.348-7.931,23.022-7.931s16.662,2.968,23.022,7.931C420.815,77.351,402.447,77.351,388.609,67.931z M396.631,30
	c0-8.271,6.729-15,15-15s15,6.729,15,15s-6.729,15-15,15S396.631,38.271,396.631,30z"/>
<g>
</g>
<g>
</g>
<g>
</g>
<g>
</g>
<g>
</g>
<g>
</g>
<g>
</g>
<g>
</g>
<g>
</g>
<g>
</g>
<g>
</g>
<g>
</g>
<g>
</g>
<g>
</g>
<g>
</g>
</svg>
