<?xml version="1.0" encoding="iso-8859-1"?>
<!-- Generator: Adobe Illustrator 19.0.0, SVG Export Plug-In . SVG Version: 6.00 Build 0)  -->
<svg version="1.1" id="Capa_1" xmlns="http://www.w3.org/2000/svg" xmlns:xlink="http://www.w3.org/1999/xlink" x="0px" y="0px"
	 viewBox="0 0 512.002 512.002" style="enable-background:new 0 0 512.002 512.002;" xml:space="preserve">
<polygon style="fill:#D5E3AA;" points="324.131,112.5 354.131,112.5 354.131,7.5 324.131,7.5 301.001,60 "/>
<polygon style="fill:#FFF0D3;" points="324.131,7.5 324.13,112.5 202.872,112.5 172.872,142.5 172.872,7.5 "/>
<path style="fill:#FFB4A9;" d="M97.872,52.5v101l45-46v-10C142.872,72.647,122.725,52.5,97.872,52.5z"/>
<path style="fill:#FFD9D4;" d="M97.872,52.5c-24.853,0-45,20.147-45,45v10l60,46v-56C112.872,72.647,106.156,52.5,97.872,52.5z"/>
<path style="fill:#FF6337;" d="M116.581,107.5c-1.053-1.573-2.303-3.002-3.709-4.261l-15,69.261c24.853,0,45-20.147,45-45v-20
	H116.581z"/>
<path style="fill:#FF8646;" d="M112.872,127.5v-24.261c-3.981-3.566-9.235-5.739-15-5.739c-7.801,0-14.672,3.971-18.709,10H52.872
	v20c0,24.853,20.147,45,45,45C106.156,172.5,112.872,152.353,112.872,127.5z"/>
<path style="fill:#2DADE3;" d="M97.872,262.5v75c24.853,0,45-20.147,45-45L97.872,262.5z"/>
<path style="fill:#49C9FF;" d="M112.872,292.5l-15-30l-45,30c0,24.853,20.147,45,45,45C106.156,337.5,112.872,317.353,112.872,292.5
	z"/>
<path style="fill:#9DB55F;" d="M122.872,172.5h-30l20,120h30v-100C142.872,181.454,133.918,172.5,122.872,172.5z"/>
<path style="fill:#B9D171;" d="M92.872,172.5h-20c-11.046,0-20,8.954-20,20v100h60v-100C112.872,181.454,103.918,172.5,92.872,172.5
	z"/>
<circle style="fill:#60312C;" cx="429.13" cy="30" r="22.5"/>
<path style="fill:#A45E43;" d="M463.385,68.335c0.01-0.01-34.255-0.005-34.255-0.005v74.17c24.85,0,45-20.15,45-45
	C474.13,86.38,470.085,76.185,463.385,68.335z"/>
<path style="fill:#C27749;" d="M443.02,80.51l-48.145-12.175c-6.7,7.85-10.745,18.045-10.745,29.165c0,24.85,20.15,45,45,45
	c8.28,0,15-20.15,15-45C444.13,91.49,443.74,85.75,443.02,80.51z"/>
<path style="fill:#40211D;" d="M429.13,52.5l13.89,28.01c7.45-2.23,14.475-6.295,20.365-12.175
	C455.135,58.645,442.85,52.5,429.13,52.5z"/>
<path style="fill:#60312C;" d="M429.13,52.5c-13.72,0-26.005,6.145-34.255,15.835c13.04,13.04,31.645,17.105,48.145,12.175
	C440.79,64.08,435.41,52.5,429.13,52.5z"/>
<path style="fill:#2DADE3;" d="M439.13,172.5h-30v120h50v-100C459.13,181.454,450.176,172.5,439.13,172.5z"/>
<path style="fill:#49C9FF;" d="M409.13,172.5h-20c-11.046,0-20,8.954-20,20v100h60v-100C429.13,181.454,420.176,172.5,409.13,172.5z
	"/>
<path style="fill:#FF4128;" d="M459.13,262.5h-30l15,90h30v-50.335C474.13,286.954,468.459,273.075,459.13,262.5z"/>
<path style="fill:#FF6337;" d="M429.13,262.5h-60c-9.329,10.575-15,24.454-15,39.665V352.5h90v-50.335
	C444.13,286.954,438.459,273.075,429.13,262.5z"/>
<circle cx="233.5" cy="60" r="7.5"/>
<circle cx="263.5" cy="60" r="7.5"/>
<circle cx="293.5" cy="60" r="7.5"/>
<path d="M210.602,197.197c-16.626,16.627-38.39,25.045-60.229,25.291V192.5c0-11.727-7.381-21.757-17.739-25.704
	c10.869-9.625,17.739-23.67,17.739-39.296v-30c0-28.949-23.552-52.5-52.5-52.5s-52.5,23.551-52.5,52.5v30
	c0,15.626,6.87,29.67,17.739,39.296c-10.358,3.947-17.739,13.977-17.739,25.704v100c0,14.269,5.73,27.22,15,36.692v159.902
	L35.5,497.385c-3.93,1.31-6.053,5.557-4.743,9.487c1.048,3.143,3.974,5.13,7.114,5.13c0.786,0,1.586-0.125,2.373-0.387l30-10
	c3.063-1.021,5.128-3.887,5.128-7.115V339.924c6.824,3.25,14.452,5.076,22.5,5.076s15.676-1.825,22.5-5.076V494.5
	c0,3.228,2.065,6.094,5.128,7.115l30,10c0.787,0.262,1.587,0.387,2.373,0.387c3.141,0,6.066-1.988,7.114-5.13
	c1.31-3.93-0.813-8.177-4.743-9.487l-24.872-8.291V329.192c9.27-9.472,15-22.423,15-36.692v-55.008
	c25.681-0.246,51.286-10.138,70.837-29.689c2.929-2.929,2.929-7.678,0-10.606S213.532,194.267,210.602,197.197z M97.872,60
	c20.678,0,37.5,16.822,37.5,37.5v2.5h-15.14c-5.652-6.325-13.745-10-22.36-10s-16.709,3.675-22.361,10H60.372v-2.5
	C60.372,76.822,77.194,60,97.872,60z M60.372,127.5V115h18.791c2.503,0,4.84-1.248,6.232-3.328
	c2.797-4.178,7.461-6.672,12.477-6.672c5.015,0,9.679,2.494,12.476,6.672c1.393,2.08,3.729,3.328,6.232,3.328h18.792v12.5
	c0,20.678-16.822,37.5-37.5,37.5S60.372,148.178,60.372,127.5z M72.872,180h50c6.893,0,12.5,5.607,12.5,12.5v28.855
	c-17.292-2.815-33.891-10.852-47.196-24.158c-2.93-2.929-7.678-2.929-10.607,0s-2.929,7.678,0,10.606
	c16.235,16.235,36.644,25.808,57.804,28.732V285h-75v-92.5C60.372,185.607,65.98,180,72.872,180z M61.127,300h73.491
	c-3.484,17.096-18.635,30-36.745,30S64.611,317.096,61.127,300z"/>
<path d="M170.001,149.429c0.928,0.384,1.902,0.571,2.868,0.571c1.952,0,3.87-0.762,5.306-2.197L205.978,120h88.153
	c4.143,0,7.5-3.358,7.5-7.5s-3.357-7.5-7.5-7.5h-91.26c-1.989,0-3.896,0.79-5.304,2.197l-17.196,17.196L180.372,15h166.259
	l-0.001,90h-22.499c-4.143,0-7.5,3.358-7.5,7.5s3.357,7.5,7.5,7.5h29.999c4.143,0,7.5-3.358,7.5-7.5l0.001-105
	c0-1.989-0.79-3.897-2.196-5.303C358.027,0.79,356.12,0,354.131,0H172.872c-4.143,0-7.5,3.358-7.5,7.5l-0.001,135
	C165.371,145.533,167.198,148.268,170.001,149.429z"/>
<path d="M429.13,150c28.948,0,52.5-23.551,52.5-52.5c0-12.812-4.619-24.561-12.271-33.685c-0.206-0.271-0.424-0.535-0.671-0.782
	c-4.78-5.463-10.623-9.916-17.222-13.032c4.762-5.312,7.665-12.323,7.665-20.001c0-16.542-13.458-30-30-30s-30,13.458-30,30
	c0,7.678,2.903,14.689,7.665,20.001c-6.599,3.116-12.442,7.569-17.192,13.004c-0.277,0.274-0.496,0.539-0.701,0.81
	c-7.652,9.124-12.271,20.873-12.271,33.685C376.63,126.449,400.182,150,429.13,150z M429.13,135c-20.678,0-37.5-16.822-37.5-37.5
	c0-6.567,1.702-12.742,4.68-18.116c9.751,7.072,21.284,10.615,32.82,10.615s23.069-3.542,32.82-10.615
	c2.978,5.374,4.68,11.549,4.68,18.116C466.63,118.178,449.808,135,429.13,135z M406.108,67.931C412.468,62.968,420.456,60,429.13,60
	s16.662,2.968,23.022,7.931C438.314,77.351,419.946,77.351,406.108,67.931z M414.13,30c0-8.271,6.729-15,15-15s15,6.729,15,15
	s-6.729,15-15,15S414.13,38.271,414.13,30z"/>
<path d="M476.502,497.385l-24.872-8.291V360h22.5c4.143,0,7.5-3.358,7.5-7.5v-50.335c0-15.471-5.307-30.417-15-42.406V192.5
	c0-15.164-12.337-27.5-27.5-27.5h-50c-15.163,0-27.5,12.336-27.5,27.5v2.5h-52.5c-12.406,0-22.5-10.093-22.5-22.5
	c0-4.142-3.357-7.5-7.5-7.5s-7.5,3.358-7.5,7.5c0,18.334,13.229,33.626,30.64,36.86c3.234,17.412,18.526,30.64,36.86,30.64h22.5
	v19.759c-9.693,11.989-15,26.935-15,42.406V352.5c0,4.142,3.357,7.5,7.5,7.5h22.5v134.5c0,3.228,2.065,6.094,5.128,7.115l30,10
	c0.787,0.262,1.587,0.387,2.373,0.387c3.141,0,6.066-1.988,7.114-5.13c1.31-3.93-0.814-8.177-4.743-9.487l-24.872-8.291V360h45
	v134.5c0,3.228,2.065,6.094,5.128,7.115l30,10c0.787,0.262,1.587,0.387,2.373,0.387c3.141,0,6.066-1.988,7.114-5.13
	C482.555,502.942,480.431,498.695,476.502,497.385z M376.63,192.5c0-6.893,5.607-12.5,12.5-12.5h50c6.893,0,12.5,5.607,12.5,12.5
	V255h-75v-45h52.5c4.143,0,7.5-3.358,7.5-7.5s-3.357-7.5-7.5-7.5h-52.5V192.5z M339.13,225c-9.777,0-18.114-6.271-21.21-15h43.71v15
	H339.13z M361.63,302.165c0-11.687,3.905-22.981,11.038-32.165h82.923c7.133,9.184,11.038,20.479,11.038,32.165V345h-105v-42.835
	H361.63z"/>
<g>
</g>
<g>
</g>
<g>
</g>
<g>
</g>
<g>
</g>
<g>
</g>
<g>
</g>
<g>
</g>
<g>
</g>
<g>
</g>
<g>
</g>
<g>
</g>
<g>
</g>
<g>
</g>
<g>
</g>
</svg>
