<?xml version="1.0" encoding="iso-8859-1"?>
<!-- Generator: Adobe Illustrator 19.0.0, SVG Export Plug-In . SVG Version: 6.00 Build 0)  -->
<svg version="1.1" id="Capa_1" xmlns="http://www.w3.org/2000/svg" xmlns:xlink="http://www.w3.org/1999/xlink" x="0px" y="0px"
	 viewBox="0 0 512.002 512.002" style="enable-background:new 0 0 512.002 512.002;" xml:space="preserve">
<path style="fill:#9DB55F;" d="M255.742,112.5l26.494-36.494L315.742,52.5C315.742,85.635,288.877,112.5,255.742,112.5z"/>
<path style="fill:#B9D171;" d="M315.742,52.5l-60,60C255.742,79.365,282.607,52.5,315.742,52.5z"/>
<path style="fill:#9DB55F;" d="M255.742,112.5l-26.494-36.494L195.742,52.5C195.742,85.635,222.607,112.5,255.742,112.5z"/>
<path style="fill:#B9D171;" d="M195.742,52.5l60,60C255.742,79.365,228.877,52.5,195.742,52.5z"/>
<polygon style="fill:#FF6337;" points="310.741,172.5 310.741,202.5 250.741,232.5 280.741,172.5 "/>
<g>
	<polygon style="fill:#FF8646;" points="280.741,172.5 280.741,232.5 200.741,202.5 200.741,172.5 	"/>
	<polygon style="fill:#FF8646;" points="310.741,202.5 295.741,282.5 273.921,282.5 257.714,242.5 280.741,202.5 	"/>
</g>
<polygon style="fill:#FFA754;" points="280.741,202.5 273.921,282.5 215.741,282.5 200.741,202.5 "/>
<path style="fill:#FFB4A9;" d="M390.741,52.5v101l45-46v-10C435.741,72.647,415.594,52.5,390.741,52.5z"/>
<path style="fill:#FFD9D4;" d="M390.741,52.5c-24.853,0-45,20.147-45,45v10l60,46v-56C405.741,72.647,399.026,52.5,390.741,52.5z"/>
<path style="fill:#FF6337;" d="M409.45,107.5c-1.053-1.573-2.303-3.002-3.709-4.261l-15,69.261c24.853,0,45-20.147,45-45v-20H409.45
	z"/>
<path style="fill:#FF8646;" d="M405.741,127.5v-24.261c-3.981-3.566-9.235-5.739-15-5.739c-7.801,0-14.672,3.971-18.709,10h-26.291
	v20c0,24.853,20.147,45,45,45C399.026,172.5,405.741,152.353,405.741,127.5z"/>
<path style="fill:#2DADE3;" d="M390.741,262.5v75c24.853,0,45-20.147,45-45L390.741,262.5z"/>
<path style="fill:#49C9FF;" d="M405.741,292.5l-15-30l-45,30c0,24.853,20.147,45,45,45C399.026,337.5,405.741,317.353,405.741,292.5
	z"/>
<path style="fill:#9DB55F;" d="M415.741,172.5h-30l20,120h30v-100C435.741,181.454,426.787,172.5,415.741,172.5z"/>
<path style="fill:#B9D171;" d="M385.741,172.5h-20c-11.046,0-20,8.954-20,20v100h60v-100
	C405.741,181.454,396.787,172.5,385.741,172.5z"/>
<circle style="fill:#60312C;" cx="121.26" cy="30" r="22.5"/>
<path style="fill:#A45E43;" d="M155.516,68.335c0.01-0.01-34.255-0.005-34.255-0.005v74.17c24.85,0,45-20.15,45-45
	C166.261,86.38,162.216,76.185,155.516,68.335z"/>
<path style="fill:#C27749;" d="M135.151,80.51L87.006,68.335c-6.7,7.85-10.745,18.045-10.745,29.165c0,24.85,20.15,45,45,45
	c8.28,0,15-20.15,15-45C136.261,91.49,135.871,85.75,135.151,80.51z"/>
<path style="fill:#40211D;" d="M121.261,52.5l13.89,28.01c7.45-2.23,14.475-6.295,20.365-12.175
	C147.266,58.645,134.981,52.5,121.261,52.5z"/>
<path style="fill:#60312C;" d="M121.261,52.5c-13.72,0-26.005,6.145-34.255,15.835c13.04,13.04,31.645,17.105,48.145,12.175
	C132.921,64.08,127.541,52.5,121.261,52.5z"/>
<path style="fill:#2DADE3;" d="M146.261,172.5h-30v120h50v-100C166.261,181.454,157.306,172.5,146.261,172.5z"/>
<path style="fill:#49C9FF;" d="M116.261,172.5h-20c-11.046,0-20,8.954-20,20v100h60v-100
	C136.261,181.454,127.306,172.5,116.261,172.5z"/>
<path style="fill:#FF4128;" d="M166.261,262.5h-30l15,90h30v-50.335C181.261,286.954,175.589,273.075,166.261,262.5z"/>
<path style="fill:#FF6337;" d="M136.261,262.5h-60c-9.329,10.575-15,24.454-15,39.665V352.5h90v-50.335
	C151.261,286.954,145.589,273.075,136.261,262.5z"/>
<path d="M453.113,497.385l-24.872-8.291V329.192c9.27-9.472,15-22.423,15-36.692v-100c0-11.727-7.381-21.757-17.739-25.704
	c10.869-9.625,17.739-23.67,17.739-39.296v-30c0-28.949-23.552-52.5-52.5-52.5s-52.5,23.551-52.5,52.5v30
	c0,15.626,6.87,29.67,17.739,39.296c-10.358,3.947-17.739,13.977-17.739,25.704v32.373c-1.635,0.083-3.277,0.127-4.926,0.127
	h-19.163l3.933-20.977c0.006-0.033,0.026-0.14,0.026-0.14c0.019-0.102,0.028-0.205,0.043-0.307c0.017-0.117,0.038-0.232,0.049-0.351
	c0.023-0.241,0.037-0.483,0.037-0.725v-30c0-4.142-3.357-7.5-7.5-7.5h-47.5l0.001-45.427c33.702-3.744,60-32.389,60-67.073
	c0-4.142-3.357-7.5-7.5-7.5c-26.102,0-48.774,14.902-60,36.636C244.516,59.902,221.844,45,195.742,45c-4.142,0-7.5,3.358-7.5,7.5
	c0,34.684,26.298,63.329,60,67.073V165h-47.5c-4.142,0-7.5,3.358-7.5,7.5v30c0,0.243,0.013,0.485,0.037,0.726
	c0.01,0.11,0.03,0.216,0.045,0.324c0.016,0.111,0.026,0.222,0.046,0.332l0.023,0.123c0.002,0.01,3.937,20.995,3.937,20.995h-18.644
	c-1.649,0-3.291-0.044-4.925-0.127V192.5c0-15.164-12.336-27.5-27.5-27.5h-50c-15.164,0-27.5,12.336-27.5,27.5v67.259
	c-9.693,11.989-15,26.935-15,42.406V352.5c0,4.142,3.358,7.5,7.5,7.5h22.5v129.094l-24.872,8.291
	c-3.93,1.31-6.053,5.557-4.744,9.487c1.048,3.143,3.974,5.13,7.114,5.13c0.786,0,1.586-0.125,2.373-0.387l30-10
	c3.063-1.021,5.128-3.887,5.128-7.115V360h45v134.5c0,3.228,2.066,6.094,5.128,7.115l30,10c0.787,0.262,1.586,0.387,2.373,0.387
	c3.14,0,6.066-1.988,7.114-5.13c1.31-3.93-0.814-8.177-4.744-9.487l-24.872-8.291V360h22.5c4.142,0,7.5-3.358,7.5-7.5v-50.335
	c0-15.47-5.307-30.417-15-42.406v-19.872c1.636,0.072,3.277,0.113,4.925,0.113h62.574c4.142,0,7.5-3.358,7.5-7.5s-3.358-7.5-7.5-7.5
	h-28.669l-2.813-15h91.926l-2.813,15h-28.151c-4.143,0-7.5,3.358-7.5,7.5s3.357,7.5,7.5,7.5h25.338l-6.563,35h-67.55l-2.603-13.883
	c-0.763-4.071-4.675-6.751-8.754-5.989c-4.071,0.763-6.752,4.683-5.989,8.754l3.75,20c0.665,3.547,3.763,6.118,7.372,6.118h80
	c3.609,0,6.706-2.57,7.371-6.118L311.34,240h21.975c1.648,0,3.29-0.042,4.926-0.113V292.5c0,14.269,5.73,27.22,15,36.692v159.902
	l-24.872,8.291c-3.93,1.31-6.053,5.557-4.743,9.487c1.048,3.143,3.974,5.13,7.114,5.13c0.786,0,1.586-0.125,2.373-0.387l30-10
	c3.063-1.021,5.128-3.887,5.128-7.115V339.924c6.824,3.25,14.452,5.076,22.5,5.076s15.676-1.825,22.5-5.076V494.5
	c0,3.228,2.065,6.094,5.128,7.115l30,10c0.787,0.262,1.587,0.387,2.373,0.387c3.141,0,6.066-1.988,7.114-5.13
	C459.166,502.942,457.043,498.695,453.113,497.385z M307.614,60.628c-3.505,22.454-21.29,40.239-43.744,43.743
	C267.375,81.917,285.16,64.132,307.614,60.628z M203.871,60.628c22.454,3.504,40.239,21.289,43.743,43.743
	C225.16,100.868,207.374,83.083,203.871,60.628z M173.761,345h-105v-42.835c0-11.687,3.905-22.981,11.039-32.165h82.922
	c7.133,9.184,11.039,20.479,11.039,32.165V345z M158.761,255h-75v-62.5c0-6.893,5.607-12.5,12.5-12.5h50
	c6.893,0,12.5,5.607,12.5,12.5v30.411c-17.752-3.773-34.061-12.578-47.197-25.714c-2.928-2.93-7.677-2.929-10.606,0
	s-2.929,7.678,0,10.606c15.985,15.985,36.027,26.433,57.803,30.399V255z M303.241,180v15h-95v-15H303.241z M390.741,60
	c20.678,0,37.5,16.822,37.5,37.5v2.5h-15.139c-5.652-6.325-13.746-10-22.361-10s-16.708,3.675-22.36,10h-15.14v-2.5
	C353.241,76.822,370.063,60,390.741,60z M353.241,127.5V115h18.792c2.503,0,4.84-1.248,6.232-3.328
	c2.797-4.178,7.461-6.672,12.476-6.672c5.016,0,9.68,2.494,12.477,6.672c1.393,2.08,3.729,3.328,6.232,3.328h18.791v12.5
	c0,20.678-16.822,37.5-37.5,37.5S353.241,148.178,353.241,127.5z M411.045,197.197c-2.93-2.929-7.678-2.929-10.607,0
	c-13.135,13.136-29.444,21.941-47.196,25.714V192.5c0-6.893,5.607-12.5,12.5-12.5h50c6.893,0,12.5,5.607,12.5,12.5V285h-75v-46.798
	c21.776-3.966,41.819-14.414,57.804-30.399C413.974,204.875,413.974,200.125,411.045,197.197z M353.996,300h73.491
	c-3.484,17.096-18.635,30-36.745,30S357.48,317.096,353.996,300z"/>
<path d="M121.261,150c28.949,0,52.5-23.551,52.5-52.5c0-12.814-4.621-24.565-12.275-33.689c-0.205-0.269-0.422-0.532-0.668-0.778
	c-4.777-5.462-10.622-9.916-17.222-13.032c4.762-5.312,7.665-12.323,7.665-20.001c0-16.542-13.458-30-30-30s-30,13.458-30,30
	c0,7.678,2.903,14.689,7.665,20.001c-6.6,3.116-12.444,7.57-17.194,13.007c-0.273,0.271-0.491,0.533-0.695,0.802
	c-7.656,9.125-12.276,20.876-12.276,33.69C68.761,126.449,92.312,150,121.261,150z M121.261,135c-20.678,0-37.5-16.822-37.5-37.5
	c0-6.565,1.701-12.739,4.677-18.112c9.49,6.91,20.87,10.648,32.823,10.648s23.332-3.739,32.822-10.649
	c2.977,5.373,4.678,11.547,4.678,18.112C158.761,118.178,141.938,135,121.261,135z M98.228,67.939
	C104.59,62.971,112.582,60,121.261,60s16.671,2.971,23.032,7.939c-6.742,4.611-14.697,7.098-23.032,7.098
	C112.925,75.037,104.97,72.55,98.228,67.939z M106.261,30c0-8.271,6.729-15,15-15s15,6.729,15,15s-6.729,15-15,15
	S106.261,38.271,106.261,30z"/>
<g>
</g>
<g>
</g>
<g>
</g>
<g>
</g>
<g>
</g>
<g>
</g>
<g>
</g>
<g>
</g>
<g>
</g>
<g>
</g>
<g>
</g>
<g>
</g>
<g>
</g>
<g>
</g>
<g>
</g>
</svg>
