<?xml version="1.0" encoding="iso-8859-1"?>
<!-- Generator: Adobe Illustrator 19.0.0, SVG Export Plug-In . SVG Version: 6.00 Build 0)  -->
<svg version="1.1" id="Capa_1" xmlns="http://www.w3.org/2000/svg" xmlns:xlink="http://www.w3.org/1999/xlink" x="0px" y="0px"
	 viewBox="0 0 512.003 512.003" style="enable-background:new 0 0 512.003 512.003;" xml:space="preserve">
<circle style="fill:#60312C;" cx="83.502" cy="30.001" r="22.5"/>
<path style="fill:#A45E43;" d="M117.758,68.336c0.01-0.01-34.255-0.005-34.255-0.005v74.17c24.85,0,45-20.15,45-45
	C128.503,86.381,124.458,76.186,117.758,68.336z"/>
<path style="fill:#C27749;" d="M97.393,80.511L49.248,68.336c-6.7,7.85-10.745,18.045-10.745,29.165c0,24.85,20.15,45,45,45
	c8.28,0,15-20.15,15-45C98.503,91.491,98.113,85.751,97.393,80.511z"/>
<path style="fill:#40211D;" d="M83.503,52.501l13.89,28.01c7.45-2.23,14.475-6.295,20.365-12.175
	C109.508,58.646,97.223,52.501,83.503,52.501z"/>
<path style="fill:#60312C;" d="M83.503,52.501c-13.72,0-26.005,6.145-34.255,15.835c13.04,13.04,31.645,17.105,48.145,12.175
	C95.163,64.081,89.783,52.501,83.503,52.501z"/>
<path style="fill:#2DADE3;" d="M108.503,172.501h-30v120l50-30v-70C128.503,181.456,119.549,172.501,108.503,172.501z"/>
<path style="fill:#49C9FF;" d="M78.503,172.501h-20c-11.046,0-20,8.954-20,20v100h60v-100
	C98.503,181.456,89.549,172.501,78.503,172.501z"/>
<polygon style="fill:#FF4128;" points="128.503,262.501 98.503,262.501 78.503,300.001 98.503,352.501 128.503,352.501 "/>
<path style="fill:#FF6337;" d="M98.503,262.501h-60c-9.329,10.575-15,24.454-15,39.665v50.335h75V262.501z"/>
<path style="fill:#FFB4A9;" d="M443.503,51.001v101l45-46v-10C488.503,71.149,468.355,51.001,443.503,51.001z"/>
<path style="fill:#FFD9D4;" d="M443.503,51.001c-24.853,0-45,20.147-45,45v10l60,46v-56
	C458.503,71.149,451.788,51.001,443.503,51.001z"/>
<path style="fill:#FF6337;" d="M462.211,106.001c-1.053-1.573-2.303-3.002-3.709-4.261l-15,69.261c24.853,0,45-20.147,45-45v-20
	H462.211z"/>
<path style="fill:#FF8646;" d="M458.503,126.001v-24.26c-3.981-3.566-9.235-5.739-15-5.739c-7.801,0-14.672,3.971-18.709,10h-26.291
	v20c0,24.853,20.147,45,45,45C451.788,171.001,458.503,150.854,458.503,126.001z"/>
<path style="fill:#2DADE3;" d="M443.503,261.001v75c24.853,0,45-20.147,45-45L443.503,261.001z"/>
<path style="fill:#49C9FF;" d="M458.503,291.001l-15-30l-45,30c0,24.853,20.147,45,45,45
	C451.786,336.001,458.503,315.854,458.503,291.001z"/>
<path style="fill:#9DB55F;" d="M468.503,171.001h-30l20,120h30v-100C488.503,179.956,479.548,171.001,468.503,171.001z"/>
<path style="fill:#B9D171;" d="M438.503,171.001h-20c-11.046,0-20,8.954-20,20v100h60v-100
	C458.503,179.956,449.548,171.001,438.503,171.001z"/>
<polygon style="fill:#FFCB63;" points="308.503,144.001 328.503,291.001 358.503,291.001 358.503,144.001 "/>
<g>
	<rect x="208.502" y="144.001" style="fill:#FFE2A8;" width="120" height="147"/>
	<polygon style="fill:#FFE2A8;" points="338.503,124.001 318.503,144.001 338.503,164.001 368.503,164.001 368.503,124.001 	"/>
</g>
<rect x="198.522" y="124.001" style="fill:#FFF0D3;" width="139.98" height="40"/>
<polygon style="fill:#FF4128;" points="303.512,164.001 303.512,291.001 263.512,291.001 263.512,164.001 283.512,144.001 "/>
<path style="fill:#FF6337;" d="M303.512,104.001v60h-40v-60C263.512,104.001,303.471,104.001,303.512,104.001z"/>
<path style="fill:#FF4128;" d="M303.512,79.001c-8.712,0-16.261,4.954-20,12.196c-3.739-7.241-11.289-12.196-20-12.196
	c-12.426,0-22.5,10.074-22.5,22.5s10.074,22.5,22.5,22.5h40c12.426,0,22.5-10.074,22.5-22.5S315.938,79.001,303.512,79.001z"/>
<path d="M135.065,185.387c-3.144-11.725-13.858-20.386-26.562-20.386h-17.5v-15.545c25.407-3.651,45-25.554,45-51.956
	c0-12.814-4.621-24.565-12.275-33.689c-0.205-0.269-0.422-0.532-0.668-0.778c-4.777-5.462-10.622-9.916-17.222-13.032
	c4.762-5.312,7.665-12.323,7.665-20.001c0-16.542-13.458-30-30-30s-30,13.458-30,30c0,7.678,2.903,14.689,7.665,20.001
	c-6.6,3.116-12.444,7.57-17.194,13.007c-0.273,0.271-0.491,0.533-0.695,0.802c-7.655,9.126-12.276,20.877-12.276,33.691
	c0,26.402,19.593,48.304,45,51.956v15.544h-17.5c-15.164,0-27.5,12.336-27.5,27.5v67.259c-9.693,11.989-15,26.935-15,42.406v50.335
	c0,4.142,3.358,7.5,7.5,7.5h22.5v134.5c0,3.228,2.066,6.094,5.128,7.115l30,10c0.787,0.262,1.586,0.387,2.373,0.387
	c3.14,0,6.066-1.988,7.114-5.13c1.31-3.93-0.814-8.177-4.744-9.487l-24.872-8.291V360.001h45v134.5c0,3.228,2.066,6.094,5.128,7.115
	l30,10c0.787,0.262,1.586,0.387,2.373,0.387c3.14,0,6.066-1.988,7.114-5.13c1.31-3.93-0.814-8.177-4.744-9.487L121,489.095V360.001
	h7.5c4.142,0,7.5-3.358,7.5-7.5v-53.005c28.172-3.688,50-27.833,50-56.995C186.003,213.016,163.69,188.655,135.065,185.387z
	 M106.536,67.94c-6.742,4.611-14.697,7.098-23.032,7.098s-16.29-2.487-23.032-7.098c6.36-4.968,14.353-7.939,23.031-7.939
	C92.182,60.001,100.174,62.972,106.536,67.94z M68.503,30.001c0-8.271,6.729-15,15-15s15,6.729,15,15s-6.729,15-15,15
	S68.503,38.272,68.503,30.001z M46.003,97.501c0-6.565,1.701-12.739,4.678-18.112c9.49,6.91,20.869,10.648,32.822,10.648
	s23.332-3.739,32.822-10.648c2.977,5.373,4.678,11.546,4.678,18.112c0,18.11-12.904,33.261-30,36.745v-6.745
	c0-4.142-3.358-7.5-7.5-7.5s-7.5,3.358-7.5,7.5v6.745C58.907,130.762,46.003,115.611,46.003,97.501z M58.503,180.001h17.5v37.5
	c0,4.136-3.364,7.5-7.5,7.5c-4.142,0-7.5,3.358-7.5,7.5s3.358,7.5,7.5,7.5c12.407,0,22.5-10.093,22.5-22.5v-37.5h17.5
	c6.893,0,12.5,5.607,12.5,12.5v62.5h-75v-62.5C46.003,185.609,51.611,180.001,58.503,180.001z M121.003,345.001h-90v-42.835
	c0-11.687,3.905-22.982,11.039-32.165h78.961V345.001z M136.003,284.325v-83.647c19.868,3.554,35,20.949,35,41.824
	S155.871,280.771,136.003,284.325z"/>
<path d="M443.503,43.501c-28.949,0-52.5,23.551-52.5,52.5v30c0,15.626,6.87,29.67,17.739,39.296
	c-10.358,3.947-17.739,13.977-17.739,25.704v28.219c-8.679-0.526-17.093-2.418-25-5.573v-42.146h2.5c4.142,0,7.5-3.358,7.5-7.5v-40
	c0-4.142-3.358-7.5-7.5-7.5h-39.027c2.561-4.416,4.036-9.538,4.036-15c0-16.542-13.458-30-30-30c-7.535,0-14.599,2.783-20,7.625
	c-5.402-4.841-12.465-7.625-20-7.625c-16.542,0-30,13.458-30,30c0,5.462,1.475,10.584,4.036,15H198.52c-4.142,0-7.5,3.358-7.5,7.5
	v40c0,4.142,3.358,7.5,7.5,7.5h2.483v119.5c0,4.142,3.358,7.5,7.5,7.5h150c4.142,0,7.5-3.358,7.5-7.5v-61.464
	c8.127,2.664,16.537,4.232,25,4.67v56.794c0,14.269,5.73,27.22,15,36.692v159.902l-24.872,8.291c-3.93,1.31-6.053,5.557-4.744,9.487
	c1.048,3.143,3.974,5.13,7.114,5.13c0.786,0,1.586-0.125,2.373-0.387l30-10c3.063-1.021,5.128-3.887,5.128-7.115V338.426
	c6.824,3.25,14.452,5.076,22.5,5.076s15.676-1.825,22.5-5.076v149.17l-24.872,8.291c-3.93,1.31-6.053,5.557-4.744,9.487
	c1.048,3.143,3.974,5.13,7.114,5.13c0.786,0,1.586-0.125,2.373-0.387l30-10c3.063-1.021,5.128-3.887,5.128-7.115V327.694
	c9.27-9.472,15-22.422,15-36.691V191.001c0-11.727-7.381-21.757-17.739-25.704C489.13,155.672,496,141.627,496,126.001v-30
	C496.003,67.053,472.452,43.501,443.503,43.501z M361.003,156.501h-49.991v-25h49.991V156.501z M271.012,131.501h25v25h-25V131.501z
	 M248.512,101.501c0-8.271,6.729-15,15-15c5.635,0,10.745,3.118,13.336,8.136c1.287,2.494,3.858,4.06,6.664,4.06
	s5.377-1.566,6.665-4.06c2.59-5.019,7.7-8.136,13.335-8.136c8.271,0,15,6.729,15,15s-6.729,15-15,15h-40
	C255.241,116.501,248.512,109.772,248.512,101.501z M206.02,131.501h49.992v25H206.02V131.501z M216.003,171.501h80.009v112h-25
	v-89.5c0-4.142-3.358-7.5-7.5-7.5s-7.5,3.358-7.5,7.5v89.5h-40.009V171.501z M351.003,283.501h-39.991v-112h39.991v34.24
	c-4.335-2.914-8.421-6.267-12.197-10.043c-2.929-2.929-7.678-2.929-10.606,0c-2.929,2.929-2.929,7.678,0,10.606
	c6.9,6.899,14.601,12.517,22.803,16.869L351.003,283.501L351.003,283.501z M443.503,58.501c20.678,0,37.5,16.822,37.5,37.5v2.5
	h-15.139c-5.652-6.325-13.746-10-22.361-10s-16.708,3.675-22.361,10h-15.139v-2.5C406.003,75.324,422.824,58.501,443.503,58.501z
	 M406.758,298.501h73.491c-3.484,17.096-18.636,30-36.745,30C425.392,328.501,410.241,315.598,406.758,298.501z M468.503,178.501
	c6.893,0,12.5,5.607,12.5,12.5v92.5h-75v-49.69c21.123-2.196,41.652-11.354,57.803-27.506c2.929-2.929,2.929-7.678,0-10.606
	c-2.929-2.929-7.678-2.929-10.606,0c-12.894,12.894-29.38,20.875-47.197,23.059v-27.757c0-6.893,5.607-12.5,12.5-12.5H468.503z
	 M443.503,163.501c-20.678,0-37.5-16.822-37.5-37.5v-12.5h18.792c2.502,0,4.84-1.248,6.232-3.328
	c2.797-4.178,7.461-6.672,12.476-6.672s9.679,2.494,12.476,6.672c1.392,2.08,3.73,3.328,6.232,3.328h18.792v12.5
	C481.003,146.679,464.18,163.501,443.503,163.501z"/>
<g>
</g>
<g>
</g>
<g>
</g>
<g>
</g>
<g>
</g>
<g>
</g>
<g>
</g>
<g>
</g>
<g>
</g>
<g>
</g>
<g>
</g>
<g>
</g>
<g>
</g>
<g>
</g>
<g>
</g>
</svg>
