<?xml version="1.0" encoding="iso-8859-1"?>
<!-- Generator: Adobe Illustrator 19.0.0, SVG Export Plug-In . SVG Version: 6.00 Build 0)  -->
<svg version="1.1" id="Capa_1" xmlns="http://www.w3.org/2000/svg" xmlns:xlink="http://www.w3.org/1999/xlink" x="0px" y="0px"
	 viewBox="0 0 512.002 512.002" style="enable-background:new 0 0 512.002 512.002;" xml:space="preserve">
<path style="fill:#FFB4A9;" d="M459.502,52.5v101l45-46v-10C504.502,72.647,484.355,52.5,459.502,52.5z"/>
<path style="fill:#FFD9D4;" d="M459.502,52.5c-24.853,0-45,20.147-45,45v10l60,46v-56C474.502,72.647,467.786,52.5,459.502,52.5z"/>
<path style="fill:#FF6337;" d="M478.211,107.5c-1.053-1.573-2.303-3.002-3.709-4.261l-15,69.261c24.853,0,45-20.147,45-45v-20
	H478.211z"/>
<path style="fill:#FF8646;" d="M474.502,127.5v-24.261c-3.981-3.566-9.235-5.739-15-5.739c-7.801,0-14.672,3.971-18.709,10h-26.291
	v20c0,24.853,20.147,45,45,45C467.786,172.5,474.502,152.353,474.502,127.5z"/>
<path style="fill:#2DADE3;" d="M459.502,262.5v75c24.853,0,45-20.147,45-45L459.502,262.5z"/>
<path style="fill:#49C9FF;" d="M474.502,292.5l-15-30l-45,30c0,24.853,20.147,45,45,45C467.786,337.5,474.502,317.353,474.502,292.5
	z"/>
<path style="fill:#9DB55F;" d="M484.502,172.5h-30l20,120h30v-100C504.502,181.454,495.548,172.5,484.502,172.5z"/>
<path style="fill:#B9D171;" d="M454.502,172.5h-20c-11.046,0-20,8.954-20,20v100h60v-100
	C474.502,181.454,465.548,172.5,454.502,172.5z"/>
<polygon style="fill:#FFCB63;" points="324.502,145.5 344.502,292.5 374.502,292.5 374.502,145.5 "/>
<g>
	<rect x="224.501" y="145.5" style="fill:#FFE2A8;" width="120" height="147"/>
	<polygon style="fill:#FFE2A8;" points="354.502,125.5 334.502,145.5 354.502,165.5 384.502,165.5 384.502,125.5 	"/>
</g>
<rect x="214.521" y="125.5" style="fill:#FFF0D3;" width="139.98" height="40"/>
<polygon style="fill:#FF4128;" points="319.511,165.5 319.511,292.5 279.511,292.5 279.511,165.5 299.511,145.5 "/>
<path style="fill:#FF6337;" d="M319.511,105.5v60h-40v-60C279.511,105.5,319.471,105.5,319.511,105.5z"/>
<path style="fill:#FF4128;" d="M319.511,80.5c-8.712,0-16.261,4.954-20,12.196c-3.739-7.242-11.288-12.196-20-12.196
	c-12.426,0-22.5,10.074-22.5,22.5s10.074,22.5,22.5,22.5h40c12.426,0,22.5-10.074,22.5-22.5S331.937,80.5,319.511,80.5z"/>
<circle style="fill:#60312C;" cx="120.501" cy="30" r="22.5"/>
<path style="fill:#A45E43;" d="M154.757,68.335c0.01-0.01-34.255-0.005-34.255-0.005v74.17c24.85,0,45-20.15,45-45
	C165.502,86.38,161.457,76.185,154.757,68.335z"/>
<path style="fill:#C27749;" d="M134.392,80.51L86.247,68.335c-6.7,7.85-10.745,18.045-10.745,29.165c0,24.85,20.15,45,45,45
	c8.28,0,15-20.15,15-45C135.502,91.49,135.112,85.75,134.392,80.51z"/>
<path style="fill:#40211D;" d="M120.502,52.5l13.89,28.01c7.45-2.23,14.475-6.295,20.365-12.175
	C146.507,58.645,134.222,52.5,120.502,52.5z"/>
<path style="fill:#60312C;" d="M120.502,52.5c-13.72,0-26.005,6.145-34.255,15.835c13.04,13.04,31.645,17.105,48.145,12.175
	C132.162,64.08,126.782,52.5,120.502,52.5z"/>
<path style="fill:#2DADE3;" d="M145.502,172.5h-10l-20,20v100h50v-100C165.502,181.454,156.548,172.5,145.502,172.5z"/>
<path style="fill:#49C9FF;" d="M95.502,172.5c-11.046,0-20,8.954-20,20v100h60v-120H95.502z"/>
<path style="fill:#FF4128;" d="M165.502,262.5h-30l15,90h30v-50.335C180.502,286.954,174.831,273.075,165.502,262.5z"/>
<path style="fill:#FF6337;" d="M135.502,262.5h-60c-9.329,10.575-15,24.454-15,39.665V352.5h90v-50.335
	C150.502,286.954,144.831,273.075,135.502,262.5z"/>
<g>
	<path style="fill:#FFB4A9;" d="M330.623,60c-1.919,0-3.839-0.732-5.303-2.197c-2.929-2.929-2.929-7.678,0-10.606l10.607-10.606
		c2.929-2.929,7.678-2.93,10.606,0c2.929,2.929,2.929,7.678,0,10.606l-10.607,10.606C334.462,59.268,332.542,60,330.623,60z"/>
	<path style="fill:#FFB4A9;" d="M299.511,47.113c-4.142,0-7.5-3.358-7.5-7.5v-15c0-4.142,3.358-7.5,7.5-7.5s7.5,3.358,7.5,7.5v15
		C307.011,43.755,303.653,47.113,299.511,47.113z"/>
	<path style="fill:#FFB4A9;" d="M268.398,60c-1.919,0-3.839-0.732-5.303-2.197l-10.607-10.606c-2.929-2.929-2.929-7.677,0-10.606
		s7.678-2.93,10.606,0l10.607,10.606c2.929,2.929,2.929,7.677,0,10.606C272.237,59.268,270.317,60,268.398,60z"/>
</g>
<path d="M459.502,45c-28.949,0-52.5,23.551-52.5,52.5v30c0,15.626,6.87,29.67,17.739,39.296
	c-10.358,3.947-17.739,13.977-17.739,25.704v28.219c-8.679-0.526-17.093-2.418-25-5.573V173h2.5c4.142,0,7.5-3.358,7.5-7.5v-40
	c0-4.142-3.358-7.5-7.5-7.5h-39.027c2.561-4.416,4.036-9.538,4.036-15c0-16.542-13.458-30-30-30c-7.535,0-14.599,2.783-20,7.625
	c-5.402-4.841-12.465-7.625-20-7.625c-16.542,0-30,13.458-30,30c0,5.462,1.475,10.584,4.036,15h-39.028c-4.142,0-7.5,3.358-7.5,7.5
	v40c0,4.142,3.358,7.5,7.5,7.5h2.483v119.5c0,4.142,3.358,7.5,7.5,7.5h150c4.142,0,7.5-3.358,7.5-7.5v-61.464
	c8.127,2.664,16.537,4.232,25,4.67V292.5c0,14.269,5.73,27.22,15,36.692v159.902l-24.872,8.291c-3.93,1.31-6.053,5.557-4.744,9.487
	c1.048,3.143,3.974,5.13,7.114,5.13c0.786,0,1.586-0.125,2.373-0.387l30-10c3.063-1.021,5.128-3.887,5.128-7.115V339.924
	c6.824,3.25,14.452,5.076,22.5,5.076s15.676-1.825,22.5-5.076v149.17l-24.872,8.291c-3.93,1.31-6.053,5.557-4.744,9.487
	c1.048,3.143,3.974,5.13,7.114,5.13c0.786,0,1.586-0.125,2.373-0.387l30-10c3.063-1.021,5.128-3.887,5.128-7.115V329.192
	c9.27-9.472,15-22.422,15-36.691V192.5c0-11.727-7.381-21.757-17.739-25.704C505.13,157.171,512,143.126,512,127.5v-30
	C512.002,68.551,488.451,45,459.502,45z M377.002,158h-49.991v-25h49.991V158z M287.011,133h25v25h-25V133z M264.511,103
	c0-8.271,6.729-15,15-15c5.635,0,10.745,3.118,13.336,8.136c1.287,2.494,3.858,4.06,6.664,4.06s5.377-1.566,6.665-4.06
	c2.59-5.019,7.7-8.136,13.335-8.136c8.271,0,15,6.729,15,15s-6.729,15-15,15h-40C271.24,118,264.511,111.271,264.511,103z
	 M222.019,133h49.992v25h-49.992V133z M232.002,173h80.009v112h-25v-89.5c0-4.142-3.358-7.5-7.5-7.5s-7.5,3.358-7.5,7.5V285h-40.009
	V173z M367.002,285h-39.991V173h39.991v34.24c-4.335-2.914-8.421-6.267-12.197-10.043c-2.929-2.929-7.678-2.929-10.606,0
	c-2.929,2.929-2.929,7.678,0,10.606c6.9,6.899,14.601,12.517,22.803,16.869L367.002,285L367.002,285z M459.502,60
	c20.678,0,37.5,16.822,37.5,37.5v2.5h-15.139c-5.652-6.325-13.746-10-22.361-10s-16.708,3.675-22.361,10h-15.139v-2.5
	C422.002,76.822,438.824,60,459.502,60z M422.757,300h73.491c-3.484,17.096-18.636,30-36.745,30
	C441.392,330,426.241,317.096,422.757,300z M484.502,180c6.893,0,12.5,5.607,12.5,12.5V285h-75v-49.691
	c21.123-2.196,41.652-11.354,57.803-27.506c2.929-2.929,2.929-7.678,0-10.606c-2.929-2.929-7.678-2.929-10.606,0
	c-12.894,12.894-29.38,20.875-47.197,23.059V192.5c0-6.893,5.607-12.5,12.5-12.5H484.502z M459.502,165
	c-20.678,0-37.5-16.822-37.5-37.5V115h18.792c2.502,0,4.84-1.248,6.232-3.328c2.797-4.178,7.461-6.672,12.476-6.672
	s9.679,2.494,12.476,6.672c1.392,2.08,3.73,3.328,6.232,3.328h18.792v12.5C497.002,148.178,480.18,165,459.502,165z"/>
<path d="M182.874,497.385l-24.872-8.291V360h22.5c4.142,0,7.5-3.358,7.5-7.5v-50.335c0-15.471-5.307-30.417-15-42.406V192.5
	c0-15.164-12.336-27.5-27.5-27.5h-2.5v-20.076c17.721-8.441,30-26.523,30-47.424c0-12.814-4.621-24.565-12.275-33.689
	c-0.205-0.269-0.422-0.532-0.668-0.778c-4.777-5.462-10.622-9.916-17.222-13.032c4.762-5.312,7.665-12.323,7.665-20.001
	c0-16.542-13.458-30-30-30s-30,13.458-30,30c0,7.678,2.903,14.689,7.665,20.001c-6.6,3.116-12.444,7.57-17.194,13.007
	c-0.273,0.271-0.491,0.533-0.695,0.802c-7.655,9.125-12.276,20.876-12.276,33.69c0,20.901,12.279,38.983,30,47.424V165h-2.5
	c-15.164,0-27.5,12.336-27.5,27.5v67.259c-9.693,11.989-15,26.935-15,42.406V352.5c0,4.142,3.358,7.5,7.5,7.5h22.5v42.146
	L5.066,428.913c-3.03,1.041-5.064,3.89-5.064,7.093v30c0,4.142,3.358,7.5,7.5,7.5s7.5-3.358,7.5-7.5V441.36l77.936-26.767
	c3.03-1.041,5.064-3.89,5.064-7.093V360h45v134.5c0,3.228,2.066,6.094,5.128,7.115l30,10c0.787,0.262,1.586,0.387,2.373,0.387
	c3.14,0,6.066-1.988,7.114-5.13C188.927,502.942,186.803,498.695,182.874,497.385z M143.534,67.939
	c-6.742,4.611-14.697,7.098-23.032,7.098s-16.29-2.487-23.032-7.098C103.831,62.971,111.824,60,120.502,60
	S137.173,62.971,143.534,67.939z M105.502,30c0-8.271,6.729-15,15-15s15,6.729,15,15s-6.729,15-15,15S105.502,38.271,105.502,30z
	 M83.002,97.5c0-6.565,1.701-12.739,4.678-18.112c9.49,6.91,20.869,10.648,32.822,10.648s23.332-3.739,32.822-10.648
	c2.977,5.373,4.678,11.546,4.678,18.112c0,12.242-5.898,23.132-15,29.98c-0.011-12.397-10.099-22.48-22.5-22.48
	s-22.489,10.083-22.5,22.48C88.9,120.632,83.002,109.742,83.002,97.5z M128.002,134.245c-2.424,0.494-4.932,0.755-7.5,0.755
	s-5.076-0.261-7.5-0.755V127.5c0-4.136,3.364-7.5,7.5-7.5s7.5,3.364,7.5,7.5V134.245z M113.002,149.456
	c2.451,0.352,4.953,0.544,7.5,0.544s5.049-0.192,7.5-0.544V165h-15C113.002,165,113.002,149.456,113.002,149.456z M95.502,180h2.5
	v52.5c0,4.142,3.358,7.5,7.5,7.5s7.5-3.358,7.5-7.5V180h15v52.5c0,4.142,3.358,7.5,7.5,7.5s7.5-3.358,7.5-7.5V180h2.5
	c6.893,0,12.5,5.607,12.5,12.5V255h-75v-62.5C83.002,185.607,88.609,180,95.502,180z M68.002,302.165
	c0-11.687,3.905-22.982,11.039-32.165h82.923c7.133,9.183,11.039,20.478,11.039,32.165V345h-105L68.002,302.165L68.002,302.165z"/>
<g>
</g>
<g>
</g>
<g>
</g>
<g>
</g>
<g>
</g>
<g>
</g>
<g>
</g>
<g>
</g>
<g>
</g>
<g>
</g>
<g>
</g>
<g>
</g>
<g>
</g>
<g>
</g>
<g>
</g>
</svg>
