<?xml version="1.0" encoding="iso-8859-1"?>
<!-- Generator: Adobe Illustrator 19.0.0, SVG Export Plug-In . SVG Version: 6.00 Build 0)  -->
<svg version="1.1" id="Capa_1" xmlns="http://www.w3.org/2000/svg" xmlns:xlink="http://www.w3.org/1999/xlink" x="0px" y="0px"
	 viewBox="0 0 512.001 512.001" style="enable-background:new 0 0 512.001 512.001;" xml:space="preserve">
<path style="fill:#FFCB63;" d="M74.485,82.499v15l-15,15l-15-15v-15c0-8.28,6.72-15,15-15
	C67.775,67.499,74.485,74.219,74.485,82.499z"/>
<path style="fill:#FFA754;" d="M74.485,97.499v15c0,8.28-6.71,15-15,15c-8.28,0-15-6.72-15-15v-15H74.485z"/>
<g>
	<path style="fill:#7DD9FF;" d="M33.885,86.889l10.6,10.61l-10.6,10.61c-5.86,5.85-15.36,5.85-21.22,0
		c-5.85-5.86-5.85-15.36,0-21.22C18.525,81.039,28.025,81.039,33.885,86.889z"/>
	<path style="fill:#7DD9FF;" d="M106.305,86.889c5.86,5.86,5.86,15.36,0,21.22c-5.85,5.85-15.35,5.85-21.21,0l-10.61-10.61
		l10.61-10.61C90.955,81.039,100.455,81.039,106.305,86.889z"/>
</g>
<circle style="fill:#60312C;" cx="265.7" cy="29.999" r="22.5"/>
<path style="fill:#A45E43;" d="M299.953,68.334c0.01-0.01-34.255-0.005-34.255-0.005v74.17c24.85,0,45-20.15,45-45
	C310.698,86.379,306.653,76.184,299.953,68.334z"/>
<path style="fill:#C27749;" d="M279.588,80.509l-48.145-12.175c-6.7,7.85-10.745,18.045-10.745,29.165c0,24.85,20.15,45,45,45
	c8.28,0,15-20.15,15-45C280.698,91.489,280.308,85.749,279.588,80.509z"/>
<path style="fill:#40211D;" d="M265.698,52.499l13.89,28.01c7.45-2.23,14.475-6.295,20.365-12.175
	C291.703,58.644,279.418,52.499,265.698,52.499z"/>
<path style="fill:#60312C;" d="M265.698,52.499c-13.72,0-26.005,6.145-34.255,15.835c13.04,13.04,31.645,17.105,48.145,12.175
	C277.358,64.079,271.978,52.499,265.698,52.499z"/>
<path style="fill:#2DADE3;" d="M290.698,172.499h-30v120h50v-100C310.698,181.453,301.743,172.499,290.698,172.499z"/>
<path style="fill:#49C9FF;" d="M260.698,172.499h-20c-11.046,0-20,8.954-20,20v100h60v-100
	C280.698,181.453,271.743,172.499,260.698,172.499z"/>
<path style="fill:#FF4128;" d="M310.698,262.499h-30l15,90h30v-50.335C325.698,286.953,320.027,273.074,310.698,262.499z"/>
<path style="fill:#FF6337;" d="M280.698,262.499h-60c-9.329,10.575-15,24.454-15,39.665v50.335h90v-50.335
	C295.698,286.953,290.027,273.074,280.698,262.499z"/>
<path style="fill:#FFB4A9;" d="M458.731,52.499v101l45-46v-10C503.731,72.646,483.583,52.499,458.731,52.499z"/>
<path style="fill:#FFD9D4;" d="M458.731,52.499c-24.853,0-45,20.147-45,45v10l60,46v-56
	C473.731,72.646,467.015,52.499,458.731,52.499z"/>
<path style="fill:#FF6337;" d="M477.439,107.499c-1.053-1.573-2.303-3.002-3.709-4.261l-15,69.261c24.853,0,45-20.147,45-45v-20
	H477.439z"/>
<path style="fill:#FF8646;" d="M473.731,127.499v-24.261c-3.981-3.566-9.235-5.739-15-5.739c-7.801,0-14.672,3.971-18.709,10H413.73
	v20c0,24.853,20.147,45,45,45C467.015,172.499,473.731,152.352,473.731,127.499z"/>
<path style="fill:#2DADE3;" d="M458.731,262.499v75c24.853,0,45-20.147,45-45L458.731,262.499z"/>
<path style="fill:#49C9FF;" d="M473.731,292.499l-15-30l-45,30c0,24.853,20.147,45,45,45
	C467.015,337.499,473.731,317.352,473.731,292.499z"/>
<path style="fill:#9DB55F;" d="M483.731,172.499h-30l20,120h30v-100C503.731,181.453,494.776,172.499,483.731,172.499z"/>
<path style="fill:#B9D171;" d="M453.731,172.499h-20c-11.046,0-20,8.954-20,20v100h60v-100
	C473.731,181.453,464.776,172.499,453.731,172.499z"/>
<path d="M95.698,74.999c-5.031,0-9.797,1.659-13.714,4.686V52.499c0-4.142-3.357-7.5-7.5-7.5s-7.5,3.358-7.5,7.5v8.79
	c-2.347-0.833-4.871-1.29-7.5-1.29s-5.153,0.458-7.5,1.29v-8.79c0-4.142-3.357-7.5-7.5-7.5s-7.5,3.358-7.5,7.5v27.186
	c-3.916-3.026-8.682-4.686-13.713-4.686c-6.01,0-11.66,2.341-15.909,6.59c-4.25,4.25-6.591,9.9-6.591,15.91s2.341,11.66,6.59,15.91
	c4.25,4.25,9.9,6.59,15.91,6.59c5.101,0,9.933-1.702,13.879-4.81c1.335,11.143,10.839,19.81,22.334,19.81s20.999-8.668,22.333-19.81
	c3.947,3.109,8.779,4.81,13.88,4.81c6.01,0,11.659-2.34,15.91-6.59c8.771-8.772,8.771-23.047-0.001-31.82
	C107.357,77.339,101.708,74.999,95.698,74.999z M59.484,74.999c4.136,0,7.5,3.364,7.5,7.5v7.5h-15v-7.5
	C51.984,78.363,55.349,74.999,59.484,74.999z M28.574,102.802c-1.416,1.417-3.3,2.197-5.303,2.197s-3.887-0.78-5.304-2.197
	c-1.416-1.417-2.196-3.3-2.196-5.303s0.78-3.886,2.197-5.303c1.417-1.417,3.301-2.197,5.303-2.197s3.887,0.78,5.303,2.197
	l5.304,5.303L28.574,102.802z M59.484,119.999c-4.136,0-7.5-3.364-7.5-7.5v-7.5h15v7.5C66.984,116.635,63.62,119.999,59.484,119.999
	z M101.002,102.802c-1.417,1.417-3.301,2.197-5.304,2.197c-2.004,0-3.888-0.78-5.304-2.197l-5.303-5.303l5.303-5.303
	c1.417-1.417,3.3-2.197,5.304-2.197c2.003,0,3.887,0.78,5.303,2.197C103.925,95.12,103.925,99.878,101.002,102.802z"/>
<path d="M265.697,149.999c28.948,0,52.5-23.551,52.5-52.5c0-12.814-4.621-24.566-12.276-33.69c-0.204-0.269-0.422-0.531-0.667-0.776
	c-4.776-5.461-10.621-9.915-17.221-13.032c4.762-5.312,7.665-12.323,7.665-20.001c0-16.542-13.458-30-30-30s-30,13.458-30,30
	c0,7.678,2.903,14.689,7.665,20.001c-6.599,3.116-12.442,7.569-17.192,13.004c-0.277,0.274-0.496,0.539-0.702,0.81
	c-7.652,9.124-12.271,20.873-12.271,33.685C213.197,126.448,236.749,149.999,265.697,149.999z M265.697,134.999
	c-20.678,0-37.5-16.822-37.5-37.5c0-6.565,1.701-12.739,4.678-18.112c9.491,6.91,20.87,10.648,32.822,10.648
	c11.953,0,23.333-3.739,32.823-10.648c2.977,5.373,4.677,11.546,4.677,18.112C303.197,118.177,286.375,134.999,265.697,134.999z
	 M242.665,67.938c6.362-4.968,14.354-7.939,23.032-7.939s16.671,2.971,23.032,7.939c-6.742,4.611-14.697,7.098-23.032,7.098
	S249.407,72.549,242.665,67.938z M250.697,29.999c0-8.271,6.729-15,15-15s15,6.729,15,15s-6.729,15-15,15
	S250.697,38.27,250.697,29.999z"/>
<path d="M328.069,497.384l-24.872-8.291V359.999h22.5c4.143,0,7.5-3.358,7.5-7.5v-50.335c0-15.471-5.307-30.417-15-42.406v-67.259
	c0-15.164-12.337-27.5-27.5-27.5h-50c-15.163,0-27.5,12.336-27.5,27.5v31.21c-8.729-3.096-15-11.433-15-21.21v-75
	c0-4.142-3.357-7.5-7.5-7.5s-7.5,3.358-7.5,7.5v75c0,18.11,12.904,33.261,30,36.745v20.514c-9.693,11.99-15,26.936-15,42.406v50.335
	c0,4.142,3.357,7.5,7.5,7.5h22.5v134.5c0,3.228,2.065,6.094,5.128,7.115l30,10c0.787,0.262,1.587,0.387,2.373,0.387
	c3.141,0,6.066-1.988,7.114-5.13c1.31-3.93-0.814-8.177-4.743-9.487l-24.872-8.291V359.999h45v134.5
	c0,3.228,2.065,6.094,5.128,7.115l30,10c0.787,0.262,1.587,0.387,2.373,0.387c3.141,0,6.066-1.988,7.114-5.13
	C334.122,502.941,331.998,498.694,328.069,497.384z M228.197,192.499c0-6.893,5.607-12.5,12.5-12.5h50c6.893,0,12.5,5.607,12.5,12.5
	v62.5h-15v-52.5c0-4.142-3.357-7.5-7.5-7.5s-7.5,3.358-7.5,7.5v52.5h-45L228.197,192.499L228.197,192.499z M213.197,302.164
	c0-11.686,3.905-22.98,11.039-32.165h48.961v52.5c0,4.142,3.357,7.5,7.5,7.5s7.5-3.358,7.5-7.5v-52.5h18.962
	c7.133,9.184,11.038,20.479,11.038,32.165v42.835h-105L213.197,302.164L213.197,302.164z"/>
<path d="M458.73,44.999c-28.948,0-52.5,23.551-52.5,52.5v30c0,15.626,6.87,29.67,17.739,39.296
	c-10.358,3.947-17.739,13.977-17.739,25.704v29.988c-21.839-0.246-43.603-8.664-60.229-25.291c-2.93-2.929-7.678-2.929-10.607,0
	c-2.929,2.929-2.929,7.678,0,10.606c19.551,19.551,45.156,29.443,70.837,29.689v55.008c0,14.269,5.73,27.22,15,36.692v159.902
	l-24.872,8.291c-3.93,1.31-6.053,5.557-4.743,9.487c1.048,3.143,3.974,5.13,7.114,5.13c0.786,0,1.586-0.125,2.373-0.387l30-10
	c3.063-1.021,5.128-3.887,5.128-7.115V339.923c6.824,3.25,14.452,5.076,22.5,5.076s15.676-1.825,22.5-5.076v149.17l-24.872,8.291
	c-3.93,1.31-6.053,5.557-4.743,9.487c1.048,3.143,3.974,5.13,7.114,5.13c0.786,0,1.586-0.125,2.373-0.387l30-10
	c3.063-1.021,5.128-3.887,5.128-7.115V329.191c9.27-9.472,15-22.423,15-36.692v-100c0-11.727-7.381-21.757-17.739-25.704
	c10.869-9.625,17.739-23.67,17.739-39.296v-30C511.23,68.55,487.679,44.999,458.73,44.999z M458.73,59.999
	c20.678,0,37.5,16.822,37.5,37.5v2.5h-15.139c-5.652-6.325-13.746-10-22.361-10s-16.708,3.675-22.36,10h-15.14v-2.5
	C421.23,76.821,438.053,59.999,458.73,59.999z M421.985,299.999h73.491c-3.484,17.096-18.635,30-36.745,30
	S425.469,317.095,421.985,299.999z M483.73,179.999c6.893,0,12.5,5.607,12.5,12.5v92.5h-75v-48.465
	c21.16-2.924,41.569-12.497,57.804-28.732c2.929-2.929,2.929-7.678,0-10.606c-2.93-2.929-7.678-2.93-10.607,0
	c-13.306,13.306-29.905,21.343-47.196,24.158v-28.855c0-6.893,5.607-12.5,12.5-12.5H483.73z M458.73,164.999
	c-20.678,0-37.5-16.822-37.5-37.5v-12.5h18.792c2.503,0,4.84-1.248,6.232-3.328c2.797-4.178,7.461-6.672,12.476-6.672
	c5.016,0,9.68,2.494,12.477,6.672c1.393,2.08,3.729,3.328,6.232,3.328h18.791v12.5C496.23,148.177,479.408,164.999,458.73,164.999z"
	/>
<path d="M198.197,97.499c0-4.142-3.357-7.5-7.5-7.5h-10c-4.143,0-7.5,3.358-7.5,7.5s3.357,7.5,7.5,7.5h10
	C194.84,104.999,198.197,101.641,198.197,97.499z"/>
<path d="M150.697,89.999h-10c-4.143,0-7.5,3.358-7.5,7.5s3.357,7.5,7.5,7.5h10c4.143,0,7.5-3.358,7.5-7.5
	S154.84,89.999,150.697,89.999z"/>
<g>
</g>
<g>
</g>
<g>
</g>
<g>
</g>
<g>
</g>
<g>
</g>
<g>
</g>
<g>
</g>
<g>
</g>
<g>
</g>
<g>
</g>
<g>
</g>
<g>
</g>
<g>
</g>
<g>
</g>
</svg>
