<?xml version="1.0" encoding="iso-8859-1"?>
<!-- Generator: Adobe Illustrator 19.0.0, SVG Export Plug-In . SVG Version: 6.00 Build 0)  -->
<svg version="1.1" id="Capa_1" xmlns="http://www.w3.org/2000/svg" xmlns:xlink="http://www.w3.org/1999/xlink" x="0px" y="0px"
	 viewBox="0 0 512.002 512.002" style="enable-background:new 0 0 512.002 512.002;" xml:space="preserve">
<circle style="fill:#60312C;" cx="305.03" cy="30" r="22.5"/>
<path style="fill:#A45E43;" d="M339.282,68.335c0.01-0.01-34.255-0.005-34.255-0.005v74.17c24.85,0,45-20.15,45-45
	C350.027,86.38,345.982,76.185,339.282,68.335z"/>
<path style="fill:#C27749;" d="M318.917,80.51l-48.145-12.175c-6.7,7.85-10.745,18.045-10.745,29.165c0,24.85,20.15,45,45,45
	c8.28,0,15-20.15,15-45C320.027,91.49,319.637,85.75,318.917,80.51z"/>
<path style="fill:#40211D;" d="M305.027,52.5l13.89,28.01c7.45-2.23,14.475-6.295,20.365-12.175
	C331.032,58.645,318.747,52.5,305.027,52.5z"/>
<path style="fill:#60312C;" d="M305.027,52.5c-13.72,0-26.005,6.145-34.255,15.835c13.04,13.04,31.645,17.105,48.145,12.175
	C316.687,64.08,311.307,52.5,305.027,52.5z"/>
<path style="fill:#2DADE3;" d="M330.027,172.5h-30v120h50v-100C350.027,181.454,341.072,172.5,330.027,172.5z"/>
<path style="fill:#49C9FF;" d="M300.027,172.5h-20c-11.046,0-20,8.954-20,20v100h60v-100
	C320.027,181.454,311.072,172.5,300.027,172.5z"/>
<path style="fill:#FF4128;" d="M350.027,262.5h-30l15,90h30v-50.335C365.027,286.954,359.356,273.075,350.027,262.5z"/>
<path style="fill:#FF6337;" d="M320.027,262.5h-60c-7,7.93-11.82,17.74-13.97,28.54c-3.07,15.4-12.96,61.46-12.96,61.46h101.93
	v-50.335C335.027,286.954,329.356,273.075,320.027,262.5z"/>
<path style="fill:#FFCB63;" d="M125.027,52.5l30,200l10-10l20,20v-150C185.027,79.363,158.164,52.5,125.027,52.5z"/>
<path style="fill:#FFE2A8;" d="M125.027,52.5c-33.137,0-60,26.863-60,60v150l20-20l20,20l20-20l20,20l10-10v-140
	C155.027,79.363,141.595,52.5,125.027,52.5z"/>
<path d="M305.027,150c28.948,0,52.5-23.551,52.5-52.5c0-12.812-4.619-24.561-12.271-33.685c-0.206-0.271-0.424-0.535-0.671-0.782
	c-4.78-5.463-10.623-9.916-17.222-13.032c4.762-5.312,7.665-12.323,7.665-20.001c0-16.542-13.458-30-30-30s-30,13.458-30,30
	c0,7.678,2.903,14.689,7.665,20.001c-6.599,3.116-12.442,7.569-17.192,13.004c-0.277,0.274-0.496,0.539-0.702,0.81
	c-7.652,9.124-12.271,20.873-12.271,33.685C252.527,126.449,276.078,150,305.027,150z M305.027,135c-20.678,0-37.5-16.822-37.5-37.5
	c0-6.567,1.702-12.742,4.68-18.116c9.751,7.072,21.284,10.615,32.82,10.615s23.069-3.542,32.82-10.615
	c2.978,5.374,4.68,11.549,4.68,18.116C342.527,118.178,325.704,135,305.027,135z M282.004,67.931
	c6.36-4.963,14.349-7.931,23.022-7.931s16.662,2.968,23.022,7.931C314.21,77.351,295.843,77.351,282.004,67.931z M290.027,30
	c0-8.271,6.729-15,15-15s15,6.729,15,15s-6.729,15-15,15S290.027,38.271,290.027,30z"/>
<path d="M450.736,196.013c-3.582-2.077-8.172-0.857-10.25,2.727c-9.392,16.198-26.811,26.26-45.459,26.26h-37.5v-15h37.5
	c20.678,0,37.5-16.822,37.5-37.5c0-4.142-3.357-7.5-7.5-7.5s-7.5,3.358-7.5,7.5c0,12.407-10.094,22.5-22.5,22.5h-37.5v-2.5
	c0-15.164-12.337-27.5-27.5-27.5h-50c-15.163,0-27.5,12.336-27.5,27.5v67.263c-6.861,8.511-11.62,18.756-13.824,29.809
	c-3.024,15.17-12.837,60.895-12.937,61.354c-0.476,2.215,0.076,4.526,1.5,6.288s3.568,2.786,5.833,2.786h2.627l-9.06,41.78
	l-79.002,27.133c-3.03,1.041-5.064,3.89-5.064,7.093v30c0,4.142,3.358,7.5,7.5,7.5s7.5-3.358,7.5-7.5V441.36l77.936-26.767
	c2.482-0.852,4.337-2.939,4.894-5.504L251.075,360h76.452v134.5c0,3.228,2.065,6.094,5.128,7.115l30,10
	c0.787,0.262,1.587,0.387,2.373,0.387c3.141,0,6.066-1.988,7.114-5.13c1.31-3.93-0.814-8.177-4.743-9.487l-24.872-8.291V360h22.5
	c4.143,0,7.5-3.358,7.5-7.5v-50.335c0-15.471-5.307-30.417-15-42.406V240h37.5c23.979,0,46.371-12.927,58.436-33.737
	C455.54,202.679,454.319,198.09,450.736,196.013z M280.027,180h50c6.893,0,12.5,5.607,12.5,12.5v2.5h-52.5
	c-4.143,0-7.5,3.358-7.5,7.5s3.357,7.5,7.5,7.5h52.5v45h-75v-62.5C267.527,185.607,273.134,180,280.027,180z M357.527,345H245.135
	c-0.025,0-0.05,0-0.075,0h-2.685c3.047-14.258,8.83-41.415,11.039-52.496c1.659-8.324,5.15-16.037,10.148-22.504h82.926
	c7.133,9.183,11.038,20.478,11.038,32.165V345H357.527z"/>
<path d="M150.33,267.803l14.697-14.697l14.697,14.697c1.435,1.435,3.353,2.197,5.305,2.197c0.966,0,1.941-0.187,2.869-0.571
	c2.803-1.161,4.63-3.896,4.63-6.929v-150c0-37.22-30.28-67.5-67.5-67.5s-67.5,30.28-67.5,67.5v60c0,4.142,3.358,7.5,7.5,7.5
	s7.5-3.358,7.5-7.5v-60c0-28.949,23.551-52.5,52.5-52.5s52.5,23.551,52.5,52.5v131.894l-7.197-7.197
	c-2.929-2.929-7.678-2.929-10.606,0l-14.697,14.697l-14.697-14.697c-2.929-2.929-7.678-2.929-10.606,0l-14.697,14.697L90.33,237.197
	c-2.929-2.929-7.678-2.929-10.606,0l-7.197,7.197V202.5c0-4.142-3.358-7.5-7.5-7.5s-7.5,3.358-7.5,7.5v60
	c0,3.034,1.827,5.768,4.63,6.929c2.803,1.161,6.028,0.52,8.173-1.626l14.697-14.697l14.697,14.697c2.929,2.929,7.678,2.929,10.606,0
	l14.697-14.697l14.697,14.697C142.652,270.732,147.401,270.732,150.33,267.803z"/>
<path d="M132.527,120.417v-15c0-4.142-3.358-7.5-7.5-7.5s-7.5,3.358-7.5,7.5v15c0,4.142,3.358,7.5,7.5,7.5
	S132.527,124.56,132.527,120.417z"/>
<path d="M162.527,120.417v-15c0-4.142-3.358-7.5-7.5-7.5s-7.5,3.358-7.5,7.5v15c0,4.142,3.358,7.5,7.5,7.5
	S162.527,124.56,162.527,120.417z"/>
<g>
</g>
<g>
</g>
<g>
</g>
<g>
</g>
<g>
</g>
<g>
</g>
<g>
</g>
<g>
</g>
<g>
</g>
<g>
</g>
<g>
</g>
<g>
</g>
<g>
</g>
<g>
</g>
<g>
</g>
</svg>
