<?xml version="1.0" encoding="iso-8859-1"?>
<!-- Generator: Adobe Illustrator 19.0.0, SVG Export Plug-In . SVG Version: 6.00 Build 0)  -->
<svg version="1.1" id="Capa_1" xmlns="http://www.w3.org/2000/svg" xmlns:xlink="http://www.w3.org/1999/xlink" x="0px" y="0px"
	 viewBox="0 0 512.001 512.001" style="enable-background:new 0 0 512.001 512.001;" xml:space="preserve">
<circle style="fill:#60312C;" cx="112.5" cy="30" r="22.5"/>
<path style="fill:#A45E43;" d="M146.757,68.335c0.01-0.01-34.255-0.005-34.255-0.005v74.17c24.85,0,45-20.15,45-45
	C157.502,86.38,153.457,76.185,146.757,68.335z"/>
<path style="fill:#C27749;" d="M126.392,80.51L78.247,68.335c-6.7,7.85-10.745,18.045-10.745,29.165c0,24.85,20.15,45,45,45
	c8.28,0,15-20.15,15-45C127.502,91.49,127.112,85.75,126.392,80.51z"/>
<path style="fill:#40211D;" d="M112.502,52.5l13.89,28.01c7.45-2.23,14.475-6.295,20.365-12.175
	C138.507,58.645,126.222,52.5,112.502,52.5z"/>
<path style="fill:#60312C;" d="M112.502,52.5c-13.72,0-26.005,6.145-34.255,15.835c13.04,13.04,31.645,17.105,48.145,12.175
	C124.162,64.08,118.782,52.5,112.502,52.5z"/>
<path style="fill:#2DADE3;" d="M137.502,172.5h-10l-20,20v100h50v-100C157.502,181.454,148.548,172.5,137.502,172.5z"/>
<path style="fill:#49C9FF;" d="M87.502,172.5c-11.046,0-20,8.954-20,20v100h60v-120H87.502z"/>
<path style="fill:#FF4128;" d="M157.502,262.5h-30l15,90h30v-50.335C172.502,286.954,166.831,273.075,157.502,262.5z"/>
<path style="fill:#FF6337;" d="M127.502,262.5h-60c-9.329,10.575-15,24.454-15,39.665V352.5h90v-50.335
	C142.502,286.954,136.831,273.075,127.502,262.5z"/>
<path style="fill:#FFF0D3;" d="M339.502,22.5v240c66.168,0,120-53.832,120-120S405.67,22.5,339.502,22.5z"/>
<path style="fill:#FFFFFF;" d="M429.502,142.5c0-66.168-40.374-120-90-120c-60.676,0-110.971,45.269-118.903,103.806L181.502,142.5
	l39.097,16.194C228.531,217.23,278.826,262.5,339.502,262.5C389.128,262.5,429.502,208.668,429.502,142.5z"/>
<path style="fill:#FFA754;" d="M339.502,52.5v180c49.706,0,90-40.294,90-90S389.208,52.5,339.502,52.5z"/>
<path style="fill:#FFCB63;" d="M399.502,142.5c0-49.706-26.863-90-60-90c-49.706,0-90,40.294-90,90s40.294,90,90,90
	C372.639,232.5,399.502,192.206,399.502,142.5z"/>
<g>
	<path style="fill:#FFFFFF;" d="M309.502,99.5c-8.284,0-15,6.716-15,15v15c0,8.284,6.716,15,15,15s15-6.716,15-15v-15
		C324.502,106.216,317.786,99.5,309.502,99.5z"/>
	<path style="fill:#FFFFFF;" d="M369.502,99.5c8.284,0,15,6.716,15,15v15c0,8.284-6.716,15-15,15s-15-6.716-15-15v-15
		C354.502,106.216,361.218,99.5,369.502,99.5z"/>
</g>
<path d="M174.874,497.385l-24.309-8.103c0.337-1.309,0.805-2.416,1.346-3.695c1.377-3.26,3.091-7.316,3.091-14.752
	s-1.714-11.492-3.091-14.752c-1.108-2.622-1.909-4.517-1.909-8.913s0.801-6.291,1.909-8.913c1.377-3.26,3.091-7.316,3.091-14.752
	s-1.714-11.493-3.091-14.752c-1.108-2.623-1.909-4.517-1.909-8.914c0-4.398,0.801-6.293,1.909-8.916
	c1.377-3.26,3.091-7.317,3.091-14.753c0-7.437-1.714-11.494-3.091-14.754c-0.207-0.49-0.403-0.955-0.586-1.416h21.177
	c4.142,0,7.5-3.358,7.5-7.5v-50.335c0-15.471-5.307-30.417-15-42.406V192.5c0-15.164-12.336-27.5-27.5-27.5h-2.5v-20.076
	c17.721-8.441,30-26.523,30-47.424c0-12.814-4.621-24.565-12.275-33.689c-0.205-0.269-0.422-0.532-0.668-0.778
	c-4.777-5.462-10.622-9.916-17.222-13.032c4.762-5.312,7.665-12.323,7.665-20.001c0-16.542-13.458-30-30-30s-30,13.458-30,30
	c0,7.678,2.903,14.689,7.665,20.001c-6.6,3.116-12.444,7.57-17.194,13.007c-0.273,0.271-0.491,0.533-0.695,0.802
	c-7.655,9.125-12.276,20.876-12.276,33.69c0,20.901,12.279,38.983,30,47.424V165h-2.5c-15.164,0-27.5,12.336-27.5,27.5v67.259
	c-9.693,11.989-15,26.935-15,42.406V352.5c0,4.142,3.358,7.5,7.5,7.5h21.176c-0.182,0.46-0.378,0.924-0.585,1.413
	c-1.377,3.26-3.091,7.316-3.091,14.752s1.714,11.492,3.091,14.752c1.108,2.622,1.909,4.517,1.909,8.913s-0.801,6.291-1.909,8.913
	c-1.377,3.26-3.091,7.316-3.091,14.752s1.714,11.493,3.091,14.752c1.108,2.623,1.909,4.517,1.909,8.914
	c0,4.398-0.801,6.293-1.909,8.916c-1.377,3.26-3.091,7.317-3.091,14.753c0,7.437,1.714,11.494,3.091,14.754
	c0.541,1.281,1.009,2.388,1.346,3.697l-24.309,8.103c-3.93,1.31-6.053,5.557-4.744,9.487c1.048,3.143,3.974,5.13,7.114,5.13
	c0.786,0,1.586-0.125,2.373-0.387l30-10c3.063-1.021,5.128-3.887,5.128-7.115c0-7.437-1.714-11.494-3.091-14.753
	c-1.108-2.623-1.909-4.518-1.909-8.916c0-4.398,0.801-6.293,1.909-8.916c1.377-3.26,3.091-7.317,3.091-14.754
	c0-7.436-1.714-11.493-3.091-14.752c-1.108-2.622-1.909-4.517-1.909-8.914c0-4.396,0.801-6.291,1.909-8.913
	c1.377-3.26,3.091-7.316,3.091-14.752s-1.714-11.492-3.091-14.752c-1.108-2.622-1.909-4.517-1.909-8.913s0.801-6.291,1.909-8.913
	c0.823-1.947,1.763-4.186,2.389-7.252h46.404c0.626,3.067,1.566,5.306,2.389,7.253c1.108,2.623,1.909,4.518,1.909,8.916
	s-0.801,6.293-1.909,8.916c-1.377,3.26-3.091,7.317-3.091,14.754c0,7.436,1.714,11.493,3.091,14.752
	c1.108,2.622,1.909,4.517,1.909,8.914c0,4.396-0.801,6.291-1.909,8.913c-1.377,3.26-3.091,7.316-3.091,14.752
	s1.714,11.492,3.091,14.752c1.108,2.622,1.909,4.517,1.909,8.913s-0.801,6.291-1.909,8.913c-1.377,3.26-3.091,7.316-3.091,14.752
	c0,3.228,2.066,6.094,5.128,7.115l30,10c0.787,0.262,1.586,0.387,2.373,0.387c3.14,0,6.066-1.988,7.114-5.13
	C180.927,502.942,178.803,498.695,174.874,497.385z M135.534,67.939c-6.742,4.611-14.697,7.098-23.032,7.098
	s-16.29-2.487-23.032-7.098C95.831,62.971,103.824,60,112.502,60S129.173,62.971,135.534,67.939z M97.502,30c0-8.271,6.729-15,15-15
	s15,6.729,15,15s-6.729,15-15,15S97.502,38.271,97.502,30z M75.002,97.5c0-6.565,1.701-12.739,4.678-18.112
	c9.49,6.91,20.869,10.648,32.822,10.648s23.332-3.739,32.822-10.648c2.977,5.373,4.678,11.546,4.678,18.112
	c0,12.242-5.898,23.132-15,29.98c-0.011-12.397-10.099-22.48-22.5-22.48s-22.489,10.083-22.5,22.48
	C80.9,120.632,75.002,109.742,75.002,97.5z M120.002,134.245c-2.424,0.494-4.932,0.755-7.5,0.755s-5.076-0.261-7.5-0.755V127.5
	c0-4.136,3.364-7.5,7.5-7.5s7.5,3.364,7.5,7.5V134.245z M105.002,149.456c2.451,0.352,4.953,0.544,7.5,0.544s5.049-0.192,7.5-0.544
	V165h-15V149.456z M87.502,180h2.5v52.5c0,4.142,3.358,7.5,7.5,7.5s7.5-3.358,7.5-7.5V180h15v52.5c0,4.142,3.358,7.5,7.5,7.5
	s7.5-3.358,7.5-7.5V180h2.5c6.893,0,12.5,5.607,12.5,12.5V255h-75v-62.5C75.002,185.607,80.609,180,87.502,180z M60.002,302.165
	c0-11.687,3.905-22.982,11.039-32.165h82.923c7.133,9.183,11.039,20.478,11.039,32.165V345h-105L60.002,302.165L60.002,302.165z"/>
<path d="M339.502,15c-28.566,0-55.589,9.276-78.146,26.826c-3.269,2.543-3.857,7.256-1.314,10.525s7.255,3.857,10.525,1.314
	C290.466,38.183,314.303,30,339.502,30c62.033,0,112.5,50.467,112.5,112.5S401.535,255,339.502,255
	c-56.031,0-103.954-41.835-111.471-97.313c-0.358-2.645-2.096-4.9-4.562-5.922l-22.368-9.265l22.368-9.265
	c2.466-1.021,4.204-3.277,4.562-5.922c2.645-19.518,10.474-38.103,22.641-53.747c2.543-3.27,1.954-7.982-1.316-10.525
	c-3.269-2.542-7.98-1.954-10.525,1.316c-12.892,16.577-21.489,36.077-25.004,56.636l-35.194,14.578
	c-2.803,1.161-4.63,3.896-4.63,6.929s1.827,5.768,4.63,6.929l35.193,14.578C224.185,224.734,277.457,270,339.502,270
	c70.304,0,127.5-57.196,127.5-127.5S409.806,15,339.502,15z"/>
<path d="M339.502,240c53.762,0,97.5-43.738,97.5-97.5S393.264,45,339.502,45s-97.5,43.738-97.5,97.5S285.74,240,339.502,240z
	 M339.502,60c45.491,0,82.5,37.009,82.5,82.5s-37.009,82.5-82.5,82.5s-82.5-37.009-82.5-82.5S294.011,60,339.502,60z"/>
<path d="M309.502,152c12.407,0,22.5-10.093,22.5-22.5v-15c0-12.407-10.093-22.5-22.5-22.5s-22.5,10.093-22.5,22.5v15
	C287.002,141.907,297.095,152,309.502,152z M302.002,114.5c0-4.136,3.364-7.5,7.5-7.5s7.5,3.364,7.5,7.5v15
	c0,4.136-3.364,7.5-7.5,7.5s-7.5-3.364-7.5-7.5V114.5z"/>
<path d="M369.502,152c12.407,0,22.5-10.093,22.5-22.5v-15c0-12.407-10.093-22.5-22.5-22.5s-22.5,10.093-22.5,22.5v15
	C347.002,141.907,357.095,152,369.502,152z M362.002,114.5c0-4.136,3.364-7.5,7.5-7.5s7.5,3.364,7.5,7.5v15
	c0,4.136-3.364,7.5-7.5,7.5s-7.5-3.364-7.5-7.5V114.5z"/>
<path d="M312.841,165.76c-1.54,1.026-1.86,1.24-3.339,1.24c-4.142,0-7.5,3.358-7.5,7.5s3.358,7.5,7.5,7.5
	c6.021,0,9.414-2.263,11.66-3.76c1.54-1.026,1.861-1.24,3.34-1.24s1.799,0.214,3.339,1.24c2.246,1.497,5.64,3.76,11.66,3.76
	c6.021,0,9.415-2.263,11.66-3.76c1.54-1.026,1.86-1.24,3.339-1.24c1.48,0,1.837,0.238,3.341,1.241
	c2.246,1.497,5.64,3.759,11.661,3.759c4.142,0,7.5-3.358,7.5-7.5s-3.358-7.5-7.5-7.5c-1.48,0-1.837-0.238-3.341-1.241
	c-2.246-1.497-5.64-3.759-11.661-3.759s-9.414,2.263-11.66,3.76c-1.54,1.026-1.861,1.24-3.34,1.24s-1.799-0.214-3.339-1.24
	c-2.246-1.497-5.64-3.76-11.66-3.76C318.48,162,315.087,164.263,312.841,165.76z"/>
<g>
</g>
<g>
</g>
<g>
</g>
<g>
</g>
<g>
</g>
<g>
</g>
<g>
</g>
<g>
</g>
<g>
</g>
<g>
</g>
<g>
</g>
<g>
</g>
<g>
</g>
<g>
</g>
<g>
</g>
</svg>
