<?xml version="1.0" encoding="iso-8859-1"?>
<!-- Generator: Adobe Illustrator 19.0.0, SVG Export Plug-In . SVG Version: 6.00 Build 0)  -->
<svg version="1.1" id="Capa_1" xmlns="http://www.w3.org/2000/svg" xmlns:xlink="http://www.w3.org/1999/xlink" x="0px" y="0px"
	 viewBox="0 0 512.002 512.002" style="enable-background:new 0 0 512.002 512.002;" xml:space="preserve">
<circle style="fill:#60312C;" cx="388.26" cy="30" r="22.5"/>
<path style="fill:#A45E43;" d="M422.511,68.335c0.01-0.01-34.255-0.005-34.255-0.005v74.17c24.85,0,45-20.15,45-45
	C433.257,86.38,429.211,76.185,422.511,68.335z"/>
<path style="fill:#C27749;" d="M402.146,80.51l-48.145-12.175c-6.7,7.85-10.745,18.045-10.745,29.165c0,24.85,20.15,45,45,45
	c8.28,0,15-20.15,15-45C403.257,91.49,402.866,85.75,402.146,80.51z"/>
<path style="fill:#40211D;" d="M388.257,52.5l13.89,28.01c7.45-2.23,14.475-6.295,20.365-12.175
	C414.261,58.645,401.977,52.5,388.257,52.5z"/>
<path style="fill:#60312C;" d="M388.257,52.5c-13.72,0-26.005,6.145-34.255,15.835c13.04,13.04,31.645,17.105,48.145,12.175
	C399.916,64.08,394.536,52.5,388.257,52.5z"/>
<path style="fill:#2DADE3;" d="M398.257,172.5h-30v120h50v-100C418.257,181.454,409.302,172.5,398.257,172.5z"/>
<path style="fill:#49C9FF;" d="M368.257,172.5h-20c-11.046,0-20,8.954-20,20v100h60v-100
	C388.257,181.454,379.302,172.5,368.257,172.5z"/>
<path style="fill:#FF4128;" d="M418.257,262.5h-30l15,90h30v-50.335C433.257,286.954,427.585,273.075,418.257,262.5z"/>
<path style="fill:#FF6337;" d="M388.257,262.5h-60c-9.329,10.575-15,24.454-15,39.665V352.5h90v-50.335
	C403.257,286.954,397.585,273.075,388.257,262.5z"/>
<polygon style="fill:#60312C;" points="147.747,264.5 193.747,504.5 223.747,504.5 223.747,264.5 "/>
<g>
	<polygon style="fill:#85453D;" points="193.747,504.5 73.747,504.5 73.747,264.5 193.747,264.5 193.747,324.5 133.747,399.5 
		193.747,474.5 	"/>
	<polygon style="fill:#85453D;" points="253.747,234.5 253.747,294.5 223.747,294.5 193.747,264.5 223.747,234.5 	"/>
</g>
<g>
	<rect x="43.747" y="234.5" style="fill:#A45E43;" width="180" height="60"/>
	<polygon style="fill:#A45E43;" points="193.747,324.5 193.747,474.5 163.747,474.5 123.747,399.5 163.747,324.5 	"/>
</g>
<rect x="103.751" y="324.5" style="fill:#C27749;" width="60" height="150"/>
<path style="fill:#2DADE3;" d="M148.747,114.5c-8.284,0-15,6.716-15,15v30c0,8.284,6.716,15,15,15s15-6.716,15-15v-30
	C163.747,121.216,157.031,114.5,148.747,114.5z"/>
<path d="M388.257,150c28.949,0,52.5-23.551,52.5-52.5c0-12.814-4.621-24.565-12.275-33.689c-0.205-0.269-0.422-0.532-0.668-0.778
	c-4.777-5.462-10.622-9.916-17.222-13.032c4.762-5.312,7.665-12.323,7.665-20.001c0-16.542-13.458-30-30-30s-30,13.458-30,30
	c0,7.678,2.903,14.689,7.665,20.001c-6.6,3.116-12.444,7.57-17.194,13.007c-0.273,0.271-0.491,0.533-0.695,0.802
	c-7.654,9.124-12.275,20.875-12.275,33.689C335.757,126.449,359.307,150,388.257,150z M388.257,135c-20.678,0-37.5-16.822-37.5-37.5
	c0-6.565,1.701-12.739,4.678-18.112c9.49,6.91,20.87,10.649,32.822,10.649c11.953,0,23.332-3.739,32.822-10.648
	c2.977,5.373,4.678,11.546,4.678,18.112C425.757,118.178,408.934,135,388.257,135z M365.224,67.939
	C371.585,62.971,379.578,60,388.257,60s16.671,2.971,23.032,7.939c-6.742,4.611-14.697,7.098-23.032,7.098
	S371.966,72.55,365.224,67.939z M373.257,30c0-8.271,6.729-15,15-15s15,6.729,15,15s-6.729,15-15,15S373.257,38.271,373.257,30z"/>
<path d="M478.257,135c-4.142,0-7.5,3.358-7.5,7.5v30c0,9.778-6.271,18.114-15,21.21V142.5c0-4.142-3.358-7.5-7.5-7.5
	s-7.5,3.358-7.5,7.5V195h-15v-2.5c0-15.164-12.336-27.5-27.5-27.5h-50c-15.164,0-27.5,12.336-27.5,27.5v67.259
	c-9.693,11.989-15,26.935-15,42.406V352.5c0,4.142,3.358,7.5,7.5,7.5h22.5v45.214l-43.726,65.104
	c-0.831,1.236-1.274,2.692-1.274,4.182v30c0,4.142,3.358,7.5,7.5,7.5s7.5-3.358,7.5-7.5v-27.715l43.726-65.104
	c0.831-1.236,1.274-2.692,1.274-4.182V360h45v134.5c0,3.228,2.066,6.094,5.128,7.115l30,10c0.787,0.262,1.586,0.387,2.373,0.387
	c3.14,0,6.066-1.988,7.114-5.13c1.31-3.93-0.814-8.177-4.744-9.487l-24.872-8.291V360h22.5c4.142,0,7.5-3.358,7.5-7.5v-50.335
	c0-15.471-5.307-30.417-15-42.406v-20.513c14.884-3.033,26.579-14.913,29.36-29.885c17.411-3.233,30.64-18.526,30.64-36.86v-30
	C485.757,138.358,482.398,135,478.257,135z M348.257,180h50c6.893,0,12.5,5.607,12.5,12.5v2.5h-52.5c-4.142,0-7.5,3.358-7.5,7.5
	s3.358,7.5,7.5,7.5h52.5v45h-75v-62.5C335.757,185.607,341.363,180,348.257,180z M425.757,345h-105v-42.835
	c0-11.687,3.905-22.981,11.039-32.165h82.923c7.133,9.183,11.039,20.478,11.039,32.165V345H425.757z M425.757,223.71V210h13.71
	C437.202,216.382,432.138,221.447,425.757,223.71z"/>
<path d="M263.746,227h-107.5v-46.29c8.729-3.096,15-11.432,15-21.21v-30c0-12.407-10.093-22.5-22.5-22.5s-22.5,10.093-22.5,22.5v30
	c0,9.778,6.271,18.114,15,21.21V227h-107.5c-4.142,0-7.5,3.358-7.5,7.5s3.358,7.5,7.5,7.5h2.5v52.5c0,4.142,3.358,7.5,7.5,7.5h22.5
	v202.5c0,4.142,3.358,7.5,7.5,7.5h150c4.142,0,7.5-3.358,7.5-7.5V302h22.5c4.142,0,7.5-3.358,7.5-7.5V242h2.5
	c4.142,0,7.5-3.358,7.5-7.5S267.888,227,263.746,227z M141.247,129.5c0-4.136,3.364-7.5,7.5-7.5s7.5,3.364,7.5,7.5v30
	c0,4.136-3.364,7.5-7.5,7.5s-7.5-3.364-7.5-7.5V129.5z M246.247,287h-82.5c-4.142,0-7.5,3.358-7.5,7.5s3.358,7.5,7.5,7.5h52.5v195
	h-135V302h52.5c4.142,0,7.5-3.358,7.5-7.5s-3.358-7.5-7.5-7.5h-82.5v-45h195V287z"/>
<path d="M96.247,324.5v150c0,4.142,3.358,7.5,7.5,7.5h90c4.142,0,7.5-3.358,7.5-7.5v-150c0-4.142-3.358-7.5-7.5-7.5h-90
	C99.604,317,96.247,320.358,96.247,324.5z M111.247,332h75v135h-75V332z"/>
<g>
</g>
<g>
</g>
<g>
</g>
<g>
</g>
<g>
</g>
<g>
</g>
<g>
</g>
<g>
</g>
<g>
</g>
<g>
</g>
<g>
</g>
<g>
</g>
<g>
</g>
<g>
</g>
<g>
</g>
</svg>
