<?xml version="1.0" encoding="iso-8859-1"?>
<!-- Generator: Adobe Illustrator 19.0.0, SVG Export Plug-In . SVG Version: 6.00 Build 0)  -->
<svg version="1.1" id="Capa_1" xmlns="http://www.w3.org/2000/svg" xmlns:xlink="http://www.w3.org/1999/xlink" x="0px" y="0px"
	 viewBox="0 0 512.002 512.002" style="enable-background:new 0 0 512.002 512.002;" xml:space="preserve">
<path style="fill:#2DADE3;" d="M412.001,262.5v75c24.853,0,45-20.147,45-45L412.001,262.5z"/>
<path style="fill:#49C9FF;" d="M427.001,292.5l-15-30l-45,30c0,24.853,20.147,45,45,45C420.285,337.5,427.001,317.353,427.001,292.5
	z"/>
<path style="fill:#9DB55F;" d="M437.001,172.5h-30l20,120h30v-100C457.001,181.454,448.047,172.5,437.001,172.5z"/>
<path style="fill:#B9D171;" d="M407.001,172.5h-20c-11.046,0-20,8.954-20,20v100h60v-100
	C427.001,181.454,418.047,172.5,407.001,172.5z"/>
<path style="fill:#FFB4A9;" d="M412.001,52.5v101l45-46v-10C457.001,72.647,436.854,52.5,412.001,52.5z"/>
<path style="fill:#FFD9D4;" d="M412.001,52.5c-24.853,0-45,20.147-45,45v10l60,46v-56C427.001,72.647,420.285,52.5,412.001,52.5z"/>
<path style="fill:#FF6337;" d="M430.71,107.5c-1.053-1.573-2.303-3.002-3.709-4.261l-15,69.261c24.853,0,45-20.147,45-45v-20H430.71
	z"/>
<path style="fill:#FF8646;" d="M427.001,127.5v-24.261c-3.981-3.566-9.235-5.739-15-5.739c-7.801,0-14.672,3.971-18.709,10h-26.291
	v20c0,24.853,20.147,45,45,45C420.285,172.5,427.001,152.353,427.001,127.5z"/>
<polygon style="fill:#FF6337;" points="220.001,82.5 235.001,112.5 175.001,112.5 175.001,82.5 "/>
<path style="fill:#7DD9FF;" d="M307.001,82.5l-45,45h30c24.85,0,45-20.15,45-45H307.001z"/>
<path style="fill:#A8E5FF;" d="M220.001,82.5v45h42c24.85,0,45-20.15,45-45H220.001z"/>
<path style="fill:#2DADE3;" d="M125.001,172.5h-30v120l50-30v-70C145.001,181.454,136.047,172.5,125.001,172.5z"/>
<path style="fill:#49C9FF;" d="M95.001,172.5h-20c-11.046,0-20,8.954-20,20v100h60v-100C115.001,181.454,106.047,172.5,95.001,172.5
	z"/>
<polygon style="fill:#FF4128;" points="145.001,262.5 115.001,262.5 95.001,300 115.001,352.5 145.001,352.5 "/>
<path style="fill:#FF6337;" d="M115.001,262.5h-60c-9.329,10.575-15,24.454-15,39.665V352.5h75V262.5z"/>
<circle style="fill:#60312C;" cx="100" cy="30" r="22.5"/>
<path style="fill:#A45E43;" d="M134.256,68.335c0.01-0.01-34.255-0.005-34.255-0.005v74.17c24.85,0,45-20.15,45-45
	C145.001,86.38,140.956,76.185,134.256,68.335z"/>
<path style="fill:#C27749;" d="M113.891,80.51L65.746,68.335c-6.7,7.85-10.745,18.045-10.745,29.165c0,24.85,20.15,45,45,45
	c8.28,0,15-20.15,15-45C115.001,91.49,114.611,85.75,113.891,80.51z"/>
<path style="fill:#40211D;" d="M100.001,52.5l13.89,28.01c7.45-2.23,14.475-6.295,20.365-12.175
	C126.006,58.645,113.721,52.5,100.001,52.5z"/>
<path style="fill:#60312C;" d="M100.001,52.5c-13.72,0-26.005,6.145-34.255,15.835c13.04,13.04,31.645,17.105,48.145,12.175
	C111.661,64.08,106.281,52.5,100.001,52.5z"/>
<g>
	<path style="fill:#FFB4A9;" d="M287.113,60c-1.92,0-3.839-0.732-5.304-2.197c-2.929-2.929-2.929-7.678,0.001-10.607l10.607-10.606
		c2.929-2.928,7.678-2.928,10.606,0c2.929,2.929,2.929,7.678-0.001,10.607l-10.607,10.606C290.952,59.268,289.032,60,287.113,60z"/>
	<path style="fill:#FFB4A9;" d="M256.001,47.113c-4.143,0-7.5-3.358-7.5-7.5v-15c0-4.142,3.357-7.5,7.5-7.5s7.5,3.358,7.5,7.5v15
		C263.501,43.755,260.144,47.113,256.001,47.113z"/>
	<path style="fill:#FFB4A9;" d="M224.889,60c-1.919,0-3.839-0.732-5.304-2.197l-10.606-10.606c-2.929-2.929-2.929-7.678,0-10.606
		c2.93-2.929,7.678-2.929,10.607,0l10.606,10.606c2.929,2.929,2.929,7.678,0,10.606C228.728,59.268,226.808,60,224.889,60z"/>
	<path style="fill:#FFB4A9;" d="M297.721,175.606c-1.919,0-3.839-0.732-5.303-2.196l-10.607-10.606
		c-2.93-2.929-2.93-7.678-0.001-10.607c2.93-2.929,7.679-2.929,10.606,0l10.607,10.606c2.93,2.929,2.93,7.678,0.001,10.607
		C301.56,174.874,299.64,175.606,297.721,175.606z"/>
	<path style="fill:#FFB4A9;" d="M256.001,192.887c-4.143,0-7.5-3.358-7.5-7.5v-15c0-4.142,3.357-7.5,7.5-7.5s7.5,3.358,7.5,7.5v15
		C263.501,189.529,260.144,192.887,256.001,192.887z"/>
	<path style="fill:#FFB4A9;" d="M214.282,175.606c-1.919,0-3.839-0.732-5.304-2.197c-2.929-2.929-2.929-7.678,0-10.606
		l10.606-10.606c2.93-2.929,7.678-2.929,10.607,0s2.929,7.678,0,10.606l-10.606,10.606
		C218.121,174.874,216.201,175.606,214.282,175.606z"/>
</g>
<path d="M472.001,185h-8.548c-2.378-8.375-8.63-15.132-16.691-18.204c10.869-9.626,17.739-23.67,17.739-39.296v-30
	c0-28.949-23.552-52.5-52.5-52.5s-52.5,23.551-52.5,52.5v30c0,15.626,6.87,29.67,17.739,39.296
	c-8.061,3.072-14.313,9.829-16.691,18.204h-8.548c-15.163,0-27.5,12.336-27.5,27.5s12.337,27.5,27.5,27.5h7.5v52.5
	c0,14.269,5.73,27.22,15,36.692v159.902l-24.872,8.291c-3.93,1.31-6.053,5.557-4.743,9.487c1.048,3.143,3.974,5.13,7.114,5.13
	c0.786,0,1.586-0.125,2.373-0.387l30-10c3.063-1.021,5.128-3.887,5.128-7.115V339.924c6.824,3.25,14.452,5.076,22.5,5.076
	s15.676-1.825,22.5-5.076v149.17l-24.872,8.291c-3.93,1.31-6.053,5.557-4.743,9.487c1.048,3.143,3.974,5.13,7.114,5.13
	c0.786,0,1.586-0.125,2.373-0.387l30-10c3.063-1.021,5.128-3.887,5.128-7.115V329.192c9.27-9.472,15-22.423,15-36.692V240h7.5
	c15.163,0,27.5-12.336,27.5-27.5S487.164,185,472.001,185z M412.001,60c20.678,0,37.5,16.822,37.5,37.5v2.5h-15.139
	c-5.652-6.325-13.746-10-22.361-10s-16.708,3.675-22.36,10h-15.14v-2.5C374.501,76.822,391.323,60,412.001,60z M374.501,127.5V115
	h18.792c2.503,0,4.84-1.248,6.232-3.328c2.797-4.178,7.461-6.672,12.476-6.672c5.016,0,9.68,2.494,12.477,6.672
	c1.393,2.08,3.729,3.328,6.232,3.328h18.791v12.5c0,20.678-16.822,37.5-37.5,37.5S374.501,148.178,374.501,127.5z M387.001,180h50
	c6.893,0,12.5,5.607,12.5,12.5V225h-75v-32.5C374.501,185.607,380.108,180,387.001,180z M352.001,225c-6.893,0-12.5-5.607-12.5-12.5
	s5.607-12.5,12.5-12.5h7.5v25H352.001z M375.256,300h73.491c-3.484,17.096-18.635,30-36.745,30S378.74,317.096,375.256,300z
	 M449.501,285h-75v-45h75V285z M472.001,225h-7.5v-25h7.5c6.893,0,12.5,5.607,12.5,12.5S478.894,225,472.001,225z"/>
<path d="M175.001,120h37.5v7.5c0,4.142,3.357,7.5,7.5,7.5h72c28.948,0,52.5-23.551,52.5-52.5c0-4.142-3.357-7.5-7.5-7.5h-162
	c-4.143,0-7.5,3.358-7.5,7.5v30C167.501,116.642,170.858,120,175.001,120z M227.501,90h101.247c-3.485,17.095-18.638,30-36.747,30
	h-64.5V90z M182.501,90h30v15h-30V90z"/>
<path d="M160.001,185h-8.548c-3.274-11.528-13.889-20-26.452-20h-50c-12.563,0-23.178,8.472-26.452,20h-8.548
	c-15.163,0-27.5,12.336-27.5,27.5s12.337,27.5,27.5,27.5h7.5v19.759c-9.693,11.989-15,26.935-15,42.406V352.5
	c0,4.142,3.357,7.5,7.5,7.5h22.5v134.5c0,3.228,2.065,6.094,5.128,7.115l30,10c0.787,0.262,1.587,0.387,2.373,0.387
	c3.141,0,6.066-1.988,7.114-5.13c1.31-3.93-0.814-8.177-4.743-9.487l-24.872-8.291V360h45v134.5c0,3.228,2.065,6.094,5.128,7.115
	l30,10c0.787,0.262,1.587,0.387,2.373,0.387c3.141,0,6.066-1.988,7.114-5.13c1.31-3.93-0.814-8.177-4.743-9.487l-24.872-8.291V360
	h7.5c4.143,0,7.5-3.358,7.5-7.5V240h7.5c15.163,0,27.5-12.336,27.5-27.5S175.164,185,160.001,185z M75.001,180h50
	c6.893,0,12.5,5.607,12.5,12.5V225h-75v-32.5C62.501,185.607,68.108,180,75.001,180z M40.001,225c-6.893,0-12.5-5.607-12.5-12.5
	s5.607-12.5,12.5-12.5h7.5v25H40.001z M47.501,345v-42.835c0-11.687,3.905-22.982,11.038-32.165h78.962v75H47.501z M137.501,255h-75
	v-15h75V255z M160.001,225h-7.5v-25h7.5c6.893,0,12.5,5.607,12.5,12.5S166.894,225,160.001,225z"/>
<path d="M100.001,150c28.948,0,52.5-23.551,52.5-52.5c0-12.812-4.619-24.561-12.271-33.685c-0.206-0.271-0.424-0.535-0.671-0.782
	c-4.78-5.463-10.623-9.916-17.222-13.032c4.762-5.312,7.665-12.323,7.665-20.001c0-16.542-13.458-30-30-30s-30,13.458-30,30
	c0,7.678,2.903,14.689,7.665,20.001c-6.599,3.116-12.442,7.569-17.192,13.004c-0.277,0.275-0.496,0.539-0.701,0.81
	C52.12,72.939,47.501,84.688,47.501,97.5C47.501,126.449,71.053,150,100.001,150z M100.001,135c-20.678,0-37.5-16.822-37.5-37.5
	c0-6.567,1.702-12.742,4.68-18.116c9.751,7.072,21.284,10.615,32.82,10.615s23.069-3.542,32.82-10.615
	c2.978,5.374,4.68,11.549,4.68,18.116C137.501,118.178,120.679,135,100.001,135z M76.979,67.931C83.339,62.968,91.327,60,100.001,60
	s16.662,2.968,23.022,7.931C109.185,77.351,90.817,77.351,76.979,67.931z M85.001,30c0-8.271,6.729-15,15-15s15,6.729,15,15
	s-6.729,15-15,15S85.001,38.271,85.001,30z"/>
<g>
</g>
<g>
</g>
<g>
</g>
<g>
</g>
<g>
</g>
<g>
</g>
<g>
</g>
<g>
</g>
<g>
</g>
<g>
</g>
<g>
</g>
<g>
</g>
<g>
</g>
<g>
</g>
<g>
</g>
</svg>
