<?xml version="1.0" encoding="iso-8859-1"?>
<!-- Generator: Adobe Illustrator 19.0.0, SVG Export Plug-In . SVG Version: 6.00 Build 0)  -->
<svg version="1.1" id="Capa_1" xmlns="http://www.w3.org/2000/svg" xmlns:xlink="http://www.w3.org/1999/xlink" x="0px" y="0px"
	 viewBox="0 0 512.002 512.002" style="enable-background:new 0 0 512.002 512.002;" xml:space="preserve">
<path style="fill:#FF4128;" d="M319.2,77.426l-23.829-56.01l-17.739,7.512L256.156,7.5l-21.477,21.428l-17.739-7.512l-23.829,56.01
	c-10.589,24.889-5.732,54.763,14.608,75.056c26.751,26.69,70.123,26.69,96.874,0C324.932,132.189,329.789,102.315,319.2,77.426z"/>
<path style="fill:#2DADE3;" d="M281.001,172.5h-30v120h50v-100C301.001,181.454,292.047,172.5,281.001,172.5z"/>
<path style="fill:#49C9FF;" d="M251.001,172.5h-20c-11.046,0-20,8.954-20,20v100h60v-100
	C271.001,181.454,262.047,172.5,251.001,172.5z"/>
<path style="fill:#FF4128;" d="M314.971,291.04c-2.15-10.8-6.97-20.61-13.97-28.54h-30l26.93,90h30
	C327.931,352.5,318.041,306.44,314.971,291.04z"/>
<path style="fill:#FF6337;" d="M297.931,352.5h-113.86c0,0,9.89-46.06,12.96-61.46c2.15-10.8,6.97-20.61,13.97-28.54h60
	c7,7.93,11.82,17.74,13.97,28.54C288.041,306.44,297.931,352.5,297.931,352.5z"/>
<path style="fill:#FFCB63;" d="M283.403,77.065l-27.248-27.186V142.5c10.296,0,19.973-3.998,27.247-11.255
	c7.257-7.24,11.253-16.86,11.253-27.09S290.66,84.304,283.403,77.065z"/>
<path style="fill:#FFF0D3;" d="M262.172,131.245c1.602-7.24,2.484-16.86,2.484-27.09s-0.882-19.851-2.484-27.09l-6.016-27.186
	l-27.248,27.185c-7.257,7.24-11.253,16.861-11.253,27.091s3.996,19.85,11.253,27.09c7.274,7.258,16.951,11.255,27.248,11.255
	C258.429,142.5,260.566,138.503,262.172,131.245z"/>
<path d="M307.516,185.223c-1.86-6.769-6.244-12.5-12.077-16.114c5.193-3.141,10.046-6.923,14.451-11.317
	c22.026-21.978,28.39-54.675,16.211-83.301l-23.829-56.01c-1.62-3.808-6.018-5.583-9.826-3.97l-13.09,5.544L261.452,2.191
	c-2.928-2.922-7.667-2.921-10.595,0l-17.902,17.863l-13.09-5.544c-3.812-1.614-8.207,0.163-9.826,3.97L186.21,74.49
	c-12.179,28.626-5.815,61.324,16.212,83.301c4.36,4.35,9.161,8.097,14.294,11.219c-5.91,3.608-10.354,9.384-12.23,16.213
	c-50.735,3.364-90.985,45.705-90.985,97.277c0,4.142,3.357,7.5,7.5,7.5s7.5-3.358,7.5-7.5c0-42.961,33.013-78.34,75-82.144v59.406
	c-6.861,8.511-11.62,18.756-13.823,29.809c-3.024,15.17-12.839,60.894-12.938,61.354c-0.476,2.215,0.075,4.526,1.5,6.288
	c1.424,1.762,3.567,2.786,5.833,2.786h2.678l-27.199,128.744l-25.923,8.641c-3.929,1.31-6.053,5.557-4.743,9.487
	c1.048,3.143,3.974,5.13,7.114,5.13c0.786,0,1.586-0.125,2.373-0.387l30-10c2.525-0.842,4.416-2.96,4.966-5.565L202.082,360H309.92
	l28.743,136.05c0.55,2.605,2.44,4.723,4.966,5.565l30,10c0.787,0.262,1.587,0.387,2.373,0.387c3.141,0,6.066-1.988,7.114-5.13
	c1.31-3.93-0.814-8.177-4.743-9.487l-25.923-8.641L325.251,360h2.678c2.266,0,4.409-1.024,5.833-2.786
	c1.425-1.762,1.976-4.073,1.5-6.288c-0.099-0.46-9.913-46.184-12.938-61.354c-2.203-11.053-6.962-21.298-13.823-29.809v-59.406
	c41.987,3.804,75,39.182,75,82.144c0,4.142,3.357,7.5,7.5,7.5s7.5-3.358,7.5-7.5C398.501,230.928,358.251,188.587,307.516,185.223z
	 M200.013,80.362l20.897-49.12l10.844,4.593c2.81,1.19,6.062,0.559,8.222-1.597l16.18-16.143l16.181,16.144
	c2.16,2.154,5.412,2.787,8.222,1.597l10.844-4.593l20.897,49.12c9.768,22.958,4.663,49.184-13.003,66.811
	c-11.518,11.491-26.83,17.821-43.12,17.827c-16.331-0.006-31.643-6.336-43.161-17.827
	C195.35,129.546,190.245,103.321,200.013,80.362z M256.156,180.001c0.02,0,24.845,0,24.845,0c6.893,0,12.5,5.607,12.5,12.5V255h-75
	v-62.5c0-6.893,5.607-12.5,12.5-12.5C231.001,180,256.136,180,256.156,180.001z M318.653,345h-2.662c-0.017,0-0.035,0-0.052,0
	H196.083c-0.031,0-0.063,0-0.094,0h-2.64c3.048-14.258,8.83-41.415,11.04-52.496c1.659-8.325,5.149-16.037,10.147-22.504h82.93
	c4.998,6.467,8.488,14.179,10.147,22.504C309.823,303.586,315.606,330.743,318.653,345z"/>
<path d="M244.068,132.575c-3.684-1.552-7.002-3.786-9.863-6.64c-5.836-5.822-9.05-13.557-9.05-21.78s3.214-15.958,9.05-21.782
	l21.95-21.9l21.951,21.901c5.836,5.822,9.05,13.558,9.05,21.781s-3.214,15.958-9.051,21.781c-2.859,2.854-6.178,5.087-9.861,6.639
	c-3.816,1.608-5.607,6.006-4,9.823c1.608,3.817,6.005,5.608,9.824,4c5.474-2.306,10.397-5.618,14.632-9.844
	c8.678-8.657,13.456-20.163,13.456-32.399c0-12.237-4.778-23.743-13.456-32.4l-27.248-27.186c-2.928-2.921-7.668-2.92-10.594,0
	l-27.247,27.185c-8.678,8.657-13.456,20.164-13.456,32.4s4.778,23.743,13.456,32.4c4.237,4.227,9.16,7.539,14.633,9.844
	c0.951,0.401,1.938,0.59,2.909,0.59c2.927,0,5.707-1.724,6.915-4.59C249.676,138.581,247.885,134.183,244.068,132.575z"/>
<g>
</g>
<g>
</g>
<g>
</g>
<g>
</g>
<g>
</g>
<g>
</g>
<g>
</g>
<g>
</g>
<g>
</g>
<g>
</g>
<g>
</g>
<g>
</g>
<g>
</g>
<g>
</g>
<g>
</g>
</svg>
