<?xml version="1.0" encoding="iso-8859-1"?>
<!-- Generator: Adobe Illustrator 19.0.0, SVG Export Plug-In . SVG Version: 6.00 Build 0)  -->
<svg version="1.1" id="Capa_1" xmlns="http://www.w3.org/2000/svg" xmlns:xlink="http://www.w3.org/1999/xlink" x="0px" y="0px"
	 viewBox="0 0 512.002 512.002" style="enable-background:new 0 0 512.002 512.002;" xml:space="preserve">
<path style="fill:#2DADE3;" d="M281.001,172.5h-30v120h50v-100C301.001,181.454,292.047,172.5,281.001,172.5z"/>
<path style="fill:#49C9FF;" d="M251.001,172.5h-20c-11.046,0-20,8.954-20,20v100h60v-100
	C271.001,181.454,262.047,172.5,251.001,172.5z"/>
<path style="fill:#FF4128;" d="M301.001,262.5h-30l15,90h30v-50.335C316.001,286.954,310.33,273.075,301.001,262.5z"/>
<path style="fill:#FF6337;" d="M271.001,262.5h-60c-9.329,10.575-15,24.454-15,39.665V352.5h90v-50.335
	C286.001,286.954,280.33,273.075,271.001,262.5z"/>
<circle style="fill:#60312C;" cx="256" cy="30" r="22.5"/>
<path style="fill:#A45E43;" d="M290.256,68.335c0.01-0.01-34.255-0.005-34.255-0.005v74.17c24.85,0,45-20.15,45-45
	C301.001,86.38,296.956,76.185,290.256,68.335z"/>
<path style="fill:#C27749;" d="M269.891,80.51l-48.145-12.175c-6.7,7.85-10.745,18.045-10.745,29.165c0,24.85,20.15,45,45,45
	c8.28,0,15-20.15,15-45C271.001,91.49,270.611,85.75,269.891,80.51z"/>
<path style="fill:#40211D;" d="M256.001,52.5l13.89,28.01c7.45-2.23,14.475-6.295,20.365-12.175
	C282.006,58.645,269.721,52.5,256.001,52.5z"/>
<path style="fill:#60312C;" d="M256.001,52.5c-13.72,0-26.005,6.145-34.255,15.835c13.04,13.04,31.645,17.105,48.145,12.175
	C267.661,64.08,262.281,52.5,256.001,52.5z"/>
<rect x="329.49" y="82.5" style="fill:#FFF0D3;" width="61.51" height="30"/>
<path style="fill:#FFE2A8;" d="M422.001,74.5c0-12.703-10.297-23-23-23s-23,10.297-23,23v46c0,12.702,10.297,23,23,23
	s23-10.298,23-23c12.703,0,23-10.297,23-23S434.704,74.5,422.001,74.5z"/>
<rect x="121" y="82.5" style="fill:#FFF0D3;" width="61.51" height="30"/>
<path style="fill:#FFE2A8;" d="M90.001,74.5c0-12.703,10.297-23,23-23s23,10.297,23,23v46c0,12.702-10.297,23-23,23
	s-23-10.298-23-23c-12.703,0-23-10.297-23-23S77.298,74.5,90.001,74.5z"/>
<path d="M307.516,185.223C304.317,173.581,293.645,165,281.001,165h-50c-12.644,0-23.316,8.581-26.515,20.223
	c-50.735,3.364-90.985,45.705-90.985,97.277c0,4.142,3.358,7.5,7.5,7.5s7.5-3.358,7.5-7.5c0-42.961,33.013-78.34,75-82.144v59.402
	c-9.693,11.989-15,26.935-15,42.406V352.5c0,4.142,3.358,7.5,7.5,7.5h7.5v129.094l-24.872,8.291c-3.93,1.31-6.053,5.557-4.744,9.487
	c1.048,3.143,3.974,5.13,7.114,5.13c0.786,0,1.586-0.125,2.373-0.387l30-10c3.063-1.021,5.128-3.887,5.128-7.115V360h75v134.5
	c0,3.228,2.065,6.094,5.128,7.115l30,10c0.787,0.262,1.587,0.387,2.373,0.387c3.141,0,6.066-1.988,7.114-5.13
	c1.31-3.93-0.814-8.177-4.743-9.487l-24.872-8.291V360h7.5c4.143,0,7.5-3.358,7.5-7.5v-50.335c0-15.471-5.307-30.417-15-42.406
	v-59.402c41.987,3.804,75,39.182,75,82.144c0,4.142,3.357,7.5,7.5,7.5s7.5-3.358,7.5-7.5
	C398.501,230.928,358.251,188.587,307.516,185.223z M231.001,180h50c6.893,0,12.5,5.607,12.5,12.5V255h-75v-62.5
	C218.501,185.607,224.108,180,231.001,180z M308.501,345h-105v-42.835c0-11.687,3.905-22.982,11.039-32.165h82.923
	c7.133,9.183,11.038,20.478,11.038,32.165V345z"/>
<path d="M256.001,150c28.948,0,52.5-23.551,52.5-52.5c0-12.812-4.619-24.561-12.271-33.685c-0.206-0.271-0.424-0.535-0.671-0.782
	c-4.78-5.463-10.623-9.916-17.222-13.032c4.762-5.312,7.665-12.323,7.665-20.001c0-16.542-13.458-30-30-30s-30,13.458-30,30
	c0,7.678,2.903,14.689,7.665,20.001c-6.6,3.116-12.444,7.57-17.194,13.007c-0.273,0.271-0.491,0.533-0.695,0.802
	c-7.654,9.124-12.275,20.875-12.275,33.689C203.501,126.449,227.052,150,256.001,150z M256.001,135c-20.678,0-37.5-16.822-37.5-37.5
	c0-6.565,1.701-12.739,4.677-18.112c9.49,6.91,20.87,10.648,32.823,10.648s23.332-3.739,32.823-10.648
	c2.977,5.373,4.677,11.546,4.677,18.112C293.501,118.178,276.679,135,256.001,135z M232.969,67.939
	C239.33,62.971,247.323,60,256.001,60s16.671,2.971,23.032,7.939c-6.742,4.611-14.697,7.098-23.032,7.098
	C247.666,75.037,239.711,72.55,232.969,67.939z M241.001,30c0-8.271,6.729-15,15-15s15,6.729,15,15s-6.729,15-15,15
	C247.73,45,241.001,38.271,241.001,30z"/>
<path d="M428.749,67.752C425.67,54.17,413.501,44,399.001,44c-16.817,0-30.5,13.682-30.5,30.5V75h-39.008
	c-4.143,0-7.5,3.358-7.5,7.5s3.357,7.5,7.5,7.5h46.508c4.143,0,7.5-3.358,7.5-7.5v-8c0-8.547,6.953-15.5,15.5-15.5
	s15.5,6.953,15.5,15.5c0,4.142,3.357,7.5,7.5,7.5c8.547,0,15.5,6.953,15.5,15.5s-6.953,15.5-15.5,15.5c-4.143,0-7.5,3.358-7.5,7.5
	c0,8.547-6.953,15.5-15.5,15.5s-15.5-6.953-15.5-15.5v-8c0-4.142-3.357-7.5-7.5-7.5h-46.508c-4.143,0-7.5,3.358-7.5,7.5
	s3.357,7.5,7.5,7.5h39.008v0.5c0,16.818,13.683,30.5,30.5,30.5c14.5,0,26.669-10.17,29.748-23.752
	c13.582-3.079,23.752-15.248,23.752-29.748S442.331,70.831,428.749,67.752z"/>
<path d="M143.501,120.5V120h39.008c4.142,0,7.5-3.358,7.5-7.5s-3.358-7.5-7.5-7.5h-46.508c-4.142,0-7.5,3.358-7.5,7.5v8
	c0,8.547-6.953,15.5-15.5,15.5s-15.5-6.953-15.5-15.5c0-4.142-3.358-7.5-7.5-7.5c-8.547,0-15.5-6.953-15.5-15.5S81.454,82,90.001,82
	c4.142,0,7.5-3.358,7.5-7.5c0-8.547,6.953-15.5,15.5-15.5s15.5,6.953,15.5,15.5v8c0,4.142,3.358,7.5,7.5,7.5h46.508
	c4.142,0,7.5-3.358,7.5-7.5s-3.358-7.5-7.5-7.5h-39.008v-0.5c0-16.818-13.682-30.5-30.5-30.5c-14.5,0-26.669,10.17-29.748,23.752
	C69.671,70.831,59.501,83,59.501,97.5s10.17,26.669,23.752,29.748C86.332,140.83,98.501,151,113.001,151
	C129.819,151,143.501,137.318,143.501,120.5z"/>
<g>
</g>
<g>
</g>
<g>
</g>
<g>
</g>
<g>
</g>
<g>
</g>
<g>
</g>
<g>
</g>
<g>
</g>
<g>
</g>
<g>
</g>
<g>
</g>
<g>
</g>
<g>
</g>
<g>
</g>
</svg>
