<?xml version="1.0" encoding="iso-8859-1"?>
<!-- Generator: Adobe Illustrator 19.0.0, SVG Export Plug-In . SVG Version: 6.00 Build 0)  -->
<svg version="1.1" id="Capa_1" xmlns="http://www.w3.org/2000/svg" xmlns:xlink="http://www.w3.org/1999/xlink" x="0px" y="0px"
	 viewBox="0 0 512 512" style="enable-background:new 0 0 512 512;" xml:space="preserve">
<path style="fill:#2DADE3;" d="M186,172.499h-30v119.999h50v-99.999C206,181.454,197.046,172.499,186,172.499z"/>
<path style="fill:#49C9FF;" d="M156,172.499h-20c-11.046,0-20,8.954-20,20v70l60,30v-99.999
	C176,181.454,167.046,172.499,156,172.499z"/>
<path style="fill:#FF4128;" d="M206,262.499h-30l15,89.999h30v-50.335C221,286.954,215.329,273.075,206,262.499z"/>
<path style="fill:#FF6337;" d="M176,262.499h-60v89.999h75v-50.335C191,286.954,185.329,273.075,176,262.499z"/>
<circle style="fill:#60312C;" cx="160.999" cy="30" r="22.5"/>
<path style="fill:#A45E43;" d="M195.255,68.335C195.265,68.325,161,68.33,161,68.33v74.17c24.85,0,45-20.15,45-45
	C206,86.38,201.955,76.185,195.255,68.335z"/>
<path style="fill:#C27749;" d="M174.89,80.51l-48.145-12.175C120.045,76.185,116,86.38,116,97.5c0,24.85,20.15,45,45,45
	c8.28,0,15-20.15,15-45C176,91.49,175.61,85.75,174.89,80.51z"/>
<path style="fill:#40211D;" d="M161,52.5l13.89,28.01c7.45-2.23,14.475-6.295,20.365-12.175C187.005,58.645,174.72,52.5,161,52.5z"
	/>
<path style="fill:#60312C;" d="M161,52.5c-13.72,0-26.005,6.145-34.255,15.835c13.04,13.04,31.645,17.105,48.145,12.175
	C172.66,64.08,167.28,52.5,161,52.5z"/>
<path style="fill:#2DADE3;" d="M350.999,262.499v75c24.853,0,45-20.147,45-45L350.999,262.499z"/>
<path style="fill:#49C9FF;" d="M365.999,292.499l-15-30l-45,30c0,24.853,20.147,45,45,45
	C359.284,337.498,365.999,317.352,365.999,292.499z"/>
<path style="fill:#9DB55F;" d="M375.999,172.499h-30l20,119.999h30v-99.999C395.999,181.454,387.045,172.499,375.999,172.499z"/>
<path style="fill:#B9D171;" d="M345.999,172.499h-20c-11.046,0-20,8.954-20,20v99.999h60v-99.999
	C365.999,181.454,357.045,172.499,345.999,172.499z"/>
<path style="fill:#FFB4A9;" d="M350.999,52.5v100.999l45-46v-10C395.999,72.647,375.852,52.5,350.999,52.5z"/>
<path style="fill:#FFD9D4;" d="M350.999,52.5c-24.853,0-45,20.147-45,45v10l60,46v-56C365.999,72.647,359.284,52.5,350.999,52.5z"/>
<path style="fill:#FF6337;" d="M369.708,107.5c-1.053-1.573-2.303-3.002-3.709-4.261l-15,69.261c24.853,0,45-20.147,45-45v-20
	H369.708z"/>
<path style="fill:#FF8646;" d="M365.999,127.5v-24.26c-3.981-3.566-9.235-5.739-15-5.739c-7.801,0-14.672,3.971-18.709,10h-26.291
	v20c0,24.853,20.147,45,45,45C359.284,172.499,365.999,152.352,365.999,127.5z"/>
<circle cx="85.02" cy="124.64" r="7.5"/>
<circle cx="426.978" cy="124.64" r="7.5"/>
<path d="M221,184.999h-8.548c-3.274-11.528-13.889-20-26.452-20h-50c-12.563,0-23.178,8.472-26.452,20H101
	c-15.164,0-27.5,12.336-27.5,27.5s12.336,27.5,27.5,27.5h7.5v112.499c0,4.142,3.358,7.5,7.5,7.5h7.5v129.093l-24.872,8.291
	c-3.93,1.31-6.053,5.557-4.744,9.487c1.048,3.143,3.974,5.13,7.114,5.13c0.786,0,1.586-0.125,2.373-0.387l30-10
	c3.063-1.021,5.128-3.887,5.128-7.115V359.998h45v129.093l-24.872,8.291c-3.93,1.31-6.053,5.557-4.744,9.487
	c1.048,3.143,3.974,5.13,7.114,5.13c0.786,0,1.586-0.125,2.373-0.387l30-10c3.063-1.021,5.128-3.887,5.128-7.115V359.998h22.5
	c4.142,0,7.5-3.358,7.5-7.5v-50.335c0-15.471-5.307-30.417-15-42.406v-19.759h7.5c15.164,0,27.5-12.336,27.5-27.5
	S236.164,184.999,221,184.999z M136,179.999h50c6.893,0,12.5,5.607,12.5,12.5v32.5h-75v-32.5
	C123.5,185.607,129.108,179.999,136,179.999z M101,224.999c-6.893,0-12.5-5.607-12.5-12.5c0-6.893,5.607-12.5,12.5-12.5h7.5v25H101z
	 M213.5,344.998H123.5v-75h78.961c7.133,9.184,11.039,20.479,11.039,32.165V344.998z M198.5,254.999h-75v-15h75V254.999z
	 M221,224.999h-7.5v-25h7.5c6.893,0,12.5,5.607,12.5,12.5C233.5,219.392,227.893,224.999,221,224.999z"/>
<path d="M161,149.999c28.949,0,52.5-23.551,52.5-52.5c0-12.814-4.621-24.565-12.275-33.689c-0.205-0.269-0.422-0.532-0.668-0.778
	c-4.777-5.462-10.622-9.916-17.222-13.032C188.097,44.689,191,37.678,191,30c0-16.542-13.458-30-30-30s-30,13.458-30,30
	c0,7.678,2.903,14.689,7.665,20.001c-6.6,3.116-12.444,7.57-17.194,13.007c-0.273,0.271-0.491,0.533-0.695,0.802
	c-7.654,9.124-12.275,20.875-12.275,33.689C108.5,126.449,132.052,149.999,161,149.999z M161,135c-20.678,0-37.5-16.822-37.5-37.5
	c0-6.565,1.701-12.739,4.678-18.112c9.49,6.91,20.869,10.648,32.822,10.648c11.953,0,23.332-3.739,32.822-10.648
	c2.977,5.373,4.678,11.546,4.678,18.112C198.5,118.178,181.678,135,161,135z M137.968,67.939C144.33,62.972,152.322,60,161,60
	c8.678,0,16.671,2.971,23.032,7.939c-6.742,4.611-14.697,7.098-23.032,7.098C152.665,75.037,144.71,72.55,137.968,67.939z M146,30
	c0-8.271,6.729-15,15-15s15,6.729,15,15s-6.729,15-15,15S146,38.271,146,30z"/>
<path d="M410.999,184.999h-8.548c-2.378-8.375-8.629-15.132-16.691-18.204c10.869-9.626,17.739-23.67,17.739-39.296v-30
	c0-28.949-23.551-52.5-52.5-52.5c-28.949,0-52.5,23.551-52.5,52.5v30c0,15.626,6.87,29.67,17.739,39.296
	c-8.061,3.072-14.313,9.829-16.691,18.204h-8.548c-15.164,0-27.5,12.336-27.5,27.5s12.336,27.5,27.5,27.5h7.5v52.5
	c0,14.269,5.73,27.22,15,36.692v165.307c0,3.228,2.066,6.094,5.128,7.115l30,10c0.787,0.262,1.586,0.387,2.373,0.387
	c3.14,0,6.066-1.988,7.114-5.13c1.31-3.93-0.814-8.177-4.744-9.487l-24.872-8.291V339.922c6.824,3.25,14.452,5.076,22.5,5.076
	c8.048,0,15.676-1.825,22.5-5.076v154.575c0,3.228,2.066,6.094,5.128,7.115l30,10c0.787,0.262,1.586,0.387,2.373,0.387
	c3.14,0,6.066-1.988,7.114-5.13c1.31-3.93-0.814-8.177-4.744-9.487l-24.872-8.291v-159.9c9.27-9.472,15-22.423,15-36.692v-52.501
	h7.5c15.164,0,27.5-12.336,27.5-27.5S426.163,184.999,410.999,184.999z M350.999,60c20.678,0,37.5,16.822,37.5,37.5v2.5H373.36
	c-5.652-6.325-13.746-10-22.361-10s-16.708,3.675-22.361,10h-15.139v-2.5C313.499,76.823,330.322,60,350.999,60z M313.499,127.5V115
	h18.792c2.502,0,4.84-1.248,6.232-3.328c2.797-4.178,7.461-6.672,12.476-6.672s9.679,2.494,12.476,6.672
	c1.392,2.08,3.73,3.328,6.232,3.328h18.792v12.5c0,20.678-16.822,37.5-37.5,37.5S313.499,148.177,313.499,127.5z M325.999,179.999
	h50c6.893,0,12.5,5.607,12.5,12.5v32.5h-75v-32.5C313.499,185.607,319.107,179.999,325.999,179.999z M290.999,224.999
	c-6.893,0-12.5-5.607-12.5-12.5c0-6.893,5.607-12.5,12.5-12.5h7.5v25H290.999z M314.254,299.999h73.491
	c-3.484,17.096-18.635,30-36.745,30C332.89,329.998,317.738,317.095,314.254,299.999z M388.499,284.999h-75v-45h75V284.999z
	 M410.999,224.999h-7.5v-25h7.5c6.893,0,12.5,5.607,12.5,12.5C423.499,219.392,417.892,224.999,410.999,224.999z"/>
<path d="M60.996,80.182c-2.071-3.587-6.658-4.816-10.245-2.745l-12.25,7.073V70.365c0-4.142-3.358-7.5-7.5-7.5s-7.5,3.358-7.5,7.5
	V84.51l-12.25-7.073c-3.587-2.072-8.174-0.843-10.245,2.745c-2.071,3.587-0.842,8.174,2.745,10.245l12.25,7.073l-12.25,7.073
	c-3.587,2.071-4.816,6.658-2.745,10.245c1.389,2.406,3.91,3.751,6.502,3.751c1.272,0,2.562-0.324,3.743-1.006l12.25-7.073v14.145
	c0,4.142,3.358,7.5,7.5,7.5s7.5-3.358,7.5-7.5V110.49l12.25,7.073c1.181,0.682,2.471,1.006,3.743,1.006
	c2.592,0,5.113-1.345,6.502-3.751c2.071-3.587,0.842-8.174-2.745-10.245L46.001,97.5l12.25-7.073
	C61.839,88.357,63.068,83.769,60.996,80.182z"/>
<path d="M85.02,107.865c4.142,0,7.5-3.358,7.5-7.5v-30c0-4.142-3.358-7.5-7.5-7.5s-7.5,3.358-7.5,7.5v30
	C77.52,104.507,80.878,107.865,85.02,107.865z"/>
<path d="M508.248,104.573l-12.25-7.073l12.25-7.073c3.587-2.071,4.816-6.658,2.745-10.245c-2.071-3.587-6.659-4.816-10.245-2.745
	l-12.25,7.073V70.365c0-4.142-3.358-7.5-7.5-7.5s-7.5,3.358-7.5,7.5V84.51l-12.25-7.073c-3.588-2.072-8.174-0.843-10.245,2.745
	c-2.071,3.587-0.842,8.174,2.745,10.245l12.25,7.073l-12.25,7.073c-3.587,2.071-4.816,6.658-2.745,10.245
	c1.389,2.406,3.91,3.751,6.502,3.751c1.272,0,2.562-0.324,3.743-1.006l12.25-7.073v14.145c0,4.142,3.358,7.5,7.5,7.5
	s7.5-3.358,7.5-7.5V110.49l12.25,7.073c1.181,0.682,2.471,1.006,3.743,1.006c2.592,0,5.113-1.345,6.502-3.751
	C513.065,111.231,511.836,106.644,508.248,104.573z"/>
<path d="M426.98,107.865c4.142,0,7.5-3.358,7.5-7.5v-30c0-4.142-3.358-7.5-7.5-7.5c-4.142,0-7.5,3.358-7.5,7.5v30
	C419.48,104.507,422.838,107.865,426.98,107.865z"/>
<g>
</g>
<g>
</g>
<g>
</g>
<g>
</g>
<g>
</g>
<g>
</g>
<g>
</g>
<g>
</g>
<g>
</g>
<g>
</g>
<g>
</g>
<g>
</g>
<g>
</g>
<g>
</g>
<g>
</g>
</svg>
