<?xml version="1.0" encoding="iso-8859-1"?>
<!-- Generator: Adobe Illustrator 19.0.0, SVG Export Plug-In . SVG Version: 6.00 Build 0)  -->
<svg version="1.1" id="Capa_1" xmlns="http://www.w3.org/2000/svg" xmlns:xlink="http://www.w3.org/1999/xlink" x="0px" y="0px"
	 viewBox="0 0 512.002 512.002" style="enable-background:new 0 0 512.002 512.002;" xml:space="preserve">
<path style="fill:#FFB4A9;" d="M348.241,52.5v101l45-46v-10C393.241,72.647,373.094,52.5,348.241,52.5z"/>
<path style="fill:#FFD9D4;" d="M348.241,52.5c-24.853,0-45,20.147-45,45v10l60,46v-56C363.241,72.647,356.526,52.5,348.241,52.5z"/>
<path style="fill:#FF6337;" d="M366.95,107.5c-1.053-1.573-2.303-3.002-3.709-4.261l-15,69.261c24.853,0,45-20.147,45-45v-20H366.95
	z"/>
<path style="fill:#FF8646;" d="M363.241,127.5v-24.261c-3.981-3.566-9.235-5.739-15-5.739c-7.801,0-14.672,3.971-18.709,10h-26.291
	v20c0,24.853,20.147,45,45,45C356.526,172.5,363.241,152.353,363.241,127.5z"/>
<path style="fill:#2DADE3;" d="M348.241,262.5v75c24.853,0,45-20.147,45-45L348.241,262.5z"/>
<path style="fill:#49C9FF;" d="M363.241,292.5l-15-30l-45,30c0,24.853,20.147,45,45,45C356.526,337.5,363.241,317.353,363.241,292.5
	z"/>
<path style="fill:#9DB55F;" d="M373.241,172.5h-30l20,120h30v-100C393.241,181.454,384.287,172.5,373.241,172.5z"/>
<path style="fill:#B9D171;" d="M343.241,172.5h-20c-11.046,0-20,8.954-20,20v100h60v-100
	C363.241,181.454,354.287,172.5,343.241,172.5z"/>
<circle style="fill:#60312C;" cx="108.76" cy="30" r="22.5"/>
<path style="fill:#A45E43;" d="M143.016,68.335c0.01-0.01-34.255-0.005-34.255-0.005v74.17c24.85,0,45-20.15,45-45
	C153.761,86.38,149.716,76.185,143.016,68.335z"/>
<path style="fill:#C27749;" d="M122.651,80.51L74.506,68.335c-6.7,7.85-10.745,18.045-10.745,29.165c0,24.85,20.15,45,45,45
	c8.28,0,15-20.15,15-45C123.761,91.49,123.371,85.75,122.651,80.51z"/>
<path style="fill:#40211D;" d="M108.761,52.5l13.89,28.01c7.45-2.23,14.475-6.295,20.365-12.175
	C134.766,58.645,122.481,52.5,108.761,52.5z"/>
<path style="fill:#60312C;" d="M108.761,52.5c-13.72,0-26.005,6.145-34.255,15.835c13.04,13.04,31.645,17.105,48.145,12.175
	C120.421,64.08,115.041,52.5,108.761,52.5z"/>
<path style="fill:#2DADE3;" d="M133.761,172.5h-30v120h50v-100C153.761,181.454,144.806,172.5,133.761,172.5z"/>
<path style="fill:#49C9FF;" d="M103.761,172.5h-20c-11.046,0-20,8.954-20,20v100h60v-100
	C123.761,181.454,114.806,172.5,103.761,172.5z"/>
<path style="fill:#FF4128;" d="M153.761,262.5h-30l15,90h30v-50.335C168.761,286.954,163.09,273.075,153.761,262.5z"/>
<path style="fill:#FF6337;" d="M123.761,262.5h-60c-9.329,10.575-15,24.454-15,39.665V352.5h90v-50.335
	C138.761,286.954,133.09,273.075,123.761,262.5z"/>
<circle cx="267.26" cy="61.771" r="7.5"/>
<path d="M490.741,102.5c0-4.142-3.358-7.5-7.5-7.5s-7.5,3.358-7.5,7.5c0,43.344-33.605,78.961-76.125,82.229
	c-2.435-8.25-8.639-14.895-16.614-17.933c10.869-9.626,17.739-23.67,17.739-39.296v-30c0-28.949-23.551-52.5-52.5-52.5
	s-52.5,23.551-52.5,52.5v30c0,15.626,6.87,29.67,17.739,39.296c-7.974,3.039-14.179,9.684-16.614,17.933
	c-42.52-3.268-76.125-38.886-76.125-82.229c0-4.142-3.358-7.5-7.5-7.5s-7.5,3.358-7.5,7.5c0,51.239,39.729,93.372,90,97.214V292.5
	c0,14.269,5.73,27.22,15,36.692v159.902l-24.872,8.291c-3.93,1.31-6.053,5.557-4.744,9.487c1.048,3.143,3.974,5.13,7.114,5.13
	c0.786,0,1.586-0.125,2.373-0.387l30-10c3.063-1.021,5.128-3.887,5.128-7.115V339.924c6.824,3.25,14.452,5.076,22.5,5.076
	s15.676-1.825,22.5-5.076v149.17l-24.872,8.291c-3.93,1.31-6.053,5.557-4.744,9.487c1.048,3.143,3.974,5.13,7.114,5.13
	c0.786,0,1.586-0.125,2.373-0.387l30-10c3.063-1.021,5.128-3.887,5.128-7.115V329.192c9.27-9.472,15-22.423,15-36.692v-92.786
	C451.012,195.872,490.741,153.739,490.741,102.5z M348.241,60c20.678,0,37.5,16.822,37.5,37.5v2.5h-15.139
	c-5.653-6.325-13.747-10-22.361-10s-16.708,3.675-22.361,10h-15.139v-2.5C310.741,76.822,327.563,60,348.241,60z M310.741,127.5V115
	h18.792c2.502,0,4.84-1.248,6.232-3.328c2.797-4.178,7.461-6.672,12.476-6.672s9.68,2.494,12.477,6.672
	c1.393,2.08,3.73,3.328,6.232,3.328h18.791v12.5c0,20.678-16.822,37.5-37.5,37.5S310.741,148.178,310.741,127.5z M323.241,180h50
	c6.893,0,12.5,5.607,12.5,12.5V285h-75v-92.5C310.741,185.607,316.349,180,323.241,180z M311.496,300h73.491
	c-3.484,17.096-18.635,30-36.745,30S314.98,317.096,311.496,300z"/>
<path d="M108.761,150c28.949,0,52.5-23.551,52.5-52.5c0-12.814-4.621-24.565-12.275-33.689c-0.205-0.269-0.422-0.532-0.668-0.778
	c-4.777-5.462-10.622-9.916-17.222-13.032c4.762-5.312,7.665-12.323,7.665-20.001c0-16.542-13.458-30-30-30s-30,13.458-30,30
	c0,7.678,2.903,14.689,7.665,20.001c-6.6,3.116-12.444,7.57-17.194,13.007c-0.273,0.271-0.491,0.533-0.695,0.802
	c-7.656,9.125-12.276,20.876-12.276,33.69C56.261,126.449,79.812,150,108.761,150z M108.761,135c-20.678,0-37.5-16.822-37.5-37.5
	c0-6.565,1.701-12.739,4.678-18.112c9.49,6.91,20.869,10.648,32.822,10.648s23.332-3.739,32.822-10.649
	c2.977,5.373,4.678,11.547,4.678,18.112C146.261,118.178,129.438,135,108.761,135z M85.728,67.939
	C92.09,62.971,100.082,60,108.761,60s16.671,2.971,23.032,7.939c-6.742,4.611-14.697,7.098-23.032,7.098
	C100.425,75.037,92.471,72.55,85.728,67.939z M93.761,30c0-8.271,6.729-15,15-15s15,6.729,15,15s-6.729,15-15,15
	S93.761,38.271,93.761,30z"/>
<path d="M168.761,185h-8.548c-3.274-11.528-13.889-20-26.452-20h-50c-12.563,0-23.178,8.472-26.452,20h-8.548
	c-15.164,0-27.5,12.336-27.5,27.5s12.336,27.5,27.5,27.5h7.5v19.759c-9.693,11.989-15,26.935-15,42.406V352.5
	c0,4.142,3.358,7.5,7.5,7.5h22.5v134.5c0,3.228,2.066,6.094,5.128,7.115l30,10c0.787,0.262,1.586,0.387,2.373,0.387
	c3.14,0,6.066-1.988,7.114-5.13c1.31-3.93-0.814-8.177-4.744-9.487l-24.872-8.291V360h45v134.5c0,3.228,2.066,6.094,5.128,7.115
	l30,10c0.787,0.262,1.586,0.387,2.373,0.387c3.14,0,6.066-1.988,7.114-5.13c1.31-3.93-0.814-8.177-4.744-9.487l-24.872-8.291V360
	h22.5c4.142,0,7.5-3.358,7.5-7.5v-50.335c0-15.47-5.307-30.417-15-42.406V240h7.5c15.164,0,27.5-12.336,27.5-27.5
	S183.924,185,168.761,185z M83.761,180h50c6.893,0,12.5,5.607,12.5,12.5V225h-75v-32.5C71.261,185.607,76.868,180,83.761,180z
	 M48.761,225c-6.893,0-12.5-5.607-12.5-12.5s5.607-12.5,12.5-12.5h7.5v25H48.761z M161.261,345h-105v-42.835
	c0-11.686,3.905-22.981,11.039-32.165h82.922c7.133,9.184,11.039,20.479,11.039,32.165V345z M146.261,255h-75v-15h75V255z
	 M168.761,225h-7.5v-25h7.5c6.893,0,12.5,5.607,12.5,12.5S175.653,225,168.761,225z"/>
<path d="M183.246,51.953c1.389,2.406,3.91,3.751,6.502,3.751c1.272,0,2.562-0.324,3.743-1.006l12.25-7.073V61.77
	c0,4.142,3.358,7.5,7.5,7.5s7.5-3.358,7.5-7.5V47.626l12.25,7.073c1.181,0.682,2.471,1.006,3.743,1.006
	c2.592,0,5.113-1.346,6.502-3.751c2.071-3.587,0.842-8.174-2.745-10.245l-12.25-7.073l12.25-7.073
	c3.587-2.071,4.816-6.658,2.745-10.245c-2.072-3.588-6.658-4.817-10.245-2.745l-12.25,7.073V7.5c0-4.142-3.358-7.5-7.5-7.5
	s-7.5,3.358-7.5,7.5v14.145l-12.25-7.073c-3.587-2.072-8.174-0.842-10.245,2.745c-2.071,3.587-0.842,8.174,2.745,10.245l12.25,7.073
	l-12.25,7.073C182.404,43.779,181.175,48.366,183.246,51.953z"/>
<path d="M267.261,45c4.142,0,7.5-3.358,7.5-7.5v-30c0-4.142-3.358-7.5-7.5-7.5s-7.5,3.358-7.5,7.5v30
	C259.761,41.642,263.119,45,267.261,45z"/>
<g>
</g>
<g>
</g>
<g>
</g>
<g>
</g>
<g>
</g>
<g>
</g>
<g>
</g>
<g>
</g>
<g>
</g>
<g>
</g>
<g>
</g>
<g>
</g>
<g>
</g>
<g>
</g>
<g>
</g>
</svg>
