<?xml version="1.0" encoding="iso-8859-1"?>
<!-- Generator: Adobe Illustrator 19.0.0, SVG Export Plug-In . SVG Version: 6.00 Build 0)  -->
<svg version="1.1" id="Capa_1" xmlns="http://www.w3.org/2000/svg" xmlns:xlink="http://www.w3.org/1999/xlink" x="0px" y="0px"
	 viewBox="0 0 512.002 512.002" style="enable-background:new 0 0 512.002 512.002;" xml:space="preserve">
<path style="fill:#2DADE3;" d="M153.501,172.5h-30v120h50v-100C173.501,181.454,164.547,172.5,153.501,172.5z"/>
<path style="fill:#49C9FF;" d="M123.501,172.5h-20c-11.046,0-20,8.954-20,20v100h60v-100
	C143.501,181.454,134.547,172.5,123.501,172.5z"/>
<path style="fill:#FF4128;" d="M173.501,262.5h-30l15,90h30v-50.335C188.501,286.954,182.83,273.075,173.501,262.5z"/>
<path style="fill:#FF6337;" d="M143.501,262.5h-60c-9.329,10.575-15,24.454-15,39.665V352.5h90v-50.335
	C158.501,286.954,152.83,273.075,143.501,262.5z"/>
<circle style="fill:#60312C;" cx="128.5" cy="30" r="22.5"/>
<path style="fill:#FFCB63;" d="M162.756,68.335c0.01-0.01-34.255-0.005-34.255-0.005v74.17c24.85,0,45-20.15,45-45
	C173.501,86.38,169.456,76.185,162.756,68.335z"/>
<path style="fill:#FFE2A8;" d="M142.391,80.51L94.246,68.335c-6.7,7.85-10.745,18.045-10.745,29.165c0,24.85,20.15,45,45,45
	c8.28,0,15-20.15,15-45C143.501,91.49,143.111,85.75,142.391,80.51z"/>
<path style="fill:#40211D;" d="M128.501,52.5l13.89,28.01c7.45-2.23,14.475-6.295,20.365-12.175
	C154.506,58.645,142.221,52.5,128.501,52.5z"/>
<path style="fill:#60312C;" d="M128.501,52.5c-13.72,0-26.005,6.145-34.255,15.835c13.04,13.04,31.645,17.105,48.145,12.175
	C140.161,64.08,134.781,52.5,128.501,52.5z"/>
<path style="fill:#FFF0D3;" d="M358.501,22.5v240c66.168,0,120-53.832,120-120S424.669,22.5,358.501,22.5z"/>
<path style="fill:#FFFFFF;" d="M448.501,142.5c0-66.168-40.374-120-90-120c-60.676,0-110.971,45.269-118.903,103.806L200.501,142.5
	l39.097,16.194C247.53,217.231,297.825,262.5,358.501,262.5C408.127,262.5,448.501,208.668,448.501,142.5z"/>
<path style="fill:#9DB55F;" d="M358.501,52.5v180c49.706,0,90-40.294,90-90S408.207,52.5,358.501,52.5z"/>
<path style="fill:#B9D171;" d="M418.501,142.5c0-49.706-26.863-90-60-90c-49.706,0-90,40.294-90,90s40.294,90,90,90
	C391.638,232.5,418.501,192.206,418.501,142.5z"/>
<g>
	<circle style="fill:#9DB55F;" cx="393.5" cy="170" r="17.5"/>
	<circle style="fill:#9DB55F;" cx="323.5" cy="170" r="17.5"/>
</g>
<path d="M358.501,15c-28.567,0-55.59,9.276-78.146,26.826c-3.27,2.543-3.857,7.256-1.314,10.525
	c2.546,3.27,7.256,3.858,10.525,1.314C309.464,38.183,333.302,30,358.501,30c62.032,0,112.5,50.467,112.5,112.5
	S420.533,255,358.501,255c-56.032,0-103.954-41.835-111.472-97.313c-0.358-2.646-2.096-4.901-4.562-5.922L220.1,142.5l22.368-9.265
	c2.466-1.021,4.203-3.277,4.562-5.922c2.645-19.518,10.474-38.103,22.641-53.746c2.543-3.27,1.954-7.982-1.315-10.525
	c-3.271-2.543-7.981-1.954-10.524,1.316c-12.894,16.577-21.489,36.076-25.005,56.635l-35.194,14.578
	c-2.803,1.161-4.63,3.896-4.63,6.929s1.827,5.768,4.63,6.929l35.193,14.578C243.184,224.734,296.456,270,358.501,270
	c70.304,0,127.5-57.196,127.5-127.5S428.805,15,358.501,15z"/>
<path d="M310.858,129.142c1.465,1.465,3.384,2.197,5.304,2.197c1.919,0,3.839-0.732,5.304-2.197l3.569-3.569l3.569,3.569
	c1.465,1.465,3.385,2.197,5.304,2.197s3.839-0.732,5.304-2.197c2.929-2.929,2.929-7.678,0-10.606l-3.569-3.569l3.569-3.569
	c2.929-2.929,2.929-7.677,0-10.606c-2.929-2.928-7.677-2.929-10.607,0l-3.569,3.569l-3.569-3.569c-2.93-2.929-7.678-2.929-10.607,0
	s-2.929,7.678,0,10.606l3.569,3.569l-3.569,3.569C307.93,121.464,307.93,126.213,310.858,129.142z"/>
<path d="M378.113,129.142c1.465,1.465,3.384,2.197,5.304,2.197c1.919,0,3.839-0.732,5.304-2.197l3.569-3.569l3.569,3.569
	c1.465,1.465,3.385,2.197,5.304,2.197s3.839-0.732,5.304-2.197c2.929-2.929,2.929-7.678,0-10.606l-3.569-3.569l3.569-3.569
	c2.929-2.929,2.929-7.677,0-10.606c-2.93-2.928-7.678-2.929-10.607,0l-3.569,3.569l-3.569-3.569c-2.93-2.929-7.678-2.929-10.607,0
	s-2.929,7.678,0,10.606l3.569,3.569l-3.569,3.569C375.185,121.464,375.185,126.213,378.113,129.142z"/>
<path d="M323.501,145c-4.143,0-7.5,3.358-7.5,7.5s3.357,7.5,7.5,7.5c5.514,0,10,4.486,10,10s-4.486,10-10,10
	c-4.143,0-7.5,3.358-7.5,7.5s3.357,7.5,7.5,7.5c11.173,0,20.656-7.368,23.849-17.5h22.302c3.193,10.132,12.676,17.5,23.849,17.5
	c4.143,0,7.5-3.358,7.5-7.5s-3.357-7.5-7.5-7.5c-5.514,0-10-4.486-10-10s4.486-10,10-10c4.143,0,7.5-3.358,7.5-7.5
	s-3.357-7.5-7.5-7.5c-11.173,0-20.656,7.368-23.849,17.5H347.35C344.157,152.368,334.674,145,323.501,145z"/>
<path d="M358.501,240c53.762,0,97.5-43.738,97.5-97.5S412.263,45,358.501,45s-97.5,43.738-97.5,97.5S304.739,240,358.501,240z
	 M358.501,60c45.49,0,82.5,37.009,82.5,82.5s-37.01,82.5-82.5,82.5s-82.5-37.009-82.5-82.5S313.011,60,358.501,60z"/>
<path d="M203.501,185h-23.548c-3.274-11.528-13.889-20-26.452-20h-50c-12.563,0-23.178,8.472-26.452,20h-3.548
	c-17.921,0-32.5-14.58-32.5-32.5c0-17.921,14.579-32.5,32.5-32.5h7.576c8.442,17.721,26.524,30,47.424,30
	c28.948,0,52.5-23.552,52.5-52.5c0-12.812-4.619-24.561-12.271-33.685c-0.205-0.271-0.424-0.535-0.671-0.782
	c-4.781-5.463-10.624-9.916-17.222-13.032c4.762-5.312,7.665-12.323,7.665-20.001c0-16.542-13.458-30-30-30s-30,13.458-30,30
	c0,7.678,2.903,14.689,7.665,20.001c-6.599,3.116-12.442,7.568-17.192,13.004c-0.278,0.275-0.496,0.539-0.702,0.81
	C80.62,72.939,76.001,84.688,76.001,97.5c0,2.547,0.192,5.049,0.544,7.5h-3.044c-26.191,0-47.5,21.308-47.5,47.5
	c0,26.191,21.309,47.5,47.5,47.5h2.5v59.759c-9.693,11.989-15,26.935-15,42.406V352.5c0,4.142,3.357,7.5,7.5,7.5h22.5v129.094
	l-24.872,8.291c-3.929,1.31-6.053,5.557-4.743,9.487c1.048,3.143,3.974,5.13,7.114,5.13c0.786,0,1.586-0.125,2.373-0.387l30-10
	c3.063-1.021,5.128-3.887,5.128-7.115V360h45v134.5c0,3.228,2.065,6.094,5.128,7.115l30,10c0.787,0.262,1.587,0.387,2.373,0.387
	c3.141,0,6.066-1.988,7.114-5.13c1.31-3.93-0.814-8.177-4.743-9.487l-24.872-8.291V360h22.5c4.143,0,7.5-3.358,7.5-7.5v-50.335
	c0-15.471-5.307-30.417-15-42.406V240h22.5c15.163,0,27.5-12.336,27.5-27.5S218.664,185,203.501,185z M151.523,67.931
	c-13.839,9.42-32.206,9.42-46.044,0c6.36-4.963,14.349-7.931,23.022-7.931S145.163,62.968,151.523,67.931z M113.501,30
	c0-8.271,6.729-15,15-15s15,6.729,15,15s-6.729,15-15,15S113.501,38.271,113.501,30z M91.001,97.5c0-6.567,1.702-12.742,4.68-18.116
	c9.751,7.072,21.284,10.615,32.82,10.615s23.069-3.543,32.82-10.615c2.978,5.374,4.68,11.549,4.68,18.116
	c0,20.677-16.822,37.5-37.5,37.5c-12.242,0-23.131-5.898-29.979-15h29.979c4.143,0,7.5-3.358,7.5-7.5s-3.357-7.5-7.5-7.5H91.756
	C91.262,102.576,91.001,100.068,91.001,97.5z M181.001,345h-105v-42.835c0-11.687,3.905-22.982,11.038-32.165h82.924
	c7.133,9.183,11.038,20.478,11.038,32.165V345z M166.001,255h-75v-62.5c0-6.893,5.607-12.5,12.5-12.5h50
	c6.893,0,12.5,5.607,12.5,12.5V225h-37.5c-4.143,0-7.5,3.358-7.5,7.5s3.357,7.5,7.5,7.5h37.5V255z M203.501,225h-22.5v-25h22.5
	c6.893,0,12.5,5.607,12.5,12.5S210.394,225,203.501,225z"/>
<g>
</g>
<g>
</g>
<g>
</g>
<g>
</g>
<g>
</g>
<g>
</g>
<g>
</g>
<g>
</g>
<g>
</g>
<g>
</g>
<g>
</g>
<g>
</g>
<g>
</g>
<g>
</g>
<g>
</g>
</svg>
