<?xml version="1.0" encoding="iso-8859-1"?>
<!-- Generator: Adobe Illustrator 19.0.0, SVG Export Plug-In . SVG Version: 6.00 Build 0)  -->
<svg version="1.1" id="Capa_1" xmlns="http://www.w3.org/2000/svg" xmlns:xlink="http://www.w3.org/1999/xlink" x="0px" y="0px"
	 viewBox="0 0 512.002 512.002" style="enable-background:new 0 0 512.002 512.002;" xml:space="preserve">
<path style="fill:#2DADE3;" d="M407.002,262.5v75c24.853,0,45-20.147,45-45L407.002,262.5z"/>
<path style="fill:#49C9FF;" d="M422.002,292.5l-15-30l-45,30c0,24.853,20.147,45,45,45C415.286,337.5,422.002,317.353,422.002,292.5
	z"/>
<path style="fill:#9DB55F;" d="M432.002,172.5h-30l20,120h30v-100C452.002,181.454,443.048,172.5,432.002,172.5z"/>
<path style="fill:#B9D171;" d="M402.002,172.5h-20c-11.046,0-20,8.954-20,20v100h60v-100
	C422.002,181.454,413.048,172.5,402.002,172.5z"/>
<path style="fill:#FFB4A9;" d="M407.002,52.5v101l45-46v-10C452.002,72.647,431.855,52.5,407.002,52.5z"/>
<path style="fill:#FFD9D4;" d="M407.002,52.5c-24.853,0-45,20.147-45,45v10l60,46v-56C422.002,72.647,415.286,52.5,407.002,52.5z"/>
<path style="fill:#FF6337;" d="M425.711,107.5c-1.053-1.573-2.303-3.002-3.709-4.261l-15,69.261c24.853,0,45-20.147,45-45v-20
	H425.711z"/>
<path style="fill:#FF8646;" d="M422.002,127.5v-24.261c-3.981-3.566-9.235-5.739-15-5.739c-7.801,0-14.672,3.971-18.709,10h-26.291
	v20c0,24.853,20.147,45,45,45C415.286,172.5,422.002,152.353,422.002,127.5z"/>
<path style="fill:#2DADE3;" d="M100.002,172.5h-30v120h50v-100C120.002,181.454,111.048,172.5,100.002,172.5z"/>
<path style="fill:#49C9FF;" d="M70.002,172.5h-20c-11.046,0-20,8.954-20,20v70l60,30v-100C90.002,181.454,81.048,172.5,70.002,172.5
	z"/>
<path style="fill:#FF4128;" d="M120.002,262.5h-30l15,90h30v-50.335C135.002,286.954,129.331,273.075,120.002,262.5z"/>
<path style="fill:#FF6337;" d="M90.002,262.5h-60v90h75v-50.335C105.002,286.954,99.331,273.075,90.002,262.5z"/>
<circle style="fill:#60312C;" cx="60" cy="30" r="22.5"/>
<path style="fill:#A45E43;" d="M94.257,68.335c0.01-0.01-34.255-0.005-34.255-0.005v74.17c24.85,0,45-20.15,45-45
	C105.002,86.38,100.957,76.185,94.257,68.335z"/>
<path style="fill:#C27749;" d="M73.892,80.51L25.747,68.335c-6.7,7.85-10.745,18.045-10.745,29.165c0,24.85,20.15,45,45,45
	c8.28,0,15-20.15,15-45C75.002,91.49,74.612,85.75,73.892,80.51z"/>
<path style="fill:#40211D;" d="M60.002,52.5l13.89,28.01c7.45-2.23,14.475-6.295,20.365-12.175
	C86.007,58.645,73.722,52.5,60.002,52.5z"/>
<path style="fill:#60312C;" d="M60.002,52.5c-13.72,0-26.005,6.145-34.255,15.835c13.04,13.04,31.645,17.105,48.145,12.175
	C71.662,64.08,66.282,52.5,60.002,52.5z"/>
<path d="M459.302,189.243c-1.222-10.301-8.156-18.871-17.539-22.447c10.869-9.626,17.739-23.67,17.739-39.296v-30
	c0-28.948-23.552-52.5-52.5-52.5s-52.5,23.552-52.5,52.5v30c0,15.626,6.87,29.67,17.739,39.296
	c-9.384,3.576-16.318,12.146-17.539,22.447c-29.165,30.191-45.2,69.809-45.2,111.896V337.5c0,4.142,3.357,7.5,7.5,7.5
	s7.5-3.358,7.5-7.5v-36.361c0-32.497,10.544-63.37,30-88.728V292.5c0,14.269,5.73,27.22,15,36.692v159.902l-24.872,8.291
	c-3.93,1.31-6.053,5.557-4.743,9.487c1.048,3.143,3.974,5.13,7.114,5.13c0.786,0,1.586-0.125,2.373-0.387l30-10
	c3.063-1.021,5.128-3.887,5.128-7.115V339.924c6.824,3.25,14.452,5.076,22.5,5.076s15.676-1.825,22.5-5.076V494.5
	c0,3.228,2.065,6.094,5.128,7.115l30,10c0.787,0.262,1.587,0.387,2.373,0.387c3.141,0,6.066-1.988,7.114-5.13
	c1.31-3.93-0.813-8.177-4.743-9.487l-24.872-8.291V329.192c9.27-9.472,15-22.423,15-36.692v-80.089
	c19.456,25.358,30,56.23,30,88.728V337.5c0,4.142,3.357,7.5,7.5,7.5s7.5-3.358,7.5-7.5v-36.361
	C504.502,259.051,488.467,219.434,459.302,189.243z M407.002,60c20.678,0,37.5,16.823,37.5,37.5v2.5h-15.139
	c-5.653-6.325-13.747-10-22.361-10s-16.708,3.675-22.361,10h-15.139v-2.5C369.502,76.823,386.324,60,407.002,60z M369.502,127.5V115
	h18.791c2.502,0,4.84-1.248,6.232-3.327c2.797-4.178,7.462-6.673,12.477-6.673s9.68,2.494,12.477,6.673
	c1.393,2.079,3.73,3.327,6.232,3.327h18.791v12.5c0,20.678-16.822,37.5-37.5,37.5S369.502,148.178,369.502,127.5z M432.002,180
	c6.892,0,12.499,5.606,12.5,12.498c0,0.008,0,92.502,0,92.502h-75v-92.495c0.001-6.899,5.608-12.505,12.5-12.505H432.002z
	 M370.257,300h73.491c-3.484,17.096-18.635,30-36.745,30S373.741,317.096,370.257,300z"/>
<path d="M210.002,165c-4.142,0-7.5,3.358-7.5,7.5c0,12.407-10.093,22.5-22.5,22.5h-52.5v-2.5c0-15.164-12.336-27.5-27.5-27.5h-50
	c-15.164,0-27.5,12.336-27.5,27.5v160c0,4.142,3.358,7.5,7.5,7.5h7.5v129.094l-24.872,8.291c-3.93,1.31-6.053,5.557-4.744,9.487
	c1.048,3.143,3.974,5.13,7.114,5.13c0.786,0,1.586-0.125,2.373-0.387l30-10c3.063-1.021,5.128-3.887,5.128-7.115V360h45v47.5
	c0,1.489,0.443,2.945,1.274,4.182l43.726,65.104V504.5c0,4.142,3.358,7.5,7.5,7.5s7.5-3.358,7.5-7.5v-30
	c0-1.489-0.443-2.945-1.274-4.182l-43.726-65.104V360h22.5c4.142,0,7.5-3.358,7.5-7.5v-50.335c0-15.471-5.307-30.417-15-42.406V240
	h22.5c18.334,0,33.626-13.229,36.86-30.64c17.411-3.234,30.64-18.526,30.64-36.86C217.502,168.358,214.144,165,210.002,165z
	 M50.002,180h50c6.893,0,12.5,5.607,12.5,12.5v2.5h-52.5c-4.142,0-7.5,3.358-7.5,7.5s3.358,7.5,7.5,7.5h52.5v45h-75v-62.5
	C37.502,185.607,43.109,180,50.002,180z M127.502,345h-90v-75h78.961c7.133,9.184,11.039,20.479,11.039,32.165V345z M150.002,225
	h-22.5v-15h43.71C168.116,218.729,159.78,225,150.002,225z"/>
<path d="M60.002,150c28.949,0,52.5-23.552,52.5-52.5c0-12.814-4.62-24.564-12.275-33.689c-0.205-0.269-0.422-0.532-0.668-0.778
	c-4.778-5.462-10.622-9.916-17.222-13.032c4.762-5.312,7.665-12.323,7.665-20.001c0-16.542-13.458-30-30-30s-30,13.458-30,30
	c0,7.678,2.903,14.689,7.665,20.001c-6.6,3.116-12.444,7.57-17.194,13.007c-0.274,0.271-0.491,0.534-0.696,0.803
	C12.122,72.936,7.502,84.686,7.502,97.5C7.502,126.448,31.053,150,60.002,150z M60.002,135c-20.678,0-37.5-16.823-37.5-37.5
	c0-6.565,1.701-12.739,4.678-18.112c9.49,6.909,20.869,10.648,32.822,10.648s23.333-3.739,32.822-10.648
	c2.977,5.373,4.678,11.546,4.678,18.112C97.502,118.177,80.68,135,60.002,135z M36.97,67.939C43.331,62.971,51.324,60,60.002,60
	s16.671,2.971,23.032,7.939c-6.742,4.611-14.697,7.097-23.032,7.097S43.712,72.55,36.97,67.939z M45.002,30c0-8.271,6.729-15,15-15
	s15,6.729,15,15s-6.729,15-15,15S45.002,38.271,45.002,30z"/>
<g>
</g>
<g>
</g>
<g>
</g>
<g>
</g>
<g>
</g>
<g>
</g>
<g>
</g>
<g>
</g>
<g>
</g>
<g>
</g>
<g>
</g>
<g>
</g>
<g>
</g>
<g>
</g>
<g>
</g>
</svg>
