<?xml version="1.0" encoding="iso-8859-1"?>
<!-- Generator: Adobe Illustrator 19.0.0, SVG Export Plug-In . SVG Version: 6.00 Build 0)  -->
<svg version="1.1" id="Capa_1" xmlns="http://www.w3.org/2000/svg" xmlns:xlink="http://www.w3.org/1999/xlink" x="0px" y="0px"
	 viewBox="0 0 512.002 512.002" style="enable-background:new 0 0 512.002 512.002;" xml:space="preserve">
<path style="fill:#FFF0D3;" d="M384.501,22.5v240c66.168,0,120-53.832,120-120S450.669,22.5,384.501,22.5z"/>
<path style="fill:#FFFFFF;" d="M474.501,142.5c0-66.168-40.374-120-90-120c-60.676,0-110.971,45.269-118.903,103.806L226.501,142.5
	l39.097,16.194C273.53,217.231,323.825,262.5,384.501,262.5C434.127,262.5,474.501,208.668,474.501,142.5z"/>
<path style="fill:#FFA754;" d="M384.501,52.5v180c49.706,0,90-40.294,90-90S434.207,52.5,384.501,52.5z"/>
<path style="fill:#FFCB63;" d="M444.501,142.5c0-49.706-26.863-90-60-90c-49.706,0-90,40.294-90,90s40.294,90,90,90
	C417.638,232.5,444.501,192.206,444.501,142.5z"/>
<path style="fill:#FF4128;" d="M367.001,157.5V185c0,9.665,7.835,17.5,17.5,17.5c9.665,0,17.5-7.835,17.5-17.5v-27.5H367.001z"/>
<path style="fill:#2DADE3;" d="M167.501,172.5h-30v120l50-30v-70C187.501,181.454,178.547,172.5,167.501,172.5z"/>
<path style="fill:#49C9FF;" d="M137.501,172.5h-20c-11.046,0-20,8.954-20,20v100h60v-100
	C157.501,181.454,148.547,172.5,137.501,172.5z"/>
<polygon style="fill:#FF4128;" points="187.501,262.5 157.501,262.5 137.501,300 157.501,352.5 187.501,352.5 "/>
<path style="fill:#FF6337;" d="M157.501,262.5h-60c-9.329,10.575-15,24.454-15,39.665V352.5h75V262.5z"/>
<circle style="fill:#60312C;" cx="157.5" cy="30" r="22.5"/>
<path style="fill:#A45E43;" d="M191.756,68.335c0.01-0.01-34.255-0.005-34.255-0.005v74.17c24.85,0,45-20.15,45-45
	C202.501,86.38,198.456,76.185,191.756,68.335z"/>
<path style="fill:#C27749;" d="M171.391,80.51l-48.145-12.175c-6.7,7.85-10.745,18.045-10.745,29.165c0,24.85,20.15,45,45,45
	c8.28,0,15-20.15,15-45C172.501,91.49,172.111,85.75,171.391,80.51z"/>
<path style="fill:#40211D;" d="M157.501,52.5l13.89,28.01c7.45-2.23,14.475-6.295,20.365-12.175
	C183.506,58.645,171.221,52.5,157.501,52.5z"/>
<path style="fill:#60312C;" d="M157.501,52.5c-13.72,0-26.005,6.145-34.255,15.835c13.04,13.04,31.645,17.105,48.145,12.175
	C169.161,64.08,163.781,52.5,157.501,52.5z"/>
<path d="M384.501,15c-28.567,0-55.589,9.276-78.146,26.826c-3.269,2.543-3.857,7.256-1.314,10.525
	c2.544,3.269,7.256,3.858,10.525,1.314C335.464,38.183,359.302,30,384.501,30c62.033,0,112.5,50.467,112.5,112.5
	S446.534,255,384.501,255c-56.031,0-103.954-41.835-111.471-97.313c-0.358-2.645-2.096-4.9-4.562-5.922L246.1,142.5l22.368-9.265
	c2.466-1.021,4.204-3.277,4.562-5.922c2.645-19.518,10.474-38.103,22.641-53.746c2.543-3.27,1.954-7.982-1.316-10.525
	c-3.271-2.544-7.982-1.954-10.525,1.316c-12.892,16.577-21.489,36.077-25.004,56.635l-35.194,14.578
	c-2.803,1.161-4.63,3.896-4.63,6.929s1.827,5.768,4.63,6.929l35.193,14.578C269.184,224.734,322.456,270,384.501,270
	c70.304,0,127.5-57.196,127.5-127.5S454.805,15,384.501,15z"/>
<path d="M352.001,165h7.5v20c0,13.785,11.215,25,25,25c13.785,0,25-11.215,25-25v-20h7.5c4.142,0,7.5-3.358,7.5-7.5
	s-3.358-7.5-7.5-7.5h-65c-4.142,0-7.5,3.358-7.5,7.5S347.859,165,352.001,165z M394.501,185c0,5.514-4.486,10-10,10
	c-5.514,0-10-4.486-10-10v-20h20V185z"/>
<path d="M358.501,135c4.142,0,7.5-3.358,7.5-7.5v-10c0-4.142-3.358-7.5-7.5-7.5c-4.142,0-7.5,3.358-7.5,7.5v10
	C351.001,131.642,354.359,135,358.501,135z"/>
<path d="M410.501,135c4.142,0,7.5-3.358,7.5-7.5v-10c0-4.142-3.358-7.5-7.5-7.5c-4.142,0-7.5,3.358-7.5,7.5v10
	C403.001,131.642,406.359,135,410.501,135z"/>
<path d="M384.501,240c53.762,0,97.5-43.738,97.5-97.5S438.263,45,384.501,45c-53.762,0-97.5,43.738-97.5,97.5
	S330.739,240,384.501,240z M384.501,60c45.491,0,82.5,37.009,82.5,82.5s-37.009,82.5-82.5,82.5c-45.491,0-82.5-37.009-82.5-82.5
	S339.01,60,384.501,60z"/>
<path d="M204.873,497.385l-24.872-8.291V360h7.5c4.142,0,7.5-3.358,7.5-7.5v-160c0-15.164-12.336-27.5-27.5-27.5h-50
	c-15.164,0-27.5,12.336-27.5,27.5v2.5h-52.5c-12.407,0-22.5-10.093-22.5-22.5c0-4.142-3.358-7.5-7.5-7.5s-7.5,3.358-7.5,7.5v30
	c0,20.678,16.822,37.5,37.5,37.5h52.5v19.759c-9.693,11.989-15,26.935-15,42.406V352.5c0,4.142,3.358,7.5,7.5,7.5h22.5v45.214
	l-43.726,65.104c-0.831,1.236-1.274,2.692-1.274,4.182v30c0,4.142,3.358,7.5,7.5,7.5s7.5-3.358,7.5-7.5v-27.715l43.726-65.104
	c0.831-1.236,1.274-2.692,1.274-4.182V360h45v134.5c0,3.228,2.066,6.094,5.128,7.115l30,10c0.787,0.262,1.586,0.387,2.373,0.387
	c3.14,0,6.066-1.988,7.114-5.13C210.926,502.942,208.802,498.695,204.873,497.385z M105.001,192.5c0-6.893,5.607-12.5,12.5-12.5h50
	c6.893,0,12.5,5.607,12.5,12.5V255h-75v-45h52.5c4.142,0,7.5-3.358,7.5-7.5s-3.358-7.5-7.5-7.5h-52.5
	C105.001,195,105.001,192.5,105.001,192.5z M37.501,225c-12.407,0-22.5-10.093-22.5-22.5c6.272,4.699,14.064,7.5,22.5,7.5h52.5v15
	H37.501z M90.001,302.165c0-11.687,3.905-22.982,11.039-32.165h78.961v75h-90C90.001,345,90.001,302.165,90.001,302.165z"/>
<path d="M157.501,150c28.949,0,52.5-23.552,52.5-52.5c0-12.814-4.62-24.564-12.275-33.689c-0.205-0.269-0.422-0.532-0.668-0.778
	c-4.778-5.462-10.622-9.916-17.222-13.032c4.762-5.312,7.665-12.323,7.665-20.001c0-16.542-13.458-30-30-30s-30,13.458-30,30
	c0,7.678,2.903,14.689,7.665,20.001c-6.6,3.116-12.444,7.57-17.194,13.007c-0.274,0.271-0.491,0.533-0.696,0.803
	c-7.654,9.125-12.275,20.875-12.275,33.689C105.001,126.448,128.552,150,157.501,150z M157.501,135c-20.678,0-37.5-16.823-37.5-37.5
	c0-6.565,1.701-12.739,4.678-18.112c9.49,6.91,20.87,10.648,32.822,10.648c11.953,0,23.332-3.739,32.822-10.648
	c2.977,5.373,4.678,11.546,4.678,18.112C195.001,118.177,178.179,135,157.501,135z M134.469,67.939
	C140.83,62.971,148.823,60,157.501,60c8.678,0,16.671,2.971,23.032,7.939c-6.742,4.611-14.697,7.097-23.032,7.097
	C149.166,75.036,141.211,72.55,134.469,67.939z M142.501,30c0-8.271,6.729-15,15-15s15,6.729,15,15s-6.729,15-15,15
	S142.501,38.271,142.501,30z"/>
<g>
</g>
<g>
</g>
<g>
</g>
<g>
</g>
<g>
</g>
<g>
</g>
<g>
</g>
<g>
</g>
<g>
</g>
<g>
</g>
<g>
</g>
<g>
</g>
<g>
</g>
<g>
</g>
<g>
</g>
</svg>
