<?xml version="1.0" encoding="iso-8859-1"?>
<!-- Generator: Adobe Illustrator 19.0.0, SVG Export Plug-In . SVG Version: 6.00 Build 0)  -->
<svg version="1.1" id="Capa_1" xmlns="http://www.w3.org/2000/svg" xmlns:xlink="http://www.w3.org/1999/xlink" x="0px" y="0px"
	 viewBox="0 0 512.002 512.002" style="enable-background:new 0 0 512.002 512.002;" xml:space="preserve">
<path style="fill:#2DADE3;" d="M170.001,172.5h-30v120h50v-100C190.001,181.454,181.047,172.5,170.001,172.5z"/>
<path style="fill:#49C9FF;" d="M140.001,172.5h-20c-11.046,0-20,8.954-20,20v100h60v-100
	C160.001,181.454,151.047,172.5,140.001,172.5z"/>
<path style="fill:#FF4128;" d="M190.001,262.5h-30l15,90h30v-50.335C205.001,286.954,199.33,273.075,190.001,262.5z"/>
<path style="fill:#FF6337;" d="M160.001,262.5h-60c-9.329,10.575-15,24.454-15,39.665V352.5h90v-50.335
	C175.001,286.954,169.33,273.075,160.001,262.5z"/>
<circle style="fill:#60312C;" cx="145" cy="30" r="22.5"/>
<path style="fill:#A45E43;" d="M179.256,68.335c0.01-0.01-34.255-0.005-34.255-0.005v74.17c24.85,0,45-20.15,45-45
	C190.001,86.38,185.956,76.185,179.256,68.335z"/>
<path style="fill:#C27749;" d="M158.891,80.51l-48.145-12.175c-6.7,7.85-10.745,18.045-10.745,29.165c0,24.85,20.15,45,45,45
	c8.28,0,15-20.15,15-45C160.001,91.49,159.611,85.75,158.891,80.51z"/>
<path style="fill:#40211D;" d="M145.001,52.5l13.89,28.01c7.45-2.23,14.475-6.295,20.365-12.175
	C171.006,58.645,158.721,52.5,145.001,52.5z"/>
<path style="fill:#60312C;" d="M145.001,52.5c-13.72,0-26.005,6.145-34.255,15.835c13.04,13.04,31.645,17.105,48.145,12.175
	C156.661,64.08,151.281,52.5,145.001,52.5z"/>
<path style="fill:#FFF0D3;" d="M372.001,22.5v240c66.168,0,120-53.832,120-120S438.169,22.5,372.001,22.5z"/>
<path style="fill:#FFFFFF;" d="M462.001,142.5c0-66.168-40.374-120-90-120c-60.676,0-110.971,45.269-118.903,103.806L214.001,142.5
	l39.097,16.194C261.03,217.231,311.325,262.5,372.001,262.5C421.627,262.5,462.001,208.668,462.001,142.5z"/>
<path style="fill:#FFA754;" d="M372.001,52.5v180c49.706,0,90-40.294,90-90S421.707,52.5,372.001,52.5z"/>
<path style="fill:#FFCB63;" d="M432.001,142.5c0-49.706-26.863-90-60-90c-49.706,0-90,40.294-90,90s40.294,90,90,90
	C405.138,232.5,432.001,192.206,432.001,142.5z"/>
<path style="fill:#353535;" d="M372.001,142.5c-11.046,0-20,8.954-20,20v20c0,1.73,0.243,3.399,0.656,5h38.689
	c0.413-1.601,0.656-3.27,0.656-5v-20C392.001,151.454,383.047,142.5,372.001,142.5z"/>
<path style="fill:#FF4128;" d="M372.001,172.5c-9.316,0-17.121,6.379-19.344,15c2.224,8.621,10.029,15,19.344,15
	c9.316,0,17.121-6.379,19.344-15C389.122,178.879,381.317,172.5,372.001,172.5z"/>
<circle cx="145" cy="112.5" r="7.5"/>
<path d="M170.001,165h-50c-12.563,0-23.178,8.472-26.452,20H60.001c-17.92,0-32.5-14.58-32.5-32.5c0-17.921,14.58-32.5,32.5-32.5
	h37.576c8.442,17.721,26.523,30,47.424,30c28.949,0,52.5-23.552,52.5-52.5c0-12.814-4.62-24.564-12.275-33.689
	c-0.205-0.269-0.422-0.532-0.668-0.778c-4.778-5.462-10.622-9.916-17.222-13.032c4.762-5.312,7.665-12.323,7.665-20.001
	c0-16.542-13.458-30-30-30s-30,13.458-30,30c0,7.678,2.903,14.689,7.665,20.001c-6.6,3.116-12.444,7.57-17.194,13.007
	c-0.274,0.271-0.491,0.534-0.696,0.803C97.121,72.936,92.501,84.686,92.501,97.5c0,2.547,0.192,5.049,0.544,7.5H60.001
	c-26.191,0-47.5,21.308-47.5,47.5c0,26.191,21.309,47.5,47.5,47.5h32.5v59.759c-9.693,11.989-15,26.935-15,42.406V352.5
	c0,4.142,3.358,7.5,7.5,7.5h22.5v129.094l-24.872,8.291c-3.93,1.31-6.053,5.557-4.744,9.487c1.048,3.143,3.974,5.13,7.114,5.13
	c0.786,0,1.586-0.125,2.373-0.387l30-10c3.063-1.021,5.128-3.887,5.128-7.115V360h45v134.5c0,3.228,2.066,6.094,5.128,7.115l30,10
	c0.787,0.262,1.586,0.387,2.373,0.387c3.14,0,6.066-1.988,7.114-5.13c1.31-3.93-0.814-8.177-4.744-9.487l-24.872-8.291V360h22.5
	c4.142,0,7.5-3.358,7.5-7.5v-50.335c0-15.471-5.307-30.417-15-42.406v-47.348c19.455,25.357,30,56.23,30,88.728V337.5
	c0,4.142,3.358,7.5,7.5,7.5s7.5-3.358,7.5-7.5v-36.361c0-42.087-16.035-81.705-45.199-111.896
	C195.685,175.61,184.062,165,170.001,165z M145.001,135c-20.678,0-37.5-16.823-37.5-37.5c0-6.565,1.701-12.739,4.678-18.112
	c9.49,6.909,20.869,10.648,32.822,10.648s23.332-3.739,32.822-10.648c2.977,5.373,4.678,11.546,4.678,18.112
	C182.501,118.177,165.679,135,145.001,135z M121.969,67.939C128.33,62.971,136.323,60,145.001,60s16.671,2.971,23.032,7.939
	c-6.742,4.611-14.697,7.097-23.032,7.097S128.711,72.55,121.969,67.939z M130.001,30c0-8.271,6.729-15,15-15s15,6.729,15,15
	s-6.729,15-15,15S130.001,38.271,130.001,30z M120.001,180h50c6.892,0,12.499,5.607,12.5,12.499c0,0.004,0,62.501,0,62.501h-75
	v-62.5C107.501,185.607,113.108,180,120.001,180z M197.501,345h-105v-42.835c0-11.687,3.905-22.982,11.039-32.165h82.923
	c7.133,9.183,11.039,20.478,11.039,32.165V345H197.501z"/>
<path d="M372.001,15c-28.566,0-55.589,9.276-78.146,26.826c-3.269,2.543-3.857,7.256-1.314,10.525
	c2.543,3.269,7.255,3.858,10.525,1.314C322.965,38.183,346.802,30,372.001,30c62.033,0,112.5,50.467,112.5,112.5
	S434.034,255,372.001,255c-56.031,0-103.954-41.835-111.471-97.313c-0.358-2.645-2.096-4.9-4.562-5.922L233.6,142.5l22.368-9.265
	c2.466-1.021,4.204-3.277,4.562-5.922c2.645-19.518,10.474-38.103,22.641-53.746c2.543-3.27,1.954-7.982-1.316-10.525
	c-3.27-2.544-7.982-1.954-10.525,1.316c-12.892,16.577-21.489,36.077-25.004,56.635l-35.194,14.578
	c-2.803,1.161-4.63,3.896-4.63,6.929s1.827,5.768,4.63,6.929l35.193,14.578C256.684,224.734,309.956,270,372.001,270
	c70.304,0,127.5-57.196,127.5-127.5S442.305,15,372.001,15z"/>
<path d="M372.001,240c53.762,0,97.5-43.738,97.5-97.5S425.763,45,372.001,45s-97.5,43.738-97.5,97.5S318.239,240,372.001,240z
	 M372.001,60c45.491,0,82.5,37.009,82.5,82.5s-37.009,82.5-82.5,82.5s-82.5-37.009-82.5-82.5S326.51,60,372.001,60z"/>
<path d="M331.001,125h15c4.142,0,7.5-3.358,7.5-7.5s-3.358-7.5-7.5-7.5h-15c-4.142,0-7.5,3.358-7.5,7.5S326.859,125,331.001,125z"/>
<path d="M398.001,125h15c4.142,0,7.5-3.358,7.5-7.5s-3.358-7.5-7.5-7.5h-15c-4.142,0-7.5,3.358-7.5,7.5S393.859,125,398.001,125z"/>
<path d="M344.501,162.5v20c0,15.164,12.336,27.5,27.5,27.5s27.5-12.336,27.5-27.5v-20c0-15.164-12.336-27.5-27.5-27.5
	S344.501,147.336,344.501,162.5z M372.001,195c-5.107,0-9.503-3.083-11.44-7.482c1.953-4.507,6.413-7.518,11.44-7.518
	c5.028,0,9.487,3.011,11.44,7.518C381.504,191.917,377.108,195,372.001,195z M372.001,150c6.893,0,12.5,5.607,12.5,12.5v5.529
	c-3.78-1.936-8.034-3.029-12.5-3.029s-8.72,1.094-12.5,3.029V162.5C359.501,155.607,365.108,150,372.001,150z"/>
<g>
</g>
<g>
</g>
<g>
</g>
<g>
</g>
<g>
</g>
<g>
</g>
<g>
</g>
<g>
</g>
<g>
</g>
<g>
</g>
<g>
</g>
<g>
</g>
<g>
</g>
<g>
</g>
<g>
</g>
</svg>
