<?xml version="1.0" encoding="iso-8859-1"?>
<!-- Generator: Adobe Illustrator 19.0.0, SVG Export Plug-In . SVG Version: 6.00 Build 0)  -->
<svg version="1.1" id="Capa_1" xmlns="http://www.w3.org/2000/svg" xmlns:xlink="http://www.w3.org/1999/xlink" x="0px" y="0px"
	 viewBox="0 0 512.002 512.002" style="enable-background:new 0 0 512.002 512.002;" xml:space="preserve">
<path style="fill:#FFF0D3;" d="M369.502,22.5v240c66.168,0,120-53.832,120-120S435.67,22.5,369.502,22.5z"/>
<path style="fill:#FFFFFF;" d="M459.502,142.5c0-66.168-40.374-120-90-120c-60.676,0-110.971,45.269-118.903,103.806L211.502,142.5
	l39.097,16.194C258.531,217.23,308.826,262.5,369.502,262.5C419.128,262.5,459.502,208.668,459.502,142.5z"/>
<path style="fill:#CF301B;" d="M407.989,77.445c-2.921,0-5.771,0.3-8.531,0.843L369.502,227.94c0,0,82.5-44.833,82.5-106.481
	C452.002,97.15,432.297,77.445,407.989,77.445z"/>
<path style="fill:#FF4128;" d="M422.002,121.458c0-21.369-9.692-39.175-22.545-43.17c-12.902,2.541-23.774,10.718-29.955,21.868
	c-7.504-13.536-21.913-22.711-38.487-22.711c-24.308,0-44.013,19.705-44.013,44.013c0,61.648,82.5,106.481,82.5,106.481
	S422.002,183.107,422.002,121.458z"/>
<circle style="fill:#60312C;" cx="142.5" cy="30" r="22.5"/>
<path style="fill:#A45E43;" d="M176.757,68.335c0.01-0.01-34.255-0.005-34.255-0.005v74.17c24.85,0,45-20.15,45-45
	C187.502,86.38,183.457,76.185,176.757,68.335z"/>
<path style="fill:#C27749;" d="M156.392,80.51l-48.145-12.175c-6.7,7.85-10.745,18.045-10.745,29.165c0,24.85,20.15,45,45,45
	c8.28,0,15-20.15,15-45C157.502,91.49,157.112,85.75,156.392,80.51z"/>
<path style="fill:#40211D;" d="M142.502,52.5l13.89,28.01c7.45-2.23,14.475-6.295,20.365-12.175
	C168.507,58.645,156.222,52.5,142.502,52.5z"/>
<path style="fill:#60312C;" d="M142.502,52.5c-13.72,0-26.005,6.145-34.255,15.835c13.04,13.04,31.645,17.105,48.145,12.175
	C154.162,64.08,148.782,52.5,142.502,52.5z"/>
<path style="fill:#2DADE3;" d="M167.502,172.5h-30v120h50v-100C187.502,181.454,178.548,172.5,167.502,172.5z"/>
<path style="fill:#49C9FF;" d="M137.502,172.5h-20c-11.046,0-20,8.954-20,20v100h60v-100
	C157.502,181.454,148.548,172.5,137.502,172.5z"/>
<path style="fill:#FF4128;" d="M187.502,262.5h-30l15,90h30v-50.335C202.502,286.954,196.831,273.075,187.502,262.5z"/>
<path style="fill:#FF6337;" d="M157.502,262.5h-60c-7,7.93-11.82,17.74-13.97,28.54c-3.07,15.4-12.96,61.46-12.96,61.46h101.93
	v-50.335C172.502,286.954,166.831,273.075,157.502,262.5z"/>
<path d="M369.502,15c-28.566,0-55.589,9.276-78.146,26.826c-3.27,2.543-3.857,7.256-1.314,10.525
	c2.546,3.27,7.256,3.858,10.525,1.314C320.466,38.183,344.303,30,369.502,30c62.032,0,112.5,50.467,112.5,112.5
	S431.534,255,369.502,255c-56.031,0-103.953-41.835-111.472-97.313c-0.358-2.645-2.096-4.901-4.562-5.922L231.1,142.5l22.368-9.265
	c2.466-1.021,4.203-3.277,4.562-5.922c2.645-19.518,10.474-38.103,22.641-53.746c2.543-3.27,1.954-7.982-1.315-10.525
	c-3.271-2.543-7.981-1.954-10.524,1.316c-12.894,16.577-21.489,36.076-25.005,56.635l-35.194,14.578
	c-2.803,1.161-4.63,3.896-4.63,6.929c0,3.033,1.827,5.768,4.63,6.929l35.193,14.577C254.186,224.734,307.458,270,369.502,270
	c70.304,0,127.5-57.196,127.5-127.5S439.806,15,369.502,15z"/>
<path d="M365.921,234.53c1.116,0.607,2.349,0.91,3.581,0.91s2.465-0.303,3.581-0.91c3.528-1.917,86.419-47.714,86.419-113.071
	c0-28.405-23.109-51.513-51.514-51.513c-14.866,0-28.823,6.437-38.486,17.313c-9.663-10.876-23.62-17.313-38.486-17.313
	c-28.404,0-51.514,23.109-51.514,51.513C279.502,186.816,362.393,232.612,365.921,234.53z M331.016,84.945
	c13.248,0,25.482,7.222,31.927,18.848c1.322,2.384,3.833,3.864,6.56,3.864s5.237-1.479,6.56-3.864
	c6.444-11.626,18.679-18.848,31.927-18.848c20.134,0,36.514,16.38,36.514,36.513c0,49.393-59.622,88.533-75.004,97.805
	c-15.392-9.259-74.996-48.321-74.996-97.805C294.502,101.325,310.882,84.945,331.016,84.945z"/>
<path d="M217.502,170c-4.143,0-7.5,3.358-7.5,7.5v25c0,9.777-6.271,18.114-15,21.21V192.5c0-15.164-12.337-27.5-27.5-27.5h-17.5
	v-15.544c25.407-3.651,45-25.554,45-51.956c0-12.812-4.619-24.561-12.271-33.685c-0.205-0.271-0.424-0.535-0.671-0.782
	c-4.78-5.463-10.624-9.916-17.222-13.032c4.762-5.312,7.665-12.323,7.665-20.001c0-16.542-13.458-30-30-30s-30,13.458-30,30
	c0,7.678,2.903,14.69,7.665,20.001c-6.599,3.116-12.442,7.568-17.192,13.004c-0.278,0.275-0.496,0.539-0.702,0.81
	C94.621,72.939,90.002,84.688,90.002,97.5c0,26.402,19.593,48.304,45,51.956V165h-17.5c-15.163,0-27.5,12.336-27.5,27.5v67.262
	c-6.861,8.511-11.62,18.756-13.823,29.809c-3.024,15.17-12.838,60.894-12.937,61.354c-0.476,2.215,0.076,4.526,1.5,6.288
	c1.424,1.762,3.567,2.786,5.833,2.786h2.677L46.053,488.744l-25.923,8.641c-3.929,1.31-6.053,5.557-4.743,9.487
	c1.048,3.143,3.974,5.13,7.114,5.13c0.786,0,1.586-0.125,2.373-0.387l30-10c2.525-0.842,4.416-2.96,4.966-5.565L88.583,360h76.419
	v134.5c0,3.228,2.065,6.094,5.128,7.115l30,10c0.787,0.262,1.587,0.387,2.373,0.387c3.141,0,6.066-1.988,7.114-5.13
	c1.31-3.929-0.814-8.177-4.743-9.487l-24.872-8.291V360h22.5c4.143,0,7.5-3.358,7.5-7.5v-50.335c0-15.471-5.307-30.417-15-42.406
	v-20.514c17.096-3.484,30-18.636,30-36.745v-25C225.002,173.358,221.645,170,217.502,170z M165.524,67.931
	c-13.839,9.42-32.206,9.42-46.044,0C125.84,62.968,133.828,60,142.502,60S159.164,62.968,165.524,67.931z M127.502,30
	c0-8.271,6.729-15,15-15s15,6.729,15,15s-6.729,15-15,15S127.502,38.271,127.502,30z M105.002,97.5
	c0-6.567,1.702-12.742,4.68-18.116c9.751,7.072,21.284,10.615,32.82,10.615s23.069-3.543,32.82-10.615
	c2.978,5.374,4.68,11.549,4.68,18.116c0,18.11-12.904,33.261-30,36.745V127.5c0-4.142-3.357-7.5-7.5-7.5s-7.5,3.358-7.5,7.5v6.745
	C117.906,130.761,105.002,115.61,105.002,97.5z M117.502,180h17.5v37.5c0,4.135-3.364,7.5-7.5,7.5c-4.143,0-7.5,3.358-7.5,7.5
	s3.357,7.5,7.5,7.5c12.406,0,22.5-10.094,22.5-22.5V180h17.5c6.893,0,12.5,5.607,12.5,12.5V255h-75v-62.5
	C105.002,185.607,110.609,180,117.502,180z M195.002,345H82.564c-0.047,0-2.713,0-2.713,0c3.048-14.258,8.829-41.415,11.039-52.496
	c1.659-8.324,5.149-16.037,10.148-22.504h82.926c7.133,9.183,11.038,20.478,11.038,32.165L195.002,345L195.002,345z"/>
<g>
</g>
<g>
</g>
<g>
</g>
<g>
</g>
<g>
</g>
<g>
</g>
<g>
</g>
<g>
</g>
<g>
</g>
<g>
</g>
<g>
</g>
<g>
</g>
<g>
</g>
<g>
</g>
<g>
</g>
</svg>
