<?xml version="1.0" encoding="iso-8859-1"?>
<!-- Generator: Adobe Illustrator 19.0.0, SVG Export Plug-In . SVG Version: 6.00 Build 0)  -->
<svg version="1.1" id="Capa_1" xmlns="http://www.w3.org/2000/svg" xmlns:xlink="http://www.w3.org/1999/xlink" x="0px" y="0px"
	 viewBox="0 0 512.001 512.001" style="enable-background:new 0 0 512.001 512.001;" xml:space="preserve">
<path style="fill:#2DADE3;" d="M364.689,262.499v75c24.853,0,45-20.147,45-45L364.689,262.499z"/>
<path style="fill:#49C9FF;" d="M379.689,292.499l-15-30l-45,30c0,24.853,20.147,45,45,45
	C372.973,337.499,379.689,317.352,379.689,292.499z"/>
<path style="fill:#9DB55F;" d="M389.689,172.499h-30l20,120h30v-100C409.689,181.453,400.735,172.499,389.689,172.499z"/>
<path style="fill:#B9D171;" d="M359.689,172.499h-20c-11.046,0-20,8.954-20,20v100h60v-100
	C379.689,181.453,370.735,172.499,359.689,172.499z"/>
<path style="fill:#FFB4A9;" d="M364.689,52.499v101l45-46v-10C409.689,72.646,389.542,52.499,364.689,52.499z"/>
<path style="fill:#FFD9D4;" d="M364.689,52.499c-24.853,0-45,20.147-45,45v10l60,46v-56
	C379.689,72.646,372.973,52.499,364.689,52.499z"/>
<path style="fill:#FF6337;" d="M383.398,107.499c-1.053-1.573-2.303-3.002-3.709-4.261l-15,69.261c24.853,0,45-20.147,45-45v-20
	H383.398z"/>
<path style="fill:#FF8646;" d="M379.689,127.499v-24.261c-3.981-3.566-9.235-5.739-15-5.739c-7.801,0-14.672,3.971-18.709,10
	h-26.291v20c0,24.853,20.147,45,45,45C372.973,172.499,379.689,152.352,379.689,127.499z"/>
<circle style="fill:#60312C;" cx="172.309" cy="29.999" r="22.5"/>
<path style="fill:#A45E43;" d="M206.568,68.334c0.01-0.01-34.255-0.005-34.255-0.005v74.17c24.85,0,45-20.15,45-45
	C217.313,86.379,213.268,76.184,206.568,68.334z"/>
<path style="fill:#C27749;" d="M186.203,80.509l-48.145-12.175c-6.7,7.85-10.745,18.045-10.745,29.165c0,24.85,20.15,45,45,45
	c8.28,0,15-20.15,15-45C187.313,91.489,186.923,85.749,186.203,80.509z"/>
<path style="fill:#40211D;" d="M172.313,52.499l13.89,28.01c7.45-2.23,14.475-6.295,20.365-12.175
	C198.318,58.644,186.033,52.499,172.313,52.499z"/>
<path style="fill:#60312C;" d="M172.313,52.499c-13.72,0-26.005,6.145-34.255,15.835c13.04,13.04,31.645,17.105,48.145,12.175
	C183.973,64.079,178.593,52.499,172.313,52.499z"/>
<path style="fill:#2DADE3;" d="M197.313,172.499h-30v120h50v-100C217.313,181.453,208.359,172.499,197.313,172.499z"/>
<path style="fill:#49C9FF;" d="M167.313,172.499h-20c-11.046,0-20,8.954-20,20v100h60v-100
	C187.313,181.453,178.359,172.499,167.313,172.499z"/>
<path style="fill:#FF4128;" d="M217.313,262.499h-30l15,90h30v-50.335C232.313,286.953,226.642,273.074,217.313,262.499z"/>
<path style="fill:#FF6337;" d="M187.313,262.499h-60c-7,7.93-11.82,17.74-13.97,28.54c-3.07,15.4-12.96,61.46-12.96,61.46h101.93
	v-50.335C202.313,286.953,196.642,273.074,187.313,262.499z"/>
<path d="M416.702,299.556c28.408-3.472,50.488-27.727,50.488-57.057c0-29.486-22.313-53.846-50.938-57.115
	c-2.293-8.553-8.616-15.471-16.801-18.589c10.869-9.626,17.739-23.67,17.739-39.296v-30c0-28.948-23.552-52.5-52.5-52.5
	s-52.5,23.552-52.5,52.5v30c0,15.626,6.87,29.67,17.739,39.296c-8.185,3.119-14.507,10.036-16.801,18.589
	c-28.626,3.268-50.938,27.629-50.938,57.115c0,29.331,22.079,53.585,50.488,57.057c1.547,11.458,6.797,21.752,14.512,29.635v159.902
	l-24.872,8.291c-3.93,1.31-6.053,5.557-4.743,9.487c1.048,3.143,3.974,5.13,7.114,5.13c0.786,0,1.586-0.125,2.373-0.387l30-10
	c3.063-1.021,5.128-3.887,5.128-7.115V339.923c6.824,3.251,14.452,5.076,22.5,5.076s15.676-1.825,22.5-5.076v154.576
	c0,3.228,2.065,6.094,5.128,7.115l30,10c0.787,0.262,1.587,0.387,2.373,0.387c3.141,0,6.066-1.988,7.114-5.13
	c1.31-3.929-0.813-8.177-4.743-9.487l-24.872-8.291V329.191C409.904,321.308,415.155,311.014,416.702,299.556z M452.189,242.499
	c0,20.875-15.132,38.27-35,41.824v-83.648C437.058,204.229,452.189,221.624,452.189,242.499z M364.689,59.999
	c20.678,0,37.5,16.823,37.5,37.5v2.5h-15.14c-5.652-6.325-13.745-10-22.36-10s-16.709,3.675-22.361,10h-15.139v-2.5
	C327.189,76.822,344.012,59.999,364.689,59.999z M327.189,127.499v-12.5h18.791c2.503,0,4.84-1.248,6.232-3.328
	c2.797-4.178,7.461-6.672,12.477-6.672c5.015,0,9.679,2.494,12.476,6.672c1.393,2.08,3.729,3.328,6.232,3.328h18.792v12.5
	c0,20.677-16.822,37.5-37.5,37.5S327.189,148.176,327.189,127.499z M339.689,179.999h50c6.893,0,12.5,5.607,12.5,12.5v92.5h-75
	v-92.5C327.189,185.606,332.797,179.999,339.689,179.999z M277.189,242.499c0-20.875,15.132-38.27,35-41.824v83.648
	C292.321,280.769,277.189,263.374,277.189,242.499z M327.944,299.999h73.491c-3.484,17.096-18.635,30-36.745,30
	S331.428,317.095,327.944,299.999z"/>
<path d="M247.312,119.999c-4.143,0-7.5,3.358-7.5,7.5v75c0,9.777-6.271,18.114-15,21.21v-31.21c0-15.164-12.337-27.5-27.5-27.5
	h-17.5v-15.544c25.407-3.651,45-25.554,45-51.956c0-12.814-4.621-24.565-12.275-33.689c-0.205-0.269-0.422-0.532-0.668-0.778
	c-4.777-5.462-10.621-9.915-17.221-13.031c4.762-5.312,7.665-12.323,7.665-20.001c0-16.542-13.458-30-30-30s-30,13.458-30,30
	c0,7.678,2.903,14.69,7.665,20.001c-6.599,3.116-12.442,7.568-17.192,13.004c-0.278,0.275-0.496,0.539-0.702,0.81
	c-7.652,9.124-12.271,20.873-12.271,33.685c0,26.402,19.593,48.304,45,51.956v15.543h-17.5c-15.163,0-27.5,12.336-27.5,27.5v67.263
	c-6.861,8.512-11.62,18.757-13.823,29.808c-3.024,15.171-12.838,60.895-12.937,61.355c-0.476,2.215,0.076,4.526,1.5,6.288
	c1.424,1.762,3.567,2.786,5.833,2.786h2.677l-27.2,128.744l-25.923,8.641c-3.929,1.31-6.053,5.557-4.743,9.487
	c1.048,3.143,3.974,5.13,7.114,5.13c0.786,0,1.586-0.125,2.373-0.387l30-10c2.525-0.842,4.416-2.96,4.966-5.565l28.743-136.05
	h76.419v134.5c0,3.228,2.065,6.094,5.128,7.115l30,10c0.787,0.262,1.587,0.387,2.373,0.387c3.141,0,6.066-1.988,7.114-5.13
	c1.31-3.929-0.814-8.177-4.743-9.487l-24.872-8.291V359.999h22.5c4.143,0,7.5-3.358,7.5-7.5v-50.335
	c0-15.471-5.307-30.417-15-42.406v-20.514c17.096-3.484,30-18.636,30-36.745v-75C254.812,123.357,251.455,119.999,247.312,119.999z
	 M195.344,67.938c-6.742,4.611-14.697,7.098-23.032,7.098c-8.335,0-16.29-2.487-23.032-7.098c6.362-4.968,14.354-7.939,23.032-7.939
	C180.991,59.999,188.983,62.97,195.344,67.938z M157.312,29.999c0-8.271,6.729-15,15-15s15,6.729,15,15s-6.729,15-15,15
	S157.312,38.27,157.312,29.999z M134.812,97.499c0-6.565,1.701-12.739,4.678-18.112c9.49,6.91,20.87,10.648,32.822,10.648
	c11.953,0,23.333-3.739,32.823-10.648c2.977,5.373,4.677,11.546,4.677,18.112c0,18.11-12.904,33.261-30,36.745v-6.745
	c0-4.142-3.357-7.5-7.5-7.5s-7.5,3.358-7.5,7.5v6.745C147.717,130.76,134.812,115.609,134.812,97.499z M147.312,179.999h17.5v37.5
	c0,4.135-3.364,7.5-7.5,7.5c-4.143,0-7.5,3.358-7.5,7.5s3.357,7.5,7.5,7.5c12.406,0,22.5-10.094,22.5-22.5v-37.5h17.5
	c6.893,0,12.5,5.607,12.5,12.5v62.5h-75v-62.5C134.812,185.606,140.42,179.999,147.312,179.999z M224.812,344.999H112.375
	c-0.047,0-2.714,0-2.714,0c3.048-14.258,8.829-41.415,11.039-52.497c1.659-8.323,5.149-16.036,10.148-22.503h82.926
	c7.133,9.183,11.038,20.478,11.038,32.165L224.812,344.999L224.812,344.999z"/>
<g>
</g>
<g>
</g>
<g>
</g>
<g>
</g>
<g>
</g>
<g>
</g>
<g>
</g>
<g>
</g>
<g>
</g>
<g>
</g>
<g>
</g>
<g>
</g>
<g>
</g>
<g>
</g>
<g>
</g>
</svg>
