<?xml version="1.0" encoding="iso-8859-1"?>
<!-- Generator: Adobe Illustrator 19.0.0, SVG Export Plug-In . SVG Version: 6.00 Build 0)  -->
<svg version="1.1" id="Capa_1" xmlns="http://www.w3.org/2000/svg" xmlns:xlink="http://www.w3.org/1999/xlink" x="0px" y="0px"
	 viewBox="0 0 512.001 512.001" style="enable-background:new 0 0 512.001 512.001;" xml:space="preserve">
<path style="fill:#FF8D7E;" d="M249.93,82.499c-6.179-17.476-22.837-30-42.429-30v90c19.592,0,36.25-12.524,42.429-30l-21.215-15
	L249.93,82.499z"/>
<path style="fill:#FFE2A8;" d="M249.93,82.499h-28.286v30h28.286c1.659-4.693,2.571-9.739,2.571-15S251.589,87.192,249.93,82.499z"
	/>
<path style="fill:#FFB4A9;" d="M221.644,82.499c-2.06-17.476-7.613-30-14.143-30c-19.592,0-36.25,12.524-42.429,30l21.215,15
	l-21.215,15c6.179,17.476,22.837,30,42.429,30c6.531,0,12.083-12.524,14.143-30V82.499z"/>
<path style="fill:#FFFFFF;" d="M221.644,82.499h-56.572c-1.659,4.693-2.571,9.739-2.571,15s0.912,10.307,2.571,15h56.572
	c0.553-4.693,0.857-9.739,0.857-15S222.197,87.192,221.644,82.499z"/>
<path style="fill:#60312C;" d="M207.501,262.499v75c24.853,0,45-20.147,45-45L207.501,262.499z"/>
<path style="fill:#85453D;" d="M222.501,292.499l-15-30l-45,30c0,24.853,20.147,45,45,45
	C215.785,337.499,222.501,317.352,222.501,292.499z"/>
<path style="fill:#FFA754;" d="M232.501,172.499h-30l20,120h30v-100C252.501,181.453,243.547,172.499,232.501,172.499z"/>
<path style="fill:#FFCB63;" d="M202.501,172.499h-20c-11.046,0-20,8.954-20,20v100h60v-100
	C222.501,181.453,213.547,172.499,202.501,172.499z"/>
<path style="fill:#2DADE3;" d="M382.501,172.499h-30v120h50v-100C402.501,181.453,393.547,172.499,382.501,172.499z"/>
<path style="fill:#49C9FF;" d="M352.501,172.499h-20c-11.046,0-20,8.954-20,20v100h60v-100
	C372.501,181.453,363.547,172.499,352.501,172.499z"/>
<path style="fill:#FF4128;" d="M402.501,262.499h-30l15,90h30v-50.335C417.501,286.953,411.829,273.074,402.501,262.499z"/>
<path style="fill:#FF6337;" d="M372.501,262.499h-60c-9.329,10.575-15,24.454-15,39.665v50.335h90v-50.335
	C387.501,286.953,381.829,273.074,372.501,262.499z"/>
<circle style="fill:#60312C;" cx="357.5" cy="29.999" r="22.5"/>
<path style="fill:#A45E43;" d="M391.756,68.334c0.01-0.01-34.255-0.005-34.255-0.005v74.17c24.85,0,45-20.15,45-45
	C402.501,86.379,398.456,76.184,391.756,68.334z"/>
<path style="fill:#C27749;" d="M371.391,80.509l-48.145-12.175c-6.7,7.85-10.745,18.045-10.745,29.165c0,24.85,20.15,45,45,45
	c8.28,0,15-20.15,15-45C372.501,91.489,372.111,85.749,371.391,80.509z"/>
<path style="fill:#40211D;" d="M357.501,52.499l13.89,28.01c7.45-2.23,14.475-6.295,20.365-12.175
	C383.506,58.644,371.221,52.499,357.501,52.499z"/>
<path style="fill:#60312C;" d="M357.501,52.499c-13.72,0-26.005,6.145-34.255,15.835c13.04,13.04,31.645,17.105,48.145,12.175
	C369.161,64.079,363.781,52.499,357.501,52.499z"/>
<path d="M117.501,127.499h15c10.085,0,19.428-3.819,26.388-10.202c7.833,19.161,26.666,32.702,48.612,32.702
	c22.719,0,42.107-14.508,49.403-34.743c0.09-0.228,0.169-0.461,0.237-0.7c1.844-5.352,2.86-11.087,2.86-17.057
	s-1.016-11.705-2.86-17.057c-0.068-0.239-0.147-0.472-0.237-0.7c-7.296-20.235-26.685-34.743-49.403-34.743
	c-21.946,0-40.779,13.541-48.612,32.702c-6.96-6.382-16.303-10.202-26.388-10.202h-15c-4.142,0-7.5,3.358-7.5,7.5v45
	C110.001,124.141,113.359,127.499,117.501,127.499z M245.001,97.499c0,2.568-0.261,5.076-0.755,7.5h-73.491
	c-0.494-2.424-0.755-4.932-0.755-7.5s0.261-5.076,0.755-7.5h73.491C244.74,92.423,245.001,94.931,245.001,97.499z M207.501,134.999
	c-12.242,0-23.131-5.898-29.979-15h59.959C230.632,129.101,219.743,134.999,207.501,134.999z M207.501,59.999
	c12.242,0,23.131,5.898,29.979,15h-59.959C184.37,65.897,195.259,59.999,207.501,59.999z M125.001,82.499h7.5
	c10.046,0,18.873,6.075,22.145,15c-3.271,8.925-12.098,15-22.145,15h-7.5C125.001,112.499,125.001,82.499,125.001,82.499z"/>
<path d="M410.001,259.758v-67.259c0-15.164-12.337-27.5-27.5-27.5h-50c-12.563,0-23.178,8.472-26.452,20h-47.096
	c-3.274-11.528-13.889-20-26.452-20h-50c-12.703,0-23.418,8.66-26.562,20.385c-28.625,3.268-50.938,27.629-50.938,57.115
	c0,29.33,22.08,53.585,50.488,57.057c1.547,11.458,6.797,21.752,14.512,29.635v72.954l-77.936,26.767
	c-3.03,1.041-5.064,3.89-5.064,7.093v30c0,4.142,3.358,7.5,7.5,7.5s7.5-3.358,7.5-7.5v-24.646l77.936-26.767
	c3.03-1.041,5.064-3.89,5.064-7.093v-67.576c6.824,3.251,14.452,5.076,22.5,5.076s15.676-1.825,22.5-5.076v154.576
	c0,3.228,2.066,6.094,5.128,7.115l30,10c0.787,0.262,1.587,0.387,2.373,0.387c3.141,0,6.066-1.988,7.114-5.13
	c1.31-3.929-0.813-8.177-4.743-9.487l-24.872-8.291V329.191c9.27-9.472,15-22.423,15-36.692v-52.5h40.074
	c1.648,0,3.29-0.041,4.926-0.113v19.872c-9.693,11.989-15,26.935-15,42.406v50.335c0,4.142,3.357,7.5,7.5,7.5h22.5v129.094
	l-24.872,8.291c-3.929,1.31-6.053,5.557-4.743,9.487c1.048,3.143,3.974,5.13,7.114,5.13c0.786,0,1.586-0.125,2.373-0.387l30-10
	c3.063-1.021,5.128-3.887,5.128-7.115v-134.5h45v129.094l-24.872,8.291c-3.929,1.31-6.053,5.557-4.743,9.487
	c1.048,3.143,3.974,5.13,7.114,5.13c0.786,0,1.586-0.125,2.373-0.387l30-10c3.063-1.021,5.128-3.887,5.128-7.115v-134.5h22.5
	c4.143,0,7.5-3.358,7.5-7.5v-50.335C425.001,286.693,419.694,271.747,410.001,259.758z M120.001,242.499
	c0-20.875,15.132-38.27,35-41.824v83.648C135.133,280.769,120.001,263.374,120.001,242.499z M170.756,299.999h73.491
	c-3.484,17.096-18.635,30-36.745,30S174.24,317.095,170.756,299.999z M245.001,284.999h-75v-92.5c0-6.893,5.607-12.5,12.5-12.5h50
	c6.893,0,12.5,5.607,12.5,12.5v32.5h-7.5c-4.142,0-7.5,3.358-7.5,7.5s3.358,7.5,7.5,7.5h7.5V284.999z M300.075,224.999h-40.074v-25
	h45v24.873C303.366,224.955,301.724,224.999,300.075,224.999z M377.805,197.196c-2.93-2.928-7.678-2.929-10.607,0
	c-13.135,13.135-29.444,21.941-47.196,25.714v-30.411c0-6.893,5.607-12.5,12.5-12.5h50c6.893,0,12.5,5.607,12.5,12.5v62.5h-75
	v-16.798c21.776-3.966,41.819-14.414,57.804-30.399C380.733,204.874,380.733,200.125,377.805,197.196z M410.001,344.999h-105
	v-42.835c0-11.687,3.905-22.982,11.038-32.165h82.923c7.133,9.183,11.038,20.478,11.038,32.165v42.835H410.001z"/>
<path d="M357.501,149.999c28.948,0,52.5-23.552,52.5-52.5c0-12.812-4.62-24.562-12.273-33.686c-0.205-0.27-0.423-0.534-0.67-0.78
	c-4.78-5.463-10.623-9.916-17.222-13.032c4.762-5.312,7.665-12.323,7.665-20.001c0-16.542-13.458-30-30-30s-30,13.458-30,30
	c0,7.678,2.903,14.69,7.665,20.001c-6.599,3.116-12.443,7.569-17.193,13.005c-0.276,0.274-0.495,0.537-0.7,0.807
	C309.62,72.937,305,84.687,305,97.499C305.001,126.447,328.553,149.999,357.501,149.999z M357.501,134.999
	c-20.678,0-37.5-16.823-37.5-37.5c0-6.567,1.702-12.742,4.68-18.116c9.751,7.072,21.284,10.615,32.82,10.615
	s23.069-3.543,32.82-10.615c2.978,5.374,4.68,11.549,4.68,18.116C395.001,118.176,378.178,134.999,357.501,134.999z M334.479,67.93
	c6.36-4.963,14.348-7.931,23.022-7.931s16.662,2.968,23.022,7.931C366.685,77.35,348.316,77.35,334.479,67.93z M342.501,29.999
	c0-8.271,6.729-15,15-15s15,6.729,15,15s-6.729,15-15,15S342.501,38.27,342.501,29.999z"/>
<g>
</g>
<g>
</g>
<g>
</g>
<g>
</g>
<g>
</g>
<g>
</g>
<g>
</g>
<g>
</g>
<g>
</g>
<g>
</g>
<g>
</g>
<g>
</g>
<g>
</g>
<g>
</g>
<g>
</g>
</svg>
