<?xml version="1.0" encoding="iso-8859-1"?>
<!-- Generator: Adobe Illustrator 19.0.0, SVG Export Plug-In . SVG Version: 6.00 Build 0)  -->
<svg version="1.1" id="Capa_1" xmlns="http://www.w3.org/2000/svg" xmlns:xlink="http://www.w3.org/1999/xlink" x="0px" y="0px"
	 viewBox="0 0 512.002 512.002" style="enable-background:new 0 0 512.002 512.002;" xml:space="preserve">
<path style="fill:#2DADE3;" d="M142.501,262.5v75c24.853,0,45-20.147,45-45L142.501,262.5z"/>
<path style="fill:#49C9FF;" d="M157.501,292.5l-15-30l-45,30c0,24.853,20.147,45,45,45C150.785,337.5,157.501,317.353,157.501,292.5
	z"/>
<path style="fill:#9DB55F;" d="M167.501,172.5h-30l20,120h30v-100C187.501,181.454,178.547,172.5,167.501,172.5z"/>
<path style="fill:#B9D171;" d="M137.501,172.5h-20c-11.046,0-20,8.954-20,20v100h60v-100
	C157.501,181.454,148.547,172.5,137.501,172.5z"/>
<path style="fill:#FFB4A9;" d="M142.501,52.5v101l45-46v-10C187.501,72.647,167.354,52.5,142.501,52.5z"/>
<path style="fill:#FFD9D4;" d="M142.501,52.5c-24.853,0-45,20.147-45,45v10l60,46v-56C157.501,72.647,150.785,52.5,142.501,52.5z"/>
<path style="fill:#FF6337;" d="M161.21,107.5c-1.053-1.573-2.303-3.002-3.709-4.261l-15,69.261c24.853,0,45-20.147,45-45v-20H161.21
	z"/>
<path style="fill:#FF8646;" d="M157.501,127.5v-24.261c-3.981-3.566-9.235-5.739-15-5.739c-7.801,0-14.672,3.971-18.709,10H97.501
	v20c0,24.853,20.147,45,45,45C150.785,172.5,157.501,152.353,157.501,127.5z"/>
<path style="fill:#2DADE3;" d="M394.501,172.5h-30v120h50v-100C414.501,181.454,405.547,172.5,394.501,172.5z"/>
<path style="fill:#49C9FF;" d="M364.501,172.5h-20c-11.046,0-20,8.954-20,20v100h60v-100
	C384.501,181.454,375.547,172.5,364.501,172.5z"/>
<path style="fill:#FF4128;" d="M414.501,262.5h-30l15,90h30v-50.335C429.501,286.954,423.83,273.075,414.501,262.5z"/>
<path style="fill:#FF6337;" d="M384.501,262.5h-60c-9.329,10.575-15,24.454-15,39.665V352.5h90v-50.335
	C399.501,286.954,393.83,273.075,384.501,262.5z"/>
<circle style="fill:#60312C;" cx="369.5" cy="30" r="22.5"/>
<path style="fill:#A45E43;" d="M403.756,68.335c0.01-0.01-34.255-0.005-34.255-0.005v74.17c24.85,0,45-20.15,45-45
	C414.501,86.38,410.456,76.185,403.756,68.335z"/>
<path style="fill:#C27749;" d="M383.391,80.51l-48.145-12.175c-6.7,7.85-10.745,18.045-10.745,29.165c0,24.85,20.15,45,45,45
	c8.28,0,15-20.15,15-45C384.501,91.49,384.111,85.75,383.391,80.51z"/>
<path style="fill:#40211D;" d="M369.501,52.5l13.89,28.01c7.45-2.23,14.475-6.295,20.365-12.175
	C395.506,58.645,383.221,52.5,369.501,52.5z"/>
<path style="fill:#60312C;" d="M369.501,52.5c-13.72,0-26.005,6.145-34.255,15.835c13.04,13.04,31.645,17.105,48.145,12.175
	C381.161,64.08,375.781,52.5,369.501,52.5z"/>
<path d="M512.001,102.5c0-4.142-3.358-7.5-7.5-7.5s-7.5,3.358-7.5,7.5c0,43.343-33.605,78.961-76.125,82.229
	c-3.362-11.39-13.91-19.729-26.375-19.729h-50c-12.465,0-23.013,8.339-26.375,19.729c-20.378-1.566-38.707-10.55-52.27-24.273
	c12.023-16.213,19.145-36.268,19.145-57.956c0-4.142-3.358-7.5-7.5-7.5s-7.5,3.358-7.5,7.5c0,16.987-5.164,32.789-14,45.925
	c-8.836-13.136-14-28.938-14-45.925c0-4.142-3.358-7.5-7.5-7.5s-7.5,3.358-7.5,7.5c0,21.689,7.122,41.744,19.145,57.956
	c-13.563,13.723-31.892,22.707-52.27,24.273c-2.435-8.25-8.639-14.895-16.614-17.933c10.869-9.626,17.739-23.67,17.739-39.296v-30
	c0-28.948-23.551-52.5-52.5-52.5s-52.5,23.552-52.5,52.5v30c0,15.626,6.87,29.67,17.739,39.296
	c-7.974,3.039-14.179,9.684-16.614,17.933c-42.52-3.268-76.125-38.886-76.125-82.229c0-4.142-3.358-7.5-7.5-7.5s-7.5,3.358-7.5,7.5
	c0,51.238,39.729,93.372,90,97.214V292.5c0,14.269,5.73,27.22,15,36.692V494.5c0,3.228,2.066,6.094,5.128,7.115l30,10
	c0.787,0.262,1.586,0.387,2.373,0.387c3.14,0,6.066-1.988,7.114-5.13c1.31-3.929-0.814-8.177-4.744-9.487L120,489.094v-149.17
	c6.824,3.251,14.452,5.076,22.5,5.076s15.676-1.825,22.5-5.076V494.5c0,3.228,2.066,6.094,5.128,7.115l30,10
	c0.787,0.262,1.586,0.387,2.373,0.387c3.14,0,6.066-1.988,7.114-5.13c1.31-3.929-0.814-8.177-4.744-9.487l-24.872-8.291V329.192
	c9.27-9.472,15-22.423,15-36.692v-92.786c23.696-1.811,45.045-12.133,61-27.903c15.955,15.77,37.304,26.092,61,27.903v60.045
	c-9.693,11.989-15,26.935-15,42.406V352.5c0,4.142,3.358,7.5,7.5,7.5h22.5v129.094l-24.872,8.291
	c-3.93,1.31-6.053,5.557-4.744,9.487c1.048,3.143,3.974,5.13,7.114,5.13c0.786,0,1.586-0.125,2.373-0.387l30-10
	c3.063-1.021,5.128-3.887,5.128-7.115V360h45v129.094l-24.872,8.291c-3.93,1.31-6.053,5.557-4.744,9.487
	c1.048,3.143,3.974,5.13,7.114,5.13c0.786,0,1.586-0.125,2.373-0.387l30-10c3.063-1.021,5.128-3.887,5.128-7.115V360h22.5
	c4.142,0,7.5-3.358,7.5-7.5v-50.335c0-15.471-5.307-30.417-15-42.406v-60.045C472.272,195.872,512.001,153.738,512.001,102.5z
	 M142.501,60c20.678,0,37.5,16.823,37.5,37.5v2.5h-15.139c-5.652-6.325-13.746-10-22.361-10s-16.708,3.675-22.361,10h-15.139v-2.5
	C105.001,76.823,121.823,60,142.501,60z M105.001,127.5V115h18.792c2.502,0,4.84-1.248,6.232-3.328
	c2.797-4.178,7.461-6.672,12.476-6.672s9.679,2.494,12.476,6.672c1.392,2.08,3.73,3.328,6.232,3.328h18.792v12.5
	c0,20.677-16.822,37.5-37.5,37.5S105.001,148.177,105.001,127.5z M117.501,180h50c6.893,0,12.5,5.607,12.5,12.5V285h-75v-92.5
	C105.001,185.607,110.608,180,117.501,180z M105.756,300h73.491c-3.484,17.096-18.635,30-36.745,30S109.24,317.096,105.756,300z
	 M344.501,180h50c6.893,0,12.5,5.607,12.5,12.5V255h-75v-62.5C332.001,185.607,337.608,180,344.501,180z M422.001,345h-105v-42.835
	c0-11.687,3.905-22.982,11.039-32.165h82.923c7.133,9.183,11.039,20.478,11.039,32.165V345H422.001z"/>
<path d="M369.501,150c28.949,0,52.5-23.552,52.5-52.5c0-12.814-4.62-24.564-12.275-33.689c-0.205-0.269-0.422-0.532-0.668-0.778
	c-4.778-5.462-10.622-9.916-17.222-13.032c4.762-5.312,7.665-12.323,7.665-20.001c0-16.542-13.458-30-30-30s-30,13.458-30,30
	c0,7.678,2.903,14.689,7.665,20.001c-6.6,3.116-12.444,7.57-17.194,13.007c-0.274,0.271-0.491,0.534-0.696,0.803
	c-7.654,9.124-12.275,20.875-12.275,33.689C317.001,126.448,340.552,150,369.501,150z M369.501,135c-20.678,0-37.5-16.823-37.5-37.5
	c0-6.565,1.701-12.739,4.678-18.112c9.49,6.91,20.869,10.648,32.822,10.648s23.332-3.739,32.822-10.648
	c2.977,5.373,4.678,11.547,4.678,18.112C407.001,118.177,390.179,135,369.501,135z M346.469,67.939
	C352.83,62.971,360.823,60,369.501,60s16.671,2.971,23.032,7.939c-6.742,4.611-14.697,7.097-23.032,7.097
	S353.211,72.55,346.469,67.939z M354.501,30c0-8.271,6.729-15,15-15s15,6.729,15,15s-6.729,15-15,15S354.501,38.271,354.501,30z"/>
<g>
</g>
<g>
</g>
<g>
</g>
<g>
</g>
<g>
</g>
<g>
</g>
<g>
</g>
<g>
</g>
<g>
</g>
<g>
</g>
<g>
</g>
<g>
</g>
<g>
</g>
<g>
</g>
<g>
</g>
</svg>
