<?xml version="1.0" encoding="iso-8859-1"?>
<!-- Generator: Adobe Illustrator 19.0.0, SVG Export Plug-In . SVG Version: 6.00 Build 0)  -->
<svg version="1.1" id="Capa_1" xmlns="http://www.w3.org/2000/svg" xmlns:xlink="http://www.w3.org/1999/xlink" x="0px" y="0px"
	 viewBox="0 0 512.002 512.002" style="enable-background:new 0 0 512.002 512.002;" xml:space="preserve">
<circle style="fill:#60312C;" cx="135" cy="30" r="22.5"/>
<path style="fill:#A45E43;" d="M169.256,68.335c0.01-0.01-34.255-0.005-34.255-0.005v74.17c24.85,0,45-20.15,45-45
	C180.001,86.38,175.956,76.185,169.256,68.335z"/>
<path style="fill:#C27749;" d="M148.891,80.51l-48.145-12.175c-6.7,7.85-10.745,18.045-10.745,29.165c0,24.85,20.15,45,45,45
	c8.28,0,15-20.15,15-45C150.001,91.49,149.611,85.75,148.891,80.51z"/>
<path style="fill:#40211D;" d="M135.001,52.5l13.89,28.01c7.45-2.23,14.475-6.295,20.365-12.175
	C161.006,58.645,148.721,52.5,135.001,52.5z"/>
<path style="fill:#60312C;" d="M135.001,52.5c-13.72,0-26.005,6.145-34.255,15.835c13.04,13.04,31.645,17.105,48.145,12.175
	C146.661,64.08,141.281,52.5,135.001,52.5z"/>
<path style="fill:#FFF0D3;" d="M362.001,22.5v240c66.168,0,120-53.832,120-120S428.169,22.5,362.001,22.5z"/>
<path style="fill:#FFFFFF;" d="M452.001,142.5c0-66.168-40.374-120-90-120c-60.676,0-110.971,45.269-118.903,103.806L204.001,142.5
	l39.097,16.194C251.03,217.231,301.325,262.5,362.001,262.5C411.627,262.5,452.001,208.668,452.001,142.5z"/>
<path style="fill:#2DADE3;" d="M160.001,172.5h-30v120h50v-100C180.001,181.454,171.047,172.5,160.001,172.5z"/>
<path style="fill:#49C9FF;" d="M130.001,172.5h-20c-11.046,0-20,8.954-20,20v100h60v-100
	C150.001,181.454,141.047,172.5,130.001,172.5z"/>
<path style="fill:#FF4128;" d="M180.001,262.5h-30l15,90h30v-50.335C195.001,286.954,189.33,273.075,180.001,262.5z"/>
<path style="fill:#FF6337;" d="M150.001,262.5h-60c-9.329,10.575-15,24.454-15,39.665V352.5h90v-50.335
	C165.001,286.954,159.33,273.075,150.001,262.5z"/>
<path style="fill:#CF301B;" d="M400.487,77.445c-2.921,0-5.771,0.3-8.531,0.843L362.001,227.94c0,0,82.5-44.833,82.5-106.481
	C444.501,97.15,424.795,77.445,400.487,77.445z"/>
<path style="fill:#FF4128;" d="M414.501,121.458c0-21.369-9.692-39.175-22.545-43.17c-12.902,2.541-23.774,10.718-29.955,21.868
	c-7.504-13.536-21.913-22.711-38.487-22.711c-24.308,0-44.013,19.705-44.013,44.013c0,61.648,82.5,106.481,82.5,106.481
	S414.501,183.107,414.501,121.458z"/>
<path d="M135.001,60c-16.542,0-30-13.458-30-30s13.458-30,30-30s30,13.458,30,30S151.543,60,135.001,60z M135.001,15
	c-8.271,0-15,6.729-15,15s6.729,15,15,15s15-6.729,15-15S143.272,15,135.001,15z"/>
<path d="M135.001,90.036c-14.936,0-28.984-5.823-39.557-16.397c-2.929-2.929-2.929-7.678,0-10.606c2.929-2.929,7.678-2.929,10.606,0
	c7.74,7.74,18.022,12.003,28.951,12.003s21.21-4.263,28.951-12.003c2.929-2.929,7.678-2.929,10.606,0
	c2.929,2.929,2.929,7.677,0,10.606C163.985,84.213,149.937,90.036,135.001,90.036z"/>
<path d="M135.001,150c-28.949,0-52.5-23.552-52.5-52.5s23.551-52.5,52.5-52.5s52.5,23.552,52.5,52.5S163.95,150,135.001,150z
	 M135.001,60c-20.678,0-37.5,16.823-37.5,37.5s16.822,37.5,37.5,37.5s37.5-16.823,37.5-37.5S155.679,60,135.001,60z"/>
<path d="M362.001,270c-62.045,0-115.317-45.266-125.677-105.993l-35.193-14.577c-2.803-1.161-4.63-3.896-4.63-6.929
	s1.827-5.768,4.63-6.929l35.194-14.578c3.515-20.558,12.111-40.058,25.004-56.635c2.542-3.27,7.254-3.859,10.525-1.316
	c3.27,2.543,3.859,7.255,1.316,10.525c-12.167,15.644-19.996,34.229-22.641,53.746c-0.358,2.645-2.096,4.9-4.562,5.922L223.6,142.5
	l22.368,9.265c2.466,1.021,4.204,3.277,4.562,5.922C258.047,213.165,305.97,255,362.001,255c62.033,0,112.5-50.467,112.5-112.5
	S424.034,30,362.001,30c-25.199,0-49.036,8.183-68.936,23.665c-3.269,2.544-7.981,1.955-10.525-1.314
	c-2.543-3.269-1.955-7.981,1.314-10.525C306.412,24.276,333.435,15,362.001,15c70.304,0,127.5,57.196,127.5,127.5
	S432.305,270,362.001,270z"/>
<path d="M195.002,512.002c-0.786,0-1.586-0.125-2.373-0.387l-30-10c-3.063-1.021-5.128-3.887-5.128-7.115v-142
	c0-4.142,3.358-7.5,7.5-7.5s7.5,3.358,7.5,7.5v136.594l24.872,8.291c3.93,1.31,6.053,5.557,4.744,9.487
	C201.068,510.014,198.142,512.002,195.002,512.002z"/>
<path d="M75,512.002c-3.141,0-6.066-1.987-7.114-5.13c-1.31-3.929,0.814-8.177,4.744-9.487l24.872-8.291V352.5
	c0-4.142,3.358-7.5,7.5-7.5s7.5,3.358,7.5,7.5v142c0,3.228-2.066,6.094-5.128,7.115l-30,10
	C76.586,511.877,75.786,512.002,75,512.002z"/>
<path d="M180.001,270h-90c-4.142,0-7.5-3.358-7.5-7.5s3.358-7.5,7.5-7.5h90c4.142,0,7.5,3.358,7.5,7.5S184.143,270,180.001,270z"/>
<path d="M195.001,360h-120c-4.142,0-7.5-3.358-7.5-7.5v-50.335c0-15.471,5.307-30.417,15-42.406V192.5
	c0-15.164,12.336-27.5,27.5-27.5h50c15.164,0,27.5,12.336,27.5,27.5v67.259c9.693,11.989,15,26.935,15,42.406V352.5
	C202.501,356.642,199.143,360,195.001,360z M82.501,345h105v-42.835c0-12.785-4.661-25.109-13.125-34.704
	c-1.208-1.37-1.875-3.134-1.875-4.961v-70c0-6.893-5.607-12.5-12.5-12.5h-50c-6.893,0-12.5,5.607-12.5,12.5v70
	c0,1.827-0.667,3.591-1.875,4.961c-8.463,9.594-13.125,21.919-13.125,34.704C82.501,302.165,82.501,345,82.501,345z"/>
<path d="M225.001,345c-4.142,0-7.5-3.358-7.5-7.5v-36.362c0-39.035-15.202-75.733-42.803-103.335c-2.929-2.929-2.929-7.678,0-10.606
	c2.929-2.929,7.678-2.929,10.606,0c30.435,30.435,47.196,70.9,47.197,113.942V337.5C232.501,341.642,229.143,345,225.001,345z"/>
<path d="M362.001,235.439c-1.232,0-2.464-0.303-3.581-0.91c-3.529-1.917-86.419-47.714-86.419-113.071
	c0-28.405,23.109-51.513,51.513-51.513c14.866,0,28.823,6.437,38.487,17.313c9.664-10.876,23.621-17.313,38.486-17.313
	c28.405,0,51.514,23.109,51.514,51.513c0,65.357-82.89,111.153-86.419,113.071C364.465,235.136,363.233,235.439,362.001,235.439z
	 M323.514,84.945c-20.133,0-36.513,16.38-36.513,36.513c0,49.386,59.608,88.523,75,97.803c15.392-9.28,75-48.417,75-97.803
	c0-20.134-16.38-36.513-36.514-36.513c-13.249,0-25.482,7.222-31.927,18.847c-1.322,2.384-3.833,3.864-6.56,3.864
	s-5.238-1.479-6.56-3.864C348.997,92.167,336.763,84.945,323.514,84.945z"/>
<path d="M362.006,197.656c-2.251,0-4.476-1.009-5.953-2.932l-15.75-20.503c-2.07-2.694-2.07-6.443,0-9.138l12.24-15.935
	l-12.24-15.935c-1.818-2.367-2.06-5.586-0.616-8.198l15.75-28.489c2.005-3.625,6.568-4.939,10.193-2.935
	c3.625,2.004,4.939,6.567,2.935,10.192l-13.373,24.189l12.756,16.607c2.07,2.694,2.07,6.443,0,9.138l-12.24,15.935l12.24,15.935
	c2.523,3.285,1.906,7.993-1.379,10.517C365.208,197.15,363.601,197.656,362.006,197.656z"/>
<path d="M120.001,230h-75c-12.407,0-22.5-10.094-22.5-22.5s10.093-22.5,22.5-22.5h45c4.142,0,7.5,3.358,7.5,7.5s-3.358,7.5-7.5,7.5
	h-45c-4.136,0-7.5,3.365-7.5,7.5s3.364,7.5,7.5,7.5h75c4.136,0,7.5-3.365,7.5-7.5c0-4.142,3.358-7.5,7.5-7.5s7.5,3.358,7.5,7.5
	C142.501,219.906,132.408,230,120.001,230z"/>
<g>
</g>
<g>
</g>
<g>
</g>
<g>
</g>
<g>
</g>
<g>
</g>
<g>
</g>
<g>
</g>
<g>
</g>
<g>
</g>
<g>
</g>
<g>
</g>
<g>
</g>
<g>
</g>
<g>
</g>
</svg>
