<?xml version="1.0" encoding="iso-8859-1"?>
<!-- Generator: Adobe Illustrator 19.0.0, SVG Export Plug-In . SVG Version: 6.00 Build 0)  -->
<svg version="1.1" id="Capa_1" xmlns="http://www.w3.org/2000/svg" xmlns:xlink="http://www.w3.org/1999/xlink" x="0px" y="0px"
	 viewBox="0 0 512.002 512.002" style="enable-background:new 0 0 512.002 512.002;" xml:space="preserve">
<path style="fill:#696969;" d="M256.581,22.5l102.98,119.89c11.21,1.44,22.04,6.48,30.66,15.1
	C390.221,83.39,330.521,23.23,256.581,22.5z"/>
<g>
	<path style="fill:#808080;" d="M120.221,157.49c20.73-20.73,54.27-20.73,75,0l60-135C180.661,22.49,120.221,82.93,120.221,157.49z"
		/>
	<path style="fill:#808080;" d="M256.581,22.5h-0.58l59.22,134.99c12.11-12.11,28.59-17.15,44.34-15.1
		C353.781,75.5,309.981,23.37,256.581,22.5z"/>
</g>
<path style="fill:#696969;" d="M256.001,22.5c33.14,0,60,60.44,60,135c-33.16-33.16-86.84-33.16-120,0
	C196.001,82.94,222.861,22.5,256.001,22.5z"/>
<path style="fill:#808080;" d="M281.001,172.5h-30v120h50v-100C301.001,181.454,292.047,172.5,281.001,172.5z"/>
<path style="fill:#B3B3B3;" d="M251.001,172.5h-20c-11.046,0-20,8.954-20,20v100h60v-100
	C271.001,181.454,262.047,172.5,251.001,172.5z"/>
<path style="fill:#353535;" d="M301.001,262.5h-30l15,90h30v-50.335C316.001,286.954,310.33,273.075,301.001,262.5z"/>
<path style="fill:#4F4F4F;" d="M271.001,262.5h-60c-9.329,10.575-15,24.454-15,39.665V352.5h90v-50.335
	C286.001,286.954,280.33,273.075,271.001,262.5z"/>
<g>
	<path style="fill:#116F97;" d="M158.501,194.454c-4.143,0-7.5-3.358-7.5-7.5v-15c0-4.142,3.357-7.5,7.5-7.5s7.5,3.358,7.5,7.5v15
		C166.001,191.096,162.644,194.454,158.501,194.454z"/>
	<path style="fill:#116F97;" d="M121.001,210c-4.143,0-7.5-3.358-7.5-7.5v-15c0-4.142,3.357-7.5,7.5-7.5c4.143,0,7.5,3.358,7.5,7.5
		v15C128.501,206.642,125.144,210,121.001,210z"/>
	<path style="fill:#116F97;" d="M139.751,249.5c-4.143,0-7.5-3.358-7.5-7.5v-15c0-4.142,3.357-7.5,7.5-7.5s7.5,3.358,7.5,7.5v15
		C147.251,246.142,143.894,249.5,139.751,249.5z"/>
	<path style="fill:#116F97;" d="M353.501,194.454c-4.143,0-7.5-3.358-7.5-7.5v-15c0-4.142,3.357-7.5,7.5-7.5s7.5,3.358,7.5,7.5v15
		C361.001,191.096,357.644,194.454,353.501,194.454z"/>
	<path style="fill:#116F97;" d="M391.001,210c-4.143,0-7.5-3.358-7.5-7.5v-15c0-4.142,3.357-7.5,7.5-7.5s7.5,3.358,7.5,7.5v15
		C398.501,206.642,395.144,210,391.001,210z"/>
	<path style="fill:#116F97;" d="M121.001,289c-4.143,0-7.5-3.358-7.5-7.5v-15c0-4.142,3.357-7.5,7.5-7.5c4.143,0,7.5,3.358,7.5,7.5
		v15C128.501,285.642,125.144,289,121.001,289z"/>
	<path style="fill:#116F97;" d="M391.001,289c-4.143,0-7.5-3.358-7.5-7.5v-15c0-4.142,3.357-7.5,7.5-7.5s7.5,3.358,7.5,7.5v15
		C398.501,285.642,395.144,289,391.001,289z"/>
	<path style="fill:#116F97;" d="M372.251,249.5c-4.143,0-7.5-3.358-7.5-7.5v-15c0-4.142,3.357-7.5,7.5-7.5s7.5,3.358,7.5,7.5v15
		C379.751,246.142,376.394,249.5,372.251,249.5z"/>
</g>
<path d="M281.001,165h-50c-14.061,0-25.683,10.61-27.301,24.243c-29.164,30.191-45.198,69.809-45.199,111.896V337.5
	c0,4.142,3.357,7.5,7.5,7.5s7.5-3.358,7.5-7.5v-36.361c0.001-32.497,10.545-63.369,30-88.727v47.348
	c-9.693,11.99-15,26.936-15,42.406V352.5c0,4.142,3.357,7.5,7.5,7.5h22.5v129.094l-24.872,8.291
	c-3.929,1.31-6.053,5.557-4.743,9.487c1.048,3.143,3.974,5.13,7.114,5.13c0.786,0,1.586-0.125,2.373-0.387l30-10
	c3.063-1.021,5.128-3.887,5.128-7.115V360h45v134.5c0,3.228,2.065,6.094,5.128,7.115l30,10c0.787,0.262,1.587,0.387,2.373,0.387
	c3.141,0,6.066-1.988,7.114-5.13c1.31-3.929-0.814-8.177-4.743-9.487l-24.872-8.291V360h22.5c4.143,0,7.5-3.358,7.5-7.5v-50.335
	c0-15.471-5.307-30.417-15-42.406v-47.348c19.456,25.358,30,56.23,30,88.727V337.5c0,4.142,3.357,7.5,7.5,7.5s7.5-3.358,7.5-7.5
	v-36.362c0-42.087-16.035-81.704-45.2-111.896C306.684,175.61,295.062,165,281.001,165z M231.001,180h50
	c6.892,0,12.499,5.606,12.5,12.498c0,0.008,0,62.502,0,62.502h-75v-62.495C218.502,185.606,224.109,180,231.001,180z M308.501,345
	h-105v-42.835c0-11.686,3.905-22.981,11.039-32.165h82.923c7.133,9.183,11.038,20.478,11.038,32.165V345z"/>
<path d="M263.501,15.197V7.5c0-4.142-3.357-7.5-7.5-7.5s-7.5,3.358-7.5,7.5v7.697c-75.103,3.913-135,66.244-135,142.303
	c0,3.033,1.827,5.768,4.63,6.929s6.027,0.519,8.174-1.626c8.607-8.608,20.042-13.349,32.196-13.349s23.589,4.741,32.196,13.349
	c0.197,0.192,0.369,0.349,0.55,0.497c0.087,0.071,0.178,0.133,0.268,0.2c0.107,0.08,0.211,0.163,0.322,0.237
	c0.107,0.071,0.217,0.133,0.327,0.199c0.1,0.06,0.198,0.123,0.302,0.178c0.113,0.06,0.228,0.111,0.343,0.165
	c0.107,0.051,0.212,0.104,0.322,0.149c0.112,0.046,0.226,0.084,0.34,0.124c0.117,0.042,0.233,0.087,0.353,0.123
	c0.115,0.035,0.231,0.06,0.347,0.089c0.121,0.03,0.241,0.064,0.364,0.089c0.135,0.027,0.272,0.043,0.408,0.062
	c0.106,0.015,0.21,0.035,0.317,0.046c0.493,0.049,0.99,0.049,1.482,0c0.107-0.01,0.211-0.031,0.317-0.046
	c0.136-0.019,0.273-0.036,0.408-0.062c0.123-0.024,0.243-0.058,0.364-0.089c0.116-0.029,0.232-0.055,0.347-0.089
	c0.12-0.036,0.236-0.081,0.353-0.124c0.113-0.041,0.227-0.078,0.339-0.124c0.11-0.046,0.216-0.099,0.323-0.15
	c0.115-0.054,0.23-0.105,0.342-0.165c0.103-0.055,0.201-0.118,0.302-0.178c0.11-0.065,0.22-0.127,0.327-0.199
	c0.111-0.074,0.216-0.157,0.322-0.237c0.089-0.067,0.181-0.129,0.268-0.2c0.18-0.148,0.353-0.305,0.519-0.469
	c14.654-14.651,34.079-22.704,54.727-22.704s40.073,8.053,54.696,22.676c0.197,0.192,0.369,0.349,0.55,0.497
	c0.087,0.071,0.178,0.133,0.268,0.2c0.107,0.08,0.211,0.163,0.322,0.237c0.107,0.071,0.217,0.133,0.327,0.199
	c0.1,0.06,0.198,0.123,0.302,0.178c0.113,0.06,0.228,0.111,0.343,0.165c0.107,0.051,0.212,0.104,0.322,0.149
	c0.112,0.046,0.226,0.084,0.34,0.124c0.117,0.042,0.233,0.087,0.353,0.123c0.115,0.035,0.231,0.06,0.347,0.089
	c0.121,0.03,0.241,0.064,0.364,0.089c0.135,0.027,0.272,0.043,0.408,0.062c0.106,0.015,0.21,0.035,0.317,0.046
	c0.493,0.049,0.99,0.049,1.482,0c0.107-0.01,0.211-0.031,0.317-0.046c0.136-0.019,0.273-0.036,0.408-0.062
	c0.123-0.024,0.243-0.058,0.364-0.089c0.116-0.029,0.232-0.055,0.347-0.089c0.12-0.036,0.236-0.081,0.353-0.124
	c0.113-0.041,0.227-0.078,0.339-0.124c0.11-0.046,0.216-0.099,0.323-0.15c0.115-0.054,0.23-0.105,0.342-0.165
	c0.103-0.055,0.201-0.118,0.302-0.178c0.11-0.065,0.22-0.127,0.327-0.199c0.111-0.074,0.216-0.157,0.322-0.237
	c0.089-0.067,0.181-0.129,0.268-0.2c0.18-0.148,0.353-0.305,0.519-0.469c8.638-8.636,20.073-13.377,32.227-13.377
	s23.589,4.741,32.196,13.349c1.436,1.435,3.354,2.197,5.306,2.197c0.966,0,1.94-0.187,2.868-0.571
	c2.803-1.161,4.63-3.896,4.63-6.929C398.501,81.441,338.604,19.11,263.501,15.197z M203.961,141.197
	c0.846-15.254,2.862-30.127,5.969-43.707c0.923-4.038-1.602-8.06-5.64-8.983c-4.036-0.923-8.06,1.602-8.983,5.639
	c-3.5,15.303-5.645,31.557-6.441,48.469c-9.129-5.316-19.528-8.16-30.364-8.16c-10.315,0-20.24,2.567-29.045,7.4
	c6.285-51.146,42.977-93.017,91.382-106.924c-6.073,7.669-11.559,17.452-16.285,29.197c-1.546,3.843,0.315,8.211,4.158,9.757
	c3.842,1.546,8.212-0.315,9.758-4.158C228.627,44.479,242.307,30,256.001,30c12.697,0,25.663,12.789,35.573,35.087
	c9.202,20.705,14.901,47.289,16.469,76.112c-15.226-10.438-33.201-16.072-52.043-16.072
	C237.16,125.127,219.186,130.76,203.961,141.197z M353.501,134.454c-10.835,0-21.233,2.843-30.361,8.158
	c-1.493-31.486-7.696-60.752-17.859-83.618c-4.219-9.494-8.989-17.552-14.183-24.083c48.438,13.888,85.16,55.773,91.448,106.942
	C373.741,137.021,363.816,134.454,353.501,134.454z"/>
<g>
</g>
<g>
</g>
<g>
</g>
<g>
</g>
<g>
</g>
<g>
</g>
<g>
</g>
<g>
</g>
<g>
</g>
<g>
</g>
<g>
</g>
<g>
</g>
<g>
</g>
<g>
</g>
<g>
</g>
</svg>
