<?xml version="1.0" encoding="iso-8859-1"?>
<!-- Generator: Adobe Illustrator 19.0.0, SVG Export Plug-In . SVG Version: 6.00 Build 0)  -->
<svg version="1.1" id="Capa_1" xmlns="http://www.w3.org/2000/svg" xmlns:xlink="http://www.w3.org/1999/xlink" x="0px" y="0px"
	 viewBox="0 0 512.002 512.002" style="enable-background:new 0 0 512.002 512.002;" xml:space="preserve">
<path style="fill:#2DADE3;" d="M62.501,262.5v75c24.853,0,45-20.147,45-45L62.501,262.5z"/>
<path style="fill:#49C9FF;" d="M77.501,292.5l-15-30l-45,30c0,24.853,20.147,45,45,45C70.785,337.5,77.501,317.353,77.501,292.5z"/>
<path style="fill:#9DB55F;" d="M87.501,172.5h-30l20,120h30v-100C107.501,181.454,98.547,172.5,87.501,172.5z"/>
<path style="fill:#B9D171;" d="M57.501,172.5h-20c-11.046,0-20,8.954-20,20v100h60v-100C77.501,181.454,68.547,172.5,57.501,172.5z"
	/>
<path style="fill:#FFB4A9;" d="M62.501,52.5v101l45-46v-10C107.501,72.647,87.354,52.5,62.501,52.5z"/>
<path style="fill:#FFD9D4;" d="M62.501,52.5c-24.853,0-45,20.147-45,45v10l60,46v-56C77.501,72.647,70.785,52.5,62.501,52.5z"/>
<path style="fill:#FF6337;" d="M81.21,107.5c-1.053-1.573-2.303-3.002-3.709-4.261l-15,69.261c24.853,0,45-20.147,45-45v-20H81.21z"
	/>
<path style="fill:#FF8646;" d="M77.501,127.5v-24.261c-3.981-3.566-9.235-5.739-15-5.739c-7.801,0-14.672,3.971-18.709,10H17.501v20
	c0,24.853,20.147,45,45,45C70.785,172.5,77.501,152.353,77.501,127.5z"/>
<path style="fill:#4F4F4F;" d="M237.501,172.5h-30v120h50v-100C257.501,181.454,248.547,172.5,237.501,172.5z"/>
<path style="fill:#696969;" d="M207.501,172.5h-20c-11.046,0-20,8.954-20,20v100h60v-100
	C227.501,181.454,218.547,172.5,207.501,172.5z"/>
<path style="fill:#353535;" d="M257.501,262.5h-30l15,90h30v-50.335C272.501,286.954,266.83,273.075,257.501,262.5z"/>
<path style="fill:#4F4F4F;" d="M227.501,262.5h-60v90h75v-50.335C242.501,286.954,236.83,273.075,227.501,262.5z"/>
<polygon style="fill:#808080;" points="442.954,292.5 391.001,489.5 472.001,489.5 472.001,292.5 "/>
<path style="fill:#999999;" d="M391.001,262.5c-22.205,0-41.577,12.071-51.953,30h-29.047v197h132.953v-197
	C432.578,274.571,413.206,262.5,391.001,262.5z"/>
<path style="fill:#CCCCCC;" d="M421.001,322.5c0-16.542-13.458-30-30-30s-30,13.458-30,30h-21v122h102v-122H421.001z"/>
<polygon style="fill:#B3B3B3;" points="464.501,474.5 449.501,489.5 464.501,504.5 494.501,504.5 494.501,474.5 "/>
<rect x="287.5" y="474.5" style="fill:#CCCCCC;" width="177" height="30"/>
<path style="fill:#353535;" d="M197.501,7.5l15,80l30-35C242.501,27.647,222.354,7.5,197.501,7.5z"/>
<path style="fill:#4F4F4F;" d="M197.501,7.5c-24.853,0-45,20.147-45,45l60,35v-35C212.501,27.647,205.785,7.5,197.501,7.5z"/>
<path style="fill:#808080;" d="M212.501,52.5l-20,55l20,32.042c1.92-1.197,4.236-2.042,7.502-2.042c11.249,0,11.249,10,22.498,10
	v-95L212.501,52.5L212.501,52.5z"/>
<path style="fill:#999999;" d="M152.501,52.5v95c11.251,0,11.251-10,22.502-10c11.251,0,11.251,10,22.502,10
	c7.983,0,10.304-5.033,14.996-7.958V52.5H152.501z"/>
<path d="M442.001,315h-14.253c-3.485-17.095-18.638-30-36.747-30s-33.262,12.905-36.747,30h-14.253c-4.143,0-7.5,3.358-7.5,7.5v122
	c0,4.142,3.357,7.5,7.5,7.5s7.5-3.358,7.5-7.5V330h13.5c4.143,0,7.5-3.358,7.5-7.5c0-12.406,10.094-22.5,22.5-22.5
	s22.5,10.094,22.5,22.5c0,4.142,3.357,7.5,7.5,7.5h13.5v114.5c0,4.142,3.357,7.5,7.5,7.5s7.5-3.358,7.5-7.5v-122
	C449.501,318.358,446.144,315,442.001,315z"/>
<path d="M494.501,467h-15V292.5c0-4.142-3.357-7.5-7.5-7.5h-24.89c-12.468-18.609-33.58-30-56.11-30s-43.643,11.391-56.11,30h-24.89
	c-4.143,0-7.5,3.358-7.5,7.5V467h-15c-4.143,0-7.5,3.358-7.5,7.5v30c0,4.142,3.357,7.5,7.5,7.5h207c4.143,0,7.5-3.358,7.5-7.5v-30
	C502.001,470.358,498.644,467,494.501,467z M317.501,300h21.547c2.677,0,5.15-1.427,6.491-3.743
	C354.912,280.061,372.332,270,391.001,270s36.089,10.061,45.462,26.257c1.341,2.317,3.814,3.743,6.491,3.743h21.547v167h-147V300z
	 M487.001,497h-192v-15h192V497z"/>
<path d="M412.001,345h-42c-4.143,0-7.5,3.358-7.5,7.5s3.357,7.5,7.5,7.5h42c4.143,0,7.5-3.358,7.5-7.5S416.144,345,412.001,345z"/>
<path d="M122.501,60h22.5v87.5c0,4.142,3.358,7.5,7.5,7.5c8.477,0,13.145-4.149,16.233-6.894c2.471-2.197,3.495-3.106,6.269-3.106
	s3.797,0.909,6.269,3.106c3.089,2.745,7.756,6.894,16.233,6.894s13.144-4.149,16.232-6.895c2.471-2.196,3.494-3.105,6.267-3.105
	c2.772,0,3.795,0.909,6.266,3.105c3.088,2.746,7.755,6.895,16.232,6.895c4.142,0,7.5-3.358,7.5-7.5V60h22.5
	c4.143,0,7.5-3.358,7.5-7.5s-3.357-7.5-7.5-7.5h-23.044c-3.651-25.407-25.554-45-51.956-45s-48.304,19.593-51.956,45h-23.044
	c-4.142,0-7.5,3.358-7.5,7.5S118.359,60,122.501,60z M235.001,135.812c-3.078-2.634-7.579-5.812-14.998-5.812
	c-8.477,0-13.144,4.149-16.232,6.895c-2.471,2.196-3.494,3.105-6.267,3.105c-2.774,0-3.797-0.909-6.268-3.106
	c-3.089-2.745-7.756-6.894-16.233-6.894c-7.421,0-11.923,3.18-15.002,5.814V60h75V135.812z M197.501,15
	c18.11,0,33.261,12.904,36.745,30h-73.491C164.24,27.904,179.391,15,197.501,15z"/>
<path d="M280.001,302.165c0-15.471-5.307-30.417-15-42.406V192.5c0-15.164-12.336-27.5-27.5-27.5h-50
	c-12.563,0-23.178,8.472-26.452,20h-47.096c-2.378-8.375-8.63-15.132-16.691-18.204c10.869-9.626,17.739-23.67,17.739-39.296v-30
	c0-28.948-23.551-52.5-52.5-52.5s-52.5,23.552-52.5,52.5v30c0,15.626,6.87,29.67,17.739,39.296
	c-10.358,3.947-17.739,13.977-17.739,25.704v100c0,14.269,5.73,27.22,15,36.692V494.5c0,3.228,2.066,6.094,5.128,7.115l30,10
	c0.787,0.262,1.586,0.387,2.373,0.387c3.14,0,6.066-1.988,7.114-5.13c1.31-3.929-0.814-8.177-4.744-9.487L40,489.094v-149.17
	C46.824,343.175,54.452,345,62.5,345s15.676-1.825,22.5-5.076V494.5c0,3.228,2.066,6.094,5.128,7.115l30,10
	c0.787,0.262,1.586,0.387,2.373,0.387c3.14,0,6.066-1.988,7.114-5.13c1.31-3.929-0.814-8.177-4.744-9.487l-24.872-8.291V329.192
	c9.27-9.472,15-22.423,15-36.692v-52.613c1.636,0.072,3.278,0.113,4.926,0.113h40.074v112.5c0,4.142,3.358,7.5,7.5,7.5h7.5v129.094
	l-24.872,8.291c-3.93,1.31-6.053,5.557-4.744,9.487c1.048,3.143,3.974,5.13,7.114,5.13c0.786,0,1.586-0.125,2.373-0.387l30-10
	c3.063-1.021,5.128-3.887,5.128-7.115V360h45v129.094l-24.872,8.291c-3.93,1.31-6.053,5.557-4.744,9.487
	c1.048,3.143,3.974,5.13,7.114,5.13c0.786,0,1.586-0.125,2.373-0.387l30-10c3.063-1.021,5.128-3.887,5.128-7.115V360h22.5
	c4.143,0,7.5-3.358,7.5-7.5v-50.335H280.001z M62.501,60c20.678,0,37.5,16.823,37.5,37.5v2.5H84.862
	c-5.652-6.325-13.746-10-22.361-10s-16.708,3.675-22.361,10H25.001v-2.5C25.001,76.823,41.823,60,62.501,60z M25.001,127.5V115
	h18.792c2.502,0,4.84-1.248,6.232-3.328c2.797-4.178,7.461-6.672,12.476-6.672s9.679,2.494,12.476,6.672
	c1.392,2.08,3.73,3.328,6.232,3.328h18.792v12.5c0,20.677-16.822,37.5-37.5,37.5S25.001,148.177,25.001,127.5z M25.756,300h73.491
	c-3.484,17.096-18.635,30-36.745,30S29.24,317.096,25.756,300z M100.001,285h-75v-92.5c0-6.893,5.607-12.5,12.5-12.5h50
	c6.893,0,12.5,5.607,12.5,12.5v30.41c-17.752-3.773-34.061-12.578-47.197-25.714c-2.929-2.929-7.678-2.929-10.606,0
	c-2.929,2.929-2.929,7.678,0,10.606c15.985,15.985,36.027,26.433,57.803,30.399C100.001,238.201,100.001,285,100.001,285z
	 M119.927,225c-1.649,0-3.291-0.044-4.926-0.127V200h45v25H119.927z M182.501,225h-7.5v-32.5c0-6.893,5.607-12.5,12.5-12.5h50
	c6.893,0,12.5,5.607,12.5,12.5V255h-14.993v-52.5c0-4.142-3.358-7.5-7.5-7.5s-7.5,3.358-7.5,7.5V255h-45.007v-15h7.5
	c4.142,0,7.5-3.358,7.5-7.5S186.643,225,182.501,225z M265.001,345h-90v-75h45.007v52.5c0,4.142,3.358,7.5,7.5,7.5
	s7.5-3.358,7.5-7.5V270h18.954c7.133,9.183,11.039,20.478,11.039,32.165V345z"/>
<g>
</g>
<g>
</g>
<g>
</g>
<g>
</g>
<g>
</g>
<g>
</g>
<g>
</g>
<g>
</g>
<g>
</g>
<g>
</g>
<g>
</g>
<g>
</g>
<g>
</g>
<g>
</g>
<g>
</g>
</svg>
