<?xml version="1.0" encoding="iso-8859-1"?>
<!-- Generator: Adobe Illustrator 19.0.0, SVG Export Plug-In . SVG Version: 6.00 Build 0)  -->
<svg version="1.1" id="Capa_1" xmlns="http://www.w3.org/2000/svg" xmlns:xlink="http://www.w3.org/1999/xlink" x="0px" y="0px"
	 viewBox="0 0 512.002 512.002" style="enable-background:new 0 0 512.002 512.002;" xml:space="preserve">
<path style="fill:#4F4F4F;" d="M170.001,172.5h-30v120h50v-100C190.001,181.454,181.047,172.5,170.001,172.5z"/>
<path style="fill:#696969;" d="M140.001,172.5h-20c-11.046,0-20,8.954-20,20v100h60v-100
	C160.001,181.454,151.047,172.5,140.001,172.5z"/>
<path style="fill:#353535;" d="M190.001,262.5h-30l15,90h30v-50.335C205.001,286.954,199.33,273.075,190.001,262.5z"/>
<path style="fill:#4F4F4F;" d="M160.001,262.5h-60c-9.329,10.575-15,24.454-15,39.665V352.5h90v-50.335
	C175.001,286.954,169.33,273.075,160.001,262.5z"/>
<path style="fill:#353535;" d="M145.001,7.5l15,80l30-35C190.001,27.647,169.854,7.5,145.001,7.5z"/>
<path style="fill:#4F4F4F;" d="M145.001,7.5c-24.853,0-45,20.147-45,45l60,35v-35C160.001,27.647,153.285,7.5,145.001,7.5z"/>
<path style="fill:#808080;" d="M160.001,52.5l-20,55l20,32.042c1.92-1.197,4.236-2.042,7.502-2.042c11.249,0,11.249,10,22.498,10
	v-95L160.001,52.5L160.001,52.5z"/>
<path style="fill:#999999;" d="M100.001,52.5v95c11.251,0,11.251-10,22.502-10c11.251,0,11.251,10,22.502,10
	c7.983,0,10.304-5.033,14.996-7.958V52.5H100.001z"/>
<polygon style="fill:#808080;" points="390.454,292.5 338.501,489.5 419.501,489.5 419.501,292.5 "/>
<path style="fill:#999999;" d="M338.501,262.5c-22.205,0-41.577,12.071-51.953,30h-29.047v197h132.953v-197
	C380.078,274.571,360.706,262.5,338.501,262.5z"/>
<path style="fill:#CCCCCC;" d="M368.501,322.5c0-16.542-13.458-30-30-30s-30,13.458-30,30h-21v122h102v-122H368.501z"/>
<polygon style="fill:#B3B3B3;" points="412.001,474.5 397.001,489.5 412.001,504.5 442.001,504.5 442.001,474.5 "/>
<rect x="235" y="474.5" style="fill:#CCCCCC;" width="177" height="30"/>
<path d="M92.501,147.5c0,4.142,3.358,7.5,7.5,7.5c8.477,0,13.145-4.149,16.233-6.894c2.471-2.197,3.495-3.106,6.269-3.106
	s3.797,0.909,6.269,3.106c3.089,2.745,7.756,6.894,16.233,6.894s13.144-4.149,16.232-6.895c2.471-2.196,3.494-3.105,6.267-3.105
	c2.772,0,3.795,0.909,6.266,3.105c3.088,2.746,7.755,6.895,16.232,6.895c4.142,0,7.5-3.358,7.5-7.5V60h22.5
	c4.142,0,7.5-3.358,7.5-7.5s-3.358-7.5-7.5-7.5h-23.044c-3.651-25.407-25.554-45-51.956-45S96.697,19.593,93.045,45H70.001
	c-4.142,0-7.5,3.358-7.5,7.5s3.358,7.5,7.5,7.5h22.5V147.5z M182.501,135.812c-3.078-2.634-7.579-5.812-14.998-5.812
	c-8.477,0-13.144,4.149-16.232,6.895c-2.471,2.196-3.494,3.105-6.267,3.105c-2.774,0-3.797-0.909-6.268-3.106
	c-3.089-2.745-7.756-6.894-16.233-6.894c-7.421,0-11.923,3.18-15.002,5.814V60h75V135.812z M145.001,15
	c18.11,0,33.261,12.904,36.745,30h-73.491C111.74,27.904,126.891,15,145.001,15z"/>
<path d="M227.501,202.5v-60c0-4.142-3.358-7.5-7.5-7.5s-7.5,3.358-7.5,7.5v60c0,9.777-6.271,18.114-15,21.21V192.5
	c0-15.164-12.336-27.5-27.5-27.5h-50c-15.164,0-27.5,12.336-27.5,27.5v67.259c-9.693,11.989-15,26.935-15,42.406V352.5
	c0,4.142,3.358,7.5,7.5,7.5h22.5v134.5c0,3.228,2.066,6.094,5.128,7.115l30,10c0.787,0.262,1.586,0.387,2.373,0.387
	c3.14,0,6.066-1.988,7.114-5.13c1.31-3.929-0.814-8.177-4.744-9.487l-24.872-8.291V360h45v134.5c0,3.228,2.066,6.094,5.128,7.115
	l30,10c0.787,0.262,1.586,0.387,2.373,0.387c3.14,0,6.066-1.988,7.114-5.13c1.31-3.929-0.814-8.177-4.744-9.487l-24.872-8.291V360
	h22.5c4.142,0,7.5-3.358,7.5-7.5v-50.335c0-15.471-5.307-30.417-15-42.406v-20.514C214.597,235.761,227.501,220.61,227.501,202.5z
	 M120.001,180h50c6.893,0,12.5,5.607,12.5,12.5V255h-45v-52.5c0-4.142-3.358-7.5-7.5-7.5s-7.5,3.358-7.5,7.5V255h-15v-62.5
	C107.501,185.607,113.108,180,120.001,180z M197.501,345h-105v-42.835c0-11.687,3.905-22.982,11.039-32.165h18.961v22.5
	c0,20.677,16.822,37.5,37.5,37.5c4.142,0,7.5-3.358,7.5-7.5s-3.358-7.5-7.5-7.5c-12.407,0-22.5-10.094-22.5-22.5V270h48.961
	c7.133,9.183,11.039,20.478,11.039,32.165V345z"/>
<path d="M389.501,315h-14.253c-3.485-17.095-18.637-30-36.747-30s-33.262,12.905-36.747,30h-14.253c-4.142,0-7.5,3.358-7.5,7.5v122
	c0,4.142,3.358,7.5,7.5,7.5s7.5-3.358,7.5-7.5V330h13.5c4.142,0,7.5-3.358,7.5-7.5c0-12.406,10.093-22.5,22.5-22.5
	s22.5,10.094,22.5,22.5c0,4.142,3.358,7.5,7.5,7.5h13.5v114.5c0,4.142,3.358,7.5,7.5,7.5s7.5-3.358,7.5-7.5v-122
	C397.001,318.358,393.643,315,389.501,315z"/>
<path d="M442.001,467h-15V292.5c0-4.142-3.358-7.5-7.5-7.5h-24.889c-12.468-18.609-33.581-30-56.111-30
	c-22.531,0-43.644,11.391-56.111,30h-24.889c-4.142,0-7.5,3.358-7.5,7.5V467h-15c-4.142,0-7.5,3.358-7.5,7.5v30
	c0,4.142,3.358,7.5,7.5,7.5h207c4.142,0,7.5-3.358,7.5-7.5v-30C449.501,470.358,446.143,467,442.001,467z M265.001,300h21.547
	c2.677,0,5.151-1.427,6.491-3.743C302.412,280.061,319.832,270,338.501,270s36.089,10.061,45.462,26.257
	c1.341,2.317,3.814,3.743,6.491,3.743h21.547v167h-147V300z M434.501,497h-192v-15h192V497z"/>
<path d="M359.501,345h-42c-4.142,0-7.5,3.358-7.5,7.5s3.358,7.5,7.5,7.5h42c4.142,0,7.5-3.358,7.5-7.5S363.643,345,359.501,345z"/>
<g>
</g>
<g>
</g>
<g>
</g>
<g>
</g>
<g>
</g>
<g>
</g>
<g>
</g>
<g>
</g>
<g>
</g>
<g>
</g>
<g>
</g>
<g>
</g>
<g>
</g>
<g>
</g>
<g>
</g>
</svg>
