<?xml version="1.0" encoding="iso-8859-1"?>
<!-- Generator: Adobe Illustrator 19.0.0, SVG Export Plug-In . SVG Version: 6.00 Build 0)  -->
<svg version="1.1" id="Capa_1" xmlns="http://www.w3.org/2000/svg" xmlns:xlink="http://www.w3.org/1999/xlink" x="0px" y="0px"
	 viewBox="0 0 512.002 512.002" style="enable-background:new 0 0 512.002 512.002;" xml:space="preserve">
<path style="fill:#2DADE3;" d="M281.002,172.5h-30v120h50v-100C301.002,181.454,292.048,172.5,281.002,172.5z"/>
<path style="fill:#49C9FF;" d="M251.002,172.5h-20c-11.046,0-20,8.954-20,20v100h60v-100
	C271.002,181.454,262.048,172.5,251.002,172.5z"/>
<path style="fill:#FF4128;" d="M301.002,262.5h-30l15,90h30v-50.335C316.002,286.954,310.331,273.075,301.002,262.5z"/>
<path style="fill:#FF6337;" d="M271.002,262.5h-60c-9.329,10.575-15,24.454-15,39.665V352.5h90v-50.335
	C286.002,286.954,280.331,273.075,271.002,262.5z"/>
<circle style="fill:#60312C;" cx="271.001" cy="30" r="22.5"/>
<path style="fill:#A45E43;" d="M305.257,68.335c0.01-0.01-34.255-0.005-34.255-0.005v74.17c24.85,0,45-20.15,45-45
	C316.002,86.38,311.957,76.185,305.257,68.335z"/>
<path style="fill:#C27749;" d="M284.892,80.51l-48.145-12.175c-6.7,7.85-10.745,18.045-10.745,29.165c0,24.85,20.15,45,45,45
	c8.28,0,15-20.15,15-45C286.002,91.49,285.612,85.75,284.892,80.51z"/>
<path style="fill:#40211D;" d="M271.002,52.5l13.89,28.01c7.45-2.23,14.475-6.295,20.365-12.175
	C297.007,58.645,284.722,52.5,271.002,52.5z"/>
<path style="fill:#60312C;" d="M271.002,52.5c-13.72,0-26.005,6.145-34.255,15.835c13.04,13.04,31.645,17.105,48.145,12.175
	C282.662,64.08,277.282,52.5,271.002,52.5z"/>
<path d="M318.374,497.385l-24.872-8.291V360h22.5c4.142,0,7.5-3.358,7.5-7.5v-50.335c0-15.471-5.307-30.417-15-42.406V192.5
	c0-15.164-12.336-27.5-27.5-27.5h-50c-15.164,0-27.5,12.336-27.5,27.5v67.259c-9.693,11.989-15,26.935-15,42.406V352.5
	c0,4.142,3.358,7.5,7.5,7.5h22.5v129.094l-24.872,8.291c-3.93,1.31-6.053,5.557-4.744,9.487c1.048,3.143,3.974,5.13,7.114,5.13
	c0.786,0,1.586-0.125,2.373-0.387l30-10c3.063-1.021,5.128-3.887,5.128-7.115V360h45v134.5c0,3.228,2.066,6.094,5.128,7.115l30,10
	c0.787,0.262,1.586,0.387,2.373,0.387c3.14,0,6.066-1.988,7.114-5.13C324.427,502.942,322.303,498.695,318.374,497.385z
	 M231.002,180h50c6.893,0,12.5,5.607,12.5,12.5V255h-15v-52.5c0-4.142-3.358-7.5-7.5-7.5s-7.5,3.358-7.5,7.5V255h-15v-52.5
	c0-4.142-3.358-7.5-7.5-7.5s-7.5,3.358-7.5,7.5V255h-15v-62.5C218.502,185.607,224.109,180,231.002,180z M248.502,270h15v37.5
	c0,4.135-3.364,7.5-7.5,7.5s-7.5-3.365-7.5-7.5V270z M203.502,302.165c0-11.687,3.905-22.982,11.039-32.165h18.961v37.5
	c0,12.406,10.093,22.5,22.5,22.5c12.407,0,22.5-10.094,22.5-22.5V270h18.961c7.133,9.183,11.039,20.478,11.039,32.165V345h-105
	V302.165z"/>
<path d="M271.002,150c28.949,0,52.5-23.552,52.5-52.5c0-12.814-4.62-24.564-12.275-33.689c-0.205-0.269-0.422-0.532-0.668-0.778
	c-4.778-5.462-10.622-9.916-17.222-13.032c4.762-5.312,7.665-12.323,7.665-20.001c0-16.542-13.458-30-30-30s-30,13.458-30,30
	c0,7.678,2.903,14.689,7.665,20.001c-6.6,3.116-12.444,7.57-17.194,13.007c-0.274,0.271-0.491,0.534-0.696,0.803
	c-7.654,9.124-12.275,20.875-12.275,33.689C218.502,126.448,242.053,150,271.002,150z M271.002,135c-20.678,0-37.5-16.823-37.5-37.5
	c0-6.565,1.701-12.739,4.678-18.112c9.49,6.91,20.869,10.648,32.822,10.648s23.332-3.739,32.822-10.648
	c2.977,5.373,4.678,11.547,4.678,18.112C308.502,118.177,291.68,135,271.002,135z M247.97,67.939
	C254.331,62.971,262.324,60,271.002,60s16.671,2.971,23.032,7.939c-6.742,4.611-14.697,7.097-23.032,7.097
	S254.712,72.55,247.97,67.939z M256.002,30c0-8.271,6.729-15,15-15s15,6.729,15,15s-6.729,15-15,15S256.002,38.271,256.002,30z"/>
<g>
</g>
<g>
</g>
<g>
</g>
<g>
</g>
<g>
</g>
<g>
</g>
<g>
</g>
<g>
</g>
<g>
</g>
<g>
</g>
<g>
</g>
<g>
</g>
<g>
</g>
<g>
</g>
<g>
</g>
</svg>
