<?xml version="1.0" encoding="iso-8859-1"?>
<!-- Generator: Adobe Illustrator 19.0.0, SVG Export Plug-In . SVG Version: 6.00 Build 0)  -->
<svg version="1.1" id="Capa_1" xmlns="http://www.w3.org/2000/svg" xmlns:xlink="http://www.w3.org/1999/xlink" x="0px" y="0px"
	 viewBox="0 0 512.002 512.002" style="enable-background:new 0 0 512.002 512.002;" xml:space="preserve">
<path style="fill:#2DADE3;" d="M147.501,172.5h-30v120h50v-100C167.501,181.454,158.547,172.5,147.501,172.5z"/>
<path style="fill:#49C9FF;" d="M117.501,172.5h-20c-11.046,0-20,8.954-20,20v100h60v-100
	C137.501,181.454,128.547,172.5,117.501,172.5z"/>
<path style="fill:#FF4128;" d="M167.501,262.5h-30l15,90h30v-50.335C182.501,286.954,176.83,273.075,167.501,262.5z"/>
<path style="fill:#FF6337;" d="M137.501,262.5h-60c-9.329,10.575-15,24.454-15,39.665V352.5h90v-50.335
	C152.501,286.954,146.83,273.075,137.501,262.5z"/>
<circle style="fill:#60312C;" cx="122.5" cy="30" r="22.5"/>
<path style="fill:#A45E43;" d="M156.756,68.335c0.01-0.01-34.255-0.005-34.255-0.005v74.17c24.85,0,45-20.15,45-45
	C167.501,86.38,163.456,76.185,156.756,68.335z"/>
<path style="fill:#C27749;" d="M136.391,80.51L88.246,68.335c-6.7,7.85-10.745,18.045-10.745,29.165c0,24.85,20.15,45,45,45
	c8.28,0,15-20.15,15-45C137.501,91.49,137.111,85.75,136.391,80.51z"/>
<path style="fill:#40211D;" d="M122.501,52.5l13.89,28.01c7.45-2.23,14.475-6.295,20.365-12.175
	C148.506,58.645,136.221,52.5,122.501,52.5z"/>
<path style="fill:#60312C;" d="M122.501,52.5c-13.72,0-26.005,6.145-34.255,15.835c13.04,13.04,31.645,17.105,48.145,12.175
	C134.161,64.08,128.781,52.5,122.501,52.5z"/>
<path style="fill:#FFF0D3;" d="M349.501,22.5v240c66.168,0,120-53.832,120-120S415.669,22.5,349.501,22.5z"/>
<path style="fill:#FFFFFF;" d="M439.501,142.5c0-66.168-40.374-120-90-120c-60.676,0-110.971,45.269-118.903,103.806L191.501,142.5
	l39.097,16.194C238.53,217.231,288.825,262.5,349.501,262.5C399.127,262.5,439.501,208.668,439.501,142.5z"/>
<path style="fill:#FFA754;" d="M349.501,52.5v180c49.706,0,90-40.294,90-90S399.207,52.5,349.501,52.5z"/>
<path style="fill:#FFCB63;" d="M409.501,142.5c0-49.706-26.863-90-60-90c-49.706,0-90,40.294-90,90s40.294,90,90,90
	C382.638,232.5,409.501,192.206,409.501,142.5z"/>
<path d="M122.501,150c28.948,0,52.5-23.552,52.5-52.5c0-12.812-4.619-24.561-12.271-33.685c-0.205-0.271-0.424-0.535-0.671-0.782
	c-4.781-5.463-10.624-9.916-17.222-13.032c4.762-5.312,7.665-12.323,7.665-20.001c0-16.542-13.458-30-30-30s-30,13.458-30,30
	c0,7.678,2.903,14.69,7.665,20.001c-6.599,3.116-12.442,7.568-17.192,13.004c-0.278,0.275-0.496,0.539-0.702,0.81
	C74.62,72.939,70.001,84.688,70.001,97.5C70.001,126.448,93.553,150,122.501,150z M122.501,135c-20.678,0-37.5-16.823-37.5-37.5
	c0-6.567,1.702-12.742,4.68-18.116c9.751,7.072,21.284,10.615,32.82,10.615s23.069-3.543,32.82-10.615
	c2.978,5.374,4.68,11.549,4.68,18.116C160.001,118.177,143.179,135,122.501,135z M99.479,67.931
	c6.36-4.963,14.348-7.931,23.022-7.931s16.662,2.968,23.022,7.931C131.685,77.351,113.317,77.351,99.479,67.931z M107.501,30
	c0-8.271,6.729-15,15-15s15,6.729,15,15s-6.729,15-15,15S107.501,38.271,107.501,30z"/>
<path d="M182.501,185h-8.548c-3.274-11.528-13.889-20-26.452-20h-50c-12.563,0-23.178,8.472-26.452,20h-8.548
	c-15.163,0-27.5,12.336-27.5,27.5s12.337,27.5,27.5,27.5h7.5v19.759c-9.693,11.989-15,26.935-15,42.406V352.5
	c0,4.142,3.357,7.5,7.5,7.5h22.5v129.094l-24.872,8.291c-3.929,1.31-6.053,5.557-4.743,9.487c1.048,3.143,3.974,5.13,7.114,5.13
	c0.786,0,1.586-0.125,2.373-0.387l30-10c3.063-1.021,5.128-3.887,5.128-7.115V360h45v134.5c0,3.228,2.065,6.094,5.128,7.115l30,10
	c0.787,0.262,1.587,0.387,2.373,0.387c3.141,0,6.066-1.988,7.114-5.13c1.31-3.929-0.814-8.177-4.743-9.487l-24.872-8.291V360h22.5
	c4.143,0,7.5-3.358,7.5-7.5v-50.335c0-15.471-5.307-30.417-15-42.406V240h7.5c15.163,0,27.5-12.336,27.5-27.5
	S197.664,185,182.501,185z M97.501,180h50c6.893,0,12.5,5.607,12.5,12.5V225h-75v-32.5C85.001,185.607,90.608,180,97.501,180z
	 M62.501,225c-6.893,0-12.5-5.607-12.5-12.5s5.607-12.5,12.5-12.5h7.5v25H62.501z M175.001,345h-105v-42.835
	c0-11.687,3.905-22.982,11.038-32.165h82.923c7.133,9.183,11.038,20.478,11.038,32.165V345H175.001z M160.001,255h-75v-15h75V255z
	 M182.501,225h-7.5v-25h7.5c6.893,0,12.5,5.607,12.5,12.5S189.394,225,182.501,225z"/>
<path d="M349.501,15c-28.566,0-55.589,9.276-78.146,26.826c-3.27,2.543-3.857,7.256-1.314,10.525
	c2.546,3.27,7.256,3.858,10.525,1.314C300.465,38.183,324.302,30,349.501,30c62.032,0,112.5,50.467,112.5,112.5
	S411.533,255,349.501,255c-56.031,0-103.953-41.835-111.472-97.313c-0.358-2.645-2.096-4.901-4.562-5.922L211.1,142.5l22.368-9.265
	c2.466-1.021,4.203-3.277,4.562-5.922c2.645-19.518,10.474-38.103,22.641-53.746c2.543-3.27,1.954-7.982-1.315-10.525
	c-3.271-2.543-7.981-1.954-10.524,1.316c-12.894,16.577-21.489,36.076-25.005,56.635l-35.194,14.578
	c-2.803,1.161-4.63,3.896-4.63,6.929s1.827,5.768,4.63,6.929l35.193,14.577C234.185,224.734,287.457,270,349.501,270
	c70.304,0,127.5-57.196,127.5-127.5S419.805,15,349.501,15z"/>
<path d="M349.501,240c53.762,0,97.5-43.738,97.5-97.5S403.263,45,349.501,45s-97.5,43.738-97.5,97.5S295.739,240,349.501,240z
	 M349.501,60c45.49,0,82.5,37.009,82.5,82.5s-37.01,82.5-82.5,82.5s-82.5-37.009-82.5-82.5S304.011,60,349.501,60z"/>
<path d="M323.501,135c4.143,0,7.5-3.358,7.5-7.5v-10c0-4.142-3.357-7.5-7.5-7.5s-7.5,3.358-7.5,7.5v10
	C316.001,131.642,319.358,135,323.501,135z"/>
<path d="M375.501,135c4.143,0,7.5-3.358,7.5-7.5v-10c0-4.142-3.357-7.5-7.5-7.5s-7.5,3.358-7.5,7.5v10
	C368.001,131.642,371.358,135,375.501,135z"/>
<path d="M323.501,165h52c4.143,0,7.5-3.358,7.5-7.5s-3.357-7.5-7.5-7.5h-52c-4.143,0-7.5,3.358-7.5,7.5S319.358,165,323.501,165z"/>
<g>
</g>
<g>
</g>
<g>
</g>
<g>
</g>
<g>
</g>
<g>
</g>
<g>
</g>
<g>
</g>
<g>
</g>
<g>
</g>
<g>
</g>
<g>
</g>
<g>
</g>
<g>
</g>
<g>
</g>
</svg>
