<?xml version="1.0" encoding="iso-8859-1"?>
<!-- Generator: Adobe Illustrator 19.0.0, SVG Export Plug-In . SVG Version: 6.00 Build 0)  -->
<svg version="1.1" id="Capa_1" xmlns="http://www.w3.org/2000/svg" xmlns:xlink="http://www.w3.org/1999/xlink" x="0px" y="0px"
	 viewBox="0 0 512.002 512.002" style="enable-background:new 0 0 512.002 512.002;" xml:space="preserve">
<path style="fill:#2DADE3;" d="M281.001,172.5h-30v120h50v-100C301.001,181.454,292.047,172.5,281.001,172.5z"/>
<path style="fill:#49C9FF;" d="M251.001,172.5h-20c-11.046,0-20,8.954-20,20v100h60v-100
	C271.001,181.454,262.047,172.5,251.001,172.5z"/>
<path style="fill:#FF4128;" d="M301.001,262.5h-30l15,90h30v-50.335C316.001,286.954,310.33,273.075,301.001,262.5z"/>
<path style="fill:#FF6337;" d="M271.001,262.5h-60c-9.329,10.575-15,24.454-15,39.665V352.5h90v-50.335
	C286.001,286.954,280.33,273.075,271.001,262.5z"/>
<path style="fill:#FFA754;" d="M256.001,30v90c24.853,0,45-20.147,45-45S280.854,30,256.001,30z"/>
<path style="fill:#FFCB63;" d="M271.001,75c0-24.853-6.716-45-15-45c-24.853,0-45,20.147-45,45s20.147,45,45,45
	C264.285,120,271.001,99.853,271.001,75z"/>
<path d="M398.501,102.5c0-4.142-3.357-7.5-7.5-7.5s-7.5,3.358-7.5,7.5c0,43.343-33.605,78.961-76.125,82.229
	c-3.362-11.39-13.91-19.729-26.375-19.729h-50c-12.465,0-23.013,8.339-26.375,19.729c-42.52-3.268-76.125-38.886-76.125-82.229
	c0-4.142-3.357-7.5-7.5-7.5s-7.5,3.358-7.5,7.5c0,51.238,39.729,93.372,90,97.214v60.045c-9.693,11.989-15,26.935-15,42.406V352.5
	c0,4.142,3.357,7.5,7.5,7.5h22.5v129.094l-24.872,8.291c-3.929,1.31-6.053,5.557-4.743,9.487c1.048,3.143,3.974,5.13,7.114,5.13
	c0.786,0,1.586-0.125,2.373-0.387l30-10c3.063-1.021,5.128-3.887,5.128-7.115V360h45v134.5c0,3.228,2.065,6.094,5.128,7.115l30,10
	c0.787,0.262,1.587,0.387,2.373,0.387c3.141,0,6.066-1.988,7.114-5.13c1.31-3.929-0.814-8.177-4.743-9.487l-24.872-8.291V360h22.5
	c4.143,0,7.5-3.358,7.5-7.5v-50.335c0-15.471-5.307-30.417-15-42.406v-60.045C358.772,195.872,398.501,153.738,398.501,102.5z
	 M231.001,180h50c6.893,0,12.5,5.607,12.5,12.5V255h-75v-62.5C218.501,185.607,224.108,180,231.001,180z M308.501,345h-105v-42.835
	c0-11.687,3.905-22.982,11.038-32.165h82.923c7.133,9.183,11.038,20.478,11.038,32.165V345H308.501z"/>
<path d="M188.501,82.5h15.544c1.276,8.881,4.775,17.053,9.925,23.924l-11.002,11.002c-2.929,2.929-2.929,7.677,0,10.606
	c1.465,1.465,3.384,2.197,5.304,2.197c1.919,0,3.839-0.732,5.304-2.197l11.002-11.002c6.871,5.15,15.043,8.648,23.924,9.925V142.5
	c0,4.142,3.357,7.5,7.5,7.5s7.5-3.358,7.5-7.5v-15.544c8.88-1.276,17.053-4.774,23.924-9.925l11.002,11.002
	c1.465,1.465,3.385,2.197,5.304,2.197s3.839-0.732,5.304-2.197c2.929-2.929,2.929-7.678,0-10.606l-11.002-11.002
	c5.15-6.871,8.649-15.044,9.925-23.924h15.544c4.143,0,7.5-3.358,7.5-7.5s-3.357-7.5-7.5-7.5h-15.544
	c-1.276-8.881-4.775-17.053-9.925-23.924l11.002-11.002c2.929-2.929,2.929-7.677,0-10.606c-2.929-2.928-7.677-2.929-10.607,0
	l-11.002,11.002c-6.871-5.15-15.043-8.648-23.924-9.925V7.5c0-4.142-3.357-7.5-7.5-7.5s-7.5,3.358-7.5,7.5v15.544
	c-8.88,1.276-17.053,4.774-23.924,9.925l-11.002-11.002c-2.93-2.929-7.678-2.929-10.607,0s-2.929,7.678,0,10.606l11.002,11.002
	c-5.15,6.871-8.649,15.044-9.925,23.924h-15.544c-4.143,0-7.5,3.358-7.5,7.5S184.358,82.5,188.501,82.5z M256.001,37.5
	c20.678,0,37.5,16.823,37.5,37.5s-16.822,37.5-37.5,37.5s-37.5-16.823-37.5-37.5S235.323,37.5,256.001,37.5z"/>
<g>
</g>
<g>
</g>
<g>
</g>
<g>
</g>
<g>
</g>
<g>
</g>
<g>
</g>
<g>
</g>
<g>
</g>
<g>
</g>
<g>
</g>
<g>
</g>
<g>
</g>
<g>
</g>
<g>
</g>
</svg>
