<?xml version="1.0" encoding="iso-8859-1"?>
<!-- Generator: Adobe Illustrator 19.0.0, SVG Export Plug-In . SVG Version: 6.00 Build 0)  -->
<svg version="1.1" id="Capa_1" xmlns="http://www.w3.org/2000/svg" xmlns:xlink="http://www.w3.org/1999/xlink" x="0px" y="0px"
	 viewBox="0 0 512.002 512.002" style="enable-background:new 0 0 512.002 512.002;" xml:space="preserve">
<path style="fill:#2DADE3;" d="M281.001,172.5h-30v120h50v-100C301.001,181.454,292.047,172.5,281.001,172.5z"/>
<path style="fill:#49C9FF;" d="M251.001,172.5h-20c-11.046,0-20,8.954-20,20v100h60v-100
	C271.001,181.454,262.047,172.5,251.001,172.5z"/>
<path style="fill:#FF4128;" d="M314.971,291.04c-2.15-10.8-6.97-20.61-13.97-28.54h-30l26.93,90h30
	C327.931,352.5,318.041,306.44,314.971,291.04z"/>
<path style="fill:#FF6337;" d="M297.931,352.5h-113.86c0,0,9.89-46.06,12.96-61.46c2.15-10.8,6.97-20.61,13.97-28.54h60
	c7,7.93,11.82,17.74,13.97,28.54C288.041,306.44,297.931,352.5,297.931,352.5z"/>
<circle style="fill:#60312C;" cx="256" cy="30" r="22.5"/>
<path style="fill:#A45E43;" d="M290.256,68.335c0.01-0.01-34.255-0.005-34.255-0.005v74.17c24.85,0,45-20.15,45-45
	C301.001,86.38,296.956,76.185,290.256,68.335z"/>
<path style="fill:#C27749;" d="M269.891,80.51l-48.145-12.175c-6.7,7.85-10.745,18.045-10.745,29.165c0,24.85,20.15,45,45,45
	c8.28,0,15-20.15,15-45C271.001,91.49,270.611,85.75,269.891,80.51z"/>
<path style="fill:#40211D;" d="M256.001,52.5l13.89,28.01c7.45-2.23,14.475-6.295,20.365-12.175
	C282.006,58.645,269.721,52.5,256.001,52.5z"/>
<path style="fill:#60312C;" d="M256.001,52.5c-13.72,0-26.005,6.145-34.255,15.835c13.04,13.04,31.645,17.105,48.145,12.175
	C267.661,64.08,262.281,52.5,256.001,52.5z"/>
<circle style="fill:#49C9FF;" cx="474.5" cy="364.25" r="15"/>
<circle style="fill:#FFCB63;" cx="387.75" cy="292.5" r="15"/>
<g>
	<circle style="fill:#9DB55F;" cx="474.5" cy="172.5" r="15"/>
	<circle style="fill:#9DB55F;" cx="37.501" cy="364.25" r="15"/>
</g>
<circle style="fill:#FF6337;" cx="124.25" cy="262.5" r="15"/>
<circle style="fill:#FFCB63;" cx="37.501" cy="142.5" r="15"/>
<circle style="fill:#FF6337;" cx="359.87" cy="22.5" r="15"/>
<circle style="fill:#49C9FF;" cx="152.13" cy="52.5" r="15"/>
<circle cx="474.5" cy="260.25" r="7.5"/>
<circle cx="387.75" cy="217.5" r="7.5"/>
<circle cx="444.5" cy="320.25" r="7.5"/>
<circle cx="37.501" cy="200.25" r="7.5"/>
<circle cx="82.5" cy="290.25" r="7.5"/>
<circle cx="417.19" cy="22.5" r="7.5"/>
<circle cx="444.5" cy="67.5" r="7.5"/>
<circle cx="94.82" cy="22.5" r="7.5"/>
<circle cx="67.5" cy="97.5" r="7.5"/>
<path d="M378.373,497.385l-25.923-8.641L325.251,360h2.678c2.266,0,4.409-1.024,5.833-2.786c1.425-1.762,1.976-4.073,1.5-6.288
	c-0.099-0.46-9.913-46.184-12.938-61.354c-2.203-11.053-6.962-21.298-13.823-29.809v-60.048c50.271-3.842,90-45.976,90-97.214
	c0-4.142-3.357-7.5-7.5-7.5s-7.5,3.358-7.5,7.5c0,43.343-33.605,78.961-76.125,82.229c-3.362-11.39-13.91-19.729-26.375-19.729h-50
	c-12.465,0-23.013,8.339-26.375,19.729c-42.52-3.268-76.125-38.886-76.125-82.229c0-4.142-3.358-7.5-7.5-7.5s-7.5,3.358-7.5,7.5
	c0,51.238,39.729,93.372,90,97.214v60.048c-6.861,8.511-11.62,18.756-13.824,29.809c-3.024,15.17-12.837,60.894-12.937,61.354
	c-0.476,2.215,0.076,4.526,1.5,6.288s3.568,2.786,5.833,2.786h2.677l-27.2,128.744l-25.922,8.641
	c-3.93,1.31-6.053,5.557-4.744,9.487c1.048,3.143,3.974,5.13,7.114,5.13c0.786,0,1.586-0.125,2.373-0.387l30-10
	c2.526-0.842,4.416-2.96,4.966-5.565L202.082,360H309.92l28.743,136.05c0.55,2.605,2.44,4.723,4.966,5.565l30,10
	c0.787,0.262,1.587,0.387,2.373,0.387c3.141,0,6.066-1.988,7.114-5.13C384.426,502.942,382.302,498.695,378.373,497.385z
	 M231.001,180h50c6.893,0,12.5,5.607,12.5,12.5V255h-75v-62.5C218.501,185.607,224.108,180,231.001,180z M204.388,292.504
	c1.66-8.324,5.15-16.037,10.148-22.504h82.929c4.998,6.467,8.488,14.179,10.148,22.504c2.21,11.082,7.992,38.239,11.04,52.496
	h-2.664c-0.049,0-119.922,0-119.922,0c-0.02,0-0.04,0-0.059,0h-2.658C196.397,330.742,202.179,303.585,204.388,292.504z"/>
<path d="M256.001,150c28.948,0,52.5-23.552,52.5-52.5c0-12.812-4.619-24.561-12.271-33.685c-0.205-0.271-0.424-0.535-0.671-0.782
	c-4.781-5.463-10.624-9.916-17.222-13.032c4.762-5.312,7.665-12.323,7.665-20.001c0-16.542-13.458-30-30-30s-30,13.458-30,30
	c0,7.678,2.903,14.689,7.665,20.001c-6.6,3.116-12.444,7.57-17.194,13.007c-0.274,0.271-0.491,0.534-0.696,0.803
	c-7.654,9.124-12.275,20.875-12.275,33.689C203.501,126.448,227.052,150,256.001,150z M256.001,135c-20.678,0-37.5-16.823-37.5-37.5
	c0-6.565,1.701-12.739,4.678-18.112c9.49,6.91,20.869,10.648,32.822,10.648s23.332-3.739,32.822-10.648
	c2.977,5.373,4.678,11.547,4.678,18.112C293.501,118.177,276.679,135,256.001,135z M232.969,67.939
	C239.33,62.971,247.323,60,256.001,60s16.67,2.971,23.032,7.939c-6.742,4.611-14.697,7.098-23.032,7.098
	S239.711,72.55,232.969,67.939z M241.001,30c0-8.271,6.729-15,15-15s15,6.729,15,15s-6.729,15-15,15
	C247.73,45,241.001,38.271,241.001,30z"/>
<path d="M474.501,341.75c-12.406,0-22.5,10.094-22.5,22.5s10.094,22.5,22.5,22.5s22.5-10.094,22.5-22.5
	S486.907,341.75,474.501,341.75z M474.501,371.75c-4.136,0-7.5-3.365-7.5-7.5s3.364-7.5,7.5-7.5s7.5,3.365,7.5,7.5
	S478.637,371.75,474.501,371.75z"/>
<path d="M387.751,270c-12.406,0-22.5,10.094-22.5,22.5s10.094,22.5,22.5,22.5s22.5-10.094,22.5-22.5S400.157,270,387.751,270z
	 M387.751,300c-4.136,0-7.5-3.365-7.5-7.5s3.364-7.5,7.5-7.5s7.5,3.365,7.5,7.5S391.887,300,387.751,300z"/>
<path d="M474.501,195c12.406,0,22.5-10.094,22.5-22.5s-10.094-22.5-22.5-22.5s-22.5,10.094-22.5,22.5S462.095,195,474.501,195z
	 M474.501,165c4.136,0,7.5,3.365,7.5,7.5s-3.364,7.5-7.5,7.5s-7.5-3.365-7.5-7.5S470.365,165,474.501,165z"/>
<path d="M37.501,341.75c-12.407,0-22.5,10.094-22.5,22.5s10.093,22.5,22.5,22.5s22.5-10.094,22.5-22.5S49.908,341.75,37.501,341.75z
	 M37.501,371.75c-4.136,0-7.5-3.365-7.5-7.5s3.364-7.5,7.5-7.5s7.5,3.365,7.5,7.5S41.637,371.75,37.501,371.75z"/>
<path d="M146.75,262.5c0-12.406-10.093-22.5-22.5-22.5s-22.5,10.094-22.5,22.5s10.093,22.5,22.5,22.5S146.75,274.906,146.75,262.5z
	 M124.25,270c-4.136,0-7.5-3.365-7.5-7.5s3.364-7.5,7.5-7.5s7.5,3.365,7.5,7.5S128.386,270,124.25,270z"/>
<path d="M37.501,120c-12.407,0-22.5,10.094-22.5,22.5s10.093,22.5,22.5,22.5s22.5-10.094,22.5-22.5S49.908,120,37.501,120z
	 M37.501,150c-4.136,0-7.5-3.365-7.5-7.5s3.364-7.5,7.5-7.5s7.5,3.365,7.5,7.5S41.637,150,37.501,150z"/>
<path d="M359.872,45c12.406,0,22.5-10.094,22.5-22.5S372.278,0,359.872,0s-22.5,10.094-22.5,22.5S347.466,45,359.872,45z
	 M359.872,15c4.136,0,7.5,3.365,7.5,7.5s-3.364,7.5-7.5,7.5s-7.5-3.365-7.5-7.5S355.736,15,359.872,15z"/>
<path d="M152.13,75c12.407,0,22.5-10.094,22.5-22.5S164.537,30,152.13,30s-22.5,10.094-22.5,22.5S139.723,75,152.13,75z M152.13,45
	c4.136,0,7.5,3.365,7.5,7.5s-3.364,7.5-7.5,7.5s-7.5-3.365-7.5-7.5S147.994,45,152.13,45z"/>
<g>
</g>
<g>
</g>
<g>
</g>
<g>
</g>
<g>
</g>
<g>
</g>
<g>
</g>
<g>
</g>
<g>
</g>
<g>
</g>
<g>
</g>
<g>
</g>
<g>
</g>
<g>
</g>
<g>
</g>
</svg>
