<?xml version="1.0" encoding="iso-8859-1"?>
<!-- Generator: Adobe Illustrator 19.0.0, SVG Export Plug-In . SVG Version: 6.00 Build 0)  -->
<svg version="1.1" id="Capa_1" xmlns="http://www.w3.org/2000/svg" xmlns:xlink="http://www.w3.org/1999/xlink" x="0px" y="0px"
	 viewBox="0 0 512.002 512.002" style="enable-background:new 0 0 512.002 512.002;" xml:space="preserve">
<path style="fill:#2DADE3;" d="M281.001,172.5h-30v120h50v-100C301.001,181.454,292.047,172.5,281.001,172.5z"/>
<path style="fill:#49C9FF;" d="M251.001,172.5h-20c-11.046,0-20,8.954-20,20v100h60v-100
	C271.001,181.454,262.047,172.5,251.001,172.5z"/>
<path style="fill:#FF4128;" d="M301.001,262.5h-30l15,90h30v-50.335C316.001,286.954,310.33,273.075,301.001,262.5z"/>
<path style="fill:#FF6337;" d="M271.001,262.5h-60c-9.329,10.575-15,24.454-15,39.665V352.5h90v-50.335
	C286.001,286.954,280.33,273.075,271.001,262.5z"/>
<circle style="fill:#60312C;" cx="256" cy="30" r="22.5"/>
<path style="fill:#A45E43;" d="M290.256,68.335c0.01-0.01-34.255-0.005-34.255-0.005v74.17c24.85,0,45-20.15,45-45
	C301.001,86.38,296.956,76.185,290.256,68.335z"/>
<path style="fill:#C27749;" d="M269.891,80.51l-48.145-12.175c-6.7,7.85-10.745,18.045-10.745,29.165c0,24.85,20.15,45,45,45
	c8.28,0,15-20.15,15-45C271.001,91.49,270.611,85.75,269.891,80.51z"/>
<path style="fill:#40211D;" d="M256.001,52.5l13.89,28.01c7.45-2.23,14.475-6.295,20.365-12.175
	C282.006,58.645,269.721,52.5,256.001,52.5z"/>
<path style="fill:#60312C;" d="M256.001,52.5c-13.72,0-26.005,6.145-34.255,15.835c13.04,13.04,31.645,17.105,48.145,12.175
	C267.661,64.08,262.281,52.5,256.001,52.5z"/>
<path d="M398.501,102.5c0-4.142-3.358-7.5-7.5-7.5s-7.5,3.358-7.5,7.5c0,43.343-33.605,78.961-76.125,82.229
	c-3.362-11.39-13.91-19.729-26.375-19.729h-50c-12.465,0-23.013,8.339-26.375,19.729c-42.52-3.268-76.125-38.886-76.125-82.229
	c0-4.142-3.358-7.5-7.5-7.5s-7.5,3.358-7.5,7.5c0,51.238,39.729,93.372,90,97.214v60.045c-9.693,11.989-15,26.935-15,42.406V352.5
	c0,4.142,3.358,7.5,7.5,7.5h22.5v129.094l-24.872,8.291c-3.93,1.31-6.053,5.557-4.744,9.487c1.048,3.143,3.974,5.13,7.114,5.13
	c0.786,0,1.586-0.125,2.373-0.387l30-10c3.063-1.021,5.128-3.887,5.128-7.115V360h45v134.5c0,3.228,2.066,6.094,5.128,7.115l30,10
	c0.787,0.262,1.586,0.387,2.373,0.387c3.14,0,6.066-1.988,7.114-5.13c1.31-3.929-0.814-8.177-4.744-9.487l-24.872-8.291V360h22.5
	c4.142,0,7.5-3.358,7.5-7.5v-50.335c0-15.471-5.307-30.417-15-42.406v-60.045C358.772,195.872,398.501,153.738,398.501,102.5z
	 M231.001,180h50c6.893,0,12.5,5.607,12.5,12.5V255h-75v-62.5C218.501,185.607,224.108,180,231.001,180z M308.501,345h-105v-42.835
	c0-11.687,3.905-22.982,11.039-32.165h82.923c7.133,9.183,11.039,20.478,11.039,32.165V345H308.501z"/>
<path d="M256.001,150c28.949,0,52.5-23.552,52.5-52.5c0-12.814-4.62-24.564-12.275-33.689c-0.205-0.269-0.422-0.532-0.668-0.778
	c-4.778-5.462-10.622-9.916-17.222-13.032c4.762-5.312,7.665-12.323,7.665-20.001c0-16.542-13.458-30-30-30s-30,13.458-30,30
	c0,7.678,2.903,14.689,7.665,20.001c-6.6,3.116-12.444,7.57-17.194,13.007c-0.274,0.271-0.491,0.534-0.696,0.803
	c-7.654,9.124-12.275,20.875-12.275,33.689C203.501,126.448,227.052,150,256.001,150z M256.001,135c-20.678,0-37.5-16.823-37.5-37.5
	c0-6.565,1.701-12.739,4.678-18.112c9.49,6.91,20.869,10.648,32.822,10.648s23.332-3.739,32.822-10.648
	c2.977,5.373,4.678,11.547,4.678,18.112C293.501,118.177,276.679,135,256.001,135z M232.969,67.939
	C239.33,62.971,247.323,60,256.001,60s16.671,2.971,23.032,7.939c-6.742,4.611-14.697,7.097-23.032,7.097
	S239.711,72.55,232.969,67.939z M241.001,30c0-8.271,6.729-15,15-15s15,6.729,15,15s-6.729,15-15,15S241.001,38.271,241.001,30z"/>
<g>
</g>
<g>
</g>
<g>
</g>
<g>
</g>
<g>
</g>
<g>
</g>
<g>
</g>
<g>
</g>
<g>
</g>
<g>
</g>
<g>
</g>
<g>
</g>
<g>
</g>
<g>
</g>
<g>
</g>
</svg>
