<?xml version="1.0" encoding="iso-8859-1"?>
<!-- Generator: Adobe Illustrator 19.0.0, SVG Export Plug-In . SVG Version: 6.00 Build 0)  -->
<svg version="1.1" id="Capa_1" xmlns="http://www.w3.org/2000/svg" xmlns:xlink="http://www.w3.org/1999/xlink" x="0px" y="0px"
	 viewBox="0 0 512.002 512.002" style="enable-background:new 0 0 512.002 512.002;" xml:space="preserve">
<path style="fill:#2DADE3;" d="M175.001,172.5h-30v120h50v-100C195.001,181.454,186.047,172.5,175.001,172.5z"/>
<path style="fill:#49C9FF;" d="M145.001,172.5h-20c-11.046,0-20,8.954-20,20v100h60v-100
	C165.001,181.454,156.047,172.5,145.001,172.5z"/>
<path style="fill:#FF4128;" d="M195.001,262.5h-30l15,90h30v-50.335C210.001,286.954,204.33,273.075,195.001,262.5z"/>
<path style="fill:#FF6337;" d="M165.001,262.5h-60c-9.329,10.575-15,24.454-15,39.665V352.5h90v-50.335
	C180.001,286.954,174.33,273.075,165.001,262.5z"/>
<circle style="fill:#60312C;" cx="150" cy="30" r="22.5"/>
<path style="fill:#A45E43;" d="M184.256,68.335c0.01-0.01-34.255-0.005-34.255-0.005v74.17c24.85,0,45-20.15,45-45
	C195.001,86.38,190.956,76.185,184.256,68.335z"/>
<path style="fill:#C27749;" d="M163.891,80.51l-48.145-12.175c-6.7,7.85-10.745,18.045-10.745,29.165c0,24.85,20.15,45,45,45
	c8.28,0,15-20.15,15-45C165.001,91.49,164.611,85.75,163.891,80.51z"/>
<path style="fill:#40211D;" d="M150.001,52.5l13.89,28.01c7.45-2.23,14.475-6.295,20.365-12.175
	C176.006,58.645,163.721,52.5,150.001,52.5z"/>
<path style="fill:#60312C;" d="M150.001,52.5c-13.72,0-26.005,6.145-34.255,15.835c13.04,13.04,31.645,17.105,48.145,12.175
	C161.661,64.08,156.281,52.5,150.001,52.5z"/>
<path style="fill:#FFF0D3;" d="M377.001,22.5v240c66.168,0,120-53.832,120-120S443.169,22.5,377.001,22.5z"/>
<path style="fill:#FFFFFF;" d="M467.001,142.5c0-66.168-40.374-120-90-120c-60.676,0-110.971,45.269-118.903,103.806L219.001,142.5
	l39.097,16.194C266.03,217.231,316.325,262.5,377.001,262.5C426.627,262.5,467.001,208.668,467.001,142.5z"/>
<path style="fill:#FFA754;" d="M377.001,52.5v180c49.706,0,90-40.294,90-90S426.707,52.5,377.001,52.5z"/>
<path style="fill:#FFCB63;" d="M437.001,142.5c0-49.706-26.863-90-60-90c-49.706,0-90,40.294-90,90s40.294,90,90,90
	C410.138,232.5,437.001,192.206,437.001,142.5z"/>
<path d="M201.563,185.385C198.419,173.66,187.704,165,175.001,165h-50c-12.465,0-23.013,8.339-26.375,19.729
	c-42.52-3.268-76.125-38.886-76.125-82.229c0-4.142-3.358-7.5-7.5-7.5s-7.5,3.358-7.5,7.5c0,51.238,39.729,93.372,90,97.214v60.045
	c-9.693,11.989-15,26.935-15,42.406V352.5c0,4.142,3.358,7.5,7.5,7.5h22.5v129.094l-24.872,8.291
	c-3.93,1.31-6.053,5.557-4.744,9.487c1.048,3.143,3.974,5.13,7.114,5.13c0.786,0,1.586-0.125,2.373-0.387l30-10
	c3.063-1.021,5.128-3.887,5.128-7.115V360h45v134.5c0,3.228,2.066,6.094,5.128,7.115l30,10c0.787,0.262,1.586,0.387,2.373,0.387
	c3.14,0,6.066-1.988,7.114-5.13c1.31-3.929-0.814-8.177-4.744-9.487l-24.872-8.291V360h22.5c4.142,0,7.5-3.358,7.5-7.5v-50.335
	c0-2.216-0.121-4.419-0.336-6.606c21.093-8.839,35.336-29.795,35.336-53.06C252.501,213.014,230.188,188.654,201.563,185.385z
	 M125.001,180h50c6.893,0,12.5,5.607,12.5,12.5V255h-75v-62.5C112.501,185.607,118.108,180,125.001,180z M202.501,345h-105v-42.835
	c0-11.687,3.905-22.982,11.039-32.165h82.923c7.133,9.183,11.039,20.478,11.039,32.165V345H202.501z M213.931,280.55
	c-2.539-7.502-6.384-14.549-11.43-20.791v-59.083c19.868,3.554,35,20.949,35,41.824C237.501,258.744,228.108,273.462,213.931,280.55
	z"/>
<path d="M150.001,150c28.949,0,52.5-23.552,52.5-52.5c0-12.814-4.62-24.564-12.275-33.689c-0.205-0.269-0.422-0.532-0.668-0.778
	c-4.778-5.462-10.622-9.916-17.222-13.032c4.762-5.312,7.665-12.323,7.665-20.001c0-16.542-13.458-30-30-30s-30,13.458-30,30
	c0,7.678,2.903,14.689,7.665,20.001c-6.6,3.116-12.444,7.57-17.194,13.007c-0.274,0.271-0.491,0.534-0.696,0.803
	c-7.654,9.124-12.275,20.875-12.275,33.689C97.501,126.448,121.052,150,150.001,150z M150.001,135c-20.678,0-37.5-16.823-37.5-37.5
	c0-6.565,1.701-12.739,4.678-18.112c9.49,6.91,20.869,10.648,32.822,10.648s23.332-3.739,32.822-10.648
	c2.977,5.373,4.678,11.547,4.678,18.112C187.501,118.177,170.679,135,150.001,135z M126.969,67.939
	C133.33,62.971,141.323,60,150.001,60s16.671,2.971,23.032,7.939c-6.742,4.611-14.697,7.097-23.032,7.097
	S133.711,72.55,126.969,67.939z M135.001,30c0-8.271,6.729-15,15-15s15,6.729,15,15s-6.729,15-15,15S135.001,38.271,135.001,30z"/>
<path d="M377.001,15c-28.566,0-55.589,9.276-78.146,26.826c-3.269,2.543-3.857,7.256-1.314,10.525
	c2.543,3.269,7.255,3.858,10.525,1.314C327.965,38.183,351.802,30,377.001,30c62.033,0,112.5,50.467,112.5,112.5
	S439.034,255,377.001,255c-56.031,0-103.954-41.835-111.471-97.313c-0.358-2.645-2.096-4.901-4.562-5.922L238.6,142.5l22.368-9.265
	c2.466-1.021,4.204-3.277,4.562-5.922c2.645-19.518,10.474-38.103,22.641-53.746c2.543-3.27,1.954-7.982-1.316-10.525
	c-3.27-2.544-7.982-1.954-10.525,1.316c-12.892,16.577-21.489,36.077-25.004,56.635l-35.194,14.578
	c-2.803,1.161-4.63,3.896-4.63,6.929s1.827,5.768,4.63,6.929l35.193,14.577C261.684,224.734,314.956,270,377.001,270
	c70.304,0,127.5-57.196,127.5-127.5S447.305,15,377.001,15z"/>
<path d="M377.001,240c53.762,0,97.5-43.738,97.5-97.5S430.763,45,377.001,45s-97.5,43.738-97.5,97.5S323.239,240,377.001,240z
	 M377.001,60c45.491,0,82.5,37.009,82.5,82.5s-37.009,82.5-82.5,82.5s-82.5-37.009-82.5-82.5S331.51,60,377.001,60z"/>
<path d="M347.274,151.012c-3.583,2.078-4.803,6.667-2.725,10.25C351.252,172.82,363.687,180,377.001,180s25.749-7.18,32.452-18.737
	c2.078-3.583,0.858-8.172-2.725-10.25s-8.172-0.858-10.25,2.725c-4.03,6.946-11.493,11.262-19.477,11.262
	s-15.447-4.316-19.476-11.263C355.447,150.154,350.857,148.935,347.274,151.012z"/>
<path d="M351.001,135c4.142,0,7.5-3.358,7.5-7.5v-10c0-4.142-3.358-7.5-7.5-7.5s-7.5,3.358-7.5,7.5v10
	C343.501,131.642,346.859,135,351.001,135z"/>
<path d="M403.001,135c4.142,0,7.5-3.358,7.5-7.5v-10c0-4.142-3.358-7.5-7.5-7.5s-7.5,3.358-7.5,7.5v10
	C395.501,131.642,398.859,135,403.001,135z"/>
<g>
</g>
<g>
</g>
<g>
</g>
<g>
</g>
<g>
</g>
<g>
</g>
<g>
</g>
<g>
</g>
<g>
</g>
<g>
</g>
<g>
</g>
<g>
</g>
<g>
</g>
<g>
</g>
<g>
</g>
</svg>
