<svg height="511pt" viewBox="-22 0 511 511.996" width="511pt" xmlns="http://www.w3.org/2000/svg"><path d="m180.835938 504.5c-7.664063 0-14.542969-5.359375-16.171876-13.160156-7.546874-36.109375 1.792969-96.664063 3.824219-106.304688 1.882813-8.9375 10.664063-14.660156 19.597657-12.773437 8.9375 1.882812 14.65625 10.65625 12.773437 19.597656-2.371094 11.242187-9.601563 65.019531-3.8125 92.710937 1.867187 8.945313-3.867187 17.707032-12.808594 19.574219-1.140625.242188-2.28125.355469-3.402343.355469zm0 0" fill="#efd176"/><path d="m277.304688 500.144531c-1.871094 0-3.773438-.320312-5.636719-.992187-8.585938-3.117188-13.027344-12.601563-9.910157-21.191406 10.265626-28.3125 3.984376-74.070313.640626-82.347657-3.917969-8.152343-.5625-17.960937 7.5625-21.988281 8.183593-4.058594 18.109374-.710938 22.167968 7.476562 6.847656 13.8125 14.398438 70.445313.730469 108.136719-2.441406 6.726563-8.789063 10.90625-15.554687 10.90625zm-14.863282-104.441406c.015625.03125.03125.0625.046875.089844-.015625-.03125-.03125-.058594-.046875-.089844zm0 0" fill="#efd176"/><path d="m341.003906 391.628906c-9.132812 0-16.539062-7.40625-16.539062-16.542968 0-9.132813 7.40625-16.539063 16.539062-16.539063 24.664063 0 37.230469-10.617187 38.46875-20.480469 2.019532-16.039062-20.648437-29.371094-42.5625-34.972656-8.851562-2.261719-14.191406-11.269531-11.929687-20.121094 2.261719-8.851562 11.269531-14.191406 20.121093-11.929687 54.453126 13.910156 70.230469 47.023437 67.199219 71.152343-1.804687 14.339844-10.007812 27.171876-23.097656 36.132813-12.714844 8.699219-29.378906 13.300781-48.199219 13.300781zm0 0" fill="#efd176"/><path d="m120.976562 391.628906c-18.820312 0-35.484374-4.601562-48.195312-13.300781-13.09375-8.960937-21.296875-21.792969-23.097656-36.132813-3.035156-24.128906 12.742187-57.242187 67.199218-71.15625 8.851563-2.257812 17.859376 3.082032 20.121094 11.933594 2.261719 8.851563-3.082031 17.859375-11.933594 20.121094-21.914062 5.597656-44.578124 18.929688-42.5625 34.972656 1.238282 9.863282 13.808594 20.480469 38.46875 20.480469 9.132813 0 16.539063 7.402344 16.539063 16.539063 0 9.136718-7.402344 16.542968-16.539063 16.542968zm0 0" fill="#efd176"/><path d="m185.515625 74.148438c23.273437 23.273437 27.261719 59.503906 27.660156 78.101562.144531 6.757812-5.382812 12.28125-12.136719 12.136719-18.597656-.398438-54.828124-4.386719-78.105468-27.660157-23.273438-23.273437-27.257813-59.503906-27.65625-78.101562-.144532-6.757812 5.378906-12.28125 12.136718-12.136719 18.59375.398438 54.828126 4.382813 78.101563 27.660157zm0 0" fill="#8ee2cf"/><path d="m168.179688 126.894531c-1.917969 0-3.835938-.734375-5.300782-2.199219l-27.914062-27.910156c-2.929688-2.929687-2.929688-7.679687 0-10.605468 2.929687-2.929688 7.679687-2.929688 10.609375 0l27.910156 27.910156c2.929687 2.929687 2.929687 7.679687 0 10.605468-1.464844 1.464844-3.382813 2.199219-5.304687 2.199219zm0 0" fill="#6fce91"/><path d="m276.464844 74.148438c-23.273438 23.273437-27.261719 59.503906-27.660156 78.101562-.140626 6.757812 5.382812 12.28125 12.140624 12.136719 18.59375-.398438 54.824219-4.386719 78.101563-27.660157 23.273437-23.273437 27.257813-59.503906 27.65625-78.101562.144531-6.757812-5.378906-12.28125-12.136719-12.136719-18.59375.398438-54.828125 4.382813-78.101562 27.660157zm0 0" fill="#8ee2cf"/><path d="m293.800781 126.894531c-1.921875 0-3.839843-.734375-5.304687-2.199219-2.929688-2.929687-2.929688-7.675781 0-10.605468l27.914062-27.910156c2.929688-2.929688 7.675782-2.929688 10.605469 0 2.929687 2.925781 2.929687 7.675781 0 10.605468l-27.914063 27.910156c-1.464843 1.464844-3.382812 2.199219-5.300781 2.199219zm0 0" fill="#6fce91"/><path d="m275.242188 85.945312c0 32.914063-22.800782 61.351563-35.667969 74.78125-4.679688 4.882813-12.492188 4.882813-17.164063 0-12.871094-13.429687-35.671875-41.867187-35.671875-74.78125 0-32.914062 22.800781-61.355468 35.671875-74.785156 4.675782-4.878906 12.484375-4.878906 17.164063 0 12.867187 13.429688 35.667969 41.871094 35.667969 74.785156zm0 0" fill="#8ee2cf"/><path d="m230.992188 113.179688c-4.144532 0-7.5-3.355469-7.5-7.5v-39.472657c0-4.140625 3.355468-7.5 7.5-7.5 4.140624 0 7.5 3.359375 7.5 7.5v39.472657c0 4.144531-3.359376 7.5-7.5 7.5zm0 0" fill="#6fce91"/><path d="m230.992188 133.828125c68.273437 0 117.082031 53.773437 123.621093 135.203125 6.804688 84.703125-25.054687 147.886719-123.621093 147.886719-98.570313 0-130.433594-63.183594-123.625-147.886719 6.542968-81.429688 55.347656-135.203125 123.625-135.203125zm0 0" fill="#f7ef87"/><g fill="#efd176"><path d="m190.175781 140.925781c-46.359375 17.113281-77.664062 64.046875-82.808593 128.105469-6.785157 84.46875 24.886718 147.527344 122.808593 147.878906-118.855469-72.722656-86.984375-203.925781-40-275.984375zm0 0"/><path d="m218.988281 245.039062c-1.921875 0-3.839843-.734374-5.304687-2.199218-2.929688-2.929688-2.929688-7.675782 0-10.605469l12.003906-12.003906c1.40625-1.40625 3.3125-2.195313 5.304688-2.195313 1.988281 0 3.894531.789063 5.300781 2.195313l12.003906 12.003906c2.929687 2.929687 2.929687 7.679687 0 10.609375-2.929687 2.925781-7.679687 2.925781-10.605469-.003906l-6.699218-6.699219-6.699219 6.699219c-1.46875 1.464844-3.386719 2.199218-5.304688 2.199218zm0 0"/><path d="m311.621094 245.039062c-1.917969 0-3.839844-.734374-5.304688-2.199218l-6.699218-6.699219-6.699219 6.699219c-2.929688 2.929687-7.679688 2.929687-10.605469.003906-2.929688-2.929688-2.929688-7.679688-.003906-10.609375l12.003906-12.003906c1.40625-1.40625 3.316406-2.195313 5.304688-2.195313 1.988281 0 3.894531.789063 5.304687 2.195313l12.003906 12.003906c2.929688 2.929687 2.929688 7.679687 0 10.605469-1.464843 1.464844-3.386719 2.199218-5.304687 2.199218zm0 0"/><path d="m174.367188 245.039062c-1.917969 0-3.839844-.734374-5.304688-2.199218l-6.699219-6.699219-6.699219 6.699219c-2.929687 2.929687-7.679687 2.929687-10.605468.003906-2.929688-2.929688-2.929688-7.679688 0-10.609375l12-12.003906c1.40625-1.40625 3.316406-2.195313 5.304687-2.195313s3.898438.789063 5.304688 2.195313l12.003906 12.003906c2.929687 2.929687 2.929687 7.679687 0 10.605469-1.464844 1.464844-3.386719 2.199218-5.304687 2.199218zm0 0"/><path d="m277.308594 378.925781c-1.921875 0-3.839844-.730469-5.304688-2.195312l-6.699218-6.699219-6.699219 6.699219c-2.929688 2.929687-7.679688 2.929687-10.609375 0-2.929688-2.929688-2.929688-7.675781 0-10.609375l12.003906-12c1.40625-1.40625 3.3125-2.199219 5.304688-2.199219 1.988281 0 3.894531.792969 5.300781 2.199219l12.003906 12c2.929687 2.929687 2.929687 7.679687.003906 10.609375-1.46875 1.464843-3.386719 2.195312-5.304687 2.195312zm0 0"/><path d="m208.679688 378.925781c-1.917969 0-3.835938-.730469-5.300782-2.195312l-6.703125-6.699219-6.699219 6.699219c-2.929687 2.929687-7.679687 2.929687-10.605468 0-2.929688-2.929688-2.929688-7.679688 0-10.609375l12.003906-12c2.929688-2.929688 7.679688-2.929688 10.605469 0l12.003906 12c2.929687 2.929687 2.929687 7.679687 0 10.609375-1.464844 1.464843-3.382813 2.195312-5.304687 2.195312zm0 0"/></g><path d="m180.789062 315.570312c0-12.910156-13.144531-23.378906-29.355468-23.378906-16.210938 0-29.355469 10.46875-29.355469 23.378906 0 12.910157 13.144531 23.375 29.355469 23.375 16.210937 0 29.355468-10.464843 29.355468-23.375zm0 0" fill="#eda1ab"/><path d="m339.902344 315.570312c0-12.910156-13.140625-23.378906-29.355469-23.378906-16.210937 0-29.355469 10.46875-29.355469 23.378906 0 12.910157 13.144532 23.375 29.355469 23.375 16.214844 0 29.355469-10.464843 29.355469-23.375zm0 0" fill="#eda1ab"/><path d="m176.933594 170.402344h-26.757813c-11.242187 0-19.621093 10.363281-17.261719 21.355468l1.480469 6.914063c2.492188 11.613281 12.757813 19.914063 24.636719 19.914063h9.050781c11.878907 0 22.144531-8.300782 24.636719-19.914063l1.480469-6.914063c2.355469-10.988281-6.023438-21.355468-17.265625-21.355468zm0 0" fill="#4e5660"/><path d="m285.046875 170.402344h26.757813c11.242187 0 19.621093 10.363281 17.265624 21.355468l-1.484374 6.914063c-2.492188 11.613281-12.757813 19.914063-24.636719 19.914063h-9.046875c-11.882813 0-22.148438-8.300782-24.640625-19.914063l-1.480469-6.914063c-2.355469-10.988281 6.023438-21.355468 17.265625-21.355468zm0 0" fill="#4e5660"/><path d="m86.710938 208.828125c-.199219-1.589844.34375-3.164063 1.441406-4.332031 4.777344-5.082032 7.710937-11.925782 7.710937-19.453125 0-5.566407-1.609375-10.757813-4.378906-15.140625-.90625-1.441406-1.125-3.21875-.621094-4.84375 1.085938-3.507813 1.515625-7.308594 1.132813-11.253906-1.296875-13.390626-12.109375-24.183594-25.5-25.453126-14.300782-1.355468-26.675782 7.902344-30.1875 20.808594-.605469 2.230469-2.453125 3.949219-4.730469 4.339844-13.769531 2.359375-24.15625 14.617188-23.554687 29.191406.53125 12.90625 9.960937 23.996094 22.609374 26.617188 3.148438.652344 6.21875.746094 9.148438.394531 2.003906-.242187 3.988281.53125 5.320312 2.046875l30.824219 35.019531c1.339844 1.519531 3.839844.40625 3.605469-1.605469l-.503906-4.339843c-.175782-1.515625 1.296875-2.695313 2.738281-2.1875l5.941406 2.085937c1.449219.507813 2.929688-.683594 2.738281-2.210937zm0 0" fill="#c6c6c6"/><path d="m30.632812 209.308594c3.152344.652344 6.21875.746094 9.148438.394531 2.003906-.242187 3.992188.53125 5.324219 2.042969l30.820312 35.023437c1.339844 1.519531 3.839844.40625 3.609375-1.605469l-.503906-4.339843c-.179688-1.519531 1.296875-2.695313 2.738281-2.191407l5.9375 2.089844c1.453125.507813 2.929688-.6875 2.738281-2.210937l-.65625-5.207031c-42.230468-17.164063-55.128906-73.519532-40.089843-101.375-6.488281 3.695312-11.386719 9.863281-13.390625 17.230468-.605469 2.230469-2.453125 3.949219-4.730469 4.335938-13.769531 2.359375-24.15625 14.621094-23.554687 29.195312.53125 12.90625 9.960937 23.996094 22.609374 26.617188zm0 0" fill="#9aa3b1"/><path d="m437.082031 129.847656c-1.5625-.335937-2.777343-1.511718-3.171875-3.0625-3.140625-12.273437-14.273437-21.347656-27.523437-21.347656-15.691407 0-28.414063 12.71875-28.414063 28.410156v.027344c0 1.503906-.835937 2.867188-2.148437 3.605469-8.664063 4.863281-14.523438 14.136719-14.523438 24.78125 0 10.917969 6.164063 20.394531 15.195313 25.148437 1.703125.898438 2.644531 2.777344 2.40625 4.6875l-2.941406 23.367188c-.199219 1.585937 1.398437 2.789062 2.867187 2.160156l3.929687-1.683594c1.332032-.574218 2.824219.371094 2.882813 1.820313l.234375 6.019531c.074219 1.867188 2.386719 2.6875 3.621094 1.289062l33.273437-37.808593c1.066407-1.210938 2.675781-1.753907 4.273438-1.523438 3.109375.445313 6.378906.390625 9.746093-.296875 12.410157-2.535156 21.773438-13.222656 22.625-25.863281.976563-14.488281-8.917968-26.839844-22.332031-29.730469zm0 0" fill="#c6c6c6"/><path d="m375.964844 215.464844c-.199219 1.585937 1.398437 2.789062 2.867187 2.160156l3.929688-1.683594c1.332031-.574218 2.824219.371094 2.878906 1.820313l.238281 6.023437c.070313 1.863282 2.382813 2.6875 3.617188 1.285156l28.75-32.667968c-28.882813-19.171875-30.871094-65.070313-20.957032-85.46875-11.230468 3.792968-19.316406 14.40625-19.316406 26.917968v.023438c0 1.503906-.835937 2.867188-2.148437 3.605469-8.664063 4.863281-14.523438 14.136719-14.523438 24.78125 0 10.917969 6.164063 20.394531 15.195313 25.148437 1.703125.898438 2.644531 2.777344 2.40625 4.6875zm0 0" fill="#9aa3b1"/><path d="m137.816406 463.230469c-2.929687-2.925781-7.679687-2.925781-10.605468 0-2.929688 2.929687-2.929688 7.679687 0 10.609375l10.132812 10.136718c1.464844 1.460938 3.386719 2.195313 5.304688 2.195313 1.921874 0 3.839843-.730469 5.304687-2.195313 2.929687-2.929687 2.929687-7.679687 0-10.609374zm78.257813 5.359375-4.738281 4.734375c-2.929688 2.929687-2.929688 7.679687-.003907 10.609375 1.464844 1.464844 3.386719 2.195312 5.304688 2.195312s3.839843-.730468 5.304687-2.195312l4.738282-4.738282c2.929687-2.929687 2.929687-7.675781 0-10.605468-2.929688-2.929688-7.679688-2.929688-10.605469 0zm-138.613281-213.609375c1.316406-.003907 2.644531-.273438 3.90625-.835938 2.613281-1.160156 4.492187-3.363281 5.273437-5.964843 2.734375.515624 5.550781-.179688 7.761719-1.964844 2.601562-2.097656 3.902344-5.328125 3.484375-8.640625l-3.605469-28.667969c5.863281-6.582031 9.082031-15.019531 9.082031-23.863281 0-6.53125-1.769531-12.902344-5.125-18.480469 1.253907-4.359375 1.667969-8.890625 1.222657-13.484375-1.648438-17.035156-15.214844-30.574219-32.253907-32.191406-17.203125-1.640625-32.960937 9.007812-37.875 25.398437-17.210937 3.445313-29.53125 19.050782-28.804687 36.714844.679687 16.46875 12.433594 30.304688 28.582031 33.652344 3.578125.742187 7.222656.933594 10.828125.574218l30.355469 34.496094c1.867187 2.121094 4.488281 3.257813 7.167969 3.257813zm16.691406-47.089844v.007813zm-53.644532-5.730469c-.539062 0-1.082031.03125-1.621093.097656-2.238281.265626-4.503907.167969-6.730469-.292968-9.253906-1.917969-16.25-10.152344-16.640625-19.582032-.429687-10.484374 7.019531-19.726562 17.328125-21.492187 5.128906-.878906 9.332031-4.710937 10.703125-9.761719 2.675781-9.84375 12.035156-16.277344 22.242187-15.3125 9.742188.925782 17.800782 8.96875 18.742188 18.707032.273438 2.847656-.003906 5.644531-.832031 8.3125-1.160157 3.742187-.632813 7.777343 1.445312 11.070312 2.105469 3.332031 3.21875 7.183594 3.21875 11.136719 0 5.339843-2.019531 10.425781-5.679687 14.316406-2.644532 2.820313-3.890625 6.613281-3.414063 10.40625l2.679688 21.285156c-2.429688-.226562-4.875.488281-6.839844 2.0625-.238281.1875-.46875.390625-.683594.597657l-23.691406-26.917969c-2.609375-2.964844-6.34375-4.632813-10.226563-4.632813zm400.117188-79.164062c-3.042969-9.644532-9.96875-17.515625-19.242188-21.785156-3.765624-1.734376-8.21875-.082032-9.949218 3.679687-1.730469 3.761719-.085938 8.214844 3.679687 9.949219 5.675781 2.609375 9.988281 7.773437 11.53125 13.804687 1.105469 4.324219 4.5 7.59375 8.855469 8.535157 10.0625 2.167968 17.125 11.582031 16.429688 21.894531-.625 9.324219-7.46875 17.148437-16.640626 19.019531-2.386718.488281-4.796874.5625-7.179687.21875-4.136719-.59375-8.242187.898438-10.964844 3.992188l-26.058593 29.609374c-.664063-.839843-1.472657-1.574218-2.402344-2.160156-1.304688-.824218-2.765625-1.308594-4.261719-1.441406l1.921875-15.28125c.628906-5-1.925781-9.925781-6.351562-12.257812-6.902344-3.632813-11.191407-10.726563-11.191407-18.511719 0-7.546875 4.101563-14.539063 10.699219-18.242188 3.683594-2.070312 5.972656-5.957031 5.972656-10.167969 0-5.871093 2.367188-11.308593 6.664063-15.308593 3.03125-2.824219 3.199219-7.570313.378906-10.601563-2.824219-3.03125-7.570313-3.199218-10.601563-.375-6.792968 6.324219-10.878906 15.101563-11.386718 24.34375-10.363282 6.558594-16.726563 18.019532-16.726563 30.351563 0 12.6875 6.625 24.304687 17.425781 30.785156l-2.703124 21.484375c-.429688 3.394531 1.003906 6.78125 3.734374 8.835938 1.816407 1.367187 4.035157 2.023437 6.246094 1.910156.5625 3.414062 2.910156 6.261718 6.238282 7.445312 1.058593.375 2.144531.558594 3.222656.558594 2.691406 0 5.304687-1.144531 7.160156-3.253906l32.289062-36.6875c3.625.375 7.273438.191406 10.878907-.546875 15.761719-3.222657 27.523437-16.671875 28.601562-32.707031 1.148438-17.015626-10.035156-32.605469-26.269531-37.089844zm-209.632812 162.214844c-8.480469 0-16.539063 3.671874-22.121094 10.070312-2.71875 3.125-2.394532 7.863281.726562 10.582031 1.421875 1.242188 3.179688 1.847657 4.925782 1.847657 2.09375 0 4.175781-.871094 5.65625-2.570313 2.730468-3.132813 6.671874-4.929687 10.8125-4.929687 4.140624 0 8.082031 1.796874 10.808593 4.929687 2.71875 3.121094 7.457031 3.445313 10.582031.726563 3.121094-2.722657 3.449219-7.460938.726563-10.582032-5.578125-6.402344-13.640625-10.074218-22.117187-10.074218zm-48.6875-15.652344-24.0625-6.445313c-4.003907-1.070312-8.113282 1.300781-9.1875 5.300781-1.070313 4 1.304687 8.113282 5.304687 9.1875l7.078125 1.894532c-.253906.753906-.394531 1.554687-.394531 2.390625v10.363281c0 4.144531 3.355469 7.5 7.5 7.5 4.140625 0 7.5-3.355469 7.5-7.5v-8.839844l2.378906.640625c.652344.171875 1.304687.257813 1.949219.257813 3.308594 0 6.339844-2.210938 7.238281-5.5625 1.070313-4-1.304687-8.113282-5.304687-9.1875zm121.433593-6.449219-24.0625 6.449219c-4.003906 1.074218-6.375 5.183594-5.304687 9.1875.898437 3.351562 3.929687 5.558594 7.238281 5.558594.644531 0 1.296875-.082032 1.945313-.253907l2.382812-.640625v8.839844c0 4.140625 3.355469 7.5 7.5 7.5s7.5-3.359375 7.5-7.5v-10.367188c0-.832031-.140625-1.636718-.394531-2.386718l7.078125-1.894532c4-1.074218 6.375-5.1875 5.304687-9.1875-1.070312-4-5.183593-6.371093-9.1875-5.304687zm58.351563 5.332031c0-.003906 0-.007812 0-.011718-2.488282-30.996094-11.195313-59.28125-25.175782-81.996094-.324218-5.132813-2.222656-10.078125-5.546874-14.1875-3.007813-3.726563-6.941407-6.453125-11.335938-7.96875-1.171875-1.242188-2.359375-2.457032-3.570312-3.640625 10.953124-4.792969 20.300781-11.019531 27.886718-18.605469 24.960938-24.960938 29.417969-62.871094 29.855469-83.246094.113281-5.332031-1.902344-10.347656-5.675781-14.121094-3.773438-3.773437-8.8125-5.8125-14.121094-5.675781-18.296875.394531-50.730469 4.039063-75.234375 22.851563-7.136719-24.558594-23.433594-44.648438-34.183594-55.867188-3.6875-3.851562-8.660156-5.972656-13.996093-5.972656-5.339844 0-10.3125 2.121094-14 5.972656-10.75 11.21875-27.046876 31.308594-34.1875 55.867188-24.5-18.8125-56.933594-22.457032-75.230469-22.851563-5.328125-.136719-10.347657 1.902344-14.121094 5.675781-3.773437 3.773438-5.789063 8.789063-5.675781 14.121094.4375 20.375 4.894531 58.285156 29.855468 83.246094 7.585938 7.585938 16.933594 13.8125 27.882813 18.601562-1.207031 1.183594-2.394531 2.398438-3.566406 3.640626-4.394531 1.515624-8.324219 4.246093-11.335938 7.96875-3.324219 4.109374-5.222656 9.058593-5.546875 14.191406-13.980468 22.714844-22.6875 51-25.175781 81.996094 0 .003906-.003906.007812-.003906.007812-20.503907 7.480469-36.015625 18.378906-46.132813 32.457031-9.234375 12.84375-13.324218 27.84375-11.511718 42.234375 2.074218 16.5 11.414062 31.199219 26.300781 41.386719 13.964843 9.558594 32.09375 14.613281 52.433593 14.613281 5.714844 0 11.175782-2.085937 15.445313-5.664062 6.257813 5.765625 13.261719 10.738281 21 14.902344-1.84375 15.546874-4.066406 40.5-2.765625 62.949218.230469 3.988282 3.535156 7.066406 7.480469 7.066406.144531 0 .292969-.003906.4375-.011718 4.136719-.238282 7.292969-3.785156 7.054687-7.921875-1.109375-19.226563.515625-40.59375 2.152344-55.597657 5.578125 2.089844 11.453125 3.84375 17.632812 5.25-1.890624 18.816407-3.640624 47.199219.289063 66 .496094 2.367188.039063 4.78125-1.285156 6.800782-1.320313 2.023437-3.351563 3.40625-5.714844 3.898437-2.238281.46875-4.558594.070313-6.5-1.09375-3.550781-2.132812-8.160156-.980469-10.289063 2.570313-2.132812 3.550781-.980468 8.160156 2.570313 10.289062 3.734375 2.242188 8.007813 3.429688 12.351563 3.429688 1.652343 0 3.3125-.171875 4.9375-.511719 6.285156-1.3125 11.683593-4.996094 15.199218-10.371094s4.726563-11.792969 3.414063-18.082031c-3.515625-16.828125-1.746094-43.957031-.15625-60.300781 8.445312 1.117187 17.363281 1.679687 26.761719 1.679687 9.949218 0 19.367187-.632812 28.25-1.882812 1.011718 13.097656 1.582031 36.007812-4.535157 52.875-4.519531 12.460937 1.941407 26.277344 14.402344 30.796875 2.644531.957031 5.402344 1.441406 8.195313 1.441406 10.082031 0 19.164062-6.367187 22.605468-15.847656 9.304688-25.660157 9.367188-59.347657 6.136719-84.25 7.136719-3.984375 13.632813-8.667969 19.476563-14.050781 4.238281 3.585937 9.664062 5.632812 15.480468 5.632812 20.335938 0 38.46875-5.054688 52.433594-14.609375 14.886719-10.191406 24.226562-24.890625 26.300781-41.386719 1.808594-14.394531-2.277343-29.394531-11.515625-42.238281-10.113281-14.070313-25.625-24.972656-46.132812-32.449219zm-1.28125 52.949219c6.777344 4.5625 11.921875 10.183594 11.222656 15.742187-.515625 4.097657-5.980469 10.132813-18.230469 12.691407 3.136719-8.765625 5.476563-18.246094 7.007813-28.433594zm-41.105469-139.71875c1.9375 2.398437 2.679687 5.503906 2.03125 8.515625l-1.480469 6.910156c-1.738281 8.105469-9.015625 13.988282-17.304687 13.988282h-9.046875c-8.289063 0-15.566406-5.882813-17.308594-13.988282l-1.480469-6.910156c-.632812-2.960938.078125-6.003906 1.9375-8.382812.328125-.308594.628907-.644532.894531-1.007813 1.890626-1.851563 4.417969-2.894531 7.097657-2.894531h26.761719c3.082031 0 5.960937 1.375 7.898437 3.769531zm-50.410156-13.230469c-9.738281-1.246094-22.464844-2.488281-38.300781-2.488281-15.839844 0-28.566407 1.242187-38.308594 2.488281-4.421875-3.5625-9.9375-5.539062-15.75-5.539062h-11.203125c11.808593-9.082032 25.179687-15.382813 39.734375-18.738282.03125-.007812.058594-.011718.085937-.019531 8.132813-1.867187 16.636719-2.816406 25.441407-2.816406 24.597656 0 46.832031 7.402344 65.257812 21.574219h-11.203125c-5.8125 0-11.332031 1.976562-15.753906 5.539062zm13.449219-82.496094c0-2.398437-.117188-4.769531-.328126-7.117187 21.285157-20.695313 54.371094-24.460937 72.3125-24.84375 1.601563-.046875 2.699219.792969 3.191407 1.285156.496093.496094 1.320312 1.570313 1.289062 3.195313-.390625 18.125-4.210937 51.707031-25.464843 72.957031-7.757813 7.757813-17.90625 13.859375-30.199219 18.179687-10.28125-7.613281-21.566407-13.414062-33.664063-17.320312 8.53125-15.667969 12.863282-31.21875 12.863282-46.335938zm-54.917969-69.597656c1.125-1.171875 2.464843-1.347656 3.167969-1.347656.699218 0 2.039062.175781 3.164062 1.347656 29.222656 30.5 33.585938 56.695313 33.585938 69.597656 0 13.625-4.359376 27.917969-12.9375 42.535157-7.683594-1.421875-15.632813-2.152344-23.8125-2.152344-8.183594 0-16.132813.730469-23.816407 2.152344-8.578125-14.617188-12.9375-28.90625-12.9375-42.535157 0-12.902343 4.363281-39.097656 33.585938-69.597656zm-99.585938 115.074219c-21.253906-21.25-25.078125-54.832031-25.464843-72.957031-.035157-1.625.792968-2.699219 1.285156-3.191406.496094-.496094 1.617187-1.316407 3.195312-1.285157 17.945313.382813 51.03125 4.144531 72.3125 24.84375-.210937 2.34375-.328125 4.714844-.328125 7.113281 0 15.117188 4.332031 30.667969 12.859375 46.339844-12.097656 3.902344-23.378906 9.703125-33.664062 17.316406-12.289063-4.320312-22.4375-10.421874-30.195313-18.179687zm14.039063 50.25c1.9375-2.394531 4.816406-3.769531 7.898437-3.769531h26.757813c2.675781 0 5.191406 1.035156 7.078125 2.871094.277343.378906.589843.726562.929687 1.046874 1.851563 2.375 2.558594 5.410157 1.925782 8.367188l-1.484376 6.910156c-1.734374 8.105469-9.015624 13.988282-17.304687 13.988282h-9.046875c-8.289062 0-15.566406-5.882813-17.304688-13.988282l-1.480468-6.910156c-.648438-3.011719.09375-6.117188 2.03125-8.515625zm-41.105469 139.71875c1.53125 10.1875 3.871094 19.667969 7.007813 28.429687-12.25-2.554687-17.714844-8.589843-18.230469-12.6875-.699219-5.558593 4.445312-11.179687 11.222656-15.742187zm19.804687 62.738281c-17.300781 0-32.5-4.148437-43.960937-11.988281-11.296875-7.734375-18.359375-18.699219-19.890625-30.882813-1.335938-10.621093 1.792969-21.847656 8.808594-31.609374 7.242187-10.070313 18.574218-18.507813 33.113281-24.742188-.152344 6.917969-.027344 13.605469.382813 20.042969-17.121094 9.191406-25.953126 21.417969-24.363282 34.054687 1.566406 12.472656 14.59375 25.179688 40.167969 26.84375 3.179687 5.96875 6.8125 11.515625 10.917969 16.628906-1.484375 1.046876-3.269532 1.652344-5.175782 1.652344zm164.832032 102.554688c-1.296875 3.566406-4.710938 5.960937-8.503906 5.960937-1.042969 0-2.082032-.183593-3.078126-.542969-4.6875-1.699218-7.117187-6.898437-5.417968-11.582031 7.273437-20.054687 6.550781-45.839843 5.265625-60.773437 6.207031-1.480469 12.105469-3.308594 17.691406-5.484375 3.472656 31.410156-.589844 57.617187-5.957031 72.421875zm49.242187-130.9375c-3.945312 8.070312-8.789062 15.261718-14.527343 21.542968-.019532.023438-.042969.046876-.0625.070313-.074219.082031-.144532.167969-.222657.25-19.476562 21.105469-49.503906 31.808594-89.246093 31.808594-39.746094 0-69.773438-10.703125-89.25-31.808594-.078126-.082031-.152344-.171875-.230469-.253906-.015625-.019531-.03125-.039063-.046875-.058594-5.742188-6.28125-10.585938-13.472656-14.535156-21.542969-.136719-.347656-.304688-.675781-.488282-.992187-6.15625-12.9375-10.027344-28.109375-11.625-45.425781 0-.421876-.042968-.839844-.117187-1.261719-.886719-10.402344-.957031-21.570313-.207031-33.492188.003906-.078125.007812-.160156.011718-.238281.097656-1.558594.210938-3.128906.335938-4.710938 1.796875-22.359374 7.035156-43.101562 15.304687-60.972656 5.574219 10.457032 16.628907 17.425782 28.886719 17.425782h9.046875c15.316406 0 28.761719-10.867188 31.972656-25.839844l1.480469-6.914063c.777344-3.628906.738281-7.308593-.054688-10.816406 8.148438-.859375 17.96875-1.5625 29.515626-1.5625 11.542968 0 21.367187.699219 29.507812 1.5625-.789062 3.507813-.832031 7.1875-.050781 10.816406l1.480469 6.910157c3.210937 14.976562 16.65625 25.84375 31.972656 25.84375h9.046875c12.257812 0 23.316406-6.96875 28.886719-17.429688 8.269531 17.875 13.507812 38.617188 15.300781 60.976562.128906 1.582032.242187 3.152344.339843 4.714844.003907.078125.007813.15625.011719.234375.75 11.925781.675781 23.097657-.210937 33.503907-.070313.410156-.109375.824218-.113282 1.238281-1.59375 17.328125-5.472656 32.503906-11.628906 45.445312-.179687.3125-.34375.636719-.484375.976563zm69.804688-14.488282c-1.527344 12.183594-8.59375 23.148438-19.890625 30.882813-11.457032 7.839844-26.660156 11.988281-43.960938 11.988281-1.90625 0-3.6875-.605468-5.175781-1.65625 4.105469-5.109375 7.742187-10.660156 10.917969-16.625 25.578125-1.667968 38.601562-14.375 40.167968-26.847656 1.589844-12.632812-7.238281-24.863281-24.363281-34.054688.410157-6.4375.535157-13.125.382813-20.042968 14.539062 6.234375 25.871094 14.675781 33.113281 24.746094 7.015625 9.761718 10.144531 20.988281 8.808594 31.609374zm0 0"/></svg>