<?xml version="1.0" encoding="iso-8859-1"?>
<!-- Generator: Adobe Illustrator 19.0.0, SVG Export Plug-In . SVG Version: 6.00 Build 0)  -->
<svg xmlns="http://www.w3.org/2000/svg" xmlns:xlink="http://www.w3.org/1999/xlink" version="1.1" id="Capa_1" x="0px" y="0px" viewBox="0 0 512.011 512.011" style="enable-background:new 0 0 512.011 512.011;" xml:space="preserve" width="512" height="512">
<g>
	<polygon style="fill:#F2A077;" points="405.496,415.64 313.22,338.212 260.47,286.729 156.052,286.729 156.052,446.073    261.281,446.073 330.925,504.511  "/>
	<polygon style="fill:#D6774D;" points="278.429,427.535 173.2,427.535 173.2,286.729 156.052,286.729 156.052,446.073    261.281,446.073 330.925,504.511 347.138,485.189  "/>
	<path style="fill:#475D6D;" d="M220.171,485.159h-46.884c-5.335,0-9.66-4.325-9.66-9.66V284.74h66.204v190.759   C229.831,480.834,225.506,485.159,220.171,485.159z"/>
	<path style="fill:#2C3F4F;" d="M205.468,284.74v190.759c0,5.335-4.325,9.66-9.66,9.66h24.364c5.335,0,9.66-4.325,9.66-9.66V284.74   H205.468z"/>
	<path style="fill:#D2F5FF;" d="M264.723,53.808l-66.94-45.742c-1.073-0.733-2.485-0.74-3.565-0.017l-68.371,45.759l26.265,183.453   h89.232L264.723,53.808z"/>
	<path style="fill:#9CC9D3;" d="M197.783,8.066c-0.601-0.411-1.309-0.585-2.005-0.539c0.299,0.037,0.594,0.211,0.853,0.539   l36.07,45.742l-12.597,183.453h21.241l23.378-183.453L197.783,8.066z"/>
	<g>
		<g>
			<path style="fill:#F7AA86;" d="M172.804,284.74h-33.012c-11.138,0-20.167,9.029-20.167,20.167s9.029,20.167,20.167,20.167h33.012     c11.138,0,20.166-9.029,20.166-20.167S183.942,284.74,172.804,284.74z"/>
			<path style="fill:#E88E6B;" d="M172.804,325.073h-33.012c-11.138,0-20.167,9.029-20.167,20.167s9.029,20.167,20.167,20.167     h33.012c11.138,0,20.166-9.029,20.166-20.167S183.942,325.073,172.804,325.073z"/>
			<path style="fill:#FFCCAA;" d="M172.804,365.406h-33.012c-11.138,0-20.167,9.029-20.167,20.167s9.029,20.167,20.167,20.167     h33.012c11.138,0,20.166-9.029,20.166-20.167S183.942,365.406,172.804,365.406z"/>
			<path style="fill:#E88E6B;" d="M172.804,405.74h-33.012c-11.138,0-20.167,9.029-20.167,20.167s9.029,20.167,20.167,20.167h33.012     c11.138,0,20.166-9.029,20.166-20.167S183.942,405.74,172.804,405.74z"/>
		</g>
	</g>
	<path style="fill:#FFCCAA;" d="M158.985,287.326v17.046c0,15.281,12.388,27.669,27.669,27.669h43.178v15.394   c0,30.159,24.448,54.607,54.607,54.607h6.073c10.101,0,18.29-8.189,18.29-18.29v-37.154c0-34.163-27.695-61.858-61.858-61.858   h-85.372C160.142,284.74,158.985,285.898,158.985,287.326z"/>
	<path style="fill:#8BA7BC;" d="M106.514,247.614v26.771c0,5.718,4.636,10.354,10.354,10.354H276.59   c5.718,0,10.354-4.636,10.354-10.354v-26.771c0-5.718-4.636-10.354-10.354-10.354H116.868   C111.15,237.261,106.514,241.896,106.514,247.614z"/>
	<path style="fill:#718A9E;" d="M276.59,237.261h-24.583c5.718,0,10.354,4.636,10.354,10.354v26.771   c0,5.718-4.635,10.354-10.354,10.354h24.583c5.718,0,10.354-4.635,10.354-10.354v-26.771   C286.944,241.896,282.308,237.261,276.59,237.261z"/>
	<path style="fill:#E9FBFF;" d="M264.723,53.808l-67.994,41.605l-70.881-41.605l68.371-45.759c1.08-0.723,2.492-0.716,3.565,0.017   L264.723,53.808z"/>
	<path style="fill:#D2F5FF;" d="M197.239,7.775c-0.132-0.056-0.267-0.107-0.404-0.144c-0.021-0.006-0.042-0.009-0.063-0.014   c-0.153-0.038-0.307-0.067-0.463-0.082c-0.006-0.001-0.012-0.001-0.018-0.001c-0.17-0.016-0.341-0.018-0.511-0.007   c0.299,0.037,0.594,0.211,0.853,0.539l36.07,45.742l-1.404,20.453l33.426-20.453l-66.94-45.742   c-0.145-0.099-0.297-0.183-0.453-0.255C197.301,7.797,197.269,7.788,197.239,7.775z"/>
	<g>
		<path d="M410.317,409.896l-92.055-77.249l-4.418-4.311c-4.375-16.009-14.347-29.725-27.683-38.904    c4.971-3.173,8.284-8.724,8.284-15.047v-26.771c0-9.845-8.01-17.854-17.854-17.854h-26.729l22.301-175.005    c0.012-0.093,0.008-0.185,0.016-0.278c0.015-0.161,0.039-0.319,0.043-0.482c0.001-0.053-0.006-0.104-0.006-0.157    c0.001-0.136-0.009-0.27-0.015-0.404c-0.01-0.196-0.023-0.39-0.047-0.583c-0.018-0.138-0.042-0.273-0.068-0.409    c-0.035-0.187-0.074-0.371-0.123-0.554c-0.036-0.135-0.075-0.267-0.118-0.399c-0.058-0.179-0.124-0.354-0.195-0.528    c-0.053-0.128-0.106-0.255-0.166-0.381c-0.082-0.171-0.172-0.336-0.267-0.5c-0.068-0.119-0.134-0.238-0.209-0.353    c-0.106-0.164-0.224-0.319-0.343-0.475c-0.08-0.104-0.155-0.211-0.24-0.311c-0.14-0.164-0.294-0.317-0.449-0.469    c-0.08-0.079-0.153-0.163-0.237-0.238c-0.246-0.221-0.506-0.429-0.783-0.619L202.015,1.873c-3.622-2.476-8.319-2.5-11.968-0.058    l-68.371,45.76c-0.284,0.19-0.55,0.4-0.802,0.624c-0.087,0.077-0.163,0.163-0.245,0.243c-0.158,0.154-0.315,0.308-0.458,0.474    c-0.087,0.102-0.165,0.209-0.246,0.315c-0.122,0.158-0.242,0.317-0.351,0.484c-0.076,0.116-0.144,0.236-0.213,0.356    c-0.097,0.168-0.19,0.338-0.273,0.514c-0.06,0.126-0.115,0.253-0.168,0.382c-0.074,0.18-0.14,0.361-0.199,0.547    c-0.043,0.132-0.083,0.264-0.118,0.398c-0.05,0.191-0.089,0.383-0.124,0.578c-0.024,0.135-0.05,0.269-0.066,0.406    c-0.025,0.203-0.035,0.409-0.044,0.615c-0.005,0.131-0.015,0.26-0.013,0.392c0,0.042-0.006,0.083-0.004,0.126    c0.006,0.2,0.034,0.395,0.056,0.592c0.009,0.083,0.006,0.166,0.018,0.249l0.016,0.113c0,0,0,0.001,0,0.002l10.251,71.6    c0.587,4.102,4.399,6.954,8.486,6.361c4.101-0.587,6.949-4.387,6.361-8.486l-8.061-56.304l53.751,31.55v130.054h-30.613    l-10.549-73.673c-0.587-4.102-4.392-6.945-8.486-6.361c-4.101,0.587-6.949,4.387-6.361,8.486l10.244,71.548h-26.595    c-9.845,0-17.854,8.009-17.854,17.854v26.771c0,9.299,7.148,16.951,16.237,17.772c-1.993,3.82-3.127,8.156-3.127,12.754    c0,7.944,3.373,15.111,8.756,20.161c-5.383,5.052-8.756,12.222-8.756,20.169c0,7.946,3.372,15.115,8.754,20.167    c-5.382,5.051-8.753,12.219-8.753,20.165c0,7.946,3.372,15.115,8.755,20.166c-5.383,5.051-8.755,12.22-8.755,20.167    c0,15.256,12.411,27.667,27.667,27.667h16.332v21.928c0,9.462,7.698,17.16,17.16,17.16h46.891c9.462,0,17.159-7.698,17.159-17.16    V453.57h21.221l67.549,56.686c1.405,1.18,3.116,1.755,4.817,1.755c2.14,0,4.266-0.911,5.749-2.679    c2.663-3.173,2.249-7.903-0.924-10.566l-69.641-58.44c-1.351-1.134-3.058-1.755-4.821-1.755h-23.95v-50.725    c11.399,13.268,28.281,21.696,47.104,21.696c4.143,0,7.5-3.357,7.5-7.5s-3.357-7.5-7.5-7.5c-25.924,0-47.02-21.049-47.104-46.952    v-15.548c0-4.143-3.357-7.5-7.5-7.5c-0.001,0-0.001,0-0.002,0s-0.001,0-0.002,0h-43.178c-11.121,0-20.169-9.048-20.169-20.169    v-12.131h6.321c0.013,0,0.026-0.002,0.039-0.002h74.098c29.974,0,54.358,24.385,54.358,54.358v11.206c0,4.143,3.357,7.5,7.5,7.5    s7.5-3.357,7.5-7.5v-7.221l84.373,70.803c1.405,1.18,3.116,1.755,4.817,1.755c2.141,0,4.266-0.911,5.749-2.679    C413.904,417.289,413.49,412.559,410.317,409.896z M250.921,53.46L196.65,86.669l-56.695-33.278l56.008-37.486L250.921,53.46z     M204.23,99.615l51.078-31.254l-20.568,161.4H204.23V99.615z M127.125,345.241c0-6.986,5.684-12.671,12.67-12.671h25.865    c5.209,3.888,11.53,6.359,18.388,6.864c0.925,1.785,1.428,3.771,1.428,5.807c0,6.965-5.649,12.632-12.606,12.667    c-0.022,0-0.043-0.002-0.065-0.002h-33.012c-0.021,0-0.042,0.001-0.063,0.001C132.774,357.872,127.125,352.206,127.125,345.241z     M127.126,385.573c0-6.963,5.648-12.629,12.604-12.664c0.022,0,0.043,0.002,0.065,0.002h33.011c0.021,0,0.042-0.001,0.063-0.001    c6.954,0.035,12.602,5.701,12.602,12.664c0,6.984-5.682,12.666-12.666,12.666h-33.012    C132.809,398.239,127.126,392.558,127.126,385.573z M127.126,425.906c0-6.984,5.683-12.667,12.667-12.667h33.012    c6.984,0,12.666,5.683,12.666,12.667s-5.682,12.667-12.666,12.667h-9.122c-0.02,0-0.039-0.003-0.058-0.003    s-0.038,0.003-0.058,0.003h-23.774C132.809,438.573,127.126,432.891,127.126,425.906z M222.335,347.589v127.913    c0,1.191-0.969,2.16-2.159,2.16h-46.891c-1.191,0-2.16-0.969-2.16-2.16v-21.928h1.68c15.255,0,27.666-12.411,27.666-27.667    c0-7.947-3.372-15.116-8.755-20.167c5.383-5.051,8.755-12.22,8.755-20.166c0-7.945-3.371-15.113-8.751-20.163    c5.383-5.052,8.756-12.222,8.756-20.169c0-1.93-0.225-3.836-0.619-5.7h22.475v7.894    C222.331,347.486,222.335,347.537,222.335,347.589z M154.064,317.57h-14.269c-6.986,0-12.67-5.679-12.67-12.659    c0-6.986,5.684-12.67,12.67-12.67h11.689v12.131C151.485,309.039,152.406,313.492,154.064,317.57z M161.572,277.239h-44.703    c-1.573,0-2.854-1.28-2.854-2.854v-26.771c0-1.573,1.28-2.854,2.854-2.854h35.245h89.231h35.245c1.574,0,2.854,1.28,2.854,2.854    v26.771c0,1.573-1.28,2.854-2.854,2.854h-29.647H161.572z"/>
		<path d="M353.22,130.627c4.143,0,7.5-3.357,7.5-7.5v-16.354c0-4.143-3.357-7.5-7.5-7.5s-7.5,3.357-7.5,7.5v16.354    C345.72,127.27,349.078,130.627,353.22,130.627z"/>
		<path d="M353.22,180.9c4.143,0,7.5-3.357,7.5-7.5v-16.354c0-4.143-3.357-7.5-7.5-7.5s-7.5,3.357-7.5,7.5V173.4    C345.72,177.542,349.078,180.9,353.22,180.9z"/>
		<path d="M370.18,147.586h16.354c4.143,0,7.5-3.357,7.5-7.5s-3.357-7.5-7.5-7.5H370.18c-4.143,0-7.5,3.357-7.5,7.5    S366.037,147.586,370.18,147.586z"/>
		<path d="M319.907,147.586h16.354c4.143,0,7.5-3.357,7.5-7.5s-3.357-7.5-7.5-7.5h-16.354c-4.143,0-7.5,3.357-7.5,7.5    S315.764,147.586,319.907,147.586z"/>
	</g>
</g>















</svg>
