<svg id="Capa_1" enable-background="new 0 0 508.02 508.02" height="512" viewBox="0 0 508.02 508.02" width="512" xmlns="http://www.w3.org/2000/svg"><g><g fill="#ff9eb1"><path d="m98.583 289.11-80.95 113.16-.81-139.08c25.93 11.44 53.29 20.2 81.76 25.92z"/><path d="m202.743 296.26-48.78 130.23-37-134.11c19.9 3.05 40.29 4.63 61.04 4.63 8.31 0 16.56-.25 24.74-.75z"/><path d="m498.003 247.54-83.65-27.811c23.19-17 44.47-36.439 63.47-57.95z"/></g><path d="m325.997 123.741c0-62.812-50.919-113.731-113.732-113.731s-113.731 50.919-113.731 113.731c0 74.926 39.28 145.72 100.798 183.603l-11.581 28.952c-2.627 6.568 2.21 13.714 9.285 13.714h30.459c7.075 0 11.912-7.146 9.285-13.714l-11.581-28.952c63.841-39.689 100.798-108.676 100.798-183.603z" fill="#e0ef9b"/><path d="m444.734 245.741c0-62.812-50.919-113.731-113.732-113.731s-113.732 50.919-113.732 113.731c0 74.926 39.28 145.72 100.798 183.603l-11.581 28.952c-2.627 6.568 2.21 13.714 9.285 13.714h30.459c7.075 0 11.912-7.146 9.285-13.714l-11.581-28.952c63.842-39.689 100.799-108.676 100.799-183.603z" fill="#ffda8f"/><path d="m507.737 245.249-19.011-80.761c5.995-6.956 11.761-14.105 17.272-21.439 3.317-4.416 2.427-10.685-1.988-14.002-4.418-3.317-10.686-2.428-14.002 1.988-14.999 19.963-31.953 38.513-50.501 55.292-20.342-37.001-59.059-62.528-103.776-64.218-1.761-76.196-63.696-122.099-123.728-122.099-52.548 0-93.677 32.355-111.57 70.18-5.702 12.054 12.239 20.686 18.021 8.67 17.202-35.749 53.92-58.85 93.529-58.85h.03c62.087 0 103.893 52.226 103.726 102.942-61.05 7.544-108.467 59.732-108.467 122.79 0 18.465 2.242 36.633 6.52 54.178-.603.048-1.206.081-1.809.081-4.649 0-9.14-1.39-12.96-4.01-44.72-30.72-75.403-76.709-86.37-129.5-2.711-13.051-22.008-9.039-19.59 4.07 4.069 22.063 19.747 73.547 63.044 115.752-49.795-2.833-97.402-14.644-141.898-35.265-5.013-2.323-10.956-.142-13.278 4.869s-.143 10.955 4.868 13.277c.354.164.711.322 1.065.485l.765 132.601c.025 4.333 3.269 8.284 7.399 9.598 4.008 1.081 8.293-.43 10.729-3.83l77.27-107.96c1.988.365 3.98.715 5.976 1.051l35.32 128.016c1.152 4.177 5.313 7.147 9.643 7.34 4.151 0 7.895-2.575 9.361-6.492l26.22-69.993h12.456v112c0 5.523 4.478 10 10 10s10-4.477 10-10v-112h15.88c16.622 28.825 39.557 54.092 67.686 73.66l-8.365 20.913c-4.684 11.427 2.961 27.427 18.57 27.427h5.229v16c0 5.523 4.478 10 10 10s10-4.477 10-10v-16h5.229c16.125 0 23.319-16.581 18.57-27.428l-8.365-20.912c61.57-42.832 98.823-113.176 98.271-189.98l40.14 13.341c8.284 2.56 14.606-4.666 12.889-11.782zm-480.287 126.103-.538-93.092c17.863 7.082 36.16 12.859 54.838 17.331zm127.956 22.78-24.814-89.938c16.136 1.854 30.846 2.72 49.476 2.79 2.07 1.551 4.166 3.064 6.284 4.542zm41.633-54.124 7.724-20.619c5.05.867 10.07.782 14.686-.058 2.389 7.027 5.098 13.932 8.15 20.679zm118.734 122.002 8.248-20.62c3.989.765 9.723.765 13.963 0l8.248 20.62zm28.212-44.024c-7.766 5.333-18.199 5.333-25.965 0-56.824-39.024-90.749-103.415-90.749-172.244 0-57.198 46.534-103.731 103.731-103.731s103.731 46.534 103.731 103.731c.001 68.829-33.924 133.219-90.748 172.244zm108.425-196.136c-1.097-5.584-2.568-11.035-4.391-16.324 8.431-7.386 16.565-15.113 24.367-23.159l11.779 50.037zm-364.138-98.01c0-5.52 4.48-10.01 9.99-10.01s10 4.48 10.01 9.98v.02c0 5.51-4.479 10-10 10-5.51 0-10-4.48-10-9.99z"/></g></svg>