<svg id="Layer_1" enable-background="new 0 0 512 512" height="512" viewBox="0 0 512 512" width="512" xmlns="http://www.w3.org/2000/svg"><g><path d="m480.04 165.209-314.828 314.825c-8.948 8.952-23.457 8.952-32.398.007l-11.94-11.936-.099-.099-88.811-88.82c-8.955-8.945-8.948-23.448 0-32.4l314.828-314.825c8.941-8.945 23.45-8.945 32.391 0l88.571 88.565.205.205 12.081 12.077c8.948 8.953 8.941 23.456 0 32.401z" fill="#50ffb4"/><path d="m480.04 165.209-314.828 314.825c-8.948 8.952-23.457 8.952-32.398.007l-11.94-11.936 346.88-347.578.205.205 12.081 12.077c8.948 8.952 8.941 23.455 0 32.4z" fill="#00dbc6"/><path d="m389.246 256.001-133.247 133.247-28.242-28.241-105.006-105.006 133.255-133.254 104.978 104.991z" fill="#325a93"/><g fill="#dcf3ff"><path d="m423.198 4.803h43.812v124.188h-43.812z" transform="matrix(.707 -.707 .707 .707 83.065 334.329)"/><path d="m44.991 383.009h43.812v124.188h-43.812z" transform="matrix(.707 -.707 .707 .707 -295.142 177.671)"/></g><g fill="#9bc9e0"><path d="m504.5 95.314-30.458-30.343-30.98 30.979 30.459 30.343z"/><path d="m95.314 504.5-29.837-29.721 30.979-30.98 29.838 29.721z"/></g><path d="m389.246 256.001-133.247 133.247-28.242-28.241 133.227-133.269z" fill="#132d77"/></g><g><g><g><g><g><path d="m509.804 90.01-87.814-87.814c-2.929-2.928-7.678-2.928-10.606 0l-25.677 25.676-1.215-1.215c-11.855-11.854-31.148-11.857-43.059.052l-20.444 20.844c-2.9 2.957-2.854 7.706.103 10.606s7.706 2.855 10.606-.103l20.394-20.792c6.008-6.01 15.785-6.01 21.793 0l100.852 100.851c2.911 2.91 4.515 6.78 4.515 10.896s-1.604 7.986-4.515 10.896l-85.484 85.484-122.645-122.643 41.07-41.07c2.929-2.93 2.929-7.678 0-10.607-2.93-2.928-7.678-2.928-10.607 0l-270.414 270.412c-5.743 5.744-8.906 13.381-8.906 21.504s3.163 15.76 8.906 21.504l1.215 1.215-25.675 25.676c-2.929 2.93-2.929 7.678 0 10.607l87.813 87.814c1.407 1.406 3.314 2.196 5.304 2.196s3.896-.79 5.304-2.196l25.676-25.676 1.215 1.215c5.931 5.931 13.722 8.895 21.51 8.895 7.782 0 15.563-2.961 21.481-8.879l21.473-21.343c2.938-2.92 2.952-7.669.032-10.606s-7.669-2.95-10.606-.032l-21.489 21.358c-6.008 6.01-15.785 6.01-21.793 0l-100.852-100.851c-2.911-2.91-4.514-6.78-4.514-10.896s1.603-7.986 4.514-10.896l85.483-85.483 122.645 122.644-40.632 40.632c-2.929 2.93-2.929 7.678 0 10.607 1.465 1.464 3.385 2.196 5.304 2.196s3.839-.732 5.304-2.196l269.974-269.975c5.744-5.743 8.908-13.38 8.908-21.504 0-8.123-3.164-15.76-8.907-21.504l-1.215-1.215 25.676-25.676c2.928-2.93 2.928-7.679-.001-10.608zm-471.325 306.303 77.208 77.208-20.373 20.373-77.207-77.208zm217.521-17.669-122.645-122.644 122.646-122.646 122.644 122.644zm217.521-262.958-77.208-77.207 20.374-20.373 77.207 77.207z"/></g></g></g></g><path d="m349.52 162.48c1.465 1.464 3.385 2.196 5.304 2.196s3.839-.732 5.304-2.196l15.993-15.993 15.993 15.993c1.465 1.464 3.385 2.196 5.304 2.196s3.839-.732 5.304-2.196c2.929-2.93 2.929-7.678 0-10.607l-15.993-15.993 15.993-15.993c2.929-2.93 2.929-7.678 0-10.607-2.93-2.928-7.678-2.928-10.607 0l-15.993 15.993-15.993-15.993c-2.93-2.928-7.678-2.928-10.607 0-2.929 2.93-2.929 7.678 0 10.607l15.993 15.993-15.993 15.993c-2.931 2.93-2.931 7.678-.002 10.607z"/><path d="m109.281 349.52c-2.929 2.93-2.929 7.678 0 10.607l42.593 42.593c1.465 1.464 3.385 2.196 5.304 2.196s3.839-.732 5.304-2.196c2.929-2.93 2.929-7.678 0-10.607l-42.593-42.593c-2.931-2.928-7.679-2.928-10.608 0z"/><path d="m301.161 221.819c-.76-4.072-4.674-6.764-8.748-5.998l-56.725 10.576c-2.736.511-4.965 2.494-5.789 5.153-.824 2.658-.107 5.555 1.86 7.523l31.1 31.098-42.729 7.967c-4.071.76-6.757 4.676-5.998 8.748.673 3.607 3.823 6.126 7.364 6.126.456 0 .919-.041 1.384-.128l56.724-10.576c2.736-.511 4.965-2.494 5.789-5.153.824-2.658.107-5.555-1.86-7.523l-31.1-31.098 42.729-7.967c4.073-.759 6.758-4.675 5.999-8.748z"/><path d="m132.341 130.516c-9.427 9.445-14.511 22.52-13.949 35.87.169 4.031 3.49 7.185 7.487 7.185.106 0 .214-.002.321-.007 4.138-.174 7.352-3.67 7.178-7.809-.386-9.174 3.106-18.156 9.58-24.644 6.471-6.481 15.427-9.988 24.57-9.593 4.12.163 7.636-3.037 7.811-7.176s-3.038-7.636-7.176-7.811c-13.31-.558-26.388 4.533-35.822 13.985z"/><path d="m95.654 170.742c.063 0 .128-.001.191-.002 4.142-.104 7.414-3.545 7.311-7.686-.419-16.69 5.836-32.38 17.612-44.179 11.771-11.795 27.439-18.081 44.067-17.642 4.132.064 7.582-3.169 7.687-7.31.104-4.141-3.169-7.582-7.31-7.687-20.793-.509-40.356 7.306-55.062 22.042-14.703 14.731-22.513 34.317-21.991 55.149.103 4.08 3.44 7.315 7.495 7.315z"/><path d="m349.129 395.614c12.633 0 24.864-5.049 33.823-14.025 9.428-9.446 14.512-22.521 13.949-35.871-.174-4.139-3.659-7.379-7.809-7.178-4.139.174-7.353 3.67-7.178 7.809.387 9.175-3.105 18.157-9.58 24.645-6.47 6.482-15.422 9.975-24.571 9.593-4.143-.174-7.636 3.038-7.81 7.177-.175 4.139 3.038 7.635 7.177 7.81.668.027 1.334.04 1.999.04z"/><path d="m419.449 341.363c-4.141.104-7.414 3.545-7.311 7.686.418 16.69-5.837 32.38-17.612 44.18-11.771 11.793-27.415 18.057-44.068 17.642-4.118-.074-7.582 3.169-7.687 7.31-.104 4.141 3.169 7.582 7.31 7.687.652.016 1.304.024 1.953.024 20.068 0 38.863-7.792 53.109-22.066 14.702-14.732 22.512-34.318 21.991-55.15-.103-4.143-3.524-7.374-7.685-7.313z"/></g></svg>