<svg id="Capa_1" enable-background="new 0 0 512 512" height="512" viewBox="0 0 512 512" width="512" xmlns="http://www.w3.org/2000/svg"><g><g><path d="m474.73 462.549h-437.46c-5.523 0-10 4.477-10 10v21.451c0 5.523 4.477 10 10 10h437.46c5.523 0 10-4.477 10-10v-21.451c0-5.523-4.477-10-10-10z" fill="#e7ecf1"/><path d="m474.73 486h-437.46c-5.523 0-10-4.477-10-10v18c0 5.523 4.477 10 10 10h437.46c5.523 0 10-4.477 10-10v-18c0 5.523-4.477 10-10 10z" fill="#c6d0da"/><path d="m474.73 87.162h-437.46c-5.523 0-10 4.477-10 10v21.451c0 5.523 4.477 10 10 10h437.46c5.523 0 10-4.477 10-10v-21.451c0-5.523-4.477-10-10-10z" fill="#e7ecf1"/><path d="m474.73 110.613h-437.46c-5.523 0-10-4.477-10-10v18c0 5.523 4.477 10 10 10h437.46c5.523 0 10-4.477 10-10v-18c0 5.522-4.477 10-10 10z" fill="#c6d0da"/><path d="m472.522 128.613h-433.045v24.187c0 5.523 4.477 10 10 10h413.045c5.523 0 10-4.477 10-10z" fill="#808b95"/><path d="m39.477 128.613h433.045v18h-433.045z" fill="#5e6b75"/><path d="m57.909 8h396.182v79.162h-396.182z" fill="#cf8151"/><path d="m57.909 69.162h396.182v18h-396.182z" fill="#bd6e45"/><path d="m57.909 162.799h396.182v299.75h-396.182z" fill="#cf8151"/><path d="m57.909 162.799h396.182v18h-396.182z" fill="#bd6e45"/><path d="m57.909 444.549h396.182v18h-396.182z" fill="#bd6e45"/><path d="m375.766 462.549h-239.532v-200.332c0-11.046 8.954-20 20-20h199.532c11.046 0 20 8.954 20 20z" fill="#909ba5"/><path d="m136.234 444.549h239.532v18h-239.532z" fill="#808b95"/><path d="m212.815 462.549s-17.439-13.225-19.89-31.653c-3.352-25.201 8.243-34.965 8.876-59.974 0 0 21.443 3.237 29.757 17.094 0 0-15.934-38.784 27.907-72.026 0 0 3.389 37.667 22.888 53.313 0 0 11.454-6.251 18.649-13.964 0 0 57.314 62.623 4.85 107.21z" fill="#f6e080"/><path d="m197.569 444.549c5.973 10.959 15.246 18 15.246 18h93.038c6.774-5.757 11.705-11.815 15.179-18z" fill="#eccd61"/></g><path d="m462.927 170.132c9.668 0 17.534-7.866 17.534-17.534v-17.544c7.083-2.253 12.231-8.89 12.231-16.71v-21.493c0-9.668-7.866-17.534-17.534-17.534h-13.164v-71.802c0-4.15-3.364-7.515-7.515-7.515h-78.478c-4.151 0-7.515 3.365-7.515 7.515s3.364 7.515 7.515 7.515h70.963v64.287h-381.928v-64.288h280.906c4.151 0 7.515-3.365 7.515-7.515s-3.364-7.514-7.514-7.514h-288.422c-4.15 0-7.515 3.365-7.515 7.515v71.802h-13.164c-9.668 0-17.534 7.866-17.534 17.534v21.493c0 7.82 5.148 14.457 12.231 16.71v17.544c0 9.668 7.866 17.534 17.534 17.534h.933v285.307h-13.164c-9.668 0-17.534 7.866-17.534 17.534v21.493c0 9.668 7.866 17.534 17.534 17.534h438.316c9.668 0 17.534-7.866 17.534-17.534v-21.493c0-9.668-7.866-17.534-17.534-17.534h-13.164v-285.307zm-416.358-17.535v-16.72h63.44c4.15 0 7.515-3.365 7.515-7.515s-3.364-7.515-7.515-7.515h-73.167c-1.381 0-2.505-1.124-2.505-2.505v-21.491c0-1.381 1.124-2.505 2.505-2.505h438.316c1.382 0 2.505 1.124 2.505 2.505v21.493c0 1.381-1.123 2.505-2.505 2.505h-335.091c-4.15 0-7.515 3.365-7.515 7.515s3.365 7.515 7.515 7.515h325.365v16.72c0 1.381-1.123 2.505-2.505 2.505h-413.853c-1.382-.002-2.505-1.125-2.505-2.507zm431.094 320.376v21.493c0 1.381-1.123 2.505-2.505 2.505h-438.316c-1.381 0-2.505-1.124-2.505-2.505v-21.493c0-1.381 1.124-2.505 2.505-2.505h438.316c1.381 0 2.505 1.124 2.505 2.505zm-277.412-42.726c-1.66-12.476.777-20.591 3.598-29.988 1.716-5.716 3.598-11.985 4.621-19.605 5.991 2.093 13.167 5.77 16.597 11.487 2.023 3.371 6.301 4.613 9.814 2.85s5.074-5.936 3.58-9.572c-.033-.08-3.231-8.275-1.972-19.93 1.375-12.729 7.337-24.432 17.762-34.913 2.971 13.523 9.541 33.649 23.45 44.811 2.366 1.898 5.64 2.188 8.303.735.388-.211 7.428-4.081 14.273-9.644 7.635 10.187 21.667 32.207 20.221 54.828-.822 12.842-6.672 24.312-17.392 34.134h-87.626c-4.042-3.633-13.658-13.386-15.229-25.193zm246.713 25.192h-63.448v-193.21c0-15.193-12.361-27.554-27.554-27.554h-44.439c-4.151 0-7.515 3.365-7.515 7.515s3.364 7.515 7.515 7.515h44.439c6.906 0 12.524 5.618 12.524 12.525v193.21h-45.186c7.343-9.957 11.44-21.086 12.203-33.255 2.331-37.178-27.594-70.331-28.869-71.724-2.816-3.201-8.171-3.242-11.038-.052-3.606 3.866-8.588 7.41-12.188 9.733-13.58-15.123-16.423-44.395-16.451-44.707-.383-5.753-7.512-8.902-12.025-5.314-24.826 18.824-31.858 39.622-33.385 53.754-.219 2.028-.334 3.981-.366 5.847-1.561-.782-3.204-1.516-4.929-2.201-7.131-2.832-13.181-3.766-13.435-3.804-4.328-.753-8.623 2.849-8.634 7.24-.255 10.08-2.429 17.318-4.729 24.981-3.042 10.132-6.187 20.61-4.102 36.291 1.216 9.143 5.439 17.075 9.93 23.21h-51.769v-193.21c0-6.906 5.618-12.525 12.525-12.525h125.425c4.151 0 7.515-3.365 7.515-7.515s-3.364-7.515-7.515-7.515h-125.424c-15.193 0-27.554 12.361-27.554 27.554v193.21h-63.449v-285.306h381.928z"/></g></svg>