<svg id="Capa_1" enable-background="new 0 0 512.004 512.004" height="512" viewBox="0 0 512.004 512.004" width="512" xmlns="http://www.w3.org/2000/svg"><path id="XMLID_281_" d="m502.002 155.302v-145.299l-126.114 76.572-15.084-4.065c-27.026-7.283-55.84-3.511-80.081 10.485l-34.316 19.813-85.958 49.628c-10.282 5.937-13.805 19.085-7.869 29.367 5.683 9.844 17.969 13.469 28.029 8.553l-29.793 17.201c-9.551 5.514-13.818 17.351-9.372 27.444 5.045 11.453 18.358 15.972 29.124 10.713l-15.896 9.178c-9.528 5.501-13.805 18.294-8.999 28.191 5.514 11.353 19.374 15.467 30.109 9.269l16.284-9.402c-9.937 6.693-12.68 20.482-5.284 30.578 6.518 8.897 18.902 11.12 28.454 5.605l124.177-71.694c3.241-1.871 6.475 2.439 3.773 5.027l-17.282 16.559c-8.447 8.093-9.496 21.476-1.942 30.407 7.922 9.367 21.989 10.434 31.234 2.353l43.792-38.341c15.727-13.769 27.01-31.898 32.418-52.088l7.847-29.29z" fill="#cc9e83"/><path id="XMLID_1301_" d="m374.815 255.788c4.446-10.093.179-21.93-9.373-27.444l-124.177-71.694c-3.241-1.871-1.125-6.826 2.467-5.781l22.981 6.688c11.232 3.269 23.346-2.514 27.304-13.522 4.151-11.544-1.959-24.26-13.579-28.226l-55.101-18.755c-19.788-6.735-41.129-7.442-61.318-2.032l-30.355 8.135-123.662-73.321v143.624l65.219 37.653 3.856 14.476c7.206 27.047 24.88 50.114 49.12 64.11l34.316 19.812 85.958 49.628c10.282 5.937 23.431 2.414 29.367-7.869 5.683-9.844 2.679-22.296-6.607-28.551l29.793 17.201c9.551 5.514 21.936 3.291 28.454-5.605 7.396-10.096 4.653-23.885-5.284-30.578l15.896 9.178c9.528 5.501 22.746 2.809 28.914-6.302 7.075-10.451 3.708-24.512-7.028-30.71l-16.284-9.402c10.764 5.259 24.078.74 29.123-10.713z" fill="#f2bb88"/><path id="XMLID_1376_" d="m353.312 172.893c-11.367 0-20.649 8.828-21.422 19.998v-34.402c0-11.029-8.118-20.643-19.081-21.839-12.441-1.357-23.012 7.913-23.839 19.865v-26.176c0-11.002-8.94-21.103-19.915-21.889-12.589-.902-23.082 9.044-23.082 21.441v26.624c-.828-11.952-11.398-21.223-23.839-19.865-10.963 1.196-19.082 10.81-19.082 21.839v133.554c0 3.742-5.349 4.388-6.24.754l-5.699-23.246c-2.786-11.362-13.851-18.962-25.363-16.885-12.072 2.177-20.03 13.826-17.655 25.873l11.308 57.096c4.061 20.504 14.119 39.34 28.9 54.119l21.908 21.906v90.344h123.031v-93.394l10.608-10.578c19.82-19.764 30.96-46.604 30.96-74.594v-39.625-89.422c0-11.873-9.625-21.498-21.498-21.498z" fill="#ffbf9e"/><path id="XMLID_339_" d="m510.662 150.302c-2.762-4.782-8.877-6.422-13.66-3.66l-62.55 36.113c-2.229 1.278-3.969 3.409-4.687 6.087l-8.018 29.928c-4.914 18.34-15.062 34.645-29.347 47.151l-7.591 6.646v-77.702c0-17.368-14.13-31.498-31.498-31.498-4.028 0-7.878.768-11.422 2.153v-8.567c0-17.368-14.131-31.498-31.499-31.498-4.031 0-7.883.769-11.429 2.155-.09-10.653-5.494-20.06-13.687-25.695l.446-.258c22.1-12.758 47.838-16.131 72.479-9.489l14.465 3.898c2.735.738 5.507.26 7.756-1.094l.008.002 126.734-76.406c4.729-2.852 6.252-8.997 3.401-13.727-2.853-4.731-8.998-6.253-13.728-3.401l-123.08 74.204-10.35-2.789c-29.806-8.031-60.947-3.956-87.683 11.48l-21.034 12.145-26.127-8.893c-21.737-7.398-44.95-8.169-67.13-2.224l-25.871 6.933-120.477-71.073c-4.759-2.809-10.889-1.224-13.694 3.532-2.806 4.757-1.225 10.888 3.532 13.694l124.09 73.204.002-.001c2.231 1.317 4.968 1.774 7.669 1.049l29.927-8.02c18.338-4.915 37.533-4.279 55.507 1.839l17.83 6.069c-2.512 4.505-3.954 9.684-3.97 15.194-3.584-1.417-7.483-2.205-11.565-2.205-17.396 0-31.55 14.153-31.55 31.549v95.559c-7.232-7.806-18.061-11.848-29.066-9.863-8.5 1.533-15.862 6.307-20.732 13.441-4.869 7.135-6.631 15.732-4.958 24.216l.758 3.829-5.666-3.271c-22.1-12.759-37.888-33.366-44.457-58.024l-3.856-14.476h-.001c-.66-2.477-2.266-4.703-4.662-6.086l-65.219-37.652c-4.784-2.762-10.9-1.123-13.66 3.66-2.762 4.783-1.123 10.899 3.66 13.66l61.624 35.579 2.788 10.464c7.947 29.831 27.048 54.76 53.783 70.196l20.83 12.026 5.385 27.192c4.462 22.524 15.402 43.012 31.64 59.248l19.16 19.158v86.02c0 5.523 4.478 10 10 10s10-4.477 10-10v-90.34c0-3.309-1.614-6.234-4.091-8.054l-20.928-20.927c-13.427-13.425-22.473-30.366-26.162-48.991l-11.306-57.088c-.626-3.173.033-6.393 1.856-9.064s4.58-4.459 7.762-5.033c6.222-1.121 12.305 3.02 13.876 9.425l5.698 23.246c1.61 6.568 7.642 10.746 14.366 9.937 6.714-.811 11.587-6.308 11.587-13.071l-.01-134.915c0-6.368 5.182-11.549 11.55-11.549s11.549 5.181 11.549 11.549v96.698c0 5.523 4.478 10 10 10s10-4.477 10-10l.014-125.948c0-6.34 5.158-11.498 11.498-11.498s11.498 5.158 11.498 11.498v125.823c0 5.523 4.478 10 10 10s10-4.477 10-10v-98.033c.641-5.738 5.516-10.215 11.422-10.215 6.341 0 11.499 5.158 11.499 11.498v96.75c0 5.523 4.478 10 10 10s10-4.477 10-10v-60.12c.641-5.738 5.516-10.215 11.422-10.215 6.34 0 11.498 5.158 11.498 11.498v128.574c0 15.921-4.034 31.725-11.666 45.7-2.647 4.847-.863 10.922 3.983 13.569 1.521.831 3.164 1.226 4.784 1.226 3.539 0 6.97-1.884 8.785-5.209 9.233-16.907 14.113-36.025 14.113-55.286v-24.29l20.765-18.179c17.276-15.125 29.549-34.844 35.491-57.023l6.945-25.925 58.99-34.058c4.785-2.762 6.424-8.878 3.662-13.661z"/><path id="XMLID_344_" d="m333.242 443.61c-5.522 0-10 4.477-10 10v48.393c0 5.523 4.478 10 10 10s10-4.477 10-10v-48.393c0-5.523-4.478-10-10-10z"/><path id="XMLID_345_" d="m340.313 401.539c-3.904-3.904-10.236-3.904-14.141.001s-3.904 10.239.001 14.144c1.953 1.953 4.512 2.929 7.071 2.929s5.118-.976 7.071-2.929c3.905-3.905 3.905-10.237 0-14.143z"/></svg>