<svg id="Layer_1" enable-background="new 0 0 512.023 512.023" height="512" viewBox="0 0 512.023 512.023" width="512" xmlns="http://www.w3.org/2000/svg"><g><g clip-rule="evenodd" fill-rule="evenodd"><path d="m336.241 442.019h-201.347-9.949v60.004h221.243v-60.004z" fill="#ff9346"/><g fill="#ffdcd5"><path d="m115.721 338.135c0 34.496 19.028 68.993 19.173 103.489v.395h201.348v-.395c.24-61.823 35.166-48.811 58.482-110.632 7.423-19.682-3.932-37.043-8.822-46.576-13.982-24.217-24.459-27.25-37.342-25.671l-1.239-32.999-15.288-84.852-13.778-76.469c-1.596-8.861-6.409-16.424-13.002-21.139-5.488-3.926-12.211-5.879-19.339-4.966-15.691 2.009-26.686 17.029-24.719 33.412l6.069 50.546-44.53 92.595c1.182 28.215 2.365 56.431 3.548 84.646.638 15.224-11.283 28.839-26.52 28.839-15.062 0-28.195-11.133-28.839-26.519l-.75-17.9c.604 14.657-10.875 27.761-25.545 27.761-14.508 0-27.159-10.724-27.78-25.545l-1.126-26.872v78.852z"/><path d="m170.922 301.837c.645 15.387 13.778 26.519 28.839 26.519 15.237 0 27.158-13.616 26.52-28.839-1.182-28.215-2.365-56.431-3.548-84.646-.645-15.387-13.777-26.519-28.839-26.519-15.237 0-27.158 13.616-26.52 28.839l.835 19.919 1.962 46.828z"/><path d="m144.627 311.699c14.67 0 26.149-13.104 25.545-27.761l-1.962-46.828c-.621-14.822-13.271-25.545-27.78-25.545-14.677 0-26.159 13.115-25.545 27.78l.836 19.938 1.126 26.871c.621 14.821 13.271 25.545 27.78 25.545z"/><path d="m318.254 64.424 13.777 76.47 33.373-90.19c5.727-15.475-.593-32.67-15.229-38.671-14.637-6.002-30.845 1.977-37.995 16.845l-6.928 14.406c6.593 4.716 11.406 12.279 13.002 21.14z"/></g></g><g><path d="m396.373 282.821c-.571-1.063-1.104-2.055-1.574-2.97-.075-.147-.154-.293-.237-.436-9.337-16.172-18.111-25.085-28.448-28.9-2.689-.992-5.321-1.575-7.925-1.874l-.874-23.27c-.018-.469-.068-.937-.151-1.398l-14.805-82.166 32.426-87.631c7.722-20.867-1.421-43.442-20.813-51.394-19.209-7.877-41.047 1.48-50.802 21.764l-2.587 5.379c-5.037-1.644-10.437-2.229-15.939-1.524-21.029 2.693-36.002 22.666-33.378 44.523l5.722 47.65-33.91 70.512c-7.122-7.828-17.552-12.732-29.183-12.732-9.764 0-18.957 3.979-25.885 11.205-4.469 4.66-7.657 10.378-9.324 16.521-5.411-2.881-11.634-4.513-18.254-4.513-9.506 0-18.455 3.873-25.199 10.905-6.99 7.29-10.758 17.237-10.337 27.293l.827 19.723v78.648c0 18.673 5.058 36.942 9.949 54.611 3.76 13.58 7.346 26.558 8.676 39.304-5.243.311-9.401 4.649-9.401 9.97v60.004c0 5.523 4.477 10 10 10h221.243c5.523 0 10-4.477 10-10v-60.004c0-5.378-4.249-9.752-9.572-9.978 1.792-22.959 9.95-31.259 21.623-43.109 11.06-11.229 24.825-25.203 35.841-54.412 8.272-21.942-2.124-41.3-7.709-51.701zm-49.991-261.535c9.371 3.842 13.607 15.24 9.645 25.948l-20.653 55.813-7.279-40.397c-1.526-8.468-5.341-15.908-10.624-21.7l3.721-7.738c5.098-10.598 15.929-15.724 25.19-11.926zm-163.938 182.114c3.121-3.255 7.188-5.047 11.45-5.047 10.171 0 18.45 7.44 18.849 16.938l3.547 84.647c.206 4.918-1.645 9.792-5.078 13.373-3.122 3.255-7.188 5.047-11.451 5.047-10.171 0-18.45-7.44-18.848-16.938l-.75-17.888c0-.001 0-.003 0-.004v-.007l-1.962-46.828-.835-19.918c-.206-4.921 1.644-9.795 5.078-13.375zm-52.778 22.914c2.937-3.062 6.759-4.749 10.764-4.749 9.597 0 17.408 7.008 17.788 15.956v.008l1.962 46.816v.004c.191 4.637-1.557 9.231-4.794 12.605-2.936 3.059-6.757 4.744-10.759 4.744-9.6 0-17.413-7.012-17.788-15.964l-1.962-46.809c-.195-4.638 1.551-9.235 4.789-12.611zm255.7 101.148c-9.521 25.248-20.631 36.527-31.375 47.435-12.953 13.15-25.245 25.646-27.409 57.122h-46.018c-5.523 0-10 4.477-10 10s4.477 10 10 10h55.625v40.004h-201.245v-40.004h55.619c5.523 0 10-4.477 10-10s-4.477-10-10-10h-46.135c-1.351-15.202-5.469-30.11-9.483-44.61-4.744-17.135-9.224-33.319-9.224-49.274v-21.31c5.562 3.102 12.016 4.875 18.906 4.875 7.001 0 13.701-2.102 19.44-6.019 5.962 13.41 19.697 22.676 35.695 22.676 9.764 0 18.957-3.979 25.886-11.205 7.186-7.493 11.058-17.718 10.625-28.053l-3.443-82.147 28.592-59.453 7.275 60.587c.658 5.483 5.64 9.388 11.121 8.736 5.483-.658 9.395-5.638 8.736-11.121l-17.431-145.163c-1.32-10.994 5.885-20.998 16.061-22.301 10.021-1.281 19.153 6.437 21.229 17.959l28.94 160.627.884 23.54c-.364.072-.727.143-1.092.215-1.89.373-3.847.76-5.888 1.119-20.849 3.671-32.786 2.02-41.501.813-2.708-.375-5.264-.729-7.738-.879-8.723-.532-16.485 4.459-20.756 13.349-5.293 11.021-5.28 29.186 7.257 43.027.299.331.597.645.896.963-28.703 16.278-43.848 50.385-43.848 73.041 0 5.523 4.477 10 10 10s10-4.477 10-10c0-19.048 15.125-50.341 42.567-59.625 7.203 2.946 14.005 3.577 20.352 4.164 3.876.358 7.537.696 11.369 1.521 5.4 1.165 10.719-2.271 11.881-7.67 1.163-5.399-2.271-10.718-7.67-11.881-5.006-1.078-9.646-1.507-13.74-1.885-10.557-.975-17.531-1.619-26.983-12.054-5.337-5.892-6.033-13.426-5.008-18.088.713-3.242 2.087-4.738 2.467-4.899 1.708.104 3.796.393 6.213.728 9.463 1.308 23.766 3.288 47.71-.927 2.181-.384 4.274-.796 6.294-1.195 8.601-1.698 13.686-2.577 18.17-.923 5.462 2.016 11.33 8.537 17.934 19.933.493.954 1.042 1.979 1.63 3.072 4.928 9.179 11.678 21.75 6.613 35.18z"/><path d="m235.566 432.019h-.007c-5.523 0-9.996 4.477-9.996 10s4.48 10 10.003 10 10-4.477 10-10-4.477-10-10-10z"/></g></g></svg>