<svg height="512" viewBox="0 0 512 512" width="512" xmlns="http://www.w3.org/2000/svg"><g id="Loudly_Crying_Face" data-name="Loudly Crying Face"><g id="Filled"><ellipse cx="256" cy="232" fill="#ffcc80" rx="248" ry="224"/><path d="m26.1 316.129c36.831 82.019 125.879 139.871 229.9 139.871 136.967 0 248-100.288 248-224 0-65.662-31.281-124.723-81.115-165.695a212.669 212.669 0 0 1 9.115 61.695c0 62.125-26.733 120.484-75.275 164.329-48.314 43.638-112.497 67.671-180.725 67.671-54.573 0-106.55-15.386-149.9-43.871z" fill="#ffb74d"/><circle cx="88" cy="248" fill="#ffe4c0" r="24"/><circle cx="424" cy="248" fill="#ffe4c0" r="24"/><path d="m392 512h-80a40 40 0 0 1 0-80 8.009 8.009 0 0 0 8-8v-232h64v232a8.009 8.009 0 0 0 8 8 40 40 0 0 1 0 80z" fill="#2196f3"/><path d="m200 512h-80a40 40 0 0 1 0-80 8.009 8.009 0 0 0 8-8v-232h64v232a8.009 8.009 0 0 0 8 8 40 40 0 0 1 0 80z" fill="#2196f3"/><path d="m201.916 432.049a199.138 199.138 0 0 1 -121.147 47.751 40.063 40.063 0 0 0 39.231 32.2h80a40 40 0 0 0 1.916-79.951z" fill="#1e88e5"/><path d="m393.916 432.049a199.138 199.138 0 0 1 -121.147 47.751 40.063 40.063 0 0 0 39.231 32.2h80a40 40 0 0 0 1.916-79.951z" fill="#1e88e5"/><g fill="#90caf9"><circle cx="120" cy="464" r="16"/><circle cx="312" cy="464" r="16"/></g></g><g id="Outline" fill="#231f20"><path d="m392 128a8 8 0 0 0 0-16c-39.869 0-62.064-4.23-72.736-27.353a8 8 0 0 0 -14.528 6.706c15.621 33.847 50.191 36.647 87.264 36.647z"/><path d="m120 128c37.073 0 71.643-2.8 87.264-36.647a8 8 0 1 0 -14.528-6.706c-10.672 23.123-32.867 27.353-72.736 27.353a8 8 0 0 0 0 16z"/><path d="m506.76 185.09a215.349 215.349 0 0 0 -15-43.67 226.427 226.427 0 0 0 -23.71-39.45 239.138 239.138 0 0 0 -31.32-34.3 254.754 254.754 0 0 0 -37.9-28.24 265.422 265.422 0 0 0 -43.44-21.3 275.327 275.327 0 0 0 -47.95-13.45 284.565 284.565 0 0 0 -51.44-4.68 281.725 281.725 0 0 0 -67.51 8.149 269.59 269.59 0 0 0 -60.79 23.04 8 8 0 1 0 7.44 14.161c36.53-19.201 78.32-29.35 120.87-29.35 64.26 0 124.63 22.569 169.99 63.55 45.13 40.79 69.99 94.929 70 152.45-.01 67.01-33.76 129.14-92.59 170.45a8 8 0 0 0 9.19 13.1 247.889 247.889 0 0 0 40.96-35.981 231.647 231.647 0 0 0 31.35-43.569 217.944 217.944 0 0 0 20.04-49.69 212.66 212.66 0 0 0 1.81-101.22z"/><path d="m103.99 417a8.013 8.013 0 0 0 6.56-3.41 8 8 0 0 0 -1.95-11.14c-58.85-41.31-92.6-103.44-92.6-170.45.01-56.84 24.36-110.521 68.58-151.16a8 8 0 0 0 -10.82-11.79 239.582 239.582 0 0 0 -30.72 34.13 225.984 225.984 0 0 0 -23.22 39.16 215.59 215.59 0 0 0 -14.7 43.24 212.842 212.842 0 0 0 1.93 100.73 217.944 217.944 0 0 0 20.04 49.69 231.647 231.647 0 0 0 31.35 43.569 247.555 247.555 0 0 0 40.97 35.981 7.932 7.932 0 0 0 4.58 1.45z"/><path d="m104.12 62.91a7.991 7.991 0 1 0 -6.56-3.41 7.962 7.962 0 0 0 6.56 3.41z"/><path d="m208 168a8 8 0 0 0 -8-8h-80a8 8 0 0 0 0 16h80a8 8 0 0 0 8-8z"/><path d="m312 176h80a8 8 0 0 0 0-16h-80a8 8 0 0 0 0 16z"/><circle cx="376" cy="232.43" r="8"/><path d="m384 200a8 8 0 0 0 -16 0v.43a8 8 0 1 0 16 0z"/><path d="m392 432a8.037 8.037 0 0 1 -8-8v-159.57a8 8 0 0 0 -16 0v159.57a24 24 0 0 0 24 24 24 24 0 0 1 0 48h-80a24 24 0 0 1 0-48 24 24 0 0 0 24-24v-224a8 8 0 0 0 -16 0v224a8.037 8.037 0 0 1 -8 8 40 40 0 0 0 0 80h80a40 40 0 0 0 0-80z"/><circle cx="184" cy="263.43" r="8"/><path d="m192 200a8 8 0 0 0 -16 0v31.43a8 8 0 0 0 16 0z"/><path d="m200 432a8.037 8.037 0 0 1 -8-8v-128.57a8 8 0 0 0 -16 0v128.57a24 24 0 0 0 24 24 24 24 0 0 1 0 48h-80a24 24 0 0 1 0-48 24 24 0 0 0 24-24v-224a8 8 0 0 0 -16-.05v224.05a8.037 8.037 0 0 1 -8 8 40 40 0 0 0 0 80h80a40 40 0 0 0 0-80z"/><path d="m288 264a8 8 0 0 0 16 0 40.045 40.045 0 0 0 -40-40h-16a40.045 40.045 0 0 0 -40 40 8 8 0 0 0 16 0 24.027 24.027 0 0 1 24-24h16a24.027 24.027 0 0 1 24 24z"/></g></g></svg>