<svg viewBox="0 0 48 48" xmlns="http://www.w3.org/2000/svg"><g id="Heart_on_fire" data-name="Heart on fire"><path d="m14 23c0-19 17-22 17-22s-6 7-1 13a18.74 18.74 0 0 1 4 10c0-8 7-7 7-7-3.77 4.43-2 7.48-2 14a16 16 0 0 1 -32 0c0-3.34 1.25-11.44 3-14 0 0-1 5 4 6z" fill="#f26674"/><path d="m31 1a13.43 13.43 0 0 0 -1.4 2c-4.95 2-13.6 7.42-13.6 21a5.17 5.17 0 0 1 -2.46-1.12 3.45 3.45 0 0 0 .46.12c0-19 17-22 17-22z" fill="#db5669"/><path d="m31.13 44.76a16 16 0 0 1 -24.13-13.76c0-3.34 1.25-11.44 3-14a6.11 6.11 0 0 0 .37 3.3 47.73 47.73 0 0 0 -1.37 9.7 16 16 0 0 0 22.13 14.76z" fill="#db5669"/><path d="m30.69 34.28-7.69 7.72c-3.46-3.44-1.75-1.74-7.73-7.72a4.38 4.38 0 0 1 4.31-7.28c1.31.38 1.84 1.1 3.39 2.65 1.53-1.53 2.46-2.83 4.63-2.83a4.38 4.38 0 0 1 3.09 7.46z" fill="#fc6"/><path d="m30.69 34.28-3.94 3.94a3.94 3.94 0 0 1 -5.57 0c-5.18-5.22-6.18-5.78-6.18-8.03a4.34 4.34 0 0 1 .83-2.55 4.35 4.35 0 0 1 3.75-.64c1.31.38 1.84 1.1 3.39 2.65 1.53-1.53 2.46-2.83 4.63-2.83a4.38 4.38 0 0 1 3.09 7.46z" fill="#ffde76"/><path d="m41.17 16a7.07 7.07 0 0 0 -7.17 3.35 18.19 18.19 0 0 0 -3.28-6c-4.39-5.27.77-11.45 1-11.71a1 1 0 0 0 -.93-1.64c-.17 0-17 3.21-17.8 21.63-2.57-1.2-2.11-4.09-2-4.45a1 1 0 0 0 -1.81-.76c-1.98 2.86-3.18 11.18-3.18 14.58a17 17 0 0 0 34 0c0-6.61-1.67-9.28 1.82-13.35a1 1 0 0 0 -.65-1.65zm-3.17 15a15 15 0 0 1 -30 0 45.88 45.88 0 0 1 1.49-10.11 5.64 5.64 0 0 0 4.28 3.11 1 1 0 0 0 1.23-1c0-13.7 9.05-18.67 13.61-20.3-1.71 3.16-2.79 7.89.59 11.94a17.94 17.94 0 0 1 3.8 9.41 1 1 0 0 0 2-.05c0-3 1.07-5.33 4-5.91-2.41 3.97-1 7.28-1 12.91z"/><path d="m26.06 26a6.82 6.82 0 0 0 -3.06 2.24 6.81 6.81 0 0 0 -3.14-2.24 5.38 5.38 0 0 0 -5.32 9l7.72 7.73a1 1 0 0 0 1.41 0l7.73-7.73a5.38 5.38 0 0 0 -5.34-9zm3.94 7.57-7 7-7-7a3.38 3.38 0 0 1 3.29-5.57c2.15.66 3.07 3.72 4.38 2.41l1.55-1.55a3.37 3.37 0 1 1 4.78 4.71z"/></g></svg>