<svg height="512" viewBox="0 0 60 54" width="512" xmlns="http://www.w3.org/2000/svg"><g id="009---Evil" fill="none"><path id="Path" d="m59 27c0 14.36-12.98 26-29 26s-29-11.64-29-26c0-8.33 4.37-15.75 11.17-20.5.8006655-.56541727 1.6319299-1.08620941 2.49-1.56 9.5520022-5.253406 21.1279978-5.253406 30.68 0 .8580701.47379059 1.6893345.99458273 2.49 1.56 6.8 4.75 11.17 12.17 11.17 20.5z" fill="#fccb55"/><path id="Path" d="m25.36 18.09c.4278148.9100873.646494 1.9043946.64 2.91.0036032 3.7355742-2.9266756 6.8157594-6.6577849 6.9983821-3.7311093.1826226-6.9481859-2.5966746-7.3094083-6.3147448-.3612223-3.7180702 2.2607063-7.0646453 5.9571932-7.6036373z" fill="#fff"/><path id="Path" d="m42.01 14.08c3.6964869.538992 6.3184155 3.8855671 5.9571932 7.6036373-.3612224 3.7180702-3.578299 6.4973674-7.3094083 6.3147448-3.7311093-.1826227-6.6613881-3.2628079-6.6577849-6.9983821-.006494-1.0056054.2121852-1.9999127.64-2.91z" fill="#fff"/><path id="Path" d="m13.149 10c-.4342099.0008495-.8193499-.27860577-.9532335-.69166038-.1338835-.41305462.0140878-.86530748.3662335-1.11933962 3.3535922-2.39757464 7.2013216-4.01409253 11.261-4.731.3550224-.07135613.7208825.05479535.9564767.32980083.2355941.27500549.3041071.65589096.179115.995758s-.4239573.58560597-.7815917.64244117c-3.7645877.66354862-7.3328569 2.16151782-10.443 4.384-.1700077.12359028-.3748164.1901093-.585.19z" fill="#ffebc0"/><path id="Path" d="m9.761 12.966c-.39918584.0001591-.76022657-.2371036-.9184699-.6035848-.15824333-.3664811-.08337164-.791967.1904699-1.0824152l.252-.262c.25008591-.2554449.61745306-.3580665.9637178-.2692082.3462647.0888583.6188212.3556968.715.7s.0013681.7137633-.2487178.9692082l-.226.235c-.1892101.2001329-.4525848.3133695-.728.313z" fill="#ffebc0"/><path id="Path" d="m59 27c0 14.36-12.98 26-29 26-11.27 0-21.04-5.76-25.83-14.18 5.80085037 7.1936776 14.5898666 11.3171019 23.83 11.18 16.02 0 29-11.64 29-26-.0026012-4.1497155-1.095783-8.2258701-3.17-11.82 3.3318004 4.2230337 5.1520724 9.4409121 5.17 14.82z" fill="#eaae57"/><g fill="#373737"><path id="Shape" d="m30 0c-16.542 0-30 12.112-30 27s13.458 27 30 27 30-12.112 30-27-13.458-27-30-27zm0 52c-15.439 0-28-11.215-28-25s12.561-25 28-25 28 11.215 28 25-12.561 25-28 25z"/><path id="Shape" d="m27 21c-.0027489-.4072695-.0361768-.8137531-.1-1.216.067 0 .134 0 .2-.016.779483-.1205423 1.4512474-.6135427 1.8-1.321.1596977-.3197527.1366785-.7004141-.0603866-.9985927-.1970651-.2981787-.5382372-.4685741-.895-.4470001-.3567629.0215741-.6749157.2318401-.8346134.5515928-.0607625.1294001-.1825094.219583-.324.24-.157104.0244315-.3162958-.028881-.427-.143-.1-.1-.208-.187-.31-.283-.015-.014-.028-.027-.043-.039-2.2358662-1.949526-4.8731732-3.3834016-7.725-4.2-.013 0-.025-.01-.039-.013-1.6765493-.5260877-3.3977272-.8976372-5.142-1.11-.550904-.0552285-1.0422715.346596-1.0975.8975s.346596 1.0422715.8975 1.0975c.023 0 .717.079 1.777.288-3.2287459 2.0735637-4.5304321 6.1476063-3.1021372 9.7091285 1.428295 3.5615221 5.1842351 5.6072796 8.9510368 4.8753841 3.7668018-.7318955 6.4833958-4.0352766 6.4741004-7.8725126zm-8 6c-3.0999066.0044515-5.690721-2.3576947-5.9719125-5.4448247-.2811916-3.0871301 1.8402151-5.8784894 4.8899125-6.4341753 2.4272905.7164593 4.6782982 1.9317105 6.609 3.568.3156831.7293667.4767383 1.5162562.473 2.311-.0033074 3.3123376-2.6876624 5.9966926-6 6z"/><path id="Shape" d="m45.324 14.283c1.06-.209 1.754-.283 1.776-.283.5495233-.0552285.9502284-.5454767.895-1.095-.0552285-.5495233-.5454767-.9502285-1.095-.895-1.7435549.2117088-3.4640679.5825898-5.14 1.108h-.016c-2.8590582.817908-5.5029744 2.2552643-7.744 4.21l-.04.037c-.1.1-.212.184-.312.284-.1106939.1141921-.2697585.1678345-.427.144-.1414906-.020417-.2632375-.1105999-.324-.24-.1596977-.3197527-.4778505-.5300187-.8346134-.5515928-.3567628-.021574-.6979349.1488214-.895.4470001-.1970651.2981786-.2200843.67884-.0603866.9985927.3473748.7056338 1.0161205 1.1983349 1.793 1.321.067.011.134.011.2.016-.0638232.4022469-.0972511.8087305-.1 1.216-.0065912 3.8363871 2.711145 7.1373705 6.4774154 7.8675189s7.5206516-1.3161173 8.948141-4.8770418.126166-7.6339012-3.1015564-9.7074771zm-4.324 12.717c-3.3123376-.0033074-5.9966926-2.6876624-6-6-.00391-.7951855.1575038-1.5825033.474-2.312 1.9302464-1.6361763 4.1809768-2.8511211 6.608-3.567 3.0496974.5556859 5.1711041 3.3470452 4.8899125 6.4341753-.2811915 3.08713-2.8720059 5.4492762-5.9719125 5.4448247z"/><path id="Path" d="m19 19c-.5522847 0-1 .4477153-1 1v2c0 .5522847.4477153 1 1 1s1-.4477153 1-1v-2c0-.5522847-.4477153-1-1-1z"/><path id="Path" d="m41 19c-.5522847 0-1 .4477153-1 1v2c0 .5522847.4477153 1 1 1s1-.4477153 1-1v-2c0-.5522847-.4477153-1-1-1z"/><path id="Path" d="m37.222 34.372c-1.6981398 2.2835623-4.3762425 3.6294585-7.222 3.6294585s-5.5238602-1.3458962-7.222-3.6294585c-.2219636-.2854704-.580752-.4288711-.9383308-.3750325s-.6582358.2965283-.786301.6347005c-.1280653.3381723-.0635857.7191385.1686318.996332 2.1119345 2.7126751 5.3405237 4.320717 8.778 4.372 3.4374763-.051283 6.6660655-1.6593249 8.778-4.372.3346446-.430391.2628817-1.0495198-.1613403-1.391951-.4242221-.3424311-1.0445557-.2819612-1.3946597.135951z"/><path id="Path" d="m31 42h-2c-.5522847 0-1 .4477153-1 1s.4477153 1 1 1h2c.5522847 0 1-.4477153 1-1s-.4477153-1-1-1z"/></g></g></svg>