<svg height="512pt" viewBox="0 -26 512.00105 512" width="512pt" xmlns="http://www.w3.org/2000/svg"><path d="m455.082031 113.25-21.417969-16.8125-78.335937-61.695312c19.003906-13.378907 40.90625-22.0625 63.914063-25.34375 10.648437-1.652344 21.515624-1.214844 32 1.28125 18.261718 34.304687 11.777343 75.261718 3.839843 102.570312zm0 0" fill="#707070"/><path d="m433.664062 96.4375-78.335937-61.695312c19.003906-13.378907 40.90625-22.0625 63.914063-25.34375 2.160156.277343 4.300781.703124 6.402343 1.28125 14.847657 27.816406 13.308594 60.074218 8.019531 85.757812zm0 0" fill="#9e9e9e"/><path d="m56.917969 113.25c-7.9375-27.308594-14.421875-68.265625 3.839843-102.570312 0 0 40.960938-12.714844 95.914063 24.0625zm0 0" fill="#9e9e9e"/><path d="m74.777344 113.25c-6.515625-20.988281-11.839844-52.46875 3.152344-78.835938 0 0 33.625-9.773437 78.742187 18.496094zm0 0" fill="#ef314c"/><path d="m437.222656 113.25c6.515625-20.988281 11.839844-52.46875-3.152344-78.835938 0 0-33.625-9.773437-78.742187 18.496094zm0 0" fill="#ef314c"/><path d="m503.464844 258.914062c.105468 75.113282-34.628906 146.03125-94.035156 192h-306.859376c-53.175781-41.28125-86.855468-102.761718-93.015624-169.796874-6.164063-67.039063 15.746093-133.628907 60.503906-183.910157 2.476562-2.730469 4.949218-5.375 7.507812-8.023437l58.710938-44.371094c16.863281-9.085938 34.734375-16.160156 53.246094-21.078125 10.34375-2.753906 20.863281-4.78125 31.488281-6.058594 7.339843-.9375 14.679687-1.535156 22.1875-1.878906 2.816406 0 5.632812-.082031 8.535156-.082031h8.53125c10.273437.003906 20.53125.660156 30.722656 1.960937 10.796875 1.328125 21.488281 3.410157 32 6.230469 18.324219 4.914062 36.019531 11.929688 52.734375 20.90625l58.710938 44.371094c2.558594 2.648437 5.03125 5.292968 7.507812 8.023437 39.679688 44.511719 61.578125 102.074219 61.523438 161.707031zm0 0" fill="#707070"/><path d="m477.867188 258.914062c.105468 75.113282-34.628907 146.03125-94.039063 192h-281.257813c-53.175781-41.28125-86.855468-102.761718-93.015624-169.796874-6.164063-67.039063 15.746093-133.628907 60.503906-183.910157 2.476562-2.730469 4.949218-5.375 7.507812-8.023437l58.710938-44.371094c16.863281-9.085938 34.734375-16.160156 53.246094-21.078125 10.34375-2.753906 20.863281-4.78125 31.488281-6.058594 7.339843-.9375 14.679687-1.535156 22.1875-1.878906 7.511719.34375 14.847656.941406 22.1875 1.878906 10.800781 1.328125 21.492187 3.410157 32 6.230469 18.324219 4.914062 36.023437 11.929688 52.734375 20.90625l58.710937 44.371094c2.558594 2.648437 5.035157 5.292968 7.507813 8.023437 39.679687 44.511719 61.582031 102.074219 61.527344 161.707031zm0 0" fill="#9e9e9e"/><g fill="#37474f"><path d="m273.066406 41.3125c0 37.71875-7.679687 68.265625-17.066406 68.265625s-17.066406-30.546875-17.066406-68.265625c0-8.960938.425781-17.40625 1.195312-25.257812 3.925782-.257813 7.851563-.339844 11.859375-.339844h8.023438c4.007812 0 7.933593.082031 11.859375.339844.769531 7.851562 1.195312 16.296874 1.195312 25.257812zm0 0"/><path d="m221.183594 18.015625c-2.132813 28.246094-8.703125 48.898437-16.382813 48.898437-7 0-13.140625-17.152343-15.703125-41.644531v-.085937c.171875-.511719.257813-.9375.425782-1.449219 10.34375-2.753906 20.863281-4.78125 31.488281-6.058594.085937.085938.085937.257813.171875.339844zm0 0"/><path d="m322.988281 23.90625c0 .425781-.085937.851562-.085937 1.277344v.085937c-2.5625 24.492188-8.703125 41.644531-15.703125 41.644531-7.679688 0-14.25-20.652343-16.382813-48.898437.085938-.082031.085938-.253906.171875-.339844 10.796875 1.328125 21.488281 3.410157 32 6.230469zm0 0"/></g><path d="m281.601562 161.460938s-12.800781 24.917968-25.601562 24.917968-25.601562-24.917968-25.601562-24.917968c.988281-.980469 2.042968-1.894532 3.160156-2.730469 5.976562-5.167969 13.328125-8.488281 21.160156-9.554688.855469-.085937 1.28125-.085937 1.28125-.085937s.425781 0 1.28125.085937c7.832031 1.066407 15.183594 4.386719 21.160156 9.554688 1.117188.835937 2.171875 1.75 3.160156 2.730469zm0 0" fill="#ef314c"/><path d="m298.667969 216.246094c.015625 4.257812-.503907 8.5-1.539063 12.628906-4.246094 19.5-21.183594 33.625-41.128906 34.304688-19.945312-.679688-36.882812-14.804688-41.128906-34.304688-1.035156-4.128906-1.554688-8.371094-1.539063-12.628906-.011719-.285156.015625-.574219.085938-.851563 0-1.28125.085937-2.476562.171875-3.753906.636718-7.773437 3.09375-15.285156 7.167968-21.933594 11.601563-2.324219 23.410157-3.4375 35.242188-3.328125 11.832031-.109375 23.640625 1.003906 35.242188 3.328125 4.074218 6.648438 6.53125 14.160157 7.167968 21.933594.085938 1.277344.171875 2.472656.171875 3.753906.070313.277344.097657.566407.085938.851563zm0 0" fill="#f5f5f5"/><path d="m256 194.914062c-17.136719 0-30.652344-24.585937-33.1875-29.515624-1.714844-3.339844-1.050781-7.40625 1.636719-10.023438 8.285156-8.726562 19.542969-14.03125 31.550781-14.863281 12.007812.832031 23.265625 6.136719 31.550781 14.863281 2.6875 2.617188 3.351563 6.683594 1.636719 10.023438-2.535156 4.929687-16.050781 29.515624-33.1875 29.515624zm-14.625-31.5c5.15625 7.980469 11.492188 14.433594 14.625 14.433594 3.402344 0 9.746094-6.898437 14.621094-14.433594-4.285156-3.261718-9.386719-5.28125-14.742188-5.835937-5.269531.609375-10.28125 2.625-14.503906 5.835937zm0 0"/><path d="m102.570312 459.445312c-1.890624.003907-3.730468-.625-5.222656-1.785156-55.046875-42.726562-89.914062-106.363281-96.289062-175.753906-6.378906-69.390625 16.300781-138.316406 62.636718-190.359375 2.515626-2.828125 5.097657-5.601563 7.742188-8.3125 2.121094-2.210937 5.265625-3.117187 8.238281-2.371094 2.972657.75 5.316407 3.03125 6.140625 5.984375.824219 2.949219 0 6.117188-2.152344 8.292969-2.46875 2.53125-4.875 5.117187-7.222656 7.757813-43.191406 48.511718-64.335937 112.761718-58.394531 177.441406 5.945313 64.683594 38.441406 124.003906 89.753906 163.832031 2.878907 2.234375 4.023438 6.054687 2.839844 9.503906-1.179687 3.453125-4.421875 5.769531-8.070313 5.769531zm0 0"/><path d="m25.601562 459.445312h-17.066406c-4.714844 0-8.535156-3.820312-8.535156-8.53125 0-4.714843 3.820312-8.535156 8.535156-8.535156h17.066406c4.710938 0 8.53125 3.820313 8.53125 8.535156 0 4.710938-3.820312 8.53125-8.53125 8.53125zm0 0"/><path d="m56.914062 121.789062c-3.796874-.003906-7.136718-2.511718-8.195312-6.160156-8.613281-29.660156-14.828125-72.640625 4.507812-108.960937 1.054688-1.984375 2.851563-3.476563 5.003907-4.140625 1.828125-.570313 45.5-13.488282 103.1875 25.121094 3.875 2.636718 4.902343 7.90625 2.292969 11.800781-2.609376 3.898437-7.871094 4.960937-11.785157 2.382812-42.40625-28.375-75.066406-25.617187-85.347656-23.742187-14.515625 30.597656-8.925781 67.117187-1.464844 92.78125.742188 2.578125.234375 5.359375-1.378906 7.503906s-4.136719 3.410156-6.820313 3.414062zm0 0"/><path d="m409.433594 459.445312c-3.648438.003907-6.898438-2.3125-8.078125-5.765624-1.183594-3.453126-.039063-7.277344 2.84375-9.511719 51.308593-39.828125 83.804687-99.148438 89.75-163.828125 5.945312-64.679688-15.195313-128.929688-58.386719-177.441406-2.351562-2.640626-4.757812-5.222657-7.226562-7.757813-2.152344-2.175781-2.976563-5.34375-2.152344-8.292969.824218-2.953125 3.167968-5.234375 6.140625-5.984375 2.972656-.746093 6.117187.160157 8.238281 2.371094 2.640625 2.714844 5.222656 5.484375 7.746094 8.3125 46.332031 52.042969 69.011718 120.96875 62.636718 190.359375-6.378906 69.386719-41.242187 133.027344-96.285156 175.753906-1.496094 1.160156-3.335937 1.789063-5.226562 1.785156zm0 0"/><path d="m375.722656 53.351562c-1.414062 0-2.804687-.351562-4.050781-1.023437-34.238281-18.4375-72.519531-28.085937-111.40625-28.082031h-8.53125c-38.886719-.003906-77.167969 9.640625-111.40625 28.074218-4.144531 2.242188-9.324219.695313-11.566406-3.449218-2.242188-4.148438-.695313-9.328125 3.453125-11.566406 36.734375-19.777344 77.800781-30.125 119.519531-30.125h8.53125c41.71875 0 82.789063 10.355468 119.519531 30.128906 3.441406 1.859375 5.179688 5.816406 4.21875 9.605468-.957031 3.792969-4.371094 6.445313-8.28125 6.4375zm0 0"/><path d="m455.085938 121.789062c-2.683594-.003906-5.207032-1.269531-6.820313-3.414062s-2.121094-4.925781-1.378906-7.503906c7.460937-25.664063 13.046875-62.1875-1.46875-92.789063-10.214844-1.855469-42.902344-4.648437-85.34375 23.75-2.53125 1.722657-5.796875 1.957031-8.546875.609375-2.75-1.34375-4.570313-4.0625-4.765625-7.121094-.195313-3.058593 1.261719-5.984374 3.820312-7.667968 57.6875-38.609375 101.367188-25.6875 103.1875-25.121094 2.152344.664062 3.949219 2.152344 5.003907 4.140625 19.335937 36.316406 13.121093 79.296875 4.503906 108.957031-1.054688 3.648438-4.394532 6.15625-8.191406 6.160156zm0 0"/><path d="m503.464844 459.445312h-443.730469c-4.714844 0-8.535156-3.820312-8.535156-8.53125 0-4.714843 3.820312-8.535156 8.535156-8.535156h443.730469c4.714844 0 8.535156 3.820313 8.535156 8.535156 0 4.710938-3.820312 8.53125-8.535156 8.53125zm0 0"/><path d="m177.066406 394.664062c-24.1875 0-66.691406-31.253906-79.871094-41.429687-2.511718-1.828125-3.832031-4.875-3.449218-7.957031.382812-3.082032 2.414062-5.710938 5.296875-6.867188 2.882812-1.152344 6.164062-.652344 8.570312 1.3125 30.507813 23.527344 64.382813 41.484375 71.035157 37.65625 4.660156-9.558594-17.890626-41.585937-41.941407-65.476562-3.34375-3.316406-3.367187-8.722656-.046875-12.066406 3.320313-3.347657 8.722656-3.367188 12.070313-.046876 13.738281 13.628907 57.578125 60.050782 45.101562 85.234376-2.289062 4.6875-6.621093 8.050781-11.730469 9.105468-1.652343.367188-3.34375.546875-5.035156.535156zm0 0"/><path d="m334.9375 394.664062c-1.691406.011719-3.382812-.167968-5.035156-.535156-5.109375-1.054687-9.445313-4.417968-11.734375-9.105468-12.472657-25.183594 31.367187-71.605469 45.105469-85.234376 3.347656-3.320312 8.75-3.300781 12.070312.046876 3.320312 3.34375 3.296875 8.75-.046875 12.070312-24.050781 23.886719-46.601563 55.917969-41.835937 65.542969 6.488281 3.691406 40.984374-14.613281 70.929687-37.714844 3.734375-2.757813 8.988281-2.023437 11.824219 1.652344 2.835937 3.671875 2.214844 8.941406-1.398438 11.855469-13.1875 10.167968-55.691406 41.421874-79.878906 41.421874zm0 0"/><path d="m136.535156 220.511719c-2.265625.003906-4.4375-.894531-6.035156-2.5-21.980469-21.972657-60.195312-14.804688-60.574219-14.726563-4.570312.804688-8.945312-2.1875-9.855469-6.738281-.90625-4.550781 1.992188-8.992187 6.519532-9.996094 1.925781-.394531 47.472656-9.101562 75.976562 19.402344 2.4375 2.4375 3.164063 6.105469 1.84375 9.292969-1.320312 3.1875-4.429687 5.265625-7.875 5.265625zm0 0"/><path d="m102.398438 237.578125h-42.664063c-4.714844 0-8.535156-3.820313-8.535156-8.53125 0-4.714844 3.820312-8.535156 8.535156-8.535156h42.664063c4.714843 0 8.535156 3.820312 8.535156 8.535156 0 4.710937-3.820313 8.53125-8.535156 8.53125zm0 0"/><path d="m89.664062 273.148438c-7.5625 0-15.113281-.507813-22.605468-1.519532-4.664063-.664062-7.910156-4.988281-7.246094-9.652344.667969-4.667968 4.988281-7.910156 9.652344-7.246093 17.214844 2.457031 54.242187 2.878906 58.972656-11.316407 1.492188-4.46875 6.324219-6.886718 10.796875-5.394531 4.46875 1.492188 6.886719 6.324219 5.394531 10.796875-6.789062 20.363282-34.457031 24.332032-54.964844 24.332032zm0 0"/><path d="m375.464844 220.511719c-3.449219 0-6.558594-2.078125-7.878906-5.265625-1.320313-3.1875-.59375-6.859375 1.847656-9.300782 28.507812-28.507812 74.054687-19.789062 75.976562-19.398437 4.621094.921875 7.621094 5.414063 6.699219 10.039063-.921875 4.621093-5.417969 7.621093-10.039063 6.699218-.589843-.125-38.65625-7.191406-60.570312 14.726563-1.597656 1.605469-3.769531 2.503906-6.035156 2.5zm0 0"/><path d="m452.265625 237.578125h-42.664063c-4.714843 0-8.535156-3.820313-8.535156-8.53125 0-4.714844 3.820313-8.535156 8.535156-8.535156h42.664063c4.714844 0 8.535156 3.820312 8.535156 8.535156 0 4.710937-3.820312 8.53125-8.535156 8.53125zm0 0"/><path d="m422.335938 273.148438c-20.511719 0-48.171876-3.96875-54.964844-24.335938-.964844-2.890625-.3125-6.078125 1.710937-8.359375 2.019531-2.28125 5.105469-3.3125 8.09375-2.699219 2.988281.609375 5.421875 2.765625 6.386719 5.660156 4.703125 14.101563 42.460938 13.6875 58.964844 11.320313 3.050781-.5 6.132812.683594 8.0625 3.101563 1.925781 2.417968 2.390625 5.691406 1.222656 8.550781-1.171875 2.863281-3.800781 4.867187-6.867188 5.238281-7.492187 1.015625-15.046874 1.523438-22.609374 1.523438zm0 0"/><path d="m145.074219 186.378906c-3.871094.003906-7.257813-2.597656-8.253907-6.339844-.996093-3.738281.652344-7.679687 4.011719-9.601562l43.957031-25.117188-51.25-19.214843c-2.855468-1.070313-4.925781-3.582031-5.425781-6.589844s.644531-6.054687 2.996094-7.992187c2.355469-1.9375 5.566406-2.472657 8.421875-1.402344l68.265625 25.601562c3.097656 1.160156 5.246094 4.007813 5.511719 7.304688.261718 3.300781-1.402344 6.453125-4.273438 8.09375l-59.734375 34.132812c-1.285156.738282-2.742187 1.125-4.226562 1.125zm0 0"/><path d="m366.925781 186.378906c-1.484375 0-2.941406-.386718-4.226562-1.125l-59.734375-34.132812c-2.871094-1.640625-4.535156-4.792969-4.273438-8.09375.265625-3.296875 2.414063-6.144532 5.511719-7.304688l68.265625-25.601562c2.855469-1.070313 6.066406-.535156 8.421875 1.402344 2.351563 1.9375 3.496094 4.984374 2.996094 7.992187s-2.570313 5.519531-5.425781 6.589844l-51.25 19.214843 43.957031 25.117188c3.359375 1.921875 5.007812 5.863281 4.011719 9.601562-.996094 3.742188-4.382813 6.34375-8.253907 6.339844zm0 0"/><path d="m256 271.714844c-29.417969-1.257813-52.296875-26.042969-51.199219-55.46875-.007812-.554688.027344-1.109375.09375-1.660156.203125-10.378907 3.171875-20.511719 8.601563-29.355469 2.476562-4 7.726562-5.238281 11.734375-2.769531 4.003906 2.472656 5.253906 7.71875 2.789062 11.730468-3.921875 6.40625-6.019531 13.765625-6.070312 21.28125-.003907.367188-.03125.734375-.085938 1.097656-.917969 19.878907 14.273438 36.824219 34.136719 38.078126 19.863281-1.25 35.054688-18.195313 34.132812-38.078126-.050781-.363281-.082031-.730468-.085937-1.097656-.046875-7.515625-2.144531-14.875-6.070313-21.285156-2.460937-4.011719-1.214843-9.257812 2.792969-11.726562 4.003907-2.472657 9.253907-1.234376 11.734375 2.765624 5.429688 8.84375 8.398438 18.980469 8.597656 29.355469.070313.550781.105469 1.109375.097657 1.664063 1.097656 29.425781-21.78125 54.210937-51.199219 55.46875zm34.457031-53.71875.003907.015625zm0 0"/><path d="m213.414062 229.050781c-4.253906.003907-7.859374-3.121093-8.457031-7.328125-.601562-4.210937 1.988281-8.21875 6.074219-9.402344 8.886719-2.441406 17.988281-4.023437 27.175781-4.722656 3.039063-.261718 5.984375 1.121094 7.730469 3.621094 1.742188 2.503906 2.019531 5.746094.722656 8.507812-1.292968 2.757813-3.964844 4.621094-7 4.878907-8.066406.597656-16.054687 1.96875-23.855468 4.09375-.777344.230469-1.582032.347656-2.390626.351562zm0 0"/><path d="m298.585938 229.050781c-.808594 0-1.613282-.117187-2.386719-.34375-7.804688-2.128906-15.789063-3.5-23.855469-4.097656-4.695312-.402344-8.179688-4.53125-7.777344-9.230469.398438-4.695312 4.53125-8.179687 9.226563-7.777344 9.191406.699219 18.292969 2.28125 27.179687 4.722657 4.082032 1.183593 6.671875 5.191406 6.074219 9.402343-.601563 4.207032-4.207031 7.332032-8.457031 7.328126zm0 0"/><path d="m291.25 198.242188c-.609375 0-1.214844-.066407-1.808594-.191407-22.105468-4.109375-44.777344-4.109375-66.882812 0-4.605469.992188-9.148438-1.933593-10.140625-6.542969-.996094-4.605468 1.933593-9.148437 6.539062-10.140624 24.480469-4.609376 49.605469-4.609376 74.085938 0 4.261719.917968 7.144531 4.90625 6.683593 9.242187-.460937 4.335937-4.117187 7.628906-8.476562 7.632813zm0 0"/></svg>