<svg id="Capa_1" enable-background="new 0 0 512 512" height="512" viewBox="0 0 512 512" width="512" xmlns="http://www.w3.org/2000/svg"><g id="XMLID_1213_"><g id="XMLID_2649_"><path d="m267.398 332.429v-108.997c0-53.571 43.428-96.999 96.999-96.999 53.571 0 96.999 43.428 96.999 96.999v108.997c0 26.401-21.402 47.804-47.804 47.804h-98.391c-26.401 0-47.803-21.403-47.803-47.804z" fill="#c68966"/></g><g id="XMLID_2639_"><path id="XMLID_579_" d="m105.138 501.989h180.293v-193.747h-99.024-77.383-34.271c-35.762 0-64.753 28.991-64.753 64.753v88.995c0 22.091 17.909 40 40 40h140.293-85.155z" fill="#a0c8ff"/></g><g id="XMLID_2633_"><path d="m209.803 169.696v47.161c0 40.221-27.797 68.018-62.087 68.018-34.29 0-62.087-27.797-62.087-62.087v-53.092z" fill="#f4c6af"/></g><g id="XMLID_2631_"><path d="m176.333 278.67v31.36c0 15.805-12.813 28.618-28.618 28.618-15.805 0-28.618-12.813-28.618-28.618v-31.36z" fill="#f4c6af"/></g><g id="XMLID_2629_"><path id="XMLID_537_" d="m226.569 501.989v-103.894c0-40.698 32.992-73.69 73.69-73.69h32.37 63.31 32.37c40.698 0 73.69 32.992 73.69 73.69v63.895c0 22.091-17.909 40-40 40h-153.996-81.434z" fill="#d5ea7a"/></g><g id="XMLID_2628_"><path d="m391.569 296.211v29.899c0 15.069-12.215 27.284-27.284 27.284-15.069 0-27.284-12.215-27.284-27.284v-29.899z" fill="#f4c6af"/></g><g id="XMLID_1313_"><path id="XMLID_173_" d="m142.486 117.363h86.014v26.638c0 31.402-25.456 56.858-56.858 56.858h-86.014v-26.638c0-31.402 25.456-56.858 56.858-56.858z" fill="#9da5be"/></g><g id="XMLID_1310_"><path d="m418.965 215.809v30.608c0 30.137-24.431 54.568-54.568 54.568-30.137 0-54.568-24.431-54.568-54.568v-30.608h34.446l28.808-10.128 25.669 10.128z" fill="#f4c6af"/></g><g id="XMLID_3044_"><path d="m306.742 359.528c0 28.094-22.775 50.869-50.869 50.869-28.094 0-50.869-22.775-50.869-50.869s22.775-50.869 50.869-50.869c28.094 0 50.869 22.775 50.869 50.869z" fill="#f4c6af"/></g><g id="XMLID_1260_"><path d="m174.051 501.989h163.644v-16.283c0-41.592-33.717-75.309-75.309-75.309h-13.026c-41.592 0-75.309 33.717-75.309 75.309z" fill="#fff"/></g><g id="XMLID_1257_"><path d="m184.031 501.989h-23.185v-52h23.185c14.359 0 26 11.641 26 26 0 14.36-11.641 26-26 26z" fill="#f4c6af"/></g><g id="XMLID_1237_"><path d="m327.715 501.989h23.185v-52h-23.185c-14.359 0-26 11.641-26 26 0 14.36 11.641 26 26 26z" fill="#f4c6af"/></g><g id="XMLID_1211_"><path id="XMLID_149_" d="m248.902 113.877-43.257-43.257c-13.87-13.87-13.87-36.358 0-50.228 13.87-13.87 36.358-13.87 50.228 0 13.87-13.87 36.358-13.87 50.228 0 13.87 13.87 13.87 36.358 0 50.228l-43.257 43.257c-3.85 3.85-10.092 3.85-13.942 0z" fill="#ff7a7a"/></g><g id="XMLID_198_"><path id="XMLID_188_" d="m471.396 326.378v-102.946c0-40.589-22.514-77.194-58.755-95.529-4.926-2.493-10.944-.52-13.438 4.409-2.493 4.928-.52 10.944 4.408 13.437 29.475 14.912 47.784 44.678 47.784 77.683v94.237c-7.339-2.11-15.078-3.264-23.086-3.264h-26.741v-15.242c16.556-11.702 27.396-30.976 27.396-52.746v-30.608c0-5.523-4.478-10-10-10h-18.131c-6.183 0-11.979-2.64-16.042-7.1 2.517-5.652 3.928-11.9 3.928-18.476 0-5.523-4.478-10-10-10s-10 4.477-10 10c0 14.103-11.473 25.576-25.575 25.576h-33.316c-5.522 0-10 4.477-10 10v30.608c0 21.672 10.743 40.869 27.172 52.586v15.402h-30.322c-5.585-5.056-12.114-9.083-19.282-11.802v-79.171c0-32.967 18.279-62.718 47.705-77.643 4.926-2.498 6.894-8.516 4.395-13.442-2.498-4.926-8.518-6.894-13.441-4.395-36.182 18.351-58.658 54.937-58.658 95.479v74.81h-71.064v-14.791c20.403-13.473 33.47-37.722 33.47-66.593v-26.555c11.565-12.024 18.697-28.341 18.697-46.302v-26.384l3.331 3.331c3.751 3.75 8.737 5.816 14.042 5.816s10.291-2.065 14.042-5.816l43.257-43.257c17.747-17.747 17.747-46.624 0-64.371-15.55-15.548-39.638-17.473-57.299-5.782-17.665-11.691-41.751-9.764-57.299 5.782-17.747 17.747-17.747 46.624 0 64.37l29.672 29.672h-85.761c-36.865 0-66.857 29.992-66.857 66.858v48.568c0 25.548 13.371 48.017 33.47 60.824v14.629h-34.345c-41.219.001-74.753 33.536-74.753 74.755v88.994c0 27.57 22.43 50 50 50h412c27.57 0 50-22.43 50-50v-63.895c0-30.398-16.295-57.057-40.604-71.716zm-258.679-262.829c-9.949-9.949-9.949-26.137 0-36.085 4.974-4.974 11.508-7.461 18.042-7.461 6.535 0 13.069 2.487 18.043 7.461 3.906 3.905 10.236 3.905 14.143 0 9.947-9.949 26.136-9.949 36.085 0s9.949 26.137 0 36.086l-43.156 43.157zm107.112 182.868v-20.608h23.316c11.273 0 21.595-4.123 29.56-10.929 7.573 6.917 17.56 10.929 28.129 10.929h8.131v20.608c0 24.575-19.993 44.568-44.568 44.568s-44.568-19.994-44.568-44.568zm61.739 62.231v17.461c0 9.53-7.754 17.284-17.284 17.284s-17.283-7.754-17.283-17.284v-17.525c5.539 1.552 11.368 2.4 17.396 2.4 5.946.001 11.7-.824 17.171-2.336zm-125.695 10.011c22.535 0 40.869 18.334 40.869 40.869s-18.334 40.869-40.869 40.869-40.869-18.334-40.869-40.869 18.334-40.869 40.869-40.869zm-160.245-144.438c0-25.837 21.021-46.858 46.857-46.858h76.015v16.638c0 25.837-21.021 46.858-46.857 46.858h-76.015zm0 48.568v-11.93h76.015c10.057 0 19.595-2.246 28.16-6.241v12.24c0 33.618-21.905 58.019-52.087 58.019-28.722-.001-52.088-23.367-52.088-52.088zm70.705 69.666v17.575c0 10.266-8.352 18.618-18.617 18.618s-18.618-8.353-18.618-18.618v-17.605c5.943 1.59 12.181 2.451 18.618 2.451 6.485 0 12.717-.839 18.617-2.421zm-15.487 199.534h-100.846c-16.542 0-30-13.458-30-30v-88.994c0-30.191 24.562-54.754 54.753-54.754h35.232c3.775 17.362 19.255 30.407 37.731 30.407s33.955-13.046 37.73-30.407h25.753c-10.043 10.858-16.195 25.365-16.195 41.287 0 18.963 8.72 35.925 22.356 47.097-16.294 6.59-30.37 18.141-40.035 33.364h-105.452c-5.522 0-10 4.478-10 10s4.478 10 10 10h78.973zm33.184 0h-13.185v-32h13.185c8.822 0 16 7.178 16 16s-7.177 16-16 16zm111.449 0h-79.212c2.404-4.823 3.764-10.255 3.764-16 0-14.309-8.393-26.693-20.514-32.493 12.273-14.492 30.401-23.099 49.844-23.099h13.026c19.442 0 37.57 8.606 49.842 23.098-12.121 5.8-20.514 18.184-20.514 32.493 0 5.747 1.36 11.178 3.764 16.001zm45.421 0h-13.186c-8.822 0-16-7.178-16-16s7.178-16 16-16h13.186zm151.1-30c0 16.542-13.458 30-30 30h-101.1v-32h78.973c5.522 0 10-4.478 10-10s-4.478-10-10-10h-105.453c-9.665-15.223-23.74-26.774-40.034-33.365 13.637-11.172 22.356-28.133 22.356-47.096 0-8.957-1.96-17.459-5.449-25.124h16.65c3.782 16.578 18.635 28.989 36.341 28.989 17.707 0 32.56-12.412 36.342-28.989h27.683c35.119 0 63.69 28.571 63.69 63.69v63.895z"/><path id="XMLID_612_" d="m364.34 136.379c2.63 0 5.21-1.07 7.07-2.93 1.859-1.86 2.93-4.44 2.93-7.07 0-2.64-1.07-5.21-2.93-7.07s-4.44-2.93-7.07-2.93-5.21 1.07-7.07 2.93c-1.859 1.86-2.93 4.43-2.93 7.07 0 2.63 1.07 5.21 2.93 7.07s4.44 2.93 7.07 2.93z"/></g></g></svg>