<svg height="512pt" viewBox="-1 0 512 512.00106" width="512pt" xmlns="http://www.w3.org/2000/svg"><path d="m414.914062 466.191406 13.113282-5.394531c12.511718 6.242187 26.542968 9.066406 40.632812 8.085937l-12.058594-12.058593c-19.039062-19.042969-33.949218-41.800781-43.796874-66.863281-14.800782-37.652344-40.898438-69.804688-74.707032-92.03125l-17.210937-11.3125c2.480469-3.058594 3.90625-21.496094 7.113281-23.867188l17.449219 3.859375c.179687-.136719.355469-.277344.539062-.414063-.628906-.421874-1.253906-.847656-1.886719-1.265624l-17.210937-11.3125c2.476563-3.058594 5.347656-5.816407 8.554687-8.1875l16.003907-11.820313c20.75-15.328125 35.660156-36.464844 43.417969-60.0625.371093-8.804687-.199219-17.726563-1.792969-26.625l-.996094-.996094c-45.707031-8.183593-92.097656 10.277344-119.6875 47.625l-11.820313 16.003907c-2.429687 3.285156-5.261718 6.210937-8.410156 8.730468l-12.085937-18.378906c-22.226563-33.808594-54.375-59.90625-92.03125-74.703125-25.058594-9.851563-47.820313-24.761719-66.859375-43.800781l-38.40625-38.402344-.847656 3.511719c-.207032 12.675781 2.648437 25.1875 8.277343 36.464843l-5.394531 13.113282c-1.761719 4.292968-2.941406 8.722656-3.558594 13.179687.882813 2.277344 1.859375 4.519531 2.953125 6.707031l-3.0625 7.449219c1.457031 11.761719 6.75 22.984375 15.492188 31.726563l-5.585938-5.585938-.898437 15.339844c-.75 12.792969 2.28125 25.386719 8.519531 36.296875l-.003906-.003906-.054688 5.882812c-.183593 21.367188 8.222657 41.914063 23.332031 57.023438 8.539063 8.539062 18.90625 15.027343 30.320313 18.96875l20.160156 6.964843 2.199219 2.199219c-.707031 1.945313-1.390625 3.90625-2.023438 5.882813l-7.765624 24.367187 1.589843.550781 2.199219 2.195313c-.707031 1.949219-1.390625 3.910156-2.023438 5.886719l-13.371093 41.957031c-3.429688 10.757813-12.144531 19-23.074219 21.824219l-75.925781 19.609375c2.511719 6.128906 6.097656 11.84375 10.6875 16.828125l-3.480469 1.085937.5 4.210938c1.613281 13.609375 7.761719 26.277343 17.453125 35.96875 9.691406 9.691406 22.359375 15.839843 35.972656 17.457031l4.207031.496094s1.066407-.789063 2.714844-2.039063c12.578125 10.71875 29.296875 15.445313 45.753906 12.726563l22.058594-85.402344c2.820313-10.933594 11.0625-19.648438 21.820313-23.074219l41.957031-13.375c1.980469-.632812 3.9375-1.3125 5.886719-2.019531l1.203125 1.203125 6.964844 20.160156c3.945312 11.414063 10.429687 21.78125 18.964843 30.320313 15.113281 15.109375 35.660157 23.515625 57.027344 23.328125l5.882813-.050781-.003907-.003907c10.910157 6.238281 23.503907 9.265625 36.292969 8.519531l15.34375-.898437-5.585938-5.585937c15.5 15.496093 38.792969 20.160156 59.0625 11.824218zm0 0" fill="#ade5ff"/><path d="m508.078125 455.15625-38.40625-38.402344c-18.175781-18.175781-32.160156-39.523437-41.5625-63.449218-15.636719-39.792969-42.789063-73.242188-78.515625-96.726563l-6.5625-4.316406 14.359375-10.605469c19.828125-14.648438 35.125-34.492188 44.238281-57.398438 6.210938-15.609374 9.359375-32.164062 9.359375-48.808593 0-6.601563-.503906-13.214844-1.5-19.789063l15.621094-15.621094c3.90625-3.90625 3.90625-10.238281 0-14.144531-3.902344-3.902343-10.234375-3.902343-14.140625 0l-16.367188 16.367188c-22.597656-3.117188-45.601562-.347657-66.859374 8.109375-22.902344 9.113281-42.75 24.410156-57.394532 44.238281l-10.789062 14.605469-5.128906-7.804688c-23.488282-35.726562-56.9375-62.875-96.730469-78.515625-23.921875-9.402343-45.269531-23.386719-63.445313-41.5625l-38.40625-38.402343c-2.558594-2.5625-6.300781-3.535157-9.78125-2.554688-3.480468.980469-6.164062 3.765625-7.011718 7.28125l-4.667969 19.382812c-4.550781 18.882813-2.605469 38.640626 4.941406 56.101563l-3.761719 9.148437c-8.125 19.753907-5.882812 41.785157 5.351563 59.222657l-.75 12.8125c-.804688 13.78125 2.199219 27.382812 8.476562 39.382812l-.03125 3.289063c-.207031 23.894531 9.363281 47.289062 26.261719 64.183594 9.554688 9.554687 21.355469 16.9375 34.125 21.347656l13.414062 4.636718-12.714843 39.882813c-2.398438 7.523437-8.398438 13.199219-16.046875 15.175781l-85.402344 22.054688c-3.832031.992187-6.722656 4.148437-7.367188 8.054687-.589843 3.582031-.882812 7.175781-.882812 10.753907-.00390625 13.390624 4.054688 26.515624 11.59375 37.558593-.171875.953125-.207031 1.949219-.085938 2.960938l.5 4.210937c1.871094 15.769532 9.082032 30.636719 20.3125 41.867188 11.226563 11.226562 26.09375 18.4375 41.863282 20.3125l4.210937.496094c1.011719.121093 2.007813.085937 2.964844-.085938 11.039063 7.535156 24.152344 11.59375 37.539063 11.59375 3.582031 0 7.183593-.289062 10.769531-.882812 3.90625-.644532 7.0625-3.53125 8.054687-7.363282l22.058594-85.40625c1.972656-7.648437 7.648438-13.648437 15.175781-16.046875l39.296875-12.527343 4.226563 12.234374c4.410156 12.769532 11.792969 24.570313 21.347656 34.125 16.714844 16.714844 39.789063 26.261719 63.414063 26.261719.253906 0 .511718-.003906.765624-.003906l3.292969-.027344c12 6.273438 25.597657 9.277344 39.378907 8.472657l12.8125-.75c17.441406 11.238281 39.46875 13.480468 59.226562 5.355468l9.148438-3.761718c17.457031 7.542968 37.214843 9.492187 56.097656 4.941406l19.382812-4.671875c3.519532-.84375 6.304688-3.527344 7.285156-7.007813.980469-3.484375 0-7.226562-2.554687-9.785156zm-392.550781-181.535156c-9.917969-3.425782-19.085938-9.160156-26.511719-16.585938-7.210937-7.207031-12.703125-15.9375-16.164063-25.421875 3.589844 1.40625 7.828126.660157 10.726563-2.238281 3.90625-3.90625 3.90625-10.238281 0-14.144531l-7.300781-7.300781c-9.640625-9.640626-15.34375-22.464844-16.140625-35.933594 3.71875 1.78125 8.3125 1.132812 11.394531-1.949219 3.90625-3.90625 3.90625-10.238281 0-14.144531l-7.824219-7.824219c-11.507812-11.507813-15.691406-28.148437-11.269531-43.527344 1.722656 2.078125 3.542969 4.078125 5.464844 6.003907l16.988281 16.984374c3.90625 3.90625 10.238281 3.90625 14.144531 0 3.902344-3.90625 3.902344-10.238281 0-14.144531l-16.988281-16.984375c-16.800781-16.800781-23.78125-41.585937-18.214844-64.6875l.488281-2.035156 25.789063 25.789062c20.132813 20.128907 43.777344 35.617188 70.273437 46.03125 35.929688 14.121094 66.128907 38.632813 87.335938 70.890626l6.464844 9.835937c-1.792969.816406-3.652344 1.496094-5.5625 2.019531-28.066406 7.675782-53.773438 22.605469-74.347656 43.179688-14.644532 14.648437-26.515626 32.039062-34.878907 50.980468zm95.3125 96.25-41.960938 13.375c-14.117187 4.5-24.757812 15.75-28.464844 30.101562l-20.308593 78.636719c-11.195313.285156-22.175781-3.472656-30.832031-10.621094l8.589843-19.613281c.570313-1.304688.839844-2.664062.839844-4.003906.003906-3.855469-2.234375-7.523438-5.992187-9.167969-5.058594-2.21875-10.953126.089844-13.167969 5.148437l-10.875 24.832032c-8.34375-2.371094-16.039063-6.851563-22.207031-13.019532-6.167969-6.167968-10.648438-13.863281-13.019532-22.210937l24.832032-10.871094c3.753906-1.644531 5.992187-5.316406 5.992187-9.167969 0-1.339843-.269531-2.699218-.84375-4.003906-2.214844-5.058594-8.113281-7.367187-13.167969-5.148437l-19.617187 8.589843c-6.890625-8.34375-10.640625-18.855468-10.636719-29.621093 0-.402344.003906-.804688.015625-1.207031l78.636719-20.3125c14.351562-3.707032 25.601562-14.351563 30.105468-28.46875l13.371094-41.957032c7.132813-22.375 19.679688-42.980468 36.289063-59.585937 18.117187-18.121094 40.761719-31.269531 65.480469-38.03125 7.363281-2.011719 14.238281-5.515625 20.191406-10.207031.21875-.160157.429687-.328126.628906-.5 3.703125-3.003907 7.039062-6.476563 9.890625-10.339844l11.824219-16.003906c24.269531-32.859376 63.558594-49.621094 103.726562-44.652344.578125 4.667968.859375 9.328125.859375 13.949218-.007812 35.144532-16.472656 68.328126-45.515625 89.777344l-16 11.820313c-10.222656 7.550781-17.695312 18.457031-21.046875 30.714843-6.761719 24.71875-19.914062 47.359376-38.03125 65.480469-16.609375 16.605469-37.214843 29.15625-59.585937 36.289063zm268.441406 87.304687c-23.101562 5.5625-47.886719-1.417969-64.6875-18.21875l-16.988281-16.988281c-3.90625-3.902344-10.238281-3.902344-14.140625 0-3.90625 3.90625-3.90625 10.238281 0 14.144531l16.984375 16.984375c1.921875 1.921875 3.925781 3.746094 6.003906 5.46875-15.378906 4.421875-32.019531.238282-43.53125-11.269531l-7.824219-7.824219c-1.953125-1.953125-4.511718-2.929687-7.070312-2.929687s-5.117188.976562-7.070313 2.929687c-3.082031 3.082032-3.734375 7.675782-1.949219 11.394532-13.46875-.796876-26.292968-6.5-35.933593-16.140626l-7.300781-7.300781c-3.90625-3.90625-10.238282-3.90625-14.144532 0-2.898437 2.898438-3.644531 7.136719-2.238281 10.722657-9.480469-3.457032-18.214844-8.949219-25.421875-16.160157-7.421875-7.421875-13.160156-16.589843-16.585938-26.511719l-4.363281-12.625c19.164063-8.375 36.753907-20.332031 51.546875-35.125 20.574219-20.574218 35.503906-46.28125 43.179688-74.347656.546875-2.003906 1.265625-3.953125 2.140625-5.824218l8.71875 5.734374c32.257812 21.203126 56.769531 51.402344 70.890625 87.332032 10.414062 26.5 25.902344 50.144531 46.035156 70.273437l25.789062 25.789063zm0 0"/><path d="m281.835938 270.730469c-.003907-4.394531-2.921876-8.421875-7.363282-9.636719-5.324218-1.460938-10.828125 1.679688-12.285156 7.007812-3.558594 13.003907-10.476562 24.914063-20.003906 34.445313-8.738282 8.734375-19.578125 15.335937-31.34375 19.089844-4.25 1.351562-6.964844 5.28125-6.96875 9.515625 0 1.007812.152344 2.035156.476562 3.046875 1.355469 4.253906 5.289063 6.96875 9.523438 6.96875 1.007812 0 2.03125-.15625 3.042968-.476563 14.796876-4.71875 28.425782-13.019531 39.410157-24 11.984375-11.988281 20.683593-26.964844 25.15625-43.3125.242187-.886718.355469-1.773437.355469-2.648437zm0 0"/><path d="m281.167969 244.511719c5.523437 0 10-4.476563 10-10v-.175781c0-5.523438-4.476563-10-10-10-5.523438 0-10 4.476562-10 10v.175781c0 5.523437 4.476562 10 10 10zm0 0"/></svg>