<svg height="512" viewBox="0 0 60 60" width="512" xmlns="http://www.w3.org/2000/svg"><g id="Page-1" fill="none" fill-rule="evenodd"><g id="032---Heart-Wings" fill-rule="nonzero"><path id="Shape" d="m27 8.33c-2.94 2.95-4.26 7.48-4 13.9-3.14-1.15-6.52-.07-9.73-.91-2-.52-4.73-2.29-3.85-4.71.38135567-.9482564 1.2883607-1.5804114 2.31-1.61-.2075414-.0095992-.4144692-.0296245-.62-.06-1.66302813-.1994751-3.24695725-.8227168-4.6-1.81-1.10357853-.7468114-1.59700059-2.121922-1.22-3.4.40403266-1.05810171 1.42755556-1.7497793 2.56-1.73-.96375459-.04378402-1.91964056-.19471339-2.85-.45-1.94-.55-4.71-2.28-3.83-4.71.39085905-1.09668565 1.42577286-1.83191399 2.59-1.84h14.67c4.258083.00182329 8.2118215 2.20759321 10.45 5.83-.6796082.4297829-1.3100421.9327887-1.88 1.5z" fill="#f5f5f5"/><path id="Shape" d="m53.17 31.09c-.4343275.6883061-.9404971 1.3285603-1.51 1.91-2.94 2.94-7.47 4.26-13.88 4-4.12535-.2099631-8.2226259-.7991139-12.24-1.76-.3861633-.0821618-.6878382-.3838367-.77-.77-.9605649-4.0177665-1.5530145-8.1147061-1.77-12.24-.23-6.42 1.09-11 4-13.9.5605601-.56548291 1.1808617-1.06843022 1.85-1.5 3.62-2.33 8.15-2.34 11.25.75 2.4304675 2.4537412 3.5448775 5.9195562 3 9.33 3.4130868-.5399521 6.8797257.5735293 9.34 3 3.05 3.09 3.05 7.6.73 11.18z" fill="#ef314c"/><path id="Shape" d="m52.41 19.89c-2.4134676-2.3684157-5.7924296-3.4774842-9.14-3 2.3234858.2888652 4.4842062 1.3445918 6.14 3 3.08 3.08 3.08 7.62.76 11.2-.4343275.6883061-.9404971 1.3285603-1.51 1.91-2.49 2.49-6.15 3.81-11.11 4h.23c6.41.23 10.94-1.09 13.88-4 .5667183-.565737 1.0727971-1.1891189 1.51-1.86 2.32-3.63 2.32-8.14-.76-11.25z" fill="#bb193b"/><path id="Shape" d="m37.1 7.58c2.4304675 2.4537412 3.5448775 5.9195562 3 9.33.9919197-.1640736 2.0023132-.1842814 3-.06.5249195-3.3907657-.5880019-6.8296931-3-9.27-1.9172095-1.93694913-4.673161-2.79185653-7.35-2.28 1.6518809.28896317 3.1724961 1.08597528 4.35 2.28z" fill="#bb193b"/><path id="Shape" d="m59 56.24c-.005025 1.1590884-.7311962 2.1924859-1.82 2.59-2.43.88-4.19-1.89-4.71-3.86-.2598647-.9198623-.4174843-1.8655795-.47-2.82.0197793 1.1324444-.6718983 2.1559673-1.73 2.56-1.2759626.3823804-2.6524808-.1074981-3.4-1.21-.98572-1.3576475-1.6087055-2.9443676-1.81-4.61 0-.2 0-.41-.06-.61-.0334987 1.0179629-.6649908 1.9200945-1.61 2.3-2.42.88-4.19-1.87-4.71-3.85-.84-3.22.24-6.61-.92-9.75 6.41.23 10.94-1.09 13.88-4 .5667183-.565737 1.0727971-1.1891189 1.51-1.86 3.6228881 2.2402101 5.8342766 6.1904681 5.85 10.45z" fill="#f5f5f5"/><path id="Shape" d="m59 41.57c.0032257-4.262302-2.1933766-8.2245037-5.81-10.48-.3553098.5158437-.7533798 1.0008869-1.19 1.45 2.510154 2.3207287 3.9412423 5.5814363 3.95 9v14.67c-.0056966.9171624-.4666329 1.7715809-1.23 2.28.7006701.5005529 1.6054619.616937 2.41.31 1.0983048-.3770176 1.844874-1.3990588 1.87-2.56z" fill="#cfd8dc"/><path id="Shape" d="m30.71 11.92c-.2672459-.0011094-.5229286-.1091444-.71-.3-.3877236-.3900375-.3877236-1.0199625 0-1.41 2.0416752-1.97588571 5.1579967-2.32898669 7.59-.86.4147221.30160911.5340875.8680449.2763444 1.311363-.2577431.4433182-.8090528.6198266-1.2763444.408637-1.6445987-.9819386-3.7403994-.7576797-5.14.55-.1943087.1984156-.4623774.3070921-.74.3z" fill="#f5f5f5"/><g fill="#000"><path id="Shape" d="m5.11 36.1c.26580298.0015368.52128117-.1028135.71-.29l7-7c.3877236-.3900375.3877236-1.0199625 0-1.41-.1877666-.1893127-.4433625-.2957983-.71-.2957983s-.5222334.1064856-.71.2957983l-7 7c-.38772359.3900375-.38772359 1.0199625 0 1.41.18871883.1871865.44419702.2915368.71.29z"/><path id="Shape" d="m4.35 45.76c.18871883.1871865.44419702.2915368.71.29.26580298.0015368.52128117-.1028135.71-.29l7-7c.3877236-.3900375.3877236-1.0199625 0-1.41-.1877666-.1893127-.4433625-.2957983-.71-.2957983s-.5222334.1064856-.71.2957983l-7 7c-.38772359.3900375-.38772359 1.0199625 0 1.41z"/><path id="Shape" d="m22.72 37.3c-.1877666-.1893127-.4433625-.2957983-.71-.2957983s-.5222334.1064856-.71.2957983l-11 11c-.38772359.3900375-.38772359 1.0199625 0 1.41.1862606.1847442.4376601.2888954.7.29.265803.0015368.5212812-.1028135.71-.29l11-11c.3905035-.3872819.3949712-1.0172183.01-1.41z"/><path id="Shape" d="m31.2 47.2-7 7c-.3877236.3900375-.3877236 1.0199625 0 1.41.1887188.1871865.444197.2915368.71.29.2623399-.0011046.5137394-.1052558.7-.29l7-7c.3877236-.3900375.3877236-1.0199625 0-1.41-.3900375-.3877236-1.0199625-.3877236-1.41 0z"/><path id="Shape" d="m21.25 47.25-7 7c-.3877236.3900375-.3877236 1.0199625 0 1.41.1895698.2157843.4627728.3396363.75.34.265803.0015368.5212812-.1028135.71-.29l7-7c.3877236-.3900375.3877236-1.0199625 0-1.41-.1820616-.2085813-.44245-.3323485-.7191498-.3418245-.2766999-.009476-.5449455.0961872-.7408502.2918245z"/><path id="Shape" d="m37.73 47c.4276391 1.7927738 1.5310515 3.3511647 3.08 4.35.9076787.4810556 1.9779529.550223 2.94.19.2896472-.1027877.5625759-.2476758.81-.43.3257891 1.0895797.8551298 2.1075425 1.56 3 1.0083515 1.4394739 2.8381867 2.0521239 4.51 1.51.3073403-.1110796.597004-.266016.86-.46.4291378 1.7948395 1.5365462 3.3538125 3.09 4.35.5140569.2741692 1.0874019.4183638 1.67.42 2.0413205-.0156241 3.7014555-1.6491969 3.75-3.69v-14.67c.0124337-4.2645376-2.0361746-8.2723606-5.5-10.76 2.1980075-3.7446903 1.6426897-8.4934738-1.36-11.63-2.3582587-2.3444965-5.5995082-3.5799503-8.92-3.4.1886336-3.3169663-1.0442225-6.55730463-3.39-8.91-3.1431629-3.01415222-7.9075186-3.56985751-11.66-1.36-2.4763036-3.45197629-6.4616873-5.50234643-10.71-5.51h-14.7c-1.58620408.00531779-2.99845881 1.0054982-3.53 2.5-.35981618.95871577-.29062065 2.02578355.19 2.93.99618749 1.5534538 2.55516046 2.66086219 4.35 3.09-.19398402.26299605-.34892041.55265972-.46.86-.53485966 1.6880903.1038585 3.5269477 1.57 4.52.89016879.7084025 1.90884308 1.2381131 3 1.56-.18232421.2474241-.3272123.5203528-.43.81-.35892453.9622387-.28979262 2.0319641.19 2.94 1.00120907 1.5510383 2.5635415 2.6547044 4.36 3.08 1.5752768.3441289 3.1905929.4686429 4.8.37 1.4184148-.0798276 2.8411263.0311641 4.23.33.2499787 3.9353934.8320494 7.8426264 1.74 11.68.1697316.7617976.7671058 1.3552673 1.53 1.52 3.8430823.9152794 7.7572996 1.5007392 11.7 1.75.3076443 1.3909929.4220547 2.8177577.34 4.24-.0939392 1.6169759.0373165 3.2391616.39 4.82zm-15.73-26.09c-1.3866513-.2366202-2.7950705-.3204546-4.2-.25-1.4308076.0912485-2.8673758-.0130456-4.27-.31-1.2453432-.2837573-2.3400431-1.0218774-3.07-2.07-.2167821-.3921552-.2532494-.8589361-.1-1.28.2376796-.5950557.8093221-.9892919 1.45-1h7.19c.5522847 0 1-.4477153 1-1s-.4477153-1-1-1h-7.23c-.1676112-.005255-.3346672-.0219606-.5-.05-1.48733747-.1663789-2.90649647-.714064-4.12-1.59-.75312862-.4976722-1.11949791-1.4096132-.92-2.29.26938062-.66888644.92940919-1.09690497 1.65-1.07h7.12c.5522847 0 1-.44771525 1-1s-.4477153-1-1-1h-7.12c-.87608981-.04491032-1.7446136-.18575201-2.59-.42-1.25422315-.28170109-2.35698076-1.02401041-3.09-2.08-.22852823-.40361301-.26162985-.88910349-.09-1.32.24770404-.70074633.90680397-1.17210264 1.65-1.18h14.67c3.5519918.01254512 6.8890388 1.70331561 9 4.56-.4080417.31162715-.7986318.64546484-1.17 1-2.85 2.98-4.26 7.32-4.26 13.35zm5.74-11.91c1.6987171-1.7857335 4.03621-2.82501882 6.5-2.89 1.9329912-.01010871 3.7888598.75746412 5.15 2.13 2.1951288 2.2175663 3.2016964 5.3486975 2.71 8.43-.0672562.329047.0351548.6698813.2726367.9073633.237482.2374819.5783163.3398929.9073633.2726367 3.0755082-.4794885 6.1968433.5214147 8.42 2.7 3.11 3.11 2.79 8.12-.75 11.66-4.26 4.26-12.27 4.89-25.21 2-2.9-12.9-2.26-20.91 2-25.21zm11.43 29c6 0 10.29-1.44 13.19-4.35.3598933-.3700316.6940092-.7642883 1-1.18 2.9165378 2.1136836 4.6422068 5.4980775 4.64 9.1v14.67c-.0048285.7380606-.4671341 1.3956505-1.16 1.65-.4300968.170373-.9136269.1410682-1.32-.08-1.0517955-.7371444-1.7928986-1.83811-2.08-3.09-.2458531-.8503433-.3934822-1.7260523-.44-2.61v-7.11c0-.5522847-.4477153-1-1-1s-1 .4477153-1 1v7.15c.0314587.6942446-.3652869 1.3369726-1 1.62-.8733356.2050409-1.7821873-.1537163-2.28-.9-.8782986-1.2168853-1.4292417-2.6390071-1.6-4.13-.0098589-.1665209-.0098589-.3334791 0-.5v-7.24c0-.5522847-.4477153-1-1-1s-1 .4477153-1 1v7.21c-.0212012.6324834-.4131993 1.1930407-1 1.43-.4342514.1719074-.922867.1388432-1.33-.09-1.0481226-.7299569-1.7862427-1.8246568-2.07-3.07-.3015098-1.401976-.4058498-2.8391759-.31-4.27.0704546-1.4049295-.0133798-2.8133487-.25-4.2z"/></g></g></g></svg>