<svg id="Filled_Expand" height="512" viewBox="0 0 64 64" width="512" xmlns="http://www.w3.org/2000/svg" data-name="Filled Expand"><path d="m40.6722 44h-13.3444a10 10 0 0 1 -9.9228-11.24l1.9826-15.86a14.726 14.726 0 0 1 14.6124-12.9 14.726 14.726 0 0 1 14.6124 12.9l1.9826 15.86a10 10 0 0 1 -9.9228 11.24z" fill="#6e5043"/><path d="m12 59h44v-11.3153a6 6 0 0 0 -4.5448-5.8209l-11.4552-2.8638h-12l-11.4552 2.8638a6 6 0 0 0 -4.5448 5.8209z" fill="#fc3a52"/><path d="m40 33.0083v7.9917a6 6 0 0 1 -6 6 6 6 0 0 1 -6-6v-8z" fill="#ffb89c"/><path d="m23 19.0623v6.9377a11 11 0 0 0 11 11 11 11 0 0 0 11-11v-7a2 2 0 0 0 -2-2h-4.19a8.1352 8.1352 0 0 1 -6.25-2.9271 4.772 4.772 0 0 0 -6.0337-1.0883 7 7 0 0 0 -3.5263 6.0777z" fill="#ffc8b3"/><path d="m10 42 17.3109-13.6665a5.1429 5.1429 0 0 1 3.8245-1.0666 5.1428 5.1428 0 0 1 4.328 6.44l-5.4634 20.2931-5.3675-6.0385a5.7738 5.7738 0 0 0 -6.3426-1.57 5.7737 5.7737 0 0 1 -6.8313-2.2034z" fill="#e9fbf8"/><path d="m31 48 6 11h11c.11 0-12-16-12-16" fill="#fd6175"/><rect fill="#ffc8b3" height="12" rx="4" width="8" x="29" y="38"/><path d="m37.5527 23.3945 3 1.5a1 1 0 0 0 .8946-1.789l-1.2115-.6055 1.2115-.6055a1 1 0 1 0 -.8946-1.789l-3 1.5a1 1 0 0 0 0 1.789z"/><path d="m30.4473 21.6055-3-1.5a1 1 0 1 0 -.8946 1.789l1.2115.6055-1.2115.6055a1 1 0 0 0 .8946 1.789l3-1.5a1 1 0 0 0 0-1.789z"/><path d="m20.0005 42a.9938.9938 0 0 0 .65-.2412l7-6a1 1 0 1 0 -1.3018-1.5176l-7 6a1 1 0 0 0 .6518 1.7588z"/><path d="m51.6978 40.8936-2.09-.5226a10.9022 10.9022 0 0 0 1.98-7.7353l-1.9824-15.86a15.7259 15.7259 0 0 0 -31.209 0l-1.9824 15.86a11.0014 11.0014 0 0 0 .0422 2.994l-7.0762 5.5851a1.0005 1.0005 0 0 0 -.2124 1.34l1.4585 2.1875a6.87 6.87 0 0 0 .7.8793 6.7832 6.7832 0 0 0 -.3261 2.063v11.3154a1 1 0 0 0 1 1h44a1 1 0 0 0 1-1v-11.3154a6.99 6.99 0 0 0 -5.3022-6.791zm-33.3-8.01 1.9824-15.86a13.7261 13.7261 0 0 1 27.24 0l1.9824 15.86a8.9322 8.9322 0 0 1 -2.1177 6.9567l-6.4849-1.6203v-2.4832a11.97 11.97 0 0 0 5-9.7368v-7a3.0033 3.0033 0 0 0 -3-3h-4.19a7.1168 7.1168 0 0 1 -5.4814-2.5664 5.765 5.765 0 0 0 -7.2983-1.3174 8.0172 8.0172 0 0 0 -4.0303 6.9463v6.9375a11.8264 11.8264 0 0 0 .9167 4.5287l-4.5821 3.6174a9.0361 9.0361 0 0 1 .0629-1.2623zm19.6022 11.0933v-1.9769a4.9987 4.9987 0 0 0 -2.2112-4.1475 11.9315 11.9315 0 0 0 3.2112-.957v4.1045a4.9537 4.9537 0 0 1 -1 2.9769zm-8 2.0231v-4a3 3 0 0 1 6 0v4a3 3 0 0 1 -6 0zm5.5963-17.0566a6.1424 6.1424 0 0 0 -8.9048-1.3946l-2.14 1.6894a9.8244 9.8244 0 0 1 -.5515-3.2382v-6.9375a6.0129 6.0129 0 0 1 3.0229-5.21 3.7671 3.7671 0 0 1 4.77.8614 9.1142 9.1142 0 0 0 7.0176 3.2861h4.1895a1.0009 1.0009 0 0 1 1 1v7a9.98 9.98 0 0 1 -8.06 9.7861l.49-1.8193a6.1418 6.1418 0 0 0 -.8337-5.0234zm-7.6656.1757a4.1405 4.1405 0 0 1 6.0054.9405 4.1393 4.1393 0 0 1 .5615 3.3877l-.9706 3.606a4.8751 4.8751 0 0 0 -.527-.0533 5.0059 5.0059 0 0 0 -5 5v4a4.982 4.982 0 0 0 2.0392 4.0069l-.523 1.9433-4.1362-4.6523a6.8122 6.8122 0 0 0 -7.4409-1.8428 4.7524 4.7524 0 0 1 -5.6484-1.8223l-.9468-1.42zm-14.9307 18.5655a4.6557 4.6557 0 0 1 .0776-.7218 6.7487 6.7487 0 0 0 5.5641.3653 4.8 4.8 0 0 1 5.2431 1.2979l5.3677 6.0381a.9984.9984 0 0 0 .7475.3359 1.0241 1.0241 0 0 0 .23-.0264 1.0013 1.0013 0 0 0 .7359-.7138l.7633-2.8354 3.5865 6.5756h-14.3157v-5a1 1 0 0 0 -2 0v5h-6zm24.5938 10.3154-3.8588-7.0743a4.9929 4.9929 0 0 0 4.1272-3.8036c3.8407 5.0836 6.7078 8.8971 8.1798 10.8779zm17.4062 0h-6v-5a1 1 0 0 0 -2 0v2.9408c-.6523-.88-6.2864-8.3632-7.7682-10.3247a6.9558 6.9558 0 0 0 1.7682-4.6161v-.72l10.2124 2.553a4.9946 4.9946 0 0 1 3.7876 4.8516z"/><path d="m12 29a1 1 0 0 0 -1-1h-4a1 1 0 0 0 0 2h4a1 1 0 0 0 1-1z"/><path d="m12.8945 32.5527a1 1 0 0 0 -1.3418-.4472l-4 2a1 1 0 0 0 .8946 1.789l4-2a1 1 0 0 0 .4472-1.3418z"/></svg>