<?xml version="1.0" encoding="iso-8859-1"?>
<!-- Generator: Adobe Illustrator 19.0.0, SVG Export Plug-In . SVG Version: 6.00 Build 0)  -->
<svg version="1.1" id="Capa_1" xmlns="http://www.w3.org/2000/svg" xmlns:xlink="http://www.w3.org/1999/xlink" x="0px" y="0px"
	 viewBox="0 0 512.002 512.002" style="enable-background:new 0 0 512.002 512.002;" xml:space="preserve">
<path style="fill:#2DADE3;" d="M459.502,262.5v75c24.853,0,45-20.147,45-45L459.502,262.5z"/>
<path style="fill:#49C9FF;" d="M474.502,292.5l-15-30l-45,30c0,24.853,20.147,45,45,45C467.786,337.5,474.502,317.353,474.502,292.5
	z"/>
<path style="fill:#9DB55F;" d="M484.502,172.5h-30l20,120h30v-100C504.502,181.454,495.548,172.5,484.502,172.5z"/>
<path style="fill:#B9D171;" d="M454.502,172.5h-20c-11.046,0-20,8.954-20,20v100h60v-100
	C474.502,181.454,465.548,172.5,454.502,172.5z"/>
<path style="fill:#FFB4A9;" d="M459.502,52.5v101l45-46v-10C504.502,72.647,484.355,52.5,459.502,52.5z"/>
<path style="fill:#FFD9D4;" d="M459.502,52.5c-24.853,0-45,20.147-45,45v10l60,46v-56C474.502,72.647,467.786,52.5,459.502,52.5z"/>
<path style="fill:#FF6337;" d="M478.211,107.5c-1.053-1.573-2.303-3.002-3.709-4.261l-15,69.261c24.853,0,45-20.147,45-45v-20
	H478.211z"/>
<path style="fill:#FF8646;" d="M474.502,127.5v-24.261c-3.981-3.566-9.235-5.739-15-5.739c-7.801,0-14.672,3.971-18.709,10h-26.291
	v20c0,24.853,20.147,45,45,45C467.786,172.5,474.502,152.353,474.502,127.5z"/>
<circle style="fill:#60312C;" cx="339.501" cy="30" r="22.5"/>
<path style="fill:#A45E43;" d="M373.757,68.335c0.01-0.01-34.255-0.005-34.255-0.005v74.17c24.85,0,45-20.15,45-45
	C384.502,86.38,380.457,76.185,373.757,68.335z"/>
<path style="fill:#C27749;" d="M353.392,80.51l-48.145-12.175c-6.7,7.85-10.745,18.045-10.745,29.165c0,24.85,20.15,45,45,45
	c8.28,0,15-20.15,15-45C354.502,91.49,354.112,85.75,353.392,80.51z"/>
<path style="fill:#40211D;" d="M339.502,52.5l13.89,28.01c7.45-2.23,14.475-6.295,20.365-12.175
	C365.507,58.645,353.222,52.5,339.502,52.5z"/>
<path style="fill:#60312C;" d="M339.502,52.5c-13.72,0-26.005,6.145-34.255,15.835c13.04,13.04,31.645,17.105,48.145,12.175
	C351.162,64.08,345.782,52.5,339.502,52.5z"/>
<path style="fill:#2DADE3;" d="M364.502,172.5h-30v120h50v-100C384.502,181.454,375.548,172.5,364.502,172.5z"/>
<path style="fill:#49C9FF;" d="M334.502,172.5h-20c-11.046,0-20,8.954-20,20v100h60v-100
	C354.502,181.454,345.548,172.5,334.502,172.5z"/>
<polygon style="fill:#FF4128;" points="384.502,262.5 354.502,262.5 324.502,307.5 354.502,352.5 384.502,352.5 "/>
<path style="fill:#FF6337;" d="M354.502,262.5h-60c-9.329,10.575-15,24.454-15,39.665V352.5h75V262.5z"/>
<path style="fill:#60312C;" d="M87.502,262.5v75c24.853,0,45-20.147,45-45L87.502,262.5z"/>
<path style="fill:#85453D;" d="M102.502,292.5l-15-30l-45,30c0,24.853,20.147,45,45,45C95.786,337.5,102.502,317.353,102.502,292.5z
	"/>
<path style="fill:#FFA754;" d="M112.502,172.5h-30l20,120h30v-100C132.502,181.454,123.548,172.5,112.502,172.5z"/>
<path style="fill:#FFCB63;" d="M82.502,172.5h-20c-11.046,0-20,8.954-20,20v100h60v-100C102.502,181.454,93.548,172.5,82.502,172.5z
	"/>
<path style="fill:#FF8D7E;" d="M102.502,52.5v90c24.853,0,45-20.147,45-45S127.355,52.5,102.502,52.5z"/>
<path style="fill:#FFB4A9;" d="M117.502,97.5c0-24.853-6.716-45-15-45c-24.853,0-45,20.147-45,45s20.147,45,45,45
	C110.786,142.5,117.502,122.353,117.502,97.5z"/>
<path d="M459.502,45c-28.948,0-52.5,23.552-52.5,52.5v30c0,15.626,6.87,29.67,17.739,39.296c-8.061,3.072-14.313,9.83-16.691,18.204
	h-17.097c-3.274-11.528-13.889-20-26.452-20h-50c-15.163,0-27.5,12.337-27.5,27.5v67.259c-9.693,11.989-15,26.935-15,42.406V352.5
	c0,4.143,3.357,7.5,7.5,7.5h22.5v134.5c0,3.229,2.065,6.095,5.128,7.115l30,10c0.787,0.262,1.587,0.387,2.373,0.387
	c3.141,0,6.066-1.987,7.114-5.13c1.31-3.93-0.814-8.178-4.743-9.487l-24.872-8.29V360h45v134.5c0,3.229,2.065,6.095,5.128,7.115
	l30,10c0.771,0.257,1.571,0.385,2.372,0.385s1.602-0.128,2.372-0.385l30-10c3.063-1.021,5.128-3.887,5.128-7.115V339.924
	c6.824,3.251,14.452,5.076,22.5,5.076s15.676-1.825,22.5-5.076v149.171l-24.872,8.29c-3.93,1.31-6.053,5.558-4.743,9.487
	c1.048,3.143,3.974,5.13,7.114,5.13c0.786,0,1.586-0.125,2.373-0.387l30-10c3.063-1.021,5.128-3.887,5.128-7.115V329.192
	c9.27-9.472,15-22.423,15-36.692v-100c0-11.727-7.381-21.757-17.739-25.704C505.13,157.171,512,143.126,512,127.5v-30
	C512.001,68.552,488.45,45,459.502,45z M459.502,60c20.678,0,37.5,16.822,37.5,37.5v2.5h-15.139c-5.653-6.324-13.747-10-22.361-10
	s-16.708,3.676-22.361,10h-15.139v-2.5C422.002,76.822,438.824,60,459.502,60z M392.002,200h15v25.733
	c-4.992,0.377-10.008,0.377-15,0V200z M314.502,180h50c6.893,0,12.5,5.607,12.5,12.5v30.931
	c-17.308-4.03-33.732-12.77-47.196-26.235c-2.93-2.928-7.678-2.928-10.607,0c-2.929,2.93-2.929,7.678,0,10.607
	c16.399,16.399,36.608,26.718,57.804,30.97V255h-75v-62.5C302.002,185.607,307.609,180,314.502,180z M287.002,302.165
	c0-11.687,3.905-22.982,11.039-32.165h78.961v75h-90V302.165z M399.502,496.595l-22.5-7.5V360h7.5c4.143,0,7.5-3.357,7.5-7.5
	V240.761c2.497,0.164,4.999,0.252,7.5,0.252s5.003-0.088,7.5-0.252V292.5c0,14.269,5.73,27.22,15,36.692v159.903L399.502,496.595z
	 M422.757,300h73.491c-3.484,17.096-18.635,30-36.745,30S426.241,317.096,422.757,300z M484.502,180c6.893,0,12.5,5.607,12.5,12.5
	V285h-75v-46.227c21.196-4.252,41.405-14.571,57.804-30.97c2.929-2.93,2.929-7.678,0-10.607c-2.93-2.928-7.678-2.928-10.607,0
	c-13.464,13.465-29.888,22.205-47.196,26.235V192.5c0-6.893,5.607-12.5,12.5-12.5H484.502z M459.502,165
	c-20.678,0-37.5-16.822-37.5-37.5V115h18.791c2.502,0,4.84-1.248,6.232-3.327c2.797-4.179,7.462-6.673,12.477-6.673
	s9.68,2.494,12.477,6.673c1.393,2.079,3.73,3.327,6.232,3.327h18.791v12.5C497.002,148.178,480.18,165,459.502,165z"/>
<path d="M339.502,150c28.948,0,52.5-23.552,52.5-52.5c0-12.813-4.621-24.564-12.275-33.689c-0.204-0.269-0.422-0.531-0.667-0.777
	c-4.778-5.462-10.622-9.917-17.222-13.033c4.762-5.312,7.665-12.323,7.665-20.001c0-16.542-13.458-30-30-30s-30,13.458-30,30
	c0,7.679,2.903,14.689,7.665,20.001c-6.6,3.116-12.445,7.571-17.195,13.008c-0.273,0.271-0.49,0.533-0.695,0.802
	c-7.654,9.125-12.275,20.875-12.275,33.689C287.002,126.448,310.554,150,339.502,150z M339.502,135c-20.678,0-37.5-16.822-37.5-37.5
	c0-6.567,1.702-12.742,4.68-18.116c9.75,7.072,21.284,10.614,32.82,10.614s23.07-3.542,32.82-10.614
	c2.978,5.374,4.68,11.549,4.68,18.116C377.002,118.178,360.18,135,339.502,135z M316.48,67.931C322.84,62.968,330.829,60,339.502,60
	s16.663,2.968,23.022,7.931C348.685,77.351,330.319,77.351,316.48,67.931z M324.502,30c0-8.271,6.729-15,15-15s15,6.729,15,15
	s-6.729,15-15,15S324.502,38.271,324.502,30z"/>
<path d="M102.502,150c28.948,0,52.5-23.552,52.5-52.5S131.45,45,102.502,45s-52.5,23.552-52.5,52.5S73.554,150,102.502,150z
	 M102.502,60c20.678,0,37.5,16.822,37.5,37.5s-16.822,37.5-37.5,37.5s-37.5-16.822-37.5-37.5S81.824,60,102.502,60z"/>
<path d="M147.502,185h-8.548c-3.274-11.528-13.889-20-26.452-20h-50c-12.563,0-23.178,8.472-26.452,20h-8.548
	c-15.163,0-27.5,12.337-27.5,27.5s12.337,27.5,27.5,27.5h7.5v52.5c0,14.269,5.73,27.22,15,36.692v159.903l-24.872,8.29
	c-3.93,1.31-6.053,5.558-4.743,9.487c1.048,3.143,3.974,5.13,7.114,5.13c0.786,0,1.586-0.125,2.373-0.387l30-10
	c3.063-1.021,5.128-3.887,5.128-7.115V339.924c6.824,3.251,14.452,5.076,22.5,5.076s15.676-1.825,22.5-5.076v149.171l-24.872,8.29
	c-3.93,1.31-6.053,5.558-4.743,9.487c1.048,3.143,3.974,5.13,7.114,5.13c0.786,0,1.586-0.125,2.373-0.387l30-10
	c3.063-1.021,5.128-3.887,5.128-7.115V329.192c9.27-9.472,15-22.423,15-36.692V240h7.5c15.163,0,27.5-12.337,27.5-27.5
	S162.665,185,147.502,185z M62.502,180h50c6.893,0,12.5,5.607,12.5,12.5V225h-75v-32.5C50.002,185.607,55.609,180,62.502,180z
	 M27.502,225c-6.893,0-12.5-5.607-12.5-12.5s5.607-12.5,12.5-12.5h7.5v25H27.502z M50.757,300h73.491
	c-3.484,17.096-18.635,30-36.745,30S54.241,317.096,50.757,300z M125.002,285h-75v-45h75V285z M147.502,225h-7.5v-25h7.5
	c6.893,0,12.5,5.607,12.5,12.5S154.395,225,147.502,225z"/>
<path d="M186.002,90h-10c-4.143,0-7.5,3.357-7.5,7.5s3.357,7.5,7.5,7.5h10c4.143,0,7.5-3.357,7.5-7.5S190.145,90,186.002,90z"/>
<path d="M226.002,90h-10c-4.143,0-7.5,3.357-7.5,7.5s3.357,7.5,7.5,7.5h10c4.143,0,7.5-3.357,7.5-7.5S230.145,90,226.002,90z"/>
<path d="M266.002,90h-10c-4.143,0-7.5,3.357-7.5,7.5s3.357,7.5,7.5,7.5h10c4.143,0,7.5-3.357,7.5-7.5S270.145,90,266.002,90z"/>
<g>
</g>
<g>
</g>
<g>
</g>
<g>
</g>
<g>
</g>
<g>
</g>
<g>
</g>
<g>
</g>
<g>
</g>
<g>
</g>
<g>
</g>
<g>
</g>
<g>
</g>
<g>
</g>
<g>
</g>
</svg>
