<svg id="Capa_1" enable-background="new 0 0 512.004 512.004" height="512" viewBox="0 0 512.004 512.004" width="512" xmlns="http://www.w3.org/2000/svg"><g id="XMLID_2612_"><path id="XMLID_1785_" d="m70.874 315.857c-17.468-35.14-27.249-76.959-26.617-114.15 1.836-108.054 90.228-193.424 198.283-191.679 106.268 1.715 191.885 88.395 191.885 195.072l32.896 107.106c1.963 6.391-2.816 12.858-9.501 12.858h-44.938v55.217c0 31.878-25.842 57.72-57.72 57.72h-66.054l-18.333 64h-202l16.063-66.615c9.702-40.236 4.46-82.466-13.964-119.529z" fill="#ffe6c0"/><g id="XMLID_1827_"><g id="XMLID_1829_"><ellipse id="XMLID_1844_" cx="277.069" cy="196.945" fill="#f5737f" rx="78.52" ry="40.218" transform="matrix(.5 -.866 .866 .5 -32.025 338.421)"/><ellipse id="XMLID_1843_" cx="198.549" cy="196.945" fill="#f5737f" rx="40.218" ry="78.52" transform="matrix(.866 -.5 .5 .866 -71.872 125.66)"/><ellipse id="XMLID_1840_" cx="237.813" cy="182.29" fill="#f8a2aa" rx="82.648" ry="42.332" transform="matrix(.003 -1 1 .003 54.729 419.492)"/><ellipse id="XMLID_1833_" cx="305.817" cy="225.682" fill="#f6838d" rx="78.52" ry="40.218" transform="matrix(.866 -.5 .5 .866 -71.869 183.144)"/><ellipse id="XMLID_1832_" cx="169.817" cy="225.682" fill="#f6838d" rx="40.218" ry="78.52" transform="matrix(.5 -.866 .866 .5 -110.538 259.907)"/><g id="XMLID_689_"><path id="XMLID_690_" d="m476.88 309.27-32.46-105.688c-.387-53.632-21.292-104.147-58.962-142.396-37.984-38.565-88.683-60.284-142.757-61.157-38.44-.641-76.05 9.368-108.741 28.886-4.742 2.831-6.291 8.97-3.459 13.712s8.971 6.291 13.712 3.459c29.495-17.61 63.452-26.612 98.165-26.061 100.381 1.621 182.047 84.645 182.047 185.074 0 .995.148 1.985.441 2.936l32.871 107.028h-44.855c-5.523 0-10 4.477-10 10v55.217c0 26.313-21.407 47.72-47.72 47.72h-76.375c-23.776 0-46.128-9.259-62.94-26.071-3.905-3.904-10.237-3.904-14.143 0-3.905 3.905-3.905 10.237 0 14.142 19.897 19.897 46.131 31.153 74.149 31.888l-14.692 51.287c-1.521 5.31 1.55 10.846 6.859 12.367.92.264 1.847.389 2.759.389 4.349 0 8.351-2.86 9.608-7.249l16.258-56.754h58.516c37.341 0 67.72-30.379 67.72-67.72v-45.217h34.938c6.392 0 12.237-2.948 16.036-8.089 3.8-5.139 4.902-11.592 3.025-17.703z"/><path id="XMLID_691_" d="m54.255 201.876c.587-34.547 10.642-68.02 29.076-96.799 2.979-4.65 1.624-10.835-3.026-13.814-4.65-2.978-10.835-1.624-13.814 3.026-20.437 31.904-31.583 68.989-32.232 107.247-.66 38.791 9.422 82.081 27.661 118.771 17.534 35.274 22.221 75.311 13.197 112.735l-16.063 66.615c-1.295 5.369 2.008 10.771 7.377 12.065.788.19 1.576.281 2.353.281 4.513 0 8.608-3.077 9.713-7.658l16.063-66.615c10.124-41.987 4.893-86.85-14.73-126.326-16.86-33.914-26.182-73.836-25.575-109.528z"/><path id="XMLID_692_" d="m96.135 71.774c1.964 2.063 4.597 3.101 7.235 3.101 2.478 0 4.96-.917 6.897-2.761 4-3.809 4.149-10.144.34-14.143-3.81-4-10.139-4.154-14.138-.345-4 3.809-4.154 10.139-.345 14.138z"/><path id="XMLID_695_" d="m277.535 283.426c18.522 0 36.991-4.786 53.391-14.254 29.608-17.094 49.361-47.649 52.839-81.734.438-4.288-1.921-8.373-5.853-10.138-13.706-6.152-28.389-9.254-43.053-9.357-.12-14.793-3.309-29.505-9.407-43.091-1.765-3.932-5.845-6.295-10.138-5.853-13.236 1.35-26.174 5.201-37.988 11.235-7.906-15.09-19.233-28.41-33.355-38.678-3.486-2.534-8.205-2.55-11.707-.039-14.302 10.252-25.786 23.622-33.802 38.804-11.86-6.084-24.861-9.966-38.157-11.322-4.293-.441-8.373 1.921-10.138 5.853-6.098 13.585-9.287 28.297-9.407 43.091-14.659.106-29.337 3.207-43.038 9.357-3.932 1.765-6.291 5.851-5.853 10.138 3.478 34.085 23.231 64.64 52.839 81.734 16.402 9.47 34.867 14.254 53.391 14.254 13.466 0 26.962-2.538 39.718-7.635 12.757 5.097 26.249 7.635 39.718 7.635zm85.257-90.639c-4.695 24.701-19.963 46.418-41.867 59.064-21.904 12.647-48.345 15.01-72.084 6.726 4.695-24.7 19.962-46.417 41.867-59.064 21.904-12.647 48.347-15.009 72.084-6.726zm-52.826-52.818c3.341 9.554 4.999 19.626 4.896 29.715-8.509 1.548-16.852 4.128-24.828 7.734-.414-9.802-2.122-19.423-5.011-28.639 7.8-4.166 16.234-7.157 24.943-8.81zm-71.919-27.62c20.309 17.452 32.188 43.123 32.098 70.049-.008 2.33-.114 4.669-.296 6.995-13.722 10.362-24.676 23.878-32.032 39.239-7.363-15.376-18.331-28.905-32.072-39.27-.176-2.386-.271-4.787-.263-7.18.089-26.927 12.14-52.517 32.565-69.833zm-72.395 27.62c8.75 1.661 17.222 4.675 25.053 8.873-2.914 9.191-4.648 18.794-5.096 28.58-7.984-3.61-16.335-6.192-24.853-7.741-.103-10.089 1.555-20.16 4.896-29.712zm-10.944 111.882c-21.904-12.646-37.172-34.364-41.867-59.064 23.738-8.284 50.18-5.92 72.084 6.726s37.171 34.364 41.867 59.064c-23.737 8.284-50.18 5.921-72.084-6.726z"/></g></g></g></g></svg>