<?xml version="1.0" encoding="UTF-8"?>
<svg xmlns="http://www.w3.org/2000/svg" xmlns:xlink="http://www.w3.org/1999/xlink" width="512" height="512" viewBox="0 0 60 60" version="1.1"><!-- Generator: Sketch 51.3 (57544) - http://www.bohemiancoding.com/sketch --><title>034 - Empathy</title><desc>Created with Sketch.</desc><defs/><g id="Page-1" stroke="none" stroke-width="1" fill="none" fill-rule="evenodd"><g id="034---Empathy" transform="translate(0.000000, -1.000000)"><path d="M46.26,38.71 C44.9803538,41.6319437 44.5006323,44.8415908 44.87,48.01 C45.0951005,50.0721875 45.5033794,52.1102353 46.09,54.1 C46.4066015,55.1331686 46.8045116,56.1396471 47.28,57.11 C47.8738098,58.0143772 48.4082676,58.956359 48.88,59.93 L23.78,60 L23.78,59.99 C23.7,59.69 22.19,53.81 18.85,52.3 C18.23,52.52 17.57,52.74 16.9,52.97 C14.6789002,53.7404523 12.4191713,54.3946722 10.13,54.93 C9.4993821,55.0806865 8.83512584,54.9878335 8.27,54.67 C7.62676625,54.2742562 7.14753634,53.660132 6.92,52.94 C6.65806229,52.2276891 6.56229323,51.4649569 6.64,50.71 C6.87036773,49.9391054 6.94848689,49.1307419 6.87,48.33 C6.61,47.32 5.65,47.07 4.89,46.53 C4.27,46.09 5.38,44.68 5.38,44.68 C5.38,44.68 4.2,43.81 3.78,43.44 C3.34,43.07 3.96,42.45 4.51,41.28 C4.73694079,40.7719796 4.80323378,40.2067446 4.7,39.66 C4.49,38.59 2.87,38.19 2.07,37.59 C1.69,37.31 1.08,36.89 1.01,36.38 C0.9,35.67 1.74,34.67 2.15,34.17 C3.89454657,31.9217816 5.38996718,29.4908848 6.61,26.92 C6.77010631,26.6486227 6.86589137,26.3441631 6.89,26.03 C6.87,24.6 4.8,24.01 4.61,22.62 C4.58022555,22.2120559 4.65239212,21.803112 4.82,21.43 C5.39667192,20.2042401 5.89109856,18.9414478 6.3,17.65 C6.54612792,16.4653226 6.86336869,15.2965408 7.25,14.15 C8.08859812,11.8496676 9.38083757,9.74127689 11.05,7.95 C13.5,5.36 17.12,4.08 20.54,3.4 C23.5813721,2.73504394 26.6655865,2.28393999 29.77,2.05 C29.87,2.04 29.97,2.04 30.07,2.03 C36.47,1.71 41.53,3.88 46.49,7.77 C49.1943357,9.78046229 51.1705976,12.6167315 52.12,15.85 C52.8445851,18.5214574 53.1846722,21.2825609 53.13,24.05 C53.110834,26.7831121 52.3129958,29.4541358 50.83,31.75 C49.34,34.11 47.39,36.14 46.26,38.71 Z" id="Shape" fill="#AD1457" fill-rule="nonzero"/><path d="M43.26,38.71 C41.9803538,41.6319437 41.5006323,44.8415908 41.87,48.01 C42.0951005,50.0721875 42.5033794,52.1102353 43.09,54.1 C43.4066015,55.1331686 43.8045116,56.1396471 44.28,57.11 C44.8738098,58.0143772 45.4082676,58.956359 45.88,59.93 L23.78,59.99 C23.7,59.69 22.19,53.81 18.85,52.3 C18.23,52.52 17.57,52.74 16.9,52.97 C16.5823905,52.6995596 16.2290765,52.4741116 15.85,52.3 C13.44,53.14 10.5,54.11 8.27,54.67 C7.62676625,54.2742562 7.14753634,53.660132 6.92,52.94 C6.65806229,52.2276891 6.56229323,51.4649569 6.64,50.71 C6.87036773,49.9391054 6.94848689,49.1307419 6.87,48.33 C6.61,47.32 5.65,47.07 4.89,46.53 C4.27,46.09 5.38,44.68 5.38,44.68 C5.38,44.68 4.2,43.81 3.78,43.44 C3.34,43.07 3.96,42.45 4.51,41.28 C4.73694079,40.7719796 4.80323378,40.2067446 4.7,39.66 C4.49,38.59 2.87,38.19 2.07,37.59 C1.69,37.31 1.08,36.89 1.01,36.38 C0.9,35.67 1.74,34.67 2.15,34.17 C3.89454657,31.9217816 5.38996718,29.4908848 6.61,26.92 C6.77010631,26.6486227 6.86589137,26.3441631 6.89,26.03 C6.87,24.6 4.8,24.01 4.61,22.62 C4.58022555,22.2120559 4.65239212,21.803112 4.82,21.43 C5.39667192,20.2042401 5.89109856,18.9414478 6.3,17.65 C6.54612792,16.4653226 6.86336869,15.2965408 7.25,14.15 C8.08859812,11.8496676 9.38083757,9.74127689 11.05,7.95 C13.5,5.36 17.12,4.08 20.54,3.4 C23.5813721,2.73504394 26.6655865,2.28393999 29.77,2.05 C34.93,2.37 39.25,4.44 43.49,7.77 C46.1943357,9.78046229 48.1705976,12.6167315 49.12,15.85 C49.8445851,18.5214574 50.1846722,21.2825609 50.13,24.05 C50.110834,26.7831121 49.3129958,29.4541358 47.83,31.75 C46.34,34.11 44.39,36.14 43.26,38.71 Z" id="Shape" fill="#E91E63" fill-rule="nonzero"/><path d="M21.92,25.42 L21.68,25.17" id="Shape" fill="#FDD7AD" fill-rule="nonzero"/><path d="M56.27,24.96 L56.03,25.21 L50.05,31.25 L50.03,31.25 C49.9741107,32.0529638 49.4523989,32.7484615 48.6971573,33.026822 C47.9419156,33.3051825 47.0936298,33.1146268 46.53,32.54 L46.52,32.54 C47.3302114,33.3564412 47.3302114,34.6735588 46.52,35.49 C46.1359563,35.8831419 45.6095909,36.1047879 45.06,36.1047879 C44.5104091,36.1047879 43.9840437,35.8831419 43.6,35.49 C44.4102114,36.3064412 44.4102114,37.6235588 43.6,38.44 C43.2136686,38.8288789 42.6881594,39.0475642 42.14,39.0475642 C41.5918406,39.0475642 41.0663314,38.8288789 40.68,38.44 C41.4902114,39.2564412 41.4902114,40.5735588 40.68,41.39 C40.2936686,41.7788789 39.7681594,41.9975642 39.22,41.9975642 C38.6718406,41.9975642 38.1463314,41.7788789 37.76,41.39 L37.72,41.35 L21.92,25.42 L21.93,25.41 C21.8424656,25.3342419 21.7621237,25.2505523 21.69,25.16 C18.0174663,21.1784359 18.1231536,15.0133462 21.93,11.16 C23.7897516,9.26385677 26.3340566,8.1955015 28.99,8.1955015 C31.6459434,8.1955015 34.1902484,9.26385677 36.05,11.16 L37.41,12.46 L38.94,13.94 L42.15,10.71 C46.0713268,7.0001723 52.2392727,7.10682266 56.03,10.95 C59.8371089,14.8071574 59.9427629,20.9747078 56.27,24.96 Z" id="Shape" fill="#DFC49C"/><path d="M53.27,24.96 L53.03,25.21 L47.05,31.25 L47.03,31.25 C46.9983859,31.7210862 46.8039501,32.1665208 46.48,32.51 L46.45,32.54 C46.0659563,32.9331419 45.5395909,33.1547879 44.99,33.1547879 C44.4404091,33.1547879 43.9140437,32.9331419 43.53,32.54 L43.52,32.54 C44.3182782,33.3410318 44.3315942,34.6326809 43.55,35.45 C43.542519,35.4650488 43.5323522,35.4786046 43.52,35.49 C43.1359563,35.8831419 42.6095909,36.1047879 42.06,36.1047879 C41.5104091,36.1047879 40.9840437,35.8831419 40.6,35.49 C41.3982782,36.2910318 41.4115942,37.5826809 40.63,38.4 C40.622519,38.4150488 40.6123522,38.4286046 40.6,38.44 C40.2136686,38.8288789 39.6881594,39.0475642 39.14,39.0475642 C38.5918406,39.0475642 38.0663314,38.8288789 37.68,38.44 C38.4763947,39.2402859 38.494097,40.5281266 37.72,41.35 L21.92,25.42 L21.93,25.41 C21.8424656,25.3342419 21.7621237,25.2505523 21.69,25.16 C18.0174663,21.1784359 18.1231536,15.0133462 21.93,11.16 C23.432255,9.64175425 25.3803044,8.64320371 27.49,8.31 C29.5996956,8.64320371 31.547745,9.64175425 33.05,11.16 L35.94,13.94 L37.41,12.46 L38.94,13.94 L42.15,10.71 C43.6188565,9.32420703 45.4741506,8.41748437 47.47,8.11 C49.5802062,8.43508727 51.5296996,9.4308717 53.03,10.95 C56.8371089,14.8071574 56.9427629,20.9747078 53.27,24.96 Z" id="Shape" fill="#FFE0B2"/><path d="M42.15,10.71 C42.07,10.79 41.98,10.87 41.9,10.95" id="Shape" fill="#FDD7AD"/><path d="M9.5,55.994 C7.84824492,55.9668445 6.4111093,54.8564416 5.968,53.265 C5.6481133,52.4081144 5.53371505,51.4881333 5.634,50.579 C5.669,50.317 5.726,50.055 5.783,49.792 C5.90755683,49.400487 5.94442881,48.9863601 5.891,48.579 C5.812,48.267 5.583,48.111 4.997,47.779 C4.76,47.644 4.523,47.506 4.297,47.347 C3.97607085,47.1178824 3.76373629,46.7666441 3.71,46.376 C3.66954784,45.8716347 3.78174157,45.3667629 4.032,44.927 C3.694,44.669 3.325,44.379 3.11,44.188 C2.187,43.409 2.775,42.365 3.165,41.674 C3.297,41.44 3.451,41.169 3.599,40.857 C3.73569801,40.5406316 3.77402659,40.1904477 3.709,39.852 C3.659,39.588 2.939,39.22 2.509,39.001 C2.14626054,38.8296426 1.79810572,38.628977 1.468,38.401 C0.755682639,37.9933414 0.234734204,37.3191305 0.02,36.527 C-0.132,35.489 0.62,34.468 1.33,33.593 C3.03979654,31.3828513 4.50501871,28.9939021 5.7,26.468 C5.77797141,26.3338201 5.83687078,26.1894325 5.875,26.039 C5.875,25.753 5.551,25.439 5.062,24.988 C4.32516002,24.4442453 3.80811047,23.6539437 3.605,22.761 C3.5496867,22.1867947 3.64265169,21.6080015 3.875,21.08 C4.052,20.607 4.258,20.144 4.465,19.68 C4.81819827,18.9551602 5.10180329,18.1984337 5.312,17.42 L5.393,17.07 C5.62574269,15.9618834 5.9286868,14.8696813 6.3,13.8 C7.17523479,11.3712147 8.53626217,9.14627523 10.3,7.261 C12.525,4.906 15.794,3.32 20.3,2.412 C23.4764851,1.71844014 26.6993971,1.2578809 29.943,1.034 C34.3165665,0.783580469 38.6698919,1.79615125 42.484,3.951 C42.9479969,4.22725988 43.1088492,4.8220005 42.8473536,5.29447556 C42.5858579,5.76695063 41.9964836,5.94647146 41.516,5.7 C38.0341296,3.71334923 34.0482586,2.78578016 30.047,3.031 C26.8991318,3.25137881 23.7715127,3.70090303 20.689,4.376 C16.608,5.2 13.689,6.594 11.752,8.639 C10.172979,10.3290562 8.95517039,12.3233497 8.173,14.5 C7.83191887,15.4897068 7.55402643,16.5000729 7.341,17.525 L7.26,17.877 C7.02300994,18.7806091 6.69882151,19.659066 6.292,20.5 C6.101,20.926 5.91,21.353 5.747,21.788 C5.64538165,22.0076042 5.59087855,22.2460553 5.587,22.488 C5.629,22.796 6.01,23.146 6.414,23.516 C7.24043478,24.0980913 7.77350318,25.0102549 7.875,26.016 C7.8583128,26.4933006 7.72400273,26.959092 7.484,27.372 C6.23749544,30.0054043 4.70923772,32.4959481 2.926,34.8 C2.158,35.742 2,36.106 2,36.256 C2.18440555,36.4309118 2.38198797,36.5913849 2.591,36.736 C2.85265065,36.918465 3.12892285,37.0790106 3.417,37.216 C4.27,37.652 5.439,38.25 5.671,39.476 C5.81576127,40.2310381 5.72101427,41.0124385 5.4,41.711 C5.23,42.069 5.055,42.382 4.9,42.653 C4.848,42.746 4.789,42.853 4.739,42.943 C5.149,43.271 5.719,43.699 5.958,43.877 C6.17661914,44.0367695 6.32110173,44.2783657 6.35841896,44.5465598 C6.39573619,44.8147538 6.32269765,45.0866165 6.156,45.3 C6.00833565,45.4939792 5.88005479,45.701975 5.773,45.921 L5.986,46.044 C6.86758159,46.4261137 7.53923265,47.1729605 7.826,48.09 C7.96941203,48.7993398 7.93714094,49.532992 7.732,50.227 C7.687,50.434 7.64,50.641 7.612,50.848 C7.5548263,51.4471368 7.63767206,52.0513631 7.854,52.613 C8.06722171,53.5388563 8.97507745,54.1298023 9.908,53.95 C12.8090072,53.2404403 15.6695177,52.3745091 18.477,51.356 C18.998119,51.1763515 19.5663419,51.4522734 19.7474169,51.9728984 C19.9284919,52.4935235 19.6541272,53.0624999 19.134,53.245 C16.2445927,54.2926113 13.3002242,55.1819308 10.314,55.909 C10.0462066,55.964578 9.77349827,55.9930549 9.5,55.994 Z M4.416,42.671 L4.432,42.685 L4.416,42.671 Z" id="Shape" fill="#000000" fill-rule="nonzero"/><path d="M23.726,61 C23.2648226,61.0002261 22.863299,60.6850384 22.754,60.237 C22.367,58.658 20.828,54.316 18.393,53.211 C18.0195122,53.0419745 17.7870187,52.6621132 17.806424,52.2526181 C17.8258292,51.843123 18.0932021,51.4869495 18.481,51.354 C19.444,51.025 20.323,50.716 21.037,50.466 C21.813,50.193 22.399,49.987 22.694,49.894 C26.838,48.594 27.679,47.088 27.655,46.058 C27.642146,45.5060397 28.0790455,45.048101 28.631,45.035 C28.8975093,45.023577 29.1571786,45.1211773 29.3501837,45.3053151 C29.5431888,45.4894529 29.6528851,45.7442483 29.654,46.011 C29.713,48.511 27.574,50.456 23.296,51.802 C23.013,51.891 22.448,52.09 21.696,52.353 C21.467,52.433 21.221,52.52 20.96,52.61 C22.6118702,54.4393217 23.8173976,56.6265223 24.482,59 L47.1,58.935 L47.026,58.824 C46.7415185,58.4121467 46.4852651,57.9814941 46.259,57.535 C45.7651352,56.5216268 45.351533,55.4710704 45.022,54.393 C44.415674,52.3477585 43.9976008,50.2513671 43.773,48.13 C43.5606013,46.3689297 43.6013478,44.5865246 43.894,42.837 C43.9472292,42.4799207 44.1887952,42.179256 44.5260236,42.050353 C44.863252,41.9214499 45.2437782,41.9843245 45.5216171,42.2148555 C45.7994559,42.4453864 45.9314649,42.8077772 45.867,43.163 C45.6053009,44.7253939 45.5685954,46.3172041 45.758,47.89 C45.9692093,49.8916205 46.3625044,51.8698112 46.933,53.8 C47.2329985,54.7816241 47.609485,55.7382209 48.059,56.661 C48.2475668,57.0277618 48.4603719,57.3815461 48.696,57.72 C49.1243005,58.3069086 49.4670577,58.9516827 49.714,59.635 C49.8064296,59.9377411 49.7500679,60.2663675 49.5620433,60.5210088 C49.3740188,60.77565 49.0765356,60.9262348 48.76,60.927 L23.729,61 L23.726,61 Z" id="Shape" fill="#000000" fill-rule="nonzero"/><path d="M10.194,19.567 C9.88885078,19.5670321 9.60038624,19.4277344 9.41066506,19.1887325 C9.22094389,18.9497305 9.15073112,18.6371832 9.22,18.34 L9.32,17.907 C9.51314883,16.9905545 9.76024556,16.086314 10.06,15.199 C10.7556722,13.274706 11.8328806,11.5107644 13.227,10.013 C14.7595511,8.5356103 16.6468677,7.47795529 18.707,6.942 C19.2352604,6.78073285 19.7942329,7.07823964 19.9555,7.6065 C20.1167671,8.13476036 19.8192604,8.69373285 19.291,8.855 C17.56399,9.29262258 15.9772482,10.1637817 14.681,11.386 C13.4731212,12.6862822 12.5398535,14.2167868 11.937,15.886 C11.6666327,16.6961058 11.4432611,17.5211451 11.268,18.357 L11.168,18.79 C11.064068,19.2443274 10.6600634,19.5666185 10.194,19.567 Z" id="Shape" fill="#000000" fill-rule="nonzero"/><circle id="Oval" fill="#000000" fill-rule="nonzero" cx="9" cy="22" r="1"/><path d="M21.925,26.412 C21.6574069,26.4111577 21.4013148,26.3031019 21.214,26.112 C21.125,26.022 21.038,25.931 20.952,25.839 C16.8916522,21.4714965 17.0077845,14.6762098 21.215,10.45 C23.2676382,8.37141894 26.0672293,7.20147854 28.9885,7.20147854 C31.9097707,7.20147854 34.7093618,8.37141894 36.762,10.45 C37.0204059,10.7024245 37.122587,11.0745905 37.0293024,11.4235743 C36.9360178,11.7725582 36.6617704,12.0441036 36.3118801,12.1339284 C35.9619898,12.2237532 35.5908537,12.1178924 35.341,11.857 C33.6639741,10.1576588 31.3760042,9.20108038 28.9885,9.20108038 C26.6009958,9.20108038 24.3130259,10.1576588 22.636,11.857 C19.1830294,15.3223352 19.0876209,20.8975472 22.42,24.479 C22.491,24.556 22.563,24.632 22.637,24.706 C22.9185788,24.993266 23.0006232,25.4212854 22.8452285,25.7923122 C22.6898337,26.1633389 22.3272532,26.4051389 21.925,26.406 L21.925,26.412 Z" id="Shape" fill="#000000" fill-rule="nonzero"/><path d="M37.756,42.388 C37.4884069,42.3871577 37.2323148,42.2791019 37.045,42.088 L20.972,25.87 C20.5831915,25.4776017 20.5861017,24.8443085 20.9785,24.4555 C21.3708983,24.0666915 22.0041915,24.0696017 22.393,24.462 L38.466,40.685 C38.7473286,40.9720058 38.829505,41.3995455 38.674621,41.7703946 C38.5197369,42.1412437 38.1578897,42.3833384 37.756,42.385 L37.756,42.388 Z" id="Shape" fill="#000000" fill-rule="nonzero"/><path d="M56.028,26.208 C55.6262919,26.2059392 55.2648106,25.9636976 55.1101816,25.5929369 C54.9555526,25.2221762 55.0377954,24.7948755 55.319,24.508 C55.392,24.435 55.463,24.359 55.533,24.284 C58.8653791,20.7025472 58.7699706,15.1273352 55.317,11.662 C51.9172715,8.18656529 46.3555628,8.08897582 42.836,11.443 C42.761,11.514 42.687,11.587 42.614,11.661 C42.2243631,12.0539506 41.5899506,12.0566369 41.197,11.667 C40.8040494,11.2773631 40.8013631,10.6429506 41.191,10.25 C41.281,10.1593333 41.372,10.0703333 41.464,9.983 C45.7714144,5.87988721 52.5760675,5.99839171 56.738,10.249 C60.9442913,14.4753584 61.0599768,21.2698981 57,25.637 C56.914,25.7296667 56.826,25.8216667 56.736,25.913 C56.5485906,26.1015282 56.293829,26.2076789 56.028,26.208 Z" id="Shape" fill="#000000" fill-rule="nonzero"/><path d="M50.046,32.246 C49.6441103,32.2443384 49.2822631,32.0022437 49.127379,31.6313946 C48.972495,31.2605455 49.0546714,30.8330058 49.336,30.546 L55.545,24.272 C55.803303,24.0247722 56.1738793,23.9341273 56.5171364,24.0342104 C56.8603935,24.1342935 57.1241824,24.4098995 57.2091364,24.7572104 C57.2940904,25.1045213 57.187303,25.4707722 56.929,25.718 L56.747,25.908 L50.757,31.954 C50.568364,32.1421658 50.3124363,32.2472725 50.046,32.246 Z" id="Shape" fill="#000000" fill-rule="nonzero"/><path d="M40.679,39.438 C40.4114069,39.4371577 40.1553148,39.3291019 39.968,39.138 L27.791,26.853 C27.4021915,26.4606017 27.4051017,25.8273085 27.7975,25.4385 C28.1898983,25.0496915 28.8231915,25.0526017 29.212,25.445 L41.389,37.735 C41.6703286,38.0220058 41.752505,38.4495455 41.597621,38.8203946 C41.4427369,39.1912437 41.0808897,39.4333384 40.679,39.435 L40.679,39.438 Z" id="Shape" fill="#000000" fill-rule="nonzero"/><path d="M43.6,36.486 C43.3324069,36.4851577 43.0763148,36.3771019 42.889,36.186 L32.549,25.755 C32.2905941,25.5025755 32.188413,25.1304095 32.2816976,24.7814257 C32.3749822,24.4324418 32.6492296,24.1608964 32.9991199,24.0710716 C33.3490102,23.9812468 33.7201463,24.0871076 33.97,24.348 L44.309,34.783 C44.5903286,35.0700058 44.672505,35.4975455 44.517621,35.8683946 C44.3627369,36.2392437 44.0008897,36.4813384 43.599,36.483 L43.6,36.486 Z" id="Shape" fill="#000000" fill-rule="nonzero"/><path d="M46.526,33.539 C46.2587541,33.5378906 46.0030714,33.4298556 45.816,33.239 L35.731,23.064 C35.3534974,22.669819 35.3617854,22.0457554 35.7496231,21.6617388 C36.1374608,21.2777221 36.7615759,21.2756132 37.152,21.657 L47.237,31.835 C47.5184534,32.1221359 47.6005636,32.5499153 47.4454243,32.920853 C47.290285,33.2917908 46.9280714,33.5337383 46.526,33.535 L46.526,33.539 Z" id="Shape" fill="#000000" fill-rule="nonzero"/><path d="M49.447,30.591 C49.1797541,30.5898906 48.9240714,30.4818556 48.737,30.291 L38.652,20.118 C38.2629154,19.7256017 38.2656017,19.0920846 38.658,18.703 C39.0503983,18.3139154 39.6839154,18.3166017 40.073,18.709 L50.158,28.887 C50.4394534,29.1741359 50.5215636,29.6019153 50.3664243,29.972853 C50.211285,30.3437908 49.8490714,30.5857383 49.447,30.587 L49.447,30.591 Z" id="Shape" fill="#000000" fill-rule="nonzero"/><path d="M39.217,43 C38.4003903,43.00155 37.6175403,42.6742813 37.045,42.092 C36.6561915,41.6996017 36.6591017,41.0663085 37.0515,40.6775 C37.4438983,40.2886915 38.0771915,40.2916017 38.466,40.684 C38.8833903,41.0904719 39.5486097,41.0904719 39.966,40.684 C40.3865658,40.256029 40.3865658,39.569971 39.966,39.142 C39.5884974,38.747819 39.5967854,38.1237554 39.9846231,37.7397388 C40.3724608,37.3557221 40.9965759,37.3536132 41.387,37.735 C42.5764605,38.9437914 42.5764605,40.8832086 41.387,42.092 C40.8149456,42.6737855 40.0329164,43.0010124 39.217,43 Z" id="Shape" fill="#000000" fill-rule="nonzero"/><path d="M42.14,40.05 C41.3236466,40.0517335 40.5410388,39.7244153 39.969,39.142 C39.5914974,38.747819 39.5997854,38.1237554 39.9876231,37.7397388 C40.3754608,37.3557221 40.9995759,37.3536132 41.39,37.735 C41.5879555,37.9364718 41.8585513,38.0499707 42.141,38.05 C42.4236398,38.0499329 42.6943404,37.9360296 42.892,37.734 C43.311911,37.3061503 43.311911,36.6208497 42.892,36.193 C42.5031915,35.8006017 42.5061017,35.1673085 42.8985,34.7785 C43.2908983,34.3896915 43.9241915,34.3926017 44.313,34.785 C45.5031166,35.9939119 45.5031166,37.9340881 44.313,39.143 C43.7398568,39.7248758 42.9567433,40.0517438 42.14,40.05 Z" id="Shape" fill="#000000" fill-rule="nonzero"/><path d="M45.062,37.1 C44.2456466,37.1017335 43.4630388,36.7744153 42.891,36.192 C42.5021916,35.7996017 42.5051018,35.1663085 42.8975,34.7775 C43.2898983,34.3886916 43.9231915,34.3916017 44.312,34.784 C44.7285246,35.1925963 45.3954754,35.1925963 45.812,34.784 C46.231911,34.3561503 46.231911,33.6708497 45.812,33.243 C45.5603064,32.9891628 45.4631524,32.6203306 45.5571351,32.2754389 C45.6511177,31.9305473 45.9219588,31.6619934 46.2676351,31.5709389 C46.6133114,31.4798845 46.9813064,31.5801628 47.233,31.834 C48.4231166,33.0429119 48.4231166,34.9830881 47.233,36.192 C46.6607026,36.7740333 45.8782631,37.1012812 45.062,37.1 Z" id="Shape" fill="#000000" fill-rule="nonzero"/><path d="M47.985,34.151 C47.1686034,34.1524751 46.3859001,33.825628 45.813,33.244 C45.5613064,32.9901628 45.4641524,32.6213306 45.5581351,32.2764389 C45.6521177,31.9315473 45.9229588,31.6629934 46.2686351,31.5719389 C46.6143114,31.4808845 46.9823064,31.5811628 47.234,31.835 C47.6509593,32.2425307 48.3170407,32.2425307 48.734,31.835 C49.153911,31.4071503 49.153911,30.7218497 48.734,30.294 C48.3451916,29.9016017 48.3481017,29.2683085 48.7405,28.8795 C49.1328983,28.4906916 49.7661915,28.4936017 50.155,28.886 C51.3451166,30.0949119 51.3451166,32.0350881 50.155,33.244 C49.5825862,33.8251327 48.8007033,34.1519381 47.985,34.151 Z" id="Shape" fill="#000000" fill-rule="nonzero"/><path d="M32.891,26.082 C32.0747923,26.0839969 31.2922055,25.7570479 30.72,25.175 C29.5266467,23.9674157 29.5266467,22.0245843 30.72,20.817 L41.44,10.007 C41.8307136,9.6260179 42.4547219,9.62862832 42.8422343,10.012866 C43.2297467,10.3971037 43.2376526,11.0210673 42.86,11.415 L32.141,22.226 C31.721089,22.6538497 31.721089,23.3391503 32.141,23.767 C32.3383241,23.9687964 32.6087618,24.0823802 32.891,24.082 C33.173494,24.0821962 33.4441736,23.9686621 33.642,23.767 L40.948,16.394 C41.1478439,16.19176 41.4243283,16.0841499 41.7083082,16.0980817 C41.992288,16.1120135 42.2569115,16.2461699 42.436,16.467 C43.451808,17.6615179 44.8731426,18.4386045 46.427,18.649 C47.8797825,18.6307728 49.2544231,17.9880837 50.2,16.885 C50.5904241,16.5036132 51.2145392,16.5057221 51.6023769,16.8897388 C51.9902146,17.2737554 51.9985026,17.897819 51.621,18.292 C50.2849552,19.8210335 48.3421798,20.6824562 46.312,20.646 C44.562882,20.4864288 42.9198182,19.7375303 41.652,18.522 L35.059,25.175 C34.4873297,25.756018 33.7061,26.0828516 32.891,26.082 Z" id="Shape" fill="#000000" fill-rule="nonzero"/></g></g></svg>
