<svg id="praying" enable-background="new 0 0 300 300" height="512" viewBox="0 0 300 300" width="512" xmlns="http://www.w3.org/2000/svg"><circle cx="133.999" cy="141.222" fill="#efefd2" r="86"/><path d="m193.37 227.824-13.79-12.602h-3.431c-13.337 0-24.149-10.812-24.149-24.149v-128.838c0-6.082 4.931-11.013 11.013-11.013 5.533 0 10.207 4.105 10.921 9.592l9.277 71.284c2.119 16.283 9.465 31.438 20.935 43.188l23.701 24.282z" fill="#ffe8dc"/><path d="m193.371 231.824c-.969 0-1.937-.351-2.698-1.047l-12.646-11.555h-1.878c-15.521 0-28.149-12.628-28.149-28.149v-128.838c0-8.278 6.734-15.013 15.013-15.013 7.518 0 13.918 5.622 14.888 13.076l9.277 71.284c1.994 15.324 9.037 29.853 19.83 40.91l23.701 24.282c.783.802 1.193 1.896 1.132 3.016-.062 1.12-.592 2.161-1.459 2.872l-34.476 28.256c-.738.605-1.638.906-2.535.906zm-30.359-176.602c-3.867 0-7.013 3.146-7.013 7.013v128.837c0 11.11 9.039 20.149 20.149 20.149h3.431c.999 0 1.961.374 2.698 1.047l11.235 10.266 28.423-23.296-20.653-21.16c-11.995-12.289-19.822-28.435-22.039-45.466l-9.277-71.284c-.453-3.48-3.442-6.106-6.954-6.106z" fill="#4c241d"/><path d="m199.91 174.935h34.92v90.793h-34.92z" fill="#ffce56" transform="matrix(.707 .707 -.707 .707 219.464 -89.17)"/><path d="m197.616 268.778c-1.023 0-2.047-.391-2.828-1.171l-24.692-24.692c-1.562-1.562-1.562-4.095 0-5.657l64.2-64.201c1.561-1.562 4.094-1.562 5.656 0l24.693 24.693c.75.75 1.172 1.768 1.172 2.829s-.422 2.078-1.172 2.829l-64.201 64.2c-.78.78-1.805 1.17-2.828 1.17zm-19.035-28.692 19.035 19.036 58.544-58.543-19.036-19.036z" fill="#4c241d"/><path d="m217.28 182.13h14.57v90.793h-14.57z" fill="#fc8c29" transform="matrix(.707 .707 -.707 .707 226.659 -92.15)"/><path d="m197.616 268.778c-1.023 0-2.047-.391-2.828-1.171l-10.303-10.303c-1.562-1.562-1.562-4.095 0-5.657l64.2-64.201c1.561-1.562 4.094-1.562 5.656 0l10.304 10.303c.75.75 1.172 1.768 1.172 2.829s-.422 2.078-1.172 2.829l-64.201 64.2c-.78.781-1.805 1.171-2.828 1.171zm-4.646-14.302 4.646 4.646 58.544-58.543-4.646-4.646z" fill="#4c241d"/><path d="m171.968 155c-1.973 0-3.689-1.459-3.96-3.468l-5.358-39.917c-.661-4.925-4.907-8.64-9.877-8.64h-2.063c-2.209 0-4-1.791-4-4s1.791-4 4-4h2.063c8.959 0 16.614 6.696 17.807 15.575l5.358 39.917c.294 2.189-1.243 4.203-3.433 4.497-.18.024-.36.036-.537.036z" fill="#4c241d"/><path d="m109.438 227.824 14.187-12.602h7.638c11.452 0 20.736-9.284 20.736-20.736v-131.915c0-6.268-5.081-11.35-11.35-11.35-5.686 0-10.495 4.208-11.249 9.843l-9.453 70.605c-2.215 16.545-9.827 31.897-21.655 43.676l-24.322 24.223z" fill="#ffe8dc"/><path d="m109.438 231.824c-.88 0-1.762-.289-2.492-.872l-35.469-28.256c-.893-.71-1.438-1.769-1.502-2.907-.062-1.139.363-2.25 1.172-3.056l24.323-24.221c11.141-11.095 18.426-25.788 20.512-41.372l9.454-70.605c1.016-7.589 7.556-13.312 15.214-13.312 8.464 0 15.35 6.886 15.35 15.35v131.914c0 13.64-11.097 24.736-24.736 24.736h-6.118l-13.051 11.593c-.757.669-1.706 1.008-2.657 1.008zm-29.466-32.589 29.326 23.363 11.67-10.367c.731-.65 1.677-1.009 2.656-1.009h7.639c9.229 0 16.736-7.508 16.736-16.736v-131.915c0-4.053-3.297-7.35-7.35-7.35-3.667 0-6.798 2.74-7.284 6.374l-9.454 70.606c-2.318 17.32-10.415 33.649-22.797 45.979z" fill="#4c241d"/><path d="m129.847 155c-.178 0-.356-.012-.537-.036-2.189-.294-3.727-2.307-3.433-4.497l5.084-37.872c1.349-10.045 10.009-17.621 20.145-17.621 2.209 0 4 1.791 4 4s-1.791 4-4 4c-6.146 0-11.397 4.594-12.215 10.685l-5.084 37.872c-.27 2.009-1.987 3.469-3.96 3.469z" fill="#4c241d"/><path d="m69.168 174.935h34.92v90.793h-34.92z" fill="#ffce56" transform="matrix(-.707 .707 -.707 -.707 303.682 314.874)"/><path d="m106.382 268.778c-1.023 0-2.048-.391-2.828-1.171l-64.2-64.2c-1.562-1.562-1.562-4.095 0-5.657l24.692-24.693c.75-.75 1.768-1.171 2.828-1.171s2.078.421 2.828 1.171l64.2 64.201c1.562 1.562 1.562 4.095 0 5.657l-24.692 24.692c-.78.781-1.804 1.171-2.828 1.171zm-58.543-68.2 58.543 58.543 19.035-19.036-58.543-58.544z" fill="#4c241d"/><path d="m72.148 182.13h14.57v90.793h-14.57z" fill="#fc8c29" transform="matrix(-.707 .707 -.707 -.707 296.488 332.244)"/><g fill="#4c241d"><path d="m106.382 268.778c-1.023 0-2.048-.391-2.828-1.171l-64.2-64.2c-1.562-1.562-1.562-4.095 0-5.657l10.303-10.303c.75-.75 1.768-1.172 2.828-1.172s2.078.421 2.828 1.171l64.2 64.201c1.562 1.562 1.562 4.095 0 5.657l-10.303 10.303c-.78.781-1.804 1.171-2.828 1.171zm-58.543-68.2 58.543 58.543 4.646-4.646-58.543-58.544z"/><path d="m56 51.222c-2.209 0-4-1.791-4-4v-12c0-2.209 1.791-4 4-4s4 1.791 4 4v12c0 2.209-1.791 4-4 4z"/><path d="m56 79.222c-2.209 0-4-1.791-4-4v-12c0-2.209 1.791-4 4-4s4 1.791 4 4v12c0 2.209-1.791 4-4 4z"/><path d="m48 59.222h-12c-2.209 0-4-1.791-4-4s1.791-4 4-4h12c2.209 0 4 1.791 4 4s-1.791 4-4 4z"/><path d="m76 59.222h-12c-2.209 0-4-1.791-4-4s1.791-4 4-4h12c2.209 0 4 1.791 4 4s-1.791 4-4 4z"/><circle cx="96" cy="87.222" r="4"/><circle cx="220" cy="119.222" r="4"/><circle cx="264" cy="51.222" r="4"/><path d="m58.024 151.219c-4.694 0-9.285-2.356-11.932-6.633-1.967-3.181-2.576-6.937-1.718-10.577.858-3.639 3.083-6.727 6.264-8.693 3.182-1.967 6.941-2.577 10.576-1.718 3.641.858 6.728 3.083 8.694 6.264s2.576 6.937 1.718 10.577c-.858 3.639-3.083 6.727-6.264 8.693-2.286 1.413-4.827 2.087-7.338 2.087zm-5.127-10.841c1.74 2.813 5.445 3.688 8.259 1.948 1.363-.843 2.316-2.166 2.685-3.726.368-1.56.106-3.169-.736-4.532-.843-1.363-2.166-2.317-3.726-2.685-1.561-.37-3.169-.107-4.533.736-1.363.843-2.316 2.167-2.685 3.727-.368 1.56-.107 3.17.736 4.532z"/><path d="m218.024 79.219c-4.694 0-9.285-2.356-11.932-6.633-1.967-3.181-2.576-6.937-1.718-10.577.858-3.639 3.083-6.727 6.264-8.693 3.182-1.967 6.941-2.577 10.576-1.718 3.641.858 6.728 3.083 8.694 6.264s2.576 6.937 1.718 10.577c-.858 3.639-3.083 6.727-6.264 8.693-2.286 1.413-4.827 2.087-7.338 2.087zm-5.127-10.841c1.74 2.813 5.445 3.688 8.259 1.948 1.363-.843 2.316-2.166 2.685-3.726.368-1.56.106-3.169-.736-4.532-.843-1.363-2.166-2.317-3.726-2.685-1.561-.369-3.169-.107-4.533.736-1.363.843-2.316 2.167-2.685 3.727-.368 1.56-.107 3.17.736 4.532z"/></g></svg>