<svg id="icon" height="512" viewBox="0 0 340 340" width="512" xmlns="http://www.w3.org/2000/svg"><path d="m203.177 246.219s-7.788 25.118-24.779 41.912c0 0 10.8.6 24.165 7.919a18.668 18.668 0 0 0 8.19 2.324c.7.029 1.446.042 2.229.027a17.511 17.511 0 0 0 8.343-2.294 28.007 28.007 0 0 1 3.041-1.5 9.444 9.444 0 0 1 10.391 2.13 38.47 38.47 0 0 0 9.85 7.484 5.049 5.049 0 0 1 2.842 4.516 5.017 5.017 0 0 1 -5.162 5.016l-26.816-.771-65.665 11.043-12.325-47.625z" fill="#f7aaa1"/><path d="m137.073 30.521s-21.686 21.285-37.613 43.961a10.731 10.731 0 0 0 1.327 13.918l53.546 49.141 21.37-25.063-14.242-6.707a125.461 125.461 0 0 1 -24.014-14.814l-15.655-12.292 23.808-37.551z" fill="#f7aaa1"/><path d="m148.425 296.209c22.613 1.817 43.921 12.928 51.284 17.137a7.24 7.24 0 0 0 5.849.589l10.619-3.475.231-.036a13.231 13.231 0 0 1 12.245 4.851 27.006 27.006 0 0 0 7.158 6.165 13.5 13.5 0 0 0 6.9 1.867q.69 0 1.307.049a4.91 4.91 0 0 1 4.406 6.188 4.9 4.9 0 0 1 -4.8 3.614l-135.347-1.858a17.069 17.069 0 0 1 -15.35-24.083c17.882-39.28 46.248-82.508 46.248-82.508l5.25-37.5c-8.263 1.078-14.267-.942-18.569-3.972-12.969-9.136-10.133-29.307 4.883-34.422.741-.252 1.186-.357 1.186-.357 15.5-4.25 30.5-22.5 30.5-22.5v-5.792a10.575 10.575 0 0 0 0-4.94v-19.526l25-10.5-.75 26a38.471 38.471 0 0 1 3.787 3 23.6 23.6 0 0 1 7.5 21.907c-1.808 9.785-5.778 27.2-12.792 39.345l-3.383 6.041a13 13 0 0 0 -1.656 6.35v7.218a13.078 13.078 0 0 0 5.273 10.453c4.077 3.059 12.563 9.386 16.291 17.405 6.473 13.919 2.909 25.092-5.714 34.082-10.153 10.599-47.556 39.208-47.556 39.208z" fill="#ffddcf"/><path d="m143.589 195.793c.337-.225 15.657-27.4 15.657-27.4l-8.308-23.689s-7.732 30.296-32.794 27.196a19.143 19.143 0 0 0 7.712 11.336c4.3 3.03 10.306 5.05 18.569 3.972l-1.191 8.508a1.445 1.445 0 0 0 .355.077z" fill="#ffa59e"/><path d="m136.362 36.836s-7.7 38.147 10.605 63.806a2.1 2.1 0 0 0 2.03.847 103.335 103.335 0 0 0 25.333-7.346s6.33-3.78 9.21-5.867c0 0 2.853-42.889-47.178-51.44z" fill="#ffddcf"/><path d="m125.856 183.234c4.3 3.03 10.306 5.05 18.569 3.972l10.639-23.943c-23.182 4.095-29.263-4.058-30.485-11.026a19.623 19.623 0 0 0 1.277 30.997z" fill="#ff6e6e"/><path d="m155.064 163.263a56.282 56.282 0 0 1 -15.045.919 25.214 25.214 0 0 1 -21.879 7.718 19.148 19.148 0 0 0 7.716 11.336c4.3 3.03 10.306 5.05 18.569 3.972z" fill="#ef4e4e"/><path d="m148.425 296.209s2.323-1.777 5.965-4.607a47.058 47.058 0 0 0 -20.452 2.467 1.061 1.061 0 0 0 .449 2.054 125.366 125.366 0 0 1 14.038.086z" fill="#ffa59e"/><path d="m162.425 121.548c2.562-1.98 5.14-3.373 7.754-3.438a.817.817 0 0 0 .394-1.513 13.666 13.666 0 0 0 -8.148-1.374z" fill="#ffa59e"/><path d="m139.933 228.835q1.434-1.9 2.908-3.873a20.51 20.51 0 0 1 -3.351-2.5l-.315 2.249s-.607.926-1.694 2.619q1.142.745 2.452 1.505z" fill="#ef4e4e"/><path d="m201.434 222.358h-.02c-4.09 5.217-12.275 11.24-31.237 10.283-.282-.015-.563-.045-.846-.064l5.2 8.505a14.7 14.7 0 0 1 2.2 2.284c4.911 6.39 8.938 15.144 6.344 25.238 5.438-4.566 10.17-8.74 12.911-11.6 8.74-9.11 12.283-20.464 5.448-34.646z" fill="#ff6e6e"/><path d="m204.935 234.574c-2.063 7.453-7.739 16.9-23.166 17.393a25.957 25.957 0 0 1 1.307 16.635c5.438-4.566 10.17-8.74 12.911-11.6 6.07-6.326 9.629-13.738 8.948-22.428z" fill="#ef4e4e"/><path d="m135.483 256.676.076.052a3.6 3.6 0 0 1 .9 5.07c-2.53 3.515-6.867 9.644-10.725 15.593a2.793 2.793 0 0 1 -3.235 1.122l-.067-.022a2.907 2.907 0 0 1 -1.681-4.067 157.041 157.041 0 0 1 9.712-16.784 3.6 3.6 0 0 1 5.02-.964z" fill="#fff"/><circle cx="117.442" cy="286.36" fill="#fff" r="2.672"/><path d="m136.362 36.836a100.2 100.2 0 0 0 -1.488 13.835c7.2 2.923 35.712 16.338 35.232 45.24 1.409-.543 2.823-1.129 4.225-1.768 0 0 6.329-3.78 9.209-5.867 0 0 2.853-42.889-47.178-51.44z" fill="#f7aaa1"/><path d="m112.4 269.2c12.135-10.006 30.66-27.237 43.526-48.235 18.05-29.457 24.547-74.759 24.547-74.759l-40.082 41.285a33.807 33.807 0 0 0 4.036-.286l-5.25 37.5s-12.897 19.654-26.777 44.495z" fill="#f7aaa1"/><path d="m174.642 119.768a9.921 9.921 0 0 0 -11.386-1.169c-5.423 2.989-13.39 10.389-14.767 28.287l-1.807 18.232a49.865 49.865 0 0 1 -2.644 11.8c-2.8 7.866-7.78 22.07-13.424 32.26-11.029 19.911-9.3 44.5-9.3 44.5l17.864-28.97s23.1-35.127 29.2-51.038c0 0 12.924-26.594 9.417-48.02a9.9 9.9 0 0 0 -2.637-5.389c-.158-.161-.333-.329-.516-.493z" fill="#ffddcf"/><circle cx="164.223" cy="133.479" fill="#fff" r="3.161"/><path d="m162.425 95.7v13.538l29.588 6.495c-.493-.53-1-1.046-1.55-1.533a38.471 38.471 0 0 0 -3.787-3l.75-26z" fill="#f7aaa1"/><path d="m166.966 15.076c-4.713-.3-12.486-.736-19.374-.857-9.037-.158-16.88 7.153-16.977 16.191a23.321 23.321 0 0 0 .3 3.933 10.892 10.892 0 0 0 8.391 8.9c12.235 2.742 36.568 11.575 41.251 39.085a23.291 23.291 0 0 1 -1.44 13.037 24.337 24.337 0 0 1 -4.9 7.37.986.986 0 0 0 .465 1.626 27.639 27.639 0 0 0 26.69-7.674s11.528 1.177 16.628-11.606a26.585 26.585 0 0 0 1.775-8.454 77.615 77.615 0 0 0 -.109-9.681 56.246 56.246 0 0 0 -40.113-49.615 56.5 56.5 0 0 0 -12.587-2.255z" fill="#ffd967"/><path d="m166.372 11.411q-.324.5-.646 1.058a11.608 11.608 0 0 0 4.262 15.719 37.121 37.121 0 0 0 13.177 4.728 11.476 11.476 0 0 0 10.582-3.916 12.962 12.962 0 0 0 2.963-6.854 8.572 8.572 0 0 0 -3.82-8.022 40.411 40.411 0 0 0 -18.476-6.6 8.635 8.635 0 0 0 -8.042 3.887z" fill="#ffddcf"/><path d="m193.747 29a12.962 12.962 0 0 0 2.963-6.854 8.1 8.1 0 0 0 -.233-2.985c-5.4 5.946-14.357 6.153-21.924 1.109-4.777-3.184-5.585-7.838-5.247-11.61a8.655 8.655 0 0 0 -2.934 2.754q-.324.5-.646 1.058a11.607 11.607 0 0 0 4.263 15.719 37.108 37.108 0 0 0 13.176 4.728 11.476 11.476 0 0 0 10.582-3.919z" fill="#f7aaa1"/><g fill="#3d3c4c"><path d="m90.674 325.482a21.054 21.054 0 0 0 17.548 9.815l135.351 1.861h.123a8.907 8.907 0 0 0 .609-17.792c-.493-.036-1.015-.057-1.569-.06a9.551 9.551 0 0 1 -4.867-1.3c-.206-.124-.425-.259-.652-.406l4.956.143h.266a9.015 9.015 0 0 0 3.943-17.119 34.634 34.634 0 0 1 -8.767-6.7 13.387 13.387 0 0 0 -14.79-3.024 32.1 32.1 0 0 0 -3.48 1.721 13.523 13.523 0 0 1 -6.436 1.77c-.7.014-1.367 0-1.989-.024a14.6 14.6 0 0 1 -6.437-1.836 74.578 74.578 0 0 0 -18.18-7.111c13.962-16.666 20.397-37.061 20.697-38.02.028-.092.035-.184.056-.276 3.021-8.086 2.484-16.842-1.722-25.886-.082-.178-.172-.352-.263-.525l-.077-.15-.011-.02c-4.259-8.528-12.876-15.007-17.08-18.161l-.089-.067a9.136 9.136 0 0 1 -3.674-7.254v-7.217a9.014 9.014 0 0 1 1.146-4.4l3.357-6c7.367-12.757 11.47-30.925 13.261-40.618a27.751 27.751 0 0 0 -8.777-25.62c-.889-.792-1.711-1.463-2.39-1.992l.042-1.424a32.154 32.154 0 0 0 12.162-7.084c5.49-.208 14.433-3.261 18.78-14.154a30.5 30.5 0 0 0 2.053-9.714 81.844 81.844 0 0 0 -.112-10.175 59.33 59.33 0 0 0 -14.162-34.4 4 4 0 1 0 -6.088 5.19 51.381 51.381 0 0 1 12.266 29.8 73.8 73.8 0 0 1 .1 9.169 22.564 22.564 0 0 1 -1.495 7.175 14.546 14.546 0 0 1 -5.891 7.392 21.093 21.093 0 0 0 .459-6.69 4 4 0 1 0 -7.966.719 12.772 12.772 0 0 1 -2.438 8.923 24.272 24.272 0 0 1 -12.273 6.774h-.014a23.71 23.71 0 0 1 -5.638.471 26.443 26.443 0 0 0 3.809-9.257c.012-.047.021-.095.032-.143a27.838 27.838 0 0 0 .13-10.136c-5.173-30.39-32.717-39.718-44.319-42.317a6.868 6.868 0 0 1 -5.317-5.629 19.441 19.441 0 0 1 -.247-3.256 12.112 12.112 0 0 1 3.732-8.6 12.711 12.711 0 0 1 9.174-3.635c4.242.074 8.778.268 12.625.468a15.657 15.657 0 0 0 6.159 11.548 40.913 40.913 0 0 0 13.879 6.92 15.773 15.773 0 0 0 4.2.57 15.373 15.373 0 0 0 10.6-4.174 16.9 16.9 0 0 0 4.884-8.428 12.5 12.5 0 0 0 -4.133-12.373 44.266 44.266 0 0 0 -19.317-9.607 12.555 12.555 0 0 0 -12.369 4.251q-.454.541-.916 1.164a15.343 15.343 0 0 0 -1.343 2.211c-4.155-.225-9.307-.459-14.115-.543a20.634 20.634 0 0 0 -14.891 5.9 20.059 20.059 0 0 0 -6.156 14.248 27.3 27.3 0 0 0 .319 4.358c-7.671 8.091-20.68 22.476-31.2 37.459a14.656 14.656 0 0 0 1.83 19.1l47.528 45.665c-5.1 3.875-9.865 6.441-14.182 7.634-.219.055-.737.193-1.468.441a23.342 23.342 0 0 0 -7.116 3.911 3.616 3.616 0 0 0 -.307.222 22.763 22.763 0 0 0 -3.994 4.317l-.031.044q-.39.55-.749 1.124-.1.165-.207.333c-.169.28-.33.564-.487.851-.1.181-.2.361-.3.545s-.188.386-.281.579a23.645 23.645 0 0 0 -1.2 3c-.036.114-.075.226-.11.34-.1.319-.187.642-.271.966q-.063.24-.121.481c-.072.3-.14.6-.2.908-.041.206-.075.414-.111.622s-.082.417-.112.629c-.01.065-.013.13-.022.195-.046.337-.078.676-.11 1.015q-.04.443-.066.883c-.019.347-.036.693-.041 1.042 0 .2 0 .4.006.594 0 .216 0 .431.007.647 0 .105.016.209.021.314.01.181.023.361.037.542.027.359.062.717.105 1.072.016.13.031.259.049.389.066.476.144.949.238 1.418v.021a23.131 23.131 0 0 0 5.724 11.185c.047.051.1.1.143.151q.441.467.908.911l.274.259c.287.264.583.521.885.772.1.087.2.175.308.26.4.321.808.634 1.232.933.712.5 1.457.973 2.214 1.4a4 4 0 1 0 3.947-6.959c-.531-.3-1.054-.632-1.554-.984-.444-.313-.86-.651-1.263-1-.091-.078-.183-.156-.272-.237q-.547-.494-1.038-1.028c-.1-.111-.2-.225-.3-.338q-.4-.46-.758-.947c-.091-.123-.182-.247-.269-.373-.241-.351-.464-.712-.674-1.081-.074-.13-.148-.259-.218-.391-.226-.426-.434-.862-.617-1.309-.034-.082-.063-.165-.1-.247a15.6 15.6 0 0 1 -1.042-5.05v-.008c-.013-.329-.013-.656-.006-.982 0-.093.008-.188.012-.282.01-.244.023-.487.044-.729.013-.157.033-.314.052-.471.022-.2.044-.395.074-.59.02-.135.047-.267.071-.4.042-.234.083-.469.135-.7 0-.017.008-.033.012-.051a15.888 15.888 0 0 1 1.408-3.822c2.863 4.207 8.343 8.039 18.76 8.406a46.047 46.047 0 0 1 -1.909 7.247l-.273.767c-2.834 7.972-7.576 21.316-12.882 30.895-10.17 18.359-10.063 40.039-9.857 45.46-9.009 15.35-19.653 34.581-27.972 52.855a20.913 20.913 0 0 0 1.398 19.931zm79.5-312.959a4.69 4.69 0 0 1 3.571-1.671 4.44 4.44 0 0 1 .946.1 36.262 36.262 0 0 1 15.82 7.861 4.6 4.6 0 0 1 1.561 4.459 8.992 8.992 0 0 1 -2.62 4.484 7.489 7.489 0 0 1 -7.145 1.684 32.975 32.975 0 0 1 -11.174-5.581 7.617 7.617 0 0 1 -1.581-10.546q.31-.422.617-.79zm4.49 277.015a4.008 4.008 0 0 0 3.507 2.586c.1.007 10.163.693 22.476 7.435a22.842 22.842 0 0 0 9.946 2.812c.83.034 1.66.044 2.465.03a21.552 21.552 0 0 0 10.252-2.818 23.818 23.818 0 0 1 2.6-1.289 5.425 5.425 0 0 1 5.992 1.238 42.617 42.617 0 0 0 10.932 8.269 1.055 1.055 0 0 1 .618.932 1 1 0 0 1 -.308.73.961.961 0 0 1 -.739.288l-14.337-.413a17.158 17.158 0 0 0 -12.233-2.873l-.28.044a3.986 3.986 0 0 0 -.619.149l-12 3.928c-5.442-3.22-23.494-13.188-44.488-17.066 7.671-5.975 19.664-15.44 29.056-23.417a84.013 84.013 0 0 1 -11.913 15.184 4 4 0 0 0 -.932 4.251zm16.54-55.115c.128-.04.257-.066.383-.119.069-.029.127-.073.193-.106a32.156 32.156 0 0 0 8.139-4.7c.071.243.143.486.207.727s.125.462.18.691c.106.446.194.888.276 1.329.031.168.071.338.1.506.1.606.178 1.208.232 1.805.011.129.012.255.022.383.035.469.06.937.066 1.4 0 .209 0 .416-.008.623-.006.384-.017.767-.043 1.147-.014.224-.035.446-.057.668q-.054.55-.136 1.1c-.032.219-.065.438-.105.656-.068.378-.151.754-.24 1.129-.046.195-.087.39-.139.584-.123.465-.267.928-.422 1.388-.033.1-.059.2-.094.3q-.3.837-.663 1.664c-.067.152-.146.3-.217.454-.186.4-.378.795-.589 1.19-.1.2-.22.393-.331.59-.2.349-.4.7-.621 1.044-.128.206-.262.41-.4.615-.226.341-.464.68-.709 1.019-.144.2-.286.4-.436.594-.276.362-.567.722-.864 1.081-.138.167-.27.335-.413.5-.449.523-.916 1.043-1.411 1.56q-1.893 1.972-5.339 5.048c-.918-9.245-6.113-16.872-11.064-22.181a43.3 43.3 0 0 0 14.499-2.689zm-9.518-60.923-3.383 6.042a17.035 17.035 0 0 0 -2.166 8.3v7.217a17.172 17.172 0 0 0 6.873 13.653l.09.068c3.286 2.464 9.639 7.237 13.416 13.046a22.384 22.384 0 0 1 -4.749 3.522 26.076 26.076 0 0 0 -1.959-2.75 4 4 0 0 0 -6.184 5.077c.132.16.276.345.424.542-4.73 1.047-10.747 1.307-18.368.064-3.74-.78-13.256-3.334-19.518-7.018 6.8-10.628 21.075-33.572 25.891-46.011a119.125 119.125 0 0 0 5.469-14.077h9.737a78.286 78.286 0 0 1 -5.573 12.325zm-.16-64.3q.591 0 1.207-.024l-.055 1.91a4.011 4.011 0 0 0 1.774 3.44 35.252 35.252 0 0 1 3.35 2.662 19.7 19.7 0 0 1 6.232 18.193c-.836 4.528-2.2 11-4.179 17.8h-10.067c2.133-8.707 3.485-18.827 1.954-28.178a13.812 13.812 0 0 0 -3.742-7.563q-.32-.323-.68-.647a13.7 13.7 0 0 0 -10.889-3.357v-11.982c1.7-.547 3.451-1.16 5.213-1.843-.417.469-.862.953-1.374 1.475a4 4 0 0 0 1.423 6.536 29.507 29.507 0 0 0 9.833 1.578zm-79.25-32.421a336.581 336.581 0 0 1 28.289-34.24 14.886 14.886 0 0 0 7.865 4.6c12.456 2.796 33.978 11.161 38.181 35.861a20.166 20.166 0 0 1 .189 5.423c-9.987 5.539-22.23 8.068-27.254 8.924-5.712-8.428-8.559-18.257-9.852-27.509.07 0 .141.025.211.025a4 4 0 0 0 .91-7.895l-1.911-.449c-.152-2.93-.18-5.732-.118-8.317a4 4 0 0 0 -3.9-4.095h-.1a4 4 0 0 0 -4 3.9 100.531 100.531 0 0 0 3.751 30.787l-8.43-6.5 1.1-1.671a4 4 0 0 0 -6.682-4.4l-3.142 4.771a4 4 0 0 0 .9 5.367l22.83 17.619a57.328 57.328 0 0 0 3.41 5.1 4 4 0 0 0 3.2 1.6 4.061 4.061 0 0 0 .492-.03 101.367 101.367 0 0 0 10.213-1.95v13.269a31.385 31.385 0 0 0 -9.748 12.332l-45.58-43.791a6.7 6.7 0 0 1 -.824-8.728zm26.938 77.094a15.824 15.824 0 0 1 2.815-1.277c.459-.157.758-.237.808-.249s.1-.023.145-.037a44.377 44.377 0 0 0 11.466-5.213l-1.313 13.252c-7.426-.116-12.092-2.283-13.921-6.473zm4.9 57.243c5.625-10.155 10.506-23.888 13.422-32.092l.272-.765a53.968 53.968 0 0 0 2.855-12.75l1.816-18.319c1.2-15.61 7.574-22.26 12.709-25.091a6.209 6.209 0 0 1 3-.779 5.638 5.638 0 0 1 3.785 1.42c.124.112.242.224.344.326a5.962 5.962 0 0 1 1.535 3.225c3.257 19.894-8.945 45.373-9.068 45.626-.05.1-.095.209-.137.317-5.873 15.319-28.57 49.906-28.809 50.271-.105.161-4.058 6.2-9.9 15.726.971-8.055 3.199-18.131 8.175-27.112zm-37.547 97.756c8.459-18.581 19.377-38.2 28.449-53.583l16.823-27.282c7.743 4.631 18.456 7.269 21.492 7.954 3.224 2.3 19.248 14.664 16.127 30.455-12.353 10.311-28.017 22.426-32.318 25.737-7.561-.316-14.322-.39-20.113 1.028a4 4 0 0 0 .95 7.886 4.04 4.04 0 0 0 .955-.115c5.114-1.253 11.733-1.084 19.225-.75 26.624 2.157 51.876 17.977 52.128 18.136a4.01 4.01 0 0 0 3.386.424l13.433-4.4a9.247 9.247 0 0 1 8.427 3.411 30.7 30.7 0 0 0 8.221 7.094 17.547 17.547 0 0 0 8.936 2.437c.37 0 .719.016 1.051.04a.906.906 0 0 1 .7.387.876.876 0 0 1 .133.757.905.905 0 0 1 -.874.668h-.012l-135.355-1.856a13.08 13.08 0 0 1 -10.9-6.1 12.774 12.774 0 0 1 -.864-12.328z"/><path d="m154.252 69.543a3.971 3.971 0 0 0 .918-.107l3.337-.783a4 4 0 0 0 -1.828-7.788l-3.337.783a4 4 0 0 0 .91 7.9z"/></g></svg>