<svg id="Capa_1" enable-background="new 0 0 512 512" height="512" viewBox="0 0 512 512" width="512" xmlns="http://www.w3.org/2000/svg"><g><g><g><path d="m299.466 504.502c-5.031 0-9.944-2.529-12.779-7.125-28.505-46.194-43.571-99.303-43.571-153.583 0-8.284 6.716-15 15-15s15 6.716 15 15c0 48.713 13.521 96.373 39.102 137.829 4.351 7.05 2.162 16.292-4.888 20.643-2.456 1.514-5.177 2.236-7.864 2.236z" fill="#00c084"/></g><path d="m431.76 235.24c-10.267-10.267-24.009-19.826-39.479-27.74 15.47-7.914 29.213-17.473 39.479-27.74 40.878-40.878 26.036-92.313-14.842-133.191s-92.313-55.72-133.191-14.842c-10.267 10.267-19.826 24.009-27.74 39.479-7.914-15.47-17.473-29.213-27.74-39.479-31.608-31.608-69.528-29.902-103.999-8.605-10.109 6.246-19.922 14.177-29.192 23.447-40.878 40.878-55.72 92.313-14.842 133.191 10.267 10.267 24.009 19.826 39.479 27.74-15.47 7.914-29.212 17.473-39.479 27.739-40.878 40.879-26.037 92.313 14.842 133.192 40.878 40.878 92.313 55.72 133.192 14.841 10.267-10.267 19.826-24.009 27.739-39.479 7.914 15.47 17.473 29.213 27.74 39.479 40.878 40.879 92.313 26.037 133.192-14.841 8.215-8.215 15.378-16.856 21.249-25.752 23.344-35.372 26.256-74.776-6.408-107.439z" fill="#5fd9b3"/><path d="m121.824 60.317c0-12.605.833-25.023 2.424-37.195-10.108 6.246-19.923 14.178-29.192 23.447-40.878 40.878-55.72 92.313-14.842 133.191 10.267 10.267 24.009 19.826 39.479 27.74-15.47 7.914-29.212 17.473-39.479 27.739-40.878 40.879-26.037 92.313 14.842 133.192 40.878 40.878 92.313 55.72 133.192 14.841 10.267-10.267 19.826-24.009 27.739-39.479 7.914 15.47 17.473 29.213 27.74 39.479 40.878 40.879 92.313 26.037 133.192-14.841 8.215-8.215 15.378-16.856 21.249-25.752-10.557 1.189-21.285 1.821-32.16 1.821-156.951 0-284.184-127.233-284.184-284.183z" fill="#00c084"/></g><g><g><g><ellipse cx="172.422" cy="234.313" fill="#ff8e9e" rx="30.834" ry="24.555"/></g><g><ellipse cx="339.552" cy="234.313" fill="#ff8e9e" rx="30.834" ry="24.555"/></g></g></g><g><path d="m407.725 207.5c56.121-33.762 67.767-79.814 44.595-125.747-1.866-3.699-6.378-5.182-10.074-3.318-3.698 1.866-5.184 6.376-3.318 10.074 24.411 48.386.343 85.941-48.485 111.491h-26.083c-4.143 0-7.5 3.357-7.5 7.5s3.357 7.5 7.5 7.5h26.083c73.314 38.362 73.623 95.672 21.174 148.128-23.779 23.776-49.866 36.871-73.458 36.871-34.585 0-58.693-27.508-74.671-58.044v-61.997c0-4.143-3.358-7.5-7.5-7.5s-7.5 3.357-7.5 7.5v61.985c-6.787 12.967-15.372 25.857-25.542 36.025-38.077 38.078-85.167 22.577-122.585-14.841-52.963-52.96-51.696-110 21.171-148.127h26.084c4.142 0 7.5-3.357 7.5-7.5s-3.358-7.5-7.5-7.5h-26.084c-73.728-38.582-73.238-96.062-21.173-148.128 19.621-19.621 45.83-36.872 73.459-36.872 34.654 0 58.662 27.449 74.669 58.045v70.026c0 4.143 3.358 7.5 7.5 7.5s7.5-3.357 7.5-7.5v-70.026c16.004-30.584 40.007-58.045 74.67-58.045 32.483 0 64.622 24.561 85.204 49.846 2.615 3.211 7.339 3.697 10.552 1.081 3.212-2.615 3.696-7.34 1.081-10.552-23.474-28.83-59.484-55.375-96.837-55.375-36.765 0-63.29 24.38-82.17 55.762-18.871-31.37-45.395-55.762-82.169-55.762-31.964 0-61.556 18.757-84.065 41.265-54.482 54.483-60.378 121.194 14.495 166.235-74.381 44.751-69.364 111.365-14.496 166.235 46.373 46.371 104.523 59.058 148.518 9.829 2.79 20.882 7.765 41.425 14.872 61.284 1.396 3.898 5.687 5.93 9.589 4.534 3.9-1.396 5.93-5.688 4.534-9.589-8.477-23.688-13.765-48.399-15.75-73.489 1.547-2.327 2.908-4.465 4.472-7.065 3.669 6.098 7.565 11.779 11.611 16.979 4.666 38.544 17.851 76.308 38.236 109.344 2.159 3.5 1.12 8.122-2.444 10.321-3.471 2.143-8.107 1.144-10.321-2.444-5.306-8.598-10.205-17.573-14.562-26.679-1.787-3.735-6.264-5.313-10.002-3.528-3.736 1.788-5.316 6.267-3.528 10.003 4.585 9.584 9.742 19.032 15.326 28.081 4.128 6.691 11.292 10.685 19.162 10.685 17.47 0 28.432-19.249 19.134-34.315-15.532-25.171-26.63-53.25-32.662-82.275 43.797 36.28 96.385 18.222 136.285-21.675 54.47-54.477 60.46-121.141-14.497-166.236z"/><path d="m182.892 198.373v12c0 4.143 3.358 7.5 7.5 7.5s7.5-3.357 7.5-7.5v-12c0-4.143-3.358-7.5-7.5-7.5s-7.5 3.357-7.5 7.5z"/><path d="m267.627 205.373c-6.164 7.073-17.12 7.068-23.279 0-2.721-3.122-7.458-3.448-10.582-.727-3.123 2.722-3.448 7.459-.727 10.582 12.142 13.932 33.766 13.92 45.896 0 2.721-3.123 2.396-7.86-.727-10.582-3.123-2.72-7.86-2.396-10.581.727z"/><path d="m302.493 210.039c0 4.143 3.358 7.5 7.5 7.5s7.5-3.357 7.5-7.5c0-3.532 2.874-6.406 6.406-6.406 3.533 0 6.407 2.874 6.407 6.406 0 4.143 3.357 7.5 7.5 7.5s7.5-3.357 7.5-7.5c0-11.804-9.604-21.406-21.407-21.406s-21.406 9.602-21.406 21.406z"/></g></g></svg>