<svg id="Capa_1" enable-background="new 0 0 512 512" height="512" viewBox="0 0 512 512" width="512" xmlns="http://www.w3.org/2000/svg"><g><path d="m414.5 117.5c-16.57 0-30 13.43-30 30v205h60v-205c0-16.57-13.43-30-30-30z" fill="#fff0b8"/><path d="m97.5 117.5c-16.57 0-30 13.43-30 30v205h60v-205c0-16.57-13.43-30-30-30z" fill="#fff0b8"/><path d="m298.427 96.493c-11.716-11.716-27.072-17.573-42.427-17.573l15 289.574 143.5-155.927z" fill="#8d4426"/><path d="m290.396 96.493c-9.498-11.716-21.947-17.573-34.396-17.573-15.355 0-30.711 5.858-42.427 17.573l-116.073 116.074 143.5 155.926c0 8.284 6.716 15 15 15s15-6.716 15-15l127.55-138.596z" fill="#a0583b"/><path d="m67.5 57.5c-16.57 0-30 13.43-30 30v205h60v-205c0-16.57-13.43-30-30-30z" fill="#ffd693"/><path d="m198.738 437.083 12.262 47.417h30v-30z" fill="#fc8647"/><path d="m241 368.493c0-16.569-6.716-31.569-17.573-42.427l-104.714-104.712 77.287 147.139 14.993 77.972c8.826 5.109 19.074 8.035 30.007 8.035z" fill="#ffa352"/><path d="m203.5 361-136-118.433v-184.443c0-16.347-12.816-30.165-29.157-30.613-16.954-.464-30.843 13.14-30.843 29.989v220.706c0 7.415 1.832 14.714 5.333 21.25l63.678 118.866c3.828 7.146 4.601 15.537 2.143 23.263l-13.654 42.915h146v-38.047z" fill="#ffa352"/><path d="m211 446.453v-77.96c0-16.569-5.068-31.569-13.262-42.427l-79.025-104.713c-11.716-11.716-30.711-11.716-42.427 0s-11.716 30.711 0 42.426l104.714 104.714v26.011c.002 22.203 12.072 41.574 30 51.949z" fill="#ffbc72"/><path d="m444.5 57.5c16.57 0 30 13.43 30 30v175h-60v-175c0-16.57 13.43-30 30-30z" fill="#ffd693"/><path d="m473.657 27.512c-3.954.108-7.698 1.005-11.107 2.526v246.246l-72.061 165.301h42.857c-2.458-7.725-1.685-16.117 2.143-23.263l63.678-118.866c3.501-6.536 5.333-13.835 5.333-21.25v-220.706c0-16.849-13.89-30.453-30.843-29.988z" fill="#fc8647"/><path d="m472.341 296.216c1.43-4.45 2.159-9.096 2.159-13.77v-224.946c0-12.272-4.915-22.815-11.95-27.463-10.682 4.763-18.05 15.695-18.05 28.087v184.443l-136 118.433-37.5 93.5v30h176l-14.591-45.857c-1.892-5.947-1.883-12.335.027-18.276z" fill="#ffa352"/><path d="m435.713 221.354c-11.716-11.716-30.711-11.716-42.427 0l-104.713 104.713c-10.857 10.858-17.573 25.858-17.573 42.426v86.007c33.135 0 59.997-26.86 60-59.995v-26.011l104.713-104.714c11.716-11.716 11.716-30.711 0-42.426z" fill="#ffbc72"/><path d="m500.648 30.621c-7.317-7.12-16.981-10.89-27.197-10.606-17.582.482-32.297 13.625-35.706 30.606-17.463 3.192-30.745 18.509-30.745 36.879v23.255c-17.096 3.484-30 18.635-30 36.745v16.96l-73.27-73.27c-12.75-12.749-29.7-19.771-47.73-19.771s-34.98 7.021-47.73 19.771l-56.073 56.073c-2.929 2.93-2.929 7.678 0 10.607 2.93 2.928 7.678 2.928 10.607 0l56.073-56.073c9.916-9.916 23.1-15.378 37.123-15.378s27.207 5.462 37.123 15.378l106.543 106.543c-4.417 1.866-8.552 4.58-12.124 8.151l-104.272 104.273c-12.748 12.749-19.77 29.7-19.77 47.729 0 4.136-3.364 7.5-7.5 7.5s-7.5-3.364-7.5-7.5c0-18.029-7.021-34.98-19.77-47.729l-104.713-104.713c-3.379-3.379-7.282-6.021-11.522-7.872l20.309-20.309c1.406-1.407 2.196-3.314 2.196-5.304v-35.066c0-18.109-12.904-33.262-30-36.747v-23.253c0-18.371-13.282-33.687-30.745-36.879-3.41-16.981-18.125-30.124-35.707-30.606-10.194-.27-19.878 3.486-27.196 10.606-7.321 7.122-11.352 16.668-11.352 26.879v220.706c0 8.619 2.151 17.192 6.222 24.792l63.678 118.864c2.854 5.329 3.44 11.688 1.608 17.447l-13.655 42.916c-.726 2.28-.32 4.77 1.093 6.701 1.412 1.933 3.661 3.074 6.054 3.074h176c4.143 0 7.5-3.357 7.5-7.5v-94.797c2.347.833 4.871 1.29 7.5 1.29s5.153-.458 7.5-1.29v94.797c0 4.143 3.357 7.5 7.5 7.5h176c2.393 0 4.642-1.142 6.054-3.073 1.413-1.932 1.818-4.421 1.093-6.701l-13.655-42.916c-1.832-5.759-1.246-12.118 1.608-17.446l63.679-118.866c4.07-7.599 6.222-16.172 6.222-24.791v-220.707c-.001-10.211-4.032-19.757-11.353-26.879zm-395.648 95.664c8.73 3.096 15 11.437 15 21.215v31.96l-15 15zm-30-59.995c8.729 3.096 15 11.433 15 21.21v118.317c-5.448 1.098-10.55 3.384-15 6.737zm158.5 410.71h-158.243l10.545-33.142c3.055-9.6 2.078-20.198-2.679-29.079l-63.679-118.864c-2.907-5.429-4.444-11.552-4.444-17.709v-220.706c0-6.127 2.419-11.854 6.812-16.128 4.391-4.272 10.198-6.528 16.325-6.363 12.055.331 21.863 10.7 21.863 23.115v184.406c-.014 10.032 3.876 19.445 10.983 26.554l104.713 104.713c2.93 2.927 7.678 2.929 10.607 0 2.929-2.93 2.929-7.678 0-10.607l-104.272-104.271c-8.779-8.78-9.176-23.047-.885-31.806 4.221-4.459 9.918-6.961 16.043-7.045 6.084-.087 11.887 2.256 16.22 6.589l104.714 104.714c9.916 9.915 15.377 23.099 15.377 37.122zm188.5-389.5c0-9.777 6.271-18.114 15-21.21v146.284c-4.51-3.359-9.652-5.548-15-6.585zm-30 91.96v-31.96c0-9.777 6.271-18.114 15-21.21v68.17zm105 98.746c0 6.157-1.537 12.28-4.444 17.708l-63.679 118.866c-4.757 8.88-5.733 19.479-2.679 29.078l10.545 33.142h-158.243v-108.507c0-14.023 5.461-27.207 15.377-37.122l104.272-104.272c8.776-8.778 23.046-9.178 31.803-.886 4.46 4.221 6.962 9.918 7.046 16.043.001.094.002.187.002.28-.003 6.054-2.336 11.686-6.591 15.94l-104.713 104.714c-2.929 2.93-2.929 7.678 0 10.607 2.93 2.928 7.678 2.928 10.607 0l104.713-104.713c7.107-7.108 10.997-16.521 10.983-26.554v-184.406c0-12.415 9.808-22.784 21.862-23.115 6.129-.154 11.936 2.092 16.326 6.363 4.394 4.274 6.813 10.001 6.813 16.128z"/><circle cx="256" cy="108.919" r="7.5"/><circle cx="226" cy="138.919" r="7.5"/><circle cx="286" cy="198.919" r="7.5"/></g></svg>