<svg id="Expand_Filled" height="512" viewBox="0 0 64 64" width="512" xmlns="http://www.w3.org/2000/svg" data-name="Expand Filled"><g id="_17" data-name="17"><g><g><path d="m50 33h-9a6 6 0 0 0 -6 6v1a13 13 0 0 0 13 13h3a8 8 0 0 0 8-8v-6a6 6 0 0 0 -6-6z" fill="#e65039"/><path d="m15 31h6a6 6 0 0 1 6 6v12a6 6 0 0 1 -6 6h-1a13 13 0 0 1 -13-13v-3a8 8 0 0 1 8-8z" fill="#e65039" transform="matrix(0 -1 1 0 -26 60)"/><g><path d="m3 36h2a0 0 0 0 1 0 0v5a0 0 0 0 1 0 0h-4a0 0 0 0 1 0 0v-3a2 2 0 0 1 2-2z" fill="#383e4c"/><path d="m1 41h4a0 0 0 0 1 0 0v4a0 0 0 0 1 0 0 4 4 0 0 1 -4-4 0 0 0 0 1 0 0z" fill="#888b94"/></g><g><path d="m59 36h4a0 0 0 0 1 0 0v5a0 0 0 0 1 0 0h-2a2 2 0 0 1 -2-2v-3a0 0 0 0 1 0 0z" fill="#383e4c" transform="matrix(-1 0 0 -1 122 77)"/><path d="m63 41a0 0 0 0 1 0 0v4a0 0 0 0 1 0 0h-4a0 0 0 0 1 0 0 4 4 0 0 1 4-4z" fill="#888b94" transform="matrix(-1 0 0 -1 122 86)"/></g><g><path d="m38 40h2v-1a1 1 0 0 1 1-1v-2a3 3 0 0 0 -3 3z"/><path d="m54 45a3 3 0 0 1 -3 3v2a5.006 5.006 0 0 0 5-5z"/><path d="m43 36h2v2h-2z"/><path d="m47 48h2v2h-2z"/><path d="m23 36v2a1 1 0 0 1 1 1v1h2v-1a3 3 0 0 0 -3-3z"/><path d="m10 45h-2a5.006 5.006 0 0 0 5 5v-2a3 3 0 0 1 -3-3z"/><path d="m19 36h2v2h-2z"/><path d="m15 48h2v2h-2z"/></g></g><path d="m61.815 35.114-5.107-21.281a4.984 4.984 0 0 0 -4.862-3.833h-3.846v2h3.846a2.991 2.991 0 0 1 2.918 2.3l4.968 20.7h-.732a1 1 0 0 0 -.239.029 7 7 0 0 0 -5.761-3.029h-1v2h1a5.006 5.006 0 0 1 5 5v6a7.008 7.008 0 0 1 -7 7h-3a12.013 12.013 0 0 1 -12-12v-1a5.006 5.006 0 0 1 5-5h9v-2h-39a7 7 0 0 0 -5.761 3.029 1 1 0 0 0 -.239-.029h-.732l4.968-20.7a2.991 2.991 0 0 1 2.918-2.3h3.846v-2h-3.846a4.984 4.984 0 0 0 -4.862 3.833l-5.107 21.281a3 3 0 0 0 -2.185 2.886v3a5.008 5.008 0 0 0 4.046 4.908 9.012 9.012 0 0 0 8.954 8.092h3a14.021 14.021 0 0 0 12.866-8.48l.791-.99a3 3 0 0 1 4.686 0l.791.99a14.021 14.021 0 0 0 12.866 8.48h3a9.012 9.012 0 0 0 8.954-8.092 5.008 5.008 0 0 0 4.046-4.908v-3a3 3 0 0 0 -2.185-2.886zm-59.815 2.886a1 1 0 0 1 1-1h1v3h-2zm.172 4h1.828v1.828a3.015 3.015 0 0 1 -1.828-1.828zm25.828-2a12.013 12.013 0 0 1 -12 12h-3a7.008 7.008 0 0 1 -7-7v-6a5.006 5.006 0 0 1 5-5h12a5.006 5.006 0 0 1 5 5zm6-1v1a14.164 14.164 0 0 0 .125 1.876 5.02 5.02 0 0 0 -4.25 0 14.164 14.164 0 0 0 .125-1.876v-1a6.98 6.98 0 0 0 -2.107-5h8.214a6.98 6.98 0 0 0 -2.107 5zm26 4.828v-1.828h1.828a3.015 3.015 0 0 1 -1.828 1.828zm2-3.828h-2v-3h1a1 1 0 0 1 1 1z"/></g></g></svg>