<svg xmlns="http://www.w3.org/2000/svg" height="512pt" version="1.1" viewBox="-94 0 512 512" width="512pt">
<g id="surface1">
<path d="M 104.5625 435.496094 C 66.65625 397.59375 45.40625 376.339844 7.5 338.433594 L 7.5 504.5 L 196.0625 504.5 L 196.0625 435.496094 Z M 104.5625 435.496094 " style=" stroke:none;fill-rule:nonzero;fill:rgb(100%,85.490196%,66.666667%);fill-opacity:1;" />
<path d="M 7.5 162.066406 L 7.5 338.433594 C 45.40625 376.339844 66.65625 397.59375 104.5625 435.496094 L 316.632812 435.496094 L 316.632812 162.066406 C 316.632812 76.699219 247.429688 7.5 162.066406 7.5 C 76.699219 7.5 7.5 76.699219 7.5 162.066406 Z M 7.5 162.066406 " style=" stroke:none;fill-rule:nonzero;fill:rgb(100%,85.490196%,66.666667%);fill-opacity:1;" />
<path d="M 264.664062 120.308594 C 256.683594 77.136719 218.84375 44.441406 173.363281 44.441406 C 127.882812 44.441406 90.046875 77.136719 82.0625 120.308594 C 71.488281 129.871094 65.363281 137.296875 65.363281 137.296875 C 65.363281 137.296875 71.488281 144.71875 82.0625 154.285156 C 90.046875 197.453125 127.882812 230.152344 173.363281 230.152344 C 218.84375 230.152344 256.683594 197.453125 264.664062 154.285156 C 275.242188 144.71875 281.363281 137.296875 281.363281 137.296875 C 281.363281 137.296875 275.242188 129.871094 264.664062 120.308594 Z M 264.664062 120.308594 " style=" stroke:none;fill-rule:nonzero;fill:rgb(100%,58.039216%,47.058824%);fill-opacity:1;" />
<path d="M 37.5 338.433594 L 37.5 162.066406 C 37.5 81.761719 98.738281 15.761719 177.066406 8.21875 C 172.128906 7.742188 167.128906 7.5 162.066406 7.5 C 76.703125 7.5 7.5 76.699219 7.5 162.066406 L 7.5 338.433594 L 104.5625 435.496094 L 134.5625 435.496094 C 96.65625 397.59375 75.40625 376.339844 37.5 338.433594 Z M 37.5 338.433594 " style=" stroke:none;fill-rule:nonzero;fill:rgb(100%,58.039216%,47.058824%);fill-opacity:1;" />
<path d="M 251.363281 137.296875 C 251.363281 137.296875 203.011719 195.925781 143.363281 195.925781 C 83.71875 195.925781 35.363281 137.296875 35.363281 137.296875 C 35.363281 137.296875 83.71875 78.667969 143.363281 78.667969 C 203.011719 78.667969 251.363281 137.296875 251.363281 137.296875 Z M 251.363281 137.296875 " style=" stroke:none;fill-rule:nonzero;fill:rgb(100%,100%,100%);fill-opacity:1;" />
<path d="M 210.628906 137.296875 C 210.628906 157.875 193.945312 174.5625 173.363281 174.5625 C 152.78125 174.5625 136.097656 157.875 136.097656 137.296875 C 136.097656 116.714844 152.78125 100.03125 173.363281 100.03125 C 193.945312 100.03125 210.628906 116.714844 210.628906 137.296875 Z M 210.628906 137.296875 " style=" stroke:none;fill-rule:nonzero;fill:rgb(87.843137%,87.843137%,88.627451%);fill-opacity:1;" />
<path d="M 180.628906 137.296875 C 180.628906 157.875 163.945312 174.5625 143.363281 174.5625 C 122.78125 174.5625 106.097656 157.875 106.097656 137.296875 C 106.097656 116.714844 122.78125 100.03125 143.363281 100.03125 C 163.945312 100.03125 180.628906 116.714844 180.628906 137.296875 Z M 180.628906 137.296875 " style=" stroke:none;fill-rule:nonzero;fill:rgb(34.117647%,64.313725%,100%);fill-opacity:1;" />
<path d="M 143.363281 195.925781 C 104.941406 195.925781 71.207031 171.597656 52.0625 154.28125 C 60.046875 197.453125 97.882812 230.152344 143.363281 230.152344 C 188.84375 230.152344 226.683594 197.453125 234.664062 154.28125 C 215.519531 171.597656 181.789062 195.925781 143.363281 195.925781 Z M 143.363281 195.925781 " style=" stroke:none;fill-rule:nonzero;fill:rgb(100%,47.45098%,33.72549%);fill-opacity:1;" />
<path d="M 143.363281 78.664062 C 181.789062 78.664062 215.523438 102.996094 234.664062 120.308594 C 226.683594 77.136719 188.84375 44.4375 143.363281 44.4375 C 97.882812 44.4375 60.046875 77.136719 52.0625 120.308594 C 71.207031 102.996094 104.9375 78.664062 143.363281 78.664062 Z M 143.363281 78.664062 " style=" stroke:none;fill-rule:nonzero;fill:rgb(100%,47.45098%,33.72549%);fill-opacity:1;" />
<path d="M 7.5 338.433594 L 7.5 504.5 L 37.5 504.5 L 37.5 368.433594 C 28.378906 359.3125 18.660156 349.59375 7.5 338.433594 Z M 7.5 338.433594 " style=" stroke:none;fill-rule:nonzero;fill:rgb(100%,58.039216%,47.058824%);fill-opacity:1;" />
<path d="M 65.363281 137.296875 C 65.363281 137.296875 105.816406 88.246094 158.363281 79.875 C 153.460938 79.09375 148.453125 78.667969 143.363281 78.667969 C 83.71875 78.667969 35.363281 137.296875 35.363281 137.296875 C 35.363281 137.296875 83.71875 195.925781 143.363281 195.925781 C 148.453125 195.925781 153.460938 195.496094 158.363281 194.71875 C 105.816406 186.347656 65.363281 137.296875 65.363281 137.296875 Z M 65.363281 137.296875 " style=" stroke:none;fill-rule:nonzero;fill:rgb(87.843137%,87.843137%,88.627451%);fill-opacity:1;" />
<path d="M 136.097656 137.296875 C 136.097656 122.050781 145.253906 108.945312 158.363281 103.171875 C 153.773438 101.152344 148.699219 100.03125 143.363281 100.03125 C 122.78125 100.03125 106.097656 116.714844 106.097656 137.296875 C 106.097656 157.878906 122.78125 174.5625 143.363281 174.5625 C 148.699219 174.5625 153.773438 173.4375 158.363281 171.417969 C 145.253906 165.648438 136.097656 152.539062 136.097656 137.296875 Z M 136.097656 137.296875 " style=" stroke:none;fill-rule:nonzero;fill:rgb(0%,42.745098%,94.117647%);fill-opacity:1;" />
<path d="M 92.246094 182.511719 C 75.847656 174.132812 61.992188 163.261719 52.0625 154.28125 C 60.042969 197.453125 97.882812 230.152344 143.363281 230.152344 C 148.46875 230.152344 153.480469 229.738281 158.363281 228.945312 C 129.910156 224.324219 105.796875 206.769531 92.246094 182.511719 Z M 92.246094 182.511719 " style=" stroke:none;fill-rule:nonzero;fill:rgb(100%,24.705882%,38.431373%);fill-opacity:1;" />
<path d="M 173.363281 195.925781 C 191.859375 195.925781 209.265625 190.289062 224.480469 182.511719 C 229.3125 173.859375 232.800781 164.355469 234.664062 154.28125 C 218.058594 169.304688 190.46875 189.601562 158.363281 194.71875 C 163.265625 195.496094 168.273438 195.925781 173.363281 195.925781 Z M 173.363281 195.925781 " style=" stroke:none;fill-rule:nonzero;fill:rgb(100%,24.705882%,38.431373%);fill-opacity:1;" />
<path d="M 173.363281 78.667969 C 168.273438 78.667969 163.265625 79.09375 158.363281 79.875 C 190.46875 84.988281 218.058594 105.289062 234.664062 120.308594 C 232.800781 110.234375 229.3125 100.730469 224.480469 92.078125 C 209.265625 84.300781 191.859375 78.667969 173.363281 78.667969 Z M 173.363281 78.667969 " style=" stroke:none;fill-rule:nonzero;fill:rgb(100%,24.705882%,38.431373%);fill-opacity:1;" />
<path d="M 158.363281 45.644531 C 153.480469 44.851562 148.472656 44.4375 143.363281 44.4375 C 97.882812 44.4375 60.046875 77.140625 52.0625 120.308594 C 61.992188 111.328125 75.847656 100.460938 92.246094 92.078125 C 105.796875 67.820312 129.910156 50.265625 158.363281 45.644531 Z M 158.363281 45.644531 " style=" stroke:none;fill-rule:nonzero;fill:rgb(100%,24.705882%,38.431373%);fill-opacity:1;" />
<path d="M 143.363281 182.0625 C 168.046875 182.0625 188.128906 161.980469 188.128906 137.296875 C 188.128906 112.613281 168.046875 92.53125 143.363281 92.53125 C 118.679688 92.53125 98.597656 112.613281 98.597656 137.296875 C 98.597656 161.980469 118.679688 182.0625 143.363281 182.0625 Z M 143.363281 107.53125 C 159.777344 107.53125 173.128906 120.882812 173.128906 137.296875 C 173.128906 153.707031 159.777344 167.0625 143.363281 167.0625 C 126.953125 167.0625 113.597656 153.707031 113.597656 137.296875 C 113.597656 120.882812 126.949219 107.53125 143.363281 107.53125 Z M 143.363281 107.53125 " style=" stroke:none;fill-rule:nonzero;fill:rgb(0%,0%,0%);fill-opacity:1;" />
<path d="M 143.363281 203.425781 C 205.828125 203.425781 255.085938 144.574219 257.148438 142.066406 L 261.085938 137.296875 L 257.148438 132.523438 C 255.085938 130.019531 205.828125 71.167969 143.363281 71.167969 C 80.898438 71.167969 31.644531 130.019531 29.578125 132.523438 L 25.640625 137.296875 L 29.578125 142.066406 C 31.644531 144.574219 80.898438 203.425781 143.363281 203.425781 Z M 143.363281 86.167969 C 188.964844 86.167969 228.519531 123.765625 241.277344 137.296875 C 228.519531 150.828125 188.964844 188.425781 143.363281 188.425781 C 97.761719 188.425781 58.203125 150.824219 45.449219 137.296875 C 58.207031 123.765625 97.761719 86.167969 143.363281 86.167969 Z M 143.363281 86.167969 " style=" stroke:none;fill-rule:nonzero;fill:rgb(0%,0%,0%);fill-opacity:1;" />
<path d="M 64.433594 129.796875 L 90.140625 129.796875 L 90.140625 144.796875 L 64.433594 144.796875 Z M 64.433594 129.796875 " style=" stroke:none;fill-rule:nonzero;fill:rgb(0%,0%,0%);fill-opacity:1;" />
<path d="M 170.308594 357.5 L 258.445312 357.5 L 258.445312 372.5 L 170.308594 372.5 Z M 170.308594 357.5 " style=" stroke:none;fill-rule:nonzero;fill:rgb(0%,0%,0%);fill-opacity:1;" />
<path d="M 231.878906 233.710938 L 231.878906 311.6875 L 214.378906 311.6875 L 214.378906 326.6875 L 246.878906 326.6875 L 246.878906 233.710938 Z M 231.878906 233.710938 " style=" stroke:none;fill-rule:nonzero;fill:rgb(0%,0%,0%);fill-opacity:1;" />
<path d="M 101.457031 442.996094 L 324.132812 442.996094 L 324.132812 162.066406 C 324.132812 72.703125 251.429688 0 162.066406 0 C 72.703125 0 0 72.703125 0 162.066406 L 0 512 L 203.5625 512 L 203.5625 455.496094 L 188.5625 455.496094 L 188.5625 497 L 15 497 L 15 356.539062 Z M 15 162.066406 C 15 80.972656 80.972656 15 162.066406 15 C 243.15625 15 309.132812 80.972656 309.132812 162.066406 L 309.132812 427.996094 L 107.671875 427.996094 L 15 335.328125 Z M 15 162.066406 " style=" stroke:none;fill-rule:nonzero;fill:rgb(0%,0%,0%);fill-opacity:1;" />
<path d="M 25 221.5 L 40 221.5 L 40 305.335938 L 25 305.335938 Z M 25 221.5 " style=" stroke:none;fill-rule:nonzero;fill:rgb(0%,0%,0%);fill-opacity:1;" />
<path d="M 143.363281 51.9375 C 170.679688 51.9375 196.558594 65.175781 212.585938 87.347656 L 224.738281 78.558594 C 205.902344 52.496094 175.480469 36.9375 143.363281 36.9375 C 111.246094 36.9375 80.828125 52.496094 61.988281 78.558594 L 74.144531 87.347656 C 90.171875 65.175781 116.046875 51.9375 143.363281 51.9375 Z M 143.363281 51.9375 " style=" stroke:none;fill-rule:nonzero;fill:rgb(0%,0%,0%);fill-opacity:1;" />
<path d="M 224.738281 196.03125 L 212.585938 187.242188 C 196.558594 209.414062 170.679688 222.652344 143.363281 222.652344 C 116.046875 222.652344 90.171875 209.414062 74.144531 187.242188 L 61.988281 196.03125 C 80.828125 222.09375 111.246094 237.652344 143.363281 237.652344 C 175.480469 237.652344 205.902344 222.09375 224.738281 196.03125 Z M 224.738281 196.03125 " style=" stroke:none;fill-rule:nonzero;fill:rgb(0%,0%,0%);fill-opacity:1;" />
<path d="M 143.363281 156.175781 C 138.316406 156.175781 133.570312 154.214844 130.007812 150.652344 L 140.613281 140.046875 C 141.601562 141.03125 142.761719 141.179688 143.363281 141.179688 C 143.96875 141.179688 145.125 141.03125 146.113281 140.046875 C 147.628906 138.527344 147.628906 136.0625 146.113281 134.546875 C 145.125 133.5625 143.96875 133.414062 143.363281 133.414062 C 142.761719 133.414062 141.601562 133.5625 140.613281 134.546875 L 130.007812 123.941406 C 133.570312 120.378906 138.316406 118.414062 143.363281 118.414062 C 148.410156 118.414062 153.15625 120.378906 156.71875 123.941406 C 160.28125 127.507812 162.246094 132.25 162.246094 137.296875 C 162.246094 142.34375 160.28125 147.089844 156.71875 150.652344 C 153.15625 154.214844 148.410156 156.175781 143.363281 156.175781 Z M 143.363281 156.175781 " style=" stroke:none;fill-rule:nonzero;fill:rgb(100%,100%,100%);fill-opacity:1;" />
<path d="M 40 487.332031 L 25 487.332031 L 25 444.332031 L 40 444.332031 Z M 40 434.332031 L 25 434.332031 L 25 419.332031 L 40 419.332031 Z M 40 409.332031 L 25 409.332031 L 25 394.332031 L 40 394.332031 Z M 40 409.332031 " style=" stroke:none;fill-rule:nonzero;fill:rgb(100%,100%,100%);fill-opacity:1;" />
<path d="M 284.132812 162.066406 C 284.132812 126.75 268.78125 93.15625 242.019531 69.90625 L 251.859375 58.585938 C 281.898438 84.683594 299.132812 122.402344 299.132812 162.066406 Z M 234.675781 64.003906 C 230.902344 61.203125 226.929688 58.59375 222.867188 56.25 L 230.363281 43.257812 C 234.921875 45.886719 239.382812 48.816406 243.617188 51.960938 Z M 214.535156 51.863281 C 210.296875 49.835938 205.898438 48.039062 201.460938 46.519531 L 206.316406 32.328125 C 211.300781 34.035156 216.242188 36.050781 221.007812 38.328125 Z M 214.535156 51.863281 " style=" stroke:none;fill-rule:nonzero;fill:rgb(100%,100%,100%);fill-opacity:1;" />
</g>
</svg>