<svg id="Capa_1" enable-background="new 0 0 512.001 512.001" height="512" viewBox="0 0 512.001 512.001" width="512" xmlns="http://www.w3.org/2000/svg"><g><g><circle cx="256" cy="321.727" fill="#d98964" r="149.878"/></g><g><path d="m368.636 318.122c-.008-.01-37.276-45.445-112.636-45.445-75.368 0-112.636 45.445-112.636 45.445s37.268 45.445 112.636 45.445c75.36 0 112.628-45.436 112.636-45.445z" fill="#f9f5f3"/></g><g><ellipse cx="256" cy="318.122" fill="#ff5c7f" rx="45.596" ry="45.445"/></g><g><path d="m88.052 91.055c-47.372-26.339-69.77-56.276-69.978-56.558-3.262-4.46-9.518-5.432-13.975-2.172-4.459 3.26-5.431 9.517-2.172 13.975.994 1.359 24.922 33.61 76.406 62.236 1.539.855 3.206 1.262 4.851 1.262 3.513 0 6.921-1.854 8.749-5.143 2.684-4.827.947-10.915-3.881-13.6z"/><path d="m507.902 32.325c-4.457-3.259-10.714-2.287-13.975 2.172-.174.238-17.852 24.097-55.826 48.154-34.009 21.544-91.05 47.05-172.102 49.013-.005-5.518-4.48-9.991-10-9.991-5.522 0-10 4.477-10 9.999-26.944-.647-52.979-3.906-77.523-9.729-5.365-1.271-10.763 2.049-12.038 7.423-1.274 5.373 2.049 10.763 7.423 12.038 26.044 6.177 53.631 9.618 82.139 10.271v10.496c-83.109 5.155-149.878 76.36-149.878 159.556 0 63.39 37.083 118.28 90.694 144.12.358.206.726.4 1.117.565.135.057.271.098.407.148 20.56 9.644 43.49 15.045 67.661 15.045 24.169 0 47.097-5.401 67.656-15.044.137-.051.276-.092.412-.15.392-.165.761-.359 1.12-.567 53.609-25.841 90.689-80.73 90.689-144.118 0-19.879-3.614-39.294-10.742-57.704-1.993-5.151-7.787-7.71-12.936-5.715-5.15 1.994-7.709 7.785-5.715 12.936 6.232 16.099 9.393 33.083 9.393 50.483 0 51.988-28.511 97.438-70.716 121.548l-20.33-48.192c-2.147-5.09-8.017-7.473-13.101-5.327-5.089 2.146-7.474 8.012-5.327 13.101l20.705 49.081c-15.839 6.239-33.081 9.668-51.109 9.668s-35.269-3.43-51.108-9.668l20.705-49.081c2.146-5.089-.238-10.954-5.327-13.101-5.087-2.145-10.953.237-13.101 5.327l-20.33 48.193c-42.205-24.109-70.717-69.56-70.717-121.548 0-53.03 29.664-99.263 73.269-122.976l17.738 43.313c2.066 5.045 8.001 7.529 13.044 5.464 5.11-2.093 7.557-7.933 5.464-13.044l-18.021-44.004c15.085-5.579 31.384-8.631 48.384-8.631 16.72 0 33.039 2.94 48.396 8.605l-18.031 44.03c-2.093 5.111.354 10.951 5.464 13.044 5.043 2.063 10.977-.418 13.044-5.464l17.755-43.357c4.774 2.595 9.42 5.477 13.912 8.646 4.514 3.186 10.753 2.106 13.936-2.406 3.184-4.513 2.106-10.752-2.406-13.936-24.312-17.153-52.503-27.031-82.068-28.85v-10.49c85.871-1.982 146.569-29.17 182.805-52.126 41.145-26.065 60.467-52.148 61.27-53.246 3.256-4.458 2.284-10.715-2.175-13.974z"/><path d="m376.445 324.369c2.922-3.652 2.922-8.842 0-12.494-.394-.492-40.286-49.198-120.445-49.198-79.189 0-118.724 47.1-120.368 49.104-3.023 3.687-3.023 8.995 0 12.682 1.645 2.005 41.18 49.104 120.368 49.104 80.159 0 120.052-48.706 120.445-49.198zm-84.849-6.247c0 19.545-15.969 35.445-35.597 35.445s-35.596-15.9-35.596-35.445 15.968-35.445 35.596-35.445 35.597 15.9 35.597 35.445zm-134.163 0c4.395-3.973 11.052-9.324 19.932-14.63 9.732-5.815 20.063-10.408 30.924-13.794-5.001 8.318-7.885 18.04-7.885 28.424s2.883 20.107 7.885 28.424c-10.861-3.387-21.192-7.979-30.924-13.794-8.882-5.307-15.54-10.661-19.932-14.63zm177.193 14.635c-9.729 5.812-20.056 10.403-30.914 13.788 5.001-8.318 7.885-18.04 7.885-28.424s-2.883-20.106-7.885-28.424c10.858 3.386 21.185 7.976 30.914 13.788 8.884 5.308 15.545 10.661 19.94 14.636-4.395 3.975-11.056 9.329-19.94 14.636z"/><path d="m266 229.574v-14.382c0-5.522-4.478-10-10-10s-10 4.478-10 10v14.382c0 5.522 4.478 10 10 10s10-4.478 10-10z"/><path d="m246 407.67v14.381c0 5.522 4.478 10 10 10s10-4.478 10-10v-14.381c0-5.522-4.478-10-10-10s-10 4.478-10 10z"/><path d="m381.36 236.761c6.352-6.207 1.457-17.286-7.31-17.069-9.269.23-13.214 12.51-5.714 18.028 3.937 2.898 9.56 2.505 13.024-.959z"/><path d="m112.911 121.761c1.636 3.925 5.718 6.476 9.973 6.148 4.175-.322 7.768-3.27 8.892-7.304 2.367-8.497-7.179-15.789-14.764-11.244-4.192 2.512-5.984 7.884-4.101 12.4z"/></g></g></svg>