<?xml version="1.0" encoding="iso-8859-1"?>
<!-- Generator: Adobe Illustrator 19.0.0, SVG Export Plug-In . SVG Version: 6.00 Build 0)  -->
<svg version="1.1" id="Capa_1" xmlns="http://www.w3.org/2000/svg" xmlns:xlink="http://www.w3.org/1999/xlink" x="0px" y="0px"
	 viewBox="0 0 512.157 512.157" style="enable-background:new 0 0 512.157 512.157;" xml:space="preserve">
<g transform="translate(-1 -1)">
	<g transform="translate(1 1)">
		<path style="fill:#37474F;" d="M461.616,246.003c-14.933,81.067-45.141,119.808-56.235,146.432l0.085,0.256
			c0,25.6,30.465,102.4,42.667,110.933H234.799c-1.306-17.671-7.123-34.712-16.896-49.493l-0.341-0.939
			c-7.083,2.475-14.335,4.779-21.504,6.741c-28.33,7.765-55.723,11.435-69.29,8.619c-0.085,0.085-0.085,0.085-0.171,0
			c-0.952-0.168-1.893-0.396-2.817-0.683c-26.113-8.533-17.408-25.6-17.408-42.667c0-17.067-8.704-8.533-17.408-17.067
			c-8.704-8.533,8.704-17.067,8.704-17.067c-17.407,0-17.407,0-17.407-25.6c0.034-4.596-1.8-9.009-5.082-12.227
			s-7.731-4.965-12.326-4.839c-43.435-8.533,16.384-45.312,17.408-85.333c0.222-8.631-0.61-17.256-2.476-25.685
			c-1.28-6.4-2.987-12.288-4.436-18.347c-1.69-6.517-2.804-13.17-3.329-19.883c-0.622-14.181,0.961-28.374,4.693-42.069
			C92.549,84.979,148.356,34.803,219.78,15.688c13.679-3.618,27.687-5.848,41.813-6.656c40.529-2.827,80.99,6.375,116.309,26.453
			C447.877,77.384,475.866,168.776,461.616,246.003z"/>
		<path style="fill:#607D8B;" d="M436.016,246.003c-14.933,81.067-45.141,119.808-56.235,146.432l0.085,0.256
			c0,25.6,30.465,102.4,42.667,110.933H234.799c-1.306-17.671-7.123-34.712-16.896-49.493l-0.341-0.939
			c-7.083,2.475-14.335,4.779-21.504,6.741c-1.144-2.002-2.398-3.939-3.755-5.803l-0.341-0.939
			c-21.101,7.501-42.964,12.652-65.194,15.36c-0.085,0.085-0.085,0.085-0.171,0c-0.952-0.168-1.893-0.396-2.817-0.683
			c-26.113-8.533-17.408-25.6-17.408-42.667c0-17.067-8.704-8.533-17.408-17.067c-8.704-8.533,8.704-17.067,8.704-17.067
			c-17.407,0-17.407,0-17.407-25.6c0.034-4.596-1.8-9.009-5.082-12.227c-3.282-3.218-7.731-4.965-12.326-4.839
			c-43.435-8.533,16.384-45.312,17.408-85.333c0.222-8.631-0.61-17.256-2.476-25.685c-1.28-6.4-2.987-12.288-4.436-18.347
			c-1.69-6.517-2.804-13.17-3.329-19.883c-0.622-14.181,0.961-28.374,4.693-42.069C92.549,84.979,148.356,34.803,219.78,15.688
			c13.679-3.618,27.687-5.848,41.813-6.656c31.916,1.44,63.022,10.512,90.709,26.453
			C422.277,77.384,450.266,168.776,436.016,246.003z"/>
		<g>
			<circle style="fill:#FFEB3A;" cx="268.933" cy="59.891" r="17.067"/>
			<circle style="fill:#FFEB3A;" cx="243.333" cy="136.691" r="17.067"/>
			<circle style="fill:#FFEB3A;" cx="311.599" cy="136.691" r="17.067"/>
			<circle style="fill:#FFEB3A;" cx="354.266" cy="204.957" r="17.067"/>
			<circle style="fill:#FFEB3A;" cx="192.133" cy="76.957" r="17.067"/>
			<circle style="fill:#FFEB3A;" cx="157.999" cy="136.691" r="17.067"/>
			<circle style="fill:#FFEB3A;" cx="183.599" cy="213.491" r="17.067"/>
			<circle style="fill:#FFEB3A;" cx="277.466" cy="213.491" r="17.067"/>
			<circle style="fill:#FFEB3A;" cx="413.999" cy="187.891" r="17.067"/>
			<circle style="fill:#FFEB3A;" cx="388.399" cy="119.624" r="17.067"/>
			<circle style="fill:#FFEB3A;" cx="337.199" cy="76.957" r="17.067"/>
			<circle style="fill:#FFEB3A;" cx="328.666" cy="298.824" r="17.067"/>
			<circle style="fill:#FFEB3A;" cx="388.399" cy="264.691" r="17.067"/>
		</g>
	</g>
	<g>
		<path d="M40.899,344.112c4.508,7.713,12.442,12.795,21.333,13.667c0.512,0.092,1.03,0.145,1.55,0.158
			c2.376-0.291,4.758,0.497,6.491,2.149c1.733,1.652,2.635,3.993,2.459,6.38c0,17.733,0.442,26.883,7.767,31.079
			c-0.639,1.334-1.085,2.753-1.325,4.212c-0.736,5.006,1.067,10.049,4.808,13.454c3.72,3.603,8.434,6.009,13.533,6.908
			c0.358,0.083,0.7,0.146,1.033,0.225c0.202,1.269,0.291,2.553,0.267,3.838c-0.061,3.173-0.286,6.342-0.675,9.492
			c-1.417,13.65-3.358,32.346,23.95,41.271c5.481,1.532,11.162,2.223,16.85,2.05c25.858-1.148,51.413-6.047,75.863-14.542
			c7.059,12.31,11.315,26.027,12.462,40.171c-0.001,2.263,0.898,4.434,2.499,6.035c1.6,1.6,3.771,2.499,6.035,2.499h213.333
			c3.649-0.045,6.86-2.422,7.967-5.9c1.122-3.526-0.1-7.376-3.05-9.609c-8.829-6.704-38.068-77.335-38.967-102.705
			c2.577-5.851,6.029-12.421,10.117-20.053c22.26-39.229,37.741-81.932,45.792-126.313c13.333-72.417-8.433-171.963-87.742-219.4
			C333.158,1.078,274.075-6.357,218.583,8.457C141.716,29.011,85.216,84.17,67.449,156.003c-3.961,14.57-5.64,29.666-4.975,44.75
			c0.851,9.359,2.578,18.618,5.159,27.654c3.473,11.5,5.193,23.458,5.1,35.471c-0.358,14.3-10.208,29.138-18.908,42.229
			C44.341,320.395,36.149,332.732,40.899,344.112z M68.049,315.549c9.475-14.267,21.267-32.025,21.75-51.237
			c0.239-10.661-0.947-21.306-3.527-31.653c9.305-8.188,20.286-14.244,32.177-17.743c4.237-0.74,8.591-0.435,12.683,0.887
			c4.543,1.252,9.24-1.416,10.492-5.958c1.252-4.543-1.416-9.24-5.958-10.492c-6.72-2.068-13.844-2.458-20.75-1.137
			c-12.059,3.072-23.329,8.669-33.065,16.421c-1.166-4.971-1.955-10.023-2.36-15.113c-0.578-13.298,0.949-26.604,4.525-39.425
			c16.5-66.688,67.15-115.95,138.983-135.159c51.027-13.685,105.38-6.908,151.484,18.888
			c72.325,43.254,92.025,134.854,79.725,201.658c-7.669,42.662-22.567,83.702-44.05,121.35c-4.692,8.754-8.742,16.313-11.667,23.308
			c-0.495,1.251-0.68,2.603-0.538,3.941c0.217,20.408,18.615,74.332,34.421,102.005H243.61
			c-2.125-13.075-6.361-25.717-12.543-37.432c24.724-9.69,46.503-22.149,56.957-35.822c2.845-3.747,2.123-9.09-1.616-11.946
			c-3.738-2.857-9.083-2.15-11.951,1.579c-24.15,31.6-124.633,55.592-147.067,48.254c-14.208-4.646-13.642-10.1-12.275-23.283
			c0.453-3.737,0.709-7.495,0.767-11.258c0-14.379-5.8-18.671-14.517-20.692c-1.645-0.235-3.216-0.842-4.592-1.775
			c1.675-1.601,3.576-2.947,5.642-3.996c3.562-1.75,5.448-5.724,4.55-9.59s-4.34-6.603-8.309-6.606c-3.083,0-6.508,0-8.308-0.225
			c-0.542-5.594-0.726-11.216-0.55-16.833c0.167-6.729-2.391-13.24-7.093-18.056s-11.151-7.529-17.882-7.523
			c-6.15-1.296-8.017-2.963-8.175-3.35C55.408,334.574,63.633,322.199,68.049,315.549z"/>
		<path d="M166.621,196.302c-7.516,7.378-9.735,18.613-5.589,28.295c4.146,9.682,13.808,15.829,24.334,15.481
			c10.527-0.348,19.762-7.118,23.26-17.053h45.813c3.825,11.766,15.761,18.89,27.932,16.672l28.329,43.091
			c-7.268,8.058-8.649,19.828-3.445,29.35c5.204,9.521,15.858,14.714,26.564,12.947c10.706-1.767,19.126-10.107,20.995-20.796
			l21.147-16.903c4.024,2.537,8.681,3.891,13.438,3.907c13.22,0.011,24.27-10.053,25.491-23.216
			c1.221-13.163-7.79-25.088-20.787-27.508l-16.341-22.651c1.002-1.848,1.77-3.814,2.287-5.853l15.825-6.328
			c7.309,8.32,19.147,10.982,29.313,6.59c10.166-4.391,16.344-14.834,15.298-25.859c-1.047-11.025-9.08-20.118-19.891-22.518
			l-12.82-25.573c8.993-9.163,9.77-23.584,1.812-33.659s-22.166-12.662-33.163-6.036l-14.296-11.869
			c1.082-2.828,1.648-5.826,1.672-8.854c0.023-10.455-6.328-19.869-16.031-23.762s-20.8-1.481-28.01,6.09l-25.299-6.324
			c-3.03-10.974-12.982-18.6-24.367-18.669c-11.385-0.069-21.429,7.435-24.592,18.371l-33.81,6.762
			c-8.819-9.51-23.375-10.877-33.81-3.175s-13.418,22.014-6.93,33.244l-16.567,22.063c-11.872,2.146-20.62,12.311-20.973,24.37
			c-0.353,12.059,7.786,22.718,19.512,25.555L166.621,196.302z M193.133,103.557c2.395-0.035,4.772-0.41,7.061-1.115l26.347,16.905
			c-2.804,2.747-4.938,6.104-6.235,9.809h-37.279c-1.863-5.282-5.405-9.809-10.085-12.886l10.904-14.521
			C186.8,102.93,189.951,103.543,193.133,103.557z M271.624,91.72l25.62,25.617c-3.983,3.009-6.998,7.118-8.672,11.82H268.36
			c-2.015-5.65-5.953-10.411-11.125-13.451L271.624,91.72z M337.032,144.919l33.81-6.762c0.538,0.569,1.125,1.075,1.712,1.593
			l-15.77,39.428l-27.643-22.114C332.893,153.864,335.633,149.645,337.032,144.919L337.032,144.919z M363.799,265.691
			c0.031,2.851,0.544,5.676,1.517,8.356l-14.405,11.515c-5.386-8.413-15.323-12.737-25.15-10.943l-28.329-43.091
			c2.531-2.822,4.399-6.173,5.468-9.809l28.806-5.761c5.492,12.971,20.439,19.057,33.429,13.611l10.527,14.592
			C368.288,248.839,363.814,256.958,363.799,265.691z M204.733,198.867l41.909-34.924l14.271,32.008
			c-2.917,2.778-5.135,6.207-6.474,10.007h-45.813C207.715,203.401,206.401,201.008,204.733,198.867z M288.572,146.224
			c2.015,5.65,5.953,10.411,11.125,13.45l-17.742,29.569c-1.153-0.198-2.319-0.316-3.489-0.353c-0.661,0-1.282,0.146-1.931,0.195
			l-14.649-32.855c2.917-2.778,5.135-6.207,6.474-10.007H288.572z M355.266,197.424c1.056,0.013,2.099,0.224,3.077,0.622
			l0.073,0.048c0.077,0.031,0.158,0.018,0.235,0.046c3.991,1.752,6.012,6.238,4.678,10.388c-1.334,4.15-5.59,6.618-9.855,5.716
			s-7.155-4.884-6.694-9.219C347.242,200.691,350.907,197.408,355.266,197.424z M330.833,198.73l-28.806,5.761
			c-1.187-2.727-2.839-5.226-4.883-7.386l17.748-29.584l23.831,19.065C334.973,189.785,332.232,194.003,330.833,198.73z
			 M252.866,137.691c0,4.713-3.821,8.533-8.533,8.533c-4.713,0-8.533-3.821-8.533-8.533c0-4.713,3.821-8.533,8.533-8.533
			C249.044,129.162,252.861,132.98,252.866,137.691z M321.133,137.691c0,4.713-3.821,8.533-8.533,8.533
			c-4.713,0-8.533-3.821-8.533-8.533c0-4.713,3.821-8.533,8.533-8.533C317.31,129.162,321.128,132.98,321.133,137.691z
			 M170.505,160.433c5.839-2.959,10.32-8.045,12.522-14.209h37.279c1.537,4.298,4.198,8.105,7.706,11.024l-38.559,32.133
			c-1.598-0.318-3.223-0.482-4.853-0.491c-0.845,0-1.643,0.169-2.467,0.25L170.505,160.433z M184.599,223.024
			c-4.713,0-8.533-3.821-8.533-8.533c0-4.713,3.821-8.533,8.533-8.533c4.713,0,8.533,3.821,8.533,8.533
			C193.128,219.202,189.31,223.019,184.599,223.024z M269.933,214.491c0-4.713,3.821-8.533,8.533-8.533
			c4.713,0,8.533,3.821,8.533,8.533c0,4.713-3.821,8.533-8.533,8.533C273.755,223.019,269.937,219.202,269.933,214.491z
			 M329.666,308.357c-4.713,0-8.533-3.82-8.533-8.533s3.82-8.533,8.533-8.533s8.533,3.82,8.533,8.533
			C338.195,304.535,334.377,308.353,329.666,308.357z M389.399,274.224c-4.713,0-8.533-3.82-8.533-8.533s3.82-8.533,8.533-8.533
			s8.533,3.82,8.533,8.533C397.928,270.402,394.11,274.219,389.399,274.224z M378.029,194.488c-1.468-2.905-3.477-5.504-5.919-7.657
			l16.283-40.709c0.341,0.014,0.662,0.102,1.007,0.102c1.028-0.04,2.053-0.144,3.069-0.31l10.332,20.611
			c-8.226,4.438-13.368,13.019-13.401,22.366c0,0.346,0.089,0.667,0.102,1.01L378.029,194.488z M414.999,197.424
			c-3.397-0.007-6.466-2.028-7.815-5.146c-0.029-0.078-0.013-0.159-0.044-0.237l-0.054-0.083c-0.397-0.975-0.608-2.015-0.621-3.067
			c0-4.713,3.82-8.533,8.533-8.533s8.533,3.821,8.533,8.533S419.712,197.424,414.999,197.424z M397.933,120.624
			c-0.005,4.711-3.822,8.529-8.533,8.533c-1.056-0.013-2.099-0.224-3.077-0.622l-0.073-0.048c-0.075-0.03-0.154-0.014-0.231-0.043
			c-3.912-1.693-5.973-6.016-4.826-10.121s5.151-6.733,9.374-6.153C394.79,112.75,397.936,116.361,397.933,120.624z M338.199,69.424
			c4.713,0,8.533,3.821,8.533,8.533s-3.821,8.533-8.533,8.533s-8.533-3.821-8.533-8.533
			C329.671,73.246,333.488,69.429,338.199,69.424z M338.199,103.557c4.576-0.024,9.061-1.287,12.976-3.656l14.297,11.869
			c-1.082,2.828-1.649,5.826-1.673,8.854c0,0.516,0.123,0.999,0.152,1.508l-27.792,5.558c-3.485-8.112-10.903-13.857-19.629-15.202
			l-31.244-31.243c3.469-2.599,6.224-6.034,8.006-9.985l19.491,4.873c-0.045,0.614-0.184,1.2-0.184,1.825
			C312.615,92.089,324.067,103.542,338.199,103.557z M269.933,52.357c4.713,0,8.533,3.821,8.533,8.533s-3.82,8.533-8.533,8.533
			s-8.533-3.821-8.533-8.533C261.404,56.18,265.222,52.362,269.933,52.357z M246.372,70.891c2.181,5.03,5.917,9.23,10.658,11.983
			l-15.49,25.817L214.763,91.51c2.58-4.051,3.956-8.751,3.97-13.553c0-0.516-0.123-0.999-0.152-1.508L246.372,70.891z
			 M193.133,69.424c4.713,0,8.533,3.821,8.533,8.533s-3.821,8.533-8.533,8.533s-8.533-3.821-8.533-8.533
			C184.604,73.246,188.422,69.429,193.133,69.424z M158.999,129.157c4.713,0,8.533,3.821,8.533,8.533
			c0,4.713-3.82,8.533-8.533,8.533s-8.533-3.821-8.533-8.533C150.471,132.98,154.288,129.162,158.999,129.157z"/>
	</g>
</g>
<g>
</g>
<g>
</g>
<g>
</g>
<g>
</g>
<g>
</g>
<g>
</g>
<g>
</g>
<g>
</g>
<g>
</g>
<g>
</g>
<g>
</g>
<g>
</g>
<g>
</g>
<g>
</g>
<g>
</g>
</svg>
