<?xml version="1.0" encoding="iso-8859-1"?>
<!-- Generator: Adobe Illustrator 21.0.0, SVG Export Plug-In . SVG Version: 6.00 Build 0)  -->
<svg xmlns="http://www.w3.org/2000/svg" xmlns:xlink="http://www.w3.org/1999/xlink" version="1.1" id="Capa_1" x="0px" y="0px" viewBox="0 0 512.006 512.006" style="enable-background:new 0 0 512.006 512.006;" xml:space="preserve" width="512" height="512">
<g>
	<path style="fill:#AAAAAA;" d="M148.231,232.606c38.067,31.059,88.37,44.975,138.049,12.621   C208.589,223.283,175.13,118.188,175.13,118.188c-32.22,52.698-26.899,114.411-26.899,114.411L148.231,232.606z"/>
	<g>
		<path style="fill:#E0E0E0;" d="M426.203,274.279l-38.962-7.663c0,0-34.799-64.477-100.961-21.389    C187.408,309.619,86.06,190.745,83.628,118.188c0,0-93.744,161.376,59.44,265.852c0,0-68.711,13.984-128.319-4.941    c0,0-3.689,70.998,44.818,125.407c0,0,66.736-80.725,130.069-76.94c63.333,3.785,132.284-3.443,166.907-63.562    C380.767,321.943,426.203,274.279,426.203,274.279z"/>
	</g>
	<path style="fill:#999999;" d="M286.281,245.227c-10.553-2.981-20.283-7.505-29.231-13.082   c-39.592,12.264-77.965-1.483-108.509-26.286c-1.22,16.148-0.309,26.74-0.309,26.74l0,0.007   C186.299,263.664,236.601,277.581,286.281,245.227z"/>
	<g>
		<path style="fill:#C4C4C4;" d="M395.475,268.235c-15.347,17.405-40.24,47.287-56.072,74.778    c-34.623,60.119-103.574,67.347-166.907,63.562c-59.424-3.551-121.842,67.294-129.321,76.054    c4.666,7.444,10.084,14.801,16.392,21.877c0,0,66.736-80.725,130.069-76.94c63.333,3.785,132.284-3.443,166.907-63.562    c24.224-42.062,69.66-89.725,69.66-89.725L395.475,268.235z"/>
	</g>
	<path style="fill:#45BF7F;" d="M360.348,33.86c14.099,21.38,6.797,51.065,6.797,51.065s-30.161-4.98-44.26-26.36   C308.785,37.184,316.088,7.5,316.088,7.5S346.249,12.479,360.348,33.86z"/>
	<path style="fill:#45BF7F;" d="M384.668,168.72c24.212,8.346,36.529,36.324,36.529,36.324s-26.94,14.448-51.152,6.102   c-24.212-8.346-36.529-36.324-36.529-36.324S360.455,160.374,384.668,168.72z"/>
	<path style="fill:#45BF7F;" d="M405.537,94.028c-12.753,22.21-3.632,51.387-3.632,51.387s29.796-6.831,42.549-29.041   c12.753-22.209,3.633-51.387,3.633-51.387S418.29,71.819,405.537,94.028z"/>
	<path style="fill:#45BF7F;" d="M447.524,205.76c-19.445,16.667-20.606,47.214-20.606,47.214s30.366,3.525,49.811-13.142   c19.445-16.667,20.606-47.214,20.606-47.214S466.969,189.094,447.524,205.76z"/>
	<path style="fill:#00B76C;" d="M322.884,58.564c14.099,21.38,44.26,26.36,44.26,26.36L316.088,7.5   C316.088,7.5,308.785,37.184,322.884,58.564z"/>
	<path style="fill:#00B76C;" d="M370.044,211.146c24.213,8.346,51.152-6.102,51.152-6.102l-87.681-30.222   C333.515,174.822,345.832,202.8,370.044,211.146z"/>
	<path style="fill:#00B76C;" d="M444.454,116.374c12.753-22.209,3.633-51.387,3.633-51.387l-46.182,80.428   C401.905,145.415,431.701,138.584,444.454,116.374z"/>
	<path style="fill:#00B76C;" d="M476.729,239.833c19.445-16.667,20.606-47.214,20.606-47.214l-70.417,60.356   C426.918,252.975,457.284,256.5,476.729,239.833z"/>
	<g>
		<path d="M94.63,460c-15.769,12.81-28.11,25.529-34.941,33.012C28.964,454.37,23.32,408.62,22.373,389.092    c58.068,15.022,119.462,2.854,122.19,2.298c2.954-0.601,5.261-2.912,5.856-5.867c0.596-2.955-0.636-5.979-3.126-7.678    c-58.731-40.056-87.122-93.106-84.383-157.676c0.176-4.139-3.037-7.636-7.175-7.811c-4.142-0.2-7.636,3.037-7.811,7.175    c-1.313,30.962,4.192,60.033,16.363,86.403c12.705,27.526,32.725,52.142,59.634,73.363c-23.775,2.742-67.636,5.119-106.903-7.348    c-2.215-0.703-4.63-0.34-6.54,0.983c-1.91,1.323-3.099,3.456-3.22,5.776c-0.157,3.025-3.274,74.722,46.71,130.787    c1.424,1.598,3.462,2.508,5.599,2.508c0.046,0,0.092,0,0.138-0.001c2.186-0.04,4.246-1.033,5.641-2.717    c0.156-0.188,15.874-19.068,38.742-37.645c3.215-2.612,3.704-7.335,1.092-10.55C102.568,457.877,97.845,457.388,94.63,460z"/>
		<path d="M343.542,279.296c0-7.84-6.378-14.218-14.218-14.218c-7.84,0-14.218,6.378-14.218,14.218    c0,7.84,6.378,14.218,14.218,14.218C337.163,293.514,343.542,287.135,343.542,279.296z"/>
		<path d="M498.199,185.168c-1.372-0.158-33.871-3.689-55.557,14.898c-4.929,4.225-8.805,9.179-11.867,14.325    c-2.845-16.732-7.342-33.677-13.484-50.68c-1.694-4.691-3.456-9.228-5.256-13.602c10.754-3.941,29.062-12.827,38.922-29.999    c14.222-24.768,4.699-56.04,4.287-57.359c-1.169-3.739-5.021-5.948-8.834-5.073c-1.347,0.309-33.156,7.849-47.377,32.617v0    c-3.599,6.268-5.674,12.952-6.764,19.463c-7.5-13.094-13.925-22.301-17.112-26.655c1.601-9.191,4.275-33.924-8.548-53.37    C350.886,5.887,318.673,0.325,317.309,0.1c-3.863-0.633-7.569,1.805-8.504,5.608c-0.33,1.342-7.905,33.142,7.818,56.985    c13.088,19.847,37.587,27.023,46.223,29.002c5.761,7.892,25.958,37.11,40.496,77.546c0.212,0.59,0.41,1.18,0.618,1.77    c-4.868-3.838-10.474-7.185-16.848-9.382c-27.002-9.308-55.923,5.931-57.141,6.584c-3.451,1.851-4.897,6.046-3.319,9.631    c0.557,1.265,13.948,31.086,40.949,40.393c6.287,2.167,12.674,3.003,18.796,3.003c11.617,0,22.255-3.013,29.374-5.665    c2.077,11.832,3.272,23.536,3.572,35.052c0.128,4.912,0.072,9.789-0.127,14.636l-27.268-5.364    c-5.109-7.963-20.436-28.514-45.999-35.022c-19.203-4.889-39.626-0.789-60.751,12.171c-10.79-3.44-21.301-8.809-31.283-16.034    c-3.356-2.429-8.044-1.677-10.473,1.678c-2.429,3.355-1.677,8.044,1.678,10.473c7.491,5.422,15.272,9.932,23.259,13.504    c-35.988,17.015-68.465,8.159-90.357-3.238c-7.693-4.005-15.234-8.934-22.49-14.614c-0.453-11.535-0.54-52.973,18.382-92.646    c7.711,18.458,23.149,49.833,47.675,76.062c2.828,3.025,7.575,3.185,10.601,0.355c3.025-2.829,3.185-7.575,0.355-10.601    c-34.186-36.56-50.113-85.585-50.269-86.073c-1.908-5.992-10.257-7.015-13.545-1.637c-22.817,37.319-27.579,78.429-28.262,101.236    c-8.751-8.683-16.84-18.484-23.939-29.119c-15.464-23.167-24.725-48.119-25.407-68.457c-0.109-3.253-2.389-6.131-5.529-6.984    c-3.24-0.881-6.765,0.565-8.452,3.469c-0.73,1.257-17.97,31.273-25.733,74.176c-0.728,4.023,2.023,7.986,6.044,8.715    c4.022,0.729,7.988-2.022,8.715-6.044c3.467-19.159,9.035-35.741,13.929-47.879c4.536,16.783,12.77,34.574,23.956,51.333    c17.885,26.793,41.693,48.816,67.041,62.013c14.978,7.798,34.287,14.561,56.219,14.56c19.371-0.001,40.791-5.279,63.06-19.782    c18.491-12.042,35.902-16.126,51.751-12.131c24.865,6.263,38.393,30.569,38.518,30.797c1.064,1.972,2.954,3.365,5.153,3.797    l25.817,5.078c-14.692,16.321-43.583,49.98-61.568,81.208c-14.895,25.863-37.251,42.972-68.345,52.305    c-24.622,7.39-53.738,9.776-91.617,7.514c-20.884-1.244-43.967,5.736-68.568,20.759c-3.215,1.964-4.486,6.158-2.888,9.573    c1.868,3.992,6.937,5.53,10.706,3.229c21.936-13.396,42.072-19.65,59.855-18.587c56.061,3.351,135.082,0.019,173.854-67.306    c14.511-25.197,37.104-52.783,52.359-70.3c-3.186,15.999-8.252,31.521-15.202,46.442c-1.615,3.466-0.287,7.711,3.013,9.641    c3.766,2.202,8.746,0.639,10.584-3.307c11.069-23.764,17.706-48.927,19.848-75.074c0.019-0.166,0.027-0.332,0.036-0.499    c0.366-4.591,0.588-9.212,0.676-13.861c11.349-0.053,31.982-2.171,47.255-15.263c21.685-18.586,23.167-51.243,23.22-52.624    C504.978,188.989,502.09,185.62,498.199,185.168z M412.041,97.763C412.041,97.763,412.041,97.763,412.041,97.763    c7.361-12.82,21.825-19.901,30.547-23.173c1.585,9.16,2.762,25.161-4.639,38.05c-7.361,12.819-21.825,19.901-30.547,23.172    C405.818,126.653,404.64,110.652,412.041,97.763z M372.488,204.055c-13.964-4.813-23.636-17.669-28.495-25.621    c8.732-3.272,24.268-7.438,38.231-2.624c13.964,4.813,23.636,17.669,28.495,25.622    C401.988,204.703,386.45,208.867,372.488,204.055z M329.145,54.436c-8.138-12.341-7.956-28.444-6.954-37.706    c8.894,2.705,23.713,8.851,31.896,21.259c8.131,12.331,7.956,28.418,6.957,37.683C352.128,72.94,337.275,66.764,329.145,54.436z     M471.848,234.138c-11.224,9.62-27.223,11.458-36.538,11.624c1.57-9.163,5.81-24.636,17.095-34.308    c11.215-9.612,27.197-11.455,36.515-11.624C487.326,209.018,483.061,224.528,471.848,234.138z"/>
	</g>
</g>















</svg>
