<?xml version="1.0" encoding="iso-8859-1"?>
<!-- Generator: Adobe Illustrator 19.0.0, SVG Export Plug-In . SVG Version: 6.00 Build 0)  -->
<svg version="1.1" id="Layer_1" xmlns="http://www.w3.org/2000/svg" xmlns:xlink="http://www.w3.org/1999/xlink" x="0px" y="0px"
	 viewBox="0 0 511.999 511.999" style="enable-background:new 0 0 511.999 511.999;" xml:space="preserve">
<g>
	<path style="fill:#999999;" d="M71.84,10.044l38.16,116.412c0,0-57.638,46.836-57.638,115.711V35.431
		C52.361,22.103,61.242,12.907,71.84,10.044z"/>
	<path style="fill:#999999;" d="M459.647,35.431v206.736c0-68.876-57.638-115.711-57.638-115.711l38.16-116.412
		C450.765,12.907,459.647,22.103,459.647,35.431z"/>
</g>
<path style="fill:#F95428;" d="M296.339,443.756c-2.356,0.483-4.725,0.918-7.105,1.305v24.65c0,1.365-0.085,2.719-0.254,4.048
	c-0.906,7.564-4.374,14.331-9.486,19.442c-6.018,6.018-14.319,9.739-23.49,9.739c-17.412,0-31.695-13.401-33.109-30.45
	c-0.085-0.918-0.121-1.837-0.121-2.779v-24.674c-2.912-0.483-5.8-1.027-8.664-1.631c13.449-5.208,24.699-14.875,31.912-27.176
	c2.828,0.689,5.752,1.063,8.748,1.063c2.997,0,5.921-0.375,8.748-1.063C270.903,428.809,282.479,438.62,296.339,443.756z"/>
<path style="fill:#333333;" d="M299.166,345.759c0,12.809-19.877,38.244-44.395,38.244c-24.529,0-44.407-25.436-44.407-38.244
	s19.877-23.188,44.407-23.188C279.289,322.571,299.166,332.95,299.166,345.759z"/>
<path style="fill:#999999;" d="M344.938,221.722c29.363,0,53.167,23.804,53.167,53.167c0,14.971-6.187,28.493-16.144,38.148
	c-0.012,0-0.012,0-0.012,0c-9.57,9.304-22.62,15.02-37.012,15.02c-29.363,0-53.167-23.804-53.167-53.167
	c0-16.796,7.782-31.767,19.95-41.507C320.82,226.084,332.372,221.722,344.938,221.722z"/>
<path style="fill:#F7B239;" d="M188.409,253.32c18.403,18.403,34.293,32.347,15.89,50.751c-18.403,18.403-48.237,18.403-66.64,0
	c-18.403-18.403-18.403-48.237,0-66.64S170.006,234.917,188.409,253.32z"/>
<g>
	<path style="fill:#4D4D4D;" d="M82.135,349.082c63.982,0.785,112.135,18.85,112.135,18.85s-40.081-2.562-91.81,9.159
		C94.943,368.367,88.14,359.002,82.135,349.082z"/>
	<path style="fill:#4D4D4D;" d="M102.459,377.091c51.729-11.721,91.81-9.159,91.81-9.159s-35.393,11.938-64.659,35.368
		C119.787,395.422,110.7,386.637,102.459,377.091z"/>
	<path style="fill:#4D4D4D;" d="M410.129,377.224c-8.301,9.606-17.485,18.427-27.43,26.33
		c-29.327-23.599-64.973-35.622-64.973-35.622S358.121,365.346,410.129,377.224z"/>
	<path style="fill:#4D4D4D;" d="M410.129,377.224c-52.007-11.878-92.402-9.292-92.402-9.292s48.503-18.186,112.823-18.85
		C424.532,359.051,417.693,368.464,410.129,377.224z"/>
	<path style="fill:#4D4D4D;" d="M459.647,242.167v1.945c0,26.874-5.208,52.539-14.669,76.029
		c-40.673,5.051-62.411-6.767-63.015-7.105c9.957-9.655,16.144-23.176,16.144-38.148c0-29.363-23.804-53.167-53.167-53.167
		c-12.567,0-24.119,4.362-33.217,11.661C278.503,138.708,180.953,81.832,180.953,81.832c23.224-9.232,48.539-14.319,75.051-14.319
		c37.978,0,73.516,10.44,103.954,28.541L411.7,20.568c7.069-10.307,18.524-13.207,28.469-10.525l-38.16,116.412
		C402.009,126.456,459.647,173.291,459.647,242.167z"/>
	<path style="fill:#4D4D4D;" d="M254.771,384.003c24.517,0,44.395-25.436,44.395-38.244s-19.877-23.188-44.395-23.188
		c-24.529,0-44.407,10.38-44.407,23.188S230.242,384.003,254.771,384.003c0,27.067-16.869,50.183-40.661,59.402
		c-31.502-6.646-60.26-20.651-84.5-40.105c29.266-23.43,64.659-35.368,64.659-35.368s-48.153-18.065-112.135-18.85
		c-18.899-31.26-29.774-67.921-29.774-106.915c0-68.876,57.638-115.711,57.638-115.711L71.84,10.044
		c9.945-2.683,21.4,0.218,28.469,10.525l51.741,75.486c9.196-5.462,18.85-10.235,28.904-14.222c0,0,97.55,56.877,130.767,151.551
		c-12.168,9.739-19.95,24.711-19.95,41.507c0,29.363,23.804,53.167,53.167,53.167c14.391,0,27.442-5.715,37.012-15.02
		c0,0,0,0,0.012,0c0.604,0.338,22.342,12.156,63.015,7.105c-4.048,10.078-8.893,19.744-14.428,28.94
		c-64.32,0.665-112.823,18.85-112.823,18.85s35.646,12.023,64.973,35.622c-24.747,19.696-54.182,33.737-86.361,40.202
		C272.063,434.766,254.771,411.408,254.771,384.003z M204.299,304.071c18.403-18.403,2.513-32.347-15.89-50.751
		s-32.347-34.293-50.751-15.89s-18.403,48.237,0,66.64C156.061,322.474,185.896,322.474,204.299,304.071z"/>
</g>
<path style="fill:#E54728;" d="M246.023,416.23c-7.214,12.301-18.464,21.968-31.912,27.176c2.864,0.604,5.752,1.148,8.664,1.631
	v24.674c0,0.943,0.036,1.861,0.121,2.779c19.056-11.008,31.876-31.598,31.876-55.197C251.775,417.293,248.85,416.919,246.023,416.23
	z M263.52,416.23c-2.828,0.689-5.752,1.063-8.748,1.063c0,24.542,13.872,45.833,34.208,56.466c0.169-1.329,0.254-2.683,0.254-4.048
	v-24.65c2.38-0.387,4.749-0.822,7.105-1.305C282.479,438.62,270.903,428.809,263.52,416.23z"/>
<g>
	<path style="fill:#333333;" d="M197.459,249.553l-5.28-5.28c-12.311-12.375-23.939-24.064-38.196-24.082c-0.012,0-0.022,0-0.033,0
		c-7.876,0-15.513,3.644-22.698,10.829c-21.906,21.906-21.906,57.551,0,79.459c10.954,10.954,25.343,16.43,39.73,16.43
		c14.387,0,28.774-5.476,39.728-16.43c7.196-7.196,10.84-14.843,10.829-22.73C221.521,273.489,209.833,261.862,197.459,249.553z
		 M197.896,297.661L197.896,297.661c-14.837,14.839-38.987,14.841-53.826,0c-14.84-14.84-14.84-38.986,0-53.826
		c5.435-5.435,8.703-5.52,9.836-5.52c0.019,0,0.036,0,0.054,0c6.737,0.008,15.787,9.107,25.369,18.74l5.348,5.348
		c9.632,9.581,18.729,18.632,18.738,25.368C203.417,288.851,203.42,292.135,197.896,297.661z"/>
	<path style="fill:#333333;" d="M168.168,262.104c-5.006,0-9.063,4.058-9.063,9.063v15.363c0,5.005,4.056,9.063,9.063,9.063
		s9.063-4.058,9.063-9.063v-15.363C177.23,266.161,173.174,262.104,168.168,262.104z"/>
	<path style="fill:#333333;" d="M229.577,186.803c-4.081-2.9-9.738-1.943-12.637,2.138c-2.135,3.004-4.784,5.541-7.558,7.659
		c1.717-9.557,1.703-21.019-3.571-31.934c-2.177-4.506-7.592-6.399-12.103-4.217c-4.506,2.177-6.395,7.596-4.217,12.103
		c7.921,16.392-3.479,37.101-3.58,37.282c-1.799,3.165-1.531,7.098,0.68,9.987c1.74,2.274,4.418,3.555,7.197,3.555
		c0.753,0,1.514-0.094,2.266-0.289c0.943-0.243,23.233-6.163,35.66-23.646C234.614,195.361,233.657,189.703,229.577,186.803z"/>
	<path style="fill:#333333;" d="M502.094,346.985c-19.363-4.166-38.323-6.222-56.304-6.839
		c14.95-29.559,22.916-62.444,22.916-96.037V35.427c0-15.829-9.768-29.084-24.885-33.766c-15.118-4.682-30.658,0.729-39.6,13.78
		L357.186,84.06c-30.991-16.782-65.791-25.613-101.185-25.613c-35.394,0-70.194,8.832-101.186,25.613l-47.036-68.618
		C98.835,2.389,83.289-3.021,68.18,1.661C53.063,6.344,43.295,19.597,43.295,35.426v206.736c0,34.246,8.191,67.819,23.537,97.958
		c-18.164,0.591-37.339,2.649-56.924,6.863c-4.893,1.052-8.005,5.873-6.953,10.766c1.052,4.895,5.871,8.004,10.766,6.953
		c21.869-4.707,43.356-6.509,63.414-6.532c2.929,4.597,6.045,9.086,9.33,13.463c-23.843,6.401-49.505,15.869-74.683,29.851
		c-4.375,2.43-5.952,7.947-3.522,12.323c2.43,4.377,7.947,5.956,12.323,3.524c26.47-14.701,53.816-24.114,78.742-30.129
		c5.171,5.69,10.617,11.078,16.318,16.141c-8.832,8.124-16.788,17.371-22.693,27.776c-2.471,4.354-0.945,9.884,3.408,12.355
		c1.413,0.802,2.948,1.183,4.465,1.183c3.155,0,6.221-1.651,7.889-4.591c5.322-9.377,12.787-17.768,21.142-25.142
		c24.839,18.517,53.457,31.447,83.852,37.646v17.134c0,23.32,18.972,42.292,42.292,42.292s42.292-18.972,42.292-42.292v-17.098
		c30.516-6.169,59.237-19.039,84.136-37.453c8.235,7.314,15.589,15.628,20.86,24.913c1.669,2.941,4.734,4.591,7.889,4.591
		c1.516,0,3.052-0.381,4.465-1.183c4.354-2.47,5.879-8.002,3.408-12.355c-5.835-10.281-13.668-19.436-22.373-27.489
		c5.8-5.115,11.337-10.56,16.582-16.316c24.748,6.022,51.865,15.414,78.157,30.015c4.375,2.429,9.893,0.853,12.323-3.524
		c2.43-4.375,0.853-9.893-3.522-12.323c-24.972-13.868-50.42-23.295-74.096-29.693c3.323-4.425,6.456-8.972,9.411-13.623
		c19.866,0.062,41.12,1.88,62.746,6.534c4.894,1.057,9.714-2.059,10.766-6.953C510.099,352.858,506.985,348.038,502.094,346.985z
		 M450.581,173.021c-13.137-24.596-29.967-41.874-38.104-49.417l32.965-100.564c2.971,2.806,5.14,6.885,5.14,12.386v137.595H450.581
		z M355.322,103.839c4.108,2.442,9.406,1.276,12.109-2.666l51.741-75.487c2.405-3.509,5.4-5.579,8.502-6.634l-34.28,104.576
		c-1.167,3.56-0.014,7.477,2.888,9.848c0.543,0.443,54.3,45.102,54.3,108.686v1.945c0,23.251-4.169,46.134-12.121,67.605
		c-18.791,1.686-32.737-0.509-41.451-2.817c6.413-9.784,10.156-21.466,10.156-34.011c0-34.313-27.916-62.23-62.23-62.23
		c-10.363,0-20.135,2.561-28.738,7.06c-18.76-45.61-51.306-81.576-76.206-104.306c-14.9-13.602-28.623-24.012-38.578-31
		c17.649-5.158,36.024-7.839,54.587-7.839C290.981,76.572,325.326,86,355.322,103.839z M344.935,230.781
		c24.319,0,44.105,19.785,44.105,44.105c0,24.319-19.785,44.105-44.105,44.105s-44.105-19.785-44.105-44.105
		C300.83,250.566,320.616,230.781,344.935,230.781z M66.562,23.041l32.965,100.564c-8.139,7.542-24.968,24.829-38.105,49.427V35.426
		C61.42,29.926,63.589,25.846,66.562,23.041z M99.559,358.872c11.612,0.732,22.518,1.984,32.479,3.491
		c-8.228,1.164-17.015,2.674-26.209,4.624C103.665,364.332,101.575,361.627,99.559,358.872z M120.217,382.802
		c10.706-1.937,20.704-3.272,29.655-4.178c-6.549,3.789-13.362,8.144-20.031,13.06C126.542,388.839,123.333,385.875,120.217,382.802
		z M280.167,469.708c0,13.326-10.841,24.167-24.167,24.167s-24.167-10.841-24.167-24.167v-24.674c0-0.257-0.013-0.514-0.035-0.766
		c5.167-3.517,9.835-7.671,13.906-12.332v30.245c0,5.005,4.056,9.063,9.063,9.063s9.063-4.058,9.063-9.063v-30.205
		c4.7,5.37,10.19,10.074,16.338,13.897V469.708L280.167,469.708z M254.768,374.939c-19.289,0-35.342-21.185-35.342-29.177
		c0-5.626,14.095-14.132,35.342-14.132s35.342,8.506,35.342,14.132C290.11,353.755,274.057,374.939,254.768,374.939z
		 M297.153,434.322c-17.565-7.449-29.946-23.675-32.729-42.338c24.572-5.388,43.81-30.044,43.81-46.223
		c0-18.39-22.985-32.257-53.467-32.257S201.3,327.373,201.3,345.761c0,16.177,19.237,40.832,43.807,46.222
		c-2.748,18.296-14.778,34.344-31.836,41.944c-24.627-5.587-47.895-16.036-68.513-30.594c25.263-17.464,52.001-26.679,52.413-26.819
		c4.104-1.384,6.654-5.476,6.089-9.768c-0.442-3.365-2.707-6.109-5.744-7.274c-0.021-0.008-0.036-0.022-0.057-0.029
		c-2.631-0.986-48.445-17.824-110.082-19.389C70.49,310.411,61.42,276.66,61.42,242.164c0-63.584,53.757-108.243,54.291-108.678
		c2.915-2.368,4.066-6.288,2.896-9.856L84.325,19.045c3.103,1.055,6.099,3.133,8.503,6.643l51.741,75.486
		c2.702,3.942,8.003,5.109,12.108,2.666c7.558-4.494,15.393-8.452,23.443-11.862c17.456,11.157,91.364,61.93,120.971,138.792
		c-11.349,11.279-18.387,26.891-18.387,44.117c0,34.313,27.916,62.23,62.23,62.23c14.585,0,28.002-5.057,38.622-13.49
		c7.416,2.818,21.521,6.824,41.826,6.824c1.636,0,3.316-0.029,5.033-0.083c-1.617,3.271-3.328,6.496-5.128,9.675
		c-61.968,1.461-108.104,18.412-110.744,19.402c-0.021,0.008-0.036,0.021-0.057,0.029c-3.038,1.165-5.303,3.909-5.746,7.274
		c-0.566,4.293,1.987,8.385,6.089,9.768c0.418,0.141,27.368,9.395,52.727,27.009C346.429,418.32,322.494,428.856,297.153,434.322z
		 M382.502,391.94c-6.798-5.034-13.751-9.489-20.431-13.351c9.131,0.921,19.355,2.29,30.315,4.292
		C389.19,386.02,385.892,389.04,382.502,391.94z M406.773,367.116c-9.413-2.013-18.404-3.565-26.811-4.754
		c10.168-1.539,21.32-2.812,33.204-3.538C411.111,361.639,408.984,364.407,406.773,367.116z"/>
</g>
<g>
</g>
<g>
</g>
<g>
</g>
<g>
</g>
<g>
</g>
<g>
</g>
<g>
</g>
<g>
</g>
<g>
</g>
<g>
</g>
<g>
</g>
<g>
</g>
<g>
</g>
<g>
</g>
<g>
</g>
</svg>
