<svg id="icons" height="512" viewBox="0 0 340 340" width="512" xmlns="http://www.w3.org/2000/svg"><path d="m138.909 171.415-61.095 4.824-11.522 23.312-8.307 58.415c1.608 23.312 0 72.034 0 72.034h48.852c5.3-.932 10.671-1.925 13 0h33.344c-2.534-20.157-1.031-44.543.757-61.95a205.989 205.989 0 0 1 6.225-33.389 227.042 227.042 0 0 0 7.149-39.933c2.47-28.894-28.403-23.313-28.403-23.313z" fill="#71c9c7"/><path d="m160.163 234.661a228.938 228.938 0 0 0 5.006-22.935c-8.448-1.15-19.307 3.419-19.307 3.419a6.169 6.169 0 0 0 -5.354-3.581l-14.7 2.617c-8.105 1.515-7.735 6.75-7.735 6.75h-7.287c-35.663 0-35.138-20.387-35.138-20.387s-7.3 5.1-8.678 8.678-2.2 18.32-2.2 18.32l8.4 22.949 21.9 14.794 41.259-.827 18.941-6.752a204.658 204.658 0 0 1 4.893-23.045z" fill="#409189"/><path d="m58.757 252.537-.772 5.429c.559 8.1.729 19.269.714 30.395a51.9 51.9 0 0 0 9.153 4.764s-.633 3.063 4.895 6.381c0 0 9.983 4.34 16.307 0 0 0 34.935 5.654 63-5.091.352-9.51 1.088-18.628 1.883-26.365q.8-7.8 2.193-15.513z" fill="#409189"/><path d="m106.837 272.532h13v57.467h-13z" fill="#fff"/><path d="m113.337 192.342a6.5 6.5 0 0 0 -6.5 6.5v21.99l4.509 2.439c4.924.3 7.866-1.673 8.491-6.321v-18.108a6.5 6.5 0 0 0 -6.5-6.5z" fill="#fff"/><path d="m118.439 219.058a2.909 2.909 0 0 1 -2.7 1.873h-4.948c-1.376 0-2.68-.04-3.951-.1v20.169h13v-24.05a6.2 6.2 0 0 0 -1.401 2.108z" fill="#b0dcff"/><path d="m76.723 173.391s-1.078 23.381 4.019 42.244a20.1 20.1 0 0 0 18.174 14.839c10.381.629 25.478.823 38.556-1.808v29.106s-34.283 7.923-60.372-.513a39.807 39.807 0 0 1 -26.6-30.072c-2.449-12.146-4.1-30.069 3.256-42.848.002 0 6.411-11.616 22.967-10.948z" fill="#71c9c7"/><path d="m92.06 143.457v36.112l21.634 16.25 12.116-13.348v-25.536z" fill="#ef8d84"/><path d="m127.93 161.234a55.223 55.223 0 0 0 -20.782 35.359l6.189 10.253s6.679-13.192 23-21.755a15.353 15.353 0 0 0 6.09-5.671c1.814-3.045 3.455-7.716.121-12.619-6.77-9.956-14.618-5.567-14.618-5.567z" fill="#fff"/><path d="m87.945 160.672c7.612 7.112 24.058 24.825 25.392 46.174 0 0-10.06-14.7-31.727-19.539-9.509-2.122-13.839-6.63-15.7-11.02a13.91 13.91 0 0 1 8.354-18.768 15.849 15.849 0 0 1 1.857-.46 13.764 13.764 0 0 1 11.824 3.613z" fill="#fff"/><path d="m117.866 171.363c6.029.539 16.044.117 22.818-6.93-6.267-6.824-12.754-3.2-12.754-3.2a50.8 50.8 0 0 0 -10.064 10.13z" fill="#b0dcff"/><path d="m106.837 278.064v22.873c3.944.1 8.339.073 13-.192v-22.681z" fill="#b0dcff"/><path d="m140.508 97.3v39.815s.066 25.2-18.08 26.957c0 0-20.5 2.465-30.368-20.614 0 0-9.513 1.057-11.8-9.69-2.171-10.168 6.163-25.368 6.163-25.368s20.436-24.138 54.085-11.1z" fill="#ffd4c8"/><path d="m103.065 96.986-.587 25.942a21.19 21.19 0 0 0 9.938-5.023 9.47 9.47 0 0 1 6.406-2.5h21.686v-18.105c-15.538-6.021-28.251-4.11-37.443-.314z" fill="#ef8d84"/><path d="m140.3 223.545 10.018-2.8a15.129 15.129 0 0 1 19.832 14.38v.029a15.064 15.064 0 0 1 -6.76 12.6 129.1 129.1 0 0 1 -23.09 11.381z" fill="#ffd4c8"/><path d="m123.662 229.176v34.524s13.951.08 22.2-6.339v-30.111a7.243 7.243 0 0 0 -7.546-7.25 27.348 27.348 0 0 0 -10.508 2.616 7.27 7.27 0 0 0 -4.146 6.56z" fill="#fff"/><path d="m162.371 248.409s-24.9 13.133-69.421 6.577l-10.859 30.952s93.203 13.751 80.28-37.529z" fill="#71c9c7"/><path d="m87.987 252.587a60 60 0 0 1 -16.514-8.029 15.147 15.147 0 0 0 -20.107 2.485c-.079.093-.157.187-.236.282a15.116 15.116 0 0 0 .437 19.643 53.918 53.918 0 0 0 24 15.527z" fill="#ffd4c8"/><path d="m91.137 249.319 3.419.584a7.663 7.663 0 0 1 6.369 8.069c-.533 7.623-2.478 19.84-9.229 27.894a8.686 8.686 0 0 1 -6.766 3.062 24.709 24.709 0 0 1 -8.114-1.5 8.122 8.122 0 0 1 -4-11.908 88.486 88.486 0 0 0 9.66-20.879 7.666 7.666 0 0 1 8.661-5.322z" fill="#fff"/><path d="m324.719 71.913h-21.209c2.78-8.585 11.144-13.275 11.144-13.275l-4.464-3.119a11.648 11.648 0 0 0 -9.639-1.718 11.241 11.241 0 0 0 -6.725 5.322c-2.3 3.935-8.5 12.79-17.644 12.79h-10.125v-15.032a58.805 58.805 0 0 0 17.62-15.437 11.67 11.67 0 0 0 1.33-11.909l-3.08-6.764s-5.827 10.523-15.87 13.829v-21.827a4.773 4.773 0 0 0 -4.774-4.773h-6.626a4.773 4.773 0 0 0 -4.773 4.773v21.209c-8.585-2.78-13.275-11.143-13.275-11.143l-3.119 4.461a11.313 11.313 0 0 0 3.768 16.46c4.012 2.378 12.626 8.532 12.626 17.547v8.6h-8.6c-9.015 0-15.169-8.614-17.547-12.626a11.313 11.313 0 0 0 -16.46-3.768l-4.464 3.119s8.363 4.69 11.143 13.275h-21.212a4.773 4.773 0 0 0 -4.773 4.773v6.626a4.773 4.773 0 0 0 4.773 4.774h21.829c-3.308 10.047-13.83 15.87-13.83 15.87l6.763 3.08a11.672 11.672 0 0 0 11.909-1.329 58.818 58.818 0 0 0 15.437-17.621h15.032v10.131c0 9.015-8.614 15.17-12.626 17.547a11.314 11.314 0 0 0 -3.768 16.461l3.119 4.464s4.69-8.364 13.275-11.144v21.209a4.773 4.773 0 0 0 4.773 4.773h6.626a4.773 4.773 0 0 0 4.774-4.773v-21.829c10.047 3.309 15.87 13.831 15.87 13.831l3.08-6.764a11.67 11.67 0 0 0 -1.33-11.909 58.805 58.805 0 0 0 -17.62-15.437v-16.554h16.554a58.81 58.81 0 0 0 15.438 17.621 11.672 11.672 0 0 0 11.909 1.329l6.763-3.08s-10.521-5.823-13.831-15.87h21.829a4.774 4.774 0 0 0 4.774-4.774v-6.626a4.774 4.774 0 0 0 -4.774-4.773z" fill="#97baf2"/><path d="m122.863 148.423a10.636 10.636 0 0 1 -4.912-1.2 4.622 4.622 0 0 0 -3.452-.335l-2.974.874a3 3 0 0 1 -1.69-5.757l2.974-.873a10.6 10.6 0 0 1 7.909.768 4.653 4.653 0 0 0 3.809.215l4.619-1.773a3 3 0 0 1 2.151 5.6l-4.62 1.773a10.642 10.642 0 0 1 -3.814.708z" fill="#ef8d84"/><path d="m113.21 128.295a3 3 0 0 1 -.843-5.88 25.91 25.91 0 0 1 4.869-.847 3 3 0 1 1 .429 5.984 20.08 20.08 0 0 0 -3.623.625 3 3 0 0 1 -.832.118z" fill="#ef8d84"/><path d="m126.747 127.632a3 3 0 0 1 -.094-5.939 25.911 25.911 0 0 1 4.938-.225 3 3 0 0 1 -.331 5.991 20.021 20.021 0 0 0 -3.673.161 3 3 0 0 1 -.84.012z" fill="#ef8d84"/><g fill="#a6c5f7"><path d="m214.941 170.56a3.422 3.422 0 0 1 -.492-.035l-14.274-2a3.5 3.5 0 0 1 -3.009-3.63l.747-15.934-9.884-1.041a3.5 3.5 0 1 1 .732-6.962l13.169 1.388a3.5 3.5 0 0 1 3.13 3.645l-.752 16.046 11.115 1.562a3.5 3.5 0 0 1 -.482 6.966z"/><path d="m201.67 184.276a3.422 3.422 0 0 1 -.492-.035l-14.273-2a3.5 3.5 0 0 1 -3.009-3.63l.747-15.934-9.886-1.042a3.5 3.5 0 0 1 .735-6.962l13.168 1.388a3.5 3.5 0 0 1 3.129 3.645l-.752 16.046 11.116 1.562a3.5 3.5 0 0 1 -.483 6.966z"/><path d="m39.975 170.273a3.5 3.5 0 0 1 -3.5-3.41l-.372-14.409a3.5 3.5 0 0 1 3.085-3.566l15.843-1.888-.6-9.922a3.5 3.5 0 1 1 6.987-.423l.8 13.218a3.5 3.5 0 0 1 -3.079 3.687l-15.952 1.9.29 11.22a3.5 3.5 0 0 1 -3.409 3.59z"/><path d="m24.261 159.442a3.5 3.5 0 0 1 -3.5-3.41l-.372-14.409a3.5 3.5 0 0 1 3.085-3.566l15.84-1.886-.6-9.922a3.5 3.5 0 1 1 6.987-.423l.8 13.218a3.5 3.5 0 0 1 -3.079 3.687l-15.953 1.9.291 11.22a3.5 3.5 0 0 1 -3.409 3.59z"/><path d="m25.341 315.5a3.483 3.483 0 0 1 -1.767-.481l-11.423-6.7a3.5 3.5 0 0 1 -1.346-4.611l7.309-14.306-9.48-6.002a3.5 3.5 0 1 1 3.748-5.912l12.173 7.712a3.5 3.5 0 0 1 1.243 4.549l-7.257 14.205 8.574 5.029a3.5 3.5 0 0 1 -1.774 6.519z"/><path d="m43.089 308.489a3.487 3.487 0 0 1 -1.767-.482l-11.422-6.7a3.5 3.5 0 0 1 -1.346-4.611l7.308-14.306-9.479-6.01a3.5 3.5 0 1 1 3.748-5.912l12.169 7.719a3.5 3.5 0 0 1 1.243 4.548l-7.258 14.2 8.574 5.029a3.5 3.5 0 0 1 -1.774 6.52z"/></g><path d="m85.894 87.609s-16.56 6.343-12.508 20.437a17.745 17.745 0 0 0 12.786 12.811 14.5 14.5 0 0 1 8.768 6.688l1.348 2.346s10.219-4.052 10.4-24.312h27.835s21.317.705 23.96-17.97h-9.513s10.218-9.337 9.513-23.078a34.96 34.96 0 0 1 -15.151 6.694h-31.893s-21.317-1.761-25.545 16.384z" fill="#636375"/><path d="m48.7 244.779-.265.315a18.7 18.7 0 0 0 .524 24.206 57.954 57.954 0 0 0 6.158 5.925c.373 23.931-.616 54.351-.626 54.66a3.5 3.5 0 0 0 3.379 3.615h.118a3.5 3.5 0 0 0 3.5-3.385c.009-.289.87-26.771.689-49.87a56.913 56.913 0 0 0 6.544 3.4c.006.015.008.031.014.047a11.4 11.4 0 0 0 6.888 7.028 28.131 28.131 0 0 0 9.266 1.71h.164a12.2 12.2 0 0 0 6.644-1.96c4.69.37 10.2.655 16.1.655 13.74 0 29.479-1.55 41.3-7.178-1.184 18.144-.981 33.77.618 46.49a3.5 3.5 0 0 0 3.468 3.064 3.459 3.459 0 0 0 .441-.028 3.5 3.5 0 0 0 3.036-3.909c-1.685-13.41-1.761-30.26-.23-50.082a29.783 29.783 0 0 0 4.447-4.236c5.627-6.648 7.446-15.14 5.436-25.264a18.645 18.645 0 0 0 -17-32.585l-4.3 1.2a10.632 10.632 0 0 0 -6.844-2.1 30.8 30.8 0 0 0 -11.849 2.95 10.8 10.8 0 0 0 -5.93 7.71 191.719 191.719 0 0 1 -21.251-.178 16.585 16.585 0 0 1 -15.019-12.258q-.225-.837-.435-1.686a3.5 3.5 0 1 0 -6.8 1.68q.228.924.474 1.834a23.581 23.581 0 0 0 21.341 17.419c4.482.271 8.832.407 13.022.407q4.34 0 8.435-.2v19.1a154.187 154.187 0 0 1 -16.788-.588 11.141 11.141 0 0 0 -8.227-6.233l-3.42-.585a11.256 11.256 0 0 0 -7.819 1.52 60.529 60.529 0 0 1 -10.453-5.719 18.873 18.873 0 0 0 -14.644-2.941 36.538 36.538 0 0 1 -4.873-12.229c-2.415-11.979-3.878-28.713 2.878-40.444a19.309 19.309 0 0 1 6.913-6.338c2.415 4.146 7.282 8.813 17.123 11.009 19.946 4.453 29.513 17.973 29.6 18.1a3.5 3.5 0 0 0 6.381-2.2 55 55 0 0 0 -4.3-17.7 50.981 50.981 0 0 1 17.894-24.427c.132-.068.265-.135.4-.205 1.175-.517 4.818-1.432 8.837 4.474 1.154 1.7 2.385 4.462-.234 8.86a11.832 11.832 0 0 1 -4.709 4.363 62.958 62.958 0 0 0 -12.174 8.345 3.5 3.5 0 1 0 4.607 5.27 55.9 55.9 0 0 1 10.819-7.417 18.812 18.812 0 0 0 7.471-6.979 17.567 17.567 0 0 0 2.419-6.588c4.257.384 9.09 1.677 12.293 5.175 2.991 3.267 4.228 8.189 3.678 14.631-.376 4.4-.908 8.9-1.581 13.394a3.5 3.5 0 0 0 2.943 3.98 3.441 3.441 0 0 0 .523.04 3.5 3.5 0 0 0 3.457-2.982c.695-4.639 1.244-9.294 1.632-13.835.725-8.472-1.122-15.186-5.489-19.955-5.1-5.567-12.465-7.223-18.389-7.529a15.639 15.639 0 0 0 -1.478-2.709 18.447 18.447 0 0 0 -7.617-6.819c4.723-6.544 6.223-15.285 6.182-20.9v-29.306c7.84-2.249 16.256-7.842 17.935-19.708a3.5 3.5 0 0 0 -3.465-3.99h-2.171a33.058 33.058 0 0 0 5.666-19.759 3.5 3.5 0 0 0 -5.7-2.537 31.79 31.79 0 0 1 -13.208 5.911h-31.491c-8.152-.625-24.025 2.283-28.623 17.341-6.839 3.24-16.531 11.431-12.933 23.947a21.716 21.716 0 0 0 7.79 11.61c-1.455 5.4-1.791 10.061-.979 13.874 1.761 8.261 7.253 11.4 11.727 12.247v9.92a17.154 17.154 0 0 0 -13.08-3.046 19.475 19.475 0 0 0 -2.266.56 16.78 16.78 0 0 0 -10.31 9.111 17.709 17.709 0 0 0 -1.458 9.72 26.221 26.221 0 0 0 -10.72 9.583c-7.827 13.588-6.308 32.127-3.655 45.287a43.5 43.5 0 0 0 5.248 13.642 18.211 18.211 0 0 0 -3.619 3.258zm59.67-64.24a97.049 97.049 0 0 0 -12.81-17.168v-7.631a32.108 32.108 0 0 0 22.03 10.985 58 58 0 0 0 -9.223 13.814zm-31.618-73.46c-3.1-10.8 9.853-15.989 10.407-16.2a3.5 3.5 0 0 0 2.141-2.479c3.481-14.936 21.108-13.747 21.848-13.69.1.007.192.011.288.011h31.888a3.552 3.552 0 0 0 .5-.036 34.723 34.723 0 0 0 10.557-3.479 30.192 30.192 0 0 1 -7.781 13.82 3.5 3.5 0 0 0 2.361 6.084h5.027c-4.35 11.24-18.687 10.987-19.358 10.971h-.116-27.831a3.5 3.5 0 0 0 -3.5 3.47c-.1 11.281-3.442 16.769-5.827 19.253a17.982 17.982 0 0 0 -10.249-7.317 14.209 14.209 0 0 1 -10.358-10.408zm6.931 25.959a21.9 21.9 0 0 1 .524-9.128c.341.111.682.222 1.033.32a10.962 10.962 0 0 1 6.669 5.058l1.348 2.347a3.5 3.5 0 0 0 4.324 1.51c.48-.19 11.159-4.654 12.475-24.066h24.41c.785.023 1.639.008 2.545-.05v28.1c0 .746-.074 16-9.611 21.043-.121.062-.239.126-.352.191a14.016 14.016 0 0 1 -4.845 1.337c-.074.007-.149.016-.223.029-.18.026-18 2.669-26.691-17.636a3.5 3.5 0 0 0 -3.574-2.124c-1.077.096-6.515.21-8.035-6.931zm-14.425 33.187a9.863 9.863 0 0 1 6.048-5.366 12.568 12.568 0 0 1 1.446-.358 9.4 9.4 0 0 1 1.7-.154 10.489 10.489 0 0 1 7.105 2.883c5.6 5.23 17.324 17.55 22.185 32.874a60.89 60.89 0 0 0 -25.368-12.213c-6.916-1.543-11.372-4.562-13.245-8.972a10.748 10.748 0 0 1 .129-8.694zm82 57.894q.073-.021.147-.045a11.645 11.645 0 0 1 10.062 20.762c-.254.167-.535.345-.824.526a65.785 65.785 0 0 1 -11.279 3.971v-22.083a10.713 10.713 0 0 0 -.313-2.515zm-24.095 5.057a3.78 3.78 0 0 1 2.147-3.4 23.806 23.806 0 0 1 9.168-2.282 3.638 3.638 0 0 1 2.716 1.023 3.75 3.75 0 0 1 1.17 2.736v23.705a124.353 124.353 0 0 1 -15.2 2zm-22.873 30.616c28.547 2.275 47.544-3.35 55.5-6.441 1.016 7.084-.393 12.8-4.267 17.372-11.4 13.464-41.226 14-58.141 13.1 4.487-7.523 6.263-16.723 6.908-24.031zm-18.459-4.161a4.129 4.129 0 0 1 3.986-2.925 4.32 4.32 0 0 1 .73.063l3.42.584a4.146 4.146 0 0 1 3.466 4.375c-.451 6.455-2.144 18.4-8.42 25.889a5.263 5.263 0 0 1 -4.038 1.812 21.127 21.127 0 0 1 -6.963-1.29 4.393 4.393 0 0 1 -2.667-2.74 4.7 4.7 0 0 1 .443-4.033 92.418 92.418 0 0 0 10.043-21.735zm-32.007-6.071.213-.256a11.586 11.586 0 0 1 15.457-1.859 67.338 67.338 0 0 0 9.843 5.57c-.076.211-.157.42-.221.638a85.323 85.323 0 0 1 -9.277 20.024 11.729 11.729 0 0 0 -1.074 2.238 51.023 51.023 0 0 1 -14.588-11.279 11.648 11.648 0 0 1 -.353-15.076z" fill="#424256"/><path d="m192.744 91.586h16.256a32.546 32.546 0 0 1 -9.948 9.307 3.5 3.5 0 0 0 .244 6.248l6.763 3.08a15.135 15.135 0 0 0 15.481-1.731 64.109 64.109 0 0 0 15.343-16.9h9.5v6.625c0 7.283-7.63 12.592-10.91 14.536a14.813 14.813 0 0 0 -4.854 21.476l3.121 4.465a3.506 3.506 0 0 0 5.916-.283 25.28 25.28 0 0 1 6.727-7.216v15.559a8.284 8.284 0 0 0 8.274 8.274h6.626a8.284 8.284 0 0 0 8.273-8.274v-16.252a32.569 32.569 0 0 1 9.308 9.949 3.5 3.5 0 0 0 6.248-.245l3.08-6.763a15.138 15.138 0 0 0 -1.733-15.482 64.125 64.125 0 0 0 -16.9-15.342v-11.031h11.027a64.138 64.138 0 0 0 15.342 16.9 15.138 15.138 0 0 0 15.482 1.731l6.763-3.08a3.5 3.5 0 0 0 .244-6.248 32.032 32.032 0 0 1 -9.957-9.307h16.261a8.283 8.283 0 0 0 8.273-8.274v-6.622a8.282 8.282 0 0 0 -8.273-8.273h-15.561a25.283 25.283 0 0 1 7.206-6.722 3.5 3.5 0 0 0 .293-5.921l-4.459-3.12a15.156 15.156 0 0 0 -12.53-2.235 14.629 14.629 0 0 0 -8.859 6.939c-1.947 3.325-7.271 11.059-14.624 11.059h-6.625v-9.5a64.134 64.134 0 0 0 16.9-15.341 15.137 15.137 0 0 0 1.734-15.483l-3.08-6.763a3.5 3.5 0 0 0 -3.049-2.047 3.545 3.545 0 0 0 -3.2 1.8 32.054 32.054 0 0 1 -9.308 9.958v-16.264a8.283 8.283 0 0 0 -8.275-8.273h-6.626a8.283 8.283 0 0 0 -8.274 8.273v15.559a25.318 25.318 0 0 1 -6.722-7.205 3.5 3.5 0 0 0 -5.921-.293l-3.121 4.466a14.813 14.813 0 0 0 4.854 21.476c3.28 1.944 10.91 7.252 10.91 14.536v5.1h-5.1c-7.284 0-12.593-7.631-14.538-10.911a14.811 14.811 0 0 0 -21.475-4.852l-4.464 3.12a3.506 3.506 0 0 0 .283 5.916 25.283 25.283 0 0 1 7.215 6.727h-15.561a8.283 8.283 0 0 0 -8.273 8.273v6.626a8.284 8.284 0 0 0 8.273 8.275zm-1.273-14.9a1.274 1.274 0 0 1 1.273-1.273h21.209a3.5 3.5 0 0 0 3.331-4.578 27.678 27.678 0 0 0 -8.455-12.135l.45-.315a7.817 7.817 0 0 1 11.444 2.685c2.556 4.312 9.676 14.341 20.559 14.341h8.6a3.5 3.5 0 0 0 3.5-3.5v-8.6c0-10.884-10.029-18-14.342-20.558a7.815 7.815 0 0 1 -2.683-11.444l.314-.45a27.655 27.655 0 0 0 12.133 8.454 3.5 3.5 0 0 0 4.578-3.33v-21.21a1.275 1.275 0 0 1 1.274-1.273h6.626a1.274 1.274 0 0 1 1.273 1.273v21.827a3.5 3.5 0 0 0 4.595 3.325c6.318-2.081 11.093-6.569 14.106-10.179l.564 1.238a8.147 8.147 0 0 1 -.928 8.335 55.236 55.236 0 0 1 -16.492 14.481 3.5 3.5 0 0 0 -1.846 3.084v15.029a3.5 3.5 0 0 0 3.5 3.5h10.125c10.976 0 18.107-10.156 20.665-14.522a7.794 7.794 0 0 1 4.59-3.7 8.165 8.165 0 0 1 6.748 1.2l.449.315a27.669 27.669 0 0 0 -8.454 12.133 3.5 3.5 0 0 0 3.33 4.578h21.209a1.274 1.274 0 0 1 1.273 1.273v6.626a1.275 1.275 0 0 1 -1.273 1.274h-21.826a3.5 3.5 0 0 0 -3.324 4.594c2.081 6.319 6.568 11.094 10.178 14.107l-1.238.564a8.152 8.152 0 0 1 -8.335-.927 55.217 55.217 0 0 1 -14.471-16.497 3.5 3.5 0 0 0 -3.084-1.845h-16.559a3.5 3.5 0 0 0 -3.5 3.5v16.554a3.5 3.5 0 0 0 1.846 3.084 55.236 55.236 0 0 1 16.491 14.476 8.147 8.147 0 0 1 .928 8.335l-.564 1.238c-3.013-3.61-7.788-8.1-14.106-10.178a3.5 3.5 0 0 0 -4.595 3.324v21.829a1.275 1.275 0 0 1 -1.273 1.274h-6.626a1.275 1.275 0 0 1 -1.274-1.274v-21.209a3.5 3.5 0 0 0 -4.578-3.329 27.659 27.659 0 0 0 -12.133 8.453l-.314-.449a7.816 7.816 0 0 1 2.683-11.445c4.313-2.555 14.342-9.675 14.342-20.558v-10.125a3.5 3.5 0 0 0 -3.5-3.5h-15.032a3.5 3.5 0 0 0 -3.084 1.845 55.214 55.214 0 0 1 -14.477 16.493 8.151 8.151 0 0 1 -8.335.927l-1.237-.564c3.61-3.013 8.1-7.788 10.179-14.107a3.5 3.5 0 0 0 -3.324-4.594h-21.83a1.275 1.275 0 0 1 -1.273-1.274z" fill="#424256"/></svg>