<?xml version="1.0" encoding="UTF-8"?>
<svg xmlns="http://www.w3.org/2000/svg" xmlns:xlink="http://www.w3.org/1999/xlink" width="512" height="512" viewBox="0 0 60 60" version="1.1"><!-- Generator: Sketch 51.3 (57544) - http://www.bohemiancoding.com/sketch --><title>035 - Creative Thinking</title><desc>Created with Sketch.</desc><defs/><g id="Page-1" stroke="none" stroke-width="1" fill="none" fill-rule="evenodd"><g id="035---Creative-Thinking" transform="translate(0.000000, -1.000000)" fill-rule="nonzero"><path d="M55.79,27.57 C55.6566667,27.85 55.5266667,28.15 55.4,28.47 L50.71,39.79 L49.2,37.62 L45.28,32 L48.01,25.4 C48.13,25.1 48.25,24.81 48.35,24.54 L53.72,26.73 L55.79,27.57 Z" id="Shape" fill="#C81E1E"/><path d="M53.72,26.73 C53.61,26.96 53.51,27.21 53.4,27.47 L49.2,37.62 L45.28,32 L48.01,25.4 C48.13,25.1 48.25,24.81 48.35,24.54 L53.72,26.73 Z" id="Shape" fill="#F44335"/><path d="M40.72,24.09 C40.62,26.09 40.41,28.09 40.11,30.09 L33.13,31.22 C33.12,31.11 33.12,31.01 33.11,30.9 C32.9901167,28.5161291 33.0402436,26.1267456 33.26,23.75 C33.26,23.71 33.27,23.67 33.27,23.63 L33.27,23.62 L40.72,24.09 Z" id="Shape" fill="#0377BC"/><path d="M38.72,24.09 C38.62,26.09 38.41,28.09 38.11,30.09 L33.11,30.9 C32.9901167,28.5161291 33.0402436,26.1267456 33.26,23.75 L38.72,24.09 Z" id="Shape" fill="#02A9F4"/><path d="M21.75,20.31 C21.5539835,20.3597904 21.3500055,20.3699893 21.15,20.34 C18.45,20.03 16,13.68 16,13.68 L16.19,8.56 C16.63,8.72 16.86,7.84 17.12,6.94 C17.35,6.14 17.6,5.31 18.04,5.21 C18.98,4.99 20.74,7.99 21.35,7.35 L23.79,11.85 C23.79,11.85 24.67,19.63 21.75,20.31 Z" id="Shape" fill="#DFC49C"/><path d="M21.15,20.34 C18.45,20.03 16,13.68 16,13.68 L16.19,8.56 C16.63,8.72 16.86,7.84 17.12,6.94 C17.99,7.71 18.97,9.01 19.39,8.57 L21.83,13.07 C21.83,13.07 22.39,17.98 21.15,20.34 Z" id="Shape" fill="#FFE0B2"/><path d="M29.05,34.34 L27,41 L26.44,40.52 L24.63,38.95 L21.23,36 L16.49,15.78 L16,13.68 C16.5346904,14.4751484 17.2835659,15.1026783 18.16,15.49 C18.9252272,15.8120007 19.7738967,15.8786318 20.58,15.68 C20.9349303,15.5977362 21.2777613,15.4700149 21.6,15.3 C22.8169397,14.543154 23.6230016,13.2733305 23.79,11.85 L29.05,34.34 Z" id="Shape" fill="#C81E1E"/><path d="M26.05,34.34 L24.63,38.95 L21.23,36 L16.49,15.78 C16.8562504,15.7991918 17.2233554,15.7655124 17.58,15.68 C17.778809,15.6347972 17.9729797,15.5711895 18.16,15.49 C18.9252272,15.8120007 19.7738967,15.8786318 20.58,15.68 C20.9349303,15.5977362 21.2777613,15.4700149 21.6,15.3 L26.05,34.34 Z" id="Shape" fill="#F44335"/><path d="M17.08,36.57 L17,49 L14.01,47.89 L9.11,46.08 L1.13,26.83 C1.02735895,26.5847269 1.02662171,26.3086756 1.12795122,26.0628578 C1.22928072,25.8170399 1.42433352,25.621696 1.67,25.52 L7.66,23.04 L9.99,22.08 C10.5008641,21.8709636 11.0848377,22.1116856 11.3,22.62 L12.06,24.47 L12.44,25.39 L12.82,26.31 L13.59,28.16 L13.97,29.08 L14.36,30.01 L15.12,31.86 L15.5,32.78 L15.88,33.7 L17.04,36.48 L17.08,36.57 Z" id="Shape" fill="#FEC108"/><path d="M14.08,37.57 L14.01,47.89 L9.11,46.08 L1.13,26.83 C1.02735895,26.5847269 1.02662171,26.3086756 1.12795122,26.0628578 C1.22928072,25.8170399 1.42433352,25.621696 1.67,25.52 L7.66,23.04 C7.9434875,23.1379906 8.17466559,23.3474957 8.3,23.62 L9.06,25.47 L9.44,26.39 L9.82,27.31 L10.59,29.16 L10.97,30.08 L11.36,31.01 L12.12,32.86 L12.5,33.78 L12.88,34.7 L14.04,37.48 L14.08,37.57 Z" id="Shape" fill="#FFDC00"/><path d="M59,53 C59,54.8565154 58.2625021,56.6369928 56.9497475,57.9497475 C55.6369928,59.2625021 53.8565154,60 52,60 L8,60 C4.42329822,60.0009786 1.42115381,57.3054358 1.03830213,53.7492832 C0.655450442,50.1931306 3.01505114,46.920348 6.51,46.16 L6.52,46.16 C6.68045513,46.1179883 6.84451488,46.091203 7.01,46.08 C7.33681634,46.0227784 7.66823621,45.995997 8,46 C8.67727824,45.998101 9.35115423,46.095813 10,46.29 C10.1033,41.1545315 13.9067338,36.8476398 18.99,36.11 C19.4901168,36.0378379 19.994705,36.0010798 20.5,36 C21.8402327,35.997938 23.1681236,36.2560446 24.41,36.76 C25.2614903,37.1009559 26.064921,37.551415 26.8,38.1 C28.4477947,33.7299768 32.3923043,30.6414605 37.03,30.09 C37.5176581,30.0295297 38.0086073,29.9994715 38.5,30 C42.4606409,30.0044702 46.1853663,31.8836231 48.5424733,35.0665059 C50.8995803,38.2493887 51.6107856,42.3602258 50.46,46.15 C50.45,46.16 50.45,46.16 50.45,46.17 C50.47,46.17 50.48,46.16 50.5,46.16 C50.9932553,46.0557786 51.495859,46.0021676 52,46 C53.8565154,46 55.6369928,46.7374979 56.9497475,48.0502525 C58.2625021,49.3630072 59,51.1434846 59,53 Z" id="Shape" fill="#CFD8DC"/><path d="M56,53 C56,54.8565154 55.2625021,56.6369928 53.9497475,57.9497475 C52.6369928,59.2625021 50.8565154,60 49,60 L8,60 C4.42329822,60.0009786 1.42115381,57.3054358 1.03830213,53.7492832 C0.655450442,50.1931306 3.01505114,46.920348 6.51,46.16 L6.52,46.16 C6.68,46.2 6.84,46.24 7,46.29 C6.99834083,46.2198513 7.00168263,46.1496736 7.01,46.08 C7.33681634,46.0227784 7.66823621,45.995997 8,46 C8.67727824,45.998101 9.35115423,46.095813 10,46.29 C10.1033,41.1545315 13.9067338,36.8476398 18.99,36.11 C20.78,36.36 22.409,35.92 23.79,36.95 C23.96,36.49 24.171,37.19 24.411,36.76 C25.2621418,37.1010339 26.0652321,37.5514905 26.8,38.1 C28.4477947,33.7299768 32.3923043,30.6414605 37.03,30.09 C43.2926024,30.8690877 47.9953266,36.1891249 48,42.5 C48.0025891,43.7440547 47.8171623,44.9813577 47.45,46.17 C47.9590108,46.0575207 48.47871,46.0005214 49,46 C49.4905706,45.9988561 49.9799102,46.0491307 50.46,46.15 C50.4721571,46.1569555 50.4859999,46.1604162 50.5,46.16 C53.712569,46.8647787 56.0012229,49.7110319 56,53 Z" id="Shape" fill="#F5F5F5"/><path d="M21.35,7.35 C20.7193862,8.0703034 19.8976853,8.59730149 18.98,8.87 C18.0393513,9.03104676 17.0723544,8.92360266 16.19,8.56 L16.38,3.28 C16.3999694,2.69220797 16.8086577,2.18952134 17.38,2.05 C17.47539,2.03013237 17.572563,2.02007999 17.67,2.02 C18.1542737,2.01866768 18.6000262,2.28381358 18.83,2.71 L21.35,7.35 Z" id="Shape" fill="#37474F"/><path d="M40.72,24.09 C39.8020622,24.1677546 38.8798056,24.1811207 37.96,24.13 C36.28,24.06 34.74,23.81 33.27,23.62 C33.42,22.03 33.63,20.46 33.88,18.89 C33.89,18.85 33.89,18.81 33.9,18.77 C36.15,18.91 38.42,19.05 40.73,19.19 C40.8166627,20.8222774 40.8133243,22.4580899 40.72,24.09 Z" id="Shape" fill="#707070"/><path d="M38.72,24.09 C38.46,24.11 38.21,24.13 37.96,24.13 C36.28,24.06 34.74,23.81 33.27,23.62 C33.42,22.03 33.63,20.46 33.88,18.89 C35.48,18.99 37.09,19.09 38.73,19.19 C38.8166627,20.8222774 38.8133243,22.4580899 38.72,24.09 Z" id="Shape" fill="#9E9E9E"/><path d="M40.68,19.19 L37.82,19.01 L33.9,18.77 C33.9,18.77 29.88,15.12 33.53,11.1 C35.74,8.67 36.98,6.79 37.45,5.12 C37.6301018,4.53421206 37.7112152,3.92248192 37.69,3.31 C37.6795004,3.10642681 37.7958758,2.91753892 37.9824243,2.83536874 C38.1689728,2.75319856 38.3868902,2.79483842 38.53,2.94 C40.99,5.35 46.55,12.08 40.68,19.19 Z" id="Shape" fill="#624421"/><path d="M37.82,19.01 L33.9,18.77 C33.9,18.77 29.88,15.12 33.53,11.1 C35.74,8.67 36.98,6.79 37.45,5.12 C39.86,8.3 42.21,13.53 37.82,19.01 Z" id="Shape" fill="#825A2C"/><path d="M58.94,22.11 C58.9725197,22.2705106 58.928124,22.4369944 58.82,22.56 C57.5415147,24.0521213 56.517786,25.7448211 55.79,27.57 C55.4365927,27.8334741 55.0360687,28.0269476 54.61,28.14 C53.7742586,28.3712876 52.8900688,28.3608853 52.06,28.11 C51.810613,28.0497457 51.566489,27.9694857 51.33,27.87 C51.32,27.87 51.32,27.86 51.31,27.86 C50.2437378,27.4621221 49.349224,26.7054978 48.78,25.72 C48.567443,25.3554577 48.4218157,24.9558294 48.35,24.54 C49.1265753,22.7187513 49.6027524,20.7836487 49.76,18.81 C49.7680462,18.6449128 49.8581212,18.4947877 50,18.41 L54.77,15.43 L55.61,14.91 L57.06,14 L57.45,15.67 L58.94,22.11 Z" id="Shape" fill="#FEC108"/><path d="M56.32,22.11 C56.342222,22.2700388 56.2989587,22.4322761 56.2,22.56 C54.9128707,24.0476954 53.8851957,25.7413309 53.16,27.57 C52.8298579,27.816436 52.4568889,27.9995298 52.06,28.11 C51.810613,28.0497457 51.566489,27.9694857 51.33,27.87 C51.32,27.87 51.32,27.86 51.31,27.86 C50.2437378,27.4621221 49.349224,26.7054978 48.78,25.72 C48.567443,25.3554577 48.4218157,24.9558294 48.35,24.54 C49.1265753,22.7187513 49.6027524,20.7836487 49.76,18.81 C49.7680462,18.6449128 49.8581212,18.4947877 50,18.41 L54.77,15.43 L54.83,15.67 L56.32,22.11 Z" id="Shape" fill="#FFDC00"/><path d="M52,61 L8,61 C5.01361195,60.9971049 2.27746761,59.331064 0.904011429,56.6792457 C-0.469444748,54.0274275 -0.251519088,50.8313851 1.46918556,48.3905456 C3.1898902,45.9497061 6.12685995,44.6704927 9.086,45.073 C9.83452395,39.3324832 14.7109602,35.0289663 20.5,35 C22.5605227,34.9958385 24.5838646,35.5486642 26.356,36.6 C29.3087465,30.5101463 36.3144276,27.5478386 42.7404013,29.6719602 C49.166375,31.7960819 53.026417,38.3500814 51.768,45 C54.6261247,44.9585571 57.2892504,46.4450538 58.7542033,48.899541 C60.2191562,51.3540282 60.2633752,54.403611 58.8702033,56.8995411 C57.4770315,59.3954711 54.8581247,60.9585572 52,61 Z M8,47 C4.6862915,47 2,49.6862915 2,53 C2,56.3137085 4.6862915,59 8,59 L52,59 C55.3137085,59 58,56.3137085 58,53 C58,49.6862915 55.3137085,47 52,47 C51.5510461,47.0005462 51.1034596,47.0494957 50.665,47.146 C50.3173755,47.2223776 49.955354,47.1082324 49.7144054,46.8462781 C49.4734568,46.5843237 49.3898991,46.2140443 49.495,45.874 C49.831707,44.7810507 50.0019482,43.6436372 50,42.5 C50,36.9422093 46.0253255,32.1797039 40.5571825,31.185496 C35.0890395,30.1912882 29.6923423,33.2499079 27.736,38.452 C27.6253851,38.7459553 27.383092,38.9708637 27.0817289,39.0593264 C26.7803658,39.1477891 26.4549502,39.0895272 26.203,38.902 C23.3520937,36.7609539 19.5423999,36.3964337 16.3372174,37.9580194 C13.1320348,39.5196051 11.0710565,42.7443547 11,46.309 C10.9942747,46.6221715 10.8421434,46.9145683 10.5889724,47.0989962 C10.3358014,47.2834241 10.0108425,47.338574 9.711,47.248 C9.15596677,47.0816376 8.57942611,46.9980712 8,47 Z" id="Shape" fill="#000000"/><path d="M9.11,47.081 C8.70532761,47.0809343 8.34058485,46.836983 8.186,46.463 L0.206,27.213 C-0.212979105,26.1923811 0.270867195,25.0249847 1.289,24.6 L9.608,21.161 C10.6239386,20.7510209 11.7815445,21.2251514 12.218,22.23 L17.963,36.1 C18.1810408,36.6123433 17.9577511,37.2055806 17.456,37.447 C17.2237292,37.5592718 16.9559941,37.5731195 16.7133799,37.4854095 C16.4707657,37.3976995 16.2737806,37.2158459 16.167,36.981 L16.126,36.891 L10.375,23 L2.052,26.444 L10.034,45.7 C10.1623917,46.0087194 10.1279986,46.3611799 9.94234731,46.639255 C9.75669604,46.9173301 9.44435323,47.084223 9.11,47.084 L9.11,47.081 Z" id="Shape" fill="#000000"/><path d="M7.824,28.3 C7.34675219,28.3002902 6.93581021,27.9632981 6.84263529,27.495234 C6.74946037,27.0271699 7.00002285,26.5584958 7.441,26.376 L12.06,24.462 C12.5703111,24.2504749 13.1554749,24.4926889 13.367,25.003 C13.5785251,25.5133111 13.3363111,26.0984749 12.826,26.31 L8.207,28.227 C8.08525764,28.27588 7.95518691,28.3006715 7.824,28.3 Z" id="Shape" fill="#000000"/><path d="M11.2,31.233 C10.7225636,31.233769 10.3111762,30.8969282 10.2177303,30.4287253 C10.1242844,29.9605225 10.3748476,29.4915668 10.816,29.309 L13.588,28.161 C14.0983111,27.9497511 14.6832511,28.1921889 14.8945,28.7025 C15.1057489,29.2128111 14.8633111,29.7977511 14.353,30.009 L11.582,31.157 C11.4607595,31.2067315 11.331043,31.2325389 11.2,31.233 Z" id="Shape" fill="#000000"/><path d="M10.886,35.694 C10.4081851,35.6957313 9.99590248,35.3591936 9.90191371,34.8907107 C9.80792493,34.4222278 10.058493,33.9527065 10.5,33.77 L15.12,31.856 C15.6303111,31.6447511 16.2152511,31.8871889 16.4265,32.3975 C16.6377489,32.9078111 16.3953111,33.4927511 15.885,33.704 L11.266,35.618 C11.1454117,35.6675755 11.0163798,35.6933819 10.886,35.694 Z" id="Shape" fill="#000000"/><path d="M21.229,37 C20.7651705,36.9992294 20.3627526,36.6796135 20.257,36.228 L15.027,13.908 C14.9120592,13.37487 15.245493,12.8479596 15.7765034,12.7235935 C16.3075138,12.5992275 16.8402477,12.9232758 16.974,13.452 L22.204,35.772 C22.2736647,36.0694981 22.2034972,36.3825209 22.0135047,36.621814 C21.8235123,36.8611071 21.5345457,37.0004091 21.229,37 Z" id="Shape" fill="#000000"/><path d="M29.049,35.34 C28.5845002,35.3395843 28.1814413,35.0193742 28.076,34.567 L22.816,12.078 C22.7347221,11.7300233 22.8452615,11.3651183 23.1059792,11.1207412 C23.3666969,10.8763641 23.7379836,10.7896416 24.0799792,10.8932412 C24.4219748,10.9968408 24.6827221,11.2750233 24.764,11.623 L30.023,34.112 C30.1478555,34.6492883 29.81407,35.1862087 29.277,35.312 C29.2024398,35.3306693 29.125862,35.3400736 29.049,35.34 Z" id="Shape" fill="#000000"/><path d="M19.617,16.8 C17.7949604,16.7055814 16.1306024,15.7372819 15.148,14.2 C15.0453747,14.0316481 14.9939513,13.8370729 15,13.64 L15.376,3.245 C15.413582,2.20435428 16.1430676,1.31763228 17.1569551,1.08017039 C18.1708425,0.842708505 19.2182173,1.31327325 19.714,2.229 L24.668,11.375 C24.762054,11.5483292 24.8027603,11.745598 24.785,11.942 C24.771,12.101 24.385,15.819 20.807,16.658 C20.4171317,16.7510377 20.0178137,16.7986874 19.617,16.8 Z M17.012,13.374 C17.7662877,14.4361696 19.0720813,14.9590346 20.351,14.711 C21.6086265,14.3664552 22.5477133,13.3170256 22.751,12.029 L17.956,3.181 C17.8898643,3.05796305 17.7494105,2.99459551 17.6134016,3.02643237 C17.4773926,3.05826923 17.379656,3.17739221 17.375,3.317 L17.012,13.374 Z" id="Shape" fill="#000000"/><path d="M53.384,29.3 C52.5421787,29.292038 51.710358,29.1166316 50.937,28.784 C49.0582165,28.1459304 47.6912812,26.5144767 47.392,24.553 C47.3551773,24.1905291 47.5184044,23.8367152 47.8180566,23.6294722 C48.1177088,23.4222293 48.5063609,23.394357 48.8325194,23.5567199 C49.1586779,23.7190827 49.3707226,24.045984 49.386,24.41 C49.646135,25.6070717 50.5301145,26.5716561 51.7,26.935 C52.7893894,27.5075925 54.1031641,27.4467802 55.135,26.776 C55.5577179,26.4278515 56.181831,26.4844675 56.535,26.903 C56.8900982,27.3159284 56.8454392,27.9380276 56.435,28.296 C55.5608388,28.9661329 54.4852871,29.3200673 53.384,29.3 Z" id="Shape" fill="#000000"/><path d="M18.194,9.956 C17.3919792,9.93948981 16.5987638,9.78524409 15.849,9.5 C15.3293001,9.31305161 15.0595516,8.74019995 15.2465,8.22050001 C15.4334484,7.70080006 16.0063001,7.43105162 16.526,7.618 C17.2281678,7.91547427 17.9992513,8.01172986 18.753,7.896 C19.4804776,7.6653662 20.1291461,7.23626835 20.626,6.657 C21.0084572,6.25852655 21.6415266,6.24554281 22.04,6.628 C22.4384734,7.01045719 22.4514572,7.64352655 22.069,8.042 C21.3094892,8.90511234 20.3166204,9.5302134 19.21,9.842 C18.8768287,9.91885432 18.5359188,9.95710603 18.194,9.956 Z" id="Shape" fill="#000000"/><path d="M25.56,37.95 C25.0957967,37.9496931 24.6928383,37.6299769 24.587,37.178 L21.657,24.678 C21.5420592,24.14487 21.875493,23.6179596 22.4065034,23.4935935 C22.9375138,23.3692275 23.4702477,23.6932758 23.604,24.222 L26.534,36.722 C26.6036245,37.0193272 26.5335789,37.3321714 26.3438151,37.5714218 C26.1540514,37.8106722 25.8653703,37.9501035 25.56,37.95 Z" id="Shape" fill="#000000"/><path d="M21.491,20.579 C21.0267967,20.5786931 20.6238383,20.2589769 20.518,19.807 L19.605,15.913 C19.4790791,15.3750747 19.8130747,14.8369209 20.351,14.711 C20.8889253,14.5850791 21.4270791,14.9190747 21.553,15.457 L22.465,19.351 C22.5346245,19.6483272 22.4645789,19.9611714 22.2748151,20.2004218 C22.0850514,20.4396722 21.7963703,20.5791035 21.491,20.579 Z" id="Shape" fill="#000000"/><path d="M45.279,33 C44.9451771,32.9999458 44.6333953,32.8333202 44.4478531,32.5558102 C44.2623109,32.2783002 44.2274797,31.9265065 44.355,31.618 L47.086,25.018 C47.218268,24.6816801 47.521707,24.4428933 47.8796978,24.3934113 C48.2376886,24.3439293 48.5945239,24.4914521 48.8130628,24.779283 C49.0316018,25.0671138 49.0778373,25.4504631 48.934,25.782 L46.204,32.382 C46.0492762,32.7563196 45.6840364,33.0003392 45.279,33 Z" id="Shape" fill="#000000"/><path d="M50.71,40.791 C50.3756468,40.791223 50.063304,40.6243301 49.8776527,40.346255 C49.6920014,40.0681799 49.6576083,39.7157194 49.786,39.407 L54.477,28.087 C54.6086192,27.7493759 54.91259,27.5093736 55.2715371,27.4596677 C55.6304841,27.4099618 55.9882354,27.5583308 56.2066488,27.8474834 C56.4250622,28.1366361 56.4699579,28.5213225 56.324,28.853 L51.634,40.173 C51.4794151,40.546983 51.1146724,40.7909343 50.71,40.791 Z" id="Shape" fill="#000000"/><path d="M55.4,29.465 C55.2689468,29.4646401 55.1392112,29.4388288 55.018,29.389 C54.7728989,29.2874718 54.5781868,29.0927091 54.4767224,28.8475816 C54.375258,28.6024541 54.3753579,28.3270539 54.477,28.082 C55.2935022,25.9120953 56.4514277,23.8865696 57.907,22.082 L56.792,17.269 L55.305,20.85 C55.0934749,21.3603111 54.5083111,21.602525 53.998,21.3909999 C53.4876889,21.1794749 53.245475,20.5943111 53.457,20.084 L56.136,13.617 C56.301493,13.2137826 56.7090851,12.9641981 57.1434627,13.0000914 C57.5778403,13.0359847 57.9389367,13.3490872 58.036,13.774 L59.914,21.884 C60.0282907,22.3721004 59.8896484,22.8849644 59.545,23.249 C58.1553823,24.915396 57.0652349,26.8101277 56.323,28.849 C56.1679323,29.2218624 55.8038222,29.4648655 55.4,29.465 Z" id="Shape" fill="#000000"/><path d="M48.006,26.4 C47.8746153,26.3997188 47.7445373,26.3739069 47.623,26.324 C47.3778989,26.2224718 47.1831868,26.0277091 47.0817224,25.7825816 C46.980258,25.5374541 46.9803579,25.2620539 47.082,25.017 C47.9981029,23.0520084 48.5668465,20.9431573 48.763,18.784 C48.7759726,18.2812106 49.0413916,17.8187951 49.469,17.554 L56.53,13.147 C56.8989688,12.9166651 57.3745116,12.9512509 57.7062698,13.232549 C58.0380281,13.5138471 58.1499046,13.9773348 57.983,14.379 L55.305,20.85 C55.0934749,21.3603111 54.5083111,21.602525 53.998,21.3909999 C53.4876889,21.1794749 53.245475,20.5943111 53.457,20.084 L54.941,16.5 L50.749,19.116 C50.5024399,21.4224685 49.888341,23.6746147 48.93,25.787 C48.7738619,26.1590222 48.4094588,26.4007744 48.006,26.4 Z" id="Shape" fill="#000000"/><path d="M33.129,32.22 C32.6007731,32.2210828 32.1628055,31.8111451 32.129,31.284 C31.9744889,28.7014992 32.0233061,26.1108465 32.275,23.536 C32.42,21.957 32.628,20.345 32.91,18.61 C32.985194,18.0984476 33.4434733,17.7323484 33.959,17.772 C36.205,17.912 38.4816667,18.0513333 40.789,18.19 C41.2956596,18.2212366 41.6985352,18.6271219 41.726,19.134 C41.8954467,22.8479872 41.6856949,26.5695732 41.1,30.241 C41.0508578,30.597535 40.8139155,30.9001601 40.4795827,31.0334034 C40.14525,31.1666466 39.7651062,31.1099518 39.484202,30.8849517 C39.2032978,30.6599517 39.06497,30.3013586 39.122,29.946 C39.6364418,26.7011874 39.8553396,23.4163819 39.776,20.132 L34.752,19.825 C34.552,21.179 34.39,22.46 34.274,23.719 C34.0324794,26.1904919 33.9853346,28.6771294 34.133,31.156 C34.1499874,31.4206893 34.0611246,31.6812847 33.885963,31.8804514 C33.7108013,32.0796181 33.463691,32.2010391 33.199,32.218 L33.129,32.22 Z" id="Shape" fill="#000000"/><path d="M40.674,20.188 C40.2868864,20.1876657 39.9347397,19.9639345 39.7699696,19.6136377 C39.6051996,19.2633408 39.6574084,18.8494119 39.904,18.551 C41.605824,16.6717402 42.4485659,14.1688764 42.23,11.643 C41.7891468,8.94055405 40.5294164,6.43854589 38.621,4.475 C38.301,6.59 36.921,8.843 34.27,11.775 C33.4351848,12.62378 32.9936348,13.7831677 33.0523381,14.9722421 C33.1110414,16.1613165 33.6646413,17.2715748 34.579,18.034 C34.9874145,18.4059638 35.0169637,19.0385854 34.645,19.447 C34.2730362,19.8554145 33.6404146,19.8849637 33.232,19.513 C32.4442461,18.7503272 31.8258413,17.8303863 31.417,16.813 C30.537151,14.606108 31.0788905,12.0862882 32.788,10.436 C36.588,6.236 37.038,4.198 36.523,2.264 C36.4077827,1.84691276 36.5738941,1.40303716 36.9346283,1.16406503 C37.2953624,0.9250929 37.7688732,0.945244014 38.108,1.214 C38.333,1.391 43.6,5.6 44.219,11.43 C44.5056142,14.494084 43.5005071,17.5387648 41.446,19.83 C41.2548119,20.0583337 40.9718031,20.1895735 40.674,20.188 Z" id="Shape" fill="#000000"/><path d="M38.685,16.7 C38.3062279,16.7 37.9599648,16.4859976 37.7905728,16.1472136 C37.6211808,15.8084296 37.6577368,15.4030176 37.885,15.1 C38.7612783,13.8991326 39.1196669,12.3971421 38.88,10.93 C38.7784511,10.5817069 38.8735052,10.2057331 39.1283835,9.94755236 C39.3832617,9.68937158 39.7579807,9.58948531 40.1075522,9.68654207 C40.4571236,9.78359883 40.7267094,10.0623731 40.812,10.415 C41.2129189,12.4773188 40.730449,14.6132456 39.482,16.303 C39.2931553,16.552833 38.9981753,16.6997678 38.685,16.7 Z" id="Shape" fill="#000000"/><path d="M38.377,25.084 C37.0732882,25.0628746 35.7725642,24.9522813 34.484,24.753 C34.145,24.708 33.811,24.663 33.484,24.623 C32.9355812,24.5567258 32.5447258,24.0584188 32.611,23.51 C32.6772742,22.9615812 33.1755812,22.5707258 33.724,22.637 C34.062,22.678 34.405,22.724 34.754,22.771 C36.45215,23.0636101 38.1802438,23.1425569 39.898,23.006 C40.4380752,22.9631073 40.9140835,23.3581012 40.9715327,23.8968225 C41.0289818,24.4355437 40.646975,24.9220363 40.11,24.994 C39.5343574,25.0549556 38.9558601,25.0849988 38.377,25.084 Z" id="Shape" fill="#000000"/><path d="M25.78,54 C25.3792008,54.0000139 25.0171133,53.7607213 24.86,53.392 C24.536386,52.6360704 24.3696828,51.8222867 24.37,51 C24.3683452,48.189482 26.3178303,45.754431 29.0606066,45.1410858 C31.8033828,44.5277405 34.604374,45.9004803 35.8,48.444 C36.0352733,48.9438177 35.8208176,49.5397266 35.321,49.7749999 C34.8211823,50.0102732 34.2252733,49.7958177 33.99,49.296 C33.337698,47.8872558 31.9224013,46.989598 30.37,47 C28.160861,47 26.37,48.790861 26.37,51 C26.3697585,51.5528385 26.4820372,52.0999423 26.7,52.608 C26.8039737,52.8519982 26.8067566,53.1273072 26.7077364,53.3733573 C26.6087162,53.6194075 26.4160049,53.8160419 26.172,53.92 C26.0481479,53.9730935 25.9147522,54.0003171 25.78,54 Z" id="Shape" fill="#000000"/><path d="M41,51.33 C40.6082682,51.33007 40.2525687,51.101406 40.09,50.745 C39.6008636,49.6829732 38.5392526,49.001903 37.37,49 C36.6949437,48.9984982 36.0398065,49.2286433 35.514,49.652 C35.0821133,49.9963495 34.4528495,49.9253867 34.1085,49.4935 C33.7641505,49.0616133 33.8351133,48.4323495 34.267,48.088 C35.1461855,47.3806281 36.2415806,46.9965514 37.37,47 C39.3227138,47.0017705 41.0957188,48.1401647 41.91,49.915 C42.0512095,50.2245793 42.0253118,50.5847181 41.8412605,50.8709078 C41.6572092,51.1570975 41.3402638,51.3300608 41,51.33 Z" id="Shape" fill="#000000"/><path d="M15,46 C14.4477153,46 14,45.5522847 14,45 C14,41.322 17.533,40.1 17.684,40.051 C18.2086705,39.8748212 18.7768211,40.1573295 18.9529999,40.682 C19.1291788,41.2066705 18.8466705,41.7748211 18.322,41.951 C17.0007678,42.4016623 16.0832063,43.6065052 16,45 C16,45.5522847 15.5522847,46 15,46 Z" id="Shape" fill="#000000"/><path d="M32,39 C31.9177273,39.0003241 31.8357438,38.9902442 31.756,38.97 C31.2202929,38.8357826 30.8948099,38.292714 31.029,37.757 C31.7005774,34.9945409 34.1573242,33.0372901 37,33 C37.5522847,32.9986193 38.0011193,33.4452153 38.0025,33.9975 C38.0038807,34.5497847 37.5572847,34.9986193 37.005,35 C35.0827329,35.04782 33.4301708,36.376013 32.97,38.243 C32.8585409,38.6879311 32.4586794,38.9999879 32,39 Z" id="Shape" fill="#000000"/></g></g></svg>
