<svg id="Capa_1" enable-background="new 0 0 512.001 512.001" height="512" viewBox="0 0 512.001 512.001" width="512" xmlns="http://www.w3.org/2000/svg"><g id="XMLID_1744_"><g id="XMLID_2178_" fill="#ffbf9e"><path id="XMLID_2200_" d="m131.667 339.757-73.76-61.644-.044-.613v-111.833c0-13.213-10.712-23.925-23.925-23.925h-.011c-13.214 0-23.926 10.712-23.925 23.926l.011 195.717c.001 23.583 6.526 46.705 18.854 66.809l45.253 73.806h114.888v-39.593c0-47.359-21.001-92.28-57.341-122.65z"/><path id="XMLID_2192_" d="m380.334 339.757 73.76-61.644.044-.613v-111.833c0-13.213 10.712-23.925 23.925-23.925h.011c13.214 0 23.926 10.712 23.925 23.926l-.011 195.717c-.001 23.583-6.526 46.705-18.854 66.809l-45.253 73.806h-114.888v-39.593c0-47.359 21.001-92.28 57.341-122.65z"/></g><path id="XMLID_2274_" d="m352 106c0-53.019-42.981-96-96-96s-96 42.981-96 96c0 45.449 31.584 83.518 74 93.464v32.725h-34v44h34v40h44v-40h34v-44h-34v-32.725c42.416-9.946 74-48.015 74-93.464zm-147.936-.064c0-28.637 23.299-51.936 51.936-51.936s51.937 23.299 51.937 51.937-23.299 51.936-51.937 51.936-51.936-23.299-51.936-51.937z" fill="#f6838d"/><g id="XMLID_692_"><path id="XMLID_695_" d="m138.08 332.084-70.218-58.683v-107.734c0-18.706-15.219-33.925-33.937-33.925-9.062 0-17.582 3.529-23.989 9.937-6.407 6.408-9.936 14.927-9.936 23.99l.011 195.717c.001 25.438 7.031 50.348 20.329 72.036l45.255 73.806c1.887 3.077 5.171 4.774 8.534 4.773 1.782 0 3.587-.477 5.218-1.476 4.708-2.888 6.185-9.045 3.297-13.753l-45.254-73.805c-11.368-18.54-17.377-39.835-17.378-61.582l-.002-37.588 70.086 86.409c3.48 4.29 9.778 4.946 14.066 1.467 4.29-3.479 4.946-9.776 1.467-14.066l-74.459-91.799c-2.851-3.515-3.867-8.051-2.787-12.446s4.083-7.945 8.239-9.738c4.998-2.155 10.694-1.328 14.869 2.161l73.764 61.646c34.161 28.55 53.753 70.458 53.753 114.978v39.591c0 5.522 4.477 10 10 10s10-4.478 10-10v-39.593c0-50.462-22.207-97.963-60.928-130.323zm-109.384-66.824c-3.205 1.384-6.119 3.208-8.69 5.391l-.006-104.983c0-3.72 1.448-7.217 4.078-9.847 2.63-2.631 6.127-4.079 9.858-4.079 7.678 0 13.925 6.247 13.925 13.925v97.222c-6.347-1.043-12.979-.299-19.165 2.371z"/><path id="XMLID_698_" d="m502.064 141.679c-6.408-6.407-14.927-9.937-24-9.937-18.707 0-33.925 15.219-33.925 33.925v107.735l-70.218 58.682c-38.721 32.36-60.928 79.861-60.928 130.323v39.593c0 5.522 4.477 10 10 10s10-4.478 10-10v-39.593c0-44.52 19.592-86.428 53.753-114.978l73.764-61.646c4.175-3.489 9.872-4.318 14.869-2.161 4.156 1.793 7.158 5.343 8.238 9.738s.064 8.932-2.787 12.446l-74.458 91.799c-3.479 4.29-2.822 10.587 1.467 14.066s10.587 2.821 14.066-1.467l70.086-86.41-.002 37.59c-.001 21.746-6.01 43.041-17.378 61.581l-45.255 73.806c-2.887 4.708-1.411 10.865 3.297 13.753 1.631 1 3.436 1.476 5.218 1.476 3.363 0 6.647-1.696 8.534-4.773l45.255-73.806c13.298-21.688 20.328-46.598 20.329-72.035l.011-195.718c.001-9.062-3.528-17.581-9.936-23.989zm-18.76 123.581c-6.186-2.669-12.818-3.414-19.166-2.371v-97.222c0-7.678 6.247-13.925 13.937-13.925 3.72 0 7.217 1.448 9.847 4.079 2.63 2.63 4.078 6.127 4.078 9.846l-.006 104.984c-2.57-2.183-5.484-4.008-8.69-5.391z"/><path id="XMLID_699_" d="m322 276.188v-44c0-5.522-4.477-10-10-10h-24v-15.107c26.915-8.495 49.381-27.408 62.398-52.82 2.518-4.915.574-10.941-4.341-13.459-4.917-2.521-10.942-.574-13.459 4.342-11.56 22.568-32.292 38.818-56.88 44.584-4.521 1.061-7.717 5.093-7.717 9.736v32.725c0 5.522 4.477 10 10 10h24v24h-24c-5.523 0-10 4.478-10 10v30h-24v-30c0-5.522-4.477-10-10-10h-24v-24h24c5.523 0 10-4.478 10-10v-32.725c0-4.644-3.196-8.676-7.717-9.736-39.027-9.152-66.284-43.582-66.284-83.728 0-47.421 38.58-86 86-86 32.396 0 61.726 17.915 76.545 46.753 2.524 4.912 8.553 6.847 13.465 4.324 4.913-2.524 6.848-8.553 4.324-13.465-18.261-35.536-54.407-57.612-94.334-57.612-58.449 0-106 47.552-106 106 0 24.043 8.273 47.591 23.296 66.306 13.109 16.33 30.897 28.479 50.704 34.768v15.115h-24c-5.523 0-10 4.478-10 10v44c0 5.522 4.477 10 10 10h24v30c0 5.522 4.477 10 10 10h44c5.523 0 10-4.478 10-10v-30h24c5.523-.001 10-4.478 10-10.001z"/><path id="XMLID_702_" d="m256 44c-34.152 0-61.937 27.784-61.937 61.937s27.785 61.937 61.937 61.937 61.937-27.784 61.937-61.937-27.785-61.937-61.937-61.937zm0 103.873c-23.124 0-41.937-18.813-41.937-41.937s18.813-41.936 41.937-41.936 41.937 18.813 41.937 41.937-18.812 41.936-41.937 41.936z"/><path id="XMLID_703_" d="m342 106c0 2.63 1.07 5.21 2.93 7.069 1.86 1.86 4.44 2.931 7.07 2.931s5.21-1.07 7.07-2.931c1.86-1.859 2.93-4.439 2.93-7.069s-1.07-5.21-2.93-7.07-4.44-2.93-7.07-2.93-5.21 1.069-7.07 2.93c-1.86 1.86-2.93 4.44-2.93 7.07z"/></g></g></svg>