<svg height="512" viewBox="0 0 52 60" width="512" xmlns="http://www.w3.org/2000/svg"><g id="Page-1" fill="none" fill-rule="evenodd"><g id="014---In-Vitro-Fertilisation" fill-rule="nonzero" transform="translate(-1)"><rect id="Rectangle-path" fill="#3f51b5" height="6" rx="2" width="20" x="17" y="1"/><path id="Shape" d="m35 1h-3c1.1045695 0 2 .8954305 2 2v2c0 1.1045695-.8954305 2-2 2h3c1.1045695 0 2-.8954305 2-2v-2c0-1.1045695-.8954305-2-2-2z" fill="#283593"/><path id="Shape" d="m52 39c.0066395 7.8728177-3.7039902 15.2866632-10.01 20h-29.94c-7.16882849-5.3348424-10.93843364-14.0953017-9.88343679-22.9688369 1.05499686-8.8735352 6.77358826-16.5059191 14.99343679-20.0111631 1.1106675-.4685544 1.8346681-1.5545553 1.84-2.76v-6.26h16v6.26c.0014277 1.1983595.7175062 2.2803461 1.82 2.75 9.2079179 3.9312626 15.1813475 12.9779784 15.18 22.99z" fill="#02a9f4"/><path id="Shape" d="m36.82 16.01c-1.1024938-.4696539-1.8185723-1.5516405-1.82-2.75v-6.26h-3v6.26c.0014277 1.1983595.7175062 2.2803461 1.82 2.75 8.2155903 3.507327 13.9346375 11.1327903 15.0012313 20.0018175 1.0665939 8.8690272-2.6814501 17.6330078-9.8312313 22.9881825h3c7.1497812-5.3551747 10.8978252-14.1191553 9.8312313-22.9881825-1.0665938-8.8690272-6.785641-16.4944905-15.0012313-20.0018175z" fill="#0377bc"/><circle id="Oval" cx="27" cy="49" fill="#ffdc00" r="6"/><path id="Shape" d="m27 43c-.5064496.0029108-1.0104803.0701149-1.5.2 2.6479943.6813094 4.498931 3.0687622 4.498931 5.803s-1.8509367 5.1216906-4.498931 5.803c2.2531797.5872914 4.6426897-.1820582 6.1299399-1.9736543 1.4872502-1.7915962 1.8036517-4.2818866.8116819-6.3884777s-3.1131667-3.4490442-5.4416218-3.443868z" fill="#fec108"/><ellipse id="Oval" cx="27" cy="33" fill="#ffeb3a" rx="3" ry="4"/><path id="Shape" d="m27 29c-.548154.0112206-1.0765547.2067289-1.5.555.9566284.8902603 1.5000039 2.1382095 1.5000039 3.445s-.5433755 2.5547397-1.5000039 3.445c.4234453.3482711.951846.5437794 1.5.555 1.657 0 3-1.791 3-4s-1.343-4-3-4z" fill="#fdd834"/><ellipse id="Oval" cx="16" cy="37" fill="#ffeb3a" rx="3" ry="4"/><path id="Shape" d="m16 33c-.548154.0112206-1.0765547.2067289-1.5.555.9566284.8902603 1.5000039 2.1382095 1.5000039 3.445s-.5433755 2.5547397-1.5000039 3.445c.4234453.3482711.951846.5437794 1.5.555 1.657 0 3-1.791 3-4s-1.343-4-3-4z" fill="#fdd834"/><ellipse id="Oval" cx="38" cy="37" fill="#ffeb3a" rx="3" ry="4"/><path id="Shape" d="m38 33c-.548154.0112206-1.0765547.2067289-1.5.555.9566284.8902603 1.5000039 2.1382095 1.5000039 3.445s-.5433755 2.5547397-1.5000039 3.445c.4234453.3482711.951846.5437794 1.5.555 1.657 0 3-1.791 3-4s-1.343-4-3-4z" fill="#fdd834"/><g fill="#f5f5f5"><circle id="Oval" cx="15" cy="48" r="1"/><circle id="Oval" cx="45" cy="43" r="1"/><circle id="Oval" cx="39" cy="48" r="1"/><circle id="Oval" cx="10" cy="31" r="1"/><circle id="Oval" cx="33" cy="24" r="1"/></g><path id="Shape" d="m11.45 59.8c.1730962.1298221.3836298.2.6.2h29.94c.2163702 0 .4269038-.0701779.6-.2 7.4357388-5.5696265 11.3335341-14.6843811 10.2240279-23.9082602-1.1095062-9.2238792-7.0576034-17.1543078-15.6020279-20.8017398-.7343029-.3119034-1.2113522-1.0322005-1.212-1.83v-5.444c1.1943509-.42225455 1.9947486-1.54921457 2-2.816v-2c0-1.65685425-1.3431458-3-3-3h-16c-1.6568542 0-3 1.34314575-3 3v2c.0052514 1.26678543.8056491 2.39374545 2 2.816v5.444c-.0078717.8041584-.4922296 1.5269633-1.233 1.84-8.5490312 3.6450917-14.49692875 11.5826325-15.59466087 20.8112625-1.09773212 9.22863 2.82222962 18.3399383 10.27766087 23.8887375zm6.55-56.8c0-.55228475.4477153-1 1-1h16c.5522847 0 1 .44771525 1 1v2c0 .55228475-.4477153 1-1 1h-16c-.5522847 0-1-.44771525-1-1zm-.443 13.938c1.4753572-.6286078 2.4356313-2.0743254 2.443-3.678v-5.26h14v5.26c-.0001155 1.5987929.954841 3.0430367 2.426 3.669 7.8331578 3.3435122 13.3067379 10.5890111 14.3819877 19.037755s-2.4090084 16.8342837-9.1549877 22.033245h-29.266c-6.7661553-5.1788613-10.27226565-13.561901-9.20785851-22.0158054 1.06440713-8.4539044 6.5391175-15.7061944 14.37785851-19.0461946z" fill="#000"/><path id="Shape" d="m12.8 55.763c.1807799.1531533.4100669.2371425.647.237h27.147c.5522847 0 1-.4477153 1-1s-.4477153-1-1-1h-8.7c2.0368069-1.9885044 2.6666341-5.0123796 1.5931118-7.6487183-1.0735224-2.6363387-3.636582-4.360064-6.4831118-4.360064s-5.4095894 1.7237253-6.4831118 4.360064c-1.0735223 2.6363387-.4436951 5.6602139 1.5931118 7.6487183h-8.294c-3.8150643-3.3476942-6.2204407-8.0162397-6.732-13.066-.02820971-.3598348-.24813963-.6765442-.57545084-.8286764s-.71120444-.116076-1.00446399.0943419c-.29325955.2104178-.45037102.56254-.41108517.9213345.57500966 5.6939319 3.33637996 10.9427939 7.703 14.642zm9.2-6.763c0-2.7614237 2.2385763-5 5-5s5 2.2385763 5 5-2.2385763 5-5 5c-2.7600532-.0033061-4.9966939-2.2399468-5-5z" fill="#000"/><path id="Shape" d="m27 38c2.206 0 4-2.243 4-5 .0914054-1.9387623-.9353226-3.758659-2.642-4.683.3970633-1.0622453.6140445-2.1833145.642-3.317-.0692024-1.2529616-.5979168-2.4364274-1.485-3.324-.1888752-.2116883-.3610576-.4376986-.515-.676-.1296397-.8323975.1311258-1.6781334.707-2.293.3789722-.3923789.3735524-1.0160848-.0121814-1.4018186s-1.0094397-.3911536-1.4018186-.0121814c-.9598556.9824995-1.4335841 2.3406676-1.293 3.707.0841112.7454418.4295353 1.4369986.975 1.952.5731239.5399596.9362955 1.2655942 1.025 2.048-.0411629 1.0625013-.2756625 2.1086-.692 3.087-1.876.413-3.308 2.452-3.308 4.913 0 2.757 1.794 5 4 5zm0-8c1.084 0 2 1.374 2 3s-.916 3-2 3-2-1.374-2-3 .916-3 2-3z" fill="#000"/><path id="Shape" d="m16 42c2.206 0 4-2.243 4-5 .0914054-1.9387623-.9353226-3.758659-2.642-4.683.3970633-1.0622453.6140445-2.1833145.642-3.317-.0692024-1.2529616-.5979168-2.4364274-1.485-3.324-.1888752-.2116883-.3610576-.4376986-.515-.676-.1296397-.8323975.1311258-1.6781334.707-2.293.3789722-.3923789.3735524-1.0160848-.0121814-1.4018186s-1.0094397-.3911536-1.4018186-.0121814c-.9598556.9824995-1.4335841 2.3406676-1.293 3.707.0841112.7454418.4295353 1.4369986.975 1.952.5731239.5399596.9362955 1.2655942 1.025 2.048-.0411629 1.0625013-.2756625 2.1086-.692 3.087-1.876.413-3.308 2.452-3.308 4.913 0 2.757 1.794 5 4 5zm0-8c1.084 0 2 1.374 2 3s-.916 3-2 3-2-1.374-2-3 .916-3 2-3z" fill="#000"/><path id="Shape" d="m38 42c2.206 0 4-2.243 4-5 .0914054-1.9387623-.9353226-3.758659-2.642-4.683.3970633-1.0622453.6140445-2.1833145.642-3.317-.0692024-1.2529616-.5979168-2.4364274-1.485-3.324-.1888752-.2116883-.3610576-.4376986-.515-.676-.1296397-.8323975.1311258-1.6781334.707-2.293.3789722-.3923789.3735524-1.0160848-.0121814-1.4018186s-1.0094397-.3911536-1.4018186-.0121814c-.9598556.9824995-1.4335841 2.3406676-1.293 3.707.0841112.7454418.4295353 1.4369986.975 1.952.5731239.5399596.9362955 1.2655942 1.025 2.048-.0411629 1.0625013-.2756625 2.1086-.692 3.087-1.876.413-3.308 2.452-3.308 4.913 0 2.757 1.794 5 4 5zm0-8c1.084 0 2 1.374 2 3s-.916 3-2 3-2-1.374-2-3 .916-3 2-3z" fill="#000"/></g></g></svg>