<svg id="Capa_1" enable-background="new 0 0 511.912 511.912" height="512" viewBox="0 0 511.912 511.912" width="512" xmlns="http://www.w3.org/2000/svg"><g><path d="m382.22 152.496 56.361-35.233c21.234-13.274 24.6-42.849 6.894-60.556-17.708-17.707-47.283-14.34-60.557 6.893l-35.233 56.361-22.097 38.105 10.262 10.466z" fill="#f9f7f8"/><g><g><g><path d="m150.954 218.31 14.273-61.875c4.25-18.423-9.743-36.01-28.65-36.01-18.907 0-32.899 17.587-28.649 36.01l14.272 61.875 6.968 31.606 17.009-1.105z" fill="#f9f7f8"/></g><g><path d="m165.538 261.647 61.875 14.272c18.423 4.25 36.01-9.743 36.01-28.65 0-18.907-17.587-32.899-36.01-28.65l-61.875 14.272-30.142 6.193v14.239z" fill="#f9f7f8"/></g><g><path d="m107.617 261.647-61.875 14.273c-18.423 4.25-36.01-9.743-36.01-28.65 0-18.907 17.587-32.899 36.01-28.65l61.875 14.272 20.267 4.896 3.866 18.339z" fill="#f9f7f8"/></g><g><path d="m119.207 205.335-26.602-42.554c-10.022-16.032-32.352-18.574-45.721-5.205-13.369 13.369-10.827 35.699 5.205 45.721l42.554 26.603 30.104 20.016 11.831-12.355z" fill="#f9f7f8"/></g><g><path d="m178.512 229.9 42.554-26.602c16.032-10.022 18.574-32.352 5.205-45.721-13.369-13.369-35.699-10.827-45.721 5.205l-26.602 42.554-22.197 35.637 11.226 15.67z" fill="#f9f7f8"/></g><g><path d="m178.512 264.64 42.554 26.602c16.032 10.022 18.574 32.352 5.205 45.721-13.369 13.369-35.699 10.827-45.721-5.205l-26.602-42.554-20.888-28.295 17.007-15.687z" fill="#f9f7f8"/></g><g><path d="m119.207 289.205-26.602 42.554c-10.022 16.032-32.352 18.574-45.721 5.205-13.369-13.369-10.827-35.699 5.205-45.721l42.554-26.602 37.107-22.663 9.518 7.987z" fill="#f9f7f8"/></g><g><path d="m152.867 277.999 14.045 60.888c4.182 18.129-9.588 35.436-28.193 35.436-18.605 0-32.374-17.307-28.193-35.436l14.045-60.888 5.401-32.994 13.695-1.496z" fill="#f9f7f8"/></g></g></g><g><g><path d="m148.678 175.501c0 8.879 2.383 17.205 6.524 24.393l10.025-43.46c1.343-5.822.86-11.558-1.02-16.684-9.545 8.942-15.529 21.656-15.529 35.751z" fill="#efedef"/><path d="m226.271 157.577c-13.369-13.369-35.699-10.827-45.721 5.205l-24.292 38.86c7.138 11.278 18.742 19.441 32.306 21.976l32.503-20.319c16.031-10.023 18.573-32.353 5.204-45.722z" fill="#efedef"/><g><path d="m288.323 194.543-81.95 18.903c-24.4 5.628-47.694-12.904-47.694-37.945 0-25.041 23.294-43.573 47.694-37.945l81.95 18.903 40.433 10.034.285 17.897z" fill="#f9f7f8"/></g><g><path d="m303.674 119.961-35.233-56.361c-13.274-21.234-42.849-24.6-60.556-6.894-17.707 17.707-14.34 47.282 6.894 60.556l56.361 35.233 45.104 26.441 16.613-13.96z" fill="#f9f7f8"/></g></g></g><path d="m263.423 247.27c0-18.907-17.587-32.899-36.01-28.65l-11.591 2.674-6.344 3.966c-12.72 7.952-20.988 21.061-22.685 35.965-.2 1.757-.297 3.51-.31 5.253l40.93 9.441c18.423 4.25 36.01-9.742 36.01-28.649z" fill="#efedef"/><path d="m200.813 301.367c9.126 9.126 21.213 14.195 34.067 14.326-.165-9.517-4.908-18.883-13.814-24.45l-34.509-21.573c.684 11.876 5.666 23.107 14.256 31.697z" fill="#efedef"/><path d="m271.139 198.507-56.361 35.233c-21.234 13.274-24.6 42.849-6.894 60.556 17.707 17.707 47.282 14.34 60.556-6.894l35.233-56.361 29.182-38.493-20.692-21.934z" fill="#f9f7f8"/><path d="m234.939 477.283h32.012v-20.056c0-16.14-13.084-29.224-29.224-29.224h-25.492c-3.601 0-6.52 2.919-6.52 6.52v13.537c0 16.139 13.084 29.223 29.224 29.223z" fill="#97da7b"/><path d="m305.517 464.769h-38.566v-20.927c0-21.163 17.156-38.319 38.319-38.319h31.324c4 0 7.243 3.243 7.243 7.243v13.684c0 21.163-17.157 38.319-38.32 38.319z" fill="#97da7b"/><g fill="#f9f7f8"><path d="m345.721 213.858 18.903 81.951c5.628 24.4-12.904 47.694-37.945 47.694-25.041 0-43.573-23.294-37.945-47.694l18.903-81.951 6.242-41.39 25.326-.767z"/><path d="m382.22 198.507 56.361 35.233c21.234 13.274 24.6 42.849 6.894 60.556-17.707 17.707-47.282 14.34-60.556-6.894l-35.233-56.361-29.363-39.692 31.141-24.856z"/><path d="m365.036 156.459 81.951-18.903c24.4-5.628 47.694 12.904 47.694 37.945 0 25.041-23.293 43.573-47.694 37.945l-81.951-18.903-43.557-12.915 3.594-21.564z"/></g><path d="m345.721 137.145 18.903-81.951c5.629-24.4-12.904-47.694-37.945-47.694-25.041 0-43.573 23.294-37.945 47.694l18.903 81.951 7.298 31.387 24.935-2.038z" fill="#faf7f7"/><circle cx="326.679" cy="175.501" fill="#fed402" r="42.823"/><path d="m309.189 175.501c0-19.241 12.69-35.516 30.156-40.917-4.003-1.238-8.257-1.906-12.667-1.906-23.651 0-42.823 19.173-42.823 42.823s19.173 42.823 42.823 42.823c4.41 0 8.663-.668 12.667-1.906-17.466-5.4-30.156-21.676-30.156-40.917z" fill="#fac600"/><g><circle cx="136.577" cy="247.278" fill="#fed402" r="29.866"/></g><path d="m121.381 247.278c0-13.963 9.584-25.686 22.531-28.955-2.347-.593-4.804-.91-7.335-.91-16.494 0-29.866 13.371-29.866 29.866 0 16.494 13.371 29.866 29.866 29.866 2.531 0 4.988-.318 7.335-.91-12.947-3.271-22.531-14.994-22.531-28.957z" fill="#fac600"/><g><path d="m484.653 139.159c-11.139-8.862-25.481-12.109-39.353-8.911l-21.146 4.878 18.402-11.504c12.07-7.545 19.916-19.984 21.525-34.127 1.61-14.143-3.239-28.027-13.304-38.091-10.065-10.066-23.955-14.917-38.092-13.305-14.144 1.61-26.582 9.456-34.128 21.526l-11.503 18.401 4.878-21.145c3.198-13.87-.049-28.213-8.911-39.353-8.861-11.139-22.107-17.528-36.342-17.528s-27.48 6.389-36.343 17.527c-8.862 11.139-12.109 25.482-8.91 39.353l4.878 21.147-11.504-18.402c-7.546-12.07-19.984-19.916-34.128-21.526-14.138-1.608-28.026 3.239-38.091 13.305-10.065 10.064-14.915 23.948-13.305 38.091 1.609 14.143 9.455 26.582 21.525 34.127l18.402 11.504-21.146-4.878c-13.871-3.2-28.213.048-39.353 8.911-11.139 8.862-17.527 22.108-17.527 36.343 0 14.234 6.389 27.48 17.527 36.342 8.33 6.627 18.45 10.115 28.826 10.114 3.499 0 7.028-.397 10.526-1.204l21.146-4.878-18.402 11.504c-12.07 7.545-19.916 19.984-21.525 34.127-1.61 14.143 3.239 28.027 13.304 38.091 8.797 8.796 20.507 13.609 32.76 13.608 1.768 0 3.549-.1 5.333-.303 14.143-1.61 26.581-9.456 34.127-21.526l11.503-18.401-4.878 21.145c-2.874 12.463-.528 25.3 6.404 35.859l-9.968 23.154c-4.976 11.559-8.935 23.4-11.901 35.458-8.344-18.757-22.586-34.682-40.868-44.925 1.476-1.079 2.882-2.276 4.2-3.594.127-.126.25-.258.367-.394.012-.013.023-.027.034-.04 2.695-3.145 2.332-7.879-.813-10.575-3.029-2.597-7.533-2.354-10.27.477-4.431 4.387-10.519 6.496-16.719 5.791-6.236-.71-11.72-4.169-15.047-9.49l-24.644-39.423-1.351-5.857c9.713-6.946 16.061-18.309 16.061-31.134 0-5.258-1.054-10.361-3.131-15.167-1.644-3.802-6.061-5.551-9.86-3.908-3.803 1.644-5.553 6.058-3.909 9.86 1.261 2.916 1.9 6.017 1.9 9.215 0 12.828-10.437 23.264-23.264 23.264s-23.264-10.436-23.264-23.264 10.437-23.264 23.264-23.264c1.406 0 2.844.134 4.274.4 4.069.755 7.986-1.934 8.741-6.007.756-4.073-1.934-7.987-6.007-8.742-2.33-.432-4.688-.651-7.009-.651-2.831 0-5.587.318-8.245.904l-11.706-50.754c-1.411-6.116.021-12.439 3.929-17.351 3.906-4.911 9.747-7.727 16.022-7.727 1.826 0 3.652.245 5.427.729 3.993 1.091 8.12-1.266 9.209-5.264 1.089-3.996-1.268-8.119-5.264-9.208-3.061-.834-6.214-1.257-9.372-1.257-10.873 0-20.991 4.88-27.761 13.388-6.77 8.509-9.251 19.465-6.807 30.061l.671 2.91-1.583-2.533c-5.763-9.219-15.264-15.212-26.067-16.442s-21.409 2.474-29.099 10.163c-7.688 7.688-11.393 18.294-10.162 29.097 1.229 10.803 7.223 20.305 16.442 26.069l2.529 1.581-2.906-.67c-10.596-2.444-21.552.037-30.061 6.807s-13.389 16.888-13.389 27.761 4.88 20.991 13.389 27.761c6.363 5.063 14.094 7.727 22.02 7.726 2.673 0 5.369-.303 8.041-.919l2.907-.671-2.53 1.582c-9.22 5.764-15.213 15.266-16.442 26.069-1.23 10.804 2.474 21.409 10.163 29.097 6.719 6.719 15.664 10.395 25.023 10.395 1.352 0 2.712-.077 4.074-.232 10.804-1.23 20.305-7.223 26.067-16.442l1.582-2.53-.671 2.908c-2.443 10.595.038 21.552 6.808 30.06 6.77 8.509 16.888 13.389 27.761 13.389s20.991-4.88 27.761-13.389c6.77-8.508 9.251-19.465 6.807-30.06l-.671-2.908 1.582 2.53c5.764 9.22 15.266 15.213 26.068 16.443 1.364.155 2.723.231 4.074.231.119 0 .238-.008.357-.009l7.136 3.243c28.443 12.924 47.081 41.461 47.482 72.701l.014 1.1c-6.054-4.398-13.493-7.002-21.532-7.002h-25.492c-7.73 0-14.02 6.289-14.02 14.02v13.537c0 20.25 16.475 36.724 36.724 36.724h24.512v19.629c0 4.142 3.357 7.5 7.5 7.5s7.5-3.358 7.5-7.5v-27.129-5.014h31.066c.856 0 1.767-.03 2.783-.091 4.135-.248 7.285-3.801 7.037-7.936-.247-4.134-3.774-7.283-7.936-7.037-.715.042-1.331.063-1.885.063h-31.066v-.042-13.384c0-16.994 13.825-30.819 30.819-30.819h31.066v13.427c0 6.78-2.163 13.214-6.255 18.605-2.504 3.3-1.859 8.004 1.44 10.508 3.302 2.505 8.005 1.859 10.509-1.44 6.088-8.022 9.306-17.592 9.306-27.674v-13.685c0-8.129-6.613-14.742-14.742-14.742h-31.317c-10.5 0-20.18 3.559-27.916 9.523 2.779-16.598 7.541-32.814 14.284-48.479l7.399-17.185c7.903 5.875 17.518 9.121 27.642 9.121 14.234 0 27.48-6.389 36.343-17.527 8.862-11.139 12.109-25.482 8.91-39.353l-4.878-21.147 11.504 18.403c7.546 12.07 19.984 19.916 34.127 21.526 1.784.203 3.564.303 5.333.303 12.252 0 23.964-4.813 32.759-13.608 10.065-10.064 14.915-23.948 13.305-38.091-1.609-14.143-9.455-26.582-21.525-34.128l-2.843-1.777c-3.513-2.195-8.14-1.128-10.335 2.385-2.196 3.512-1.128 8.14 2.384 10.335l2.843 1.776c8.172 5.108 13.483 13.53 14.573 23.105s-2.193 18.975-9.008 25.789c-6.814 6.814-16.218 10.102-25.788 9.007-9.575-1.09-17.997-6.402-23.105-14.573l-34.567-55.296-2.439-10.575c.772-.508 1.532-1.033 2.274-1.582l25.487 25.487c1.465 1.465 3.384 2.197 5.304 2.197 1.919 0 3.839-.732 5.304-2.197 2.929-2.929 2.929-7.678 0-10.606l-25.488-25.488c.549-.742 1.073-1.502 1.582-2.274l10.577 2.44 25.052 15.661c1.236.773 2.61 1.142 3.969 1.142 2.5 0 4.943-1.25 6.366-3.525.944-1.51 1.281-3.225 1.084-4.865l29.518 6.809c3.499.807 7.026 1.204 10.526 1.204 10.375 0 20.497-3.487 28.826-10.114 11.139-8.862 17.527-22.108 17.527-36.342 0-14.235-6.388-27.481-17.527-36.343zm-422.419 62.074c-5.321-3.327-8.78-8.811-9.49-15.046s1.428-12.357 5.865-16.794c4.439-4.438 10.562-6.573 16.796-5.866 6.234.71 11.719 4.169 15.045 9.49l24.646 39.425 1.35 5.855c-3.447 2.465-6.467 5.486-8.932 8.933l-5.855-1.351zm-11.699 68.149c-6.118 1.412-12.439-.021-17.351-3.929-4.911-3.907-7.728-9.747-7.728-16.023 0-6.275 2.816-12.116 7.728-16.022 4.911-3.907 11.236-5.34 17.351-3.929l50.754 11.707c-.586 2.657-.904 5.413-.904 8.244s.318 5.587.904 8.244zm39.915 56.462c-3.326 5.321-8.811 8.78-15.045 9.49-6.236.708-12.357-1.428-16.796-5.866-4.438-4.438-6.575-10.559-5.865-16.794s4.169-11.72 9.49-15.046l39.424-24.645 5.856-1.351c2.465 3.447 5.485 6.467 8.932 8.932l-1.351 5.858zm64.221 29.05c-3.907 4.911-9.747 7.728-16.022 7.728s-12.115-2.816-16.022-7.728-5.34-11.235-3.93-17.35l11.707-50.754c2.657.586 5.414.904 8.245.904s5.587-.318 8.245-.904l11.706 50.754c1.41 6.115-.022 12.439-3.929 17.35zm80.268 114.889c-11.979 0-21.724-9.745-21.724-21.724v-12.556h24.512c11.979 0 21.724 9.745 21.724 21.724v7.542 5.014zm156.338-402.207c5.108-8.171 13.53-13.483 23.105-14.573 9.574-1.09 18.974 2.193 25.789 9.007 6.813 6.814 10.097 16.213 9.007 25.789-1.09 9.575-6.401 17.997-14.573 23.105l-55.294 34.566-10.578 2.44c-.508-.772-1.033-1.532-1.582-2.274l25.488-25.488c2.929-2.929 2.929-7.678 0-10.606-2.93-2.929-7.678-2.929-10.607 0l-25.487 25.487c-.742-.549-1.502-1.073-2.274-1.581l2.44-10.576zm-64.598 143.249c-19.478 0-35.323-15.846-35.323-35.323s15.846-35.323 35.323-35.323 35.323 15.846 35.323 35.323-15.845 35.323-35.323 35.323zm-24.604-183.959c6-7.541 14.968-11.866 24.604-11.866s18.604 4.325 24.604 11.866c6 7.542 8.198 17.252 6.033 26.643l-16.97 73.571c-2.01-.568-4.065-1.025-6.167-1.34v-36.02c0-4.142-3.357-7.5-7.5-7.5s-7.5 3.358-7.5 7.5v36.02c-2.102.316-4.158.772-6.167 1.34l-16.97-73.571c-2.165-9.391.033-19.101 6.033-26.643zm-83.321 84.037c-8.172-5.108-13.483-13.53-14.573-23.105s2.193-18.975 9.008-25.789c6.813-6.814 16.221-10.096 25.788-9.007 9.575 1.09 17.997 6.402 23.105 14.573l34.567 55.296 2.439 10.576c-.772.508-1.533 1.033-2.275 1.582l-25.488-25.488c-2.93-2.929-7.678-2.929-10.607 0s-2.929 7.678.001 10.606l25.488 25.488c-.549.742-1.073 1.502-1.582 2.274l-10.578-2.44zm-14.067 95.235c-9.393 2.167-19.103-.033-26.643-6.033-7.541-6-11.866-14.967-11.866-24.604s4.325-18.605 11.866-24.605c7.542-6 17.255-8.199 26.643-6.032l73.571 16.97c-.568 2.009-1.025 4.065-1.34 6.167h-36.019c-4.143 0-7.5 3.358-7.5 7.5s3.357 7.5 7.5 7.5h36.019c.316 2.102.772 4.157 1.34 6.166zm57.395 77.289c-5.108 8.171-13.53 13.483-23.105 14.573-9.568 1.092-18.974-2.192-25.789-9.007-6.813-6.814-10.097-16.213-9.007-25.789 1.09-9.575 6.401-17.997 14.573-23.105l55.294-34.566 10.577-2.44c.508.772 1.033 1.532 1.582 2.274l-25.488 25.488c-2.929 2.929-2.929 7.678 0 10.606 1.465 1.465 3.384 2.197 5.304 2.197 1.919 0 3.839-.732 5.304-2.197l25.488-25.487c.742.549 1.502 1.073 2.274 1.582l-2.44 10.576zm95.234 14.067c2.166 9.391-.032 19.101-6.032 26.643-6 7.541-14.968 11.866-24.604 11.866s-18.604-4.325-24.604-11.866c-6-7.542-8.198-17.252-6.033-26.643l16.97-73.571c2.01.568 4.065 1.025 6.167 1.34v36.019c0 4.142 3.357 7.5 7.5 7.5s7.5-3.358 7.5-7.5v-36.019c2.102-.316 4.158-.772 6.167-1.34zm117.998-97.389c-7.541 6-17.253 8.2-26.643 6.033l-73.57-16.97c.568-2.009 1.025-4.064 1.34-6.166h36.019c4.143 0 7.5-3.358 7.5-7.5s-3.357-7.5-7.5-7.5h-36.019c-.316-2.102-.772-4.157-1.34-6.167l73.571-16.97c9.393-2.167 19.103.034 26.643 6.032 7.541 6 11.866 14.968 11.866 24.605s-4.326 18.604-11.867 24.603z"/></g></g></svg>