<?xml version="1.0" encoding="iso-8859-1"?>
<!-- Generator: Adobe Illustrator 19.0.0, SVG Export Plug-In . SVG Version: 6.00 Build 0)  -->
<svg version="1.1" id="Capa_1" xmlns="http://www.w3.org/2000/svg" xmlns:xlink="http://www.w3.org/1999/xlink" x="0px" y="0px"
	 viewBox="0 0 512 512" style="enable-background:new 0 0 512 512;" xml:space="preserve">
<circle style="fill:#F3561D;" cx="256" cy="55.609" r="48.094"/>
<path style="fill:#ED3124;" d="M272.031,87.671c-26.562,0-48.094-21.532-48.094-48.094c0-9.172,2.57-17.744,7.026-25.037
	c-13.827,8.448-23.057,23.679-23.057,41.068c0,26.562,21.532,48.094,48.094,48.094c17.389,0,32.621-9.23,41.068-23.057
	C289.775,85.101,281.204,87.671,272.031,87.671z"/>
<circle style="fill:#C7D450;" cx="400.282" cy="159.812" r="48.094"/>
<path style="fill:#AEBB32;" d="M416.313,191.875c-26.562,0-48.094-21.532-48.094-48.094c0-9.172,2.57-17.744,7.026-25.037
	c-13.827,8.448-23.057,23.679-23.057,41.068c0,26.562,21.532,48.094,48.094,48.094c17.389,0,32.621-9.23,41.068-23.057
	C434.057,189.305,425.486,191.875,416.313,191.875z"/>
<circle style="fill:#C7D450;" cx="111.718" cy="159.812" r="48.094"/>
<path style="fill:#AEBB32;" d="M127.75,191.875c-26.562,0-48.094-21.532-48.094-48.094c0-9.172,2.57-17.744,7.026-25.037
	c-13.827,8.448-23.057,23.679-23.057,41.068c0,26.562,21.532,48.094,48.094,48.094c17.389,0,32.621-9.23,41.068-23.057
	C145.493,189.305,136.922,191.875,127.75,191.875z"/>
<path style="fill:#F6D8C9;" d="M55.609,223.937c8.854,0,16.031,7.178,16.031,16.031v104.204H39.577V239.969
	C39.577,231.115,46.754,223.937,55.609,223.937z"/>
<path style="fill:#FAC7A9;" d="M39.577,239.969c0-7.588,5.277-13.928,12.357-15.591v119.795H39.577V239.969z"/>
<path style="fill:#F6D8C9;" d="M87.671,256c8.854,0,16.031,7.178,16.031,16.031v104.204H71.64V272.031
	C71.64,263.178,78.817,256,87.671,256z"/>
<path style="fill:#FAC7A9;" d="M71.64,272.031c0-7.347,4.949-13.525,11.69-15.42v119.624H71.64V272.031z"/>
<path style="fill:#F6D8C9;" d="M119.734,296.078c8.854,0,16.031,7.178,16.031,16.031v104.204h-32.063V312.11
	C103.703,303.256,110.88,296.078,119.734,296.078z"/>
<g>
	<path style="fill:#FAC7A9;" d="M103.703,312.11c0-7.347,4.949-13.525,11.69-15.42v119.624h-11.69V312.11z"/>
	<path style="fill:#FAC7A9;" d="M127.75,504.485v-40.078l-48.094-32.063L7.515,360.204v-88.625c0-9.111,7.6-16.446,16.806-16.013
		c8.623,0.406,15.257,7.833,15.257,16.466v56.11l64.125,40.078h32.063c35.415,0,64.125,28.71,64.125,64.125v72.141"/>
	<path style="fill:#FAC7A9;" d="M61.334,324.906l42.369,43.011L81.03,390.589l-42.538-43.182c-6.213-6.307-6.137-16.458,0.17-22.671
		C44.97,318.522,55.121,318.599,61.334,324.906z"/>
</g>
<g>
	<path style="fill:#EAB498;" d="M90.358,381.261l-9.328,9.329l-42.538-43.182c-5.391-5.473-6.04-13.835-1.999-20.012L90.358,381.261
		z"/>
	<path style="fill:#EAB498;" d="M23.546,255.569v96.619l72.141,72.141l52.071,29.755c2.498,1.427,4.039,4.083,4.039,6.96v43.442
		H127.75v-40.078l-48.094-32.063L7.515,360.204v-88.625C7.515,262.726,14.695,255.572,23.546,255.569z"/>
</g>
<path style="fill:#F6D8C9;" d="M456.391,223.937c-8.854,0-16.031,7.178-16.031,16.031v104.204h32.063V239.969
	C472.423,231.115,465.246,223.937,456.391,223.937z"/>
<path style="fill:#FAC7A9;" d="M472.423,239.969c0-7.588-5.277-13.928-12.357-15.591v119.795h12.357V239.969z"/>
<path style="fill:#F6D8C9;" d="M424.329,256c-8.854,0-16.031,7.178-16.031,16.031v104.204h32.063V272.031
	C440.36,263.178,433.183,256,424.329,256z"/>
<path style="fill:#FAC7A9;" d="M440.36,272.031c0-7.347-4.949-13.525-11.69-15.42v119.624h11.69V272.031z"/>
<path style="fill:#F6D8C9;" d="M392.266,296.078c-8.854,0-16.031,7.178-16.031,16.031v104.204h32.063V312.11
	C408.297,303.256,401.12,296.078,392.266,296.078z"/>
<g>
	<path style="fill:#FAC7A9;" d="M408.297,312.11c0-7.347-4.949-13.525-11.69-15.42v119.624h11.69V312.11z"/>
	<path style="fill:#FAC7A9;" d="M384.25,504.485v-40.078l48.094-32.063l72.141-72.141v-88.625c0-9.111-7.6-16.446-16.806-16.013
		c-8.623,0.406-15.257,7.833-15.257,16.466v56.11l-64.125,40.078h-32.063c-35.415,0-64.125,28.71-64.125,64.125v72.141"/>
	<path style="fill:#FAC7A9;" d="M450.666,324.906l-42.369,43.011l22.672,22.672l42.538-43.182c6.213-6.307,6.137-16.458-0.17-22.671
		C467.03,318.522,456.879,318.599,450.666,324.906z"/>
</g>
<g>
	<path style="fill:#EAB498;" d="M421.642,381.261l9.328,9.329l42.538-43.182c5.391-5.473,6.04-13.835,1.999-20.012L421.642,381.261z
		"/>
	<path style="fill:#EAB498;" d="M488.454,255.569v96.619l-72.141,72.141l-52.071,29.755c-2.498,1.427-4.039,4.083-4.039,6.96v43.442
		h24.047v-40.078l48.094-32.063l72.141-72.141v-88.625C504.485,262.726,497.305,255.572,488.454,255.569z"/>
</g>
<path d="M256,0c-30.663,0-55.609,24.946-55.609,55.609s24.946,55.609,55.609,55.609s55.609-24.946,55.609-55.609S286.663,0,256,0z
	 M256,96.188c-22.376,0-40.579-18.204-40.579-40.579S233.624,15.029,256,15.029s40.579,18.204,40.579,40.579
	S278.376,96.188,256,96.188z"/>
<path d="M400.282,215.421c30.663,0,55.609-24.946,55.609-55.609s-24.946-55.609-55.609-55.609s-55.609,24.946-55.609,55.609
	S369.619,215.421,400.282,215.421z M400.282,119.233c22.376,0,40.579,18.204,40.579,40.579s-18.204,40.579-40.579,40.579
	s-40.579-18.204-40.579-40.579S377.906,119.233,400.282,119.233z"/>
<path d="M111.718,215.421c30.663,0,55.609-24.946,55.609-55.609s-24.946-55.609-55.609-55.609S56.11,129.149,56.11,159.812
	S81.055,215.421,111.718,215.421z M111.718,119.233c22.376,0,40.579,18.204,40.579,40.579s-18.204,40.579-40.579,40.579
	s-40.579-18.204-40.579-40.579S89.342,119.233,111.718,119.233z"/>
<path d="M143.28,361.101V312.11c0-12.983-10.563-23.546-23.546-23.546c-3.003,0-5.873,0.571-8.517,1.6v-18.132
	c0-12.983-10.563-23.546-23.546-23.546c-3.003,0-5.873,0.571-8.517,1.6v-10.117c0-12.983-10.563-23.546-23.546-23.546
	s-23.546,10.563-23.546,23.546v9.674c-2.306-0.907-4.787-1.46-7.388-1.583c-6.503-0.326-12.678,1.994-17.38,6.481
	C2.658,258.963,0,265.173,0,271.578v88.625c0,1.993,0.792,3.904,2.2,5.314l72.141,72.141c0.351,0.35,0.733,0.664,1.146,0.939
	l44.747,29.831v36.056c0,4.151,3.364,7.515,7.515,7.515s7.515-3.364,7.515-7.515v-40.078c0-2.513-1.255-4.859-3.347-6.252
	l-47.475-31.65l-69.414-69.414v-85.513c0-4.824,4.138-8.715,8.938-8.507c4.464,0.21,8.095,4.23,8.095,8.959v48.796
	c-7.894,9.182-7.571,23.074,1.076,31.853l42.538,43.182c3.076,3.121,8.311,2.895,11.123-0.46c2.452-2.926,2.259-7.371-0.416-10.088
	l-42.537-43.181c-3.252-3.301-3.213-8.79,0.089-12.045c3.303-3.253,8.792-3.213,12.045,0.09l41.298,41.924
	c1.317,2.173,3.697,3.63,6.425,3.63h32.063c31.215,0,56.611,25.396,56.611,56.611v72.141c0,4.151,3.364,7.515,7.515,7.515
	s7.515-3.364,7.515-7.515v-72.141C207.405,395.38,179.263,364.87,143.28,361.101z M119.734,303.593c4.696,0,8.517,3.82,8.517,8.517
	v48.595h-17.033v-1.002V312.11C111.217,307.413,115.038,303.593,119.734,303.593z M87.671,263.515c4.696,0,8.517,3.82,8.517,8.517
	v77.548l-17.064-17.323c0.016-0.201,0.031-0.403,0.031-0.609v-59.616C79.155,267.335,82.975,263.515,87.671,263.515z
	 M47.092,312.814v-72.845c0-4.696,3.82-8.517,8.517-8.517s8.517,3.82,8.517,8.517v77.449
	C59.154,313.644,53.023,312.105,47.092,312.814z"/>
<path d="M304.595,432.344v72.141c0,4.151,3.364,7.515,7.515,7.515s7.515-3.364,7.515-7.515v-72.141
	c0-31.215,25.396-56.611,56.611-56.611h32.063c2.727,0,5.107-1.457,6.425-3.63l41.298-41.924c3.253-3.303,8.742-3.344,12.045-0.09
	s3.342,8.742,0.089,12.045l-42.537,43.181c-2.675,2.716-2.868,7.162-0.416,10.088c2.811,3.355,8.047,3.582,11.123,0.46
	l42.538-43.182c8.648-8.779,8.971-22.671,1.076-31.853v-48.796c0-4.73,3.631-8.749,8.095-8.959c4.8-0.208,8.938,3.683,8.938,8.507
	v85.513l-69.414,69.414l-47.475,31.65c-2.091,1.394-3.347,3.739-3.347,6.252v40.078c0,4.151,3.364,7.515,7.515,7.515
	s7.515-3.364,7.515-7.515v-36.056l44.747-29.831c0.412-0.274,0.796-0.589,1.146-0.939l72.141-72.141c1.409-1.41,2.2-3.32,2.2-5.314
	v-88.625c0-6.405-2.658-12.616-7.294-17.038c-4.701-4.487-10.876-6.806-17.38-6.481c-2.601,0.122-5.083,0.676-7.388,1.583v-9.674
	c0-12.983-10.563-23.546-23.546-23.546s-23.546,10.563-23.546,23.546v10.117c-2.643-1.029-5.514-1.6-8.517-1.6
	c-12.983,0-23.546,10.563-23.546,23.546v18.132c-2.643-1.029-5.514-1.6-8.517-1.6c-12.983,0-23.546,10.563-23.546,23.546v48.992
	C332.737,364.87,304.595,395.38,304.595,432.344z M400.783,312.11v47.593v1.002H383.75V312.11c0-4.696,3.82-8.517,8.517-8.517
	C396.962,303.593,400.783,307.413,400.783,312.11z M432.845,272.031v59.616c0,0.206,0.015,0.408,0.031,0.609l-17.064,17.323v-77.548
	c0-4.696,3.82-8.517,8.517-8.517C429.025,263.515,432.845,267.335,432.845,272.031z M447.875,317.418v-77.449
	c0-4.696,3.82-8.517,8.517-8.517c4.696,0,8.517,3.82,8.517,8.517v72.845C458.977,312.105,452.846,313.644,447.875,317.418z"/>
<g>
</g>
<g>
</g>
<g>
</g>
<g>
</g>
<g>
</g>
<g>
</g>
<g>
</g>
<g>
</g>
<g>
</g>
<g>
</g>
<g>
</g>
<g>
</g>
<g>
</g>
<g>
</g>
<g>
</g>
</svg>
