<svg height="512" viewBox="0 0 60 60" width="512" xmlns="http://www.w3.org/2000/svg"><g id="Page-1" fill="none" fill-rule="evenodd"><g id="060---Natural-Crop-Growth" fill-rule="nonzero"><rect id="Rectangle-path" fill="#a0522d" height="8" rx="1" width="58" x="1" y="51"/><path id="Shape" d="m58 51h-3c.5522847 0 1 .4477153 1 1v6c0 .5522847-.4477153 1-1 1h3c.5522847 0 1-.4477153 1-1v-6c0-.5522847-.4477153-1-1-1z" fill="#783e22"/><circle id="Oval" cx="14" cy="14" fill="#ffdc00" r="7"/><path id="Shape" d="m14 7c-.5044849.00078729-1.0074065.05610867-1.5.165 3.2064126.70878162 5.4891145 3.5511831 5.4891145 6.835s-2.2827019 6.1262184-5.4891145 6.835c2.6211486.579393 5.3427728-.3912156 7.0057888-2.4984637 1.663016-2.107248 1.9744743-4.9799318.8017312-7.3946348-1.172743-2.41470287-3.6231022-3.94606139-6.30752-3.9419015z" fill="#fec108"/><path id="Shape" d="m30 51h-2.037c-2.303168.0126707-4.3267897-1.5254624-4.931-3.748-.0749424-.3035633-.0050617-.62472.1892385-.8696986.1943001-.2449786.491108-.3861524.8037615-.3823014h.883c2.7864285-.0244133 5.0656106 2.2135895 5.092 5z" fill="#60a917"/><path id="Shape" d="m35.975 46c.3126535-.003851.6094614.1373228.8037615.3823014.1943002.2449786.2641809.5661353.1892385.8696986-.6042103 2.2225376-2.627832 3.7606707-4.931 3.748h-2.037c.0263894-2.7864105 2.3055715-5.0244133 5.092-5z" fill="#549414"/><path id="Shape" d="m30 42h-2.037c-2.303168.0126707-4.3267897-1.5254624-4.931-3.748-.0749424-.3035633-.0050617-.62472.1892385-.8696986.1943001-.2449786.491108-.3861524.8037615-.3823014h.883c2.7864285-.0244133 5.0656106 2.2135895 5.092 5z" fill="#60a917"/><path id="Shape" d="m35.975 37c.3126535-.003851.6094614.1373228.8037615.3823014.1943002.2449786.2641809.5661353.1892385.8696986-.6042103 2.2225376-2.627832 3.7606707-4.931 3.748h-2.037c.0263894-2.7864105 2.3055715-5.0244133 5.092-5z" fill="#549414"/><path id="Shape" d="m30 33h-2.037c-2.303168.0126707-4.3267897-1.5254624-4.931-3.748-.0749424-.3035633-.0050617-.62472.1892385-.8696986.1943001-.2449786.491108-.3861524.8037615-.3823014h.883c2.7864285-.0244133 5.0656106 2.2135895 5.092 5z" fill="#60a917"/><path id="Shape" d="m35.975 28c.3126535-.003851.6094614.1373228.8037615.3823014.1943002.2449786.2641809.5661353.1892385.8696986-.6042103 2.2225376-2.627832 3.7606707-4.931 3.748h-2.037c.0263894-2.7864105 2.3055715-5.0244133 5.092-5z" fill="#549414"/><path id="Shape" d="m11 51h-2.037c-2.30303027.0129145-4.32649585-1.5254119-4.93-3.748-.07531961-.3034354-.00572324-.6246453.1884359-.869693.19415914-.2450476.4909452-.3862478.8035641-.382307h.883c2.78642848-.0244133 5.0656106 2.2135895 5.092 5z" fill="#60a917"/><path id="Shape" d="m16.975 46c.3126535-.003851.6094614.1373228.8037615.3823014.1943002.2449786.2641809.5661353.1892385.8696986-.6042103 2.2225376-2.627832 3.7606707-4.931 3.748h-2.037c.0263894-2.7864105 2.3055715-5.0244133 5.092-5z" fill="#549414"/><path id="Shape" d="m11 42h-2.037c-2.30303027.0129145-4.32649585-1.5254119-4.93-3.748-.07531961-.3034354-.00572324-.6246453.1884359-.869693.19415914-.2450476.4909452-.3862478.8035641-.382307h.883c2.78642848-.0244133 5.0656106 2.2135895 5.092 5z" fill="#60a917"/><path id="Shape" d="m16.975 37c.3126535-.003851.6094614.1373228.8037615.3823014.1943002.2449786.2641809.5661353.1892385.8696986-.6042103 2.2225376-2.627832 3.7606707-4.931 3.748h-2.037c.0263894-2.7864105 2.3055715-5.0244133 5.092-5z" fill="#549414"/><path id="Shape" d="m49 51h-2.037c-2.303168.0126707-4.3267897-1.5254624-4.931-3.748-.0749424-.3035633-.0050617-.62472.1892385-.8696986.1943001-.2449786.491108-.3861524.8037615-.3823014h.883c2.7864285-.0244133 5.0656106 2.2135895 5.092 5z" fill="#60a917"/><path id="Shape" d="m54.975 46c.3126535-.003851.6094614.1373228.8037615.3823014.1943002.2449786.2641809.5661353.1892385.8696986-.6042103 2.2225376-2.627832 3.7606707-4.931 3.748h-2.037c.0263894-2.7864105 2.3055715-5.0244133 5.092-5z" fill="#549414"/><path id="Shape" d="m49 42h-2.037c-2.303168.0126707-4.3267897-1.5254624-4.931-3.748-.0749424-.3035633-.0050617-.62472.1892385-.8696986.1943001-.2449786.491108-.3861524.8037615-.3823014h.883c2.7864285-.0244133 5.0656106 2.2135895 5.092 5z" fill="#60a917"/><path id="Shape" d="m54.975 37c.3126535-.003851.6094614.1373228.8037615.3823014.1943002.2449786.2641809.5661353.1892385.8696986-.6042103 2.2225376-2.627832 3.7606707-4.931 3.748h-2.037c.0263894-2.7864105 2.3055715-5.0244133 5.092-5z" fill="#549414"/><path id="Shape" d="m49 33h-2.037c-2.303168.0126707-4.3267897-1.5254624-4.931-3.748-.0749424-.3035633-.0050617-.62472.1892385-.8696986.1943001-.2449786.491108-.3861524.8037615-.3823014h.883c2.7864285-.0244133 5.0656106 2.2135895 5.092 5z" fill="#60a917"/><path id="Shape" d="m54.975 28c.3126535-.003851.6094614.1373228.8037615.3823014.1943002.2449786.2641809.5661353.1892385.8696986-.6042103 2.2225376-2.627832 3.7606707-4.931 3.748h-2.037c.0263894-2.7864105 2.3055715-5.0244133 5.092-5z" fill="#549414"/><path id="Shape" d="m49 24h-2.037c-2.303168.0126707-4.3267897-1.5254624-4.931-3.748-.0749424-.3035633-.0050617-.62472.1892385-.8696986.1943001-.2449786.491108-.3861524.8037615-.3823014h.883c2.7864285-.0244133 5.0656106 2.2135895 5.092 5z" fill="#60a917"/><path id="Shape" d="m54.975 19c.3126535-.003851.6094614.1373228.8037615.3823014.1943002.2449786.2641809.5661353.1892385.8696986-.6042103 2.2225376-2.627832 3.7606707-4.931 3.748h-2.037c.0263894-2.7864105 2.3055715-5.0244133 5.092-5z" fill="#549414"/><g fill="#000"><path id="Shape" d="m58 50h-2.432c.6505748-.708606 1.1196407-1.5643854 1.367-2.494.1575539-.5957423.027714-1.230885-.351-1.717-.3833258-.4997414-.9781799-.7916194-1.608-.789h-.884c-1.5109397-.0011782-2.9687471.5574342-4.092 1.568v-3.568h1.037c2.7588729.0152297 5.1817071-1.8302307 5.9-4.494.1575539-.5957423.027714-1.230885-.351-1.717-.383752-.5003029-.9794779-.7922457-1.61-.789h-.884c-1.5109397-.0011782-2.9687471.5574342-4.092 1.568v-3.568h1.037c2.7588729.0152297 5.1817071-1.8302307 5.9-4.494.1575539-.5957423.027714-1.230885-.351-1.717-.383752-.5003029-.9794779-.7922457-1.61-.789h-.884c-1.5109397-.0011782-2.9687471.5574342-4.092 1.568v-3.568h1.037c2.7588729.0152297 5.1817071-1.8302307 5.9-4.494.1575539-.5957423.027714-1.230885-.351-1.717-.383752-.5003029-.9794779-.7922457-1.61-.789h-.884c-1.5109397-.0011782-2.9687471.5574342-4.092 1.568v-5.568c0-.5522847-.4477153-1-1-1s-1 .4477153-1 1v5.568c-1.1232529-1.0105658-2.5810603-1.5691782-4.092-1.568h-.884c-.6298201-.0026194-1.2246742.2892586-1.608.789-.378714.486115-.5085539 1.1212577-.351 1.717.7181033 2.6630467 3.1398693 4.508319 5.898 4.494h1.037v3.568c-1.1232529-1.0105658-2.5810603-1.5691782-4.092-1.568h-.884c-.6298201-.0026194-1.2246742.2892586-1.608.789-.378714.486115-.5085539 1.1212577-.351 1.717.7181033 2.6630467 3.1398693 4.508319 5.898 4.494h1.037v3.568c-1.1232529-1.0105658-2.5810603-1.5691782-4.092-1.568h-.884c-.6298201-.0026194-1.2246742.2892586-1.608.789-.378714.486115-.5085539 1.1212577-.351 1.717.7181033 2.6630467 3.1398693 4.508319 5.898 4.494h1.037v3.568c-1.1232529-1.0105658-2.5810603-1.5691782-4.092-1.568h-.884c-.6298201-.0026194-1.2246742.2892586-1.608.789-.378714.486115-.5085539 1.1212577-.351 1.717.2473593.9296146.7164252 1.785394 1.367 2.494h-5.864c.6505748-.708606 1.1196407-1.5643854 1.367-2.494.1575539-.5957423.027714-1.230885-.351-1.717-.3833258-.4997414-.9781799-.7916194-1.608-.789h-.884c-1.5109397-.0011782-2.9687471.5574342-4.092 1.568v-3.568h1.037c2.7588729.0152297 5.1817071-1.8302307 5.9-4.494.1575539-.5957423.027714-1.230885-.351-1.717-.383752-.5003029-.9794779-.7922457-1.61-.789h-.884c-1.5109397-.0011782-2.9687471.5574342-4.092 1.568v-3.568h1.037c2.7588729.0152297 5.1817071-1.8302307 5.9-4.494.1575539-.5957423.027714-1.230885-.351-1.717-.383752-.5003029-.9794779-.7922457-1.61-.789h-.884c-1.5109397-.0011782-2.9687471.5574342-4.092 1.568v-2.568c0-.5522847-.4477153-1-1-1s-1 .4477153-1 1v2.569c-1.1231041-1.0109288-2.5809279-1.5699037-4.092-1.569h-.884c-.6298201-.0026194-1.2246742.2892586-1.608.789-.378714.486115-.5085539 1.1212577-.351 1.717.7181033 2.6630467 3.1398693 4.508319 5.898 4.494h1.037v3.568c-1.1232529-1.0105658-2.5810603-1.5691782-4.092-1.568h-.884c-.6298201-.0026194-1.2246742.2892586-1.608.789-.378714.486115-.5085539 1.1212577-.351 1.717.7181033 2.6630467 3.1398693 4.508319 5.898 4.494h1.037v3.568c-1.1232529-1.0105658-2.5810603-1.5691782-4.092-1.568h-.884c-.6298201-.0026194-1.2246742.2892586-1.608.789-.378714.486115-.5085539 1.1212577-.351 1.717.2473593.9296146.7164252 1.785394 1.367 2.494h-5.864c.6505748-.708606 1.1196407-1.5643854 1.367-2.494.1575539-.5957423.027714-1.230885-.351-1.717-.3833258-.4997414-.9781799-.7916194-1.608-.789h-.884c-1.5109397-.0011782-2.9687471.5574342-4.092 1.568v-3.568h1.037c2.7588729.0152297 5.1817071-1.8302307 5.9-4.494.1575539-.5957423.027714-1.230885-.351-1.717-.383752-.5003029-.9794779-.7922457-1.61-.789h-.884c-1.5109397-.0011782-2.9687471.5574342-4.092 1.568v-5.568c0-.5522847-.4477153-1-1-1s-1 .4477153-1 1v5.568c-1.12325291-1.0105658-2.58106026-1.5691782-4.092-1.568h-.884c-.62982005-.0026194-1.22467415.2892586-1.608.789-.37871404.486115-.50855394 1.1212577-.351 1.717.71810332 2.6630467 3.13986929 4.508319 5.898 4.494h1.037v3.568c-1.12325291-1.0105658-2.58106026-1.5691782-4.092-1.568h-.884c-.62982005-.0026194-1.22467415.2892586-1.608.789-.37871404.486115-.50855394 1.1212577-.351 1.717.2473593.9296146.71642524 1.785394 1.367 2.494h-2.432c-1.1045695 0-2 .8954305-2 2v6c0 1.1045695.8954305 2 2 2h56c1.1045695 0 2-.8954305 2-2v-6c0-1.1045695-.8954305-2-2-2zm-3.908-3h.884.024c-.4877068 1.7835026-2.1150784 3.0151158-3.964 3h-.906c.4893439-1.7815418 2.1145147-3.0121103 3.962-3zm0-9h.884.024c-.4877068 1.7835026-2.1150784 3.0151158-3.964 3h-.906c.4893439-1.7815418 2.1145147-3.0121103 3.962-3zm0-9h.884.024c-.4877068 1.7835026-2.1150784 3.0151158-3.964 3h-.906c.4893439-1.7815418 2.1145147-3.0121103 3.962-3zm0-9h.884.024c-.4877068 1.7835026-2.1150784 3.0151158-3.964 3h-.906c.4893439-1.7815418 2.1145147-3.0121103 3.962-3zm-7.129 3c-1.8456449.0217407-3.4694284-1.2149565-3.939-3h.884c1.8474853-.0121103 3.4726561 1.2184582 3.962 3zm0 9c-1.8456449.0217407-3.4694284-1.2149565-3.939-3h.884c1.8474853-.0121103 3.4726561 1.2184582 3.962 3zm0 9c-1.8456449.0217407-3.4694284-1.2149565-3.939-3h.884c1.8474853-.0121103 3.4726561 1.2184582 3.962 3zm-3.939 6h.884c1.8474853-.0121103 3.4726561 1.2184582 3.962 3h-.907c-1.8456449.0217407-3.4694284-1.2149565-3.939-3zm-7.932 0h.884.024c-.4877068 1.7835026-2.1150784 3.0151158-3.964 3h-.906c.4893439-1.7815418 2.1145147-3.0121103 3.962-3zm0-9h.884.024c-.4877068 1.7835026-2.1150784 3.0151158-3.964 3h-.906c.4893439-1.7815418 2.1145147-3.0121103 3.962-3zm0-9h.884.024c-.4877068 1.7835026-2.1150784 3.0151158-3.964 3h-.906c.4893439-1.7815418 2.1145147-3.0121103 3.962-3zm-7.129 3c-1.8456449.0217407-3.4694284-1.2149565-3.939-3h.884c1.8474853-.0121103 3.4726561 1.2184582 3.962 3zm0 9c-1.8456449.0217407-3.4694284-1.2149565-3.939-3h.884c1.8474853-.0121103 3.4726561 1.2184582 3.962 3zm-3.939 6h.884c1.8474853-.0121103 3.4726561 1.2184582 3.962 3h-.907c-1.8456449.0217407-3.4694284-1.2149565-3.939-3zm-7.932 0h.884.024c-.4877068 1.7835026-2.1150784 3.0151158-3.964 3h-.906c.4893439-1.7815418 2.1145147-3.0121103 3.962-3zm0-9h.884.024c-.4877068 1.7835026-2.1150784 3.0151158-3.964 3h-.906c.4893439-1.7815418 2.1145147-3.0121103 3.962-3zm-7.129 3c-1.84564492.0217407-3.46942836-1.2149565-3.939-3h.884c1.84748529-.0121103 3.47265608 1.2184582 3.962 3zm-3.939 6h.884c1.84748529-.0121103 3.47265608 1.2184582 3.962 3h-.907c-1.84564492.0217407-3.46942836-1.2149565-3.939-3zm-3.024 11v-2h24c.5522847 0 1-.4477153 1-1s-.4477153-1-1-1h-24v-2h56v2h-8c-.5522847 0-1 .4477153-1 1s.4477153 1 1 1h8v2z"/><path id="Shape" d="m46 54h-16c-.5522847 0-1 .4477153-1 1s.4477153 1 1 1h16c.5522847 0 1-.4477153 1-1s-.4477153-1-1-1z"/><path id="Shape" d="m14 22c4.418278 0 8-3.581722 8-8s-3.581722-8-8-8-8 3.581722-8 8c.00495988 4.4162219 3.58377808 7.9950401 8 8zm0-14c3.3137085 0 6 2.6862915 6 6s-2.6862915 6-6 6-6-2.6862915-6-6c.00330738-3.3123376 2.6876624-5.99669262 6-6z"/><path id="Shape" d="m15 3v-2c0-.55228475-.4477153-1-1-1s-1 .44771525-1 1v2c0 .55228475.4477153 1 1 1s1-.44771525 1-1z"/><path id="Shape" d="m8.5 5.474c.3570824-.00036605.68687394-.19110957.86525662-.50044368.17838267-.30933412.17828486-.69031384-.00025662-.99955632l-1-1.733c-.27800577-.47421361-.88664704-.63512861-1.3626943-.36027453-.47604727.27485408-.64099599.88241457-.3693057 1.36027453l1 1.733c.17880678.30970282.50938627.50034843.867.5z"/><path id="Shape" d="m4.974 7.634-1.733-1c-.30957042-.18148438-.69264947-.18318331-1.00381742-.00445186s-.50271357.51048847-.50192468.86933356c.00078888.35884509.19379132.68975672.5057421.8671183l1.733 1c.15187005.08813078.32441125.13437182.5.134.45258806-.00001991.84874105-.30401157.96588095-.74117767.1171399-.43716609-.07393969-.89850839-.46588095-1.12482233z"/><path id="Shape" d="m0 14c0 .5522847.44771525 1 1 1h2c.55228475 0 1-.4477153 1-1s-.44771525-1-1-1h-2c-.55228475 0-1 .4477153-1 1z"/><path id="Shape" d="m3.974 18.634-1.733 1c-.31195078.1773616-.50495322.5082732-.5057421.8671183-.00078889.3588451.19075673.6906021.50192468.8693336.31116795.1787314.694247.1770325 1.00381742-.0044519l1.733-1c.31195078-.1773616.50495322-.5082732.5057421-.8671183.00078889-.3588451-.19075673-.6906021-.50192468-.8693336-.31116795-.1787314-.694247-.1770325-1.00381742.0044519z"/><path id="Shape" d="m7.634 23.026-1 1.733c-.18148438.3095704-.18318331.6926495-.00445186 1.0038174.17873145.311168.51048847.5027136.86933356.5019247s.68975672-.1937913.8671183-.5057421l1-1.733c.27169029-.47786.10674157-1.0854205-.3693057-1.3602745-.47604726-.2748541-1.08468853-.1139391-1.3626943.3602745z"/><path id="Shape" d="m13 25v2c0 .5522847.4477153 1 1 1s1-.4477153 1-1v-2c0-.5522847-.4477153-1-1-1s-1 .4477153-1 1z"/><path id="Shape" d="m19 22.66c-.4782682.2761504-.6421293.8877197-.366 1.366l1 1.733c.1773616.3119508.5082732.5049532.8671183.5057421s.6906021-.1907567.8693336-.5019247c.1787314-.3111679.1770325-.694247-.0044519-1.0038174l-1-1.733c-.2761504-.4782682-.8877197-.6421293-1.366-.366z"/><path id="Shape" d="m23.026 20.366 1.733 1c.3095704.1814844.6926495.1831833 1.0038174.0044519.311168-.1787315.5027136-.5104885.5019247-.8693336s-.1937913-.6897567-.5057421-.8671183l-1.733-1c-.47786-.2716903-1.0854205-.1067416-1.3602745.3693057-.2748541.4760473-.1139391 1.0846885.3602745 1.3626943z"/><path id="Shape" d="m24 14c0 .5522847.4477153 1 1 1h2c.5522847 0 1-.4477153 1-1s-.4477153-1-1-1h-2c-.5522847 0-1 .4477153-1 1z"/><path id="Shape" d="m24.759 6.634-1.733 1c-.3119508.17736158-.5049532.50827321-.5057421.8671183s.1907567.69060211.5019247.86933356c.3111679.17873145.694247.17703252 1.0038174-.00445186l1.733-1c.3119508-.17736158.5049532-.50827321.5057421-.8671183s-.1907567-.69060211-.5019247-.86933356c-.3111679-.17873145-.694247-.17703252-1.0038174.00445186z"/><path id="Shape" d="m19.5 5.474c.3576137.00034843.6881932-.19029718.867-.5l1-1.733c.1814844-.30957042.1831833-.69264947.0044519-1.00381742-.1787315-.31116795-.5104885-.50271357-.8693336-.50192468-.3588451.00078888-.6897567.19379132-.8671183.5057421l-1 1.733c-.1785415.30924248-.1786393.6902222-.0002566.99955632.1783827.30933411.5081742.50007763.8652566.50044368z"/></g></g></g></svg>