<svg id="Capa_1" enable-background="new 0 0 512 512" height="512" viewBox="0 0 512 512" width="512" xmlns="http://www.w3.org/2000/svg"><g><g><path d="m43.178 360.511v-202.598c0-81.69 66.223-147.913 147.914-147.913 81.69 0 147.913 66.223 147.913 147.913v202.598" fill="#faf7f5"/><path d="m137.801 502h223.634v-87.849c0-22.393-10.515-42.333-26.884-55.166" fill="#dae6e6"/><g><path d="m430.084 133.872-61.912 135.955 50.276-2.511 4.685 110.812 68.119-155.903-53.858 6.331z" fill="#fff7bf"/></g><g><g><path d="m137.801 502c12.731-4.561 25.603-9.779 38.498-15.655 75.204-34.268 132.97-82.606 158.252-127.361-11.931-9.354-26.972-14.932-43.317-14.932h-200.285c-38.771 0-70.201 31.384-70.201 70.098v87.85h25.185" fill="#ffdcd5"/></g></g><path d="m306.136 263.041v-15.212h7.357c14.09 0 25.513-11.406 25.513-25.475 0-14.07-11.422-25.475-25.513-25.475h-17.357v-58.079h-15.741c-47.866 0-86.936-17.84-89.199-63.977h-.208c-2.263 46.136-41.333 63.977-89.199 63.977h-15.741v58.079h-17.357c-14.09 0-25.513 11.406-25.513 25.475 0 14.07 11.422 25.475 25.513 25.475h7.357v15.212" fill="#ffdcd5"/><path d="m306.136 260.23h-20.84c-.848 0-1.695-.008-2.541-.023-3.395-9.273-12.31-15.892-22.772-15.892-2.545 0-4.999.392-7.303 1.118-12.356 3.894-25.704 3.305-37.254-2.559-.384-.195-.767-.391-1.15-.589-6.942-3.59-14.825-5.618-23.184-5.618-8.359 0-16.241 2.028-23.184 5.618-.383.198-.766.394-1.15.589-11.55 5.864-24.897 6.453-37.254 2.559-2.305-.726-4.758-1.118-7.303-1.118-10.462 0-19.377 6.619-22.772 15.892-.846.015-1.693.023-2.541.023h-20.84v11.365c0 25.51 8.328 49.078 22.416 68.142-.146 1.419-.221 2.858-.221 4.315 0 23.022 18.69 41.685 41.746 41.685 4.358 0 8.56-.667 12.509-1.904 6.263 15.125 21.184 25.768 38.594 25.768s32.331-10.643 38.594-25.768c3.949 1.237 8.151 1.904 12.509 1.904 23.056 0 41.746-18.663 41.746-41.685 0-1.457-.075-2.897-.221-4.315 14.089-19.063 22.416-42.631 22.416-68.142z" fill="#faf7f5"/></g><g><path d="m191.092 295.206c-7.758 0-15.514-1.229-22.897-3.686-5.24-1.744-8.074-7.406-6.33-12.646s7.406-8.074 12.646-6.33c10.691 3.559 22.469 3.56 33.161 0 5.241-1.744 10.902 1.09 12.646 6.33s-1.09 10.902-6.33 12.646c-7.381 2.457-15.14 3.686-22.896 3.686z"/><path d="m349.005 358.574v-199.132c0-87.288-70.178-159.198-157.466-159.441-87.278-.243-158.36 70.69-158.36 157.912v64.365.076.081 136.21c-13.883 14.408-22.43 33.978-22.43 55.505v87.85c0 5.523 4.477 10 10 10h24.842c5.326 0 9.977-4.019 10.321-9.335.376-5.824-4.236-10.665-9.979-10.665h-15.184v-77.849c0-32.561 26.073-59.157 58.471-60.074 4.686 23.718 25.669 41.66 50.769 41.66 2.406 0 4.797-.165 7.162-.493 9.338 15.024 25.803 24.356 43.941 24.356 18.139 0 34.604-9.332 43.94-24.356 2.365.328 4.757.493 7.163.493 25.1 0 46.083-17.943 50.769-41.661 10.014.277 19.573 2.959 28.117 7.856-27.314 42.282-82.153 84.886-148.928 115.313-12.371 5.637-24.996 10.773-37.527 15.269-.026.009-.085.037-.173.082-.042.022-.085.044-.129.068-8.387 4.432-6.73 16.924 2.513 19.059.079.018 1.534.276 2.201.276h222.398c5.523 0 10-4.477 10-10v-87.849c-.001-21.007-8.063-40.733-22.431-55.576zm-42.869-120.744c-5.523 0-10 4.477-10 10v2.4h-7.22c-6.193-9.738-17.086-15.915-28.933-15.915-3.513 0-6.98.532-10.309 1.58-10.308 3.248-20.862 2.559-29.722-1.938l-1.083-.555c-8.521-4.406-18.126-6.735-27.777-6.735s-19.255 2.329-27.773 6.733l-1.087.558c-8.861 4.498-19.416 5.186-29.722 1.938-3.328-1.048-6.795-1.58-10.308-1.58-11.847 0-22.74 6.177-28.933 15.915h-7.22v-2.4c0-5.523-4.477-10-10-10h-7.356c-8.529 0-15.471-6.901-15.513-15.4v-.152c.041-8.498 6.984-15.4 15.513-15.4h17.356c5.523 0 10-4.477 10-10v-48.079h5.741c43.541 0 74.446-13.761 89.303-38.755 14.857 24.995 45.762 38.755 89.303 38.755h5.741v48.079c0 5.523 4.477 10 10 10h17.356c8.554 0 15.513 6.942 15.513 15.476s-6.959 15.476-15.513 15.476h-7.357zm-240.088 33.765c0 22.359 5.828 43.839 16.959 62.847-10.694 1.055-20.778 4.216-29.828 9.062v-89.241c3.939 1.919 8.285 3.131 12.869 3.469zm125.044-251.595c76.045 0 137.913 61.868 137.913 137.913v32.533c-4.689-2.284-9.954-3.567-15.513-3.567h-7.356v-48.079c0-5.523-4.477-10-10-10h-15.741c-23.393 0-42.869-4.536-56.323-13.118-14.49-9.242-21.977-22.768-22.888-41.348-.261-5.326-4.655-9.51-9.988-9.51h-.208c-5.333 0-9.727 4.184-9.988 9.51-.912 18.581-8.398 32.105-22.889 41.348-13.454 8.582-32.931 13.118-56.323 13.118h-15.74c-5.523 0-10 4.477-10 10v48.079h-7.356c-5.559 0-10.823 1.283-15.513 3.567v-32.532c0-76.046 61.867-137.914 137.913-137.914zm84.585 313.793c-1.481 2.004-2.161 4.489-1.905 6.967.112 1.088.168 2.195.168 3.292 0 17.471-14.241 31.685-31.746 31.685-3.251 0-6.454-.487-9.521-1.447-4.942-1.546-10.247.933-12.228 5.717-4.928 11.903-16.451 19.594-29.354 19.594s-24.426-7.691-29.355-19.594c-1.583-3.824-5.291-6.176-9.238-6.176-.991 0-1.998.148-2.99.459-3.066.96-6.27 1.447-9.52 1.447-17.505 0-31.746-14.214-31.746-31.685 0-1.097.057-2.203.169-3.288.256-2.48-.423-4.966-1.905-6.971-13.384-18.11-20.458-39.618-20.458-62.199v-1.365h10.84c.907 0 1.814-.008 2.72-.024 4.131-.074 7.791-2.681 9.211-6.56 2.043-5.581 7.421-9.331 13.382-9.331 1.472 0 2.917.221 4.297.655 15.328 4.83 31.232 3.7 44.781-3.177.407-.207.813-.415 1.222-.626 5.776-2.987 12.03-4.501 18.59-4.501s12.814 1.514 18.594 4.503l1.212.621c13.553 6.881 29.458 8.01 44.786 3.181 1.381-.435 2.827-.656 4.298-.656 5.96 0 11.338 3.75 13.382 9.331 1.42 3.879 5.081 6.486 9.211 6.56.906.016 1.812.024 2.719.024h10.841v1.365c.002 22.582-7.072 44.09-20.457 62.199zm23.504.642c11.128-19.005 16.954-40.483 16.954-62.84v-13.863c4.585-.339 8.93-1.551 12.869-3.47v89.192c-9.232-4.948-19.3-7.999-29.823-9.019zm52.254 157.565h-163.585c65.775-31.239 120.06-74.138 148.787-117.335 9.506 10.85 14.798 24.748 14.798 39.486z"/><path d="m150.8 169.321h-24.17c-5.523 0-10 4.477-10 10s4.477 10 10 10h6.085v12.056c0 5.523 4.477 10 10 10s10-4.477 10-10v-12.24c4.607-.893 8.085-4.948 8.085-9.816 0-5.523-4.477-10-10-10z"/><path d="m255.554 169.321h-24.17c-5.523 0-10 4.477-10 10s4.477 10 10 10h6.085v12.056c0 5.523 4.477 10 10 10s10-4.477 10-10v-12.24c4.607-.893 8.085-4.948 8.085-9.816 0-5.523-4.477-10-10-10z"/><path d="m423.138 388.128c-.61 0-1.226-.056-1.842-.171-4.576-.855-7.957-4.756-8.153-9.407l-4.26-100.743-40.212 2.008c-3.482.176-6.809-1.481-8.771-4.369-1.961-2.887-2.275-6.587-.829-9.764l61.913-135.954c1.89-4.151 6.348-6.499 10.843-5.703 4.492.795 7.876 4.529 8.228 9.078l6.509 84.307 43.521-5.117c3.558-.419 7.067 1.098 9.201 3.976s2.564 6.677 1.13 9.959l-68.118 155.903c-1.614 3.691-5.247 5.997-9.16 5.997zm-4.69-130.812c2.486 0 4.891.927 6.737 2.611 1.97 1.796 3.141 4.304 3.253 6.967l2.857 67.575 43.813-100.277-36.549 4.297c-2.701.317-5.417-.479-7.52-2.208-2.102-1.729-3.408-4.24-3.618-6.954l-4.323-55.99-39.02 85.684 33.868-1.691c.17-.01.336-.014.502-.014z"/><g><path d="m90.96 512c-4.118 0-7.912-2.632-9.36-6.483-1.45-3.856-.33-8.317 2.766-11.034 3.187-2.797 7.915-3.242 11.585-1.137 3.56 2.042 5.558 6.227 4.869 10.281-.808 4.759-5.014 8.373-9.86 8.373z"/></g></g></g></svg>