<svg id="_x33_0" enable-background="new 0 0 64 64" height="512" viewBox="0 0 64 64" width="512" xmlns="http://www.w3.org/2000/svg"><g><g><g><path d="m38.92 30.78.11.03h.01c-.67 1.25-1.04 2.68-1.04 4.19v2l-1.14 1.71c-.56.84-.86 1.83-.86 2.84 0 1.04.32 2.03.88 2.86.56.82 1.36 1.49 2.33 1.87l.79.32-1.09.65c-1.8 1.09-2.91 3.04-2.91 5.15v9.6h-8v-9.7c0-1.38-.46-2.65-1.26-3.67v-.01c-.6-.78-1.39-1.4-2.31-1.81-.01 0-.02-.01-.03-.01l.6-.3c1.84-.92 3-2.8 3-4.86 0-1.07-.32-2.12-.91-3.01l-1.09-1.63v-2c0-1.51-.37-2.94-1.03-4.19l.11-.03c.81-.17 1.56-.53 2.17-1.03l1.29 3.88c.28.82 1.04 1.37 1.9 1.37h3.12c.86 0 1.62-.55 1.9-1.37l1.29-3.88c.61.51 1.35.87 2.17 1.03z" fill="#ccd1d9"/></g><g><path d="m36.75 29.75-1.29 3.88c-.28.82-1.04 1.37-1.9 1.37h-3.12c-.86 0-1.62-.55-1.9-1.37l-1.29-3.88c1-.84 1.65-2.07 1.74-3.43.91.44 1.93.68 3.01.68s2.1-.24 3.01-.68c.09 1.36.74 2.59 1.74 3.43z" fill="#f0d0b4"/></g><g><path d="m36.64 24.22.18.85c-.53.51-1.14.93-1.81 1.25-.91.44-1.93.68-3.01.68s-2.1-.24-3.01-.68c-.67-.32-1.28-.74-1.81-1.25l.18-.85c.37-1.87 2.01-3.22 3.92-3.22h.72.72c1.91 0 3.55 1.35 3.92 3.22z" fill="#cf9e76"/></g><g><path d="m25 15h14v4.83.17c0 2-.83 3.8-2.18 5.07l-.18-.85c-.37-1.87-2.01-3.22-3.92-3.22h-.72-.72c-1.91 0-3.55 1.35-3.92 3.22l-.18.85c-.05-.04-.09-.08-.13-.12-1.27-1.27-2.05-3.01-2.05-4.95v-.17z" fill="#f0d0b4"/></g><g><path d="m45 13c0-1.9-1.32-3.49-3.1-3.9l.01-.04c.66-3.49-2.05-6.87-5.59-7.05-1.67-.09-3.19.5-4.32 1.53-1.13-1.03-2.65-1.62-4.32-1.53-3.54.18-6.25 3.56-5.59 7.05 0 .01.01.03.01.04-1.78.41-3.1 2-3.1 3.9 0 1.5.83 2.81 2.05 3.49-.04.17-.05.34-.05.51 0 1.81 1.59 3.24 3.45 2.97.19-.03.37-.08.55-.14v-4.83h14v4.83c.66.23 1.43.24 2.22-.07 1.12-.44 1.78-1.56 1.78-2.76 0-.17-.01-.34-.05-.51 1.22-.68 2.05-1.99 2.05-3.49z" fill="#b27946"/></g><g><path d="m7.67 57.72c-.96.16-1.67 1-1.67 1.97v2.31h-4v-9.7c0-2.44 1.46-4.57 3.6-5.5.52-.23 1.07-.39 1.66-.46l2.74-.34v7.69c0 1.16.25 2.29.73 3.32h-.01c-.99.3-2.01.54-3.05.71z" fill="#f0d0b4"/></g><g><path d="m28 52.3v9.7h-13l3.05-1.66c4.5-2.46 7.66-6.75 8.69-11.71.8 1.02 1.26 2.29 1.26 3.67z" fill="#f0d0b4"/></g><g><path d="m24.43 46.81-.43.61c-1.16 1.66-2.5 3.16-4 4.47v-5.89l2.74.34c.59.07 1.14.23 1.66.46.01 0 .02.01.03.01z" fill="#f0d0b4"/></g><g><path d="m15 62h-9v-2.31c0-.97.71-1.81 1.67-1.97 1.04-.17 2.06-.41 3.05-.71h.01c.39.86.93 1.65 1.61 2.33z" fill="#e6e9ed"/></g><g><path d="m26.74 48.62v.01c-1.03 4.96-4.19 9.25-8.69 11.71l-3.05 1.66 2.66-2.66c1.5-1.5 2.34-3.53 2.34-5.65v-1.8c1.5-1.31 2.84-2.81 4-4.47l.43-.61c.92.41 1.71 1.03 2.31 1.81z" fill="#e6e9ed"/></g><g><path d="m8 39c0 1.96.8 3.72 2.1 4.99v.01c-.07.32-.1.66-.1 1v1l-2.74.34c-.59.07-1.14.23-1.66.46l-.6-.3c-.92-.46-1.67-1.16-2.19-2s-.81-1.83-.81-2.86c0-1.07.32-2.12.91-3.01l1.09-1.63v-2c0-3.22 1.69-6.05 4.24-7.64l.62 6.21c-.55.61-.86 1.42-.86 2.26z" fill="#b27946"/></g><g><path d="m13.65 26-1.35 5.01-3.01-4.21c1.13-.51 2.39-.8 3.71-.8z" fill="#b27946"/></g><g><path d="m20.71 26.8-2.99 4.19-1.36-4.99h.64c1.32 0 2.58.29 3.71.8z" fill="#b27946"/></g><g><path d="m19.9 43.99c1.3-1.27 2.1-3.03 2.1-4.99v-3.59c0-.81-.29-1.6-.82-2.21l.58-5.84c1.35.84 2.46 2.03 3.21 3.45.66 1.25 1.03 2.68 1.03 4.19v2l1.09 1.63c.59.89.91 1.94.91 3.01 0 2.06-1.16 3.94-3 4.86l-.6.3c-.52-.23-1.07-.39-1.66-.46l-2.74-.34v-1c0-.34-.03-.68-.1-1z" fill="#b27946"/></g><g><path d="m21.76 27.36-.58 5.84c-.05-.07-.12-.14-.18-.2-.64-.64-1.51-1-2.41-1h-.59l-.28-1.01 2.99-4.19 1.29-1.8z" fill="#fcd770"/></g><g><path d="m17.72 30.99.28 1.01h-5.97l.27-.98v-.01l1.35-5.01 1.35-5 1.36 5z" fill="#fcd770"/></g><g><path d="m9.29 26.8 3.01 4.21v.01l-.27.98c-.67 0-1.33.2-1.89.57l-.62.42c-.25.16-.47.36-.66.58l-.62-6.21-.24-2.36z" fill="#fcd770"/></g><g><path d="m20 51.89v1.8c0 2.12-.84 4.15-2.34 5.65l-2.66 2.66-2.66-2.66c-.68-.68-1.22-1.47-1.61-2.33-.48-1.03-.73-2.16-.73-3.32v-7.69-1c0-.34.03-.68.1-1v-.01c.47-2.27 2.48-3.99 4.9-3.99 1.38 0 2.63.56 3.54 1.46.68.68 1.16 1.56 1.36 2.53v.01c.07.32.1.66.1 1v1z" fill="#cf9e76"/></g><g><path d="m18.59 32c.9 0 1.77.36 2.41 1 .06.06.13.13.18.2.53.61.82 1.4.82 2.21v3.59c0 1.96-.8 3.72-2.1 4.99-.2-.97-.68-1.85-1.36-2.53-.91-.9-2.16-1.46-3.54-1.46-2.42 0-4.43 1.72-4.9 3.99-1.3-1.27-2.1-3.03-2.1-4.99v-3.17c0-.84.31-1.65.86-2.26.19-.22.41-.42.66-.58l.62-.42c.56-.37 1.22-.57 1.89-.57h5.97z" fill="#f0d0b4"/></g><g><path d="m62 52.4v9.6h-12c4.94-1.85 8.5-6.23 9.3-11.44l.44-2.85c1.41 1.13 2.26 2.85 2.26 4.69z" fill="#f0d0b4"/></g><g><path d="m53.6 48.89 1.58-.68c.48-.21.92-.49 1.29-.83-2.12 4.88-6.48 8.48-11.75 9.61l-3.12.67h-.01-.01c-.92.2-1.58 1.01-1.58 1.96v2.38h-4v-9.6c0-2.11 1.11-4.06 2.91-5.15l1.09-.65.62-.37.01-.01c.5.89 1.33 1.62 2.41 2.08l1.36.59c1.72.73 3.28 1.79 4.6 3.11 1.32-1.32 2.88-2.38 4.6-3.11z" fill="#f0d0b4"/></g><g><path d="m59.09 47.25c.23.14.45.29.65.45v.01l-.44 2.85c-.8 5.21-4.36 9.59-9.3 11.44h-10v-2.38c0-.95.66-1.76 1.58-1.96h.01.01l3.12-.67c5.27-1.13 9.63-4.73 11.75-9.61.29-.26.55-.56.76-.89.06-.09.11-.17.16-.26l.61.37z" fill="#e6e9ed"/></g><g><path d="m42 39c0 .34.02.68.08 1h-.01s-.3.3-.68.66c-.89.86-1.39 2.04-1.39 3.27 0 .82.22 1.6.63 2.29l-.01.01-.62.37-.79-.32c-.97-.38-1.77-1.05-2.33-1.87-.56-.83-.88-1.82-.88-2.86 0-1.01.3-2 .86-2.84l1.14-1.71v-2c0-1.51.37-2.94 1.04-4.19.21-.4.45-.79.73-1.15.69.83 1.48 1.56 2.37 2.18l-.14.16z" fill="#656d78"/></g><g><path d="m62 41.55c0 2.08-1.27 3.96-3.21 4.73l-.79.32-.61-.37c.49-1.11.61-1.69.61-2.3 0-1.23-.5-2.41-1.39-3.27l-.68-.66h-.01c.06-.32.08-.66.08-1v-7l-.14-.16c.89-.62 1.68-1.35 2.37-2.18 1.12 1.49 1.77 3.34 1.77 5.34v2l1.14 1.71c.56.84.86 1.83.86 2.84z" fill="#656d78"/></g><g><path d="m58.23 29.66c-.69.83-1.48 1.56-2.37 2.18-1.94 1.36-4.31 2.16-6.86 2.16s-4.92-.8-6.86-2.16c-.89-.62-1.68-1.35-2.37-2.18 1.63-2.22 4.26-3.66 7.23-3.66h4c2.97 0 5.6 1.44 7.23 3.66z" fill="#656d78"/></g><g><path d="m56.61 40.66c.89.86 1.39 2.04 1.39 3.27 0 .61-.12 1.19-.61 2.3-.05.09-.1.17-.16.26-.21.33-.47.63-.76.89-.37.34-.81.62-1.29.83l-1.58.68c-1.72.73-3.28 1.79-4.6 3.11-1.32-1.32-2.88-2.38-4.6-3.11l-1.36-.59c-1.08-.46-1.91-1.19-2.41-2.08-.41-.69-.63-1.47-.63-2.29 0-1.23.5-2.41 1.39-3.27.38-.36.68-.66.68-.66h.01c.21 1.54.93 2.91 1.97 3.95.04.04.08.08.13.12 1.25 1.2 2.94 1.93 4.82 1.93s3.57-.73 4.82-1.93c1.12-1.05 1.88-2.47 2.1-4.07h.01z" fill="#838f9b"/></g><g><path d="m53.64 43.22.18.85c-1.25 1.2-2.94 1.93-4.82 1.93s-3.57-.73-4.82-1.93l.18-.85c.37-1.87 2.01-3.22 3.92-3.22h.72.72c1.91 0 3.55 1.35 3.92 3.22z" fill="#838f9b"/></g><g><path d="m56 32v7c0 .34-.02.68-.08 1-.22 1.6-.98 3.02-2.1 4.07l-.18-.85c-.37-1.87-2.01-3.22-3.92-3.22h-.72-.72c-1.91 0-3.55 1.35-3.92 3.22l-.18.85c-.05-.04-.09-.08-.13-.12-1.04-1.04-1.76-2.41-1.97-3.95-.06-.32-.08-.66-.08-1v-7l.14-.16c1.94 1.36 4.31 2.16 6.86 2.16s4.92-.8 6.86-2.16z" fill="#f0d0b4"/></g></g><path d="m60.094 46.736c1.79-1.097 2.906-3.036 2.906-5.191 0-1.21-.354-2.381-1.025-3.385l-.975-1.463v-1.697c0-5.514-4.486-10-10-10h-4c-3.543 0-6.654 1.858-8.431 4.645-1.244-.447-2.179-1.501-2.47-2.788 2.061-1.237 3.521-3.37 3.832-5.861.023 0 .046.006.07.006.528 0 1.063-.104 1.587-.312 1.466-.578 2.412-2.027 2.412-3.69 0-.001 0-.001 0-.002 1.248-.936 2-2.414 2-3.998 0-2.033-1.198-3.812-3.006-4.59.102-1.666-.424-3.342-1.495-4.705-1.267-1.611-3.137-2.594-5.133-2.696-1.579-.072-3.101.361-4.366 1.253-1.266-.892-2.782-1.323-4.366-1.253-1.996.103-3.866 1.085-5.133 2.696-1.062 1.352-1.588 3.011-1.49 4.702-1.81.779-3.011 2.558-3.011 4.593 0 1.584.752 3.063 2 3.998v.002c0 1.163.503 2.266 1.38 3.025.744.645 1.703.963 2.686.951.306 2.5 1.768 4.641 3.835 5.881-.291 1.287-1.226 2.341-2.47 2.788-.677-1.064-1.557-1.998-2.615-2.756l.179-1.789c.045-.451-.219-.876-.643-1.035-.422-.161-.903-.015-1.166.354l-.833 1.167c-1.033-.368-2.112-.565-3.224-.579l-1.164-4.269c-.119-.436-.514-.738-.965-.738h-.001c-.452.001-.847.304-.965.739l-1.15 4.267c-1.116.013-2.2.21-3.237.58l-.833-1.167c-.263-.369-.745-.517-1.166-.354-.424.159-.688.583-.643 1.035l.179 1.789c-2.622 1.88-4.184 4.856-4.184 8.111v1.697l-.92 1.38c-.707 1.061-1.08 2.294-1.08 3.568 0 2.086.993 3.985 2.638 5.182-1.615 1.292-2.638 3.276-2.638 5.47v10.703h62v-10.603c0-2.243-1.105-4.354-2.906-5.661zm-21.094-9.433v-2.303c0-1.338.334-2.598.918-3.708.345.338.706.654 1.082.949v6.759c0 .207.016.411.031.614l-.337.325c-1.077 1.04-1.694 2.494-1.694 3.99 0 .417.061.821.15 1.216-1.317-.712-2.15-2.074-2.15-3.6 0-.813.238-1.6.689-2.275zm15.784 9.988-1.579.676c-1.544.662-2.955 1.556-4.205 2.661-1.25-1.106-2.66-1.999-4.204-2.66l-1.36-.583c-1.526-.654-2.436-1.946-2.436-3.456 0-.691.212-1.364.586-1.937 1.187 2.932 4.061 5.008 7.414 5.008s6.226-2.076 7.414-5.008c.374.572.586 1.246.586 1.937 0 1.465-.87 2.784-2.216 3.362zm-6.505-6.291h1.441c1.426 0 2.663 1.015 2.942 2.412l.057.286c-1.022.813-2.314 1.302-3.719 1.302s-2.697-.489-3.72-1.301l.057-.286c.279-1.398 1.517-2.413 2.942-2.413zm6.721-2c0 1.055-.276 2.047-.756 2.909-.766-1.649-2.386-2.779-4.244-2.884v-2.025h-2v2.025c-1.858.106-3.478 1.236-4.244 2.884-.48-.862-.756-1.854-.756-2.909v-5.486c1.831.956 3.877 1.486 6 1.486s4.169-.53 6-1.486zm-15.572 9.109.932-.559c.598.698 1.367 1.278 2.289 1.673l1.36.583c1.606.688 3.048 1.665 4.284 2.901l.707.707.707-.707c1.211-1.211 2.623-2.168 4.191-2.856-2.24 3.109-5.568 5.341-9.384 6.159l-2.699.579c-.502-.375-.815-.951-.815-1.589v-3h-2v3c0 .932.321 1.812.884 2.51-.545.549-.884 1.296-.884 2.107v1.383h-2v-8.603c0-1.746.931-3.389 2.428-4.288zm1.572 11.508c0-.469.332-.88.791-.979l3.143-.674c5.48-1.174 10.091-4.916 12.377-10.022.123-.122.245-.245.356-.377l.906.544c.029.017.054.04.083.058l-.345 2.236c-.738 4.798-3.992 8.84-8.508 10.597h-8.803zm20-18.072c0 1.525-.832 2.886-2.146 3.598.086-.395.146-.799.146-1.214 0-1.495-.617-2.948-1.693-3.988l-.338-.326c.015-.204.031-.408.031-.615v-6.759c.376-.295.737-.611 1.082-.949.584 1.11.918 2.37.918 3.708v2.303l1.311 1.968c.451.674.689 1.46.689 2.274zm-14-14.545h4c2.34 0 4.443 1.016 5.907 2.624-2.07 2.148-4.902 3.376-7.907 3.376s-5.837-1.228-7.907-3.376c1.464-1.608 3.567-2.624 5.907-2.624zm-18.72-2.301.057-.286c.279-1.398 1.517-2.413 2.942-2.413h1.441c1.426 0 2.663 1.015 2.942 2.412l.057.286c-1.022.813-2.314 1.302-3.719 1.302s-2.697-.489-3.72-1.301zm9.72-10.699h-12v-3.132l1.445.964c.271.181.613.217.915.101.304-.117.531-.375.609-.69l.491-1.961 1.74 2.318c.377.504 1.223.504 1.6 0l1.739-2.318.491 1.961c.078.315.306.573.609.69.3.116.643.08.915-.101l1.446-.964zm-15.311 4.514c-.438-.38-.689-.932-.689-1.514 0-.126.007-.213.023-.28l.173-.735-.659-.367c-.948-.53-1.537-1.533-1.537-2.618 0-1.407.956-2.61 2.324-2.926l.929-.259-.179-.945c-.258-1.36.106-2.793.999-3.929.909-1.157 2.244-1.862 3.662-1.935 1.342-.075 2.611.384 3.593 1.274l.672.61.672-.608c.981-.891 2.251-1.349 3.593-1.274 1.418.072 2.753.777 3.662 1.935.893 1.136 1.257 2.568.99 3.979l-.171.938.93.215c1.368.315 2.324 1.518 2.324 2.925 0 1.085-.589 2.088-1.537 2.617l-.659.367.173.735c.016.068.023.155.023.281 0 .837-.45 1.556-1.146 1.831-.286.113-.573.163-.854.163v-9.994c0-.369-.203-.708-.528-.882s-.72-.154-1.026.05l-1.819 1.213-.657-2.623c-.093-.375-.394-.662-.771-.738-.383-.074-.768.072-.999.38l-2.2 2.933-2.2-2.933c-.23-.309-.617-.454-.998-.381-.378.076-.679.363-.771.738l-.656 2.623-1.819-1.213c-.307-.204-.702-.224-1.026-.05-.327.175-.53.514-.53.883v9.992c-.484.002-.942-.159-1.311-.478zm3.311-2.514h12v4c0 1.055-.276 2.047-.756 2.909-.766-1.649-2.386-2.779-4.244-2.884v-2.025h-2v2.025c-1.858.106-3.478 1.236-4.244 2.884-.48-.862-.756-1.854-.756-2.909zm6 12c.785 0 1.543-.119 2.26-.33.264.887.725 1.688 1.347 2.349l-1.099 3.298c-.137.409-.519.683-.949.683h-3.117c-.431 0-.813-.274-.949-.684l-1.099-3.298c.622-.661 1.083-1.462 1.347-2.349.716.212 1.474.331 2.259.331zm-5.3 3.262.896 2.688c.409 1.226 1.552 2.05 2.845 2.05h3.117c1.293 0 2.437-.824 2.846-2.051l.896-2.688c.122.06.241.125.367.176-.424 1.109-.667 2.307-.667 3.563v1.697l-.975 1.462c-.671 1.005-1.025 2.176-1.025 3.386 0 2.155 1.116 4.094 2.906 5.191-1.801 1.307-2.906 3.418-2.906 5.661v8.603h-6v-8.703c0-2.193-1.023-4.178-2.638-5.47 1.645-1.198 2.638-3.097 2.638-5.182 0-1.273-.373-2.507-1.08-3.567l-.92-1.381v-1.697c0-1.244-.235-2.446-.66-3.566.124-.051.24-.114.36-.172zm-19.7 28.432c0-.491.352-.906.835-.986.798-.133 1.591-.317 2.375-.525.39.672.861 1.303 1.425 1.867l.95.95h-5.585zm2.674-28.003-.306-3.055 1.764 2.468c-.515.108-1.008.302-1.458.587zm-.674 4.136c0-.809.402-1.56 1.075-2.009l.619-.413c.399-.264.862-.405 1.34-.405h6.552c.645 0 1.251.251 1.707.707s.707 1.063.707 1.707v3.586c0 1.075-.285 2.101-.81 3.004-.879-1.516-2.4-2.611-4.19-2.913v-2.091h-2v2.09c-1.791.302-3.312 1.397-4.19 2.913-.525-.902-.81-1.928-.81-3.003zm11.632-7.19-.274 2.741c-.451-.198-.937-.307-1.438-.345zm-5.632 12.363c2.206 0 4 1.794 4 4v8.687c0 1.869-.728 3.627-2.05 4.949l-1.95 1.95-1.95-1.95c-1.322-1.322-2.05-3.08-2.05-4.949v-8.687c0-2.206 1.794-4 4-4zm6 12.687v-1.367c1.387-1.259 2.64-2.663 3.724-4.191.334.219.643.468.914.757-.848 3.547-2.838 6.667-5.64 8.925.652-1.26 1.002-2.664 1.002-4.124zm0-4.168v-2.386l1.62.202c.06.008.115.029.174.038-.556.75-1.155 1.466-1.794 2.146zm5.925 1.976c.043.262.075.528.075.802v8.703h-8.125c3.742-2.149 6.564-5.514 8.05-9.505zm-1.925-16.495v2.303l1.256 1.884c.486.73.744 1.581.744 2.458 0 1.688-.938 3.207-2.448 3.962l-.205.102c-.471-.168-.964-.294-1.479-.358l-1.868-.234v-.117c0-.229-.016-.454-.041-.676 1.315-1.467 2.041-3.334 2.041-5.324v-3.586c0-.909-.278-1.772-.786-2.504l.363-3.63c1.533 1.489 2.423 3.526 2.423 5.72zm-5.87-7.702-.996 1.394-.452-1.657c.493.042.976.132 1.448.263zm-4.124-2.477 1.685 6.179h-3.351zm-2.669 2.214-.453 1.682-1.013-1.419c.478-.133.967-.223 1.466-.263zm-6.888 18.571c-1.511-.754-2.449-2.273-2.449-3.961 0-.877.258-1.728.744-2.458l1.256-1.884v-2.303c0-2.194.89-4.231 2.423-5.72l.398 3.984c-.526.738-.821 1.629-.821 2.563v3.173c0 1.99.726 3.857 2.041 5.324-.025.222-.041.447-.041.676v.117l-1.868.233c-.514.064-1.007.19-1.478.358zm-2.449 6.691c0-2.516 1.883-4.649 4.38-4.962l1.62-.202v6.554c0 .91.135 1.799.394 2.645-.492.124-.988.232-1.486.324-.558-.369-.908-.979-.908-1.656v-3h-2v3c0 .949.335 1.842.917 2.546-.565.548-.917 1.307-.917 2.148v1.306h-2zm58 8.703h-7.031c3.356-2.412 5.674-6.102 6.318-10.292l.105-.681c.389.72.608 1.532.608 2.37z"/></g></svg>