<svg height="512pt" viewBox="-21 0 512 512.00125" width="512pt" xmlns="http://www.w3.org/2000/svg"><path d="m225.90625 504.5c-5.523438 0-10.921875-2.773438-14.039062-7.820312-20.082032-32.484376-17.34375-81.742188-16.171876-102.777344.109376-1.964844.203126-3.585938.242188-4.785156.300781-9.101563 7.945312-16.246094 17.027344-15.929688 9.101562.300781 16.234375 7.925781 15.929687 17.027344-.046875 1.382812-.148437 3.25-.273437 5.519531-.910156 16.394531-3.332032 59.9375 11.296875 83.605469 4.789062 7.746094 2.390625 17.90625-5.355469 22.695312-2.703125 1.671875-5.699219 2.464844-8.65625 2.464844zm0 0" fill="#efd176"/><path d="m345.539062 479.617188c-.53125 0-1.070312-.023438-1.609374-.078126-9.0625-.878906-15.699219-8.9375-14.820313-18 3.046875-31.414062-8.464844-55.742187-35.191406-74.382812-7.46875-5.210938-9.300781-15.488281-4.09375-22.957031 5.210937-7.46875 15.488281-9.300781 22.957031-4.09375 36.332031 25.339843 53.328125 61.515625 49.148438 104.613281-.824219 8.523438-8 14.898438-16.390626 14.898438zm0 0" fill="#efd176"/><path d="m366 289.300781c-14.859375 0-29.800781-3.699219-43.042969-10.964843-7.984375-4.382813-10.902343-14.40625-6.523437-22.390626 4.382812-7.980468 14.40625-10.902343 22.390625-6.519531 14.257812 7.824219 31.554687 9.109375 46.265625 3.433594 19.441406-7.503906 35.074218-26.984375 45.203125-56.335937 2.972656-8.609376 12.359375-13.179688 20.964843-10.207032 8.609376 2.96875 13.179688 12.355469 10.207032 20.964844-9.34375 27.078125-28.121094 62.304688-64.503906 76.34375-9.84375 3.796875-20.382813 5.675781-30.960938 5.675781zm0 0" fill="#efd176"/><path d="m83.605469 344.28125c-25.082031 0-49.5625-10.777344-71.027344-31.328125-6.578125-6.296875-6.808594-16.734375-.511719-23.3125 6.300782-6.578125 16.738282-6.804687 23.316406-.507813 16.128907 15.441407 33.15625 22.890626 50.617188 22.117188 26.6875-1.167969 45.476562-20.324219 50.601562-26.167969 6.003907-6.847656 16.421876-7.53125 23.265626-1.53125 6.851562 6.003907 7.535156 16.421875 1.53125 23.269531-19.492188 22.230469-47.140626 36.203126-73.960938 37.375-1.277344.058594-2.554688.085938-3.832031.085938zm0 0" fill="#efd176"/><path d="m158.839844 80.984375c26.875 18.816406 37.058594 53.695313 40.667968 71.878906 1.3125 6.609375-3.15625 12.988281-9.8125 14.019531-18.324218 2.828126-54.582031 5.183594-81.457031-13.632812-26.875-18.820312-37.0625-53.699219-40.671875-71.882812-1.3125-6.609376 3.15625-12.988282 9.8125-14.015626 18.324219-2.832031 54.582032-5.1875 81.460938 13.632813zm0 0" fill="#8ee2cf"/><path d="m149.648438 135.898438c-1.488282 0-2.988282-.4375-4.296876-1.355469l-32.230468-22.570313c-3.394532-2.375-4.21875-7.050781-1.84375-10.441406 2.378906-3.394531 7.054687-4.21875 10.445312-1.84375l32.230469 22.570312c3.394531 2.375 4.21875 7.050782 1.84375 10.445313-1.457031 2.082031-3.785156 3.195313-6.148437 3.195313zm0 0" fill="#6fce91"/><path d="m248.121094 65.238281c-18.816406 26.875-16.460938 63.136719-13.632813 81.457031 1.027344 6.660157 7.40625 11.125 14.015625 9.816407 18.1875-3.609375 53.0625-13.796875 71.882813-40.671875 18.816406-26.875 16.460937-63.132813 13.632812-81.457032-1.027343-6.65625-7.40625-11.125-14.015625-9.8125-18.1875 3.605469-53.066406 13.792969-71.882812 40.667969zm0 0" fill="#8ee2cf"/><path d="m272.960938 114.15625c-1.484376 0-2.984376-.441406-4.292969-1.355469-3.394531-2.378906-4.21875-7.054687-1.84375-10.445312l22.570312-32.234375c2.375-3.390625 7.050781-4.214844 10.445313-1.839844 3.390625 2.375 4.21875 7.050781 1.839844 10.445312l-22.566407 32.230469c-1.460937 2.085938-3.789062 3.199219-6.152343 3.199219zm0 0" fill="#6fce91"/><path d="m248.960938 77.03125c5.699218 32.3125-11.761719 64.175781-22.070313 79.589844-3.746094 5.597656-11.414063 6.949218-16.847656 2.96875-14.957031-10.953125-42.261719-34.925782-47.960938-67.238282-5.695312-32.308593 11.761719-64.175781 22.070313-79.585937 3.746094-5.601563 11.414062-6.953125 16.847656-2.972656 14.957031 10.957031 42.261719 34.929687 47.960938 67.238281zm0 0" fill="#8ee2cf"/><path d="m208.929688 111.570312c-3.570313 0-6.738282-2.5625-7.378907-6.199218l-6.832031-38.753906c-.71875-4.078126 2.003906-7.96875 6.082031-8.6875 4.082031-.71875 7.972657 2.007812 8.691407 6.085937l6.832031 38.75c.71875 4.078125-2.003907 7.96875-6.085938 8.6875-.4375.078125-.878906.117187-1.308593.117187zm0 0" fill="#6fce91"/><path d="m213.8125 131.699219c67.023438-11.816407 124.242188 32.519531 144.757812 111.324219 21.34375 81.972656 1 149.511718-95.757812 166.574218-96.761719 17.058594-138.976562-39.449218-146.957031-123.777344-7.671875-81.070312 30.929687-142.304687 97.957031-154.121093zm0 0" fill="#f7ef87"/><g fill="#efd176"><path d="m174.972656 145.730469c-42.546875 24.824219-65.152344 76.316406-59.117187 140.089843 7.957031 84.09375 49.96875 140.515626 146.15625 123.90625-129.265625-50.8125-120.6875-185.125-87.039063-263.996093zm0 0"/><path d="m218.796875 236.410156c-1.488281.003906-2.988281-.4375-4.296875-1.355468-3.390625-2.375-4.21875-7.050782-1.839844-10.445313l9.703125-13.859375c2.378907-3.394531 7.054688-4.21875 10.445313-1.84375l13.863281 9.707031c3.390625 2.375 4.214844 7.050781 1.839844 10.445313-2.375 3.390625-7.050781 4.21875-10.445313 1.839844l-7.714844-5.402344-5.40625 7.71875c-1.460937 2.082031-3.785156 3.195312-6.148437 3.195312zm0 0"/><path d="m286.164062 224.53125c-1.488281 0-2.988281-.4375-4.296874-1.355469-3.390626-2.375-4.21875-7.050781-1.839844-10.445312l9.703125-13.859375c2.378906-3.394532 7.054687-4.21875 10.445312-1.84375l13.863281 9.707031c3.390626 2.375 4.214844 7.050781 1.839844 10.445313-2.375 3.390624-7.050781 4.21875-10.445312 1.839843l-7.714844-5.402343-5.40625 7.71875c-1.457031 2.082031-3.785156 3.195312-6.148438 3.195312zm0 0"/><path d="m151.425781 248.289062c-1.484375 0-2.984375-.4375-4.292969-1.355468-3.394531-2.375-4.21875-7.050782-1.84375-10.445313l9.707032-13.859375c2.375-3.394531 7.054687-4.21875 10.445312-1.84375l13.859375 9.707032c3.394531 2.375 4.21875 7.050781 1.84375 10.445312-2.378906 3.390625-7.050781 4.214844-10.445312 1.839844l-7.71875-5.402344-5.402344 7.71875c-1.460937 2.082031-3.785156 3.195312-6.152344 3.195312zm0 0"/><path d="m276.832031 368.578125c-1.488281 0-2.988281-.4375-4.296875-1.355469-3.390625-2.375-4.21875-7.050781-1.839844-10.445312l9.703126-13.859375c2.378906-3.394531 7.054687-4.21875 10.445312-1.84375l13.863281 9.707031c3.390625 2.375 4.21875 7.050781 1.839844 10.445312-2.375 3.390626-7.050781 4.21875-10.445313 1.839844l-7.714843-5.402344-5.40625 7.71875c-1.457031 2.082032-3.785157 3.195313-6.148438 3.195313zm0 0"/><path d="m209.460938 380.457031c-1.484376 0-2.984376-.4375-4.292969-1.355469-3.394531-2.375-4.21875-7.050781-1.84375-10.445312l9.707031-13.859375c2.375-3.394531 7.050781-4.21875 10.445312-1.84375l13.859376 9.707031c3.394531 2.375 4.21875 7.050782 1.84375 10.445313-2.375 3.390625-7.050782 4.214843-10.445313 1.839843l-7.71875-5.402343-5.402344 7.71875c-1.457031 2.082031-3.785156 3.195312-6.152343 3.195312zm0 0"/></g><path d="m196.804688 323.054688c-2.230469-12.652344-16.917969-20.636719-32.804688-17.835938-15.890625 2.800781-26.960938 15.324219-24.730469 27.980469 2.230469 12.652343 16.917969 20.636719 32.804688 17.835937 15.890625-2.800781 26.960937-15.328125 24.730469-27.980468zm0 0" fill="#eda1ab"/><path d="m295.234375 305.679688c2.230469 12.652343 16.921875 20.640624 32.808594 17.839843s26.960937-15.328125 24.730469-27.980469c-2.230469-12.652343-16.921876-20.640624-32.808594-17.839843-15.886719 2.800781-26.960938 15.328125-24.730469 27.980469zm0 0" fill="#eda1ab"/><path d="m266.109375 292.679688c-2.523437-14.332032-13.148437-13.851563-25.957031-11.589844-12.808594 2.257812-22.957032 5.433594-20.429688 19.769531s14.960938 24.125 27.773438 21.863281c12.808594-2.257812 21.140625-15.707031 18.613281-30.042968zm0 0" fill="#4e5660"/><path d="m192.703125 282.699219c-4.683594-3.277344-10.363281-4.539063-15.996094-3.546875-5.628906.996094-10.535156 4.121094-13.816406 8.804687-3.277344 4.683594-4.539063 10.363281-3.546875 15.992188.644531 3.640625 3.808594 6.199219 7.378906 6.199219.429688 0 .871094-.039063 1.308594-.113282 4.082031-.71875 6.804688-4.609375 6.085938-8.6875-.296876-1.6875.078124-3.386718 1.0625-4.789062.980468-1.398438 2.449218-2.335938 4.132812-2.632813s3.382812.082031 4.785156 1.0625c1.398438.980469 2.335938 2.449219 2.632813 4.132813.71875 4.078125 4.609375 6.808594 8.6875 6.085937 4.078125-.71875 6.800781-4.609375 6.082031-8.6875-.988281-5.632812-4.117188-10.539062-8.796875-13.820312zm274.746094-91.300781c-2.804688-5.757813-7.6875-10.085938-13.742188-12.171876-6.054687-2.09375-12.566406-1.699218-18.328125 1.105469-5.761718 2.804688-10.082031 7.6875-12.175781 13.742188-9.386719 27.199219-23.496094 45.105469-40.8125 51.785156-4.585937 1.769531-9.582031 2.765625-14.679687 2.953125-.589844-2.535156-1.207032-5.09375-1.882813-7.679688-10.503906-40.339843-30.425781-72.738281-57.621094-93.695312-1.910156-1.472656-3.847656-2.875-5.808593-4.21875 9.910156-6.59375 18-14.324219 24.128906-23.078125 6.980468-9.96875 11.867187-21.914063 14.523437-35.503906.796875-4.0625-1.855469-8.003907-5.917969-8.800781-4.0625-.792969-8.007812 1.855468-8.800781 5.921874-2.253906 11.523438-6.320312 21.539063-12.089843 29.78125-6.269532 8.949219-15.171876 16.691407-26.480469 23.058594-11.402344-5.6875-23.472657-9.425781-36.011719-11.167968 5.652344-16.851563 7.210938-32.863282 4.597656-47.699219-.417968-2.355469-.945312-4.664063-1.554687-6.929688 7.710937-10.65625 26.324219-28.871093 66.667969-36.875 1.585937-.316406 2.773437.304688 3.339843.703125.570313.398438 1.558594 1.304688 1.804688 2.898438.640625 4.144531 1.121093 8.367187 1.425781 12.550781.300781 4.128906 3.890625 7.242187 8.023438 6.933594 4.128906-.300781 7.234374-3.890625 6.933593-8.023438-.332031-4.582031-.855469-9.207031-1.558593-13.75-.8125-5.261719-3.660157-9.839843-8.023438-12.894531s-9.640625-4.167969-14.863281-3.132812c-17.890625 3.550781-49.085938 12.738281-69.886719 35.4375-11.261719-22.863282-30.730469-39.753907-43.222656-48.90625-4.292969-3.144532-9.546875-4.363282-14.792969-3.441407-5.246094.925781-9.765625 3.871094-12.722656 8.292969-8.609375 12.875-21.125 35.40625-23.890625 60.742188-27.308594-14.214844-59.765625-12.179688-77.789063-9.398438-5.261719.8125-9.839843 3.664062-12.898437 8.023438-3.054688 4.363281-4.167969 9.644531-3.128906 14.863281 3.953124 19.929687 14.894531 56.378906 43.722656 76.566406 8.757812 6.128906 19.003906 10.625 30.570312 13.429687-1.382812 1.9375-2.726562 3.914063-4.015625 5.953126-18.386719 28.992187-26.027343 66.253906-22.101562 107.75.335937 3.5625.738281 7.050781 1.1875 10.476562-7.828125 4.132812-15.847657 6.40625-23.910157 6.757812-15.324218.671876-30.5-6.066406-45.097656-20.042968-4.628906-4.433594-10.6875-6.796875-17.113281-6.65625-6.40625.140625-12.371094 2.765625-16.804687 7.394531-9.144532 9.558594-8.8125 24.773437.742187 33.917969 22.832031 21.855468 49.183594 33.410156 76.214844 33.410156 1.382812 0 2.78125-.03125 4.160156-.089844 10.945313-.480468 22.289063-2.988281 33.222656-7.304687 8.761719 23.140625 21.5625 41.210937 38.332031 53.984375 8.441407 6.433594 17.824219 11.433594 28.101563 15.015625-.261719 16.863281.746094 31.613281 3.074219 44.921875.636718 3.644531 3.804687 6.210937 7.378906 6.210937.429688 0 .863281-.039062 1.300781-.113281 4.082031-.714844 6.8125-4.601562 6.097657-8.679688-1.988282-11.371093-2.941407-23.964843-2.890626-38.273437 5.773438 1.171875 11.777344 1.96875 18.027344 2.363281.183594 28.308594 4.585938 49.648438 13.128906 63.46875 2.605469 4.214844 1.292969 9.765625-2.921874 12.371094-1.421876.878906-3.050782 1.34375-4.710938 1.34375-3.144531 0-6.007812-1.59375-7.660156-4.261719-.835938-1.351562-1.648438-2.773437-2.421875-4.230469-1.941407-3.660156-6.480469-5.050781-10.140625-3.113281-3.660156 1.941407-5.050782 6.480469-3.109375 10.140625.925781 1.75 1.90625 3.460938 2.914062 5.089844 4.402344 7.125 12.035157 11.375 20.417969 11.375 4.445312 0 8.804688-1.238281 12.597656-3.582031 11.253906-6.957031 14.75-21.769531 7.792969-33.019531-4.941406-7.996094-10.648437-24.011719-10.890625-55.355469 9.132812-.285157 18.703125-1.296875 28.707031-3.058594 14.746094-2.601563 28.058594-6.398437 39.914063-11.371094 13.992187 14.894531 19.769531 33 17.617187 55.199219-1.277343 13.167969 8.398438 24.914062 21.566407 26.191406.769531.078125 1.554687.113282 2.332031.113282 12.402343 0 22.65625-9.316407 23.855469-21.675782 3.1875-32.871094-5.496094-62.664062-25.144532-86.636718 4.484375-4.675782 8.484375-9.722657 11.96875-15.152344 11.898438-18.53125 17.75-41.015625 17.566406-67.183594 8.949219-.71875 17.628907-2.664062 25.875-5.847656 39.066407-15.074219 59.027344-52.3125 68.894532-80.894532 2.089844-6.058593 1.695312-12.566406-1.109375-18.328124zm-380.339844 145.304687c-1.160156.050781-2.335937.078125-3.503906.078125-23.089844 0-45.855469-10.113281-65.839844-29.242188-3.582031-3.429687-3.707031-9.128906-.28125-12.710937 1.664063-1.734375 3.898437-2.71875 6.296875-2.769531 2.402344-.042969 4.679688.832031 6.414062 2.492187 17.671876 16.917969 36.5625 25.058594 56.132813 24.191407 8.734375-.378907 17.363281-2.492188 25.757813-6.28125 1.195312 6.136718 2.589843 12.019531 4.195312 17.652343-9.636719 3.90625-19.609375 6.171875-29.171875 6.589844zm103.277344-319.769531c.894531-1.339844 2.175781-1.742188 2.859375-1.863282.683594-.117187 2.023437-.179687 3.324218.773438 33.957032 24.875 42.773438 49.828125 45.003907 62.492188 2.359375 13.371093.554687 28.140624-5.328125 43.96875-7.785156-.066407-15.710938.59375-23.738282 2.007812-8.027343 1.414062-15.699218 3.507812-22.992187 6.230469-10.941406-12.859375-17.691406-26.125-20.046875-39.492188-2.234375-12.664062-2.484375-39.125 20.917969-74.117187zm-77.847657 130.171875c-10.53125-7.375-29.421874-25.914063-37.617187-67.199219-.3125-1.582031.308594-2.773438.707031-3.339844.398438-.566406 1.304688-1.558594 2.898438-1.804687 40.648437-6.277344 64.367187 4.476562 75.257812 11.851562.203125 2.335938.496094 4.6875.910156 7.042969 2.617188 14.835938 9.558594 29.347656 20.636719 43.25-11.191406 5.925781-21.253906 13.566406-30.023437 22.808594-12.804688-2.113282-23.816406-6.34375-32.769532-12.609375zm241.929688 316.890625c-.449219 4.628906-4.289062 8.121094-8.929688 8.121094-.296874 0-.59375-.011719-.886718-.042969-2.390625-.230469-4.546875-1.378907-6.070313-3.234375-1.527343-1.851563-2.242187-4.1875-2.007812-6.578125 2.398437-24.761719-3.832031-46.058594-18.527344-63.460938 5.398437-3.015625 10.421875-6.328125 15.058594-9.945312 16.980469 20.925781 24.171875 46.167969 21.363281 75.140625zm-10.871094-108.445313c-15.460937 24.082031-43.082031 39.78125-82.089844 46.660157-39.007812 6.878906-70.328124 1.570312-93.097656-15.769532-15.96875-12.164062-27.890625-30.171875-35.671875-53.777344-.097656-.445312-.238281-.886718-.421875-1.320312-3.070312-9.589844-5.46875-20.082031-7.1875-31.46875-.003906-.027344-.007812-.054688-.011718-.085938-.714844-4.738281-1.316407-9.628906-1.792969-14.675781-3.613281-38.15625 3.246093-72.148437 19.832031-98.304687 3.152344-4.976563 6.625-9.597656 10.394531-13.867188.074219-.078125.144531-.164062.214844-.242187 15.757813-17.746094 36.667969-29.261719 61.347656-33.613281 8.644531-1.527344 17.15625-2.066407 25.464844-1.640626h.027344c21.195312 1.09375 41.066406 8.476563 58.449219 21.871094 24.53125 18.910156 42.601562 48.507813 52.257812 85.59375 1.113281 4.277344 2.101562 8.476563 2.96875 12.59375.027344.175782.0625.351563.105469.519532 2.261719 10.878906 3.652343 21.199218 4.175781 30.949218-.003906.109375-.015625.21875-.015625.328125 0 .363281.035156.714844.082031 1.0625 1.183594 25.914063-3.828125 47.742188-15.03125 65.1875zm110.78125-150.71875c-8.828125 25.578125-26.425781 58.792969-60.117187 71.796875-6.75 2.601563-13.855469 4.226563-21.199219 4.859375-.511719-5.78125-1.296875-11.730469-2.34375-17.832031 5.90625-.453125 11.691406-1.722656 17.074219-3.800781 21.566406-8.324219 38.714843-29.378907 49.589843-60.886719.785157-2.269531 2.40625-4.097656 4.5625-5.148438 2.160157-1.050781 4.597657-1.199218 6.867188-.414062 2.269531.78125 4.101562 2.402344 5.148438 4.558594 1.050781 2.160156 1.199218 4.597656.417968 6.867187zm-155.269531 52.738281c-11.625 2.050782-19.414063 13.175782-17.363281 24.796876.640625 3.640624 3.804687 6.199218 7.375 6.199218.433594 0 .871094-.039062 1.3125-.113281 4.078125-.71875 6.804687-4.609375 6.085937-8.691406-.613281-3.476563 1.714844-6.804688 5.191407-7.417969 3.480468-.613281 6.808593 1.71875 7.417968 5.195312.722656 4.078126 4.609375 6.800782 8.691406 6.082032 4.078126-.71875 6.800782-4.609375 6.082032-8.6875-2.046875-11.621094-13.175782-19.410156-24.792969-17.363282zm-39.941406 15.914063c-5.820313-1.765625-12.332031-1.1875-20.316407.21875-9.152343 1.613281-30.582031 5.390625-26.515624 28.457031 2.921874 16.566406 16.492187 28.386719 31.484374 28.386719 1.644532 0 3.308594-.144531 4.976563-.4375 8.324219-1.46875 15.476563-6.414063 20.132813-13.929687 4.488281-7.242188 6.109374-16.050782 4.566406-24.800782-2.082032-11.824218-8.941406-16.257812-14.328125-17.894531zm-2.988281 34.792969c-2.378907 3.835937-5.925782 6.34375-9.988282 7.058594-8.714844 1.539062-17.277344-5.542969-19.082031-15.777344-1.015625-5.753906-.824219-8.410156 14.34375-11.082032 3.222656-.570312 6.675781-1.089843 9.558594-1.089843 1.445312 0 2.742187.132812 3.796875.453125 1.121094.339844 2.992187.90625 3.917968 6.140625.902344 5.117187-.003906 10.195312-2.546874 14.296875zm0 0"/></svg>