<?xml version="1.0"?>
<svg xmlns="http://www.w3.org/2000/svg" viewBox="0 0 512 512" width="512" height="512"><g id="Fill_out_line" data-name="Fill out line"><path d="M488,69.25V496H408V473.25a553.66229,553.66229,0,0,0-16.25977-133.17993v-.01c-.63037-2.55-1.28027-5.09009-1.95019-7.64014l-1.73,3.46-9.77979,19.55005a147.64,147.64,0,0,1-125.61035,81.46021L239.02,445.99q-4.78491,3.17981-9.68994,6.13989A250.15119,250.15119,0,0,1,100.26,488a55.88973,55.88973,0,0,1-54.40015-43.09009L41.8501,427.87012a250.24024,250.24024,0,0,1,10.5498-148.4502L96,168V80l64-56,64,24,16,40-32,40-8-8-9.42993,13.2L160,176l5.64014,45.12012a395.40393,395.40393,0,0,1,2.5,70.02978A164.67675,164.67675,0,0,1,291.98,201.31006Q297.93531,200.42492,304,200l3.91992-.18994a82.89153,82.89153,0,0,1,82-95.13013,83.2407,83.2407,0,0,1,28,4.88013A76.977,76.977,0,0,1,472,72Z" style="fill:#f8d2b3"/><path d="M384,280V264H368v16a87.46023,87.46023,0,0,0,10.51465,41.68066c.92822,3.19434,1.852,6.50245,2.75879,9.884l-10.14551,20.29077a139.5974,139.5974,0,0,1-158.71875,73.001l-2.46875-.61719-3.88086,15.52148,2.46875.61719a153.96767,153.96767,0,0,0,18.97607,3.49243A241.30409,241.30409,0,0,1,100.2627,480a47.70276,47.70276,0,0,1-46.61329-36.91895L49.6377,426.03418A241.08784,241.08784,0,0,1,59.85059,282.33594L103.4502,170.915A8.00438,8.00438,0,0,0,104,168V83.62988l57.669-50.46L217.88379,54.25l12.957,32.39258-23.50391,29.38086L185.15332,93.83887l6.43652-19.3086-15.17968-5.06054-8,24a8.00185,8.00185,0,0,0,1.93261,8.1875L189.551,120.86548l-36.0608,50.48511a7.997,7.997,0,0,0-1.42871,5.6416l5.64063,45.123a385.55181,385.55181,0,0,1-13.36426,159.58594l15.32422,4.59766a402.57247,402.57247,0,0,0,16.43457-93.124,157.30677,157.30677,0,0,1,125.30615-84.91552c.63086,2.70605,1.37988,5.397,2.26807,8.062l8.74023,26.21,15.17774-5.0625-8.73926-26.208a74.88507,74.88507,0,0,1,87.67676-96.709,83.90523,83.90523,0,0,0-3.58692,10.04l-2.63183,9.21,15.38476,4.39648,2.63184-9.21094a69.30028,69.30028,0,0,1,54.99121-49.0957l-2.63086-15.7832a85.383,85.383,0,0,0-56.2041,35.97217,90.85869,90.85869,0,0,0-115.32764,92.31762,173.55251,173.55251,0,0,0-122.51025,69.56006,407.66811,407.66811,0,0,0-3.06348-41.82739l-5.25293-42.02344,32.69409-45.7727,1.32251,1.32251a8.0014,8.0014,0,0,0,11.9043-.66016l32-40a7.99747,7.99747,0,0,0,1.18066-7.96777l-16-40a7.99688,7.99688,0,0,0-4.61914-4.51953l-64-24a7.98877,7.98877,0,0,0-8.07617,1.46972l-64,56A7.999,7.999,0,0,0,88,80v86.49023L44.9502,276.50586A257.02156,257.02156,0,0,0,34.06348,429.69824l4.01172,17.04785A63.64122,63.64122,0,0,0,100.2627,496a257.33133,257.33133,0,0,0,143.19238-43.35547l8.98242-5.98828-1.17554-1.76343a155.41727,155.41727,0,0,0,134.17652-85.8811l1.70263-3.405A545.57926,545.57926,0,0,1,400,473.25V496h16V473.25a561.54778,561.54778,0,0,0-13.80322-123.66406A87.555,87.555,0,0,0,456,368V352A72.08124,72.08124,0,0,1,384,280Z"/><path d="M432,155.71582A60.28555,60.28555,0,0,1,371.71582,216H360v16h11.71582A76.283,76.283,0,0,0,448,155.71582V152H432Z"/><path d="M72.64648,404.84863l14.707,6.30274,6.91113-16.127a434.45212,434.45212,0,0,0,33.71191-203.63769l-15.95312,1.22656a418.37978,418.37978,0,0,1-32.46582,196.1084Z"/><path d="M308.52637,276.91113a72.99649,72.99649,0,0,1-62.75293,54.84278l-38.65723,4.29492,1.76758,15.90234,38.65723-4.29492A88.99349,88.99349,0,0,0,324.04785,280.792l3.71289-14.85156-15.52148-3.88086Z"/></g></svg>
