<svg id="Capa_1" enable-background="new 0 0 512 512" height="512" viewBox="0 0 512 512" width="512" xmlns="http://www.w3.org/2000/svg"><g><g><path d="m74.93 108.591c3.965 0 7.827.41 11.605 1.067 19.114-23.115 48.008-37.847 80.345-37.847 57.553 0 104.21 46.656 104.21 104.21h-254.988c-4.812 0-8.643-4.232-8.006-9.001 4.4-32.985 32.645-58.429 66.834-58.429z" fill="#edf4ff"/><path d="m416.323 119.908c-5.185 0-10.236.537-15.176 1.395-24.995-30.227-62.779-49.492-105.066-49.492-72.335 0-131.506 56.358-136 127.559-.296 4.692 3.303 8.715 8.004 8.715h327.954c4.747 0 8.494-4.116 8.024-8.84-4.435-44.548-42.025-79.337-87.74-79.337z" fill="#edf4ff"/><path d="m277.142 155.709c-8.025-3.742-17.564-.27-21.306 7.754l-118.572 254.279c-3.742 8.024-.27 17.564 7.754 21.306 8.024 3.742 17.563.27 21.306-7.755l118.572-254.278c3.742-8.025.27-17.564-7.754-21.306z" fill="#f6d190"/><path d="m249.585 439.047c-8.025-3.742-11.497-13.281-7.755-21.306l118.572-254.278c3.742-8.025 13.281-11.497 21.306-7.755 8.025 3.742 11.497 13.281 7.755 21.306l-118.573 254.279c-3.742 8.024-13.281 11.496-21.305 7.754z" fill="#f6d190"/><path d="m323.846 74.783c-8.978-1.862-18.234-2.971-27.765-2.971-55.24 0-102.713 32.916-124.109 80.161h-159.984c-1.831 4.787-3.193 9.807-3.893 15.047-.636 4.77 3.196 9.002 8.006 9.002h147.603c-1.827 7.568-3.119 15.347-3.624 23.349-.296 4.692 3.304 8.716 8.004 8.716h55.857c-4.702 0-8.301-4.024-8.004-8.716 3.895-61.714 48.892-112.209 107.909-124.588z" fill="#dbeaff"/></g><path d="m416.323 112.408c-3.94 0-7.957.278-12.182.845-27.348-31.159-66.487-48.942-108.06-48.942-65.56 0-121.009 44.11-138.236 104.209h-142.38c3.703-29.652 29.067-52.671 59.706-52.671 3.255 0 6.645.314 10.363.96 2.652.464 5.348-.535 7.063-2.61 18.53-22.409 45.813-35.262 74.853-35.262 7.896 0 15.748.949 23.337 2.822 4.019.994 8.086-1.463 9.078-5.485.992-4.021-1.463-8.086-5.485-9.078-8.763-2.162-17.824-3.258-26.93-3.258-32.098 0-62.335 13.598-83.624 37.457-2.984-.366-5.844-.545-8.655-.545-41.449 0-75.171 33.722-75.171 75.171 0 4.142 3.358 7.5 7.5 7.5h146.915c-1.38 7.985-2.108 16.191-2.108 24.565 0 4.142 3.358 7.5 7.5 7.5h63.449l-3.095 6.638c-1.75 3.754-.126 8.216 3.628 9.967 3.751 1.75 8.216.127 9.967-3.628l28.878-61.929c.963-2.065 2.673-3.632 4.814-4.412 2.141-.779 4.458-.679 6.524.285 4.264 1.988 6.115 7.075 4.127 11.339l-118.572 254.277c-.963 2.065-2.673 3.632-4.814 4.412-2.142.78-4.459.678-6.524-.285s-3.632-2.673-4.412-4.814-.678-4.458.285-6.524l75.021-160.882c1.75-3.754.126-8.216-3.628-9.967-3.754-1.75-8.216-.126-9.967 3.628l-75.021 160.882c-2.656 5.697-2.936 12.087-.786 17.994 2.149 5.907 6.471 10.623 12.167 13.279 3.165 1.476 6.542 2.217 9.932 2.217 2.714 0 5.437-.476 8.063-1.432 5.907-2.149 10.623-6.471 13.279-12.168l12.352-26.49h52.636l-3.077 6.599c-2.656 5.697-2.936 12.087-.786 17.994 2.149 5.907 6.471 10.623 12.168 13.279 3.165 1.476 6.542 2.217 9.932 2.217 2.714 0 5.436-.476 8.062-1.432 5.907-2.149 10.623-6.471 13.279-12.168l118.572-254.277c2.657-5.697 2.936-12.087.786-17.994-2.15-5.906-6.471-10.622-12.168-13.279-5.696-2.656-12.086-2.936-17.994-.786-5.907 2.15-10.623 6.471-13.279 12.168l-3.836 8.227h-55.942c-.616-8.219-5.528-15.885-13.514-19.609-5.697-2.656-12.086-2.936-17.994-.786-5.907 2.15-10.623 6.471-13.279 12.168l-18.788 40.292h-62.728c3.898-67.529 60.07-121.274 128.558-121.274 38.519 0 74.708 17.047 99.287 46.771 1.715 2.075 4.411 3.07 7.064 2.61 4.972-.864 9.515-1.285 13.891-1.285 41.958 0 76.537 32.194 80.332 73.178h-79.33c-4.142 0-7.5 3.358-7.5 7.5s3.358 7.5 7.5 7.5h87.174c4.142 0 7.5-3.358 7.5-7.5 0-52.757-42.92-95.678-95.677-95.678zm-156.267 248.5h-52.636l7.957-17.064h52.636zm14.952-32.064h-52.636l7.957-17.064h52.636zm14.952-32.065h-52.636l7.957-17.064h52.636zm14.952-32.064h-52.636l7.957-17.064h52.636zm14.952-32.065h-52.636l7.957-17.064h52.636zm-127.395 160.322 7.957-17.064h52.636l-7.957 17.064zm174.73-226.338c1.446-3.101 4.531-4.926 7.746-4.926 1.206 0 2.43.257 3.593.799 4.264 1.988 6.115 7.075 4.127 11.339l-118.572 254.277c-1.988 4.264-7.074 6.117-11.338 4.127-2.065-.963-3.632-2.673-4.412-4.814s-.678-4.458.285-6.524zm-32.383 33.952h-52.636l7.958-17.065h52.636z"/></g></svg>