<svg height="489pt" viewBox="-6 0 489 489.054" width="489pt" xmlns="http://www.w3.org/2000/svg"><path d="m291.964844 231.074219-19.683594-121.648438h-244.519531l-19.660157 121.519531-.035156.128907c-2.679687 10.101562-4.039062 20.488281-4.039062 30.921875v.003906c0 25.589844 21.410156 46.335938 47.820312 46.335938h196.332032c26.414062 0 47.824218-20.746094 47.824218-46.335938v-.003906c0-10.429688-1.355468-20.816406-4.039062-30.921875zm0 0" fill="#4671c6"/><path d="m248.179688 312.335938h-196.332032c-28.574218 0-51.8203122-22.582032-51.8203122-50.335938 0-10.753906 1.3984372-21.480469 4.1601562-31.890625l19.628906-121.324219c.3125-1.9375 1.984375-3.359375 3.945313-3.359375h244.519531c1.960938 0 3.632812 1.421875 3.949219 3.359375l19.652343 121.457032c2.734376 10.371093 4.121094 21.050781 4.121094 31.753906 0 27.757812-23.246094 50.339844-51.824218 50.339844zm-217.011719-198.910157-19.117188 118.160157c-.023437.132812-.050781.265624-.082031.394531-2.625 9.882812-3.941406 19.941406-3.941406 30.015625 0 23.347656 19.660156 42.339844 43.824218 42.339844h196.332032c24.164062 0 43.824218-18.992188 43.824218-42.335938 0-10.078125-1.316406-20.136719-3.90625-29.894531-.035156-.128907-.0625-.257813-.082031-.390625l-19.140625-118.289063zm0 0" fill="#3762cc"/><path d="m258.363281 159.140625c-.230469 0-.453125.03125-.679687.035156v-10.171875c0-59.460937-48.203125-107.664062-107.667969-107.664062-59.460937 0-107.664063 48.203125-107.664063 107.664062v10.171875c-.230468-.003906-.449218-.035156-.679687-.035156-18.144531 0-32.847656 14.707031-32.847656 32.847656 0 18.144531 14.703125 32.851563 32.847656 32.851563 1.191406 0 2.363281-.074219 3.523437-.195313 11.109376 47.632813 53.808594 83.125 104.824219 83.125s93.710938-35.496093 104.824219-83.125c1.15625.125 2.332031.195313 3.523438.195313 18.140624 0 32.847656-14.707032 32.847656-32.851563-.003906-18.140625-14.710938-32.847656-32.851563-32.847656zm0 0" fill="#f9cfcf"/><path d="m247.722656 245.277344-.207031-2.65625-.3125-18.46875c-.085937-5.054688-4.554687-9.003906-9.722656-8.289063-4.3125.597657-7.375 4.546875-7.300781 8.902344l.34375 20.332031c.023437 1.289063-.839844 2.433594-2.085938 2.769532-1.660156.441406-3.328125-.6875-3.527344-2.394532l-4.859375-41.277344c-.589843-5.019531-5.433593-8.5-10.503906-7.273437-4.230469 1.027344-6.882813 5.261719-6.375 9.585937l5.207031 44.207032c.164063 1.40625-.726562 2.71875-2.09375 3.085937-1.519531.40625-3.082031-.496093-3.488281-2.015625l-13.382813-49.945312c-1.308593-4.882813-6.601562-7.628906-11.445312-5.683594-4.039062 1.628906-6.050781 6.199219-4.921875 10.40625l13.3125 49.6875c.398437 1.488281-.484375 3.019531-1.972656 3.417969-1.339844.359375-2.738281-.320313-3.289063-1.59375l-16.304687-37.882813c-2.023438-4.703125-7.777344-6.648437-12.3125-3.875-3.640625 2.230469-4.914063 6.929688-3.226563 10.851563l16.292969 37.851562 3.738281 13.953125c.355469 1.332032-1.039062 2.453125-2.261718 1.8125l-13.207032-6.886718c-6.082031-4.535157-14.613281-3.203126-18.988281 2.984374-1.21875 1.726563-.757813 4.125.933594 5.386719l9.269531 6.910157 19.949219 17.539062c36.824219-5.125 67.667969-28.878906 82.742187-61.441406zm0 0" fill="#f9a7a7"/><path d="m272.191406 391.101562c-.015625-.40625-.050781-.804687-.078125-1.207031-.046875-.777343-.097656-1.550781-.171875-2.320312-.042968-.480469-.097656-.957031-.152344-1.433594-.074218-.679687-.15625-1.359375-.253906-2.035156-.070312-.515625-.148437-1.027344-.230468-1.539063-.101563-.625-.210938-1.246094-.324219-1.863281-.097657-.542969-.203125-1.078125-.3125-1.613281-.117188-.566406-.25-1.128906-.378907-1.691406-.132812-.574219-.261718-1.144532-.40625-1.710938-.121093-.460938-.253906-.914062-.378906-1.371094-.6875-2.476562-1.496094-4.910156-2.421875-7.277344-.078125-.199218-.152343-.402343-.230469-.601562-.316406-.785156-.648437-1.558594-.988281-2.328125-.09375-.21875-.1875-.433594-.285156-.652344-.351563-.78125-.722656-1.558593-1.101563-2.328125-.082031-.171875-.167968-.34375-.253906-.515625-.410156-.816406-.832031-1.625-1.269531-2.421875-.039063-.070312-.082031-.140625-.117187-.210937-12.476563-22.578125-36.082032-38.140625-63.429688-39.257813l-.1875.238282h.136719l-8.925781 23.523437c-2.152344 5.667969-7.585938 9.417969-13.648438 9.417969h-53.527344c-6.066406 0-11.496094-3.75-13.648437-9.417969l-7.753907-20.425781c-.539062-.96875-.941406-2.011719-1.175781-3.097656v-.003907c-21.542969 1.898438-40.5 12.789063-53.117187 28.886719h-.007813c-.050781.058594-.09375.121094-.140625.183594-.410156.527344-.808594 1.066406-1.207031 1.605468-.246094.335938-.492187.667969-.734375 1.007813-.378906.53125-.746094 1.066406-1.113281 1.605469-.242188.363281-.488281.726562-.722657 1.09375-.351562.535156-.691406 1.070312-1.023437 1.617187-.238281.386719-.472656.777344-.703125 1.171875-.320312.539063-.636719 1.078125-.9375 1.628906-.230469.410157-.453125.828126-.671875 1.246094-.292969.542969-.582031 1.085938-.859375 1.636719-.21875.441406-.429688.890625-.640625 1.335937-.261719.539063-.523437 1.074219-.769531 1.621094-.238282.53125-.457032 1.074219-.683594 1.613282-.363281.859374-.710938 1.730468-1.039062 2.601562-.226563.597656-.457032 1.195312-.667969 1.800781-.167969.476563-.316407.960938-.476563 1.445313-.191406.582031-.382812 1.164062-.558594 1.757812-.148437.488282-.28125.980469-.417968 1.472656-.164063.59375-.328125 1.1875-.480469 1.789063-.121094.496094-.238281.992187-.351563 1.488281-.140624.617188-.277343 1.230469-.402343 1.847656-.101563.492188-.195313.984376-.285157 1.480469-.117187.640625-.226562 1.285157-.328124 1.929688-.074219.480469-.148438.960937-.21875 1.449219-.09375.679687-.171876 1.367187-.246094 2.054687-.050782.457031-.105469.910156-.144532 1.367187-.070312.765626-.121093 1.539063-.167968 2.3125-.023438.386719-.054688.769532-.074219 1.160157-.050781 1.164062-.082031 2.332031-.082031 3.511719v15.210937h240.878906v-15.210937c0-1.207032-.03125-2.394532-.089844-3.578126zm0 0" fill="#6bdddd"/><path d="m113.179688 351.902344h73.671874l12.503907-32.9375h-.082031c.210937-.855469.359374-1.730469.359374-2.621094v-20.691406c-14.847656 7.730468-31.714843 12.113281-49.617187 12.113281s-34.769531-4.382813-49.617187-12.113281v20.75c0 .871094.140624 1.722656.339843 2.558594h-.066406zm0 0" fill="#f9cfcf"/><g fill="#3762cc"><path d="m150.015625 311.765625c-51.039063 0-94.933594-33.933594-107.902344-82.929687-.148437 0-.296875 0-.445312 0-20.320313 0-36.847657-16.53125-36.847657-36.847657 0-19.199219 14.757813-35.015625 33.527344-36.699219v-6.289062c0-61.570312 50.09375-111.664062 111.664063-111.664062 61.574219 0 111.667969 50.09375 111.667969 111.664062v6.289062c18.765624 1.683594 33.527343 17.5 33.527343 36.699219 0 20.316407-16.53125 36.847657-36.847656 36.847657-.148437 0-.296875 0-.445313 0-12.96875 48.996093-56.859374 82.929687-107.898437 82.929687zm-104.820313-91.125c1.835938 0 3.464844 1.265625 3.890626 3.09375 10.992187 47.125 52.496093 80.035156 100.929687 80.035156 48.429687 0 89.933594-32.910156 100.925781-80.035156.460938-1.964844 2.292969-3.265625 4.320313-3.070313 1.09375.117188 2.109375.175782 3.097656.175782 15.90625 0 28.851563-12.945313 28.851563-28.851563 0-15.894531-12.929688-28.832031-28.824219-28.847656-.28125.019531-.441407.03125-.601563.035156-1.050781.054688-2.121094-.378906-2.894531-1.132812-.773437-.753907-1.207031-1.785157-1.207031-2.863281v-10.175782c0-57.160156-46.503906-103.664062-103.667969-103.664062-57.160156 0-103.667969 46.5-103.667969 103.664062v10.171875c0 1.078125-.433594 2.113281-1.207031 2.867188-.773437.75-1.800781 1.183593-2.894531 1.132812-.164063-.003906-.324219-.015625-.488282-.027343-.003906 0-.007812 0-.011718 0-15.992188 0-28.925782 12.9375-28.925782 28.839843 0 15.90625 12.941407 28.847657 28.847657 28.847657.992187 0 2.007812-.054688 3.101562-.175782.144531-.011718.285157-.019531.425781-.019531zm0 0"/><path d="m272.28125 413.886719h-240.882812c-2.207032 0-4-1.789063-4-4v-15.210938c0-1.238281.03125-2.46875.089843-3.695312.011719-.269531.03125-.539063.046875-.808594l.03125-.410156c.046875-.8125.101563-1.628907.175782-2.4375.03125-.359375.074218-.714844.113281-1.070313l.039062-.367187c.082031-.722657.164063-1.445313.261719-2.164063.070312-.511718.148438-1.023437.230469-1.53125.101562-.667968.214843-1.347656.339843-2.027344.09375-.519531.195313-1.035156.296876-1.550781.136718-.65625.277343-1.300781.425781-1.949219.121093-.523437.242187-1.042968.371093-1.5625.160157-.636718.335938-1.261718.507813-1.886718l.082031-.304688c.117188-.417968.234375-.832031.355469-1.246094.171875-.574218.359375-1.140624.546875-1.710937l.171875-.542969c.121094-.375.242187-.75.371094-1.121094.1875-.535156.390625-1.066406.589843-1.601562l.113282-.292969c.347656-.921875.710937-1.832031 1.09375-2.738281l.164062-.386719c.183594-.441406.367188-.878906.558594-1.308593.203125-.453126.414062-.894532.628906-1.339844l.316406-.660156c.175782-.371094.355469-.746094.539063-1.113282.277344-.550781.566406-1.097656.859375-1.640625.308594-.578125.527344-.988281.75-1.394531.320312-.574219.652344-1.140625.984375-1.707031.246094-.417969.496094-.832031.746094-1.242188.347656-.566406.707031-1.128906 1.070312-1.691406l.769531-1.15625c.378907-.566406.769532-1.132813 1.164063-1.691406l.769531-1.050781c.425782-.578126.847656-1.140626 1.277344-1.699219.050781-.0625.105469-.128907.160156-.195313 12.8125-16.347656 31.589844-27.121094 51.992188-29.957031v-19.769531c0-1.398438.730468-2.695313 1.921875-3.421875 1.199219-.71875 2.683593-.769531 3.921875-.125 14.863281 7.738281 30.933594 11.664062 47.769531 11.664062 16.832031 0 32.902344-3.925781 47.765625-11.664062 1.238281-.644531 2.726562-.597657 3.921875.125 1.195313.726562 1.925781 2.023437 1.925781 3.421875v19.347656c26.140625 2.433594 49.90625 17.886719 62.703125 41.050781 0 .003907.121094.21875.125.222657.460938.839843.902344 1.6875 1.332031 2.542968l.269532.539063c.402344.816406.792968 1.632812 1.164062 2.460937l.296875.675782c.363281.820312.714844 1.636718 1.042969 2.464843l.242188.621094c.96875 2.488281 1.832031 5.066406 2.550781 7.667969l.113281.402344c.097656.34375.195312.691406.285156 1.039062.132813.511719.25 1.019531.367188 1.527344l.0625.28125c.140625.589844.277344 1.183594.402344 1.78125.117187.5625.222656 1.125.328124 1.691406.121094.65625.238282 1.308594.34375 1.964844.085938.542968.167969 1.082031.242188 1.625.097656.710937.1875 1.421875.265625 2.140625.074219.628906.121094 1.070312.164063 1.511719.074218.804687.128906 1.617187.179687 2.4375l.03125.4375c.019531.277343.039063.550781.050781.832031.058594 1.246093.09375 2.496093.09375 3.757812v15.210938c-.003906 2.210937-1.792968 4-4.003906 4zm-236.882812-8h232.882812v-11.210938c0-1.136719-.03125-2.265625-.085938-3.390625l-.074218-1.144531c-.042969-.726563-.09375-1.460937-.160156-2.195313-.039063-.390624-.082032-.773437-.125-1.152343 0-.003907-.019532-.199219-.019532-.203125-.074218-.648438-.152344-1.292969-.242187-1.933594-.066407-.488281-.140625-.96875-.21875-1.457031-.09375-.589844-.195313-1.179688-.304688-1.765625-.097656-.507813-.195312-1.023438-.296875-1.53125-.113281-.53125-.238281-1.0625-.359375-1.597656l-.070312-.289063c-.101563-.449219-.207031-.890625-.316407-1.332031-.074218-.289063-.15625-.574219-.238281-.863282l-.121093-.433593c-.652344-2.34375-1.421876-4.664063-2.296876-6.894531l-.207031-.550782c-.308593-.761718-.625-1.496094-.945312-2.222656l-.265625-.605469c-.339844-.753906-.6875-1.488281-1.046875-2.214843l-.246094-.496094c-.386719-.765625-.785156-1.53125-1.199219-2.289063l3.390625-2.132812-3.5 1.933593c-12.023437-21.761718-34.800781-35.964843-59.535156-37.171874-.734375.097656-1.5-.011719-2.195313-.351563-1.695312-.820313-2.640624-2.636719-2.199218-4.464844.15625-.640625.226562-1.140625.226562-1.582031v-14.316406c-14.273437 6.382812-29.910156 9.738281-45.613281 9.738281s-31.34375-3.355469-45.617187-9.738281v14.375c0 .457031.074218.972656.230468 1.621094.285156 1.191406.011719 2.449218-.75 3.410156-.730468.929687-1.828125 1.480468-3 1.523437-19.65625 1.769531-37.9375 11.734375-50.175781 27.351563-.039063.050781-.082031.101562-.121094.148437l-.035156.050781c-.375.472657-.75.988282-1.132813 1.503907l-.691406.945312c-.359375.503907-.707031 1.011719-1.050781 1.523438l-.699219 1.050781c-.316406.492188-.640625 1-.957031 1.515625-.230469.375-.449219.746094-.667969 1.113281-.300781.511719-.601562 1.027344-.890625 1.542969-.199219.355469-.390625.71875-.582031 1.082031-.003906.003906-.101562.1875-.101562.191406-.257813.484376-.519532.964844-.765626 1.457032-.15625.316406-.308593.632812-.457031.953125l-.335937.707031c-.183594.378906-.367188.761719-.542969 1.144531-.160156.367188-.316406.734375-.472656 1.109375l-.171875.417969c-.34375.8125-.671875 1.636719-.988282 2.464844l-.113281.304687c-.175781.460938-.351562.925782-.515625 1.394532-.109375.308593-.210937.621093-.308594.929687l-.140624.4375c-.214844.652344-.378907 1.15625-.535157 1.664063-.105469.359374-.207031.71875-.304687 1.082031l-.085938.3125c-.15625.5625-.3125 1.125-.457031 1.699219-.117187.464843-.226563.9375-.332031 1.40625-.136719.582031-.261719 1.167968-.382813 1.753906-.09375.460937-.183593.929687-.269531 1.398437-.109375.601563-.210938 1.210938-.308594 1.824219-.074218.460938-.144531.914062-.207031 1.371094-.089844.648437-.164063 1.300781-.234375 1.953125l-.140625 1.296875c-.066406.722656-.113281 1.457031-.15625 2.1875l-.070313 1.101562c-.050781 1.105469-.082031 2.210938-.082031 3.328125v11.210938zm0 0"/><path d="m216.171875 193.320312c-4.089844 0-8.386719-.773437-12.566406-2.292968-14.46875-5.265625-22.851563-17.496094-19.085938-27.84375.757813-2.078125 3.046875-3.148438 5.128907-2.394532 2.074218.757813 3.144531 3.054688 2.386718 5.125-2.15625 5.933594 4.394532 13.988282 14.308594 17.597657 5.078125 1.847656 10.484375 2.300781 14.839844 1.242187 2.21875-.542968 6.136718-1.976562 7.425781-5.527344.753906-2.074218 3.050781-3.144531 5.128906-2.390624 2.074219.757812 3.144531 3.050781 2.390625 5.125-1.902344 5.226562-6.539062 8.976562-13.054687 10.5625-2.1875.535156-4.507813.796874-6.902344.796874zm0 0"/><path d="m173.476562 256.085938c-2.210937 0-4-1.792969-4-4 0-6.3125-8.914062-11.640626-19.460937-11.640626s-19.460937 5.328126-19.460937 11.640626c0 2.207031-1.792969 4-4 4-2.207032 0-4-1.792969-4-4 0-11.015626 12.0625-19.640626 27.460937-19.640626s27.460937 8.625 27.460937 19.640626c0 2.207031-1.792968 4-4 4zm0 0"/></g><path d="m121.777344 176.933594c0 16.789062-13.609375 30.402344-30.398438 30.402344-16.789062 0-30.398437-13.613282-30.398437-30.402344 0-16.789063 13.609375-30.398438 30.398437-30.398438 16.789063 0 30.398438 13.609375 30.398438 30.398438zm0 0" fill="#a4c9ff"/><path d="m60.183594 205.429688c-1.117188 1.734374-1.78125 3.820312-1.8125 6.066406-.082032 5.921875 4.425781 10.984375 10.070312 11.292968 6.136719.335938 11.214844-4.777343 11.214844-11.132812 0-2.308594-.667969-4.449219-1.8125-6.226562l-.003906-.003907-7.9375-12.53125c-.421875-.664062-1.351563-.664062-1.773438 0l-7.9375 12.527344s0 .003906-.003906.003906zm0 0" fill="#e0ebfc"/><path d="m139.949219 144.40625h-121.808594c-1.628906 0-2.953125-1.320312-2.953125-2.949219v-33.84375c0-57.222656 46.390625-103.613281 103.617188-103.613281h21.144531c37.210937 0 67.378906 30.164062 67.378906 67.375v5.65625c0 37.210938-30.167969 67.375-67.378906 67.375zm0 0" fill="#4671c6"/><path d="m279.945312 158.339844h-22.835937c-37.792969 0-68.429687-30.636719-68.429687-68.433594v-66.34375h11.671874c47.097657 0 85.28125 38.179688 85.28125 85.28125v43.8125c0 3.140625-2.546874 5.683594-5.6875 5.683594zm0 0" fill="#4671c6"/><path d="m279.945312 162.339844h-22.832031c-26.800781 0-51.164062-14.71875-63.734375-38-13.472656 15.175781-33.003906 24.066406-53.429687 24.066406h-121.808594c-3.832031 0-6.953125-3.121094-6.953125-6.953125v-33.839844c0-59.335937 48.277344-107.613281 107.617188-107.613281h21.144531c18.472656 0 35.761719 6.921875 49.070312 19.5625h11.332031c49.230469 0 89.28125 40.050781 89.28125 89.28125v43.808594c0 5.339844-4.34375 9.6875-9.6875 9.6875zm-85.710937-49.40625c.152344 0 .300781.007812.457031.027344 1.421875.164062 2.652344 1.074218 3.21875 2.390624 10.191406 23.6875 33.429688 38.988282 59.203125 38.988282h22.835938c.929687 0 1.6875-.753906 1.6875-1.6875v-43.808594c0-44.820312-36.460938-81.28125-81.28125-81.28125h-8.710938c-.398437.441406-.898437.792969-1.472656 1.023438-1.515625.609374-3.25.230468-4.382813-.953126-12.085937-12.660156-28.363281-19.632812-45.835937-19.632812h-21.148437c-54.929688 0-99.617188 44.6875-99.617188 99.613281v32.792969h120.761719c20.058593 0 39.144531-9.664062 51.0625-25.84375.757812-1.03125 1.960937-1.628906 3.222656-1.628906zm0 0" fill="#3762cc"/><path d="m473.039062 269.128906c-4.441406-1.480468-8.832031-3.050781-9.347656-3.238281 0 0 0 0-.003906 0-12.925781-6.066406-21.976562-14.132813-21.976562-14.132813h.007812c-13.464844-11.148437-23.269531-26.535156-27.40625-44.109374h-.023438c-1.460937-3.78125-5.046874-1.46875-5.046874-1.46875-4.863282 4.421874-7.8125 6.242187-7.8125 6.242187-13.335938 9.34375-29.582032 14.804687-47.105469 14.714844-21.308594-.113281-40.640625-8.414063-55.097657-21.875l-.003906.027343c-5.191406-2.226562-6.136718 2.679688-6.136718 2.679688l-.015626-.003906c-7.003906 30.746094-31.34375 54.820312-62.167968 61.46875l.015625.011718c-3.960938 3.167969-.574219 6.679688-.574219 6.679688l-.015625.011719c13.203125 14.574219 21.234375 33.90625 21.128906 55.121093-.089843 17.558594-5.742187 33.769532-15.253906 47.023438l.011719.007812s-1.777344 2.882813-6.375 7.792969l.003906.007813s-2.097656 4.164062 2.085938 6.304687l-.023438.035157c26.109375 5.820312 47.472656 24.117187 57.515625 48.3125 1.058594 2.761718 1.957031 5.601562 2.714844 8.492187l.011719-.003906s1.648437 4.484375 6.460937 2.636719c.308594-.273438.617187-.550782.9375-.824219.007813-.019531.011719-.035157.019531-.054688.171875-.140625.351563-.273437.523438-.414062 1.246094-1.0625 2.515625-2.085938 3.652344-2.878907v.003907c2.703124-2.042969 4.542968-3.152344 4.542968-3.152344l.003906.003906c2.25-1.441406 5.25-.609375 6.4375 1.789063l17.203126 34.71875h39.226562l17.792969-35.023438c1.226562-2.417968 4.277343-3.269531 6.570312-1.828125 2.824219 1.773438 5.515625 3.738281 8.09375 5.835938.003907 0 .019531-.019531.019531-.019531s8.820313 5.636718 12.265626-3.417969c7.789062-24.878907 27.183593-44.558594 51.804687-52.835938l-.003906-.027343c9.539062-3.886719 3.160156-14 3.160156-14-9.757813-13.515626-15.492187-30.117188-15.402344-48.058594.101563-20.359375 7.660157-38.929688 20.066407-53.152344 2.75-3.160156 1.488281-8.078125-2.484376-9.402344zm0 0" fill="#ffea92"/><path d="m85.210938 193.320312c-2.394532 0-4.714844-.261718-6.90625-.792968-6.515626-1.589844-11.152344-5.339844-13.050782-10.5625-.757812-2.074219.3125-4.371094 2.390625-5.125 2.074219-.753906 4.371094.3125 5.125 2.390625 1.292969 3.546875 5.207031 4.980469 7.425781 5.523437 4.355469 1.0625 9.761719.609375 14.839844-1.238281 9.914063-3.613281 16.464844-11.667969 14.308594-17.597656-.757812-2.074219.3125-4.371094 2.390625-5.125 2.074219-.753907 4.371094.316406 5.125 2.390625 3.765625 10.347656-4.617187 22.582031-19.085937 27.847656-4.179688 1.519531-8.472657 2.289062-12.5625 2.289062zm0 0" fill="#3762cc"/><path d="m435.96875 295.75c-7.386719-.921875-14.1875 4.242188-15.992188 11.464844l-8.425781 33.722656c-.535156 2.144531-2.464843 3.652344-4.671875 3.652344-2.9375 0-5.191406-2.609375-4.769531-5.515625l10.242187-70.300781c1.246094-8.550782-5.210937-16.445313-14.125-16.65625-7.441406-.179688-13.691406 5.640624-14.765624 13.003906l-10.96875 75.300781c-.347657 2.390625-2.398438 4.167969-4.816407 4.167969-2.6875 0-4.867187-2.183594-4.867187-4.871094v-88.390625c0-8.636719-7.527344-15.519531-16.382813-14.445313-7.386719.898438-12.734375 7.558594-12.734375 15v87.933594c0 2.636719-2.132812 4.773438-4.769531 4.773438-2.367187 0-4.378906-1.738282-4.71875-4.085938l-10.164063-69.773437c-1.257812-8.65625-9.898437-14.417969-18.617187-11.839844-6.996094 2.070313-11.175781 9.265625-10.125 16.488281l10.152344 69.710938v24.6875c0 2.355468-2.800781 3.585937-4.535157 1.992187l-18.757812-17.21875c-8.042969-10.179687-22.714844-11.753906-32.671875-3.464843-2.773437 2.304687-3.082031 6.46875-.84375 9.296874l12.25 15.511719 51.773437 77.726563c.226563.339844.445313.683594.679688 1.019531l.070312.109375.007813-.003906c3.355469 4.78125 7.628906 8.867187 12.570313 11.996094l-.898438 18.308593h87.371094l-.839844-17.039062c12.273438-6.847657 20.914062-19.386719 22.382812-34.050781h.007813l16.6875-89.59375 7.65625-30.632813c2.089844-8.378906-3.542969-16.882813-12.390625-17.984375zm0 0" fill="#f9cfcf"/><path d="m402.460938 489.054688h-87.371094c-1.09375 0-2.140625-.449219-2.898438-1.242188-.753906-.792969-1.152344-1.863281-1.097656-2.957031l.792969-16.042969c-4.5-3.167969-8.398438-7.046875-11.609375-11.574219-.0625-.085937-.125-.171875-.1875-.257812-.234375-.34375-.433594-.644531-.628906-.949219l-.140626-.210938-51.667968-77.570312-12.152344-15.382812c-3.589844-4.546876-2.953125-11.210938 1.421875-14.855469 5.640625-4.695313 12.746094-6.84375 19.988281-6.101563 7.171875.75 13.613282 4.265625 18.175782 9.90625l16.363281 15.023438v-21.460938l-10.109375-69.417968c-1.359375-9.332032 4.210937-18.316407 12.949218-20.902344 5.21875-1.539063 10.8125-.761719 15.351563 2.144531 4.535156 2.90625 7.585937 7.625 8.359375 12.957031l10.164062 69.773438c.054688.375.382813.660156.761719.660156.425781 0 .769531-.347656.769531-.773438v-87.933593c0-9.6875 6.988282-17.84375 16.25-18.972657 5.320313-.636718 10.636719 1.007813 14.609376 4.527344 3.972656 3.519532 6.253906 8.585938 6.253906 13.894532v88.386718c0 .476563.390625.871094.867187.871094.429688 0 .796875-.320312.859375-.746094l10.96875-75.296875c1.398438-9.589843 9.464844-16.683593 18.820313-16.429687 5.347656.125 10.375 2.527344 13.800781 6.582031 3.425781 4.058594 4.953125 9.398437 4.1875 14.648437l-10.242188 70.300782c-.042968.308594.082032.527344.191407.652344.113281.128906.308593.285156.621093.285156.375 0 .699219-.253906.789063-.617188l8.425781-33.726562c2.347656-9.398438 11.113282-15.632813 20.367188-14.460938 5.308594.660156 10.070312 3.546875 13.074218 7.925782 3.003907 4.378906 3.988282 9.847656 2.703126 14.996093l-7.628907 30.515625-16.648437 89.382813c-1.542969 14.667969-9.777344 27.792969-22.226563 35.621093l.722657 14.632813c.050781 1.09375-.34375 2.160156-1.101563 2.953125s-1.804687 1.242188-2.898437 1.242188zm-83.167969-8h78.964843l-.628906-12.84375c-.078125-1.519532.714844-2.949219 2.042969-3.6875 11.445313-6.386719 19.054687-17.960938 20.355469-30.960938.019531-.1875.050781-.371094.09375-.546875l16.648437-89.378906c.011719-.078125.03125-.15625.050781-.234375l7.65625-30.632813c.730469-2.929687.167969-6.042969-1.539062-8.539062-1.734375-2.523438-4.382812-4.125-7.464844-4.511719-5.167968-.65625-10.269531 3.074219-11.617187 8.464844l-8.425781 33.722656c-.980469 3.9375-4.5 6.683594-8.550782 6.683594-2.5625 0-4.992187-1.113282-6.667968-3.050782-1.679688-1.933593-2.429688-4.503906-2.058594-7.039062l10.242187-70.300781c.433594-2.988281-.433593-6.027344-2.386719-8.339844-1.976562-2.339844-4.773437-3.667969-7.878906-3.742187-5.210937-.210938-9.90625 4.085937-10.710937 9.582031l-10.96875 75.296875c-.628907 4.328125-4.402344 7.59375-8.773438 7.59375-4.890625 0-8.867187-3.976563-8.867187-8.871094v-88.386719c0-3.019531-1.300782-5.902343-3.5625-7.90625-2.292969-2.03125-5.25-2.945312-8.335938-2.570312-5.167968.628906-9.214844 5.472656-9.214844 11.03125v87.933593c0 4.835938-3.933593 8.769532-8.773437 8.769532-4.324219 0-8.054687-3.226563-8.675781-7.503906l-10.164063-69.773438c-.441406-3.03125-2.175781-5.71875-4.757812-7.375-2.621094-1.671875-5.730469-2.109375-8.765625-1.207031-4.953125 1.460937-8.089844 6.65625-7.304688 12.074219l10.152344 69.710937c.027344.191406.042969.378906.042969.574219v24.691406c0 2.660156-1.574219 5.070312-4.007813 6.140625s-5.273437.597656-7.234375-1.203125l-18.757812-17.214844c-.15625-.144531-.300781-.300781-.433594-.46875-3.226563-4.085937-7.820313-6.628906-12.9375-7.164062-5.09375-.527344-10.070313.992187-14.039063 4.289062-1.070312.894532-1.1875 2.574219-.261718 3.746094l12.25 15.515625c.066406.085937.128906.171875.191406.261719l51.933594 77.972656c.148437.222656.292968.449219.445312.667969.03125.042969.0625.085937.09375.128906 3.082032 4.386719 6.929688 8.058594 11.441406 10.914063 1.214844.773437 1.925782 2.136718 1.851563 3.578124zm104.71875-47.09375h.019531zm0 0" fill="#3762cc"/></svg>