<svg id="Capa_1" enable-background="new 0 0 512 512" height="512" viewBox="0 0 512 512" width="512" xmlns="http://www.w3.org/2000/svg"><g><path d="m288.872 271.875h-78v198.25h148c16.569 0 30-13.431 30-30v-68.25c0-55.228-44.771-100-100-100z" fill="#ff8f71"/><g><path d="m364.5 351.875h24.372c6.213 0 11.25 5.037 11.25 11.25s-5.037 11.25-11.25 11.25h32.5c6.213 0 11.25 5.037 11.25 11.25 0 6.213-5.037 11.25-11.25 11.25 6.213 0 11.25 5.037 11.25 11.25s-5.037 11.25-11.25 11.25h-10c6.213 0 11.25 5.037 11.25 11.25 0 6.213-5.037 11.25-11.25 11.25h-46.872l-42.014-42.75z" fill="#ffcbbe"/><path d="m220.344 271.875h-72.844c-8.873 0-17.473 1.161-25.664 3.33-42.792 11.332-74.336 50.315-74.336 96.67v68.25c0 16.569 13.431 30 30 30h148v-68.62c40.23 25.551 87.915 40.37 139 40.37v-90c-60.709 0-114.077-31.994-144.156-80z" fill="#55dafe"/></g><g><circle cx="147.5" cy="181.875" fill="#ffddcf" r="140"/><path d="m78.088 181.875c0-65.128 44.473-119.866 104.706-135.51-11.276-2.929-23.102-4.49-35.294-4.49-77.32 0-140 62.68-140 140s62.68 140 140 140c12.192 0 24.018-1.562 35.294-4.49-60.233-15.644-104.706-70.382-104.706-135.51z" fill="#ffcbbe"/></g><g><path d="m147.5 351.875c-12.57 0-11.782 0-24.372 0-6.213 0-11.25 5.037-11.25 11.25s5.037 11.25 11.25 11.25h-32.5c-6.213 0-11.25 5.037-11.25 11.25 0 6.213 5.037 11.25 11.25 11.25-6.213 0-11.25 5.037-11.25 11.25s5.037 11.25 11.25 11.25h10c-6.213 0-11.25 5.037-11.25 11.25 0 6.213 5.037 11.25 11.25 11.25h46.872l42.014-42.75z" fill="#c8866a"/><path d="m291.632 271.915c-30.547 48.722-84.305 79.96-144.132 79.96v90c93.699 0 177.419-50.085 223.422-127.168-17.582-25.187-46.459-41.903-79.29-42.792z" fill="#ff8f71"/></g><g><circle cx="364.5" cy="181.875" fill="#db9e82" r="140"/><path d="m295.088 181.875c0-28.583 8.566-55.164 23.27-77.318 18.801-28.325 47.637-49.413 81.435-58.191-11.276-2.929-23.102-4.49-35.294-4.49-1.534 0-3.063.025-4.586.074-75.196 2.419-135.413 64.139-135.413 139.925 0 77.32 62.68 140 140 140 12.192 0 24.018-1.562 35.294-4.49-60.233-15.644-104.706-70.382-104.706-135.51z" fill="#c8866a"/></g><g fill="#ff8e9e"><path d="m235.733 158.902c-8.994 8.994-7.129 25.44 4.165 36.734 11.293 11.294 27.74 13.158 36.734 4.164s7.129-25.44-4.164-36.734c-11.295-11.293-27.741-13.158-36.735-4.164z"/><path d="m383.309 273.908c-11.294-11.294-27.74-13.158-36.734-4.164s-7.129 25.44 4.165 36.734 27.74 13.158 36.734 4.164 7.128-25.44-4.165-36.734z"/></g><g><path d="m290.252 188.585c1.465 1.464 3.384 2.196 5.303 2.196s3.84-.732 5.304-2.197c8.29-8.292 8.29-21.782-.001-30.073-8.311-8.31-21.761-8.311-30.073 0-2.929 2.929-2.929 7.678.001 10.607 2.928 2.929 7.677 2.928 10.606 0 2.448-2.449 6.412-2.448 8.859 0 2.442 2.442 2.442 6.417 0 8.861-2.929 2.929-2.929 7.678.001 10.606z"/><path d="m377.258 275.591c2.932 2.931 7.682 2.926 10.606-.001 8.29-8.292 8.29-21.782-.001-30.073-8.311-8.31-21.761-8.311-30.073 0-2.929 2.929-2.929 7.678.001 10.607 2.928 2.929 7.677 2.928 10.606 0 2.448-2.449 6.412-2.448 8.859 0 2.442 2.442 2.442 6.417 0 8.861-2.928 2.929-2.928 7.678.002 10.606z"/><path d="m328.786 246.234c4.133-.284 7.252-3.864 6.969-7.996s-3.875-7.261-7.996-6.969c-7.195.497-13.147-5.462-12.653-12.653.283-4.132-2.836-7.712-6.969-7.996-4.116-.29-7.713 2.836-7.996 6.969-1.119 16.304 12.42 29.762 28.645 28.645z"/><path d="m364.5 34.375c-42.848 0-81.481 18.371-108.454 47.643-27.926-30.382-67.006-47.643-108.546-47.643-81.332 0-147.5 66.168-147.5 147.5 0 50.542 25.557 95.222 64.421 121.812-15.786 19.201-24.421 43.189-24.421 68.188v68.25c0 20.678 16.822 37.5 37.5 37.5h30.521c4.143 0 7.5-3.358 7.5-7.5s-3.357-7.5-7.5-7.5h-30.521c-12.406 0-22.5-10.093-22.5-22.5v-68.25c0-22.21 7.936-43.484 22.375-60.263 20.869 11.325 44.759 17.763 70.125 17.763 31.286 0 61.29-9.858 86.134-27.755 3.396 3.709 6.953 7.275 10.643 10.682-27.757 20.656-61.551 32.072-96.777 32.072h-24.372c-10.339 0-18.75 8.411-18.75 18.75v3.75h-13.75c-15.452 0-24.225 17.723-14.991 30-7.095 9.434-3.81 23.15 7.066 28.242-3.707 12.047 5.356 24.258 17.925 24.258h46.872c24.138 0 47.804-3.241 70.5-9.429v22.679h-79.902c-4.143 0-7.5 3.358-7.5 7.5s3.357 7.5 7.5 7.5h87.402 133.372c17.416 0 32.206-11.944 36.342-28.25h16.158c12.555 0 21.637-12.196 17.925-24.258 10.869-5.088 14.167-18.801 7.066-28.242 9.254-12.304.434-30-14.991-30h-13.75v-3.75c0-8.949-6.306-16.442-14.705-18.298-1.527-5.89-3.554-11.625-6.06-17.166 34.354-5.265 66.002-22.54 89.115-49.19 2.714-3.129 2.377-7.866-.752-10.58-3.128-2.713-7.864-2.377-10.58.752-25.206 29.063-61.706 45.732-100.141 45.732-73.061 0-132.5-59.439-132.5-132.5s59.439-132.5 132.5-132.5 132.501 59.44 132.501 132.501c0 22.2-5.595 44.159-16.179 63.502-1.988 3.634-.654 8.191 2.979 10.18 3.636 1.987 8.192.654 10.18-2.979 11.789-21.545 18.02-45.994 18.02-70.703 0-81.332-66.168-147.5-147.5-147.5zm-119.139 257.842c3.715-3.299 7.279-6.8 10.677-10.494 3.37 3.657 6.922 7.142 10.641 10.445-3.412 3.688-6.967 7.21-10.667 10.539-3.699-3.328-7.26-6.831-10.651-10.49zm-148.483 138.408c0-2.068 1.683-3.75 3.75-3.75 4.143 0 7.5-3.358 7.5-7.5s-3.357-7.5-7.5-7.5h-10c-2.067 0-3.75-1.682-3.75-3.75s1.683-3.75 3.75-3.75c4.143 0 7.5-3.358 7.5-7.5s-3.357-7.5-7.5-7.5c-2.067 0-3.75-1.682-3.75-3.75s1.683-3.75 3.75-3.75h32.5c4.143 0 7.5-3.358 7.5-7.5s-3.357-7.5-7.5-7.5h-3.75v-3.75c0-2.068 1.683-3.75 3.75-3.75h16.872v75h-39.372c-2.067 0-3.75-1.682-3.75-3.75zm261.994 32h-125.872v-27.246c7.847-2.646 15.565-5.634 23.118-8.996 34.226 15.243 70.666 22.992 108.382 22.992h14.87c-3.541 7.834-11.418 13.25-20.498 13.25zm-10.759-104.026c2.973.276 5.941.484 8.887.612v75.056c-28.655-.829-56.476-6.439-82.998-16.685 27.668-14.897 52.779-34.756 74.111-58.983zm40.759 8.276c-4.143 0-7.5 3.358-7.5 7.5s3.357 7.5 7.5 7.5h32.5c2.067 0 3.75 1.682 3.75 3.75s-1.683 3.75-3.75 3.75c-4.143 0-7.5 3.358-7.5 7.5s3.357 7.5 7.5 7.5c2.067 0 3.75 1.682 3.75 3.75s-1.683 3.75-3.75 3.75h-10c-4.143 0-7.5 3.358-7.5 7.5s3.357 7.5 7.5 7.5c2.067 0 3.75 1.682 3.75 3.75s-1.683 3.75-3.75 3.75h-39.372v-75h16.872c2.067 0 3.75 1.682 3.75 3.75v3.75zm-17.918-37.654c2.537 4.868 4.618 9.934 6.241 15.154-13.938 0-14.927.049-20.034-.188-.23-1.862-1.149-3.641-2.724-4.914-3.222-2.605-7.945-2.104-10.547 1.117-45.302 56.036-113.131 91.655-188.89 93.875v-75.048c47.161-1.987 91.441-22.678 123.409-57.647 26.094 18.821 58.273 29.149 92.545 27.651zm-124.601-59.135c-25.168 28.196-60.965 44.289-98.853 44.289-73.061 0-132.5-59.439-132.5-132.5s59.439-132.5 132.5-132.5c37.986 0 73.679 16.076 98.85 44.292-18.426 24.619-29.35 55.162-29.35 88.208 0 33.048 10.925 63.592 29.353 88.211z"/></g></g></svg>