<?xml version="1.0" encoding="iso-8859-1"?>
<!-- Generator: Adobe Illustrator 19.0.0, SVG Export Plug-In . SVG Version: 6.00 Build 0)  -->
<svg version="1.1" id="Capa_1" xmlns="http://www.w3.org/2000/svg" xmlns:xlink="http://www.w3.org/1999/xlink" x="0px" y="0px"
	 viewBox="0 0 512.001 512.001" style="enable-background:new 0 0 512.001 512.001;" xml:space="preserve">
<path style="fill:#32C8AF;" d="M130.79,130.822c-36.617,36.617-62.603,74.194-80.839,110.621
	C-16.552,374.293,20.04,491.857,20.04,491.857s73.784,22.966,170.5-0.557c58.841-14.311,126.17-45.829,190.535-110.193
	C551.236,210.946,491.943,21.938,491.834,20.063c0,0-97.062-30.204-214.458,14.162C230.14,52.076,179.613,82,130.79,130.822z"/>
<path style="fill:#FF5A5A;" d="M181.071,99.253L99.25,181.074c-33.143,71.702-15.692,164.878,49.547,230.117
	c81.262,81.262,205.876,88.401,278.333,15.944s65.319-197.071-15.944-278.333C345.949,83.561,252.773,66.111,181.071,99.253z"/>
<g>
	<path style="fill:#6E6E6E;" d="M186.235,94.089L186.235,94.089c-25.446-25.446-66.702-25.446-92.147,0l0,0
		c-25.446,25.446-25.446,66.702,0,92.147l0,0L186.235,94.089z"/>
	<circle style="fill:#6E6E6E;" cx="305.584" cy="420.915" r="27.996"/>
	<circle style="fill:#6E6E6E;" cx="287.386" cy="166.314" r="27.996"/>
	<circle style="fill:#6E6E6E;" cx="393.59" cy="272.518" r="42.681"/>
	<circle style="fill:#6E6E6E;" cx="190.541" cy="305.873" r="42.681"/>
</g>
<path d="M476.115,325.181c-5.433-0.966-10.627,2.656-11.595,8.093l-0.042,0.239c-0.968,5.437,2.656,10.627,8.093,11.595
	c0.592,0.105,1.182,0.156,1.763,0.156c4.754,0,8.971-3.404,9.832-8.249l0.042-0.239
	C485.174,331.339,481.551,326.149,476.115,325.181z"/>
<path d="M264.829,274.651c2.559,0,5.118-0.977,7.07-2.929c3.904-3.904,3.904-10.235,0-14.14l-83.691-83.692
	c-3.904-3.903-10.234-3.903-14.141,0c-3.904,3.904-3.904,10.235,0,14.141l83.691,83.691
	C259.712,273.675,262.27,274.651,264.829,274.651z"/>
<path d="M299.773,299.594c1.87-1.86,2.93-4.429,2.93-7.069c0-2.63-1.06-5.209-2.93-7.069c-1.86-1.86-4.439-2.93-7.069-2.93
	s-5.209,1.07-7.069,2.93c-1.86,1.86-2.93,4.439-2.93,7.069c0,2.64,1.07,5.209,2.93,7.069c1.86,1.86,4.439,2.93,7.069,2.93
	C295.333,302.525,297.913,301.455,299.773,299.594z"/>
<path d="M305.587,458.912c10.148,0,19.69-3.952,26.866-11.127c7.176-7.176,11.128-16.717,11.128-26.867
	c0-10.148-3.952-19.69-11.128-26.866s-16.717-11.128-26.866-11.128c-10.148,0-19.69,3.952-26.867,11.128
	c-7.176,7.176-11.127,16.717-11.127,26.866s3.952,19.69,11.127,26.867C285.896,454.96,295.437,458.912,305.587,458.912z
	 M292.86,408.192c3.508-3.508,8.117-5.263,12.726-5.263s9.218,1.754,12.726,5.263c7.018,7.017,7.018,18.435,0,25.452
	c-7.016,7.018-18.434,7.019-25.452,0C285.843,426.627,285.843,415.209,292.86,408.192z"/>
<path d="M325.378,166.31c0-10.148-3.952-19.69-11.128-26.866c-7.176-7.177-16.717-11.128-26.866-11.128
	c-10.148,0-19.69,3.952-26.866,11.128c-7.177,7.176-11.128,16.717-11.128,26.866c0,10.148,3.952,19.69,11.128,26.866
	c7.176,7.176,16.717,11.128,26.866,11.128c10.148,0,19.69-3.952,26.866-11.128C321.426,186,325.378,176.459,325.378,166.31z
	 M300.109,179.035c-7.017,7.018-18.434,7.018-25.452,0c-3.399-3.398-5.271-7.919-5.271-12.726s1.872-9.327,5.271-12.726
	c3.398-3.399,7.919-5.271,12.726-5.271s9.327,1.872,12.726,5.271l0,0c3.399,3.398,5.271,7.919,5.271,12.726
	S303.509,175.637,300.109,179.035z"/>
<path d="M430.841,235.269c-9.949-9.95-23.178-15.43-37.249-15.43s-27.3,5.479-37.248,15.43c-9.95,9.949-15.43,23.178-15.43,37.249
	s5.479,27.3,15.43,37.249c9.949,9.949,23.178,15.429,37.249,15.429s27.3-5.479,37.249-15.429c9.95-9.949,15.43-23.178,15.43-37.249
	C446.27,258.446,440.79,245.217,430.841,235.269z M416.7,295.627c-6.172,6.173-14.38,9.573-23.109,9.573
	c-8.729,0-16.936-3.399-23.109-9.573c-6.172-6.172-9.573-14.38-9.573-23.108c0-8.73,3.399-16.936,9.573-23.109
	c6.172-6.172,14.38-9.573,23.108-9.573c8.73,0,16.936,3.399,23.109,9.573l0,0c6.172,6.172,9.573,14.38,9.573,23.109
	C426.273,281.247,422.873,289.453,416.7,295.627z"/>
<path d="M227.788,343.12c9.95-9.949,15.43-23.178,15.43-37.249c0-14.071-5.479-27.3-15.43-37.249
	c-9.949-9.95-23.178-15.43-37.249-15.43s-27.3,5.479-37.249,15.43c-9.949,9.949-15.429,23.178-15.429,37.249
	c0,14.071,5.479,27.3,15.429,37.248c9.949,9.951,23.178,15.43,37.249,15.43C204.61,358.55,217.839,353.07,227.788,343.12z
	 M157.858,305.871c0-8.73,3.399-16.936,9.573-23.109c6.172-6.172,14.38-9.573,23.108-9.573c8.73,0,16.936,3.399,23.109,9.573l0,0
	c6.172,6.172,9.573,14.38,9.573,23.109c0,8.729-3.399,16.936-9.573,23.109c-6.172,6.172-14.38,9.573-23.109,9.573
	c-8.729,0-16.936-3.399-23.108-9.573C161.257,322.807,157.858,314.601,157.858,305.871z"/>
<path d="M378.86,184.972c1.86-1.87,2.93-4.439,2.93-7.079c0-2.63-1.07-5.209-2.93-7.069c-1.86-1.86-4.439-2.93-7.069-2.93
	s-5.209,1.07-7.069,2.93c-1.86,1.86-2.93,4.439-2.93,7.069c0,2.64,1.07,5.209,2.93,7.079c1.86,1.86,4.439,2.92,7.069,2.92
	S377.001,186.832,378.86,184.972z"/>
<path d="M421.153,360.436c-1.87,1.86-2.93,4.439-2.93,7.069s1.06,5.209,2.93,7.069c1.86,1.86,4.439,2.93,7.069,2.93
	s5.209-1.07,7.069-2.93c1.86-1.86,2.93-4.439,2.93-7.069s-1.07-5.209-2.93-7.069c-1.86-1.86-4.439-2.93-7.069-2.93
	C425.583,357.506,423.013,358.576,421.153,360.436z"/>
<path d="M207.166,146.448c1.86-1.86,2.93-4.439,2.93-7.069c0-2.63-1.07-5.209-2.93-7.069c-1.86-1.86-4.439-2.93-7.069-2.93
	s-5.209,1.07-7.069,2.93c-1.87,1.86-2.93,4.439-2.93,7.069c0,2.63,1.06,5.209,2.93,7.069c1.86,1.86,4.439,2.93,7.069,2.93
	S205.307,148.308,207.166,146.448z"/>
<path d="M170.821,364.725c-1.86,1.86-2.93,4.439-2.93,7.069s1.07,5.209,2.93,7.069c1.87,1.86,4.439,2.93,7.069,2.93
	s5.209-1.07,7.079-2.93c1.86-1.86,2.92-4.439,2.92-7.069s-1.06-5.209-2.92-7.069c-1.87-1.86-4.439-2.93-7.079-2.93
	C175.262,361.794,172.682,362.865,170.821,364.725z"/>
<path d="M374.571,435.294c1.86-1.86,2.93-4.439,2.93-7.069c0-2.63-1.07-5.209-2.93-7.069c-1.86-1.87-4.439-2.93-7.069-2.93
	s-5.209,1.06-7.069,2.93c-1.86,1.86-2.93,4.429-2.93,7.069c0,2.63,1.07,5.209,2.93,7.069c1.86,1.86,4.439,2.93,7.069,2.93
	S372.711,437.154,374.571,435.294z"/>
<path d="M149.375,200.1c0-2.63-1.07-5.209-2.93-7.069c-1.86-1.87-4.439-2.93-7.069-2.93c-2.63,0-5.209,1.06-7.069,2.93
	c-1.86,1.86-2.93,4.429-2.93,7.069c0,2.63,1.07,5.209,2.93,7.069c1.86,1.86,4.439,2.93,7.069,2.93c2.63,0,5.209-1.07,7.069-2.93
	C148.306,205.309,149.375,202.73,149.375,200.1z"/>
<path d="M500.185,196.767c21.567-84.921,8.305-152.854,1.603-178.12c-0.067-0.254-0.122-0.458-0.161-0.609
	c-0.728-3.523-3.314-6.431-6.821-7.522c-1.04-0.324-25.923-7.949-65.662-9.995c-36.482-1.879-93.04,0.821-155.301,24.35
	c-5.165,1.953-7.77,7.723-5.818,12.888c1.953,5.166,7.723,7.77,12.888,5.818C339.64,21.381,392.989,18.752,427.4,20.455
	c18.714,0.926,34.023,3.197,44.681,5.245l-41.648,41.648V52.993c0-5.522-4.476-9.998-9.998-9.998c-5.522,0-9.998,4.476-9.998,9.998
	v34.352l-26.084,26.084c-25.484-17.603-53.866-29.888-83.769-36.084c-38.13-7.902-75.828-5.41-109.945,7.14
	c-18.47-16.761-43.326-22.666-66.313-17.745V34.791c0-5.522-4.476-9.998-9.998-9.998s-9.998,4.476-9.998,9.998v39.32
	c-6.216,3.368-12.061,7.66-17.31,12.908c-5.248,5.248-9.54,11.093-12.908,17.31H34.789c-5.522,0-9.998,4.476-9.998,9.998
	c0,5.522,4.476,9.998,9.998,9.998h31.946c-4.919,22.986,0.984,47.844,17.746,66.313c-12.55,34.116-15.042,71.813-7.14,109.945
	c6.197,29.903,18.482,58.285,36.084,83.769l-39.439,39.439v-47.35c0-5.522-4.476-9.998-9.998-9.998s-9.998,4.476-9.998,9.998v67.347
	l-28.293,28.293c-6.926-36.374-16.373-127.147,33.195-226.164c2.472-4.938,0.473-10.945-4.465-13.417
	c-4.937-2.472-10.945-0.472-13.417,4.465C5.747,307.411-0.722,373.561,0.06,416.65c0.851,46.886,10.042,76.922,10.433,78.178
	c0.978,3.14,3.436,5.598,6.576,6.576c2.047,0.637,34.784,10.561,84.824,10.559c26.226,0,57.215-2.729,91.009-10.947
	c20.303-4.938,40.379-11.624,59.745-19.851c12.485,2.986,25.206,4.889,38.046,5.625c4.055,0.232,8.083,0.348,12.086,0.348
	c50.744,0,97.045-18.558,131.42-52.933c0.024-0.024,0.047-0.049,0.071-0.073c0.006-0.006,0.013-0.011,0.019-0.017
	c0.01-0.01,0.019-0.021,0.029-0.032c17.233-17.266,30.548-37.608,39.572-60.464c2.028-5.136-0.492-10.944-5.628-12.972
	c-5.137-2.03-10.944,0.493-12.972,5.628c-6.779,17.169-16.288,32.729-28.309,46.392l-102.657-102.66
	c-3.904-3.904-10.235-3.904-14.141,0c-3.904,3.904-3.904,10.235,0,14.141L412.855,426.82
	c-32.274,28.492-74.852,42.655-121.017,40.006c-12.416-0.711-24.718-2.617-36.774-5.646c-0.485-0.164-0.98-0.298-1.486-0.386
	c-36.052-9.354-69.834-28.796-97.71-56.671c-60.367-60.366-79.642-147.444-48.271-217.254l79.266-79.266
	c69.811-31.371,156.887-12.097,217.254,48.271c37.34,37.339,59.592,85.345,62.657,135.171c0.339,5.512,5.091,9.721,10.593,9.366
	c5.512-0.339,9.706-5.082,9.366-10.593c-0.774-12.581-2.67-25.048-5.606-37.288c0.363-0.537,0.696-1.102,0.956-1.722
	C489.443,233.265,495.533,215.084,500.185,196.767z M222.17,471.515c-11.195,3.907-22.555,7.288-33.993,10.069
	c-66.157,16.09-121.714,9.674-148.316,4.615l18.521-18.521h71.18c5.522,0,9.998-4.476,9.998-9.999c0-5.522-4.476-9.998-9.998-9.998
	H78.378l47.213-47.213c5.052,6.143,10.429,12.085,16.137,17.792C165.254,441.786,192.683,459.811,222.17,471.515z M94.729,171.455
	c-14.807-21.479-12.665-51.203,6.428-70.295C111.91,90.407,126.035,85.03,140.16,85.03c10.954,0,21.91,3.235,31.292,9.702
	L94.729,171.455z M418.258,141.731c-5.707-5.707-11.648-11.084-17.792-16.137l10.611-10.611h49.849c5.522,0,9.998-4.476,9.998-9.998
	s-4.476-9.998-9.998-9.998h-29.852l55.024-55.024c5.562,29.125,11.586,85.41-5.295,151.882c-2.604,10.255-5.696,20.462-9.22,30.53
	C459.877,192.803,441.824,165.296,418.258,141.731z"/>
<g>
</g>
<g>
</g>
<g>
</g>
<g>
</g>
<g>
</g>
<g>
</g>
<g>
</g>
<g>
</g>
<g>
</g>
<g>
</g>
<g>
</g>
<g>
</g>
<g>
</g>
<g>
</g>
<g>
</g>
</svg>
