<svg height="512pt" viewBox="0 -22 512.002 512" width="512pt" xmlns="http://www.w3.org/2000/svg"><path d="m155.234375 274.554688c-4.257813 31.742187-31.429687 56.226562-64.335937 56.226562s-60.078126-24.484375-64.335938-56.226562zm0 0" fill="#feca57"/><path d="m255.714844 41.597656c5.367187 0 10.390625 1.449219 14.71875 3.972656v-27.832031c0-5.613281-4.550782-10.164062-10.164063-10.164062h-9.109375c-5.613281 0-10.164062 4.550781-10.164062 10.164062v27.832031c4.324218-2.523437 9.351562-3.972656 14.71875-3.972656zm0 0" fill="#c46f5f"/><path d="m270.433594 403.074219v-306.875c-4.324219 2.519531-9.351563 3.96875-14.71875 3.96875-5.367188 0-10.394532-1.449219-14.71875-3.96875v306.875zm0 0" fill="#c46f5f"/><path d="m260.808594 17.738281c0-3.648437 1.925781-6.835937 4.8125-8.628906-1.554688-.96875-3.382813-1.535156-5.351563-1.535156h-9.109375c-5.613281 0-10.164062 4.550781-10.164062 10.164062v27.832031c4.324218-2.523437 9.351562-3.972656 14.71875-3.972656 1.738281 0 3.4375.167969 5.09375.460938zm0 0" fill="#b45f4a"/><path d="m255.714844 100.167969c-5.367188 0-10.394532-1.449219-14.71875-3.96875v306.875h19.8125v-303.363281c-1.65625.292968-3.355469.457031-5.09375.457031zm0 0" fill="#b45f4a"/><path d="m344.90625 244.414062h147.1875c6.9375 0 12.617188 5.679688 12.617188 12.617188v4.90625c0 6.9375-5.679688 12.617188-12.617188 12.617188h-147.1875c-6.9375 0-12.613281-5.679688-12.613281-12.617188v-4.90625c-.003907-6.9375 5.675781-12.617188 12.613281-12.617188zm0 0" fill="#f4b537"/><path d="m492.09375 254.554688h-147.1875c-4.109375 0-7.765625-2.003907-10.074219-5.070313-1.585937 2.109375-2.539062 4.71875-2.539062 7.546875v4.90625c0 6.941406 5.675781 12.617188 12.613281 12.617188h147.1875c6.9375 0 12.617188-5.675782 12.617188-12.617188v-4.90625c0-2.828125-.957032-5.4375-2.542969-7.546875-2.308594 3.066406-5.964844 5.070313-10.074219 5.070313zm0 0" fill="#e59d1f"/><path d="m485.855469 274.554688c-4.253907 31.742187-31.425781 56.226562-64.332031 56.226562-32.910157 0-60.082032-24.484375-64.335938-56.226562zm0 0" fill="#feca57"/><path d="m56.5625 274.554688h-30c4.257812 31.742187 31.429688 56.226562 64.335938 56.226562 5.164062 0 10.1875-.605469 15-1.742188-25.867188-6.121093-45.746094-27.722656-49.335938-54.484374zm0 0" fill="#f4b537"/><path d="m387.1875 274.554688h-30c4.253906 31.742187 31.425781 56.226562 64.335938 56.226562 5.164062 0 10.183593-.605469 15-1.742188-25.871094-6.121093-45.746094-27.722656-49.335938-54.484374zm0 0" fill="#f4b537"/><path d="m114.023438 108.027344c0 11.101562-9 20.101562-20.105469 20.101562-11.101563 0-20.101563-9-20.101563-20.101562 0-11.105469 9-20.105469 20.101563-20.105469 11.105469 0 20.105469 9 20.105469 20.105469zm0 0" fill="#feca57"/><path d="m438.605469 108.027344c0 11.101562-9 20.101562-20.105469 20.101562-11.101562 0-20.105469-9-20.105469-20.101562 0-11.105469 9.003907-20.105469 20.105469-20.105469 11.105469 0 20.105469 9 20.105469 20.105469zm0 0" fill="#feca57"/><path d="m312.488281 400.070312h-113.546875c-6.9375 0-12.613281 5.679688-12.613281 12.617188v20.523438h138.777344v-20.523438c-.003907-6.9375-5.679688-12.617188-12.617188-12.617188zm0 0" fill="#3e4b5a"/><path d="m186.578125 410.210938c-.164063.800781-.25 1.628906-.25 2.476562v20.523438h138.777344v-20.523438c0-.847656-.089844-1.675781-.25-2.476562zm0 0" fill="#303f49"/><path d="m329.574219 430.210938h-147.183594c-6.941406 0-12.617187 5.675781-12.617187 12.617187v4.90625c0 6.9375 5.675781 12.613281 12.617187 12.613281h147.183594c6.941406 0 12.617187-5.675781 12.617187-12.613281v-4.90625c0-6.941406-5.675781-12.617187-12.617187-12.617187zm0 0" fill="#576574"/><path d="m329.574219 440.347656h-147.183594c-4.113281 0-7.769531-2-10.078125-5.066406-1.585938 2.109375-2.539062 4.71875-2.539062 7.546875v4.90625c0 6.9375 5.675781 12.617187 12.613281 12.617187h147.1875c6.9375 0 12.617187-5.679687 12.617187-12.617187v-4.90625c0-2.828125-.953125-5.4375-2.542968-7.546875-2.304688 3.066406-5.960938 5.066406-10.074219 5.066406zm0 0" fill="#3e4b5a"/><path d="m285 70.882812c0 16.175782-13.113281 29.285157-29.285156 29.285157-16.175782 0-29.285156-13.109375-29.285156-29.285157 0-16.171874 13.109374-29.285156 29.285156-29.285156 16.171875 0 29.285156 13.113282 29.285156 29.285156zm0 0" fill="#feca57"/><g fill="#f4b537"><path d="m103.816406 108.027344c0-5.132813 1.941406-9.800782 5.105469-13.355469-3.683594-4.132813-9.03125-6.75-15-6.75-11.105469 0-20.105469 9-20.105469 20.105469 0 11.101562 9 20.101562 20.105469 20.101562 5.96875 0 11.316406-2.617187 15-6.75-3.164063-3.554687-5.105469-8.222656-5.105469-13.351562zm0 0"/><path d="m428.398438 108.027344c0-5.132813 1.9375-9.800782 5.101562-13.355469-3.679688-4.132813-9.027344-6.75-15-6.75-11.101562 0-20.105469 9-20.105469 20.105469 0 11.101562 9.003907 20.101562 20.105469 20.101562 5.972656 0 11.320312-2.617187 15-6.75-3.164062-3.554687-5.101562-8.222656-5.101562-13.351562zm0 0"/><path d="m256.429688 70.882812c0-10.691406 5.730468-20.039062 14.285156-25.152343-4.386719-2.621094-9.515625-4.132813-15-4.132813-16.175782 0-29.285156 13.113282-29.285156 29.285156 0 16.175782 13.109374 29.285157 29.285156 29.285157 5.484375 0 10.613281-1.511719 15-4.132813-8.554688-5.113281-14.285156-14.460937-14.285156-25.152344zm0 0"/><path d="m20.328125 244.414062h147.183594c6.941406 0 12.617187 5.679688 12.617187 12.617188v4.90625c0 6.9375-5.675781 12.617188-12.617187 12.617188h-147.183594c-6.941406 0-12.617187-5.679688-12.617187-12.617188v-4.90625c0-6.9375 5.675781-12.617188 12.617187-12.617188zm0 0"/></g><path d="m167.511719 254.554688h-147.183594c-4.113281 0-7.769531-2.003907-10.078125-5.070313-1.585938 2.109375-2.539062 4.71875-2.539062 7.546875v4.90625c0 6.941406 5.675781 12.617188 12.617187 12.617188h147.183594c6.941406 0 12.617187-5.675782 12.617187-12.617188v-4.90625c0-2.828125-.953125-5.4375-2.542968-7.546875-2.304688 3.066406-5.960938 5.070313-10.074219 5.070313zm0 0" fill="#e59d1f"/><path d="m491.882812 236.84375h-4.230468l-51.21875-108.109375c5.792968-5.066406 9.460937-12.5 9.460937-20.78125 0-15.21875-12.382812-27.605469-27.605469-27.605469-11.785156 0-21.863281 7.425782-25.816406 17.84375-8.792968-1.132812-17.535156-2.875-26.070312-5.214844l-74.15625-20.339843c.605468-12.34375-4.960938-23.847657-14.523438-31.121094v-23.851563c0-9.738281-7.921875-17.664062-17.660156-17.664062h-9.113281c-9.738281 0-17.664063 7.925781-17.664063 17.664062v23.851563c-9.597656 7.300781-15.207031 18.894531-14.503906 31.386719l-73.183594 20.074218c-8.535156 2.339844-17.277344 4.082032-26.070312 5.210938-3.953125-10.414062-14.03125-17.839844-25.816406-17.839844-15.222657 0-27.605469 12.382813-27.605469 27.605469 0 8.28125 3.667969 15.714844 9.460937 20.78125l-51.21875 108.109375h-4.230468c-11.09375 0-20.117188 9.023438-20.117188 20.117188v4.90625c0 11.085937 9.015625 20.105468 20.097656 20.113281 7.4375 32.480469 36.695313 56.230469 70.589844 56.230469s63.152344-23.75 70.589844-56.230469h6.027344c11.089843 0 20.113281-9.023438 20.113281-20.113281v-4.90625c0-11.09375-9.023438-20.117188-20.113281-20.117188h-4.234376l-51.214843-108.113281c4.550781-3.976563 7.785156-9.417969 8.964843-15.585938 9.695313-1.21875 19.335938-3.121093 28.746094-5.703125l73.117188-20.054687c2.535156 5 6.175781 9.351562 10.605468 12.71875v292.394531h-34.554687c-11.09375 0-20.117187 9.023438-20.117187 20.113281v10.359375c-9.394532 1.6875-16.554688 9.90625-16.554688 19.78125v4.90625c0 11.089844 9.023438 20.113282 20.117188 20.113282h55.824218c4.144532 0 7.5-3.355469 7.5-7.5 0-4.140626-3.355468-7.5-7.5-7.5h-55.824218c-2.773438 0-5.113282-2.339844-5.113282-5.113282v-4.90625c0-2.773437 2.339844-5.117187 5.113282-5.117187h147.1875c2.773437 0 5.117187 2.34375 5.117187 5.117187v4.90625c0 2.773438-2.34375 5.113282-5.117187 5.113282h-56.359376c-4.144531 0-7.5 3.359374-7.5 7.5 0 4.144531 3.355469 7.5 7.5 7.5h56.359376c11.09375 0 20.117187-9.023438 20.117187-20.113282v-4.90625c0-10.0625-7.433594-18.398437-17.089844-19.863281v-10.273437c0-11.09375-9.023437-20.117188-20.117187-20.117188h-34.550782v-115.585938c0-4.140624-3.359374-7.5-7.503906-7.5-4.140625 0-7.5 3.359376-7.5 7.5v115.585938h-14.4375v-285.617188c4.625.921876 9.515625.984376 14.4375 0v135.027344c0 4.144532 3.359375 7.5 7.5 7.5 4.144532 0 7.503906-3.355468 7.503906-7.5v-141.804687c4.496094-3.421875 8.183594-7.851563 10.726563-12.953125l73.984375 20.292968c9.40625 2.578126 19.050781 4.484376 28.746094 5.703126 1.179687 6.164062 4.414062 11.605468 8.964844 15.585937l-51.21875 108.109375h-4.230469c-11.09375 0-20.117188 9.023438-20.117188 20.117188v4.90625c0 11.09375 9.023438 20.117187 20.117188 20.117187h6.023437c7.441406 32.476563 36.695313 56.226563 70.589844 56.226563s63.152344-23.75 70.589844-56.230469c11.085937-.007813 20.101562-9.027344 20.101562-20.113281v-4.90625c-.003906-11.09375-9.027344-20.117188-20.121094-20.117188zm-398.171874-141.492188c6.949218 0 12.601562 5.652344 12.601562 12.601563 0 7.117187-5.878906 12.605469-12.601562 12.605469-6.699219 0-12.605469-5.457032-12.605469-12.605469 0-6.949219 5.65625-12.601563 12.605469-12.601563zm-3.023438 227.855469c-25.695312 0-48.03125-17.210937-55.09375-41.226562h110.191406c-7.066406 24.015625-29.402344 41.226562-55.097656 41.226562zm81.730469-66.246093v4.90625c0 2.773437-2.34375 5.113281-5.113281 5.113281-4.316407 0-137.808594 0-147.1875 0-2.773438 0-5.117188-2.339844-5.117188-5.113281v-4.90625c0-2.773438 2.34375-5.117188 5.117188-5.117188h147.1875c2.769531 0 5.113281 2.34375 5.113281 5.117188zm-25.945313-20.117188h-105.523437l48.167969-101.675781c3.207031.542969 6.347656.480469 9.1875 0zm165.804688 170.65625c2.773437 0 5.113281 2.34375 5.113281 5.117188v10.019531h-123.773437v-10.019531c0-2.773438 2.34375-5.117188 5.113281-5.117188zm-56.773438-314.902344c-11.945312 0-21.785156-9.730468-21.785156-21.789062 0-12.050782 9.835938-21.785156 21.785156-21.785156 22.25 0 30.132813 29.710937 10.726563 40.738281-3.394531 1.925781-7.125 2.835937-10.726563 2.835937zm-7.21875-74.933594c0-1.46875 1.195313-2.664062 2.664063-2.664062h9.109375c1.46875 0 2.664062 1.195312 2.664062 2.664062v17.074219c-4.765625-.949219-9.667968-.953125-14.4375 0zm170.003906 77.6875c6.949219 0 12.605469 5.652344 12.605469 12.601563 0 7.109375-5.871093 12.605469-12.605469 12.605469-6.765624 0-12.601562-5.527344-12.601562-12.605469 0-6.949219 5.652344-12.601563 12.601562-12.601563zm-4.59375 39.816407c3.207032.542969 6.347657.480469 9.1875 0l48.167969 101.675781h-105.523437zm7.617188 188.039062c-25.695312 0-48.03125-17.210937-55.097656-41.226562h110.191406c-7.0625 24.015625-29.398438 41.226562-55.09375 41.226562zm75.6875-61.339843c0 2.773437-2.34375 5.113281-5.117188 5.113281-4.597656 0-136.4375 0-147.1875 0-2.769531 0-5.113281-2.339844-5.113281-5.113281v-4.90625c0-2.773438 2.34375-5.117188 5.113281-5.117188h147.1875c2.773438 0 5.117188 2.34375 5.117188 5.117188zm0 0"/></svg>