<svg id="Layer_1" enable-background="new 0 0 512 512" height="512" viewBox="0 0 512 512" width="512" xmlns="http://www.w3.org/2000/svg"><g><circle cx="328.989" cy="142.15" fill="#ffd54f" r="50.5"/><path d="m328.989 91.65c-4.72 0-9.283.661-13.616 1.872 21.273 5.945 36.884 25.457 36.884 48.627 0 23.171-15.611 42.683-36.884 48.628 4.333 1.211 8.896 1.872 13.616 1.872 27.89 0 50.5-22.61 50.5-50.5s-22.609-50.499-50.5-50.499z" fill="#ffca28"/><path d="m264.932 104.315c73.971 73.971 69.389 152.493 18.133 203.75s-129.779 55.838-203.75-18.133-81.19-232.671-64.122-249.739 175.768-9.849 249.739 64.122z" fill="#64cc56"/><path d="m264.932 104.315c-57.888-57.888-167.661-74.894-220.842-71.372 57.544 3.099 142.377 22.907 190.842 71.372 73.971 73.971 69.39 152.493 18.133 203.75-20.544 20.543-45.469 33.579-72.724 37.075 38.894 4.87 74.843-9.194 102.724-37.075 51.257-51.257 55.838-129.779-18.133-203.75z" fill="#5bbd4f"/><path d="m432.685 418.932c-73.971 73.971-152.493 69.389-203.75 18.133s-55.838-129.779 18.133-203.75 232.671-81.19 249.739-64.122 9.849 175.768-64.122 249.739z" fill="#64cc56"/><path d="m496.807 169.193c-5.885-5.885-28.613-8.881-58.897-7.25 14.775.978 25.186 3.539 28.897 7.25 17.068 17.068 9.849 175.768-64.122 249.739-33.735 33.735-68.416 51.125-101.026 55.208 40.747 5.226 86.702-10.884 131.026-55.208 73.971-73.971 81.19-232.671 64.122-249.739z" fill="#5bbd4f"/><g><path d="m328.972 61.717c4.143 0 7.501-3.358 7.501-7.5v-13.082c0-4.143-3.358-7.5-7.501-7.5-4.142 0-7.501 3.358-7.501 7.5v13.082c0 4.142 3.358 7.5 7.501 7.5z"/><path d="m391.141 87.473c1.92 0 3.839-.732 5.304-2.196l9.254-9.253c2.93-2.93 2.93-7.678 0-10.608-2.929-2.928-7.678-2.928-10.608 0l-9.254 9.253c-2.93 2.93-2.93 7.678 0 10.608 1.465 1.463 3.385 2.196 5.304 2.196z"/><path d="m416.899 149.638h13.082c4.143 0 7.501-3.358 7.501-7.5s-3.358-7.5-7.501-7.5h-13.082c-4.142 0-7.501 3.358-7.501 7.5s3.358 7.5 7.501 7.5z"/><path d="m261.499 85.276c1.465 1.464 3.384 2.196 5.304 2.196s3.839-.732 5.304-2.196c2.93-2.93 2.93-7.678 0-10.608l-9.254-9.253c-2.929-2.928-7.678-2.928-10.607 0-2.93 2.93-2.93 7.678 0 10.608z"/><path d="m145.537 327.733c-20.853-9.016-41.364-23.521-60.962-43.113-41.4-41.397-57.939-106.833-64.113-142.152-4.078-23.33-5.998-46.837-5.406-66.189.656-21.476 4.116-29.514 5.393-30.798 1.304-1.297 9.476-4.796 31.335-5.409 19.697-.556 43.552 1.467 67.161 5.687 4.08.728 7.975-1.984 8.704-6.064.729-4.077-1.986-7.974-6.064-8.703-44.358-7.929-98.597-9.262-111.743 3.881-12.94 12.939-11.804 66.399-4.165 110.131 6.476 37.077 23.96 105.897 68.292 150.225 20.942 20.935 43.018 36.503 65.615 46.273.97.42 1.98.618 2.973.618 2.901 0 5.664-1.693 6.889-4.526 1.643-3.803-.107-8.218-3.909-9.861z"/><path d="m502.111 163.879c-12.938-12.938-66.402-11.802-110.135-4.163-2.586.452-5.328.957-8.204 1.521 2.118-6.076 3.208-12.505 3.208-19.098 0-31.983-26.021-58.002-58.006-58.002-19.786 0-37.727 9.862-48.329 25.876-3.311-3.7-6.788-7.373-10.433-11.019-33.885-33.884-82.226-51.869-116.812-60.99-4.006-1.056-8.109 1.334-9.165 5.339-1.057 4.006 1.334 8.109 5.34 9.165 32.799 8.65 78.512 25.576 110.03 57.092 24.083 24.09 40.31 49.26 48.311 74.907-23.606 10.388-47.146 24.469-66.174 43.495-1.421 1.421-2.818 2.848-4.189 4.28l6.151-58.316c.435-4.12-2.552-7.812-6.673-8.246-4.121-.427-7.811 2.553-8.246 6.672l-6.756 64.046-35.302-35.3 6.643-58.369c.468-4.115-2.489-7.831-6.605-8.3-4.117-.46-7.832 2.488-8.301 6.605l-5.293 46.509-32.013-32.011 5.252-46.143c.469-4.115-2.488-7.831-6.604-8.3-4.122-.464-7.832 2.487-8.301 6.605l-3.902 34.284-31.555-31.553c-2.929-2.928-7.679-2.928-10.608 0-2.929 2.93-2.929 7.678 0 10.608l31.555 31.553-34.287 3.902c-4.116.469-7.073 4.185-6.604 8.3.436 3.828 3.68 6.654 7.443 6.654.283 0 .569-.017.858-.049l46.146-5.251 32.013 32.011-46.512 5.292c-4.116.469-7.073 4.185-6.605 8.3.436 3.828 3.681 6.654 7.444 6.654.283 0 .569-.017.858-.049l58.372-6.642 35.302 35.3-64.049 6.755c-4.12.435-7.107 4.126-6.673 8.246.406 3.852 3.661 6.714 7.45 6.714.263 0 .529-.015.796-.042l64.281-6.78c-17.056 24.742-27.033 50.486-29.335 76.049-3.155-.321-6.319-.773-9.467-1.353-4.07-.756-7.985 1.943-8.735 6.018-.751 4.073 1.944 7.985 6.018 8.735 3.89.717 7.808 1.26 11.711 1.627.83 30.796 12.804 59.524 35.009 83.924l-37.259 37.257c-2.929 2.93-2.929 7.678 0 10.608 1.465 1.464 3.384 2.196 5.304 2.196s3.839-.732 5.304-2.196l37.26-37.257c25.309 23.03 55.27 35.053 87.371 35.053 2.067 0 4.146-.05 6.231-.149 39.257-1.885 79.144-22.016 115.347-58.216 20.028-20.027 36.663-47.173 49.443-80.684 1.476-3.87-.465-8.204-4.336-9.68-3.871-1.474-8.205.466-9.681 4.336-12.021 31.523-27.509 56.898-46.033 75.42-63.004 63-134.279 71.584-187.723 23.304l47.238-47.235 76.121 8.029c.268.028.533.042.796.042 3.789 0 7.044-2.862 7.45-6.714.435-4.119-2.553-7.812-6.673-8.246l-64.048-6.756 32.786-32.784 61.569 5.679c.234.021.467.032.698.032 3.831 0 7.101-2.922 7.46-6.813.38-4.124-2.655-7.777-6.78-8.158l-49.153-4.533 32.155-32.153 42.666 3.744c.223.02.444.028.665.028 3.846 0 7.121-2.942 7.463-6.845.362-4.126-2.69-7.765-6.816-8.127l-30.133-2.644 33.401-33.399c2.93-2.93 2.93-7.678 0-10.608-2.929-2.928-7.678-2.928-10.608 0l-33.403 33.401-2.645-30.132c-.361-4.127-4.006-7.17-8.128-6.817-4.127.362-7.178 4.001-6.816 8.127l3.745 42.664-32.155 32.153-4.534-49.15c-.38-4.125-4.031-7.156-8.158-6.781-4.125.381-7.16 4.033-6.78 8.158l5.68 61.565-32.787 32.785-6.756-64.045c-.435-4.119-4.133-7.092-8.246-6.672-4.12.435-7.107 4.126-6.673 8.246l8.029 76.116-47.238 47.235c-48.284-53.441-39.699-124.712 23.305-187.711 41.4-41.398 106.839-57.937 142.162-64.11 23.331-4.077 46.842-5.996 66.193-5.406 21.476.656 29.515 4.115 30.8 5.393 1.654 1.663 6.197 13.424 5.41 44.579-.717 28.364-5.606 60.119-13.764 89.415-1.111 3.99 1.223 8.126 5.214 9.238 3.99 1.107 8.126-1.224 9.238-5.214 8.484-30.464 13.566-63.528 14.31-93.1.413-16.662-.303-46.028-9.806-55.53zm-211.25-41.694c7.379-14.13 21.913-23.048 38.113-23.048 23.713 0 43.004 19.291 43.004 43.002 0 8.319-2.339 16.285-6.789 23.198-13.305 3.265-28.158 7.636-43.35 13.453-6.205-19.305-16.575-38.244-30.978-56.605z"/></g></g></svg>