<svg id="_x33_0" enable-background="new 0 0 64 64" height="512" viewBox="0 0 64 64" width="512" xmlns="http://www.w3.org/2000/svg"><g><g><path d="m53 19c-10 0-14.95-4.97-15-5h-12c-.05.03-5 5-15 5h-4v6.16c0 22.55 15.53 33.68 23.73 36.42l1.27.42 1.27-.42c8.2-2.74 23.73-13.87 23.73-36.42v-6.16z" fill="#fcd770"/><path d="m38 19h-12s-5 4-15 4v2.38c0 25.62 21 32.62 21 32.62s21-7 21-32.62v-2.38c-10 0-15-4-15-4z" fill="#ccd1d9"/><path d="m38 8v2h-12v-2c0-3.31 2.69-6 6-6 1.66 0 3.16.67 4.24 1.76 1.09 1.08 1.76 2.58 1.76 4.24z" fill="#aab2bd"/><path d="m36.48 40.17-1.8 4.95c-.41 1.13-1.48 1.88-2.68 1.88s-2.27-.75-2.68-1.88l-1.8-4.95.48-.17h8z" fill="#cf9e76"/><path d="m38 10v4h-6-6v-4z" fill="#ecc19c"/><path d="m38 36-1.52 4.17-.48-.17h-8l-.48.17-1.52-4.17h6z" fill="#ecc19c"/><path d="m38 19v17h-6v-22h6z" fill="#b4dd7f"/><path d="m32 14v22h-6v-17-5z" fill="#ff826e"/></g><path d="m53 18c-8.068 0-12.651-3.303-14-4.451v-5.549c0-3.86-3.14-7-7-7s-7 3.14-7 7v5.549c-1.349 1.148-5.932 4.451-14 4.451h-5v7.164c0 23.116 15.973 34.548 24.418 37.362l1.582.528 1.582-.527c8.445-2.815 24.418-14.247 24.418-37.363v-7.164zm-17.155 21h-7.69l-.727-2h9.145zm-.727 2-1.374 3.778c-.266.731-.967 1.222-1.744 1.222s-1.478-.491-1.744-1.222l-1.374-3.778zm-8.118-6v-20h4v20zm6 0v-20h4v20zm4-22h-10v-2h10zm-8.624 32.462c.553 1.518 2.009 2.538 3.624 2.538s3.071-1.02 3.624-2.538l3.376-9.286v-15.36c2.163 1.191 6.484 3 13 3.171v1.394c0 22.86-17.421 30.542-20.001 31.553-2.583-1.006-19.999-8.649-19.999-31.554v-1.394c6.516-.171 10.837-1.98 13-3.171v15.36zm3.624-42.462c2.757 0 5 2.243 5 5v1h-10v-1c0-2.757 2.243-5 5-5zm24 22.164c0 21.976-15.078 32.808-23.051 35.466l-.949.316-.949-.316c-7.973-2.658-23.051-13.49-23.051-35.466v-5.164h3c7 0 11.644-2.353 14-3.956v2.435c-1.29.849-5.983 3.521-14 3.521h-1v3.38c0 26.04 21.467 33.496 21.684 33.568l.316.106.316-.105c.217-.073 21.684-7.529 21.684-33.569v-3.38h-1c-8.017 0-12.71-2.672-14-3.521v-2.434c2.35 1.599 6.996 3.955 14 3.955h3z"/></g></svg>