<svg id="Capa_1" enable-background="new 0 0 512 512" height="512" viewBox="0 0 512 512" width="512" xmlns="http://www.w3.org/2000/svg"><g><path d="m7.5 158.5h437v255h-437z" fill="#408d69"/><path d="m37.5 128.5h437v255h-437z" fill="#53a143"/><path d="m504.5 98.5v255h-30l-93.75-127.5 93.75-127.5z" fill="#53a143"/><path d="m474.5 353.5h-407v-255h407v60l-93.75 67.5 93.75 67.5z" fill="#60ba4d"/><path d="m474.5 158.5v135c-16.57 0-30 13.43-30 30h-317c0-16.57-13.43-30-30-30v-135c16.57 0 30-13.43 30-30h317c0 16.57 13.43 30 30 30z" fill="#85cf75"/><circle cx="286.001" cy="226" fill="#53a143" r="67.5"/><path d="m286.001 188.5v75c20.711 0 37.5-16.789 37.5-37.5s-16.79-37.5-37.5-37.5z" fill="#60ba4d"/><path d="m293.501 226c0-20.711-3.358-37.5-7.5-37.5-20.711 0-37.5 16.789-37.5 37.5s16.789 37.5 37.5 37.5c4.142 0 7.5-16.789 7.5-37.5z" fill="#85cf75"/><circle cx="157.5" cy="226" fill="#60ba4d" r="30"/><circle cx="414.5" cy="226" fill="#60ba4d" r="30"/><path d="m504.5 91h-437c-4.142 0-7.5 3.358-7.5 7.5v22.5h-22.5c-4.142 0-7.5 3.358-7.5 7.5v22.5h-22.5c-4.142 0-7.5 3.358-7.5 7.5v255c0 4.142 3.358 7.5 7.5 7.5h437c4.143 0 7.5-3.358 7.5-7.5v-22.5h22.5c4.143 0 7.5-3.358 7.5-7.5v-22.5h22.5c4.143 0 7.5-3.358 7.5-7.5v-255c0-4.142-3.357-7.5-7.5-7.5zm-67.5 315h-422v-240h15v217.5c0 4.142 3.358 7.5 7.5 7.5h399.5zm30-30h-422v-240h15v217.5c0 4.142 3.358 7.5 7.5 7.5h399.5zm30-30h-422v-240h422z"/><path d="m97.5 301c12.407 0 22.5 10.093 22.5 22.5 0 4.142 3.358 7.5 7.5 7.5h30c4.142 0 7.5-3.358 7.5-7.5s-3.358-7.5-7.5-7.5h-23.253c-2.99-14.671-14.576-26.256-29.247-29.247v-121.506c14.671-2.99 26.256-14.576 29.247-29.247h303.506c2.991 14.671 14.576 26.256 29.247 29.247v121.507c-14.671 2.99-26.256 14.576-29.247 29.247h-250.253c-4.142 0-7.5 3.358-7.5 7.5s3.358 7.5 7.5 7.5h257c4.143 0 7.5-3.358 7.5-7.5 0-12.407 10.094-22.5 22.5-22.5 4.143 0 7.5-3.358 7.5-7.5v-135c0-4.142-3.357-7.5-7.5-7.5-12.406 0-22.5-10.093-22.5-22.5 0-4.142-3.357-7.5-7.5-7.5h-317c-4.142 0-7.5 3.358-7.5 7.5 0 12.407-10.093 22.5-22.5 22.5-4.142 0-7.5 3.358-7.5 7.5v135c0 4.141 3.358 7.499 7.5 7.499z"/><path d="m361.001 226c0-41.355-33.645-75-75-75s-75 33.645-75 75 33.645 75 75 75 75-33.645 75-75zm-135 0c0-33.084 26.916-60 60-60s60 26.916 60 60-26.916 60-60 60-60-26.916-60-60z"/><path d="m331.001 226c0-24.813-20.187-45-45-45-24.814 0-45 20.187-45 45s20.186 45 45 45c24.813 0 45-20.187 45-45zm-75 0c0-16.542 13.458-30 30-30s30 13.458 30 30-13.458 30-30 30-30-13.458-30-30z"/><path d="m195 226c0-20.678-16.822-37.5-37.5-37.5s-37.5 16.822-37.5 37.5 16.822 37.5 37.5 37.5 37.5-16.822 37.5-37.5zm-37.5 22.5c-12.407 0-22.5-10.093-22.5-22.5s10.093-22.5 22.5-22.5 22.5 10.093 22.5 22.5-10.093 22.5-22.5 22.5z"/><path d="m452 226c0-20.678-16.822-37.5-37.5-37.5s-37.5 16.822-37.5 37.5 16.822 37.5 37.5 37.5 37.5-16.822 37.5-37.5zm-60 0c0-12.407 10.094-22.5 22.5-22.5s22.5 10.093 22.5 22.5-10.094 22.5-22.5 22.5-22.5-10.093-22.5-22.5z"/></g></svg>