<svg id="_x33_0" enable-background="new 0 0 64 64" height="512" viewBox="0 0 64 64" width="512" xmlns="http://www.w3.org/2000/svg"><g><g><g><g><path d="m29.3 36c-2.15 0-4.24-.67-5.99-1.92-1.35-.96-2.43-2.23-3.17-3.66-.07-.14-.14-.28-.2-.42-3.15.02-6.14 1.4-8.19 3.8-.89 1.03-1.58 2.2-2.04 3.46-.47 1.26-.71 2.6-.71 3.96v.78 15c0 2.76 2.24 5 5 5h14v-4-8h2v-6h-3c-.55 0-1-.45-1-1v-1-1c0-.55.45-1 1-1h3v-3c0-.55.45-1 1-1h-1z" fill="#e6e9ed"/></g><g><path d="m54.29 37.26c-.46-1.26-1.15-2.43-2.04-3.46-2.05-2.4-5.04-3.78-8.19-3.8-.74 1.61-1.89 3.02-3.37 4.08-1.75 1.25-3.84 1.92-5.99 1.92h-.7-1c.55 0 1 .45 1 1v3h3c.55 0 1 .45 1 1v1 1c0 .55-.45 1-1 1h-3v6h2v8 4h14c2.76 0 5-2.24 5-5v-15-.78c0-1.36-.24-2.7-.71-3.96z" fill="#e6e9ed"/></g></g><g><path d="m23 23v.94c0 4.98 2.67 9.59 7 12.06h-.7c-2.15 0-4.24-.67-5.99-1.92-1.35-.96-2.43-2.23-3.17-3.66-.07-.14-.14-.28-.2-.42-.61-1.33-.94-2.8-.94-4.3v-11.74c0-3.11 1.52-6.02 4.06-7.8l3.48-2.44c1.6-1.12 3.51-1.72 5.46-1.72s3.86.6 5.46 1.72l3.48 2.44c2.54 1.78 4.06 4.69 4.06 7.8v11.74c0 1.5-.33 2.97-.94 4.3-.74 1.61-1.89 3.02-3.37 4.08-1.75 1.25-3.84 1.92-5.99 1.92h-.7c4.33-2.47 7-7.08 7-12.06v-.94-1c0-2.48-1.01-4.74-2.64-6.36-1.62-1.63-3.88-2.64-6.36-2.64-4.97 0-9 4.03-9 9z" fill="#ccd1d9"/></g><g><path d="m41 23.94c0 4.98-2.67 9.59-7 12.06h-1-2-1c-4.33-2.47-7-7.08-7-12.06v-.94c0 2.48 1.01 4.74 2.64 6.36 1.62 1.63 3.88 2.64 6.36 2.64 4.97 0 9-4.03 9-9z" fill="#f0d0b4"/></g><g><path d="m41 23c0 4.97-4.03 9-9 9-2.48 0-4.74-1.01-6.36-2.64-1.63-1.62-2.64-3.88-2.64-6.36v-1c0-4.97 4.03-9 9-9 2.48 0 4.74 1.01 6.36 2.64 1.63 1.62 2.64 3.88 2.64 6.36z" fill="#f0d0b4"/></g><g><path d="m36 50v8h-8c1.1 0 2.1-.45 2.83-1.17.72-.73 1.17-1.73 1.17-2.83 0-2.21-1.79-4-4-4h2 4z" fill="#f0d0b4"/></g><g><path d="m28 50c2.21 0 4 1.79 4 4 0 1.1-.45 2.1-1.17 2.83-.73.72-1.73 1.17-2.83 1.17z" fill="#f0d0b4"/></g><g><path d="m31 36h2c.55 0 1 .45 1 1v3h3c.55 0 1 .45 1 1v1 1c0 .55-.45 1-1 1h-3v6h-4v-6h-3c-.55 0-1-.45-1-1v-1-1c0-.55.45-1 1-1h3v-3c0-.55.45-1 1-1z" fill="#fcd770"/></g></g><g><circle cx="28" cy="20" r="1"/><path d="m31 21h2v4h-2z"/><circle cx="36" cy="20" r="1"/><path d="m35 24.838c-.432 1.293-1.637 2.162-3 2.162s-2.568-.869-3-2.165l-.052-.154-1.896.638.052.151c.703 2.112 2.67 3.53 4.896 3.53s4.193-1.418 4.896-3.527l.052-.154-1.896-.638z"/><path d="m53.013 33.145c-1.938-2.26-4.637-3.69-7.557-4.05.344-1.089.544-2.229.544-3.396v-11.744c0-3.428-1.677-6.649-4.486-8.616l-3.482-2.438c-1.777-1.244-3.863-1.901-6.032-1.901s-4.255.657-6.031 1.901l-3.482 2.438c-2.81 1.967-4.487 5.188-4.487 8.616v11.744c0 1.167.2 2.307.545 3.396-2.92.36-5.62 1.79-7.557 4.051-1.927 2.246-2.988 5.114-2.988 8.074v15.78c0 3.309 2.691 6 6 6h15v-4h6v4h15c3.309 0 6-2.691 6-6v-15.78c0-2.96-1.061-5.828-2.987-8.075zm-1.518 1.302c1.567 1.828 2.444 4.148 2.495 6.553h-14.99c0-1.103-.897-2-2-2h-2v-2c0-.004-.001-.008-.001-.012 2.26-.059 4.423-.774 6.269-2.094 1.428-1.02 2.57-2.351 3.379-3.859 2.642.174 5.113 1.388 6.848 3.412zm-5.495 14.553h-11v-4h2c1.103 0 2-.897 2-2h7zm-28-6h7c0 1.103.897 2 2 2h2v4h-1-4-6zm11 13.816v-5.631c1.161.414 2 1.514 2 2.816s-.839 2.401-2 2.815zm2-7.816v-6h-4v-2h4v-4h2v4h4v2h-4v6zm9-26c0 4.411-3.589 8-8 8s-8-3.589-8-8v-1c0-4.411 3.589-8 8-8s8 3.589 8 8zm-8 10c2.164 0 4.165-.699 5.804-1.872-1.045 1.555-2.432 2.884-4.086 3.872h-3.435c-1.653-.988-3.041-2.317-4.086-3.872 1.638 1.173 3.639 1.872 5.803 1.872zm-12-19.045c0-2.776 1.358-5.385 3.633-6.978l3.482-2.438c1.44-1.007 3.128-1.539 4.885-1.539s3.445.532 4.885 1.54l3.482 2.438c2.275 1.592 3.633 4.201 3.633 6.977v11.744c0 2.997-1.456 5.827-3.895 7.569-.793.566-1.657.999-2.566 1.29 2.81-2.766 4.46-6.584 4.46-10.62v-.938-1c0-5.514-4.486-10-10-10s-10 4.486-10 10v1 .938c0 4.036 1.65 7.855 4.46 10.62-.909-.292-1.773-.724-2.566-1.29-2.437-1.743-3.893-4.572-3.893-7.569zm-7.495 20.492c1.735-2.024 4.206-3.238 6.849-3.412.809 1.508 1.951 2.84 3.379 3.859 1.846 1.32 4.008 2.035 6.269 2.094-.001.004-.002.008-.002.012v2h-2c-1.103 0-2 .897-2 2h-14.99c.051-2.405.928-4.725 2.495-6.553zm1.495 26.553c-2.206 0-4-1.794-4-4v-14h6v6.31c-1.313.475-2.393 1.479-2.935 2.834l-.994 2.485 1.857.742.994-2.485c.459-1.146 1.553-1.886 2.786-1.886h6.292 3v10zm17.974-4c.635-.838 1.026-1.87 1.026-3s-.391-2.162-1.026-3h3.026v6zm18.026 4h-13v-10h9.292c1.233 0 2.327.74 2.785 1.886l.994 2.485 1.857-.742-.994-2.485c-.542-1.355-1.621-2.359-2.935-2.834v-6.31h6v14c.001 2.206-1.793 4-3.999 4z"/></g></g></svg>