<svg height="512" viewBox="0 0 64 64" width="512" xmlns="http://www.w3.org/2000/svg"><g id="_19-RIP" data-name="19-RIP"><path d="m52 54-5 9s-7.59-10.02-15-20.91c1.84-2.7 3.68-5.46 5.38-8.13l.07.04c3.99 5.81 8.8 12.5 14.55 20z" fill="#35383b"/><path d="m24.08 12.79c1.76 3.14 4.35 7.5 7.92 13.02q-2.385 3.705-5.4 8.11c-4.61-7.21-8.25-13.77-8.6-16.92 0 0 1-8 3-10 0 0 .93 1.98 3.08 5.79z" fill="#35383b"/><path d="m39.92 12.79c2.15-3.81 3.08-5.79 3.08-5.79 2 2 3 10 3 10-.35 3.15-4.01 9.73-8.62 16.96-1.7 2.67-3.54 5.43-5.38 8.13-7.41 10.88-15 20.91-15 20.91l-5-9c5.78-7.53 10.61-14.25 14.6-20.08q3.015-4.4 5.4-8.11c3.57-5.52 6.15-9.89 7.92-13.02z" fill="#52575c"/><path d="m43 7s-.93 1.98-3.08 5.79c-.35-.82-2.01-3.79-7.92-3.79s-7.57 2.97-7.92 3.79c-2.15-3.81-3.08-5.79-3.08-5.79a13.083 13.083 0 0 1 22 0z" fill="#222426"/><path d="m52.793 53.392c-5.109-6.666-9.877-13.219-14.193-19.492 4.5-7.116 8.039-13.581 8.4-16.787a1.017 1.017 0 0 0 0-.234c-.1-.837-1.069-8.1-3.16-10.435a13.718 13.718 0 0 0 -11.84-6.444 13.718 13.718 0 0 0 -11.832 6.441c-2.091 2.34-3.056 9.6-3.16 10.435a1.017 1.017 0 0 0 0 .234c.322 2.9 3.073 8.4 8.39 16.788-3.916 5.7-8.611 12.217-14.189 19.494a1 1 0 0 0 -.081 1.093l5 9a1 1 0 0 0 .8.512h.07a1 1 0 0 0 .8-.4c.562-.737 7.326-9.697 14.202-19.727 7.08 10.308 14.129 19.636 14.2 19.73a1 1 0 0 0 .8.4h.07a1 1 0 0 0 .8-.512l5-9a1 1 0 0 0 -.077-1.096zm-20.793-51.392a11.761 11.761 0 0 1 9.856 5.061c-.321.643-.979 1.927-2.013 3.8-1.165-1.322-3.456-2.861-7.843-2.861s-6.681 1.541-7.845 2.865c-1.038-1.886-1.694-3.167-2.011-3.8a11.762 11.762 0 0 1 9.856-5.065zm0 21.955c-2.944-4.606-5.181-8.371-6.781-11.192.563-.93 2.253-2.763 6.781-2.763s6.216 1.831 6.783 2.755c-1.604 2.823-3.832 6.576-6.783 11.2zm-12.992-6.955a35.244 35.244 0 0 1 1.892-7.959c1.341 2.592 4.432 8.261 9.9 16.764q-1.9 2.936-4.179 6.292c-5.8-9.242-7.371-13.314-7.613-15.097zm-1.881 44.17-3.935-7.082c18.572-24.288 27.356-40.157 29.901-45.053a35.155 35.155 0 0 1 1.899 7.965c-.92 6.848-18.086 31.152-27.865 44.17zm29.748 0c-2.2-2.938-7.968-10.743-13.663-19.071 1.437-2.119 2.862-4.263 4.222-6.373 4.1 5.931 8.579 12.094 13.374 18.365z"/></g></svg>