<svg id="Capa_1" enable-background="new 0 0 512 512" height="512" viewBox="0 0 512 512" width="512" xmlns="http://www.w3.org/2000/svg"><g id="XMLID_1482_"><g id="XMLID_860_"><path id="XMLID_861_" d="m260.999 502v-340.727c0-30.8-15.641-59.491-41.528-76.179h-140.944c-25.887 16.688-41.528 45.379-41.528 76.179v340.727z" fill="#ffedd1"/><path id="XMLID_863_" d="m148.999 243c-37.555 0-68-30.445-68-68v-123.805c0-22.752 18.443-41.195 41.194-41.195h53.611c22.751 0 41.195 18.443 41.195 41.195v123.805c0 37.555-30.445 68-68 68z" fill="#f6838d"/></g><g id="XMLID_1727_"><path id="XMLID_1731_" d="m215.698 55.442c26.843 0 51.07 16.091 61.48 40.834l63.438 150.784-150.785-63.438c-24.742-10.41-40.834-34.637-40.834-61.48.002-36.838 29.864-66.7 66.701-66.7z" fill="#f8a2aa"/><path id="XMLID_1729_" d="m475.001 336.189-158.622-158.621-45.254 45.254 158.797 158.798z" fill="#98a1b3"/></g><g id="XMLID_172_"><path id="XMLID_1317_" d="m36.999 366.636c-5.523 0-10 4.477-10 10v125.364c0 5.523 4.477 10 10 10s10-4.477 10-10v-125.364c0-5.523-4.477-10-10-10z"/><path id="XMLID_1319_" d="m189.126 452h-80c-5.523 0-10 4.477-10 10s4.477 10 10 10h80c5.523 0 10-4.477 10-10s-4.477-10-10-10z"/><path id="XMLID_1322_" d="m189.126 412h-80c-5.523 0-10 4.477-10 10s4.477 10 10 10h80c5.523 0 10-4.477 10-10s-4.477-10-10-10z"/><path id="XMLID_1334_" d="m482.072 329.118-158.621-158.622c-1.517-1.517-3.4-2.437-5.365-2.775l-31.69-75.323c-10.55-25.077-33.275-42.348-59.641-46.157-2.501-25.913-24.394-46.241-50.951-46.241h-53.611c-28.228 0-51.194 22.966-51.194 51.194v26.902c-27.597 18.773-44 49.672-44 83.176v125.364c0 5.523 4.477 10 10 10s10-4.477 10-10v-125.364c0-21.911 8.76-42.429 24-57.412v71.14c0 43.009 34.991 78 78 78 17.108 0 33.35-5.437 46.969-15.723 10.389-7.846 18.702-18.309 24.072-30.098l30.958 13.025v281.796c0 5.523 4.477 10 10 10s10-4.477 10-10v-265.161l151.776 151.776c1.953 1.953 4.512 2.929 7.071 2.929s5.119-.976 7.071-2.929c3.905-3.905 3.905-10.237 0-14.143l-151.651-151.65 31.113-31.113 151.552 151.551c3.905 3.904 10.237 3.904 14.143 0 3.904-3.905 3.904-10.237-.001-14.142zm-214.111-228.965 33.062 78.583-28.729 28.729-78.583-33.062c-21.086-8.872-34.711-29.386-34.711-52.263 0-31.264 25.435-56.7 56.699-56.7 22.876.001 43.39 13.626 52.262 34.713zm-118.963 132.847c-31.981 0-58-26.019-58-58v-123.806c.001-17.2 13.995-31.194 31.195-31.194h53.611c15.432 0 28.276 11.267 30.755 26.005-37.997 4.535-67.56 36.938-67.56 76.136 0 30.946 18.431 58.697 46.956 70.697l15.649 6.584c-9.396 20.111-29.979 33.578-52.606 33.578z"/><path id="XMLID_1338_" d="m37 321.64c-2.63 0-5.21 1.06-7.07 2.93-1.86 1.86-2.93 4.43-2.93 7.07 0 2.63 1.07 5.21 2.93 7.07s4.44 2.93 7.07 2.93 5.21-1.07 7.07-2.93 2.93-4.44 2.93-7.07-1.07-5.21-2.93-7.07c-1.86-1.87-4.44-2.93-7.07-2.93z"/></g></g></svg>