<svg height="512" viewBox="0 0 60 60" width="512" xmlns="http://www.w3.org/2000/svg"><g id="Page-1" fill="none" fill-rule="evenodd"><g id="045---Wisdom" fill-rule="nonzero"><g id="colour" transform="translate(12)"><path id="Shape" d="m36 24c-.000928 4.5438389-3.0651797 8.515865-7.46 9.67-.8282886.2221401-1.6824462.3331133-2.54.33-2.2785518.0041347-4.48907-.7762559-6.26-2.21l1.26-4.4c.0047093-.0365155.0047093-.0734845 0-.11 1.7444382 2.6673139 5.2698551 3.5053409 8.0279665 1.9083283 2.7581114-1.5970127 3.7863533-5.0717173 2.3414795-7.9124862-1.4448738-2.8407688-4.8586112-4.0561909-7.7736534-2.7677202-2.9150423 1.2884706-4.3140575 4.6311657-3.1857926 7.6118781-.1574289-.0816454-.3326824-.1228816-.51-.12h-3.78c-.1773176-.0028816-.3525711.0383546-.51.12 1.1660926-2.965159-.1888097-6.3246548-3.0857566-7.6511686-2.89694682-1.3265138-6.32551511-.1573722-7.80847941 2.662691-1.4829643 2.8200633-.50308305 6.3074413 2.23165531 7.9424171 2.73473836 1.6349759 6.2704873.8472881 8.0525807-1.7939395-.0047093.0365155-.0047093.0734845 0 .11l1.22 4.4c-1.7602604 1.4251097-3.9551757 2.2049751-6.22 2.21-.85755377.0031133-1.71171145-.1078599-2.54-.33-4.67670591-1.2308863-7.80248547-5.6320162-7.4240672-10.4531633.37841827-4.821147 4.15258912-8.6806906 8.9640672-9.1668367.33 0 .66-.05 1-.05h16c.34 0 .67 0 1 .05 5.1099105.5135653 9.0000645 4.8143467 9 9.95z" fill="#9c5126"/><path id="Shape" d="m27 14.05c-.33 0-.66-.05-1-.05h-3c.34 0 .67 0 1 .05 4.8114781.4861461 8.5856489 4.3456897 8.9640672 9.1668367.3784183 4.8211471-2.7473613 9.222277-7.4240672 10.4531633-.3292283.0882926-.6630665.1583986-1 .21.4833207.0735894.9711499.1136849 1.46.12.8575538.0031133 1.7117114-.1078599 2.54-.33 4.6767059-1.2308863 7.8024855-5.6320162 7.4240672-10.4531633-.3784183-4.821147-4.1525891-8.6806906-8.9640672-9.1668367z" fill="#763e1d"/><path id="Shape" d="m29 38.24c.0980545 5.0481227-1.6840362 9.9524362-5 13.76h-12c-3.32016592-3.8050861-5.10286693-8.7110793-5-13.76-.0015722-1.5349679.15254987-3.0661372.46-4.57.82828855.2221401 1.68244623.3331133 2.54.33 2.2785518.0041347 4.48907-.7762559 6.26-2.21l.66 2.4c.1335742.4863007.5756882.8233521 1.08.8233521s.9464258-.3370514 1.08-.8233521l.66-2.4c1.77093 1.4337441 3.9814482 2.2141347 6.26 2.21.8575538.0031133 1.7117114-.1078599 2.54-.33.3074501 1.5038628.4615722 3.0350321.46 4.57z" fill="#fddead"/><path id="Shape" d="m26 18c-1.9698531.0009799-3.8137462.9688078-4.9334491 2.5894829-1.1197028 1.620675-1.372566 3.6877244-.6765509 5.5305171.4440578.2023319.6949684.6794733.61 1.16 1.5708614 2.4060981 4.6270944 3.3606839 7.2881486 2.2763849 2.6610542-1.0842989 4.1797715-3.9030383 3.6216602-6.7218014s-3.0363473-4.8461111-5.9098088-4.8345835zm0 8c-1.1045695 0-2-.8954305-2-2s.8954305-2 2-2 2 .8954305 2 2-.8954305 2-2 2z" fill="#fdd900"/><circle id="Oval" cx="26" cy="24" fill="#627d8b" r="2"/><path id="Shape" d="m10 18c-2.87346146-.0115276-5.35169754 2.0158204-5.90980882 4.8345835s.96060606 5.6375025 3.62166026 6.7218014c2.66105416 1.084299 5.71728716.1297132 7.28814856-2.2763849-.0832303-.4722307.1578698-.9421716.59-1.15.6989643-1.8406407.4504029-3.9070759-.6651121-5.5294617-1.1155149-1.6223858-2.9560127-2.5942424-4.9248879-2.6005383zm0 8c-1.1045695 0-2-.8954305-2-2s.8954305-2 2-2 2 .8954305 2 2-.8954305 2-2 2z" fill="#fdd900"/><circle id="Oval" cx="10" cy="24" fill="#627d8b" r="2"/><path id="Shape" d="m21 27.28c.0047093.0365155.0047093.0734845 0 .11l-1.22 4.4-.66 2.4c-.1459208.4740889-.5839625.7975846-1.08.7975846s-.9340792-.3234957-1.08-.7975846l-.66-2.4-1.3-4.4c-.0047093-.0365155-.0047093-.0734845 0-.11-.0832303-.4722307.1578698-.9421716.59-1.15.1574289-.0816454.3326824-.1228816.51-.12h3.76c.1773176-.0028816.3525711.0383546.51.12.4477976.1946819.7069963.6678224.63 1.15z" fill="#fa9600"/><path id="Shape" d="m12 52c-.3 0-.6-.03-.9-.09-2.79120177-.3511292-5.31884267-1.8243828-7-4.08-3.54470043-5.005813-4.11792872-11.5329724-1.5-17.08 1.29293546 1.420922 2.97100299 2.4354059 4.83 2.92-.297378 1.5048913-.4414477 3.0360507-.43 4.57-.10286693 5.0489207 1.67983408 9.9549139 5 13.76z" fill="#8e5527"/><path id="Shape" d="m35 38c.0040346 3.5223927-1.0900474 6.9584394-3.13 9.83-1.6811573 2.2556172-4.2087982 3.7288708-7 4.08-.3.04-.6.07-.9.09 3.3159638-3.8075638 5.0980545-8.7118773 5-13.76.0015722-1.5349679-.1525499-3.0661372-.46-4.57 1.858997-.4845941 3.5370645-1.499078 4.83-2.92 1.0883722 2.262179 1.6556216 4.7396238 1.66 7.25z" fill="#8e5527"/><path id="Shape" d="m33.37 30.75c-.6594398.7204039-1.4208569 1.3403187-2.26 1.84 1.7297082 5.1462431.8973682 10.8091278-2.24 15.24-1.0507956 1.4440158-2.4751235 2.5744897-4.12 3.27-.25.31-.49.62-.75.9.3 0 .6-.03.9-.09 2.7912018-.3511292 5.3188427-1.8243828 7-4.08 3.5447004-5.005813 4.1179287-11.5329724 1.5-17.08z" fill="#6b411e"/><path id="Shape" d="m26 55c-.0203318 1.2222285-.7802049 2.3098917-1.9208408 2.7494431-1.140636.4395514-2.4338957.1430762-3.2691592-.7494431-.4383346 1.1723228-1.5584098 1.9493335-2.81 1.9493335s-2.3716654-.7770107-2.81-1.9493335c-.8352635.8925193-2.1285232 1.1889945-3.2691592.7494431-1.1406359-.4395514-1.900509-1.5272146-1.9208408-2.7494431 0 0 0-2.13 1.1-3.09.3.04.6.07.9.09h12c.3 0 .6-.03.9-.09 1.1.96 1.1 3.09 1.1 3.09z" fill="#9c5126"/><path id="Shape" d="m24.9 51.91c-.3.04-.6.07-.9.09h-2c.6530436.8634151 1.0043858 1.9174418 1 3-.0043565 1.0632814-.5712138 2.0448195-1.49 2.58.4494339.2724267.9644514.4175994 1.49.42 1.6568542 0 3-1.3431458 3-3 0 0 0-2.13-1.1-3.09z" fill="#763e1d"/><path id="Shape" d="m31.26 6.47-4.26 1.15-8.75 2.38c-.1642822.0398706-.3357178.0398706-.5 0l-8.75-2.38-4.26-1.15c-.4448894-.11149979-.75689508-.51135113-.75689508-.97s.31200568-.85850021.75689508-.97l13-3.5c.1642822-.03987056.3357178-.03987056.5 0l13 3.5c.4461147.10683143.7623317.50349169.7670606.96219525.0047289.45870357-.3032431.86179876-.7470606.97780475z" fill="#26aaf7"/><path id="Shape" d="m31.26 4.53-13.01-3.53c-.1642822-.03987056-.3357178-.03987056-.5 0l-1.25.34 11.76 3.19c.4448894.11149979.7568951.51135113.7568951.97s-.3120057.85850021-.7568951.97l-4.26 1.15-7.5 2 1.25.34c.1642822.03987056.3357178.03987056.5 0l8.75-2.34 4.26-1.15c.4448894-.11149979.7568951-.51135113.7568951-.97s-.3120057-.85850021-.7568951-.97z" fill="#1779be"/><path id="Shape" d="m27 7.62v6.43c-.33 0-.66-.05-1-.05h-16c-.34 0-.67 0-1 .05v-6.43l8.75 2.38c.1642822.0398706.3357178.0398706.5 0z" fill="#3e54b8"/><path id="Shape" d="m24 8.43v5.57h2c.34 0 .67 0 1 .05v-6.43z" fill="#263995"/></g><g id="outline" fill="#000"><path id="Shape" d="m22 21c-1.2133867 0-2.3072956.7309265-2.7716386 1.8519497s-.2076757 2.4113767.6503183 3.2693706c.8579939.857994 2.1483474 1.1146613 3.2693706.6503183s1.8519497-1.5582519 1.8519497-2.7716386c0-1.6568542-1.3431458-3-3-3zm0 4c-.5522847 0-1-.4477153-1-1s.4477153-1 1-1 1 .4477153 1 1-.4477153 1-1 1z"/><path id="Shape" d="m38 27c1.6568542 0 3-1.3431458 3-3s-1.3431458-3-3-3-3 1.3431458-3 3 1.3431458 3 3 3zm0-4c.5522847 0 1 .4477153 1 1s-.4477153 1-1 1-1-.4477153-1-1 .4477153-1 1-1z"/><path id="Shape" d="m59 51h-17c1.0415471-.6989862 1.9520767-1.5756671 2.69-2.59 2.155026-3.0433555 3.311634-6.6809053 3.31-10.41-.0008961-2.429216-.5012559-4.8323048-1.47-7.06 2.4465517-3.0122861 3.124867-7.0908207 1.7850155-10.7328367s-4.4996013-6.3085751-8.3150155-7.0171633v-4.8l2-.54v2.42c-.0107478 1.0286717.5063291 1.991114 1.37 2.55.1610428.112792.3533994.1722477.55.17.3345191-.0017306.6460165-.1706148.83-.45.3032166-.4562975.1828266-1.071624-.27-1.38-.2989299-.1975801-.4791163-.5316758-.48-.89v-3c.6306981-.36396079 1.0137421-1.04194874 1-1.77.0039831-.90756454-.6036371-1.70403969-1.48-1.94l-13.01-3.49c-.3279556-.08467777-.6720444-.08467777-1 0l-13 3.49c-.8897788.22299959-1.5137902 1.02270227-1.5137902 1.94s.6240114 1.71700041 1.5137902 1.94l3.52 1v4.8c-3.8154142.7085882-6.975164 3.3751473-8.3150155 7.0171633s-.6615362 7.7205506 1.7850155 10.7328367c-.9723678 2.2100685-1.4828115 4.5955422-1.5 7.01-.001634 3.7290947 1.154974 7.3666445 3.31 10.41.7379233 1.0143329 1.6484529 1.8910138 2.69 2.59h-17c-.55228475 0-1 .4477153-1 1s.44771525 1 1 1h20.32c-.1982022.6487626-.3058856 1.3217833-.32 2 0 2.209139 1.790861 4 4 4 .6646318.0003793 1.3184472-.1682363 1.9-.49.7596437.9315823 1.8979584 1.4721551 3.1 1.4721551s2.3403563-.5405728 3.1-1.4721551c.5815528.3217637 1.2353682.4903793 1.9.49 2.209139 0 4-1.790861 4-4-.0141144-.6782167-.1217978-1.3512374-.32-2h20.32c.5522847 0 1-.4477153 1-1s-.4477153-1-1-1zm-34.53 0c-2.9702922-3.5806144-4.5564903-8.1085535-4.47-12.76.0104291-1.1357253.1073763-2.2690052.29-3.39 2.553259.433262 5.1769055-.078669 7.38-1.44l.33 1.05c.2581483.9128677 1.0913335 1.5431118 2.04 1.5431118s1.7818517-.6302441 2.04-1.5431118l.29-1.05c2.2030945 1.361331 4.826741 1.873262 7.38 1.44.1692293 1.1220197.2528041 2.2552935.25 3.39.0838179 4.6510171-1.502064 9.1780535-4.47 12.76zm9.53-24c-.034229-.5658057-.2978929-1.0931334-.73-1.46-.1751673-.4947064-.2664243-1.0152094-.27-1.54 0-2.4522786 1.7784753-4.5426258 4.1990888-4.9354373s4.7688491 1.0278627 5.5443277 3.3542985c.7754786 2.3264357-.2507054 4.8719165-2.4228831 6.0100354s-4.8491662.5329263-6.3205334-1.4288966zm-2.1.05c.05 0 .08 0 .12.12l-1.89 6.8c0 .07-.2.07-.22 0l-1.91-6.97c.032-.0133333.068-.0133333.1 0zm-5.13-1.51c-.4470457.3596384-.725683.8879636-.77 1.46-1.4713672 1.9618229-4.1483557 2.5670155-6.3205334 1.4288966s-3.1983617-3.6835997-2.4228831-6.0100354c.7754786-2.3264358 3.1237142-3.74711 5.5443277-3.3542985s4.1990888 2.4831587 4.1990888 4.9354373c-.0026135.5068834-.0870327 1.0100216-.25 1.49zm16.29 21.71c-1.1671495 1.5654245-2.8030491 2.7179105-4.67 3.29 2.3904498-3.654065 3.6464873-7.9336389 3.61-12.3-.0001623-1.3032336-.1071876-2.6042595-.32-3.89 1.2081395-.4229901 2.332071-1.0560479 3.32-1.87.6603464 1.7655055.9990306 3.6350421 1 5.52.0014116 3.3133716-1.0258685 6.5454605-2.94 9.25zm-13.06-45.25 13 3.5-13 3.5-13-3.51zm-8 6.92 7.49 2c.3272876.0897828.6727124.0897828 1 0l7.49-2v4.08h-15.98zm0 6.08h16c4.9705627 0 9 4.0294373 9 9s-4.0294373 9-9 9c-1.8279821.0090943-3.6136287-.5500122-5.11-1.6l.57-2.08c2.5026228 2.1324557 6.1520774 2.2357597 8.7713218.2482871s3.5022586-5.5299966 2.1222903-8.5143183-4.6509473-4.6060142-7.8616705-3.8976747c-3.2107233.7083395-5.4957371 3.5557774-5.4919416 6.8437059.0013736.3348754.0281168.6691654.08 1h-2.16c.0518832-.3308346.0786264-.6651246.08-1 .0037955-3.2879285-2.2812183-6.1353664-5.4919416-6.8437059-3.2107232-.7083395-6.4817022.913353-7.8616705 3.8976747s-.4969541 6.5268457 2.1222903 8.5143183 6.268699 1.8841686 8.7713218-.2482871l.57 2.08c-1.4963713 1.0499878-3.2820179 1.6090943-5.11 1.6-4.9705627 0-9-4.0294373-9-9s4.0294373-9 9-9zm-5 32.25c-3.0775707-4.2859154-3.8269346-9.8199674-2-14.77.987929.8139521 2.1118605 1.4470099 3.32 1.87-.2128124 1.2857405-.3198377 2.5867664-.32 3.89-.0400553 4.3654172 1.2125285 8.6450784 3.6 12.3-1.8444719-.5790117-3.4560002-1.7316048-4.6-3.29zm20 7.75c-.0070987.8150792-.5081336 1.5443008-1.2664507 1.8432317-.7583172.2989308-1.6221757.1077541-2.1835493-.4832317-.2346162-.2586149-.5871381-.3761222-.93-.31-.3427734.0648077-.6269997.3035578-.75.63-.2946886.7769228-1.0390666 1.2907046-1.87 1.2907046s-1.5753114-.5137818-1.87-1.2907046c-.1230003-.3264422-.4072266-.5651923-.75-.63-.3428619-.0661222-.6953838.0513851-.93.31-.5613736.5909858-1.4252321.7821625-2.1835493.4832317-.7583171-.2989309-1.259352-1.0281525-1.2664507-1.8432317.0079963-.6953969.1756412-1.3796619.49-2h13c.3212971.6186692.4958064 1.3030194.51 2z"/></g></g></g></svg>