<svg height="512" viewBox="0 0 60 60" width="512" xmlns="http://www.w3.org/2000/svg"><g id="011---Peace-Symbol" fill="none"><path id="Shape" d="m48.12 7.36c-11.9538153-9.57844855-29.2956235-8.2082397-39.59688071 3.1286239-10.3012572 11.3368637-10.00902937 28.7302643.66724938 39.7146828 10.67627873 10.9844185 28.05432833 11.7712964 39.67963133 1.7966933 6.5504185-5.6203115 10.256975-13.8663107 10.1119837-22.4961926s-4.126461-16.746714-10.8619837-22.1438074zm-22.12 44.07c.0061522.3038091-.1261702.5939335-.3596106.7884672-.2334405.1945338-.5426702.2723694-.8403894.2115328-4.2277553-.9545762-8.0956498-3.0949268-11.15-6.17-.3746537-.3875966-.3746537-1.0024034 0-1.39l10.64-10.58c.2860905-.2884599.7182668-.3751619 1.0934815-.219371.3752147.155791.6188811.5231059.6165185.929371zm0-27.88c-.0011046.2623399-.1052558.5137394-.29.7l-15.19 15.19c-.2353703.2405474-.57595144.3465689-.90626675.2821171s-.60605716-.2907314-.73373325-.6021171c-2.68068339-6.2552379-2.46145727-13.3751423.59898822-19.4536075 3.06044548-6.0784651 8.64954478-10.49469285 15.27101178-12.0663925.3049429-.07890678.6292404-.00952489.8752035.1872456.2459631.19677048.38484.4979281.3747965.8127544zm20.35 22.68c-3.0613568 3.0657879-6.9263904 5.2045554-11.15 6.17-.2977192.0608366-.6069489-.016999-.8403894-.2115328-.2334404-.1945337-.3657628-.4846581-.3596106-.7884672v-16.4c.0016958-.4044441.2468472-.7680455.6211476-.9212679s.8040433-.0658935 1.0888524.2212679c4.94 4.92 2.57 2.56 10.62 10.55.3739058.3809391.3827094.9883853.02 1.38zm3.13-6.79-15.19-15.19c-.1847442-.1862606-.2888954-.4376601-.29-.7v-15c-.0100435-.3148263.1288334-.61598392.3747965-.8127544.2459631-.19677049.5702606-.26615238.8752035-.1872456 6.6466368 1.54972185 12.2617523 5.9712558 15.3270728 12.0690609 3.0653205 6.0978052 3.2642234 13.2420283.5429272 19.5009391-.1276761.3113857-.4034179.5376653-.7337333.6021171-.3303153.0644518-.6708964-.0415697-.9062667-.2821171z" fill="#ffdc00"/><path id="Shape" d="m11.92 52.67c-6.75641933-5.3847436-10.76010146-13.501575-10.92060572-22.1397985-.16050426-8.6382234 3.53888557-16.8981833 10.09060572-22.5302015l.16 8.69c-4.65338463 6.5495388-5.55183304 15.0525759-2.37 22.43.12767609.3113857.40341794.5376653.73373325.6021171s.67089645-.0415697.90626675-.2821171l1.13-1.13z" fill="#ef314c"/><path id="Shape" d="m20.15 9.21c-3.5555068 1.7035297-6.6184729 4.284681-8.9 7.5l-.16-8.71c2.6534886-2.29085406 5.7037018-4.0769233 9-5.27z" fill="#ff9801"/><path id="Shape" d="m21 57.56c-3.269903-1.0749384-6.3188224-2.7315179-9-4.89l-.27-14.36 8.84-8.84.14 8.45-7 6.92c-.3746537.3875966-.3746537 1.0024034 0 1.39.3.31.61.6.94.89 1.8526326 1.6683374 3.9676655 3.0197961 6.26 4z" fill="#ff9801"/><path id="Shape" d="m40.08 57.2c-3.2266396 1.1931281-6.6398327 1.8026269-10.08 1.8000085v-58.00005099c3.1206278-.00532542 6.2212713.49793805 9.18 1.49004249l-.18.51.11 5.89c-1.2440564-.54578997-2.5363237-.97431386-3.86-1.28-.3049429-.07890678-.6292404-.00952489-.8752035.1872456-.2459631.19677048-.38484.4979281-.3747965.8127544v15c.0011046.2623399.1052558.5137394.29.7l5.2 5.2.16 8.76-3.94-3.92c-.2782858-.2816918-.6965748-.3726482-1.0667078-.2319544-.3701331.1406939-.6223877.4865353-.6432922.8819544v16.43c-.0061522.3038091.1261702.5939335.3596106.7884672.2334405.1945338.5426702.2723694.8403894.2115328 1.6157308-.3584345 3.1857171-.8985367 4.68-1.61l.12 6.18z" fill="#60a917"/><path id="Shape" d="m59 30c.0046404 8.4622117-3.6972723 16.5019037-10.13 22v-2.93l-.23-10.47.84.84c.2353703.2405474.5759514.3465689.9062667.2821171.3303154-.0644518.6060572-.2907314.7337333-.6021171 3.2751353-7.6185143 2.1855952-16.4112936-2.85-23l-.1-5.87-.05-2.84c6.8697215 5.4864715 10.8729284 13.798277 10.88 22.59z" fill="#6a1b9a"/><path id="Shape" d="m56 30c.0108106 7.0252898-2.5421818 13.8131206-7.18 19.09l-.18-10.49.84.84c.2353703.2405474.5759514.3465689.9062667.2821171.3303154-.0644518.6060572-.2907314.7337333-.6021171 3.2751353-7.6185143 2.1855952-16.4112936-2.85-23l-.1-5.87c5.0289868 5.3465479 7.8293142 12.4099536 7.83 19.75z" fill="#9d27b0"/><path id="Shape" d="m48.17 10.18c-2.5922861-2.77466962-5.7090644-5.00773765-9.17-6.57v-.61l.18-.51c3.2493547 1.07080029 6.278144 2.72071125 8.94 4.87z" fill="#0377bc"/><path id="Shape" d="m48.27 16.07c-2.387277-3.139065-5.5416007-5.611559-9.16-7.18l-.11-5.28c3.45736 1.56339998 6.5706513 3.79640475 9.16 6.57z" fill="#02a9f4"/><path id="Shape" d="m48.87 52c-2.5969819 2.237968-5.5740472 3.9923705-8.79 5.18l-.08-.18v-1.07c3.3637877-1.6785395 6.3668201-3.9987557 8.84-6.83z" fill="#0377bc"/><path id="Shape" d="m48.82 49.1c-2.4673008 2.8291731-5.4633768 5.1492637-8.82 6.83l-.1-5.14c2.0125306-.9511322 3.8754922-2.1908607 5.53-3.68.32-.28.63-.58.94-.88.3746537-.3875966.3746537-1.0024034 0-1.39l-6.68-6.63-.16-8.76 9.15 9.15z" fill="#02a9f4"/><g id="Layer_2" fill="#000"><path id="Shape" d="m23.59 33.58-10.59 10.55c-.7622858.777687-.7622858 2.022313 0 2.8 3.183005 3.2193487 7.2228203 5.4579061 11.64 6.45.5984004.1286901 1.2227833-.0237196 1.6945918-.4136439.4718085-.3899244.7390896-.9744271.7254082-1.5863561v-16.38c.0271679-.8353348-.4679548-1.5994821-1.2414697-1.9160213s-1.6622969-.1187161-2.2285303.4960213zm1.41 17.84c-4.026786-.9129895-7.7124666-2.9482618-10.63-5.87l10.63-10.55z"/><path id="Shape" d="m24.52 6.63c-6.8945513 1.66128362-12.707412 6.2749489-15.89055098 12.6123243-3.18313901 6.3373755-3.41339531 13.7550731-.62944902 20.2776757.25867427.6173191.80900249 1.0643191 1.46624036 1.1909429.65723784.1266238 1.33424814-.0839165 1.80375964-.5609429l15.14-15.15c.385512-.3830923.5985168-.9065787.59-1.45v-15c-.0065756-.61116302-.2922488-1.18577099-.7755379-1.55993026-.483289-.37415927-1.111136-.50679273-1.7044621-.36006974zm-14.72 32.09c-2.55200255-5.9856374-2.33386345-12.7921777.5961693-18.6021243 2.9300328-5.8099466 8.2735926-10.0316696 14.6038307-11.5378757v15z"/><path id="Shape" d="m36.41 33.58c-.5731318-.5697322-1.4328156-.7385641-2.1788469-.4279-.7460313.310664-1.231794 1.0397698-1.2311531 1.8479v16.43c-.0136814.611929.2535997 1.1964317.7254082 1.5863561.4718085.3899243 1.0961914.542334 1.6945918.4136439 4.405728-1.008748 8.4370677-3.2410634 11.63-6.44.7688434-.7788944.7688434-2.0311056 0-2.81zm-1.41 17.85v-16.43l10.64 10.52c-2.920314 2.9313932-6.6081253 4.9797921-10.64 5.91z"/><path id="Shape" d="m35.48 6.64c-.5967167-.14752389-1.2281269-.01246078-1.7122745.36626759-.4841477.37872836-.7672505.9590505-.7677255 1.57373241v15c-.0004224.5330446.2119606 1.0442036.59 1.42l15.18 15.15c.470001.4589895 1.1354391.6578972 1.7802303.5321329.6447911-.1257642 1.1867053-.5601616 1.4497697-1.1621329 2.7839975-6.5212463 2.553627-13.9378076-.629734-20.2736981s-8.9963672-10.9475509-15.890266-12.6063019zm14.71 32.1-15.19-15.19v-15c6.3435498 1.5025379 11.6982919 5.7327056 14.6283584 11.5561887 2.9300665 5.823483 3.1356566 12.6444297.5616416 18.6338113z"/><path id="Shape" d="m30 0c-16.5685425 0-30 13.4314575-30 30s13.4314575 30 30 30 30-13.4314575 30-30c0-7.9564947-3.1607052-15.5871121-8.7867966-21.21320344-5.6260913-5.62609135-13.2567087-8.78679656-21.2132034-8.78679656zm0 58c-15.463973 0-28-12.536027-28-28s12.536027-28 28-28 28 12.536027 28 28-12.536027 28-28 28z"/></g></g></svg>