<svg id="Capa_1" enable-background="new 0 0 512.013 512.013" height="512" viewBox="0 0 512.013 512.013" width="512" xmlns="http://www.w3.org/2000/svg"><g><path d="m468.113 252.454-26.212-27.952c19.212 117.796-71.63 220.009-185.896 220.009-68.474 0-130.597-36.718-163.841-95.198l24.609-5.752c2.128-.497 2.919-3.111 1.424-4.705l-74.299-79.231c-1.494-1.594-4.154-.972-4.787 1.119l-31.48 103.957c-.633 2.091 1.235 4.084 3.362 3.586l26.866-6.28c40.455 83.342 124.703 136.499 218.146 136.499 154.173 0 275.2-144.639 234.512-305.349l-17.617 58.178c-.633 2.091-3.292 2.713-4.787 1.119z" fill="#698ed5"/><path d="m490.518 193.158-17.618 58.177c-.633 2.091-3.292 2.713-4.787 1.119l-9.715-10.36c-3.224 130.911-110.719 236.412-242.392 236.412-30.79 0-60.582-5.772-88.138-16.493 37.624 23.392 81.748 36.493 128.138 36.493 154.174.001 275.2-144.638 234.512-305.348z" fill="#4073c8"/><path d="m43.899 259.625 26.212 27.952c-19.212-117.796 71.63-220.009 185.895-220.009 68.474 0 130.597 36.718 163.841 95.198l-24.609 5.752c-2.128.497-2.919 3.111-1.424 4.705l74.299 79.231c1.494 1.594 4.154.972 4.787-1.119l31.481-103.957c.633-2.091-1.235-4.084-3.362-3.586l-26.866 6.28c-40.455-83.342-124.703-136.499-218.147-136.499-154.173 0-275.2 144.639-234.512 305.349l17.618-58.177c.633-2.092 3.293-2.714 4.787-1.12z" fill="#80cb8e"/><path d="m501.019 143.792-26.866 6.28c-27.125-55.88-73.937-98.19-130.008-120.006 68.508 42.593 115.466 119.303 115.319 213.163l8.651 9.225c1.494 1.594 4.154.972 4.787-1.119l31.481-103.957c.631-2.091-1.237-4.083-3.364-3.586z" fill="#66b49d"/><path d="m239.481 288.229-35.28 98.788c-1.637 4.584 1.761 9.406 6.629 9.406h22.487c2.406 0 4.646-1.229 5.938-3.259l95.521-150.039c4.356-6.843-.559-15.799-8.671-15.799h-36.093c-7.108 0-12.071-7.042-9.68-13.736l30.07-84.199c2.391-6.694-2.572-13.736-9.68-13.736h-61.773c-4.344 0-8.219 2.731-9.68 6.822l-53.049 148.54c-2.391 6.694 2.572 13.736 9.68 13.736h51.131c1.799 0 3.055 1.782 2.45 3.476z" fill="#f4dd45"/><path d="m270.401 119.392-30.07 84.199c-2.391 6.694 2.572 13.736 9.68 13.736h29.716c-.032-1.225.158-2.487.604-3.736l30.07-84.199c2.391-6.694-2.572-13.736-9.68-13.736h-29.716c.032 1.225-.158 2.487-.604 3.736z" fill="#eab14d"/><path d="m326.104 227.327h-29.709c.058 1.942-.441 3.948-1.62 5.799l-81.12 127.42-9.454 26.472c-1.637 4.584 1.761 9.406 6.629 9.406h22.487c2.406 0 4.646-1.229 5.938-3.259l95.521-150.039c4.355-6.843-.56-15.799-8.672-15.799z" fill="#eab14d"/><path d="m12.701 375.59 21.101-4.932c70.532 136.89 246.867 177.587 370.175 86.736 42.291-31.16 73.264-73.851 89.571-123.459 1.293-3.935-.848-8.173-4.783-9.467-3.933-1.29-8.173.848-9.467 4.783-31.803 96.75-121.537 161.755-223.292 161.755-90.792 0-171.795-50.685-211.399-132.274-1.531-3.153-5.042-4.826-8.454-4.028l-19.003 4.442c3.998-13.202 23.516-77.654 26.801-88.502 4.485 4.783 58.601 62.491 63.253 67.452l-16.746 3.915c-4.873 1.14-7.289 6.654-4.813 11.01 34.712 61.06 99.99 98.991 170.361 98.991 111.793 0 201.458-93.9 195.727-206.06l10.909 11.633c5.431 5.791 15.132 3.531 17.436-4.075l8.82-29.125c3.124 23.752 2.74 47.43-1.168 70.702-.686 4.085 2.069 7.953 6.154 8.639 4.063.684 7.95-2.051 8.639-6.154 5.754-34.263 4.331-69.314-4.227-104.219l13.264-43.801c2.3-7.6-4.508-14.87-12.248-13.063l-21.101 4.932c-62.728-121.74-211.898-170.075-333.77-109.044-103.209 51.683-159.754 167.815-130.724 286.349l-13.264 43.802c-2.295 7.582 4.488 14.877 12.248 13.062zm57.8-263.607c106.83-137.247 320.711-115.604 396.904 41.364 1.53 3.153 5.04 4.825 8.454 4.028l19.003-4.442c-39.803 131.437-2.071 6.838-26.801 88.502-7.108-7.58 19.633 20.936-63.253-67.452l16.746-3.915c4.873-1.14 7.289-6.654 4.813-11.01-34.712-61.06-99.99-98.991-170.361-98.991-82.24 0-156.324 52.021-184.347 129.446-1.41 3.895.605 8.195 4.5 9.605 3.895 1.409 8.196-.605 9.605-4.5 25.881-71.507 94.296-119.551 170.243-119.551 61.593 0 118.959 31.462 152.071 82.746l-14.546 3.4c-7.732 1.806-10.625 11.341-5.188 17.139l46.507 49.594c16.668 110.618-68.3 209.064-178.844 209.064-61.593 0-118.959-31.462-152.071-82.746l14.546-3.4c7.732-1.807 10.626-11.341 5.188-17.139l-46.507-49.594c-2.824-18.694-2.835-37.418-.028-55.69.629-4.094-2.18-7.923-6.274-8.552-4.092-.625-7.923 2.18-8.552 6.274-2.023 13.168-2.695 26.544-2.017 39.976l-10.922-11.644c-5.431-5.791-15.132-3.531-17.436 4.075l-8.789 29.024c-8.122-63.026 8.505-125.698 47.356-175.611z"/><path d="m185.9 292.253h44.18l-32.942 92.242c-3.378 9.457 3.649 19.429 13.692 19.429h22.487c4.997 0 9.582-2.517 12.264-6.731l35.754-56.161c2.225-3.494 1.195-8.13-2.299-10.354-3.493-2.225-8.13-1.196-10.354 2.299l-35.618 55.947h-21.579l35.06-98.172c2.346-6.571-2.536-13.499-9.513-13.499h-51.132c-1.926 0-3.264-1.9-2.617-3.713l53.047-148.54c.394-1.103 1.446-1.844 2.617-1.844h61.773c1.926 0 3.264 1.9 2.617 3.713l-30.069 84.199c-4.13 11.566 4.461 23.759 16.743 23.759h36.092c1.431 0 2.141.903 2.437 1.442.295.539.676 1.622-.092 2.829l-41.136 64.615c-2.225 3.494-1.195 8.13 2.299 10.354 3.493 2.223 8.13 1.195 10.354-2.299l41.136-64.615c3.486-5.476 3.711-12.412.588-18.102s-9.095-9.225-15.586-9.225h-36.092c-1.924 0-3.266-1.898-2.617-3.714l30.069-84.199c4.131-11.566-4.462-23.758-16.743-23.758h-61.773c-7.494 0-14.223 4.742-16.743 11.799l-53.047 148.539c-4.13 11.567 4.462 23.76 16.743 23.76z"/></g></svg>