<svg id="Capa_1" enable-background="new 0 0 512.002 512.002" height="512" viewBox="0 0 512.002 512.002" width="512" xmlns="http://www.w3.org/2000/svg"><g><g><path clip-rule="evenodd" d="m349.054 105.017c.34 18.056 15.358 33.08 33.379 33.391l63.302-1.134 1.133-63.325c-.34-18.028-15.358-33.051-33.379-33.363-15.755-.283-27.457 13.578-27.996 29.253-.255 7.143-.028 6.945-7.169 7.172-15.669.539-29.525 12.274-29.27 28.006z" fill="#ff9eb1" fill-rule="evenodd"/></g><g><path clip-rule="evenodd" d="m165.439 240.539c18.758-5.641 37.828-5.953 55.623-1.814 16.548 3.827 31.963 11.508 44.997 22.337 15.84 13.153 28.137 31.01 34.513 52.242 12.893 42.972-2.097 87.702-34.513 114.688 10.881 9.099 23.745 16.157 38.196 20.494 2.267.68 4.505 1.276 6.772 1.814 36.1-39.174 51.202-95.866 34.768-150.574-7.056-23.527-19.155-44.135-34.768-61-12.893-13.918-28.166-25.313-44.969-33.675-26.89-13.408-57.663-19.105-88.775-15.165-8.501 1.077-16.973 2.863-25.445 5.414-8.444 2.523-16.52 5.726-24.17 9.496-67.042 33.022-102.405 110.548-80.218 184.531 1.728 5.754 3.769 11.338 6.092 16.724 10.739-5.783 24.765-3.203 34.229 5.641 5.214 4.904 4.902 4.904 10.144 0 2.692-2.523 5.78-4.535 9.039-5.981-6.12-8.986-10.966-19.02-14.253-29.99-17.256-57.429 15.33-117.948 72.738-135.182z" fill="#faf7f5" fill-rule="evenodd"/></g><g><path clip-rule="evenodd" d="m311.027 238.725c17.795-4.139 36.893-3.827 55.651 1.814 57.38 17.234 89.966 77.753 72.737 135.182-1.275 4.252-2.805 8.362-4.534 12.33h.708c15.726-.283 27.457 13.578 27.996 29.253.198 6.576.057 6.916 5.61 7.115 6.432-10.771 11.674-22.535 15.443-35.092 24.737-82.43-22.017-169.31-104.388-194.028-39.5-11.877-79.991-7.313-114.192 9.751 16.804 8.362 32.077 19.757 44.969 33.675z" fill="#ebddd9" fill-rule="evenodd"/></g><g><path clip-rule="evenodd" d="m186.294 299.725c-16.435 54.708-1.332 111.399 34.768 150.574 12.609 13.634 27.741 25.171 44.997 33.732 7.792 3.855 16.01 7.115 24.624 9.723 38.905 11.679 78.773 7.398 112.662-9.014l-.992-54.736c-25.077 19.615-58.428 27.949-91.326 20.296-2.267-.539-4.505-1.134-6.772-1.814-14.451-4.337-27.315-11.395-38.196-20.494-32.444-26.985-47.434-71.715-34.541-114.688 6.376-21.231 18.673-39.089 34.541-52.242-13.034-10.828-28.449-18.51-44.997-22.337-15.613 16.866-27.712 37.473-34.768 61z" fill="#ebddd9" fill-rule="evenodd"/></g><g><path clip-rule="evenodd" d="m117.155 478.503c36.156 21.458 80.813 28.289 124.252 15.25 8.614-2.608 16.86-5.868 24.652-9.723-17.256-8.56-32.388-20.097-44.997-33.732-25.757 5.981-51.797 2.183-73.928-9.184-1.218 6.208-4.137 12.104-8.756 16.894z" fill="#faf7f5" fill-rule="evenodd"/></g><g><path clip-rule="evenodd" d="m47.28 458.009 45.564 43.993 24.312-23.499 21.223-20.494c4.619-4.79 7.537-10.686 8.756-16.894 2.068-10.63-.85-22.11-8.756-30.302-8.359-8.674-20.883-9.836-31.424-5.102-3.259 1.446-6.347 3.458-9.039 5.981-5.242 4.904-4.93 4.904-10.144 0-9.464-8.844-23.49-11.423-34.229-5.641-2.267 1.219-4.364 2.806-6.262 4.762-12.526 12.982-12.526 34.214-.001 47.196z" fill="#ff9eb1" fill-rule="evenodd"/></g><g><path clip-rule="evenodd" d="m403.345 484.739 63.302 1.134c18.021-.34 33.039-15.335 33.351-33.392.283-15.732-13.573-27.467-29.242-28.006-.567 0-1.077-.028-1.558-.057-5.554-.198-5.412-.539-5.61-7.115-.538-15.675-12.269-29.536-27.996-29.253h-.708c-17.71.68-32.359 15.562-32.671 33.363l.142 8.589z" fill="#ff9eb1" fill-rule="evenodd"/></g><g><path clip-rule="evenodd" d="m73.008 164.912 127.935-38.408-37.006-37.36-80.615 24.207z" fill="#99ebfa" fill-rule="evenodd"/></g><g><path clip-rule="evenodd" d="m127.668 204.795c7.651-3.77 15.726-6.973 24.17-9.496 8.472-2.551 16.945-4.337 25.445-5.414l23.66-63.381-127.935 38.408z" fill="#ccf5fc" fill-rule="evenodd"/></g><g><path d="m382.433 148.409c-.058 0-.115 0-.173-.001-23.382-.404-42.763-19.784-43.205-43.201-.317-19.587 15.895-36.2 36.583-38.044 1.806-21.036 18.119-36.903 38.03-36.573 23.374.404 42.756 19.771 43.197 43.172.002.123.002.246 0 .368l-1.134 63.325c-.097 5.382-4.437 9.723-9.819 9.819l-63.302 1.134c-.058 0-.118.001-.177.001zm63.302-11.134h.01zm-32.71-86.692c-10.429 0-17.211 10.114-17.537 19.6l-.022.626c-.149 4.286-.303 8.718-3.951 12.328-3.619 3.581-7.852 3.713-12.334 3.852l-.538.017c-9.542.328-19.762 7.246-19.59 17.849.24 12.702 10.719 23.245 23.394 23.551l53.463-.958.958-53.478c-.329-12.479-11.075-23.17-23.55-23.386-.099 0-.197-.001-.293-.001z"/></g><g><path d="m110.351 67.058c-4.302 0-8.276-2.798-9.575-7.131l-9.408-31.379c-1.586-5.29 1.417-10.864 6.707-12.45 5.289-1.585 10.864 1.417 12.45 6.707l9.408 31.379c1.586 5.29-1.417 10.864-6.707 12.45-.957.288-1.924.424-2.875.424z"/></g><g><path d="m41.263 93.249c-1.757 0-3.536-.463-5.15-1.436l-29.271-17.631c-4.731-2.85-6.256-8.995-3.406-13.726 2.849-4.732 8.995-6.256 13.726-3.406l29.271 17.631c4.731 2.85 6.256 8.995 3.406 13.726-1.878 3.116-5.185 4.842-8.576 4.842z"/></g><g><path d="m182.433 50.845c-1.446 0-2.913-.315-4.304-.979-4.983-2.381-7.093-8.351-4.712-13.334l14.735-30.84c2.381-4.983 8.354-7.092 13.334-4.712 4.983 2.381 7.093 8.351 4.712 13.334l-14.735 30.84c-1.716 3.591-5.298 5.691-9.03 5.691z"/></g><path d="m484.476 417.129c3.898-8.016 7.169-16.354 9.742-24.931 14.315-47.764 6.568-98.896-21.256-140.287-3.082-4.584-9.295-5.801-13.878-2.72-4.583 3.082-5.801 9.295-2.72 13.878 24.473 36.405 31.288 81.377 18.698 123.383-1.48 4.932-3.233 9.771-5.216 14.504-4.33-9.558-12.065-17.032-21.409-20.603.186-.587.382-1.175.558-1.76 18.784-62.616-16.853-128.843-79.436-147.631-17.898-5.382-36.82-6.438-55.081-3.142-7.858-7.922-16.558-15.065-26-21.329 28.594-9.79 59.531-10.444 88.919-1.609 4.599 1.37 9.238 3.012 13.789 4.881 5.107 2.099 10.951-.342 13.05-5.45s-.341-10.951-5.45-13.05c-5.167-2.122-10.442-3.989-15.655-5.542-38.948-11.711-80.322-8.756-117.073 8.244-23.406-10.839-48.608-15.973-73.932-15.246l18.186-48.719c1.363-3.652.479-7.765-2.264-10.535l-37.006-37.36c-2.601-2.626-6.439-3.604-9.98-2.54l-80.615 24.208c-3.54 1.063-6.205 3.992-6.93 7.616l-10.314 51.561c-.765 3.823.762 7.742 3.911 10.04l41.997 30.643c-24.373 15.092-44.486 36.367-58.439 62.299-20.986 39.003-25.532 83.846-12.8 126.271 1.05 3.495 2.234 6.963 3.515 10.383-.444.414-.879.842-1.304 1.283-16.247 16.84-16.247 44.242 0 61.082.082.085.166.169.251.251l45.563 43.993c1.938 1.871 4.441 2.806 6.946 2.806s5.011-.936 6.948-2.808l18.981-18.338c24.135 12.836 50.985 19.433 77.996 19.433 15.97 0 31.996-2.3 47.537-6.965 7.478-2.264 14.771-5.03 21.753-8.228 6.956 3.203 14.209 5.971 21.749 8.235 15.633 4.693 31.684 7.02 47.685 7.02 23.979 0 47.837-5.244 69.984-15.571l60.991 1.092c.06.001.12.001.18.001.063 0 .125 0 .188-.002 23.396-.441 42.758-19.828 43.161-43.209.287-15.916-10.377-29.879-25.52-35.532zm-323.416-316.68 21.063 21.264-96.043 28.834 5.871-29.346zm-65.894 68.252 89.367-26.83-14.554 38.986c-7.045 1.162-14.063 2.776-21.015 4.864-6.942 2.083-13.678 4.597-20.19 7.502zm-26.882 106.708c18.453-34.296 49.147-59.345 86.43-70.532 37.293-11.201 76.708-7.205 110.985 11.25 34.278 18.455 59.321 49.165 70.518 86.476 14.185 47.219 3.201 98.932-28.605 136.442-.16-.047-.322-.089-.482-.137-9.227-2.77-17.745-6.786-25.435-11.8 29.748-30.619 40.924-75.112 28.454-116.678-9.099-30.331-29.465-55.302-57.347-70.312-27.879-15.009-59.926-18.26-90.239-9.156-30.326 9.104-55.292 29.474-70.298 57.356-15.009 27.887-18.255 59.95-9.143 90.273 2.508 8.371 5.911 16.374 10.126 23.915-.134.11-.272.213-.405.324-9.715-8.145-22.133-11.206-33.432-9.166-.854-2.384-1.656-4.79-2.383-7.211-11.196-37.308-7.199-76.744 11.256-111.044zm197.788 139.046c-24.93-24.833-35.778-62.271-24.977-98.276 4.772-15.891 13.345-30.124 24.974-41.627 11.544 11.433 20.125 25.627 24.924 41.624 10.543 35.142.754 72.795-24.921 98.279zm-63.931 28.474c-15.146.846-30.365-1.825-44.396-7.864.163-11.277-3.886-22.609-12.169-31.195-8.886-9.212-21.87-12.527-34.247-9.997-3.799-6.594-6.835-13.639-9.05-21.031-7.576-25.213-4.878-51.865 7.598-75.046 12.475-23.179 33.228-40.111 58.439-47.68 11.098-3.333 22.476-4.671 33.715-4.061-11.265 15.245-19.757 32.263-25.314 50.795-15.57 51.863-4.433 105.499 25.424 146.079zm-109.3 45.17-38.476-37.15c-8.748-9.193-8.711-24.049.112-33.194 7.368-7.638 19.471-5.305 26.443 1.22l.433.407c3.123 2.943 6.353 5.986 11.479 5.986 5.111 0 8.349-3.034 11.479-5.967l.438-.41c6.982-6.535 19.073-8.867 26.433-1.237 8.822 9.145 8.859 24.001.111 33.194zm145.691-3.923c-34.663 10.404-72.063 7.406-104.534-8.03l11.329-10.945c.084-.082.167-.165.249-.249 2.994-3.104 5.432-6.568 7.322-10.257 13.971 5.556 28.84 8.394 43.777 8.394 7.031 0 14.075-.637 21.047-1.902 7.81 7.914 16.463 15.081 25.87 21.354-1.676.571-3.362 1.12-5.06 1.635zm55.027 0c-76.981-23.119-120.803-104.573-97.686-181.578 5.884-19.622 15.504-37.301 28.607-52.648 6.459 1.918 12.771 4.509 18.843 7.778 2.432 1.309 4.779 2.73 7.07 4.218-13.188 13.558-22.933 30.106-28.452 48.485-18.784 62.616 16.853 128.844 79.437 147.632 11.152 3.353 22.602 4.994 33.994 4.994 19.946-.001 39.699-5.05 57.32-14.752l.538 30.067c-31.514 13.621-66.66 15.713-99.671 5.804zm98.654-62.934c-.002.117-.002.234 0 .352l.061 3.429c-18.278 12.88-40.275 19.081-62.246 17.885 13.1-17.819 22.617-38.164 27.805-59.73 6.83-28.382 5.978-58.234-2.46-86.326-5.561-18.531-14.127-35.629-25.26-50.761 11.314-.609 22.73.732 33.69 4.027 52.027 15.619 81.65 70.676 66.034 122.732-.599 1.999-1.284 4.014-2.036 6.031-19.862 3.935-35.228 21.547-35.588 42.361zm74.412 54.629-53.455-.958-.957-53.485c.305-12.474 11.053-23.163 23.558-23.378.098-.002.194-.003.292-.003 10.42 0 17.204 10.115 17.529 19.574l.017.54c.133 4.309.271 8.765 3.896 12.392 3.627 3.629 8.083 3.768 12.392 3.901l.515.016c9.569.329 19.778 7.24 19.587 17.839-.219 12.697-10.689 23.232-23.374 23.562z"/><g><path d="m433.412 233.361c-1.496 0-3.015-.339-4.447-1.055l-.057-.028c-4.94-2.47-6.942-8.477-4.472-13.417 2.47-4.939 8.477-6.942 13.417-4.472s6.97 8.491 4.5 13.431c-1.754 3.508-5.277 5.541-8.941 5.541z"/></g></g></svg>