<svg id="Layer_1" enable-background="new 0 0 511.984 511.984" height="512" viewBox="0 0 511.984 511.984" width="512" xmlns="http://www.w3.org/2000/svg"><g><g><path d="m114.064 290.557c-12.099 10.63-30.085 13.334-45.43 8.443s-27.967-16.695-35.645-30.852c-1.824-3.363-12.247-34.75-2.877-32.719 2.256.489 6.708 10.648 8.72 12.777 3.496 3.701 7.747 6.697 12.448 8.662 3.96 1.656 8.308 2.611 12.562 2.041 8.864-1.187 15.609-8.651 19.836-16.532 10.886-20.297 19.486-47.531 47.911-45.755 10.335.646 20.295 5.91 26.65 14.085l9.509 9.785z" fill="#ffda71"/><path d="m294.5 177.491-14.893-5.741c-9.743-3.812-14.902-14.489-11.833-24.491l26.18-85.326c2.598-8.467 10.454-14.217 19.31-14.133l27.153-.001z" fill="#ffda71"/><path d="m468.3 101.531-64.47-32c-5.1-2.53-8.33-7.73-8.33-13.43v-28.87c0-5.52-4.48-10-10-10h-5.35c-24.24 0-45.62 15.87-52.64 39.07l-44.18 145.93h-103.09c-11 0-21.12 6.03-26.37 15.7l-84.01 154.91s15.14 41.63 59.14 38.89l51.59-96.15c1.6-2.98 5.61-3.52 7.98-1.12 10.57 10.66 25.03 16.77 40.23 16.77h48.4c15.2 0 29.66-6.11 40.23-16.77 2.37-2.4 6.38-1.86 7.98 1.12l51.59 96.15c21.19 2.06 61.75-33.49 61.75-33.49l-57.39-105.12c-3.19-5.86-4.86-12.43-4.86-19.11v-78.78c0-8.28 6.72-15 15-15h63.03c8.55 0 16.3-3.46 21.9-9.07 5.61-5.6 9.07-13.34 9.07-21.89 0-11.76-6.66-22.51-17.2-27.74z" fill="#cca581"/><path d="m438.75 378.241s-40.56 35.55-61.75 33.49l-4.26-7.94c18.19-9.93 36.01-25.55 36.01-25.55l-57.39-105.12c-3.19-5.86-4.86-12.43-4.86-19.11v-78.78c0-8.28 6.72-15 15-15h30c-8.28 0-15 6.72-15 15v78.78c0 6.68 1.67 13.25 4.86 19.11z" fill="#b58362"/><path d="m485.5 129.271c0 8.55-3.46 16.29-9.07 21.89-5.6 5.61-13.35 9.07-21.9 9.07h-30c8.55 0 16.3-3.46 21.9-9.07 5.61-5.6 9.07-13.34 9.07-21.89 0-11.76-6.66-22.51-17.2-27.74l-64.47-32c-5.1-2.53-8.33-7.73-8.33-13.43v-28.87c0-2.78-1.14-5.3-2.97-7.11 5.57-1.88 11.5-2.89 17.62-2.89h5.35c5.52 0 10 4.48 10 10v28.87c0 5.7 3.23 10.9 8.33 13.43l64.47 32c10.54 5.23 17.2 15.98 17.2 27.74z" fill="#b58362"/><path d="m268.499 257.234h-63c-8.284 0-15-6.716-15-15v-40h93v40c0 8.284-6.715 15-15 15z" fill="#ffb8d8"/><path d="m438.75 378.241s-40.56 35.55-61.75 33.49l-14.3-26.66 59.34-37.44z" fill="#ddd"/><path d="m438.75 378.241-21.791 15.045-17.229-31.575 22.31-14.08z" fill="#c4c4c4"/><path d="m143.34 385.001-14.34 26.73c-44 2.74-59.14-38.89-59.14-38.89l15.81-29.16z" fill="#ddd"/><path d="m256.254 494.749h-.51c-46.208 0-90.95-9.297-132.983-27.634-40.587-17.705-76.753-42.966-107.496-75.081-10.683-11.159-10.296-28.866.863-39.549 11.16-10.683 28.866-10.296 39.549.863 52.753 55.108 123.805 85.457 200.067 85.457h.51c76.262 0 147.314-30.349 200.068-85.458 10.682-11.159 28.389-11.545 39.549-.863 11.159 10.683 11.545 28.39.863 39.549-30.743 32.115-66.91 57.376-107.497 75.082-42.033 18.336-86.775 27.634-132.983 27.634z" fill="#ffbfa9"/><path d="m496.73 392.031c-30.74 32.12-66.91 57.38-107.49 75.08-42.04 18.34-86.78 27.64-132.99 27.64h-.51c-4.93 0-9.84-.11-14.74-.32 40.98-1.77 80.69-10.94 118.24-27.32 40.58-17.7 76.75-42.96 107.49-75.08 10.69-11.16 10.3-28.86-.86-39.55-1.35-1.3-2.81-2.43-4.33-3.4 10.61-6.76 24.84-5.68 34.33 3.4 11.16 10.69 11.55 28.39.86 39.55z" fill="#db968d"/></g><g><path d="m384 105.734v-11c0-4.143-3.357-7.5-7.5-7.5s-7.5 3.357-7.5 7.5v11c0 4.143 3.357 7.5 7.5 7.5s7.5-3.357 7.5-7.5z"/><path d="m501.059 347.067c-14.132-13.526-36.63-13.033-50.154 1.095-4.273 4.464-8.68 8.745-13.193 12.871l-49.762-91.493c-2.583-4.75-3.949-10.12-3.949-15.528v-16.935c0-4.143-3.357-7.5-7.5-7.5s-7.5 3.357-7.5 7.5v16.935c0 7.905 1.996 15.753 5.772 22.695l37.208 68.41-46.482 29.321-33.484-62.403c-1.893-3.525-5.247-5.876-9.203-6.449-3.913-.569-7.923.775-10.715 3.596-9.159 9.248-21.88 14.553-34.899 14.553h-13.395c-4.143 0-7.5 3.357-7.5 7.5s3.357 7.5 7.5 7.5h13.395c15.886 0 31.432-6.051 43.159-16.701l46.096 85.907c-34.148 15.309-71.479 23.366-110.198 23.366h-.51c-40.545 0-79.568-8.837-115.008-25.583l44.906-83.689c11.727 10.651 27.272 16.701 43.159 16.701 4.142 0 7.5-3.357 7.5-7.5s-3.358-7.5-7.5-7.5c-13.02 0-25.74-5.305-34.899-14.553-2.792-2.819-6.795-4.163-10.716-3.596-3.956.573-7.31 2.925-9.202 6.45l-33.212 61.895-45.349-32.488 65.042-119.935c3.939-7.263 11.518-11.774 19.779-11.774h2.755v32.5c0 12.406 10.093 22.5 22.5 22.5h63c12.406 0 22.5-10.094 22.5-22.5v-39.44l43.687-144.322c6.108-20.18 24.379-33.738 45.463-33.738h5.351c1.379 0 2.5 1.121 2.5 2.5v28.865c0 8.606 4.789 16.329 12.498 20.154l64.469 31.996c8.039 3.99 13.033 12.044 13.033 21.02 0 12.938-10.526 23.465-23.466 23.465h-63.035c-12.406 0-22.5 10.094-22.5 22.5v26.843c0 4.143 3.357 7.5 7.5 7.5s7.5-3.357 7.5-7.5v-26.843c0-4.136 3.364-7.5 7.5-7.5h63.034c21.21 0 38.466-17.255 38.466-38.465 0-14.713-8.187-27.915-21.365-34.455l-64.469-31.996c-2.569-1.275-4.166-3.85-4.166-6.719v-28.866c0-9.649-7.851-17.5-17.5-17.5h-5.351c-22.592 0-42.727 11.833-53.766 30.566h-13.048c-.087-.001-.171-.001-.257-.001-11.984 0-22.774 7.96-26.294 19.434l-26.18 85.326c-4.196 13.672 2.95 28.464 16.269 33.676l5.13 2.007-4.235 13.992h-97.523c-7.53 0-14.711 2.262-20.754 6.279-7.441-6.91-17.287-11.242-27.432-11.876-29.312-1.832-41.059 21.837-50.49 40.855-1.54 3.104-2.993 6.035-4.498 8.84-1.866 3.479-6.987 11.674-14.223 12.643-2.487.336-5.486-.194-8.674-1.527-3.606-1.507-6.985-3.851-9.783-6.781-.45-.613-1.51-2.494-2.219-3.754-3.368-5.98-5.801-10.302-10.47-11.314-4.097-.888-7.984.502-10.397 3.718-7.679 10.235 4.946 39.637 5.093 39.907 9.036 16.662 23.601 29.208 39.96 34.422 5.69 1.814 11.593 2.695 17.437 2.694 4.432 0 8.825-.519 13.066-1.51l-26.923 49.645c-2.999-2.864-5.953-5.794-8.842-8.812-6.552-6.844-15.376-10.728-24.849-10.935-9.464-.219-18.458 3.288-25.303 9.84s-10.728 15.377-10.935 24.85c-.207 9.474 3.288 18.459 9.839 25.304 31.434 32.836 68.414 58.665 109.916 76.769 42.985 18.752 88.736 28.26 135.981 28.26h.51c47.245 0 92.996-9.508 135.982-28.261 41.5-18.104 78.481-43.933 109.915-76.769 13.525-14.13 13.034-36.628-1.093-50.154zm-232.559-97.333h-63c-4.136 0-7.5-3.364-7.5-7.5v-32.5h78v32.5c0 4.136-3.364 7.5-7.5 7.5zm13.84-84.968c-6.054-2.369-9.303-9.092-7.396-15.307l26.18-85.326c1.612-5.253 6.597-8.85 12.14-8.833h6.71l-33.612 111.04zm90.268 222.922 46.554-29.366 6.94 12.761c-14.414 11.766-29.858 21.911-46.124 30.341zm-301.695-95.834c-12.703-4.049-24.122-13.993-31.289-27.204-.691-1.41-1.758-4.475-2.796-8.015 3.489 2.984 7.42 5.421 11.562 7.152 5.721 2.391 11.257 3.252 16.45 2.555 10.072-1.349 19.11-8.6 25.45-20.42 1.618-3.016 3.193-6.193 4.717-9.267 10.417-21.006 18.053-33.687 36.117-32.548 6.553.41 12.914 3.16 17.787 7.552-.574.875-1.126 1.768-1.63 2.698l-38.349 70.715c-9.7 8.395-24.589 11.06-38.019 6.782zm17.304 62.878 45.404 32.527-6.265 11.675c-16.25-8.836-31.649-19.395-45.969-31.608zm403.099 32.115c-30.053 31.395-65.406 56.088-105.077 73.394-41.083 17.922-84.816 27.009-129.984 27.009h-.51c-45.168 0-88.901-9.087-129.983-27.008-39.672-17.307-75.025-41.999-105.078-73.394-3.781-3.95-5.798-9.136-5.679-14.603.12-5.468 2.361-10.561 6.311-14.342 3.839-3.676 8.847-5.685 14.145-5.685.152 0 .306.002.458.006 5.467.119 10.56 2.36 14.342 6.311 54.181 56.599 127.157 87.77 205.484 87.77h.51c78.327 0 151.304-31.171 205.485-87.771 7.804-8.154 20.79-8.439 28.945-.632 8.154 7.807 8.437 20.791.631 28.945z"/></g></g></svg>