<svg height="512" viewBox="0 0 60 60" width="512" xmlns="http://www.w3.org/2000/svg"><g id="Page-1" fill="none" fill-rule="evenodd"><g id="011---Thanatophobia" fill-rule="nonzero" transform="translate(0 -1)"><path id="Shape" d="m44 28.12v6.88c.0013309 3.3678061-1.8777252 6.4545513-4.87 8-.6843364.3355497-1.1213904 1.0278742-1.13 1.79v.21c0 1.6568542-1.3431458 3-3 3h-10c-1.6568542 0-3-1.3431458-3-3v-.21c-.0086096-.7621258-.4456636-1.4544503-1.13-1.79-2.9922748-1.5454487-4.8713309-4.6321939-4.87-8v-6.77c4.76-3.69 10.76-6.2 14.07-6.23 3.27.03 9.2 2.49 13.93 6.12z" fill="#f5f5f5"/><path id="Shape" d="m30.07 22c-.5032216.0111035-1.0047806.0619282-1.5.152 3.389.583 8.354 2.839 12.432 5.968v6.88c.0013309 3.3678061-1.8777252 6.4545513-4.87 8-.685114.3349889-1.1230133 1.0274268-1.132 1.79v.21c0 1.6568542-1.3431458 3-3 3h3c1.6568542 0 3-1.3431458 3-3v-.21c.0086096-.7621258.4456636-1.4544503 1.13-1.79 2.9922748-1.5454487 4.8713309-4.6321939 4.87-8v-6.88c-4.73-3.63-10.66-6.09-13.93-6.12z" fill="#cfd8dc"/><path id="Shape" d="m36 49v1c0 2.209139-1.790861 4-4 4h-4c-2.209139 0-4-1.790861-4-4v-1c0-.5522847.4477153-1 1-1h10c.5522847 0 1 .4477153 1 1z" fill="#f5f5f5"/><path id="Shape" d="m35 48h-3c.5522847 0 1 .4477153 1 1v1c0 2.209139-1.790861 4-4 4h3c2.209139 0 4-1.790861 4-4v-1c0-.5522847-.4477153-1-1-1z" fill="#cfd8dc"/><g fill="#607d8b"><path id="Shape" d="m30 49c-.5522847 0-1-.4477153-1-1v-3c0-.5522847.4477153-1 1-1s1 .4477153 1 1v3c0 .5522847-.4477153 1-1 1z"/><path id="Shape" d="m26 49c-.5522847 0-1-.4477153-1-1v-3c0-.5522847.4477153-1 1-1s1 .4477153 1 1v3c0 .5522847-.4477153 1-1 1z"/><path id="Shape" d="m34 49c-.5522847 0-1-.4477153-1-1v-3c0-.5522847.4477153-1 1-1s1 .4477153 1 1v3c0 .5522847-.4477153 1-1 1z"/><path id="Shape" d="m28 51c-.5522847 0-1-.4477153-1-1v-2c0-.5522847.4477153-1 1-1s1 .4477153 1 1v2c0 .5522847-.4477153 1-1 1z"/><path id="Shape" d="m32 51c-.5522847 0-1-.4477153-1-1v-2c0-.5522847.4477153-1 1-1s1 .4477153 1 1v2c0 .5522847-.4477153 1-1 1z"/><path id="Shape" d="m51.1 38.21c-.4-3.68-3.38-7.24-7.1-10.09-4.73-3.63-10.66-6.09-13.93-6.12-3.31.03-9.31 2.54-14.07 6.23-3.91 3.03-6.98 6.86-7.01 10.77-.3-10.49 6.99-19.6 13.62-24.07h.01c2.78-1.88 5.44-2.93 7.38-2.93 1.8143747.1254631 3.5823442.629624 5.19 1.48 6.85 3.27 15.85 11.7 15.85 22.52 0 .79.02 1.52.06 2.21z"/></g><path id="Shape" d="m32.19 13.48c5.8 2.769 13.12 9.245 15.235 17.731 1.9340809 1.8862488 3.2206647 4.3368847 3.675 7-.04-.69-.06-1.42-.06-2.21 0-10.82-9-19.25-15.85-22.52-1.6075786-.850724-3.3755521-1.3552266-5.19-1.481-.512076.0065747-1.0219785.0679239-1.521.183 1.2848777.2807448 2.5309722.7162567 3.711 1.297z" fill="#37474f"/><path id="Shape" d="m59 49c0 3-1.99 7-7.96 7-5.59 0-8.15-2.22-8.45-2.5l-.03-.03c4.41-3.05 7.83-7.13 8.56-13.87.0233246-.2760645.0266667-.5534537.01-.83.87 12.75 7.87 9.29 7.87 10.23z" fill="#607d8b"/><path id="Shape" d="m51.13 38.77c.0166667.2765463.0133246.5539355-.01.83-.1990288 1.9923984-.7078189 3.9415235-1.508 5.777 2.319 4.74 6.388 2.906 6.388 3.623 0 2.769-1.7 6.382-6.657 6.924.533.046 1.094.076 1.7.076 5.967 0 7.957-4 7.957-7 0-.94-7 2.52-7.87-10.23z" fill="#37474f"/><path id="Shape" d="m28 54v5.02c-3.6365617-1.5918847-7.1438044-3.4641973-10.49-5.6-4.38-3.04-7.76-7.12-8.5-13.82-.01-.2-.02-.4-.02-.6.03-3.91 3.1-7.74 7.01-10.77v6.77c-.0013309 3.3678061 1.8777252 6.4545513 4.87 8 .6843364.3355497 1.1213904 1.0278742 1.13 1.79v.21c0 1.6568542 1.3431458 3 3 3-.5522847 0-1 .4477153-1 1v1c0 2.209139 1.790861 4 4 4z" fill="#3f51b5"/><path id="Shape" d="m51.13 38.77c.0166667.2765463.0133246.5539355-.01.83-.73 6.74-4.15 10.82-8.56 13.87-3.3733558 2.1367527-6.9034136 4.0154388-10.56 5.62v-5.09c1.060866 0 2.0782816-.4214274 2.8284271-1.1715729s1.1715729-1.7675611 1.1715729-2.8284271v-1c0-.5522847-.4477153-1-1-1 1.6568542 0 3-1.3431458 3-3v-.21c.0086096-.7621258.4456636-1.4544503 1.13-1.79 2.9922748-1.5454487 4.8713309-4.6321939 4.87-8v-6.88c3.72 2.85 6.7 6.41 7.1 10.09.0196927.1860211.0297062.3729397.03.56z" fill="#3f51b5"/><path id="Shape" d="m51.1 38.21c-.4-3.68-3.38-7.24-7.1-10.09v2.644c2.227 2.281 3.816 4.833 4.1 7.446.0196927.1860211.0297062.3729397.03.56.0166667.2765463.0133246.5539355-.01.83-.73 6.74-4.15 10.82-8.56 13.87-2.4096223 1.5848229-4.9370026 2.9829054-7.56 4.182v1.438c3.6565864-1.6045612 7.1866442-3.4832473 10.56-5.62 4.41-3.05 7.83-7.13 8.56-13.87.0233246-.2760645.0266667-.5534537.01-.83-.0002938-.1870603-.0103073-.3739789-.03-.56z" fill="#283593"/><path id="Shape" d="m46 60h-15.86c.61-.31 1.24-.61 1.86-.91 3.6565864-1.6045612 7.1866442-3.4832473 10.56-5.62l.03.03c1.6297993 1.8698698 2.7978074 4.0962781 3.41 6.5z" fill="#607d8b"/><path id="Shape" d="m42.59 53.5-.03-.03c-.643.443-1.32.85-2 1.255 1.1272011 1.595407 1.9540564 3.3829734 2.44 5.275h3c-.6121926-2.4037219-1.7802007-4.6301302-3.41-6.5z" fill="#37474f"/><path id="Shape" d="m30 60h-16c.6279383-2.4420882 1.8314917-4.6983222 3.51-6.58 3.3461956 2.1358027 6.8534383 4.0081153 10.49 5.6.67.32 1.34.65 2 .98z" fill="#607d8b"/><path id="Shape" d="m59 23.91c-6.341295-6.349151-14.8435787-10.0735869-23.81-10.43-1.6076558-.850376-3.3756253-1.3545369-5.19-1.48-1.94 0-4.6 1.05-7.38 2.93h-.01c-6.2876687 1.6649208-12.2437618 4.394374-17.61 8.07v-17.09c48-15 54 18 54 18z" fill="#9e9e9e"/><path id="Shape" d="m54.953 20.5c1.4193808 1.0504134 2.7710664 2.1893429 4.047 3.41 0 0-4.134-22.721-32.968-21.884 19.484.568 26.576 12.461 28.921 18.474z" fill="#707070"/><path id="Shape" d="m5 4 .00002771 56h-4.00002771v-56c.0032948-1.10320187.89679813-1.9967052 2-2 .53059053-.00282307 1.0395388.2101411 1.41.59.3798589.3704612.59282307.87940947.59 1.41z" fill="#a0522d"/><path id="Shape" d="m32 42c-.2651948-.0000566-.5195073-.1054506-.707-.293l-1.293-1.293-1.293 1.293c-.3923789.3789722-1.0160848.3735524-1.4018186-.0121814s-.3911536-1.0094397-.0121814-1.4018186l2-2c.3904999-.3903819 1.0235001-.3903819 1.414 0l2 2c.2859079.2859943.3714219.7160366.216678 1.0896546-.1547439.3736179-.5192821.6172591-.923678.6173454z" fill="#607d8b"/><path id="Shape" d="m22 32h4c.5522847 0 1 .4477153 1 1v2c0 1.6568542-1.3431458 3-3 3s-3-1.3431458-3-3v-2c0-.5522847.4477153-1 1-1z" fill="#607d8b"/><path id="Shape" d="m34 32h4c.5522847 0 1 .4477153 1 1v2c0 1.6568542-1.3431458 3-3 3s-3-1.3431458-3-3v-2c0-.5522847.4477153-1 1-1z" fill="#607d8b"/><path id="Shape" d="m32 54v5.09c-.62.3-1.25.6-1.86.91h-.14c-.66-.33-1.33-.66-2-.98v-5.02z" fill="#f5f5f5"/><path id="Shape" d="m58.172 47.8c-1.681 0-5.424-.007-6.044-9.065-.005-.124-.013-.248-.023-.373-.042-.731-.067-1.513-.067-2.362 0-9.135-6.187-16.711-12.4-21.049 7.06302 1.2515792 13.575814 4.6290357 18.668 9.681.3129794.2990023.7827987.3626993 1.1640925.157825.3812939-.2048743.5874924-.6318048.5109075-1.057825-1.7686254-7.4799383-6.4783152-13.93088655-13.064-17.894-9.93-6.007-23.697-6.419-40.917-1.266v-.572c0-1.65685425-1.34314575-3-3-3s-3 1.34314575-3 3v56c0 .5522847.44771525 1 1 1h4c.55228475 0 1-.4477153 1-1v-36.479c3.70684404-2.4667755 7.6887447-4.4927961 11.865-6.037-.347.329-.692.664-1.03 1.012-3.423 3.523-9.124 10.874-8.846 20.532.00606427.038547.0147511.0766354.026.114 0 .19-.01.382 0 .571.49196443 5.5890138 3.4327747 10.6735547 8.032 13.887-1.4125477 1.8277708-2.4389791 3.9235007-3.017 6.16-.0737619.2983583-.0062304.6140635.1831338.8561373s.4795252.3836252.7868662.3838627h32c.3080147-.0000081.5988398-.1419601.7883345-.3847868.1894947-.2428268.2565131-.5594308.1816655-.8582132-.3111849-1.2306707-.7628164-2.421488-1.346-3.549 1.7521275.5455754 3.5790151.8128261 5.414.792 6.191 0 8.962-4.018 8.962-8 0-1.2-1.328-1.2-1.828-1.2zm-8.054-9.186c.0245174.2933627.0285272.5880789.012.882-1.13 10.386-8.846 14.059-17.012 17.948l-.118.056v-2.6c2.3264168-.4784327 3.9970017-2.5248992 4-4.9v-1c-.0021901-.1742928-.0277514-.3475042-.076-.515 1.2754039-.6965221 2.0708272-2.0318065 2.076-3.485v-.21c.0097702-.3877082.2383609-.7364059.59-.9 3.327101-1.7150487 5.4155371-5.146878 5.41-8.89v-4.753c.587.521 1.147 1.056 1.659 1.607 1.474 1.588 3.151 3.913 3.439 6.438.002.108.013.214.02.322zm-28.787 3.5c-2.6629987-1.372067-4.3349147-4.1183174-4.331-7.114v-6.266c4.479-3.362 10.017-5.7 13.069-5.734 3.02.035 8.476 2.323 12.931 5.629v6.371c.0033682 2.9939462-1.6671253 5.738604-4.328 7.111-1.0165405.5077848-1.6624638 1.5427302-1.672 2.679v.21c0 1.1045695-.8954305 2-2 2h-10c-1.1045695 0-2-.8954305-2-2v-.21c-.0093388-1.1352437-.6539433-2.1695462-1.669-2.678zm3.669 6.886h10v1c0 1.6568542-1.3431458 3-3 3h-4c-1.6568542 0-3-1.3431458-3-3zm5.069 9.917c-.352-.175-.713-.345-1.069-.517v-3.4h2v3.467c-.309.15-.624.297-.931.45zm-26.069.083h-2v-55c0-.55228475.44771525-1 1-1s1 .44771525 1 1zm2-37.881v-14.471c16.91-5.164 30.315-4.867 39.849.882 5.0632602 3.0865426 8.9750142 7.747909 11.136 13.27-6.082243-5.0519199-13.6534766-7.9696885-21.553-8.306-1.6872525-.8698627-3.5372226-1.3786726-5.432-1.494-2.14 0-4.937 1.12-7.781 3-5.7338659 1.5430401-11.2018454 3.9430985-16.219 7.119zm12.269-1.229c3.942-4.057 8.766-6.89 11.731-6.89 1.6166262.1033911 3.1940557.54202 4.632 1.288.0854048.0587682.1795685.1036563.279.133 5.758 2.8 13.073 9.518 14.766 17.976-.4777445-.6646653-.9960635-1.2992053-1.552-1.9-1.0531756-1.1177509-2.1959832-2.1475153-3.417-3.079l-.006-.005c-4.843-3.739-10.934-6.306-14.482-6.413-.027 0-.054 0-.082 0h-.138c-.027 0-.055 0-.082 0-4.459.13-12.943 4.146-17.9 9.49-.332.358-.64.717-.931 1.077 1.4639612-4.3929436 3.9216982-8.388905 7.182-11.677zm-8.258 19.64c-.225-3.014 1.762-5.838 3.468-7.676.471-.507.986-1 1.521-1.48v4.626c-.0045475 3.7431373 2.0846056 7.1744902 5.412 8.889.3510203.1639812.5788332.5126745.588.9v.211c.0051728 1.4531935.8005961 2.7884779 2.076 3.485-.0482486.1674958-.0738099.3407072-.076.515v1c.0029983 2.3751008 1.6735832 4.4215673 4 4.9v2.535c-8.158-3.886-15.859-7.561-16.989-17.905zm7.683 15.214c2.5518488 1.5912602 5.2055739 3.0129941 7.944 4.256h-10.292c.5519207-1.5342489 1.3445002-2.9708835 2.348-4.256zm16.806 4.256c2.710489-1.2312352 5.33833-2.6368479 7.867-4.208.9807729 1.2729267 1.7536865 2.6931978 2.29 4.208zm16.538-4c-2.3485264.0800693-4.6775775-.4512811-6.759-1.542 3.1521233-2.2865647 5.530021-5.4819847 6.815-9.158 1.526 4.636 4.431 5.452 6.855 5.5-.325 2.553-2.261 5.2-6.911 5.2z" fill="#000"/><path id="Shape" d="m28 35v-2c0-1.1045695-.8954305-2-2-2h-4c-1.1045695 0-2 .8954305-2 2v2c0 2.209139 1.790861 4 4 4s4-1.790861 4-4zm-6 0v-2h4v2c0 1.1045695-.8954305 2-2 2s-2-.8954305-2-2z" fill="#000"/><path id="Shape" d="m36 39c2.209139 0 4-1.790861 4-4v-2c0-1.1045695-.8954305-2-2-2h-4c-1.1045695 0-2 .8954305-2 2v2c0 2.209139 1.790861 4 4 4zm-2-6h4v2c0 1.1045695-.8954305 2-2 2s-2-.8954305-2-2z" fill="#000"/></g></g></svg>