<svg height="512" viewBox="0 0 64 64" width="512" xmlns="http://www.w3.org/2000/svg"><g id="shalat"><path d="m21 50-2 6h-4l1.32-4a3 3 0 0 1 2.84-2z" fill="#e1b872"/><path d="m42 56h-23c1.95-5.85 1.56-4.66 2-6h5a9 9 0 0 1 -9-9v-9.21a8.5 8.5 0 0 1 9.07-8.48 8.64 8.64 0 0 1 7.84 7.54l-1.91 1.91-5.76-5.76a3 3 0 1 0 -4.24 4.24l5.76 5.76a6 6 0 0 0 6.24 1.41v4.24l8.58.83c7.63.72 6.96 12.52-.58 12.52z" fill="#d5d2bd"/><path d="m32 17.5a5.5 5.5 0 0 1 -11 0v-4a5.51 5.51 0 0 1 9.39-3.89c2.03 2.03 1.61 4.2 1.61 7.89z" fill="#e1b872"/><path d="m30.5 16a5.51 5.51 0 0 1 -8.57 4.57c-1.23-1.86-.93-3.37-.93-7.07a5.51 5.51 0 0 1 8.57-4.57c1.23 1.86.93 3.37.93 7.07z" fill="#ecce93"/><path d="m40 51h-19.33l.33-1h5a8.88 8.88 0 0 1 -4.11-1h18.11a1 1 0 0 1 0 2z" fill="#c1bdab"/><path d="m53 57h-45a1 1 0 0 1 0-2h45a1 1 0 0 1 0 2z" fill="#5d8977"/><path d="m43.12 30.12c-7.4 7.4-7.45 7.72-9.12 8.29a6 6 0 0 1 -6.24-1.41l-5.76-5.76a3 3 0 1 1 4.24-4.24l5.76 5.76 6.88-6.88c.62.62.6.52.5.62 7.12 7.12 1.34 1.22 3.74 3.62z" fill="#e7e4cd"/><path d="m47.32 23.5c0 1.64-1 2.17-4.88 6.06l-3.06-3.06 5-5c1.16-1.18 2.94.09 2.94 2z" fill="#ecce93"/><g fill="#112644"><path d="m39 44.13-5.11-.48a1 1 0 0 1 -.9-1v-4.24c0-1.15 1.1-.69 2.53-2.12l6.18-6.17-2.83-2.83c-4.56 4.57-4.5 4.77-5.29 4.51a1 1 0 0 1 -.67-.81 7.64 7.64 0 0 0 -6.91-6.68 7.5 7.5 0 0 0 -8 7.48c0 1.61-2 1.63-2 0a9.46 9.46 0 0 1 18.47-2.91l3.7-3.71a1 1 0 0 1 1.42 0l4.24 4.24a1 1 0 0 1 0 1.42l-6.83 6.88c-2.36 2.36-2-.16-2 4l4.1.39a1 1 0 0 1 -.1 2.03z"/><path d="m42 57c-29.52 0-27.38.18-27.81-.42s-.19-.58 1.18-4.85a4 4 0 0 1 3.79-2.73h.84c-4.41-3.31-4-7.62-4-11a1 1 0 0 1 2 0v3a8 8 0 0 0 8 8 1 1 0 0 1 0 2h-6.84a2 2 0 0 0 -1.89 1.36l-.88 2.64h25.61a5 5 0 0 0 5-5v-.55a5 5 0 0 0 -4.22-4.93 1 1 0 0 1 -.84-1.14c.35-2.29 7.06.41 7.06 6.07 0 4.85-3.4 7.55-7 7.55z"/><path d="m26.5 24a6.51 6.51 0 0 1 -6.5-6.5v-4c0-1.69.9-4.64 2.35-3.73a1 1 0 0 1 .32 1.38c-.88 1.4-.67 2.4-.67 6.35a4.5 4.5 0 0 0 9 0v-4a4.5 4.5 0 0 0 -5.86-4.29 1 1 0 0 1 -.58-1.92 6.51 6.51 0 0 1 8.44 6.21v4a6.51 6.51 0 0 1 -6.5 6.5z"/><path d="m40 51h-14a1 1 0 0 1 0-2h14a1 1 0 0 1 0 2z"/><path d="m19 57a1 1 0 0 1 -.95-1.32l2-6a1 1 0 0 1 1.9.64c-2.13 6.39-1.95 6.68-2.95 6.68z"/><path d="m27.05 37.71-5.88-5.88a1 1 0 0 1 1.42-1.42l5.88 5.88a4.94 4.94 0 0 0 5.2 1.18 1 1 0 0 1 .66 1.88 7 7 0 0 1 -7.28-1.64z"/><path d="m32 33.76c-.59 0-.3.11-6.59-6.17a1 1 0 0 1 1.42-1.42l5.17 5.18 1.2-1.21a1 1 0 0 1 1.42 1.42c-2.09 2.08-2.08 2.2-2.62 2.2z"/><path d="m42.44 30.56c-.55 0-.43 0-3.77-3.35a1 1 0 0 1 0-1.42l5-5a2.57 2.57 0 0 1 3.54 0 3.84 3.84 0 0 1 0 5.42c-4.46 4.46-4.21 4.35-4.77 4.35zm-1.65-4.06 1.65 1.65 3.35-3.36c1.06-1.06.32-2.73-.35-2.73-.3 0 0-.21-4.65 4.44z"/><path d="m53 57h-45a1 1 0 0 1 0-2h45a1 1 0 0 1 0 2z"/></g></g></svg>