<svg id="icons" height="512" viewBox="0 0 340 340" width="512" xmlns="http://www.w3.org/2000/svg"><path d="m102.705 213.502h10.626v39.067h-10.626z" fill="#94a6c1" transform="matrix(.625 -.781 .781 .625 -141.426 171.788)"/><path d="m93.625 231.43c-6.278 7.141-20.937 4.517-32.743-5.862s-16.287-24.58-10.01-31.721l9.6-10.916 42.753 37.584z" fill="#94a6c1"/><ellipse cx="81.844" cy="201.723" fill="#ecf7ff" rx="17.216" ry="28.462" transform="matrix(.66 -.751 .751 .66 -123.697 130.006)"/><path d="m141.971 232.883-13.421-.983a14.472 14.472 0 0 0 -15.469 13.115 14.494 14.494 0 0 0 11.905 15.573 80.55 80.55 0 0 0 20.51.978z" fill="#ffdcd2"/><path d="m190.464 216.949s-5.773 19.167-48.493 15.934v41.334s38.1 6.928 58.192-12.7z" fill="#525c68"/><path d="m192.741 122.7s-19.788 15.2-15.426 57.305c0 0 4.183 21.182 8.472 38.148 7.686 30.4 3.315 99.16 3.315 99.16h102.709s8.27-175.977-99.07-194.613z" fill="#80919b"/><path d="m258.253 167.77-32.253 15.161s22.065 28.718-2.132 49.77l-10.237-15.752c-7.453 7.878 0 22.636 0 22.636l11.369 22.161c6.9 13.454.359 30.118-14.009 34.833a75.273 75.273 0 0 1 -21.093 3.236c-.357 10.5-.8 17.493-.8 17.493h102.713s4.297-91.508-33.558-149.538z" fill="#525c68"/><path d="m238.749 144.809-56 16.457s14.61 29.627 57.782 22.59c9.88-1.61 16.888-5.046 21.832-9.383a118.25 118.25 0 0 0 -23.614-29.664z" fill="#525c68"/><path d="m224.4 171.349s44.282 37.268 4.165 68.616l22.135 38.583s74.1-53.051 8.875-127.36z" fill="#80919b"/><path d="m269.931 164.446a141.162 141.162 0 0 0 -10.354-13.258l-35.177 20.161a75.112 75.112 0 0 1 11.659 13.109c1.459-.161 2.944-.352 4.475-.6 16.734-2.73 25.245-10.689 29.397-19.412z" fill="#525c68"/><path d="m178.971 156.331s9.814 19.205 44.419 19.567c22.785.239 33.238-10.048 37.72-17.1a11.1 11.1 0 0 0 -.116-12.075c-4.241-6.39-13.235-16.864-29.814-24.088-20.116-8.765-28.629-18.5-28.629-18.5s-19.444 13.787-23.58 52.196z" fill="#80919b"/><path d="m107.338 150.224 8.785-7.477a3.551 3.551 0 0 1 5.28.778c1.593 2.442 4.24 5.216 8.081 5.306 0 0 6.582.481 6.34-7.864a31.73 31.73 0 0 1 3.289-14.764l6 2.646s-2.982 5.681-.542 14.044c2.106 7.216 1.851 23.669-13.8 26.8-14.551 2.91-21.84-7.352-24.746-13.208a5.2 5.2 0 0 1 1.313-6.261z" fill="#e86d55"/><path d="m113.7 98.217s11.8 24.478 26.387 34.4c8.455 5.753 24.082 7.4 34.88 1.218l10.825-18.829-24.94-41.089z" fill="#ffdcd2"/><path d="m149.741 92.826s8.214-5.133 16.728-9.652l-5.617-9.257-31.121 16.036-16.031 8.264s3.86 7.09 6.935 12.251c7.999-3.308 19.254-8.901 29.106-17.642z" fill="#fc9d9a"/><path d="m134.39 82.781s8.445 17.8 32.873 18.263a14.237 14.237 0 0 1 8.594 3.044l6.368 5.052a49.155 49.155 0 0 0 -1.866-47.94z" fill="#fa8c6f"/><path d="m155.758 165.544c1.9-9.755 11.533-52.71 37.172-71.66l9.621 10.252s-20.977 31.544-25.236 75.864c0 0-5.106-6.924-10.469-8.817-3.5-1.235-7.307-2.409-9.532-3.076a2.228 2.228 0 0 1 -1.556-2.563z" fill="#80919b"/><path d="m134.39 82.781a30.311 30.311 0 0 0 12.3 12.617c6.935-6.348 24.894-9.246 33.947-6.19a53.979 53.979 0 0 0 6.767 1.8 48.888 48.888 0 0 0 -7.045-29.808z" fill="#c16050"/><path d="m164.164 71.81s13.5 13.715 33.426 12.734a6.971 6.971 0 0 0 4.091-12.409 46.654 46.654 0 0 0 -17.786-8.9z" fill="#525c68"/><path d="m107.977 84.966s-8.507-39.143 27.349-48.84c37.488-10.138 48.574 27.114 48.574 27.114s-13.628 14.924-40.06 21.726c0 0-24.781 6.873-35.863 0z" fill="#80919b"/><path d="m107.977 84.966s12.9 3.87 35.863 0c0 0-23.221 18.322-46.235 22.718a5.947 5.947 0 0 1 -5.514-9.815 68.3 68.3 0 0 1 15.886-12.903z" fill="#525c68"/><path d="m143.84 84.966c26.432-6.802 40.06-21.726 40.06-21.726s-4.4-14.79-17.04-23.195c-2.687 12.529-3.972 40.549-57.934 45.451 11.474 5.967 34.914-.53 34.914-.53z" fill="#525c68"/><path d="m145.5 261.566-3.525-28.683-8.632-.633c.248 7.458-2.1 18.619-16.92 23.365a14.516 14.516 0 0 0 8.567 4.973 80.55 80.55 0 0 0 20.51.978z" fill="#fc9d9a"/><g fill="#313844"><path d="m137.15 103.455-3.319 2.481a4 4 0 0 0 2.4 7.2c2.509 0 5.711-3.278 5.711-3.278a4 4 0 0 0 -4.791-6.407z"/><circle cx="169.495" cy="158.984" r="4"/><path d="m287.664 232.262c4.872-17.628 4.428-40.3-11.737-65.991a4 4 0 0 0 -6.117-.795 4.151 4.151 0 0 0 -.535 5.247c16.007 25.548 17.468 50.789 4.343 75.027a98.443 98.443 0 0 1 -21.778 26.744l-18.128-31.588c9.476-8.211 14.7-17.534 15.54-27.753 1.135-13.788-6.077-26.261-12.473-34.425 15.985-3.164 24.046-12.026 27.707-17.787a15.1 15.1 0 0 0 -.159-16.432c-5.027-7.572-14.579-18.149-31.549-25.543-18.895-8.233-27.145-17.383-27.217-17.464-.014-.016-.032-.027-.046-.043s-.03-.041-.048-.06l-9.621-10.252a3.991 3.991 0 0 0 -4.372-.972c.039-.592.066-1.184.085-1.776 1.311.117 2.646.195 4.021.195q1.089 0 2.207-.054a10.973 10.973 0 0 0 6.419-19.508 50.233 50.233 0 0 0 -17.248-9.069c-2.741-6.958-13.2-28.582-37.483-29.563a15.137 15.137 0 0 0 1.4-8.1 4.056 4.056 0 0 0 -3.621-3.593 3.993 3.993 0 0 0 -4.327 4.518c.128 1.152.313 6.99-8.449 8.992l-.046.012c-9.369 2.12-12.378-2.722-12.717-3.335a4 4 0 0 0 -7.143 3.6 15.416 15.416 0 0 0 5.932 5.9c-18.937 12.8-17.891 36.4-16.883 44.554a71.859 71.859 0 0 0 -14.5 12.233 9.96 9.96 0 0 0 7.31 16.619 10.212 10.212 0 0 0 1.924-.184 82.2 82.2 0 0 0 14.376-4.263c3.2 7.351 9.334 18.008 19.942 25.178a34.5 34.5 0 0 0 -.846 8.555 4.638 4.638 0 0 1 -.751 3.231 2.115 2.115 0 0 1 -1.352.521h-.045c-.015 0-.024 0-.1 0-3.944-.092-6.245-6.249-6.261-6.294a4.017 4.017 0 0 0 -4.446-2.646 4.1 4.1 0 0 0 -2.01.975l-15 12.769a3.977 3.977 0 0 0 -1.251 4.155c2.241 7.567 10.227 20.41 25.238 20.41a29.078 29.078 0 0 0 5.708-.586 21.049 21.049 0 0 0 14.354-9.669c4.171-6.864 4.264-16.077 2.507-22.164a19.17 19.17 0 0 1 -.551-2.716 49.356 49.356 0 0 0 10.609 1.144 175.259 175.259 0 0 0 -7.027 26.686 4 4 0 0 0 2.844 4.489c.059.017 6.045 1.74 11.227 3.57 3.005 1.061 6.5 4.829 8.063 6.757.86 4.287 4.573 22.553 8.332 37.417.159.63.311 1.284.46 1.948-4.8 3.982-16.025 9.641-40.1 7.817h-.01l-13.421-.984a18.245 18.245 0 0 0 -7.889 1.19l-12.269-9.816c1.792-4.093 1.86-9.131.128-14.619-2.107-6.678-6.71-13.381-12.961-18.876s-13.487-9.2-20.38-10.434c-7.614-1.365-14.011.389-18.007 4.935l-9.595 10.916c-7.855 8.935-3.3 25.348 10.373 37.367 6.25 5.494 13.487 9.2 20.38 10.433a27.61 27.61 0 0 0 4.864.452 17.909 17.909 0 0 0 10.718-3.19l14.9 11.924a18.405 18.405 0 0 0 15.171 16.333 82.8 82.8 0 0 0 13.694 1.272v8.42a4 4 0 0 0 3.284 3.936 99.178 99.178 0 0 0 16.279 1.259 91.88 91.88 0 0 0 19.84-2.053 4.119 4.119 0 0 0 3.317-4.025 4.005 4.005 0 0 0 -4.887-3.823c-12.034 2.727-24.176 1.879-29.833 1.225v-33.612c19.18.842 30.881-2.938 37.949-7.339 4.58 32.545 1.229 86.655 1.19 87.263-.006.086.009.168.009.254h7.991c.325-5.24 4.151-70.095-3.444-100.14-3.817-15.095-7.6-33.8-8.309-37.347.437-4.38 1.046-8.63 1.781-12.74 6.918 5.786 19.444 12.6 40.21 12.817h.809c1.062 0 2.09-.029 3.1-.072 5.96 6.622 15.13 19.164 14.019 32.668-.627 7.62-4.524 14.755-11.584 21.261l-5.218-9.42a4.1 4.1 0 0 0 -4.748-2.02 4.006 4.006 0 0 0 -2.323 5.766l7.656 13.819c0 .01.013.018.018.028l.011.024 22.142 38.583a4 4 0 0 0 5.8 1.261 103.654 103.654 0 0 0 27.478-31.976q.995-1.822 1.946-3.784a360.494 360.494 0 0 1 5.36 71.081c0 .063.01.123.01.187h7.989a360.214 360.214 0 0 0 -7.706-83.933 3.94 3.94 0 0 0 -.443-1.109zm-197.043-3.473c-2.8 3.187-7.838 2.835-10.589 2.343-5.477-.981-11.339-4.023-16.509-8.568-9.786-8.6-14.294-20.789-9.647-26.076l.3-.341c1.532 7.2 6.256 15 13.661 21.51 6.25 5.494 13.488 9.2 20.38 10.434.921.165 1.823.28 2.706.354zm-.994-8.573c-5.476-.98-11.338-4.023-16.508-8.568-9.786-8.6-14.294-20.788-9.647-26.076 1.845-2.1 4.658-2.662 7.151-2.662a19.8 19.8 0 0 1 3.438.32c5.477.98 11.339 4.023 16.509 8.568s8.938 9.969 10.612 15.274c.842 2.666 1.835 7.616-.966 10.8s-7.838 2.836-10.589 2.344zm20.9 18.866-10.745-8.6 4.17-4.743 10.048 8.045a18.525 18.525 0 0 0 -3.474 5.298zm27.444 18.718a74.83 74.83 0 0 1 -12.276-1.147 10.473 10.473 0 0 1 2.563-20.763l9.713.711zm61.185-182.563a2.888 2.888 0 0 1 1 3.259 2.955 2.955 0 0 1 -2.758 2.053 40.976 40.976 0 0 1 -21.805-5.376 76.432 76.432 0 0 0 9.454-7.439 42.175 42.175 0 0 1 14.109 7.503zm-62.788-35.249h.017c28.483-7.69 39.946 14.8 42.881 22.179-4.261 3.887-16.565 13.766-36.285 18.89-16.048 2.679-26.965 1.416-31.5.592-1.088-8.255-2.246-34.321 24.887-41.661zm-39.514 63.767a1.947 1.947 0 0 1 -1.8-3.2 63.875 63.875 0 0 1 13.11-11.005c4.137 1.837 9.192 2.491 14.231 2.491 1.244 0 2.485-.041 3.711-.111-8.231 4.763-18.815 9.832-29.252 11.825zm42.215 56.036c-1.938 3.188-4.909 5.145-9.085 5.98-12.673 2.534-18.674-7.2-20.784-11.879l9.116-7.759c2.339 3.372 6.01 6.559 11.028 6.695a10.184 10.184 0 0 0 7.234-2.705c1.559-1.492 3.388-4.312 3.245-9.272q-.021-.741 0-1.457a27.251 27.251 0 0 0 .9 4.608c.889 3.062 1.677 10.303-1.654 15.789zm-18.994-55.62a153.2 153.2 0 0 0 25.579-15.552 101.3 101.3 0 0 0 22.227-8.784 53.638 53.638 0 0 0 15.685 7.149 46.165 46.165 0 0 1 -1.232 10.384 4.059 4.059 0 0 0 -.093.7q-1.611 1.7-3.124 3.5l-.774-.614a18.341 18.341 0 0 0 -11-3.91 37.875 37.875 0 0 1 -15.715-3.513 4.122 4.122 0 0 0 -5.078 1.116 4 4 0 0 0 1.45 6.018 45.743 45.743 0 0 0 19.189 4.379 10.3 10.3 0 0 1 6.184 2.177l.905.718a125.34 125.34 0 0 0 -12.768 24.173c-24.971 1.435-36.776-17.264-41.435-27.941zm54.287 66.945a21.007 21.007 0 0 0 -6.184-3.705c-2.872-1.014-5.913-1.976-8.173-2.669 2.356-11.275 11.323-47.371 32.527-65.436l5 5.326a187.031 187.031 0 0 0 -23.17 66.484zm10.678-13.259a183.653 183.653 0 0 1 18.373-47.389c4.454 3.832 12.9 10.049 26.17 15.832 15.981 6.963 24.452 17.169 28.078 22.633a7.448 7.448 0 0 1 .073 7.717c-7.792 14.466-45.582 23.35-72.694 1.207z"/></g></svg>