<svg height="512pt" viewBox="0 0 512 512.002" width="512pt" xmlns="http://www.w3.org/2000/svg"><path d="m481.347656 128.125 16.984375-11.199219c8.226563-5.425781 8.226563-17.492187 0-22.917969l-16.984375-11.203124c-4.6875-3.089844-7.019531-8.71875-5.890625-14.214844l4.089844-19.933594c1.980469-9.648438-6.554687-18.183594-16.203125-16.203125l-19.933594 4.089844c-5.496094 1.128906-11.125-1.203125-14.214844-5.890625l-11.203124-16.984375c-5.425782-8.222657-17.492188-8.222657-22.914063 0l-11.203125 16.984375c-3.089844 4.6875-8.71875 7.019531-14.21875 5.890625l-19.929688-4.089844c-9.652343-1.980469-18.183593 6.554687-16.203124 16.203125l4.089843 19.933594c1.125 5.496094-1.207031 11.125-5.890625 14.214844l-16.984375 11.203124c-8.226562 5.425782-8.226562 17.492188 0 22.917969l16.984375 11.199219c4.683594 3.089844 7.015625 8.722656 5.890625 14.21875l-4.089843 19.929688c-1.980469 9.652343 6.550781 18.1875 16.203124 16.203124l19.929688-4.085937c5.5-1.128906 11.128906 1.203125 14.21875 5.886719l11.203125 16.984375c5.425781 8.226562 17.492187 8.226562 22.914063 0l11.203124-16.984375c3.089844-4.683594 8.71875-7.015625 14.214844-5.886719l19.933594 4.085937c9.652344 1.980469 18.183594-6.550781 16.203125-16.203124l-4.089844-19.929688c-1.125-5.5 1.207031-11.128906 5.890625-14.21875zm0 0" fill="#e26e7e"/><path d="m464.738281 105.464844c0 32.144531-26.058593 58.207031-58.203125 58.207031-32.144531 0-58.207031-26.0625-58.207031-58.207031 0-32.144532 26.0625-58.203125 58.207031-58.203125 32.144532 0 58.203125 26.058593 58.203125 58.203125zm0 0" fill="#f7ef87"/><path d="m349.917969 315.367188c-3.738281 0-7.492188-1.332032-10.488281-4.035157-6.421876-5.796875-6.929688-15.699219-1.132813-22.121093 9.289063-10.292969 10.277344-26.496094 2.351563-38.53125-11.125-16.894532-36.550782-20.578126-68.007813-9.871094-8.1875 2.792968-17.085937-1.589844-19.875-9.777344s1.589844-17.089844 9.777344-19.878906c45.820312-15.601563 84.800781-7.265625 104.269531 22.296875 15.648438 23.757812 13.4375 56.035156-5.257812 76.75-3.09375 3.425781-7.355469 5.167969-11.636719 5.167969zm0 0" fill="#efd176"/><path d="m413.996094 502.898438c-2.453125 0-4.941406-.578126-7.265625-1.800782-16.144531-8.476562-44.714844-13.550781-67.671875-17.625-32.015625-5.6875-45.265625-8.390625-51.722656-18.296875-4.722657-7.246093-2.679688-16.949219 4.570312-21.675781 6.296875-4.105469 14.449219-3.097656 19.578125 1.992188 5.070313 2.164062 21.144531 5.019531 33.054687 7.132812 25.085938 4.457031 56.308594 10 76.753907 20.734375 7.660156 4.023437 10.609375 13.492187 6.585937 21.152344-2.800781 5.335937-8.246094 8.386719-13.882812 8.386719zm0 0" fill="#efd176"/><path d="m451.203125 459.117188c-7.433594 0-14.03125-5.3125-15.398437-12.886719-3.375-18.726563-12.839844-27.710938-20.183594-31.949219-13.449219-7.761719-33.023438-7.371094-56.613282 1.121094-8.140624 2.933594-17.113281-1.289063-20.042968-9.429688-2.933594-8.136718 1.289062-17.113281 9.429687-20.042968 22.6875-8.171876 55.484375-14.589844 82.882813 1.21875 18.503906 10.675781 31.058594 29.683593 35.359375 53.523437 1.535156 8.515625-4.121094 16.660156-12.636719 18.195313-.9375.167968-1.875.25-2.796875.25zm0 0" fill="#efd176"/><path d="m122.328125 504.5c-7.011719 0-14.398437-.59375-22.148437-1.789062-8.550782-1.316407-14.414063-9.3125-13.101563-17.863282 1.316406-8.550781 9.316406-14.417968 17.867187-13.101562 22.359376 3.441406 39.617188.648437 51.285157-8.308594 13.53125-10.382812 18.050781-27.929688 19.460937-40.820312.9375-8.597657 8.679688-14.804688 17.273438-13.867188 8.597656.941406 14.808594 8.675781 13.867187 17.273438-2.972656 27.1875-13.875 48.71875-31.527343 62.265624-14.054688 10.789063-31.8125 16.210938-52.976563 16.210938zm0 0" fill="#efd176"/><path d="m81.785156 251.675781c31.164063 0 58.097656 21.59375 70.816406 33.777344 4.621094 4.429687 4.621094 11.824219 0 16.253906-12.71875 12.183594-39.648437 33.777344-70.816406 33.777344-31.167968 0-58.101562-21.59375-70.816406-33.777344-4.621094-4.429687-4.621094-11.824219 0-16.253906 12.714844-12.183594 39.648438-33.777344 70.816406-33.777344zm0 0" fill="#8ee2cf"/><path d="m100.472656 301.078125h-37.378906c-4.140625 0-7.5-3.355469-7.5-7.5 0-4.140625 3.359375-7.5 7.5-7.5h37.378906c4.144532 0 7.5 3.359375 7.5 7.5 0 4.144531-3.355468 7.5-7.5 7.5zm0 0" fill="#6fce91"/><path d="m142.683594 190.777344c0 31.167968 21.589844 58.097656 33.777344 70.816406 4.425781 4.621094 11.824218 4.621094 16.253906 0 12.183594-12.71875 33.773437-39.648438 33.773437-70.816406 0-31.167969-21.589843-58.097656-33.773437-70.816406-4.429688-4.621094-11.828125-4.621094-16.253906 0-12.1875 12.714843-33.777344 39.648437-33.777344 70.816406zm0 0" fill="#8ee2cf"/><path d="m184.585938 216.96875c-4.140626 0-7.5-3.359375-7.5-7.5l.003906-37.382812c0-4.140626 3.355468-7.5 7.5-7.5 4.140625 0 7.5 3.359374 7.5 7.5l-.003906 37.382812c0 4.140625-3.359376 7.5-7.5 7.5zm0 0" fill="#6fce91"/><path d="m149.765625 199.496094c22.039063 22.039062 25.8125 56.347656 26.191406 73.957031.136719 6.398437-5.097656 11.632813-11.492187 11.492187-17.609375-.375-51.921875-4.152343-73.960938-26.191406-22.039062-22.039062-25.816406-56.347656-26.191406-73.957031-.136719-6.398437 5.09375-11.632813 11.492188-11.492187 17.609374.375 51.921874 4.152343 73.960937 26.191406zm0 0" fill="#8ee2cf"/><path d="m133.347656 249.84375c-1.917968 0-3.835937-.734375-5.300781-2.199219l-26.433594-26.429687c-2.929687-2.929688-2.929687-7.679688 0-10.609375 2.929688-2.925781 7.679688-2.925781 10.605469 0l26.433594 26.433593c2.929687 2.929688 2.929687 7.679688 0 10.605469-1.464844 1.464844-3.382813 2.199219-5.304688 2.199219zm0 0" fill="#6fce91"/><path d="m152.195312 261.191406c45.71875-45.71875 114.40625-42.394531 173.308594 7.75 61.273438 52.160156 82.246094 115.800782 16.246094 181.800782s-129.640625 45.03125-181.800781-16.246094c-50.144531-58.902344-53.46875-127.589844-7.753907-173.304688zm0 0" fill="#f7ef87"/><g fill="#efd176"><path d="m129.621094 293.269531c-19.582032 42.503907-9.117188 94.890625 30.328125 141.226563 52.015625 61.105468 115.449219 82.121094 181.25 16.785156-128.277344 30.894531-194.789063-78.300781-211.578125-158.011719zm0 0"/><path d="m209.050781 341.617188c-4.140625 0-7.5-3.355469-7.5-7.5v-16.074219c0-4.140625 3.359375-7.5 7.5-7.5h16.074219c4.144531 0 7.5 3.359375 7.5 7.5 0 4.144531-3.355469 7.5-7.5 7.5h-8.574219v8.574219c0 4.144531-3.359375 7.5-7.5 7.5zm0 0"/><path d="m255.003906 295.667969c-4.144531 0-7.5-3.359375-7.5-7.5v-16.074219c0-4.144531 3.355469-7.5 7.5-7.5h16.074219c4.140625 0 7.5 3.355469 7.5 7.5 0 4.140625-3.359375 7.5-7.5 7.5h-8.574219v8.574219c0 4.140625-3.359375 7.5-7.5 7.5zm0 0"/><path d="m163.097656 387.570312c-4.140625 0-7.5-3.355468-7.5-7.5v-16.074218c0-4.144532 3.359375-7.5 7.5-7.5h16.078125c4.140625 0 7.5 3.355468 7.5 7.5 0 4.140625-3.359375 7.5-7.5 7.5h-8.578125v8.574218c0 4.144532-3.355468 7.5-7.5 7.5zm0 0"/><path d="m326.230469 412.847656c-4.140625 0-7.5-3.359375-7.5-7.5v-16.074218c0-4.144532 3.359375-7.5 7.5-7.5h16.074219c4.140624 0 7.5 3.355468 7.5 7.5 0 4.140624-3.359376 7.5-7.5 7.5h-8.574219v8.574218c0 4.140625-3.359375 7.5-7.5 7.5zm0 0"/><path d="m280.277344 458.796875c-4.140625 0-7.5-3.355469-7.5-7.5v-16.074219c0-4.144531 3.359375-7.5 7.5-7.5h16.074218c4.144532 0 7.5 3.355469 7.5 7.5 0 4.144532-3.355468 7.5-7.5 7.5h-8.574218v8.574219c0 4.144531-3.355469 7.5-7.5 7.5zm0 0"/></g><path d="m240.269531 416.496094c-8.644531-8.644532-24.453125-6.851563-35.308593 4.003906-10.855469 10.855469-12.648438 26.664062-4.003907 35.308594 8.648438 8.644531 24.453125 6.851562 35.3125-4.003906 10.855469-10.855469 12.644531-26.664063 4-35.308594zm0 0" fill="#eda1ab"/><path d="m307.507812 349.269531c8.648438 8.644531 24.453126 6.851563 35.3125-4.003906 10.855469-10.855469 12.644532-26.664063 4-35.308594-8.644531-8.644531-24.453124-6.851562-35.308593 4.003907-10.855469 10.855468-12.648438 26.664062-4.003907 35.308593zm0 0" fill="#eda1ab"/><path d="m202.375 383.757812-17.917969 17.917969c-7.527343 7.527344-6.199219 20.078125 2.738281 25.859375l5.621094 3.636719c9.445313 6.109375 21.878906 4.792969 29.832032-3.164063l6.058593-6.058593c7.953125-7.953125 9.273438-20.382813 3.160157-29.832031l-3.632813-5.617188c-5.78125-8.941406-18.332031-10.269531-25.859375-2.742188zm0 0" fill="#4e5660"/><path d="m274.765625 311.367188 17.917969-17.917969c7.527344-7.527344 20.078125-6.195313 25.859375 2.742187l3.636719 5.617188c6.109374 9.449218 4.792968 21.878906-3.164063 29.832031l-6.058594 6.058594c-7.953125 7.957031-20.386719 9.273437-29.832031 3.164062l-5.617188-3.636719c-8.941406-5.78125-10.269531-18.332031-2.742187-25.859374zm0 0" fill="#4e5660"/><path d="m324.839844 292.117188c-3.992188-6.171876-10.472656-10.15625-17.78125-10.929688-7.304688-.765625-14.480469 1.761719-19.679688 6.957031l-17.917968 17.917969c-3.917969 3.917969-6.320313 8.957031-6.9375 14.328125-7.34375 5.691406-16.664063 13.363281-27.214844 23.910156-10.550782 10.554688-18.222656 19.871094-23.910156 27.214844-5.371094.617187-10.410157 3.019531-14.328126 6.9375l-17.917968 17.917969c-5.195313 5.195312-7.730469 12.367187-6.957032 19.679687.773438 7.308594 4.757813 13.789063 10.929688 17.78125l5.621094 3.636719c5.179687 3.351562 11.09375 4.984375 16.980468 4.984375 8.125 0 16.203126-3.117187 22.226563-9.140625l6.0625-6.058594c10.382813-10.386718 12.132813-26.878906 4.15625-39.210937l-3.636719-5.617188c-1.859375-2.875-4.257812-5.265625-7.027344-7.085937 4.824219-5.945313 10.835938-12.859375 18.410157-20.433594 7.570312-7.570312 14.484375-13.582031 20.433593-18.410156 1.820313 2.769531 4.210938 5.167968 7.082032 7.027344l5.621094 3.636718c5.179687 3.351563 11.09375 4.984375 16.980468 4.984375 8.125 0 16.203125-3.117187 22.226563-9.140625l6.058593-6.058594c10.386719-10.386718 12.136719-26.878906 4.160157-39.210937zm-101.433594 124.53125-6.058594 6.058593c-5.417968 5.417969-14.023437 6.332031-20.457031 2.167969l-5.621094-3.636719c-2.347656-1.519531-3.863281-3.984375-4.160156-6.769531-.292969-2.78125.671875-5.511719 2.652344-7.492188l17.917969-17.917968c1.71875-1.71875 4.007812-2.667969 6.40625-2.695313.351562.050781.707031.085938 1.0625.085938.0625 0 .121093-.011719.183593-.011719 2.714844.335938 5.117188 1.832031 6.605469 4.136719l3.636719 5.617187c4.160156 6.4375 3.25 15.039063-2.167969 20.457032zm90.308594-90.308594-6.0625 6.058594c-5.417969 5.417968-14.019532 6.332031-20.453125 2.167968l-5.621094-3.632812c-2.296875-1.488282-3.789063-3.878906-4.128906-6.585938.011719-.4375-.011719-.878906-.078125-1.316406.035156-2.378906.984375-4.648438 2.695312-6.359375l17.917969-17.917969c1.746094-1.746094 4.074219-2.703125 6.507813-2.703125.324218 0 .65625.019531.984374.054688 2.78125.292969 5.25 1.8125 6.769532 4.160156l3.636718 5.621094c4.160157 6.429687 3.25 15.035156-2.167968 20.453125zm92.820312-286.578125c-36.230468 0-65.703125 29.476562-65.703125 65.703125 0 36.230468 29.472657 65.707031 65.703125 65.707031 36.230469 0 65.707032-29.476563 65.707032-65.707031 0-36.226563-29.476563-65.703125-65.707032-65.703125zm0 116.410156c-27.957031 0-50.703125-22.746094-50.703125-50.707031 0-27.957032 22.746094-50.703125 50.703125-50.703125 27.957032 0 50.707032 22.746093 50.707032 50.703125-.003907 27.960937-22.75 50.707031-50.707032 50.707031zm-137.441406 192.894531c-4.132812.285156-7.253906 3.867188-6.96875 7.996094.261719 3.8125-1.132812 7.539062-3.820312 10.230469-2.691407 2.691406-6.421876 4.085937-10.230469 3.824219-4.140625-.285157-7.714844 2.832031-8 6.96875-.28125 4.132812 2.835937 7.710937 6.96875 7.996093.648437.042969 1.296875.066407 1.941406.066407 7.449219 0 14.621094-2.949219 19.921875-8.25 5.757812-5.757813 8.742188-13.726563 8.183594-21.863282-.285156-4.132812-3.863282-7.238281-7.996094-6.96875zm233.367188-261.320312-16.984376-11.199219c-2.136718-1.410156-3.1875-3.941406-2.671874-6.449219l4.089843-19.933594c1.4375-7.007812-.722656-14.214843-5.785156-19.273437-5.058594-5.0625-12.265625-7.222656-19.273437-5.785156l-19.929688 4.089843c-2.507812.519532-5.039062-.535156-6.449219-2.671874l-11.203125-16.984376c-3.9375-5.972656-10.5625-9.539062-17.71875-9.539062s-13.777344 3.566406-17.71875 9.539062l-11.203125 16.984376c-1.410156 2.136718-3.941406 3.1875-6.449219 2.671874l-19.929687-4.089843c-7.007813-1.4375-14.214844.722656-19.273437 5.785156-5.0625 5.058594-7.222657 12.265625-5.785157 19.273437l4.089844 19.933594c.511719 2.507813-.535156 5.035156-2.671875 6.445313l-16.984375 11.203125c-5.972656 3.9375-9.542969 10.5625-9.542969 17.71875s3.566406 13.777344 9.542969 17.71875l16.984375 11.203125c2.136719 1.410156 3.183594 3.9375 2.671875 6.449219l-4.089844 19.929687c-1.4375 7.007813.722657 14.214844 5.785157 19.273437 5.058593 5.0625 12.261718 7.222657 19.273437 5.785157l19.929687-4.089844c2.511719-.515625 5.039063.535156 6.449219 2.671875l11.203125 16.984375c3.9375 5.972656 10.5625 9.539063 17.71875 9.539063s13.777344-3.566407 17.71875-9.539063l11.199219-16.984375c1.410156-2.136719 3.941406-3.1875 6.449219-2.671875l2.171875.445313c4.058593.832031 8.023437-1.78125 8.855469-5.839844.832031-4.058594-1.78125-8.023438-5.839844-8.855469l-2.171875-.445313c-8.546875-1.753906-17.179688 1.820313-21.984375 9.109376l-11.203125 16.984374c-1.664063 2.523438-4.1875 2.796876-5.195313 2.796876-1.007812 0-3.53125-.273438-5.195312-2.796876l-11.203125-16.988281c-4.808594-7.285156-13.4375-10.863281-21.984375-9.105469l-19.933594 4.089844c-2.960938.601563-4.941406-.984375-5.652344-1.695312-.710937-.710938-2.304687-2.691406-1.695312-5.652344l4.089844-19.929688c1.753906-8.554687-1.820313-17.183593-9.105469-21.988281l-16.988281-11.199219c-2.523438-1.667968-2.796876-4.191406-2.796876-5.199218 0-1.007813.273438-3.53125 2.796876-5.195313l16.988281-11.203125c7.285156-4.804687 10.859375-13.433594 9.105469-21.984375l-4.089844-19.933593c-.609375-2.960938.984375-4.9375 1.695312-5.652344.714844-.710938 2.695313-2.296875 5.65625-1.695313l19.929688 4.089844c8.546875 1.757813 17.179687-1.820313 21.984375-9.105469l11.203125-16.984375c1.664062-2.527343 4.1875-2.796875 5.195312-2.796875 1.007813 0 3.53125.269532 5.199219 2.796875l11.203125 16.984375c4.804688 7.285156 13.4375 10.863282 21.984375 9.105469l19.929687-4.089844c2.960938-.605469 4.9375.984375 5.652344 1.695313.714844.714844 2.304688 2.691406 1.695313 5.652344l-4.085938 19.933593c-1.753906 8.550781 1.820313 17.179688 9.105469 21.984375l16.984375 11.199219c2.523437 1.667969 2.796875 4.191406 2.796875 5.199219 0 1.007812-.273438 3.53125-2.796875 5.195312l-16.984375 11.203125c-7.285156 4.804688-10.859375 13.4375-9.105469 21.984375l4.085938 19.929688c.527343 2.558594-.589844 4.371094-1.300781 5.226562-2.652344 3.179688-2.21875 7.910156.960937 10.5625 3.183594 2.652344 7.914063 2.222656 10.5625-.964844 4.148437-4.976562 5.777344-11.476562 4.472656-17.835937l-4.089843-19.929687c-.515626-2.511719.535156-5.039063 2.671874-6.449219l16.984376-11.203125c5.972656-3.9375 9.539062-10.5625 9.539062-17.71875s-3.566406-13.777344-9.539062-17.71875zm-67.433594 292.90625c-13.058594-7.535156-28.230469-11.09375-45.191406-10.652344.042968-1.972656.027343-3.945312-.054688-5.921875-.738281-18.429687-6.777344-36.6875-18.03125-54.632813 7.550781-10.546874 12.066406-23.398437 12.839844-36.765624.882812-15.34375-3.207032-30.742188-11.515625-43.359376-21.464844-32.59375-63.6875-42.039062-112.949219-25.265624-5.855469 1.992187-10.585938 6.148437-13.316406 11.703124-1.070313 2.171876-1.773438 4.460938-2.125 6.789063-3.480469-.449219-6.960938-.765625-10.433594-.921875-2.109375-.097656-4.207031-.136719-6.289062-.128906 4-10.394532 6.03125-20.6875 6.03125-30.722656 0-33.5625-22.46875-62.027344-35.863282-76.003907-3.570312-3.726562-8.378906-5.777343-13.539062-5.777343-5.164063 0-9.976563 2.054687-13.542969 5.777343-11.949219 12.46875-31.101563 36.460938-35.101563 65.324219-21.175781-11.46875-45.339843-13.976562-59.980468-14.289062-5.144532-.089844-10.007813 1.839843-13.660156 5.492187-3.652344 3.652344-5.601563 8.503906-5.492188 13.660156.3125 14.636719 2.820312 38.800781 14.289062 59.980469-28.859374 4-52.855468 23.152344-65.324218 35.097656-3.722656 3.570313-5.777344 8.378906-5.777344 13.542969s2.054688 9.976563 5.777344 13.542969c4.277344 4.097656 8.804687 7.988281 13.453125 11.558594 1.363281 1.046874 2.96875 1.554687 4.5625 1.554687 2.25 0 4.476562-1.011719 5.953125-2.933594 2.523437-3.285156 1.90625-7.992187-1.378906-10.515625-4.21875-3.242187-8.328126-6.773437-12.210938-10.496094-1.003906-.960937-1.15625-2.109374-1.15625-2.710937 0-.597656.152344-1.746094 1.15625-2.710937 27.980469-26.8125 52.097656-31.441407 64.585938-31.679688 1.40625 1.671875 2.886718 3.300781 4.457031 4.871094 10.074219 10.078125 23.289062 17.578125 39.351562 22.382812-5.355469 10.570313-8.957031 21.832032-10.738281 33.625-11 5.25-21.757812 7.917969-32.027344 7.917969-8.199218 0-16.769531-1.703125-25.464844-5.0625-3.859374-1.488281-8.207031.429687-9.699218 4.292969-1.492188 3.863281.429687 8.207031 4.292968 9.699218 10.429688 4.027344 20.8125 6.070313 30.871094 6.070313 10.03125 0 20.324219-2.03125 30.722656-6.03125-.011718 2.085937.03125 4.179687.125 6.289063 1.496094 32.664062 15.882813 65.902343 41.605469 96.117187 2.175781 2.558594 4.363281 5.027344 6.550781 7.421875-2.507812 4.382812-5.5625 7.976562-9.121093 10.710938-9.984375 7.660156-25.320313 9.960937-45.578125 6.84375-6.113282-.9375-12.230469.554687-17.222656 4.214843-4.988282 3.660157-8.257813 9.042969-9.195313 15.160157-.941406 6.113281.554687 12.226562 4.210937 17.21875 3.660157 4.988281 9.042969 8.253906 15.15625 9.195312 8.085938 1.246094 15.921876 1.878906 23.292969 1.878906 22.828125 0 42.1875-5.976562 57.539063-17.761718 6.039062-4.632813 11.398437-10.167969 16.003906-16.5 19.410156 13.175781 39.210938 20.234374 59.214844 21.035156 1.265625.050781 2.53125.074218 3.796875.074218 16.953125 0 33.757812-4.5625 50.28125-13.621093 7.601562 1.855469 17.15625 3.597656 28.582031 5.625 22.445312 3.988281 50.378906 8.949219 65.496094 16.886719 3.3125 1.738281 7.03125 2.65625 10.753906 2.65625 8.644531 0 16.507812-4.75 20.523438-12.398438 5.9375-11.308594 1.566406-25.339844-9.742188-31.277344-18.820312-9.878906-45.617188-15.449218-69.183594-19.734375 8.421875-9.488281 15.296875-19.101562 20.625-28.8125 14.761719-3.25 27.039063-2.363281 35.652344 2.605469 5.96875 3.445312 13.6875 10.886719 16.554688 26.785156 1.988281 11.039063 11.566406 19.054688 22.777343 19.054688 1.378907 0 2.769531-.125 4.128907-.371094 6.085937-1.097656 11.386718-4.5 14.914062-9.582031s4.867188-11.234375 3.769531-17.324219c-4.699219-26.050781-18.546875-46.894531-38.992187-58.691406zm-174.761719-158.273438c.964844-1.957031 2.628906-3.421875 4.695313-4.125 42.382812-14.433594 78.117187-7.207031 95.585937 19.320313 11.601563 17.613281 12.019531 40.886719 1.894531 58.625-3.519531-4.523438-7.378906-9.027344-11.566406-13.503907 4.507812-11.722656 3.132812-25.367187-3.964844-36.140624-11.992187-18.214844-37.566406-23.847657-68.730468-15.285157-6.210938-2.4375-12.460938-4.429687-18.726563-5.964843.085937-1.003907.355469-1.992188.8125-2.925782zm78.15625 47.992188c-2.59375-2.386719-5.269531-4.769532-8.054687-7.140625-9.476563-8.066407-19.253907-15.019531-29.210938-20.808594 15.414062-.917969 27.261719 3.320313 33.226562 12.382813 3.082032 4.675781 4.429688 10.199218 4.039063 15.566406zm-176.894531-118.226563c6.597656-11.648437 14.707031-21.109375 20.347656-26.996093.964844-1.003907 2.113281-1.15625 2.710938-1.15625.601562 0 1.75.152343 2.714843 1.15625 5.640625 5.886718 13.75 15.351562 20.34375 26.996093 7.527344 13.289063 11.347657 26.289063 11.347657 38.632813 0 10.269531-2.667969 21.027344-7.917969 32.03125-11.792969 1.78125-23.058594 5.382812-33.625 10.738281-4.808594-16.0625-12.308594-29.277344-22.382813-39.355469-1.570312-1.566406-3.195312-3.046875-4.863281-4.449218.207031-12.035157 4.007813-24.675782 11.324219-37.597657zm-65.71875 101.308594c-1.929688-1.929687-3.703125-3.96875-5.339844-6.089844-.066406-.09375-.132812-.1875-.207031-.277343-15.164063-19.886719-18.121094-47.0625-18.449219-62.449219-.03125-1.390625.675781-2.308594 1.097656-2.734375.417969-.414063 1.308594-1.101563 2.652344-1.101563.027344 0 .054688.003907.082031.003907 17.105469.363281 48.789063 3.96875 68.816407 23.996093 9.023437 9.019531 15.613281 21.355469 19.644531 36.691407-6.03125 4.167968-11.785157 8.96875-17.210938 14.394531s-10.226562 11.179687-14.394531 17.210937c-15.339844-4.03125-27.671875-10.625-36.691406-19.644531zm74.929687 228.890625c-12.675781 9.722656-28.960937 14.65625-48.410156 14.65625-6.605469 0-13.675781-.570312-21.007813-1.703125-2.15625-.328125-4.050781-1.480469-5.339843-3.238281-1.289063-1.757813-1.820313-3.914063-1.488281-6.070313.332031-2.15625 1.484374-4.050781 3.242187-5.34375 1.757813-1.289062 3.914063-1.820312 6.070313-1.484375 24.464843 3.765625 43.640624.476563 56.992187-9.769531 4.105469-3.152344 7.703125-7.023437 10.765625-11.550781 4.078125 3.917968 8.175781 7.5625 12.292969 10.921875-3.785157 5.238281-8.179688 9.789062-13.117188 13.582031zm247.066407-2.34375c3.988281 2.09375 5.527343 7.039062 3.4375 11.023438-1.417969 2.695312-4.191407 4.371093-7.242188 4.371093-1.324219 0-2.597656-.3125-3.78125-.9375-17.179688-9.019531-46.382812-14.203125-69.847656-18.371093-4.832032-.859376-9.308594-1.660157-13.421875-2.4375 5.394531-4.070313 10.75-8.628907 16.066406-13.675782l.21875.039063c24.574219 4.367187 55.15625 9.796875 74.570313 19.988281zm-81.355469-34.558594c-.398438.398438-.800781.785156-1.199219 1.175782-.035156.035156-.070312.070312-.105469.105468-25.085937 24.644532-50.730469 37.128906-76.304687 37.128906-1.050782 0-2.105469-.023437-3.152344-.066406-18.914062-.757812-37.867188-8.195312-56.660156-22.191406-.351563-.328125-.742188-.625-1.167969-.886719-7.546875-5.730469-15.066406-12.519531-22.546875-20.359375-.003906-.003906-.003906-.003906-.007812-.007812-3.222657-3.378906-6.4375-6.9375-9.644532-10.707032-28.542968-33.53125-41.195312-69.84375-37.65625-102.796874.164063-.648438.242188-1.320313.230469-1.996094 1.761719-13.792969 6.386719-26.96875 13.898437-39.074219.054688-.085937.109376-.171875.164063-.257813 4.183594-6.695312 9.246094-13.0625 15.203125-19.019531 5.898438-5.898437 12.199219-10.917969 18.824219-15.078125.210937-.117187.410156-.246094.605469-.382812 12.058593-7.453125 25.179687-12.046875 38.914062-13.800782.050781 0 .101562.007813.152344.007813.628906 0 1.253906-.085937 1.859375-.242187 10.558593-1.132813 21.464843-.605469 32.511719 1.578124.707031.261719 1.449218.417969 2.210937.457032 7.121094 1.546875 14.296875 3.78125 21.472656 6.695312.519531.292969 1.078125.523438 1.660157.683594 15.167968 6.378906 30.316406 15.796875 44.933593 28.242188 5.671875 4.828124 10.890625 9.675781 15.679688 14.535156.109375.125.226562.242187.347656.355468 7.523437 7.679688 13.945313 15.398438 19.257813 23.140626.238281.4375.523437.851562.851562 1.242187 11.296875 16.855469 17.335938 33.820313 18.015625 50.753906 1.082031 27.0625-11.820313 54.234375-38.347656 80.765625zm121.476562 2.667969c-1.242187 1.789063-3.109375 2.988281-5.261719 3.378906-.484374.085938-.976562.128907-1.460937.128907-3.945313 0-7.316406-2.824219-8.015625-6.714844-3.890625-21.5625-15.097656-32.085938-23.820312-37.117188-9.691407-5.59375-21.636719-7.613281-35.640626-6.0625 2.015626-5.53125 3.535157-11.085937 4.554688-16.664062 14.96875-.691406 28.152344 2.183594 39.246094 8.585937 16.558594 9.554688 27.828125 26.726563 31.726562 48.359375.386719 2.144532-.082031 4.3125-1.328125 6.105469zm0 0"/></svg>