<svg id="Capa_1" enable-background="new 0 0 511.991 511.991" height="512" viewBox="0 0 511.991 511.991" width="512" xmlns="http://www.w3.org/2000/svg"><g id="XMLID_2467_"><g id="XMLID_2213_"><path id="XMLID_1478_" d="m315.387 292.922c-46.952 0-85.015-38.062-85.015-85.014v-170.736h170.029v170.736c0 46.951-38.062 85.014-85.014 85.014z" fill="#cbf4fb"/><path id="XMLID_1663_" d="m315.387 292.922c46.953 0 85.015-38.062 85.015-85.014v-69.47c-.605-.293-.938-.454-.938-.454-23.346 23.347-61.199 23.347-84.545 0-23.347-23.346-61.199-23.346-84.546 0v69.924c-.001 46.951 38.061 85.014 85.014 85.014z" fill="#ff7a7a"/><path id="XMLID_1584_" d="m333.22 434.819 47.091 21.594c9.409 4.315 6.333 18.406-4.019 18.406h-63.072-63.072c-10.351 0-13.428-14.091-4.019-18.406l47.091-21.594z" fill="#cbf4fb"/><path id="XMLID_1583_" d="m293.22 354.819h40v80h-40z" fill="#cbf4fb"/><g id="XMLID_1964_"><path id="XMLID_1310_" d="m10 332.437 84.158-84.158c22.548-22.548 53.129-35.215 85.016-35.215 22.324 0 43.733 8.868 59.519 24.653h70.306c15.244 0 27.602 12.358 27.602 27.602 0 15.244-12.358 27.602-27.602 27.602h-80.746 28.5 73.472c27.755 0 54.373-11.026 73.999-30.651l49.459-49.459c9.892-9.892 25.529-11.072 36.793-2.774 13.944 10.272 15.473 30.548 3.227 42.794l-49.101 49.101c-33.865 33.865-79.795 52.89-127.687 52.89h-143.619l-70.317 70.317z" fill="#e4ba89"/><g id="XMLID_1278_" fill="#cbf4fb"><circle id="XMLID_1308_" cx="169.403" cy="367.748" r="24"/><circle id="XMLID_1307_" cx="135.462" cy="333.807" r="24"/><circle id="XMLID_1294_" cx="101.521" cy="299.866" r="24"/><circle id="XMLID_1293_" cx="67.58" cy="265.924" r="24"/></g></g></g><g id="XMLID_1671_"><g id="XMLID_1672_"><path id="XMLID_1674_" d="m511.882 229.941c-.84-11.141-6.48-21.329-15.476-27.955-15.361-11.314-36.303-9.737-49.795 3.755l-48.044 48.044c7.536-13.609 11.834-29.25 11.834-45.877v-170.736c0-5.522-4.478-10-10-10h-40.013c-5.522 0-10 4.478-10 10s4.478 10 10 10h30.013v85.618c-19.521 17.506-49.651 16.882-68.412-1.879-22.054-22.053-55.316-26.225-81.617-12.528v-71.211h30.015c5.522 0 10-4.478 10-10s-4.478-10-10-10h-40.015c-5.522 0-10 4.478-10 10v170.735c0 1.561.052 3.117.127 4.671-12.708-6.217-26.762-9.514-41.325-9.514-33.94 0-65.895 12.901-90.276 36.376-13.338-10.753-32.975-9.939-45.359 2.442-6.422 6.422-9.958 14.961-9.958 24.042 0 7.842 2.642 15.276 7.496 21.294l-38.148 38.148c-3.905 3.905-3.905 10.237 0 14.143 1.953 1.952 4.512 2.929 7.071 2.929s5.118-.977 7.071-2.929l40.947-40.947c3.055.89 6.251 1.358 9.521 1.362.015 8.688 3.327 17.371 9.94 23.984s15.295 9.925 23.982 9.94c.011 9.066 3.546 17.588 9.958 24 6.614 6.613 15.296 9.926 23.983 9.941.004 3.242.465 6.412 1.34 9.442l-40.836 40.837c-3.905 3.905-3.905 10.237 0 14.143 1.953 1.952 4.512 2.929 7.071 2.929s5.118-.977 7.071-2.929l38.003-38.004c6.028 4.884 13.484 7.541 21.349 7.541 9.082 0 17.62-3.537 24.041-9.959 6.423-6.422 9.959-14.96 9.959-24.042 0-.982-.049-1.957-.131-2.925h79.949v63.581l-41.259 18.92c-8.465 3.881-12.989 12.945-11.003 22.043 1.987 9.098 9.878 15.452 19.19 15.452h126.144c9.312 0 17.203-6.354 19.189-15.451s-2.538-18.163-11.003-22.044l-41.259-18.92v-65.403c15.962-2.216 31.567-6.448 46.625-12.685 23.239-9.626 44.041-23.525 61.827-41.312l49.102-49.103c7.902-7.899 11.951-18.819 11.111-29.959zm-239.236-99.468c13.297 0 25.799 5.178 35.201 14.581 13.604 13.604 31.474 20.406 49.344 20.406 11.446 0 22.886-2.806 33.211-8.387v50.834c0 30.944-18.836 57.568-45.643 69.019 1.19-3.658 1.842-7.557 1.842-11.607 0-20.734-16.868-37.603-37.603-37.603h-65.981c-1.754-6.423-2.645-13.074-2.645-19.81v-65.542c8.998-7.688 20.31-11.891 32.274-11.891zm-214.965 125.552c2.729-2.729 6.313-4.094 9.898-4.094 3.586 0 7.171 1.364 9.899 4.094 2.645 2.645 4.102 6.16 4.102 9.899 0 3.74-1.457 7.255-4.102 9.9-2.645 2.644-6.159 4.1-9.898 4.1-3.74 0-7.255-1.456-9.9-4.101-2.644-2.645-4.1-6.159-4.1-9.899 0-3.739 1.456-7.255 4.101-9.899zm33.94 33.941c5.461-5.458 14.342-5.456 19.799 0 5.459 5.458 5.459 14.341.001 19.799-5.461 5.459-14.343 5.458-19.8.001-5.458-5.459-5.458-14.341 0-19.8zm29.84 43.841c0-3.737 1.455-7.249 4.095-9.893l.007-.007c2.729-2.729 6.314-4.094 9.899-4.094s7.17 1.364 9.899 4.094c5.459 5.458 5.459 14.34 0 19.798-5.459 5.459-14.341 5.459-19.8 0-2.643-2.644-4.1-6.159-4.1-9.898zm57.841 43.841c-2.645 2.644-6.159 4.101-9.899 4.101-3.739 0-7.254-1.457-9.899-4.102-2.644-2.645-4.101-6.159-4.101-9.899 0-3.739 1.457-7.255 4.102-9.899 2.729-2.729 6.313-4.094 9.899-4.094 3.585 0 7.17 1.364 9.898 4.094 2.645 2.645 4.101 6.16 4.101 9.899 0 3.74-1.456 7.254-4.101 9.9zm72.488 87.171 43.613-20h35.634l43.613 20zm71.43-100v60h-20v-59.996zm163.411-119.059-49.102 49.102c-32.142 32.142-74.852 49.874-120.294 49.957l-122.727.004c-.346-.378-.699-.752-1.064-1.117-6.618-6.617-15.307-9.93-24-9.941-.011-8.692-3.324-17.382-9.941-24-6.618-6.617-15.308-9.93-24-9.941-.011-8.693-3.324-17.383-9.942-24-6.613-6.613-15.295-9.926-23.982-9.94-.004-3.27-.472-6.467-1.362-9.521l1.012-1.012c20.82-20.82 48.502-32.286 77.945-32.286 19.812 0 38.438 7.715 52.447 21.725 1.876 1.875 4.419 2.929 7.071 2.929h70.306c9.706 0 17.603 7.896 17.603 17.603s-7.896 17.603-17.603 17.603h-80.746c-5.522 0-10 4.478-10 10s4.478 10 10 10h101.973c30.623 0 59.414-11.926 81.07-33.58l49.459-49.459c6.445-6.448 16.451-7.199 23.791-1.794 4.297 3.165 6.992 8.033 7.394 13.355.401 5.321-1.533 10.539-5.308 14.313z"/><path id="XMLID_1673_" d="m315.391 47.175c2.63 0 5.21-1.07 7.07-2.93s2.92-4.44 2.92-7.07c0-2.64-1.06-5.21-2.92-7.07-1.87-1.869-4.44-2.93-7.07-2.93-2.64 0-5.21 1.061-7.08 2.93-1.859 1.86-2.92 4.44-2.92 7.07s1.061 5.2 2.92 7.07c1.87 1.86 4.44 2.93 7.08 2.93z"/></g></g></g></svg>