<svg height="496pt" viewBox="0 0 496 496" width="496pt" xmlns="http://www.w3.org/2000/svg"><path d="m184 26.96875c-74.558594 26.359375-128 97.4375-128 181.03125v90.078125l32-2.0625v-88.015625c0-65.824219 39.960938-122.441406 96.878906-146.976562h126.242188c56.910156 24.535156 96.878906 81.152343 96.878906 146.976562v88.015625l32 2.0625v-90.078125c0-83.59375-53.441406-154.671875-128-181.03125zm0 0" fill="#ccd1d9"/><path d="m391.984375 280h32.015625c35.34375 0 64 28.65625 64 64v16c0 35.34375-28.65625 64-64 64h-32.015625zm0 0" fill="#fcd770"/><path d="m392 280h32v144h-32zm0 0" fill="#ffc729"/><path d="m104.015625 280h-32.015625c-35.34375 0-64 28.65625-64 64v16c0 35.34375 28.65625 64 64 64h32.015625zm0 0" fill="#fcd770"/><path d="m72 280h32v144h-32zm0 0" fill="#ffc729"/><path d="m136 417.144531v-137.144531c0-13.257812-10.742188-24-24-24s-24 10.742188-24 24v144c0 13.257812 10.742188 24 24 24 3.3125 0 22.246094 1.65625 25.128906.449219zm0 0" fill="#969faa"/><path d="m360 416v-136c0-13.257812 10.742188-24 24-24s24 10.742188 24 24v144c0 13.257812-10.742188 24-24 24-2.816406 0-21.496094.128906-24-.769531zm0 0" fill="#969faa"/><path d="m343.839844 488h-191.6875c-17.753906 0-32.152344-14.398438-32.152344-32.160156 0-5.160156 1.230469-10.230469 3.609375-14.808594l101.023437-194.839844c4.519532-8.710937 13.535157-14.191406 23.367188-14.191406 9.824219 0 18.839844 5.480469 23.367188 14.199219l101.023437 194.839843c2.378906 4.570313 3.609375 9.648438 3.609375 14.800782 0 17.761718-14.398438 32.160156-32.160156 32.160156zm0 0" fill="#fc6e51"/><path d="m296 72h-96c-8.839844 0-16-7.167969-16-16v-32c0-8.839844 7.160156-16 16-16h96c8.832031 0 16 7.160156 16 16v32c0 8.832031-7.167969 16-16 16zm0 0" fill="#a0d468"/><path d="m264 440c0 8.835938-7.164062 16-16 16s-16-7.164062-16-16 7.164062-16 16-16 16 7.164062 16 16zm0 0" fill="#f5f7fa"/><path d="m248 392c-4.535156 0-8.34375-3.449219-8.800781-7.960938l-7.128907-71.277343c-.046874-.515625-.070312-1.007813-.070312-1.523438 0-8.414062 6.816406-15.238281 15.238281-15.238281h1.515625c8.421875 0 15.246094 6.824219 15.246094 15.238281 0 .503907-.023438 1.007813-.078125 1.515625l-7.128906 71.277344c-.449219 4.519531-4.257813 7.96875-8.792969 7.96875zm0 0" fill="#f5f7fa"/><path d="m153.328125 436.332031 45.523437-87.996093 14.210938 7.351562-45.523438 87.996094zm0 0"/><path d="m448 276.199219v-68.199219c0-82.769531-51.359375-156.96875-128.257812-186.550781-1.292969-12.023438-11.382813-21.449219-23.742188-21.449219h-96c-12.359375 0-22.449219 9.425781-23.742188 21.449219-76.898437 29.582031-128.257812 103.78125-128.257812 186.550781v68.199219c-27.921875 9.921875-48 36.527343-48 67.800781v16c0 39.695312 32.304688 72 72 72h9.136719c3.574219 13.761719 16 24 30.863281 24h.015625c.089844 22.070312 18.054687 40 40.144531 40h191.679688c22.089844 0 40.054687-17.9375 40.144531-40h.015625c14.863281 0 27.289062-10.238281 30.863281-24h9.136719c39.695312 0 72-32.304688 72-72v-16c0-31.273438-20.078125-57.878906-48-67.800781zm-16-68.199219v64.472656c-2.632812-.296875-5.296875-.472656-8-.472656h-8v-64c0-65-37.527344-123.785156-96.039062-151.625 0-.128906.039062-.246094.039062-.375v-17.238281c67.414062 28.695312 112 95.261719 112 169.238281zm-80 72v104.335938l-73.527344-141.808594c-5.929687-11.429688-17.601562-18.527344-30.472656-18.527344s-24.542969 7.097656-30.472656 18.519531l-73.527344 141.816407v-104.335938c0-17.648438-14.351562-32-32-32-5.855469 0-11.273438 1.695312-16 4.449219v-44.449219c0-58.375 33.457031-111.207031 85.726562-136.625 4.410157 5.234375 10.921876 8.625 18.273438 8.625h96c7.351562 0 13.863281-3.390625 18.273438-8.625 52.269531 25.425781 85.726562 78.257812 85.726562 136.625v44.449219c-4.726562-2.753907-10.144531-4.449219-16-4.449219-17.648438 0-32 14.351562-32 32zm-160-256c0-4.40625 3.59375-8 8-8h96c4.40625 0 8 3.59375 8 8v32c0 4.40625-3.59375 8-8 8h-96c-4.40625 0-8-3.59375-8-8zm-128 184c0-73.976562 44.585938-140.542969 112-169.238281v17.238281c0 .128906.039062.246094.039062.375-58.511718 27.839844-96.039062 86.617188-96.039062 151.625v64h-8c-2.703125 0-5.367188.175781-8 .472656zm0 207.359375v-103.359375h-16v98.519531c-18.886719-9.007812-32-28.238281-32-50.519531v-16c0-30.878906 25.121094-56 56-56h8v128h-8c-2.71875 0-5.375-.265625-8-.640625zm32 8.640625v-144c0-8.824219 7.175781-16 16-16s16 7.175781 16 16h-16v16h16v16h-16v16h16v16h-16v16h16v16h-16v16h16v16h-16v16h11.433594l-6.921875 13.351562c-.375.71875-.664063 1.488282-.992188 2.234376-1.152343.253906-2.320312.414062-3.519531.414062-8.824219 0-16-7.175781-16-16zm247.839844 56h-191.679688c-13.328125 0-24.160156-10.832031-24.160156-24.160156 0-3.863282.9375-7.703125 2.710938-11.121094l101.023437-194.839844c3.160156-6.085937 9.394531-9.878906 16.265625-9.878906s13.105469 3.792969 16.265625 9.886719l101.023437 194.839843c1.773438 3.410157 2.710938 7.257813 2.710938 11.113282 0 13.328125-10.832031 24.160156-24.160156 24.160156zm56.160156-56c0 8.824219-7.175781 16-16 16-1.199219 0-2.375-.175781-3.527344-.441406-.328125-.734375-.609375-1.488282-.984375-2.207032l-6.921875-13.351562h11.433594v-16h-16v-16h16v-16h-16v-16h16v-16h-16v-16h16v-16h-16v-16h16v-16h-16c0-8.824219 7.175781-16 16-16s16 7.175781 16 16zm80-64c0 22.28125-13.113281 41.511719-32 50.519531v-98.519531h-16v103.359375c-2.625.375-5.28125.640625-8 .640625h-8v-128h8c30.878906 0 56 25.121094 56 56zm0 0"/><path d="m208 32h16v16h-16zm0 0"/><path d="m272 32h16v16h-16zm0 0"/><path d="m248 416c-13.230469 0-24 10.769531-24 24s10.769531 24 24 24 24-10.769531 24-24-10.769531-24-24-24zm0 32c-4.40625 0-8-3.59375-8-8s3.59375-8 8-8 8 3.59375 8 8-3.59375 8-8 8zm0 0"/><path d="m248.761719 288h-1.515625c-12.820313 0-23.246094 10.425781-23.246094 23.238281 0 .792969.039062 1.578125.121094 2.3125l7.125 71.28125c.867187 8.648438 8.066406 15.167969 16.753906 15.167969s15.886719-6.519531 16.761719-15.167969l7.117187-71.222656c.082032-.785156.121094-1.578125.121094-2.371094 0-12.8125-10.425781-23.238281-23.238281-23.238281zm.070312 95.238281c-.089843.851563-1.585937.851563-1.671875 0l-7.167968-72c.007812-3.992187 3.253906-7.238281 7.246093-7.238281h1.515625c3.988282 0 7.238282 3.246094 7.199219 7.960938zm0 0"/></svg>