<svg height="512" viewBox="0 0 64 64" width="512" xmlns="http://www.w3.org/2000/svg"><g id="Fill_Outline" data-name="Fill Outline"><g id="color"><g><g><rect fill="#f9e109" height="12" rx="2" transform="matrix(.866 -.5 .5 .866 -15.148 32.323)" width="12" x="46.742" y="38.428"/><path d="m58.865 43.033a6 6 0 0 1 -7.319-2.605l-.969-1.678-4.3 2.482a2 2 0 0 0 -.732 2.732l4 6.928a2 2 0 0 0 2.732.732l6.928-4a2 2 0 0 0 .732-2.732z" fill="#fcbc04"/><circle cx="52.742" cy="44.428" fill="#f89c8d" r="2"/><path d="m52.268 44a1.988 1.988 0 0 1 -.212-1.446 2.091 2.091 0 0 0 -.314.142 2 2 0 1 0 2.944 2.178 2 2 0 0 1 -2.418-.874z" fill="#f8664f"/></g><path d="m39.804 3-12 20.785 9.526 5.5-.732-2.732 2.732-.732-1.598-3.233 2.732-.732-1.598-3.232 2.732-.732-1.598-3.232 2.732-.732-.732-2.732 2.732-.732.268-4.464z" fill="#d0d8da"/><path d="m38.866 18.624.307-.082a4.99 4.99 0 0 1 -.869-6.088l4.469-7.74-2.973-1.714-12 20.785 9.526 5.5-.726-2.732 2.732-.733-1.6-3.232 2.732-.732z" fill="#93999a"/><g><path d="m3.66 38.464h20v8h-20z" fill="#84d2f4" transform="matrix(.866 .5 -.5 .866 23.062 -1.141)"/><path d="m13.648 37.838a4.987 4.987 0 0 1 -6.658 1.59l-2.343-1.353-1.647 2.853 17.32 10 4-6.928z" fill="#57b7eb"/></g><g><path d="m10.581 12.042h11v10h-11z" fill="#d0d8da" transform="matrix(.707 -.707 .707 .707 -7.341 16.363)"/><path d="m5.95 20.174h4v10h-4z" fill="#d0d8da" transform="matrix(.707 -.707 .707 .707 -15.472 12.995)"/><path d="m8.778 19.346h4v6h-4z" fill="#656b76" transform="matrix(.707 -.707 .707 .707 -12.644 14.166)"/><path d="m27.042 10.325-.065.018a6.934 6.934 0 0 0 -4.867 4.867l-.018.065-4.243-4.243a6.937 6.937 0 0 1 8.008-1.3z" fill="#d0d8da"/><path d="m24.042 17.295h6v20h-6z" fill="#57b7eb" transform="matrix(.707 -.707 .707 .707 -11.381 27.116)"/><g fill="#93999a"><path d="m18.556 17.639a4 4 0 0 1 -5.657 0l-2.242-2.239-2 2 7.071 7.071 7.778-7.778-2-2z"/><path d="m7.95 26-3.95-3.947-1 1 7.071 7.071 2.829-2.824-1.03-1.034a2.991 2.991 0 0 1 -3.92-.266z"/><path d="m24.877 9.336a6.949 6.949 0 0 0 -1.832 1.854 1.778 1.778 0 0 1 -2.751.287l-1.329-1.329a6.892 6.892 0 0 0 -1.116.884l4.243 4.243.017-.065a6.937 6.937 0 0 1 4.868-4.867l.065-.018-1.185-.592a6.959 6.959 0 0 0 -.98-.397z"/></g><path d="m25.234 21.245-1.268 1.268a1.379 1.379 0 0 1 -1.949 0 1.38 1.38 0 0 1 0-1.95l1.267-1.263-1.192-1.2-4.243 4.243 14.142 14.145 4.243-4.243z" fill="#4891d3"/></g><g><path d="m40.104 19.896h6v22h-6z" fill="#93999a" transform="matrix(.707 .707 -.707 .707 34.472 -21.43)"/><path d="m47.675 22.082-4.914 4.918a7.845 7.845 0 0 0 .586.657 7.962 7.962 0 0 0 4.934 2.309l4.719-4.727-1.5-1.5-1.086 1.086z" fill="#656b76"/><path d="m60.367 17.876-5.949 5.949-4.243-4.243 5.949-5.949a8 8 0 1 0 4.243 4.243z" fill="#d0d8da"/><path d="m59.66 22.653a7.994 7.994 0 0 1 -13.65-5.53 7.993 7.993 0 1 0 14.97 3.763 7.922 7.922 0 0 1 -1.32 1.767z" fill="#93999a"/></g><g><path d="m53.91 61h-43.82a4 4 0 0 1 -3.424-6.068l21.91-36.265a4 4 0 0 1 6.848 0l21.91 36.265a4 4 0 0 1 -3.424 6.068z" fill="#f9e109"/><path d="m54.354 50h-10.354a12 12 0 0 1 -12-12v-21.265a3.965 3.965 0 0 0 -3.424 1.932l-21.91 36.265a4 4 0 0 0 3.424 6.068h43.82a4 4 0 0 0 3.424-6.068z" fill="#fcbc04"/><path d="m32 47a2.114 2.114 0 0 1 -2.111-2l-.723-13a2.839 2.839 0 0 1 2.834-3 2.839 2.839 0 0 1 2.834 3l-.723 13a2.114 2.114 0 0 1 -2.111 2z" fill="#f8664f"/><g fill="#cc5144"><circle cx="32" cy="53" r="2"/><path d="m29.889 45a2.114 2.114 0 0 0 4.222 0l.011-.2a11.932 11.932 0 0 1 -2.122-6.8v-9a2.839 2.839 0 0 0 -2.834 3z"/></g></g></g></g><g id="Outline_copy" data-name="Outline copy"><g fill="#323232"><path d="m60.866 30.5a1 1 0 1 0 -1.732 1l.5.866-6.927 4-4.019 2.32-2.906-4.81 4.358-4.359a8.989 8.989 0 0 0 11.148-12.031 1 1 0 0 0 -1.628-.317l-3.468 3.468a1 1 0 1 0 1.414 1.414l2.288-2.287a7 7 0 1 1 -5.657-5.658l-4.769 4.769a1 1 0 0 0 0 1.414l4.242 4.243a1 1 0 1 0 1.415-1.414l-3.536-3.536 5.242-5.241a1 1 0 0 0 -.317-1.628 8.988 8.988 0 0 0 -12.031 11.148l-2.963 2.962-2.191-3.623 1.394-.374a1 1 0 0 0 .637-1.409l-1.06-2.143 1.554-.416a1 1 0 0 0 .638-1.409l-1.058-2.138 1.554-.417a1 1 0 0 0 .707-1.225l-.732-2.731a1 1 0 1 0 -1.932.517l.473 1.766-1.766.473a1 1 0 0 0 -.638 1.406l1.057 2.138-1.554.416a1 1 0 0 0 -.637 1.409l1.057 2.139-.775.208-1.968-3.261a4.956 4.956 0 0 0 -2.8-2.186l6.7-11.6 3.8 2.191-.126 1.846a1 1 0 0 0 2 .12l.146-2.46a1 1 0 0 0 -.5-.926l-5.2-3a1 1 0 0 0 -1.367.366l-7.67 13.293a4.957 4.957 0 0 0 -3.543 2.356l-1.569 2.6-2.646-2.649.708-.707a1 1 0 0 0 0-1.415l-.977-.976a5.992 5.992 0 0 1 4.069-3.715 1 1 0 0 0 .184-1.859l-1.189-.59a7.913 7.913 0 0 0 -8.4.836l-.763-.763a1 1 0 0 0 -1.414 0l-2.787 2.789a1 1 0 0 0 1.414 1.414l2.085-2.085 5.657 5.656-6.364 6.365-5.657-5.65 1.45-1.451a1 1 0 1 0 -1.414-1.414l-2.157 2.154a1 1 0 0 0 0 1.415l.707.707-1.414 1.414-.707-.707a1 1 0 0 0 -1.414 0l-2.829 2.828a1 1 0 0 0 0 1.414l7.071 7.071a1 1 0 0 0 1.414 0l2.828-2.831a1 1 0 0 0 0-1.414l-.707-.708 1.415-1.414.707.707a1 1 0 0 0 1.414 0l1.414-1.414 4.041 4.043-2.052 3.4a1 1 0 0 0 1.712 1.035l7.882-13.046a3 3 0 0 1 5.136 0l21.91 36.264a3 3 0 0 1 -2.568 4.547h-7.91a1 1 0 0 0 0 2h7.91a5 5 0 0 0 4.279-7.586l-4.36-7.214a2.79 2.79 0 0 0 .412-.17 3 3 0 1 0 -3.453-4.862l-1.066-1.768s3.265-1.88 3.984-2.3a1 1 0 0 1 .759-.1.992.992 0 0 1 .607.466l4 6.929a1 1 0 0 1 -.367 1.365l-1.646.951a1 1 0 0 0 1 1.732l1.645-.951a3 3 0 0 0 1.1-4.1l-4-6.929a3 3 0 0 0 -.657-.775l5.353-3.088a1 1 0 0 0 .366-1.367zm-50.795-1.79-5.657-5.657 1.415-1.414 5.656 5.661zm1.414-4.243-2.828-2.828 1.414-1.414 2.829 2.828zm13.129-14.167a8.011 8.011 0 0 0 -2.9 3.188l-2.385-2.388a5.924 5.924 0 0 1 5.285-.8zm-5.351 12.046 2.828-2.829 2.995 2.993-2.131 3.527zm26.126 3.437a8.779 8.779 0 0 0 2.829 2.828l-3.5 3.5-2.131-3.527zm6.853 17.78a1 1 0 0 1 .758-.1 1 1 0 0 1 .242 1.832.954.954 0 0 1 -.493.115l-.879-1.454a.937.937 0 0 1 .372-.393z"/><path d="m35.832 32.051a3.856 3.856 0 0 0 -1.044-2.851 3.839 3.839 0 0 0 -5.576 0 3.856 3.856 0 0 0 -1.044 2.851l.723 13.008a3.114 3.114 0 0 0 6.218 0zm-2.72 12.9a1.114 1.114 0 0 1 -2.224 0l-.723-13.008a1.838 1.838 0 1 1 3.67 0z"/><path d="m32 50a3 3 0 1 0 3 3 3 3 0 0 0 -3-3zm0 4a1 1 0 1 1 1-1 1 1 0 0 1 -1 1z"/><path d="m42 60h-31.91a3 3 0 0 1 -2.568-4.551l11.958-19.793a1 1 0 0 0 -1.711-1.035l-1.99 3.293-1.35-.78-6.927-4a1 1 0 0 0 -1.366.366l-4 6.928a1 1 0 0 0 .364 1.366l8.107 4.681-4.8 7.939a5 5 0 0 0 4.283 7.586h31.91a1 1 0 0 0 0-2zm-37.634-19.438 3-5.2 1.732 1-1.5 2.6a1 1 0 1 0 1.732 1l1.5-2.6 1.732 1-1.5 2.6a1 1 0 1 0 1.732 1l1.5-2.6.451.26-3.1 5.137z"/></g></g></g></svg>