<?xml version="1.0" encoding="iso-8859-1"?>
<!-- Generator: Adobe Illustrator 19.0.0, SVG Export Plug-In . SVG Version: 6.00 Build 0)  -->
<svg version="1.1" id="Capa_1" xmlns="http://www.w3.org/2000/svg" xmlns:xlink="http://www.w3.org/1999/xlink" x="0px" y="0px"
	 viewBox="0 0 512 512" style="enable-background:new 0 0 512 512;" xml:space="preserve">
<path style="fill:#00AA95;" d="M490.075,170.048l-5.427,3.027l-57.592,32.138l-12.667-22.701l54.494-30.406
	c0.395-0.223,0.77-0.466,1.124-0.739c3.655-2.784,4.82-7.958,2.521-12.09l-33.565-60.154c-2.521-4.526-8.293-6.156-12.819-3.635
	l-5.326,2.967l-49.168,27.429l-12.667-22.701l47.244-26.356l15.775-8.799c12.91-7.199,29.353-2.531,36.562,10.378l41.888,75.089
	C507.653,146.395,502.985,162.849,490.075,170.048z"/>
<g>
	<polygon style="fill:#008877;" points="420.819,78.455 371.651,105.884 358.984,83.183 406.228,56.827 	"/>
	<path style="fill:#008877;" d="M484.648,173.075l-57.592,32.138l-12.667-22.701l54.494-30.406c0.395-0.223,0.77-0.466,1.124-0.739
		L484.648,173.075z"/>
</g>
<path style="fill:#00DDC2;" d="M325.571,283.41l-156.567-50.748l-3.129-17.274l-0.911-5.032l-1.458-8.07
	c1.205,1.104,97.901,24.969,140.64,35.479l6.986,14.884l2.592,5.518L325.571,283.41z"/>
<path style="fill:#00EED1;" d="M311.132,252.649l-146.168-42.293l-1.458-8.07c1.205,1.104,97.901,24.969,140.64,35.479
	L311.132,252.649z"/>
<path style="fill:#00CCB3;" d="M484.922,236.591l-150.248,83.817c-4.84,2.703-10.915,1.104-13.507-3.534l-95.319-203.112
	c-2.592-4.647-1.266-10.368,2.946-12.717l8.86-4.941l9.71-5.417l106.507-59.425c4.212-2.349,9.781-0.476,12.373,4.172
	L478.674,207.45l4.678,7.159l5.65,8.637C491.594,227.883,489.751,233.887,484.922,236.591z"/>
<path style="fill:#00DDC2;" d="M478.674,207.45l-130.504,72.8c-4.83,2.693-10.905,1.104-13.497-3.544l-87.31-186.021l106.507-59.425
	c4.212-2.349,9.781-0.476,12.373,4.172L478.674,207.45z"/>
<path style="fill:#00AA95;" d="M198.226,214.487c-0.051,1.154-0.162,2.319-0.324,3.483l-0.952,6.814
	c-2.876,20.676-21.982,35.094-42.658,32.208l-12.029-1.671c-6.278-0.881-10.652-6.683-9.781-12.96l1.883-13.517l0.891-6.349
	l5.458-39.083c0.871-6.278,6.673-10.662,12.95-9.781l12.029,1.681c17.274,2.41,30.173,16.13,32.259,32.634
	C198.236,210.083,198.337,212.27,198.226,214.487z"/>
<path style="fill:#00CCB3;" d="M198.226,214.487c-9.022,11.887-24.047,18.681-39.873,16.474l-13.558-1.893
	c-4.192-0.587-7.645-3.129-9.538-6.571l5.458-39.083c0.871-6.278,6.673-10.662,12.95-9.781l12.029,1.681
	c17.274,2.41,30.173,16.13,32.259,32.634C198.236,210.083,198.337,212.27,198.226,214.487z"/>
<path style="fill:#91CC04;" d="M76.783,377.17c-46.846,6.792-59.201-39.617-56.144-86.875c0.243-3.554,3.716-5.964,7.128-4.931
	C81.036,301.63,112.924,333.578,76.783,377.17z"/>
<path style="fill:#9CDD05;" d="M66.658,359.623c-15.394,2.231-29.391-0.897-39.691-12.555c-6.411-17.159-7.52-38.348-6.328-56.772
	c0.243-3.554,3.716-5.964,7.128-4.931c18.278,5.581,40.388,15.472,53.259,29.586C85.408,331.121,77.265,346.826,66.658,359.623z"/>
<path style="fill:#AA6100;" d="M175.818,492.78c0,3.088-1.266,5.903-3.301,7.938c-2.035,2.035-4.85,3.301-7.938,3.301H18.999
	c-6.176,0-11.239-5.063-11.239-11.239c0-19.309,7.898-36.866,20.625-49.593c12.738-12.727,30.295-20.625,49.604-20.625h27.601
	c0.182,0,0.365,0,0.547,0.01C144.521,422.865,175.818,454.344,175.818,492.78z"/>
<path style="fill:#CC7400;" d="M175.818,492.78c0,3.088-1.266,5.903-3.301,7.938c-2.035,2.035-4.85,3.301-7.938,3.301H47.683
	c-6.176,0-11.229-5.063-11.229-11.239c0-19.309,7.898-36.866,20.625-49.593c12.606-12.606,29.961-20.473,49.057-20.615
	C144.521,422.865,175.818,454.344,175.818,492.78z"/>
<path style="fill:#44FFE8;" d="M326.896,117.729l-10.361,5.78c-4.544,2.535-10.284,0.906-12.82-3.638L253.8,30.396
	c-2.535-4.544-0.906-10.284,3.638-12.82l10.361-5.78c4.544-2.535,10.284-0.906,12.82,3.638l49.916,89.475
	C333.069,109.454,331.441,115.193,326.896,117.729z"/>
<path d="M507.288,130.178L465.4,55.089c-9.273-16.613-30.404-22.514-46.89-13.305l-28.654,15.978l-16.929-25.9
	c-3.159-5.447-8.839-8.819-14.914-8.819c-7.162,0-7.465,2.589-50.14,25.688C281.779,3.505,283.65,1.802,278.306,0.291
	c-1.934-0.557-4.02-0.304-5.771,0.668l-26.822,14.965c-3.665,2.045-4.971,6.673-2.936,10.328l25.019,44.835L225.3,94.8
	c-5.042,2.805-8.171,8.293-8.171,14.317c0,6.366,1.335,5.829,22.184,51.173c1.296,2.754,4.03,4.374,6.875,4.374
	c5.486,0,9.258-5.748,6.875-10.824c-21.399-45.573-20.181-43.019-20.392-43.397c-0.594-1.085-0.336-2.182,0.02-2.379l42.496-23.713
	c27.979,48.574,25.887,49.903,31.246,51.446c5.294,1.502,6.639-2.007,32.593-15.644c3.665-2.035,4.971-6.662,2.936-10.328
	l-26.69-47.832l42.496-23.713c0.722-0.241,1.633,0.504,2.045,1.235c0.081,0.162,0.172,0.314,0.273,0.456
	c30.198,46.209,17.28,26.444,62.665,95.876c2.288,3.503,6.997,4.496,10.51,2.197c3.503-2.298,4.496-6.997,2.197-10.51
	l-23.015-35.216l17.598-9.811c0.802-0.463,2-0.193,2.491,0.709l5.832,10.439c2.035,3.655,6.662,4.971,10.328,2.926
	c3.665-2.045,4.971-6.662,2.926-10.328l-5.822-10.439c-2.997-5.377-8.708-8.718-14.894-8.718c-7.188,0-10.049,3.741-26.791,12.484
	l-5.923-9.072l27.723-15.461c9.151-5.13,21.028-1.852,26.224,7.442c42.604,78.032,44.308,75.664,44.308,84.404
	c0,3.078-0.739,6.146-2.136,8.9c-1.914,3.726-0.435,8.303,3.301,10.216c3.867,1.934,8.36,0.344,10.216-3.311
	c2.491-4.88,3.807-10.338,3.807-15.806C511.632,141.062,510.134,135.281,507.288,130.178z M324.994,110.595l-13.548,7.564
	c-1.089-1.952-50.513-90.539-51.699-92.666l13.548-7.564C284.316,37.687,312.717,88.591,324.994,110.595z"/>
<circle cx="312.839" cy="104.726" r="6.146"/>
<path d="M474.827,187.75l6.399-3.564c3.665-2.045,4.982-6.673,2.936-10.338c-2.045-3.655-6.673-4.971-10.328-2.926l-7.331,4.091
	l-5.933-9.072l12.221-6.814c5.376-2.997,8.718-8.708,8.718-14.894c0-7.315-3.493-9.501-15.087-31.449
	c-2.045-3.665-6.673-4.982-10.328-2.936c-3.665,2.045-4.982,6.673-2.936,10.338c13.448,24.259,13.163,23.183,13.163,24.047
	c0,2.108-1.999,1.733-14.084,8.971l-0.152-0.243c-2.298-3.513-7.007-4.496-10.52-2.197c-3.281,2.147-4.364,6.409-2.582,9.832
	c0.488,1.02,43.802,66.763,43.802,67.576c0,0.658-0.354,1.61-1.357,2.177c-157.627,87.795-151.571,85.891-153.337,83.351
	c-42.432-90.397-32.964-70.227-62.129-132.357c-1.782-3.797-6.298-5.437-10.095-3.655s-5.427,6.308-3.645,10.105l15.765,33.585
	c-22.458-5.559-44.642-11.067-62.523-15.573c-3.129-19.106-18.367-34.811-38.527-37.625l-12.019-1.681
	c-10.518-1.454-20.065,5.859-21.526,16.251l-8.222,58.959c-1.458,10.409,5.832,20.068,16.251,21.516
	c10.919,1.426,34.391,8.016,53.016-14.003l102.154,33.11c19.239,40.981,18.013,38.392,18.155,38.628
	c4.648,8.342,15.375,11.192,23.825,6.47l150.259-83.817c8.495-4.743,11.635-15.365,7.007-23.683
	C495.746,219.776,497.518,222.49,474.827,187.75z M190.53,217.69c-0.936,5.683-0.757,17.286-12.434,26.224
	c-0.051,0.051-0.111,0.101-0.172,0.142c-6.44,4.86-14.388,6.926-22.377,5.802c-11.372-1.913-12.94-0.997-14.59-3.179
	c-1.822-2.409-0.573-1.244,7.483-61.835c0.264-1.907,1.888-3.341,3.827-3.341c0.468,0-0.274-0.064,12.576,1.721
	c11.025,1.537,19.791,8.826,23.723,18.306C191.97,209.657,190.542,216.304,190.53,217.69z M202.276,235.784
	c2.351-6.34,2.505-11.062,3.068-14.347c16.717,4.187,47.964,11.965,70.948,17.628l11.462,24.432L202.276,235.784z"/>
<path d="M105.792,415.355H97.51c-2.673-10.814-6.47-23.055-11.836-36.522c13.426-17.628,17.567-34.547,12.292-50.312
	c-12.272-36.704-72.213-51.365-74.755-51.973c-4.387-1.039-8.722,1.942-9.295,6.419c-0.324,2.531-7.624,62.301,20.058,89.558
	c10.447,10.294,23.765,14.114,38.111,13.163c4.242,10.783,7.412,20.716,9.781,29.667c-2.116,0.116-12.016-0.707-24.868,2.946
	c-4.03,1.144-6.369,5.346-5.225,9.386c1.154,4.03,5.346,6.369,9.386,5.225c10.088-2.888,14.579-2.369,44.632-2.369
	c34.537,0,62.635,28.087,62.635,62.625c0,1.974-1.671,3.645-3.645,3.645H19.201c-1.974,0-3.645-1.671-3.645-3.645
	c0-18.215,7.999-35.529,21.941-47.508c3.189-2.734,3.554-7.523,0.82-10.702c-2.734-3.189-7.533-3.554-10.713-0.82
	c-17.304,14.864-27.237,36.38-27.237,59.03C0.368,503.546,8.823,512,19.201,512h145.581c10.378,0,18.833-8.455,18.833-18.833
	C183.615,450.257,148.703,415.355,105.792,415.355z M61.17,308.746L61.17,308.746l-2.915,15.938
	c-1.977-3.095-7.484-12.347-17.578-26.387C47.4,301.071,54.589,304.565,61.17,308.746z M30.196,329.886
	c-1.458-7.979-2.025-16.058-2.147-23.114c9.829,13.605,15.22,22.657,17.642,26.453L30.196,329.886z M34.874,346.43l21.011,4.529
	c3.645,6.764,6.875,13.305,9.761,19.601C41.695,369.308,35.818,347.435,34.874,346.43z M78.535,362.319
	c-2.582-5.569-5.437-11.309-8.576-17.212l4.692-25.653C75.13,320.98,94.596,335.264,78.535,362.319z"/>
<path d="M87.142,200.983c14.165-7.148,25.465-7.533,25.748-7.543c4.172-0.061,7.513-3.503,7.462-7.685
	c-0.051-4.192-3.493-7.533-7.685-7.503c-0.587,0.01-14.763,0.283-32.37,9.173c-3.746,1.883-5.245,6.46-3.362,10.196
	C78.857,201.437,83.477,202.833,87.142,200.983z"/>
<path d="M41.203,243.904c8.326,0,6.21-8.962,23.531-26.478c2.957-2.977,2.926-7.786-0.051-10.743
	c-2.987-2.946-7.796-2.916-10.743,0.061c-7.28,7.361-13.791,16.049-19.339,25.819C31.716,237.656,35.445,243.904,41.203,243.904z"/>
<path d="M70.242,285.924c3.443,0,6.561-2.359,7.381-5.852c1.752-7.391,4.161-14.58,7.179-21.344
	c1.701-3.837-0.02-8.323-3.848-10.024c-3.837-1.711-8.323,0.01-10.024,3.848c-3.402,7.624-6.126,15.714-8.09,24.027
	C61.719,281.337,65.337,285.924,70.242,285.924z"/>
<path d="M111.462,202.35c-0.476,0.294-11.867,7.442-23.885,22.64c-2.602,3.281-2.055,8.06,1.235,10.662
	c3.302,2.608,8.07,2.043,10.672-1.245c10.247-12.95,19.886-19.096,19.997-19.167c3.554-2.217,4.637-6.885,2.43-10.439
	C119.704,201.236,115.026,200.133,111.462,202.35z"/>
<g>
</g>
<g>
</g>
<g>
</g>
<g>
</g>
<g>
</g>
<g>
</g>
<g>
</g>
<g>
</g>
<g>
</g>
<g>
</g>
<g>
</g>
<g>
</g>
<g>
</g>
<g>
</g>
<g>
</g>
</svg>
