<?xml version="1.0" encoding="iso-8859-1"?>
<!-- Generator: Adobe Illustrator 19.0.0, SVG Export Plug-In . SVG Version: 6.00 Build 0)  -->
<svg version="1.1" id="Layer_1" xmlns="http://www.w3.org/2000/svg" xmlns:xlink="http://www.w3.org/1999/xlink" x="0px" y="0px"
	 viewBox="0 0 511.999 511.999" style="enable-background:new 0 0 511.999 511.999;" xml:space="preserve">
<path style="fill:#A67CAB;" d="M11.857,256.016c0-125.879,95.769-229.813,218.272-242.78c2.238-0.238,4.502-0.45,6.764-0.625
	c3.839-0.3,7.69-0.5,11.578-0.625c2.501-0.075,5.014-0.112,7.528-0.112c2.514,0,5.026,0.038,7.528,0.112
	c3.888,0.126,7.74,0.326,11.578,0.625c58.52,9.178,103.284,59.807,103.284,120.89c0,65.347-51.217,118.727-115.688,122.203
	c-2.213-0.126-4.452-0.187-6.703-0.187c-2.251,0-4.489,0.063-6.703,0.187c-1.45,0.075-2.876,0.175-4.301,0.313
	c-62.696,5.577-112.012,58.394-112.012,122.515c0,58.945,41.701,108.349,97.144,120.265
	C107.627,485.829,11.857,381.894,11.857,256.016z"/>
<path style="fill:#FFCEB3;" d="M281.871,498.795c-2.238,0.238-4.502,0.45-6.764,0.625c-0.013,0.013-0.025,0.013-0.038,0
	c-3.827,0.3-7.665,0.501-11.542,0.625c-2.501,0.075-5.014,0.112-7.528,0.112s-5.026-0.038-7.528-0.112
	c-3.876-0.124-7.715-0.326-11.542-0.625c-0.013,0.013-0.025,0.013-0.038,0c-58.52-9.177-103.284-59.807-103.284-120.89
	c0-65.347,51.217-118.727,115.688-122.203c0.013-0.013,0.013,0,0.013,0c2.213,0.126,4.439,0.187,6.69,0.187s4.477-0.063,6.69-0.187
	c0,0,0-0.013,0.013,0c1.45-0.075,2.876-0.175,4.301-0.313c62.696-5.577,112.012-58.394,112.012-122.515
	c0-58.945-41.701-108.349-97.144-120.265c122.502,12.967,218.272,116.901,218.272,242.78
	C500.142,381.894,404.374,485.829,281.871,498.795z"/>
<path d="M445.72,84.336C403.301,37.502,345.553,8.07,283.117,1.462c-0.966-0.103-23.861-2.006-35.025-1.31
	c-4.27,0.266-8.241,0.35-12.114,0.654c-2.247,0.174-4.638,0.394-7.097,0.656C166.446,8.07,108.699,37.502,66.28,84.336
	C23.549,131.51,0.017,192.481,0.017,256.016s23.532,124.506,66.262,171.68c42.42,46.833,100.167,76.266,162.604,82.874
	c0.423,0.045,7.015,0.673,7.623,0.693c3.708,0.283,7.504,0.485,11.612,0.618c2.607,0.078,5.258,0.118,7.883,0.118
	c2.625,0,5.276-0.04,7.908-0.12c4.082-0.131,7.878-0.334,11.587-0.617c0.315-0.011,0.628-0.034,0.939-0.07
	c2.122-0.168,4.369-0.378,6.687-0.623h-0.004c62.436-6.609,120.183-36.04,162.604-82.874c42.73-47.174,66.262-108.145,66.262-171.68
	S488.451,131.51,445.72,84.336z M23.697,256.016c0-119.162,89.283-218.473,207.681-231.005c2.241-0.238,4.403-0.438,6.437-0.596
	c3.517-0.275,7.127-0.469,11.012-0.594c2.37-0.072,4.785-0.108,7.172-0.108c2.388,0,4.801,0.036,7.148,0.107
	c3.739,0.121,7.202,0.303,10.573,0.56c53.819,8.659,92.829,54.479,92.829,109.122c0,58.528-45.574,106.877-103.866,110.345
	c-4.638-0.236-9.482-0.22-14,0.033c-1.718,0.089-3.296,0.204-4.737,0.345c-33.39,2.969-64.352,18.269-87.181,43.08
	c-22.971,24.965-35.622,57.364-35.622,91.229c0,30.936,10.784,61.173,30.369,85.156C75.051,425.347,23.697,346.391,23.697,256.016z
	 M280.624,487.021c-0.001,0-0.002,0-0.004,0c-2.166,0.23-4.252,0.424-6.208,0.577c-0.09,0.005-0.181,0.012-0.271,0.019
	c-3.5,0.275-7.097,0.469-10.97,0.594c-4.742,0.144-9.627,0.143-14.318,0.001c-3.755-0.122-7.228-0.307-10.606-0.566
	c-53.799-8.674-92.797-54.486-92.797-109.116c0-58.531,45.574-106.883,103.872-110.345c4.599,0.234,9.331,0.225,13.914-0.03
	c0.026-0.001,0.052-0.002,0.078-0.004c1.718-0.089,3.296-0.204,4.737-0.345c33.39-2.969,64.352-18.269,87.181-43.08
	c22.971-24.965,35.622-57.364,35.622-91.229c0-30.936-10.784-61.173-30.369-85.156c76.462,38.341,127.816,117.296,127.816,207.672
	C488.303,375.178,399.021,474.489,280.624,487.021z"/>
<path style="fill:#FFCEB3;" d="M255.999,182.99c-27.287,0-49.486-22.199-49.486-49.486s22.199-49.484,49.486-49.484
	s49.486,22.199,49.486,49.484S283.286,182.99,255.999,182.99z"/>
<path d="M255.999,194.83c-33.815,0-61.325-27.51-61.325-61.325s27.51-61.325,61.325-61.325s61.325,27.51,61.325,61.325
	S289.815,194.83,255.999,194.83z M255.999,95.86c-20.758,0-37.644,16.888-37.644,37.644s16.888,37.644,37.644,37.644
	s37.644-16.888,37.644-37.644S276.758,95.86,255.999,95.86z"/>
<path style="fill:#9A7BA8;" d="M255.999,428.011c-27.287,0-49.486-22.199-49.486-49.484s22.199-49.486,49.486-49.486
	s49.486,22.199,49.486,49.486C305.485,405.813,283.286,428.011,255.999,428.011z"/>
<path d="M255.999,439.851c-33.815,0-61.325-27.51-61.325-61.325s27.51-61.325,61.325-61.325s61.325,27.51,61.325,61.325
	S289.815,439.851,255.999,439.851z M255.999,340.881c-20.758,0-37.644,16.888-37.644,37.644s16.888,37.644,37.644,37.644
	s37.644-16.888,37.644-37.644S276.758,340.881,255.999,340.881z"/>
<path d="M102.41,141.214c-0.77,0-1.551-0.083-2.321-0.237c-0.746-0.154-1.492-0.379-2.214-0.675
	c-0.71-0.296-1.397-0.663-2.036-1.089c-0.651-0.426-1.255-0.924-1.8-1.468c-0.545-0.545-1.042-1.148-1.48-1.8
	c-0.426-0.639-0.793-1.338-1.089-2.048c-0.296-0.71-0.521-1.456-0.675-2.214c-0.154-0.758-0.225-1.539-0.225-2.309
	c0-0.781,0.071-1.551,0.225-2.321c0.154-0.758,0.379-1.492,0.675-2.214c0.296-0.71,0.663-1.397,1.089-2.036
	c0.438-0.651,0.935-1.255,1.48-1.812c0.545-0.545,1.148-1.03,1.8-1.468c0.639-0.426,1.326-0.793,2.036-1.089
	c0.722-0.296,1.468-0.521,2.214-0.675c1.527-0.308,3.102-0.308,4.629,0c0.758,0.154,1.504,0.379,2.214,0.675
	c0.722,0.296,1.409,0.663,2.048,1.089c0.651,0.438,1.255,0.924,1.8,1.468c0.545,0.556,1.042,1.16,1.468,1.812
	c0.426,0.639,0.793,1.326,1.089,2.036c0.296,0.722,0.521,1.456,0.675,2.214c0.154,0.77,0.237,1.539,0.237,2.321
	c0,0.77-0.083,1.551-0.237,2.309c-0.154,0.758-0.379,1.504-0.675,2.214c-0.296,0.71-0.663,1.409-1.089,2.048
	c-0.426,0.651-0.924,1.255-1.468,1.8c-0.545,0.545-1.148,1.042-1.8,1.468c-0.639,0.426-1.326,0.793-2.048,1.089
	c-0.71,0.296-1.456,0.521-2.214,0.675C103.961,141.13,103.179,141.214,102.41,141.214z"/>
<path d="M90.553,382.782c-3.715,0-7.372-1.743-9.679-5.007c-24.949-35.298-38.137-76.807-38.137-120.04
	c0-31.122,6.756-61.126,20.078-89.178c2.528-5.323,5.321-10.606,8.299-15.705c3.299-5.645,10.55-7.548,16.196-4.249
	c5.647,3.299,7.548,10.551,4.249,16.196c-2.64,4.518-5.115,9.201-7.354,13.917c-11.805,24.854-17.79,51.439-17.79,79.02
	c0,38.311,11.686,75.093,33.794,106.371c3.775,5.34,2.505,12.728-2.835,16.503C95.301,382.076,92.915,382.782,90.553,382.782z"/>
<path d="M409.589,394.498c-0.77,0-1.551-0.071-2.309-0.225s-1.504-0.379-2.214-0.675c-0.722-0.296-1.409-0.663-2.048-1.089
	c-0.651-0.438-1.255-0.924-1.8-1.48c-0.545-0.545-1.042-1.148-1.468-1.8c-0.426-0.639-0.793-1.326-1.089-2.036
	c-0.296-0.71-0.521-1.456-0.675-2.214c-0.154-0.77-0.237-1.539-0.237-2.321c0-0.77,0.083-1.551,0.237-2.309s0.379-1.504,0.675-2.214
	c0.296-0.71,0.663-1.409,1.089-2.048c0.426-0.651,0.924-1.255,1.468-1.8c0.545-0.545,1.148-1.042,1.8-1.468
	c0.639-0.426,1.326-0.793,2.048-1.089c0.71-0.296,1.456-0.521,2.214-0.675c1.527-0.308,3.102-0.308,4.629,0
	c0.746,0.154,1.492,0.379,2.214,0.675c0.71,0.296,1.397,0.663,2.036,1.089c0.651,0.426,1.255,0.924,1.8,1.468
	c0.545,0.545,1.042,1.148,1.48,1.8c0.426,0.639,0.793,1.338,1.089,2.048c0.296,0.71,0.521,1.456,0.675,2.214
	s0.225,1.539,0.225,2.309c0,0.781-0.071,1.551-0.225,2.321c-0.154,0.758-0.379,1.504-0.675,2.214
	c-0.296,0.71-0.663,1.397-1.089,2.036c-0.438,0.651-0.935,1.255-1.48,1.8c-0.545,0.556-1.148,1.042-1.8,1.48
	c-0.639,0.426-1.326,0.793-2.036,1.089c-0.722,0.296-1.468,0.521-2.214,0.675C411.14,394.427,410.359,394.498,409.589,394.498z"/>
<path d="M430.651,365.048c-2.028,0-4.084-0.521-5.963-1.619c-5.647-3.299-7.548-10.551-4.249-16.196
	c2.64-4.518,5.115-9.201,7.354-13.917c11.805-24.854,17.79-51.439,17.79-79.02c0-38.311-11.686-75.093-33.794-106.371
	c-3.775-5.34-2.505-12.728,2.835-16.503c5.34-3.775,12.728-2.505,16.503,2.835c24.949,35.298,38.137,76.807,38.137,120.04
	c0,31.122-6.756,61.126-20.078,89.178c-2.528,5.323-5.321,10.606-8.299,15.705C438.684,362.947,434.722,365.048,430.651,365.048z"/>
<g>
</g>
<g>
</g>
<g>
</g>
<g>
</g>
<g>
</g>
<g>
</g>
<g>
</g>
<g>
</g>
<g>
</g>
<g>
</g>
<g>
</g>
<g>
</g>
<g>
</g>
<g>
</g>
<g>
</g>
</svg>
