<svg id="Layer_2_copy_2" height="512" viewBox="0 0 64 64" width="512" xmlns="http://www.w3.org/2000/svg" data-name="Layer 2 copy 2"><path d="m8 18.333a3.586 3.586 0 0 1 -3.5 3.667 3.586 3.586 0 0 1 -3.5-3.667c0-2.025 3.5-7.333 3.5-7.333s3.5 5.308 3.5 7.333z" fill="#e90d39"/><path d="m53.571 49h5.078a4.351 4.351 0 0 0 4.351-4.351v-9.649h-5s1 5-3 8l-5 3h-35l-6-3a7 7 0 0 1 -3-7h-5v7a5 5 0 0 0 5 5h4z" fill="#e29344"/><path d="m1 27h6v9h-6z" fill="#edba70"/><path d="m11.972 46.111-1.972 7.889v10h8v-11z" fill="#e29344"/><path d="m12 46-.028.111 6.028 6.889v11h7v-20.6z" fill="#3b71b7"/><path d="m54 54-2-7-6 6v11h8z" fill="#e29344"/><path d="m52 47-13-3v20h7v-11z" fill="#3b71b7"/><path d="m37 43v-5.379l-10-.31v5.689l-2 .4v20.6h14.667v-20.289z" fill="#e29344"/><path d="m39.12 43.56a15.03 15.03 0 0 1 -6.62 1.44 14.755 14.755 0 0 1 -7.08-1.68l1.58-.32v-5.69l10 .31v5.38z" fill="#b26b2b"/><path d="m32.6 2h-1.2c-1.464 0-2.365 1.977-2.365 4.417l-.035.583h6v-1c0-2.439-.936-4-2.4-4z" fill="#f3b61a"/><path d="m21.6 2h-1.2c-1.464 0-2.365 1.977-2.365 4.417l-.035.583h6v-1c0-2.439-.936-4-2.4-4z" fill="#f3b61a"/><path d="m43.6 2h-1.2c-1.464 0-2.365 1.977-2.365 4.417l-.035.583h6v-1c0-2.439-.936-4-2.4-4z" fill="#f3b61a"/><path d="m27 39h-6a4 4 0 0 1 -4-4v-4h-4l3-5v-8h11z" fill="#e29344"/><path d="m16 16h11.5v6.667h-11.5z" fill="#bc6f2a"/><path d="m37 39h7a4 4 0 0 0 4-4v-4h4l-3-5v-8h-12z" fill="#e29344"/><path d="m36.466 16h12.534v6.667h-12.534z" fill="#bc6f2a"/><path d="m33 7h-2c-2.439 0-3.942 1.977-3.942 4.417l-.058.583h10v-1a3.739 3.739 0 0 0 -4-4z" fill="#ce9109"/><path d="m22 7h-2c-2.439 0-3.942 1.977-3.942 4.417l-.058.583h10v-1a3.739 3.739 0 0 0 -4-4z" fill="#ce9109"/><path d="m44 7h-2c-2.439 0-3.942 1.977-3.942 4.417l-.058.583h10v-1a3.739 3.739 0 0 0 -4-4z" fill="#ce9109"/><path d="m57 26h6v9h-6z" fill="#edba70" transform="matrix(-1 0 0 -1 120 61)"/><path d="m23 18h-7l-4-6h7z" fill="#b27908"/><path d="m42 18h7l4-6h-7z" fill="#b27908"/><path d="m5 54h7v8h-7z" fill="#fdb25a"/><path d="m52 54h7v8h-7z" fill="#fdb25a"/><path d="m42 18v15.1c0 2.858-10 6.9-10 6.9s-9-4.042-9-6.9v-15.1z" fill="#edba70"/><path d="m31.2 39.62c-2.2-1.06-8.2-4.19-8.2-6.52v-15.1h7.58v18a7.959 7.959 0 0 0 .62 3.62z" fill="#f9cc91"/><path d="m23 16h19v6.667h-19z" fill="#ce964d"/><path d="m23 18-4-6h27l-4 6z" fill="#f3b61a"/><path d="m6.69 14.75a6.951 6.951 0 0 1 -5.68 3.73.756.756 0 0 1 -.01-.15c0-2.02 3.5-7.33 3.5-7.33s1.2 1.83 2.19 3.75z" fill="#f9537b"/><path d="m36.16 15h4v3h-4z" fill="#ce9109"/><g fill="#2d0512"><path d="m28 24a1 1 0 0 0 -1 1v2a1 1 0 0 0 2 0v-2a1 1 0 0 0 -1-1z"/><path d="m26 63v-12a1 1 0 0 0 -2 0v12a1 1 0 0 0 2 0z"/><path d="m37 24a1 1 0 0 0 -1 1v2a1 1 0 0 0 2 0v-2a1 1 0 0 0 -1-1z"/><path d="m33 63v-7a1 1 0 0 0 -2 0v7a1 1 0 0 0 2 0z"/><path d="m63 41a1 1 0 0 0 -1 1v2.649a3.354 3.354 0 0 1 -3.351 3.351h-5.323l-.364-1.274c-.007-.023-.02-.042-.028-.065s-.021-.05-.033-.075a1 1 0 0 0 -.19-.285v-.007a.992.992 0 0 0 -.292-.194c-.027-.012-.053-.023-.081-.033s-.048-.024-.074-.031l-14.264-3.805v-2.231h6a5.006 5.006 0 0 0 5-5v-3h3a1 1 0 0 0 .857-1.515l-2.857-4.762v-2.723a1 1 0 0 0 -2 0v3a.994.994 0 0 0 .143.515l2.09 3.485h-2.233a1 1 0 0 0 -1 1v4a3 3 0 0 1 -3 3h-5.58c4.151-2.494 4.58-4.29 4.58-4.9v-6.1a1 1 0 0 0 2 0v-2a1 1 0 0 0 -2 0v-6h5a1 1 0 0 0 2 0v-.7l3.832-5.748a1 1 0 0 0 -.832-1.552h-4a4.818 4.818 0 0 0 -2-4.123v-.877c0-2.908-1.191-6-3.4-6h-1.2c-2.451 0-3.365 3.936-3.363 6.356l-.037.583c0 .032.012.061.013.093a4.934 4.934 0 0 0 -1.413 1.849 4.431 4.431 0 0 0 -1.6-2v-.881c0-2.908-1.191-6-3.4-6h-1.2c-2.451 0-3.365 3.936-3.363 6.356l-.037.583c0 .032.012.061.013.093a4.934 4.934 0 0 0 -1.413 1.849 4.431 4.431 0 0 0 -1.6-2v-.881c0-2.908-1.191-6-3.4-6h-1.2c-2.451 0-3.365 3.936-3.363 6.356l-.037.583c0 .032.012.061.013.093a5.384 5.384 0 0 0 -1.921 3.968h-3.092a1 1 0 0 0 -.832 1.555l3.832 5.745v7.42l-2.857 4.763a1 1 0 0 0 .857 1.517h3v3a5.006 5.006 0 0 0 5 5h5v2.181l-6.2 1.239a1 1 0 0 0 .2 1.98.972.972 0 0 0 .2-.02l3.8-.76v2.38a1 1 0 0 0 2 0v-2.78l1.2-.239a1 1 0 0 0 .8-.981v-3.9c1.459.823 2.822 1.469 3.59 1.814a1 1 0 0 0 .785.015c1.386-.56 2.575-1.1 3.625-1.617v3.688a1 1 0 0 0 .742.966l1.258.334v18.7a1 1 0 0 0 2 0v-18.165l10.066 2.685-4.773 4.773a1 1 0 0 0 -.293.707v4a1 1 0 0 0 2 0v-3.586l4.505-4.505 1.169 4.091h-.674a1 1 0 0 0 -1 1v8a1 1 0 0 0 1 1h7a1 1 0 0 0 1-1v-8a1 1 0 0 0 -1-1h-4.245l-.855-3h4.752a5.357 5.357 0 0 0 5.348-5.351v-2.649a1 1 0 0 0 -1-1zm-5 20h-5v-6h5zm-6.868-48-2.667 4h-4.6l2.667-4zm-5.132-2h-6.923a2.954 2.954 0 0 1 2.923-3h2a2.756 2.756 0 0 1 3 3zm-4.956-5c.1-2.336.972-4 1.356-4h1.2c.492 0 1.4 1.649 1.4 4zm-10.044 2h2a2.756 2.756 0 0 1 3 3h-7.923a2.954 2.954 0 0 1 2.923-3zm-.956-2c.1-2.336.972-4 1.356-4h1.2c.492 0 1.4 1.649 1.4 4zm-11 0c.1-2.336.972-4 1.356-4h1.2c.492 0 1.4 1.649 1.4 4zm.956 2h2a2.756 2.756 0 0 1 3 3h-7.923a2.954 2.954 0 0 1 2.923-3zm-4 5h2.465l2.667 4h-4.6l-2.667-4zm5 25a3 3 0 0 1 -3-3v-4a1 1 0 0 0 -1-1h-2.233l2.091-3.485a.994.994 0 0 0 .142-.515v-7h5v6a1 1 0 0 0 -2 0v2a1 1 0 0 0 2 0v6.1c0 1.639 1.864 3.352 4 4.778v.122zm11.021.91c-3.945-1.827-8.021-4.531-8.021-5.81v-14.1h4a1 1 0 0 0 0-2h-4.465l-2.667-4h23.264l-2.667 4h-9.465a1 1 0 0 0 0 2h9v14.1c0 1.247-4.651 4.009-8.979 5.81z"/><path d="m63 25h-6a1 1 0 0 0 -1 1v9a1 1 0 0 0 1 1h.1a7.177 7.177 0 0 1 -2.7 6.2 1 1 0 1 0 1.2 1.6 9.065 9.065 0 0 0 3.5-7.8h2.9v2a1 1 0 0 0 2 0v-12a1 1 0 0 0 -1-1zm-5 2h4v7h-4z"/><path d="m12 63a1 1 0 0 0 1-1v-8a1 1 0 0 0 -1-1h-.72l1.22-4.88 4.5 5.25v10.63h2v-11a.994.994 0 0 0 -.241-.65l-4.889-5.7 2.326-.465a1 1 0 0 0 -.396-1.965l-4 .8a1 1 0 0 0 -.773.738l-.307 1.242h-4.72a4 4 0 0 1 -4-4v-6h2.89a8.111 8.111 0 0 0 3.51 6.8 1 1 0 1 0 1.2-1.6 6.169 6.169 0 0 1 -2.711-5.2h.111a1 1 0 0 0 1-1v-9a1 1 0 0 0 -1-1h-2v-3.052a4.6 4.6 0 0 0 4-4.615c0-2.212-3.053-6.955-3.665-7.884a1.039 1.039 0 0 0 -1.67 0c-.612.929-3.665 5.672-3.665 7.884a4.651 4.651 0 0 0 3 4.38v3.287h-2a1 1 0 0 0 -1 1v16a6.007 6.007 0 0 0 6 6h4.22l-1 4h-4.22a1 1 0 0 0 -1 1v8a1 1 0 0 0 1 1zm-10-44.667c0-.962 1.278-3.435 2.5-5.457 1.222 2.024 2.5 4.494 2.5 5.457a2.59 2.59 0 0 1 -2.5 2.667 2.59 2.59 0 0 1 -2.5-2.667zm0 9.667h4v7h-4zm4 27h5v6h-5z"/><path d="m47 63v-2a1 1 0 0 0 -2 0v2a1 1 0 0 0 2 0z"/><path d="m26 14h-1a1 1 0 0 0 0 2h1a1 1 0 0 0 0-2z"/><path d="m30 14h-1a1 1 0 0 0 0 2h1a1 1 0 0 0 0-2z"/></g></svg>