<svg id="Capa_1" enable-background="new 0 0 512.02 512.02" height="512" viewBox="0 0 512.02 512.02" width="512" xmlns="http://www.w3.org/2000/svg"><g><g><path d="m475.01 256.01s-11.64 35.81-51.54 68.3l-49.15-202.5c-6.38-26.28-30.07-45.8-58.31-45.8-19.88 0-37.51 9.67-48.42 24.56-5.53 7.54-17.63 7.54-23.16 0-10.91-14.89-28.54-24.56-48.42-24.56-28.24 0-51.93 19.52-58.31 45.8l-49.15 202.5c-39.9-32.49-51.54-68.3-51.54-68.3-15.8 18.44-27.01 39.72-27.01 63.71 0 109.7 202.36 116.29 246.01 116.29s246.01-6.59 246.01-116.29c0-24.03-11.25-45.32-27.01-63.71z" fill="#c1b0b5"/><path d="m319.27 209.01-36.15 35.52 18.08 45.19-45.19-27.12-45.19 27.12 18.08-45.19-36.15-35.52h45.19l18.07-46 18.07 46z" fill="#ffda8f"/></g><g><path d="m319.27 199.01h-38.374l-15.578-39.656c-1.503-3.827-5.196-6.344-9.308-6.344s-7.805 2.517-9.308 6.344l-15.578 39.656h-38.374c-4.061 0-7.718 2.455-9.256 6.214-1.537 3.758-.649 8.073 2.247 10.919l31.4 30.854-15.606 39.009c-1.595 3.986-.468 8.545 2.801 11.328 3.267 2.783 7.947 3.171 11.629.961l40.045-24.032 40.045 24.032c3.688 2.214 8.369 1.817 11.629-.961 3.269-2.783 4.396-7.342 2.801-11.328l-15.606-39.009 31.4-30.854c2.896-2.846 3.784-7.161 2.247-10.919-1.539-3.759-5.196-6.214-9.256-6.214zm-45.434 49.234 7.05 17.622-19.73-11.841c-3.155-1.894-7.112-1.908-10.291 0l-19.73 11.841 7.05-17.622c1.498-3.744.601-8.021-2.275-10.848l-18.713-18.387h20.744c4.111 0 7.805-2.517 9.308-6.344l8.763-22.307 8.763 22.307c1.503 3.827 5.196 6.344 9.308 6.344h20.744l-18.713 18.387c-2.879 2.827-3.776 7.104-2.278 10.848z"/><path d="m473.051 246.203c-3.546.709-6.434 3.276-7.551 6.716-.095.291-8.712 26.007-36.242 52.844l-45.221-186.313c-7.639-31.465-35.612-53.44-68.027-53.44-22.226 0-43.342 10.71-56.483 28.646-1.068 1.456-2.962 1.569-3.517 1.569s-2.448-.113-3.514-1.565c-13.144-17.94-34.261-28.65-56.486-28.65-32.415 0-60.389 21.976-68.027 53.441l-45.219 186.301c-27.311-26.687-36.155-52.566-36.244-52.833-1.117-3.439-4.005-6.008-7.552-6.716-3.548-.706-7.199.554-9.552 3.3-19.52 22.781-29.416 46.406-29.416 70.217 0 94.77 131.762 118.688 210.304 124.51.252.019.501.027.75.027 5.187 0 9.572-4.005 9.962-9.261.408-5.508-3.726-10.304-9.233-10.712-76.517-5.671-191.783-28.134-191.783-104.564 0-14.897 4.862-29.521 14.799-44.367 41.487 77.733 132.364 110.657 221.211 110.657 116.354 0 189.249-50.771 221.211-110.658 9.938 14.844 14.799 29.467 14.799 44.368 0 76.431-115.266 98.893-191.782 104.565-5.508.408-9.642 5.204-9.233 10.712.39 5.256 4.775 9.261 9.962 9.261.248 0 .498-.009.75-.027 78.542-5.822 210.304-29.74 210.304-124.511 0-23.816-9.897-47.44-29.417-70.217-2.354-2.746-6.004-4.006-9.553-3.3zm-373.267 74.219 47.634-196.253c5.454-22.468 25.436-38.159 48.592-38.159 15.876 0 30.962 7.652 40.356 20.474 4.474 6.1 11.816 9.741 19.644 9.741s15.17-3.642 19.646-9.745c9.392-12.817 24.478-20.47 40.354-20.47 23.156 0 43.138 15.691 48.592 38.158l47.634 196.254c-39.751 30.249-92.266 45.588-156.226 45.588s-116.475-15.339-156.226-45.588z"/><circle cx="256.01" cy="436.01" r="10"/></g></g></svg>