<svg id="Layer_1" enable-background="new 0 0 512 512" viewBox="0 0 512 512" xmlns="http://www.w3.org/2000/svg"><path d="m492.2 136.5h-1.5c-1.6 0-5 .3-5 2 0 2.8-.3 6.1-3.1 6.1-.7 0-1.4 0-2.1-.1-10.5-1.3-20.9-11.4-25-15.9-1.8-1.9-3.8-3.7-5.9-5.2-4.5-3.3-17.6-13.4-24.4-26.3-1 2.4-2 4.9-2.9 7.3-.8 2.1-2.8 3.5-5.1 3.3l-9.4-.6c-5.8-.4-10.9 3.7-11.7 9.5-.4 2.8-3 4.7-5.8 4.3-.2 0-.4-.1-.6-.1l-10.2-2.7c-6.7-1.8-12.7-5.3-17.5-10.3-.1 4.7 1.3 9.3 4 13.1 1.6 2.3 1 5.5-1.3 7.1-.7.5-1.4.8-2.2.9s-15.1 1.3-26.6-5.2c1 13 4.3 27.5 10.7 30.3 2.6 1.1 3.8 4.1 2.7 6.7-.8 1.8-2.8 2.3-4.7 2.3-7.2.1-15.2-1.2-22.3-2.8 6.7 7.2 15.9 14.2 25 18 15.2 6 29.6 2.2 44.9-1.8 4.5-1.2 9.1-2.4 13.8-3.4 7.6-1.7 15.3-2.6 23-2.8 3.4 0 6.8.3 10.2.8 7.3 1.3 14.1 4.2 19.3 9.9.7.8 1.2 1.7 1.3 2.8l1 7.6c1.1-1.9 1.6-4.1 1.4-6.4-.3-2.8 1.7-5.3 4.5-5.6 1.1-.1 2.3.1 3.3.8 1.3.9 2.6 1.9 3.8 3-.3-.6-.6-1.2-1-1.8-1.5-2.4-.8-5.5 1.6-7 .8-.5 1.7-.8 2.7-.8h10.1l-.2-5.2c-9.8 1-29.6 3.5-47.2.3-4.2-.7-7.4-2.6-11.4-4-2.6-1-5.2-2.8-4.2-5.4.2-.6.5-1.1.9-1.6.7-.8 16.3-17.6 55.3-11.8 3.5.5 7.2 1.1 11.1 2 1.6.4 3.2-1 3.6-2.6.1-.2.1-.4.1-.7v-4.9c0-1.7-1.3-3.1-3-3.1z" fill="#8dc63f"/><path d="m479 291.1-1.6-7.7c-.8-2.4-2.2-4.5-4.1-6.2-6.6-6.2-14.9-7.4-20.7-7.4-7.5.1-13.7 2.3-20.3 4.6l-.5.2c-1.4.5-2.9 1-4.3 1.5l-4.8-5.8c-22.3-30.5-58.2-48.8-96-48.8h-112.6c-6.4 0-12.7-1-18.7-3.1l-1.1-3.2c1.8-1.3 3.6-2.6 5.5-4.1l.1-.1c5.3-3.9 10.7-8 16.6-10.8 10.6-5 24.3-10.2 35.9-5 2.2 1 4.1 2.4 5.8 4.3l5.7 6.5 3.7-7c1.2-2.2 3.9-3.1 6.1-1.9l5.3 2.8 2.3-5.6c.5-1.3 1.6-2.2 2.9-2.7l7.2-2.4-5.2-6.9-.4-.5c-9.4-10-14.9-12-21.6-13.7-8.5-2.2-18.2-1.7-30.6 1.5-11.2 3.1-22.2 7.2-32.6 12.3-13.8 6.5-29.4 8-44.1 4.3l.7-6.5-.3-1c-6-20.9.1-43.3 15.9-58.3 11.2-10.8 26-16.7 41.6-16.7h.1c13.6 0 26.7 4.1 35.4 7.1 3.2 1.1 6.4 2.4 9.5 3.6l.3.1c5 1.9 9.7 3.8 14.7 5.3 0 2.7-.7 5.4-2.1 7.8-1.7 3-4.2 5.6-7.2 7.5l-15.1 9.2 17.6.9c8.3.4 15.8-2.9 21.7-9.7.2 2.9.5 9.9-2.2 15.4l-4 8.2 9.1-.2c5.7-.2 11.3-1.9 16-5.2l3.8-2.6-.8-1.8c4.1 4 11.4 6.7 21.7 8.1l10.5 1.4-4.8-9.4c-5.8-11.2-6.1-28.9-6-34.8 5.5 7.3 14.5 9.5 21.3 10l8.4.6-2.8-7.9c-.8-2.4-1.3-4.9-1.4-7.4l-.1-3.4-3-1.4c-15.6-7.3-61.3-31-69.3-35.6-9.5-5.3-19.5-10-29.6-13.9l-1.8-.7c-12.6-5.1-26.9-10.9-40.5-10.1-10.4.6-19.1 1.2-28.1 3.4s-17.7 5.5-26 9.8c-16.2 8.4-30.4 20.6-41.2 35.3-12 16.4-19.6 35.8-21.9 56-.5 4.6-.8 9.4-.8 14 .3 64.7 53.9 117.3 119.3 117.3h111.9c15.4 0 30 6 41 16.8 11.1 10.8 17.5 25.8 17.5 41.3 0 15.3-6 29.6-16.9 40.4-10.8 10.7-25.2 16.7-40.4 16.7 0 0 0 0-.1 0-7.9 0-15.6-1.6-22.9-4.8l-85.6-36.7-2.6 3.4c-10.1 13.4-16.8 28.7-21.4 40.5l-1.7 4.3 3.9 2.4c15.1 9.2 31 17.4 47.3 24.4l36.8 15.8c14.6 6.3 30 9.4 45.9 9.4h1c31.1-.3 60.2-12.7 82.1-34.9 21.8-22.2 33.7-51.6 33.5-82.6-.1-12.2-2.1-24.3-6.1-35.8l3.6-9.8c3.9-1.7 8.4-1.8 12.5-.5.9.3 1.8.7 2.7 1.1l9.3 4.8-1.3-10.1c1.1.9 2.1 1.7 3.1 2.6l5.6 4.7c2.1 1.8 5.4-.1 4.8-2.9z" fill="#8dc63f"/><path d="m381 288.6c-1.5-2.3-.8-5.3 1.4-6.8" fill="#8dc63f"/><path d="m236.2 331.5c-25.9 8.1-49.1 25.6-71 53.4l-.1.1s0 .1-.1.1l-.1.1c-6.3 8.1-11.6 15.8-15.4 21.4l-.2.4c-1.7 2.5-3.1 4.6-4.5 6.5-4.5 6.4-11.6 10.6-19.4 11.5-1 .1-1.9.1-2.8.1-6.1-.1-12.1-1.9-17.3-5.3-11.5-7.3-16.7-19.1-14.4-32.5 1.7-10.9 9.2-20.2 19.6-24.2 10.1-4.3 21.9-2.8 30.7 3.8l21.9 14.3 1.7-2.1c8-10 17-19.2 26.8-27.4l3.8-3.1-36.6-15.7c-.1 0-.1-.1-.2-.1-10.4-5-22.1-7.4-33.7-6.7-37.8 2.1-66.9 34.6-64.8 72.4 2.1 36.4 30.3 64.8 66.7 64.8.9 0 3.8 0 4.7-.1 22.5-.9 43-15.3 52.1-36.8 1.8-4.2 3.6-9.2 5.6-14.4l.1-.3c1-2.7 2-5.5 3.1-8.3l.2-.5c5.8-15.2 13.4-32.7 25.4-47.4 5.9-7.3 12.9-13.6 20.8-18.7l18.4-11.9z" fill="#8dc63f"/><path d="m351.5 342.6c-7.5 5.5-18.2 11.6-26.2 9.5-3-.8-7-3.1-8.9-9.4-1.6-5.3.3-8.5 1.6-10 2-2.2 4.8-3.5 7.8-3.8l1.1-.1-.3-1.1c-.1-.5-.2-.9-.3-1.4l-.2-.9c-1.2-4.9-1.8-7.5-2-8-2.9-8.4-10-11.9-15.5-13.3-14.7-3.9-28.5 6.1-35.1 17-1.2 1.9-2 4-2.4 6.2v.1c0 .3-.1.6-.1.9l-.1.3c0 .1 0 .2-.1.4l-.2 1.3c-.2 1-3.5 23.9 12.9 33.7l1.4.8.9-13.9c.1-2.1 1.9-3.8 4.1-3.8s3.9 1.7 4.1 3.9c.1 1.5 1.4 14.9 16 17.7l2 .4-2.7-5.3c-.6-1.1-.6-2.5 0-3.6 1-2 3.4-2.9 5.5-1.9.8.4 20.2 9.4 35.8-10.6.9-1.2 1.7-2.5 2.4-3.9l1.6-3.5z" fill="#de3c44"/><path d="m290.5 66.9c-2.9-10.7-7.5-18.9-13.5-24.3l-3-2.7-5.3 11.8c-.4.8-1.2 1.3-2 1.1-.2 0-.4-.1-.5-.2-.6-.3-1.1-.9-1.1-1.6 0-.6-1.3-13.7-11.8-19.6l-4.7-2.6.5 11.6c0 .5-.2 1-.5 1.4-.4.4-.8.6-1.3.6-.6 0-1.2-.2-1.5-.7l-.1-.1c-4.2-4.5-9-8.3-14.3-11.4-7.2-4.2-14.4-6.4-21.4-6.4l-8.9-.1 7 5.4c5.6 4.4 13.7 10.8 20 16.8l.6.6.8.2c8.7 2 17.4 5.5 25.1 8.6l1.8.7c2.5 1 4.9 2 7.1 3 7.7 3.2 15.4 7 22.6 11l6.7 4.5z" fill="#de3c44"/><path d="m145.3 320.9c-40.7-9.2-81.2 16.4-90.3 57.1-7.4 32.8 7.8 66.6 37.2 82.8l4.6 16.8c-24.2-7.2-33.9-36.5-34-36.8-.8-2.6-3.6-4-6.2-3.2-1.3.4-2.3 1.3-2.9 2.5l-2.7 5.4c-21.8-39.3-5.5-64.1-4.8-65.2 1.6-2.2 1-5.3-1.2-6.9-1.4-1-3.2-1.2-4.8-.5l-13.9 6.1c8.3-13.9 20-25.4 34-33.4 2.4-1.2 3.4-4.2 2.2-6.6-1-2-3.2-3-5.3-2.6l-13.2 2.6c11.6-13.2 31.8-19.6 32-19.6 2.6-.8 4.1-3.6 3.3-6.2-.4-1.2-1.2-2.2-2.2-2.8l-6.1-3.5c16.7-2 33.9 5.1 34.1 5.2 2.5 1.1 5.4-.1 6.5-2.7.6-1.3.5-2.8-.1-4.1l-2.8-5.6c10.8 3 24.7 12.1 36.6 21.2z" fill="#de3c44"/><path d="m142 259c-30-22.6-47.3-56.8-47.5-93.9 0-4.7.2-9.5.8-14.2 1.2-10.3 3.7-20.4 7.5-30l2-5.1-5.5.3c-9.6.6-27.9 4.7-42.6 26.1l-4.2 6.1 7.4-.6c5.8-.5 12 1.2 18.4 5.1l.6.6c.3.7 0 1.6-.7 1.9l-.2.1c-12 6.3-20.5 17.5-23.3 30.8l-1.3 6 23.7-7.9c.5-.2 1-.1 1.4.2s.5.7.5 1c0 .2 0 .7-.3 1.1l-.1.1c-.3.4-3.2 4.5-6.1 13.6-1.8 5.8-4.2 15.8-5.3 30.3l-.8 11.5 18.6-23.9c.3-.4.8-.6 1.2-.6.5 0 .8.3 1 .5s.4.5.3 1c0 .2-1.7 23.6 11.5 41.8l6.3 8.7v-23.9c0-.4.2-.9.6-1.1.4-.3.8-.3 1.1-.3.2 0 .6.1.9.5.1.1 11.8 14.9 30.9 20.3l17.8 5z" fill="#de3c44"/><path d="m421.8 137c-4.4.5-8.3-2.7-8.7-7.1-.2-1.9.3-3.8 1.4-5.4.1 5.4 4.5 9.6 9.8 9.6 1.1 0 2.3-.2 3.4-.6-1.4 2-3.5 3.3-5.9 3.5z" fill="#f4c161"/><path d="m79.8 216.4c.8-5 1.9-9.8 3.4-14.6 2.8-8.8 5.6-12.6 5.6-12.6 1.7-2.1 1.3-5.2-.8-6.9-1.3-1-3.1-1.4-4.6-.8l-4.5 1.5.3.3c1.3 1.8 1.2 4.2-.2 5.9 0 0-2.8 3.7-5.6 12.6-1.9 6.2-4.1 15.8-5.1 29.5l11.5-14.7c-.1-.2 0-.2 0-.2z" fill="#c92b32"/><path d="m76.4 158c-11.5 6-19.7 16.9-22.4 29.6l11.3-3.7c3.4-11.1 11.1-20.4 21.4-25.8.7-.3 1.2-.7 1.7-1.3.1-2.1.3-4.1.5-6.1-.4-.7-1-1.3-1.7-1.7-8.4-5.1-15.6-6.3-21.4-5.8 9.8-14.4 21.2-20.8 30.5-23.6.2-.7.5-1.3.7-2-9.5.5-27.1 4.7-41.5 25.6 5.8-.5 13 .7 21.4 5.8 2.4 1.5 3.2 4.6 1.7 7.1-.4.8-1.2 1.5-2.2 1.9z" fill="#c92b32"/><path d="m99.1 220.4c.2-2.7-1.8-5.1-4.6-5.3-1.6-.1-3.2.6-4.3 1.9l-1.3 1.6c.2.6.2 1.2.2 1.8 0 .3-1.4 22.6 10.9 39.4v-13.2c0-1.5.7-2.9 1.8-3.8-2.1-7.2-3-14.8-2.7-22.4z" fill="#c92b32"/><path d="m118.1 242.3c-2.6-1-5.5.4-6.5 3 0 .1 0 .1-.1.2 3.5 3.8 13.7 13.9 28.6 18-8.2-6.1-15.6-13.2-22-21.2z" fill="#c92b32"/><path d="m147.8 317.8c-10.6-8.1-25.8-18.5-38.1-22l-8.7-2.5 6.9 13.7c.1.2.1.5 0 .8s-.3.4-.5.5-.4.1-.7 0c-.2-.1-18.4-7.6-36.2-5.5l-12 1.4 16.6 9.5c.2.1.4.3.4.5.2.5-.1 1-.7 1.2-.9.3-21.7 7-33.8 20.8l-7.7 8.7 24.6-4.7c.4-.1.8.1 1 .5.1.3.1.6.1.7-.1.2-.2.4-.5.5l-.2.1c-14.6 8.4-26.8 20.4-35.4 34.8l-6.4 10.8 25.3-11.2c.3-.1.6-.1.9.1s.4.4.4.6 0 .4-.2.7c-.5.8-5.2 7.9-6.7 20-2 15.6 1.8 32.2 11.3 49.4l3.7 6.7 6-12.3c.1-.2.3-.4.6-.5.5-.2 1 .1 1.2.6.1.3 10.1 31.6 36.7 39.4l6.9 2-7-25.4-1.5-.8c-27.7-15.3-42.2-47.5-35.2-78.4 8.7-38.5 47.1-62.7 85.6-54.1l17.7 4z" fill="#de3c44"/><g fill="#ad2a34"><path d="m81.6 320.3c2.7-.8 4.2-3.7 3.4-6.4-.4-1.2-1.2-2.3-2.3-2.9l-6.3-3.6c.8-.1 1.6-.2 2.4-.2-3.5-.2-7-.2-10.5.2l6.3 3.6c2.4 1.4 3.3 4.5 1.9 7-.6 1.1-1.7 1.9-2.9 2.3-.3.1-21.2 6.7-33.1 20.3l9.9-1.9c11.9-12.3 30.9-18.3 31.2-18.4z"/><path d="m63.9 347.9c2.4-1.2 3.4-4.2 2.2-6.6-1-2-3.2-3-5.3-2.6l-4.2.8c2.2 1.5 2.8 4.6 1.3 6.8-.5.7-1.1 1.3-1.9 1.7-14 8-25.7 19.6-34 33.4l11-4.9c8.1-11.8 18.6-21.5 30.9-28.6z"/><path d="m108.2 310.8c-.1.1-.2.1-.2.2 1.6.6 2.6.9 2.6 1 2.5 1.1 5.4-.1 6.5-2.7.6-1.3.5-2.8-.1-4.1l-.8-1.7c-3.2-1.6-6.5-2.9-9.9-3.9l2.8 5.6c.9 1.9.5 4.1-.9 5.6z"/><path d="m50.3 384.2c.3-.4.5-.9.7-1.4.1-.2.1-.5.2-.7.3-2.7-1.6-5.2-4.3-5.5-.9-.1-1.8 0-2.7.4l-2.4 1.1c.1.1.2.2.3.3 1.4 1.7 1.6 4.1.3 6-.7 1.1-16.8 26 5.4 65.1l2.6-5.4c.4-.7.9-1.4 1.6-1.8-16.5-35.1-2.3-57-1.7-58.1z"/><path d="m71.1 448c-2.1-2.4-4.1-4.2-5.9-6.9-1.7-.1-3.8.9-4.8 2.3.3.4.5 1.2.7 1.7.1.3 10.3 29.1 34.6 36.3l-1.1-4c-13.1-7.8-20.5-22.5-23.5-29.4z"/><path d="m349.6 343.6c-.2.8-.5 1.5-.9 2.2 0 .1-.1.1-.1.2.7-1 1.3-2 1.8-3.1-.3.3-.6.5-.8.7z"/><path d="m301 315.3c5.4.2 12.8 1.9 17.3 9.1.3.5 1.7 3.3 3 5.8 1.6-.8 3.2-1.3 4.9-1.5-.2-.7-.4-1.5-.5-2.3-.8-3.1-1.8-7.3-2-8-2.7-8-9.6-11.3-14.8-12.7-14.2-3.8-27.5 5.9-33.9 16.5-1.1 1.8-1.9 3.8-2.3 5.9 0 .4-.1.7-.2 1.1 0 .2-.1.4-.1.6l-.1 1.2v.2c-.3 2.4-.4 4.8-.3 7.2 3.8-11.6 14.5-23.6 29-23.1z"/><path d="m315.4 342c-.3-1.1-.4-2.1-.4-3.2-1 2-1.8 5.4.4 10 3 6.2 7.5 7.9 10.8 8.2 6.9.7 14.4-4.3 20.6-9.8-7.3 4.1-16 7.5-22.7 5.3-3.1-1.2-7.1-3.8-8.7-10.5z"/><path d="m259.5 49.2c.2 1.9 1.4 3.6 3.1 4.4.4.2.8.3 1.3.4.8.1 1.6.1 2.3-.1-.2-.1-.5-.2-.7-.3-1.8-.8-2.9-2.5-3.1-4.4-.1-.6-1.4-13.1-11.1-18.5l.1 2.1c7 6 8 15.8 8.1 16.4z"/><path d="m275 42.1-.9 1.9c5.5 5.8 8.7 13.4 10.7 20 1.1.6 2.2 1.2 3.2 1.8.1 0 .1.1.2.1-2.1-7.8-5.9-17.3-13.2-23.8z"/><path d="m227.1 30.5c5.5 3.2 10.4 7.2 14.7 11.8 1.4 1.6 3.5 2.2 5.5 1.6-1-.3-1.9-.8-2.6-1.6-4.3-4.6-9.3-8.6-14.7-11.8-7.4-4.3-14.6-6.5-21.6-6.5.1.1.2.1.2.2 6.6.7 12.9 2.9 18.5 6.3z"/></g><g fill="#739937"><path d="m426.1 96-1-1.8-.8 1.9c-1.1 2.5-2.1 5.1-2.9 7.4-.6 1.7-2.3 2.8-4.1 2.7l-9.4-.6c-6.2-.4-11.8 4.1-12.8 10.3l-.2.9.8.3c1.3.5 2.6 1 4 1.3l10.2 2.8c.5.1 1.1.2 1.6.2 2.7 0 5.1-1.8 5.9-4.5.1-.2.1-.5.1-.7.8-5.2 5.4-9 10.7-8.6l6.5.4-1.5-1.8c-2.8-3.1-5.1-6.6-7.1-10.2z"/><path d="m365.7 124.8c-.3.6-.7 1.1-1.2 1.5l-1.5 1.3 1.9.5c4 1 8.1 1.5 12.3 1.5 2 0 4-.1 5.9-.3 3.3-.5 5.7-3.5 5.2-6.9-.1-.9-.5-1.9-1-2.6-.3-.4-.5-.7-.7-1.1l-.2-.3-6.5-1.8c-6.5-1.7-12.4-5.2-17.1-10l-1.7-1.7-.1 2.4c-.1 4.9 1.4 9.7 4.2 13.7.9 1 1 2.5.5 3.8z"/><path d="m346.5 154c2 .9 2.9 3.2 2.1 5.1-.2.5-.6 1-1 1.4l-1.6 1.4 2.1.3c5.1.9 10.3 1.3 15.5 1.3h1.2c3.3-.1 5.9-2.8 5.8-6.1-.1-2.3-1.5-4.4-3.6-5.3-4.3-1.8-7.7-10.5-9.3-23.2l-.1-.9h-.9s0 0-.1 0c-5.3 0-13-.8-19.7-4.6l-1.6-.9.1 1.9c1.9 23.9 9 28.7 11.1 29.6z"/><path d="m219.1 101.2c12.4.9 24 4.5 31.6 7.2 3.3 1.2 6.5 2.4 9.7 3.7 5.1 2 10 3.9 15 5.4 1.5.5 2.7 1.8 2.8 3.4.1 3.8-.8 7.5-2.6 10.8-2.1 3.7-5.1 6.8-8.8 9.1l-2.7 1.7 3.2.2h1.3c6.8 0 12.7-3 17.5-9.1 1.3-1.7 3.8-2 5.5-.6.3.2.5.5.7.7l.8 1.1.8-1.2c.5-.7.9-1.3 1.2-1.9 2.1-3.6 3.1-7.7 2.9-11.9-.2-2.4-1.9-4.5-4.2-5.2-4.9-1.4-9.6-3.3-14.6-5.2l-.5-.2c-3.1-1.2-6.3-2.5-9.6-3.6-9.1-3.2-22.9-7.5-37.5-7.5-4.2 0-8.5.4-12.6 1.2l-7.6 1.5z"/><path d="m247 189.2-4.3 1.1 4.4.8c2.2.4 4.3 1.1 6.3 2 2.8 1.3 5.2 3.1 7.3 5.4l1.4 1.6.7-1.3c2.3-4.4 7.8-6.1 12.2-3.8l1 .5.4-1c0-.1.1-.2.1-.3l.5-.9-.7-.5c-1.3-1-2.8-1.9-4.3-2.5-7.2-3.2-15.4-3.6-25-1.1z"/><path d="m344.8 118.2.6.2c3.1 1.2 6.4 1.9 9.7 2.1l1.5.1-.5-1.4c-1-2.8-1.6-5.8-1.7-8.8v-.6l-.6-.3c-1.5-.7-3.2-1.5-5.1-2.5l-.5-.2-.5.3c-1.8 1-2.9 2.9-3 5 0 .7-.1 2.7 0 5.4z"/><path d="m293.9 138.3v.7c.2 4.3-.2 10.5-2.8 15.8l-.7 1.5h1.7c4.9-.1 9.5-1.6 13.6-4.4l.7-.5-.3-.8c-.5-1.2-.9-2.2-1.3-3.2l-.1-.2c-.3-1-.3-2.1.2-3s1.3-1.7 2.2-2c1.8-.6 3.7.1 4.7 1.7l1.6 2.7.3-3.1c.3-3.1.2-6.2-.2-9.3-.3-2.3-2-4.2-4.3-4.9-2.3-.6-4.7.2-6.2 2-2.2 2.9-5.1 5.2-8.4 6.7z"/><path d="m320.2 150.5 2 .7c4 1.4 8.2 2.4 12.4 2.9l1.8.2-.8-1.7c-1.9-4-3.4-8.1-4.3-12.5l-.1-.4-.3-.2c-1.2-1-2.8-1.5-4.4-1.3s-3 .9-4 2.2c-1.3 1.6-1.6 3.6-1 5.5l.1.2c.3.9.7 1.8 1.1 2.8-.2.1-.5.3-.7.4z"/><path d="m434.6 304.2-.4-1-1 .4c-2.3 1-4.8 1.8-7.2 2.4l-4.6 1.2 4.7.8c2.2.4 4.4.5 6.6.5h1.9l1.3-.1-.5-1.6c-.2-.9-.5-1.8-.8-2.6z"/><path d="m461.6 286.7.3-1.6-1.6.5c-1.1.3-2.1.8-3.1 1.3l-2.2 1.1 2.3.8c1 .3 2 .8 3 1.3l1.7.9-.4-2.9c-.1-.6-.1-1 0-1.4z"/><path d="m398.9 308.6c-2.7-3.6-5.4-7.1-8.2-10.7l-11-10.5c-3.1-3-6.6-5.5-10.5-7.3-8.7-4.2-18.3-6.4-28.1-6.4h-111.9c-61.9 0-112.5-49.7-112.8-110.8 0-4.4.2-8.9.7-13.3 2.2-19.1 9.4-37.4 20.7-52.9 10.2-13.9 23.6-25.5 38.9-33.4 7.8-4 16-7.1 24.5-9.2 2.4-.6 4.9-1.1 7.3-1.5 3.6-.6 7.2-1.3 10.8-2.2l4.9-1.3c-1.1 0-12.9.8-13.9.8-10.2.5-18.6 1.1-27.3 3.3-8.7 2.1-17.1 5.3-25 9.4-15.6 8.1-29.3 19.8-39.6 34-11.5 15.8-18.8 34.4-21.1 53.9-.5 4.5-.8 9-.7 13.5.3 62.2 51.7 113.6 114.7 113.6l111.5.3c16.6 0 32.8 5.3 44.7 17 11.8 11.4 18.5 26.7 18.8 43.1s-5.8 31.9-17.2 43.8c-3.2 3.3-6.8 6.3-10.7 8.9-6.7 4.4-14.1 7.5-21.9 9.1l-6.6 1.4 6.7.6c2 .2 3.8.3 5.6.3 35.3-.3 63.9-29.2 63.8-64.5 0-10.4-2.5-20.2-7.1-29z"/><path d="m300.9 441.3-36.8-15.8c-16-6.9-31.6-14.9-46.4-23.9l-14.3-10.4-.5 1.1c-1.5 3.3-2.9 6.8-4.5 10.7l-.3.8.7.4c14.9 9.1 30.6 17.2 46.7 24.1l36.8 15.8c14 6 29 10.1 44.2 10.1 5 0 10.1-.3 15.1-1-.1-1.7-1.4-3-3-3.1-13-.7-25.7-3.6-37.7-8.8z"/><path d="m472.4 286.8c-.2-.5-.4-.9-.6-1.4l-.2-.4-.5-.1c-.4-.1-.8-.2-1.2-.2l-3.6-.6 2.8 2.3c.5.4 1.1.9 1.7 1.5l3 2.7z"/><path d="m150.9 177.1-1.2 2.5c0 .1-.1.2-.1.3-.2.6-.3 1.3-.3 1.9v.7l3.4 1.1-.5-1.8c-.2-.7-.4-1.4-.6-2.1z"/><path d="m220.4 349.8c5.1-5.6 10.9-10.5 17.3-14.6l6.2-4-7 2.2c-25.5 8-48.4 25.2-70 52.7-.1.1-.1.2-.2.3-6.3 8.1-11.5 15.7-15.3 21.3l-.6.9c-1.6 2.3-2.9 4.2-4.1 6-4.2 6-10.5 10.2-17.7 11.9l-4.5 1 4.5.9c2.2.5 4.4.7 6.7.7 1.1 0 2.1-.1 3.2-.2 9-1 17.1-5.8 22.3-13.2 1.3-1.9 2.8-4 4.5-6.5l.3-.4c3.8-5.6 9-13.2 15.2-21.1.1-.1.2-.3.3-.4 12.6-16 25.3-28.2 39-37.4z"/><path d="m122.9 359.4 4.9 1c4.9 1 9.6 3.1 13.6 6l20.2 13.2.6-.7c1.3-1.6 2.7-3.3 4.5-5.4l.7-.9-12.1-7.9c-4.4-3.3-9.6-5.6-15.1-6.5-4.2-.7-8.4-.7-12.5.1z"/><path d="m110 454c-20.3-10.4-33.7-31.1-35-53.9-1.5-23.8 10.2-46.3 30.6-58.6 8.3-5.2 17.9-9.4 27.7-10.4v-1c-36.7-3.6-69.3 23.3-72.9 59.9-1.7 17.7 3.6 35.1 14.9 48.8 11.3 13.8 27.3 22.3 45.1 24 2.1.2 4.3.3 6.5.3.9 0 1.7 0 2.6-.1 1.2 0 2.5-.1 3.8-.3l9.4-1-9.4-1c-8.3-.7-16.1-3-23.3-6.7z"/><path d="m368 176.7c-8.1-3.4-15.4-8.2-21.6-14.3l-.4-.4-.5.1c-.2 0-.5.1-.7.1-7.1.1-14.1-1.3-21.3-2.9l-3.2-.7 2.2 2.4c7.5 8.1 16 14.2 24.4 17.7 5.4 2.1 11 3.2 17.1 3.2 3.5 0 7.1-.3 11.1-1l5.4-.9-5.4-1.1c-2.4-.5-4.8-1.3-7.1-2.2z"/></g><g fill="#0f3047"><path d="m368.2 144.5h3.3c2.7 0 4.9-2.3 4.9-5s-2.2-4.8-4.9-4.9h-3.2c-6.3 0-11.4 5.1-11.4 11.3 0 2.3.7 4.5 2 6.4-3.6 5.2-2.2 12.2 2.9 15.8 1.9 1.3 4.1 2 6.4 2h3.2c2.7 0 4.9-2.3 4.9-5s-2.2-4.8-4.9-4.9h-3.2c-.8 0-1.5-.6-1.5-1.4s.6-1.5 1.4-1.5h.1 3.2c2.7 0 4.9-2.3 4.9-5s-2.2-4.8-4.9-4.9h-3.2c-.8 0-1.5-.6-1.5-1.4s.7-1.5 1.5-1.5z"/><path d="m250.9 383.9-2.9-1.4c-2.4-1.2-5.4-.2-6.6 2.3-1.2 2.4-.2 5.4 2.3 6.6.1 0 .1 0 .2.1l2.9 1.4c.7.3 1.1 1.2.7 2-.4.7-1.2 1.1-2 .7l-2.9-1.4c-2.5-1.2-5.4-.1-6.6 2.4s-.1 5.4 2.4 6.6l2.9 1.4c.7.3 1.1 1.2.7 2-.4.7-1.2 1.1-2 .7l-2.9-1.4c-2.5-1.2-5.4-.1-6.6 2.4s-.1 5.4 2.4 6.6l2.9 1.4c5.7 2.7 12.4.2 15.1-5.4 1-2.1 1.3-4.4.9-6.7 5.4-3.2 7.2-10.1 4.1-15.5-1.2-2.2-3-3.8-5-4.8z"/><path d="m183 403.5c-2.3-1.5-5.3-.9-6.8 1.4l-1.8 2.7c-.5.7-1.4.9-2.1.4-.7-.4-.9-1.4-.4-2l1.8-2.7c1.5-2.3.9-5.3-1.4-6.8s-5.3-.9-6.8 1.4l-1.8 2.7c-3.4 5.2-2 12.3 3.3 15.7 5.2 3.4 12.3 2 15.7-3.3l1.8-2.7c1.4-2.2.7-5.3-1.5-6.8z"/><path d="m154.4 432.7-2.4 2.1c-.6.5-1.6.5-2.1-.1s-.5-1.5.1-2.1l2.4-2.1c2-1.8 2.2-4.9.4-7-1.8-2-4.9-2.2-7-.4l-2.4 2.1c-4.7 4.2-5.1 11.4-.9 16 4.2 4.7 11.4 5.1 16 .9l2.4-2.1c2-1.8 2.2-4.9.4-7-1.8-1.9-4.9-2.1-6.9-.3z"/><path d="m114 440.3 3.2.2c2.7.2 5.1-1.9 5.2-4.7.2-2.7-1.9-5.1-4.7-5.2l-3.2-.2c-6.3-.4-11.6 4.4-12 10.7s4.4 11.6 10.7 12l3.2.2h.3c2.7 0 4.9-2.2 4.9-4.9 0-2.6-2-4.8-4.7-4.9l-3.2-.2c-.8 0-1.4-.7-1.4-1.6.2-.9.9-1.5 1.7-1.4z"/><path d="m288.4 397.4-2.8-1.6c-2.4-1.3-5.4-.5-6.7 1.9-1.3 2.3-.5 5.3 1.8 6.7l2.8 1.6c.7.4 1 1.3.5 2-.4.7-1.3 1-2 .5l-2.8-1.6c-2.4-1.4-5.4-.6-6.8 1.8s-.6 5.4 1.8 6.8l2.8 1.6c.7.4 1 1.3.5 2-.4.7-1.3.9-2 .5l-2.8-1.6c-2.4-1.4-5.4-.6-6.7 1.8-1.4 2.4-.6 5.4 1.8 6.7l2.8 1.6c5.4 3.1 12.4 1.3 15.5-4.2 1.2-2 1.7-4.3 1.5-6.6 5.7-2.7 8-9.5 5.4-15.1-1-1.9-2.6-3.6-4.6-4.8z"/><path d="m330.1 411.3c-1.6-1.6-3.7-2.7-5.9-3.1l-3.2-.6c-2.7-.5-5.3 1.3-5.8 3.9s1.3 5.3 3.9 5.8l3.2.6c.8.2 1.3.9 1.2 1.7-.2.8-.9 1.3-1.7 1.2l-3.2-.6c-2.7-.5-5.3 1.3-5.8 3.9-.5 2.7 1.3 5.3 3.9 5.8l3.2.6c.8.2 1.3.9 1.2 1.7s-.9 1.3-1.7 1.2l-3.2-.6c-2.7-.5-5.3 1.3-5.8 3.9s1.3 5.3 3.9 5.8l3.2.6c6.2 1.2 12.1-2.9 13.3-9.1.4-2.3.2-4.6-.8-6.7 4.5-4.3 4.5-11.5.1-16z"/><path d="m166.4 250.9h.9c10.3.1 20.2-4.2 27.2-11.8 1.8-2 1.7-5.1-.3-7-2-1.8-5.1-1.7-7 .3-5.2 5.8-12.8 9-20.6 8.6-2.7-.1-5 2.1-5 4.8s2.1 5.1 4.8 5.1z"/><path d="m146.1 246.2c2.1.9 4.3 1.7 6.5 2.4 2.6.8 5.4-.7 6.1-3.3.8-2.6-.7-5.3-3.2-6.1-1.8-.6-3.6-1.2-5.4-2-2.5-1.1-5.4 0-6.5 2.5s0 5.4 2.5 6.5z"/><path d="m441.1 131.1c-.1 0-.1 0 0 0-.1 0-1.8.3-3.9-2-.9-1-1.6-2-2.2-3.2-4.8-9.1-14-14.9-24.3-15.4-2.7 0-4.9 2.2-4.9 4.9 0 1.1.4 2.2 1 3-6 7.8-4.5 19 3.4 25 7.8 6 19 4.5 25-3.4.1-.1.2-.2.2-.3 1.7.8 3.6 1.2 5.6 1.2 1 0 2.1-.1 3.1-.4 2.6-.8 4.1-3.5 3.3-6.2-1-2.5-3.7-4-6.3-3.2zm-19.3 5.9c-4.4.5-8.3-2.7-8.7-7.1-.2-1.9.3-3.8 1.4-5.4.1 5.4 4.5 9.6 9.8 9.6 1.1 0 2.3-.2 3.4-.6-1.4 2-3.5 3.3-5.9 3.5z"/><path d="m403.7 321.1c.1 0 .1 0 0 0 1.7.3 3.4.4 5.1.4 4.4 0 8.7-.9 12.7-2.8 2.5-1.1 3.6-4.1 2.4-6.6s-4.1-3.6-6.6-2.4c-3.8 1.7-8 2.3-12 1.6-2.7-.4-5.2 1.4-5.7 4.1-.4 2.7 1.4 5.2 4.1 5.7z"/><path d="m389.2 315.5c.9.6 1.9 1.2 2.8 1.7 2.4 1.3 5.4.4 6.7-2s.4-5.4-2-6.7l-.1-.1c-.6-.3-1.2-.7-1.8-1-2.2-1.6-5.3-1-6.9 1.2-1.4 2.2-.9 5.3 1.3 6.9z"/><path d="m92 86.9c2.3 1.5 5.4.8 6.8-1.5 1.4-2.1 2.8-4.3 4.3-6.3 1.6-2.2 1.1-5.3-1.1-6.9s-5.3-1.1-6.9 1.1c-1.6 2.2-3.2 4.5-4.7 6.9-1.4 2.2-.7 5.2 1.6 6.7z"/><path d="m115 65.3c4.3-4.3 9-8.2 13.9-11.7 2.2-1.6 2.7-4.7 1.2-6.9s-4.7-2.7-6.9-1.2c-5.4 3.8-10.4 8.1-15.1 12.7-1.9 1.9-1.9 5.1 0 7s5 1.9 6.9.1z"/><path d="m142.3 45.4s.1 0 .1-.1c7.9-4.1 16.2-7.2 24.8-9.3 2.6-.7 4.3-3.3 3.6-6-.7-2.6-3.3-4.3-6-3.6-9.4 2.3-18.4 5.7-27 10.1-2.4 1.2-3.4 4.2-2.2 6.6 1.3 2.5 4.3 3.5 6.7 2.3z"/><path d="m402.5 479.4c-5.3 2.4-10.8 4.4-16.4 6-2.6.7-4.2 3.5-3.4 6.1.7 2.6 3.5 4.2 6.1 3.4 6.1-1.7 12.1-3.9 17.8-6.5 2.5-1.1 3.6-4.1 2.4-6.5-1.1-2.6-4-3.7-6.5-2.5z"/><path d="m431.5 460.2c-.1 0-.1 0 0 0-4.4 4-9.1 7.7-14 10.9-2.3 1.5-3 4.5-1.5 6.8s4.5 3 6.8 1.5c0 0 .1 0 .1-.1 5.3-3.5 10.4-7.5 15.1-11.8 2-1.8 2.2-4.9.4-7s-4.9-2.2-6.9-.3z"/><path d="m472.3 372.4c-2.8 0-5 2.3-4.9 5 .2 21.9-6 43.4-18 61.7-1.5 2.3-.9 5.3 1.3 6.9 2.3 1.5 5.3.9 6.9-1.3l.1-.1c13.1-20 19.9-43.4 19.7-67.2-.1-2.8-2.4-5-5.1-5z"/><path d="m318.3 99.7-2.8-1.6c-5.4-3.2-12.4-1.4-15.5 4-1.2 2-1.7 4.3-1.6 6.6-5.7 2.6-8.1 9.4-5.5 15.1 1 2.1 2.6 3.8 4.5 5l2.8 1.6c2.4 1.4 5.4.5 6.7-1.8s.6-5.3-1.7-6.7l-2.8-1.6c-.7-.4-1-1.3-.6-2s1.3-1 2-.6h.1l2.8 1.6c2.4 1.4 5.4.5 6.7-1.8s.6-5.3-1.7-6.7l-2.8-1.6c-.7-.4-1-1.3-.6-2s1.3-1 2-.6h.1l2.8 1.6c2.4 1.4 5.4.5 6.7-1.8 1.5-2.4.7-5.3-1.6-6.7z"/><path d="m413 377.5c-2.7 0-4.8 2.2-4.9 4.9v3.2c0 .8-.6 1.5-1.4 1.5s-1.5-.6-1.5-1.4v-.1-3.2c0-2.7-2.3-4.9-5-4.9s-4.8 2.2-4.9 4.9v3.2c0 .8-.6 1.5-1.4 1.5s-1.5-.6-1.5-1.4v-.1-3.2c0-2.7-2.3-4.9-5-4.9s-4.8 2.2-4.9 4.9v3.2c0 6.3 5 11.4 11.3 11.4 2.3 0 4.6-.7 6.5-2 5.2 3.6 12.2 2.3 15.8-2.9 1.3-1.9 2-4.1 2-6.4v-3.2c-.1-2.9-2.3-5.1-5.1-5z"/><path d="m422.4 353.4v-3.3c0-2.7-2.3-4.9-5-4.9s-4.8 2.2-4.9 4.9v3.2c0 .8-.6 1.5-1.4 1.5s-1.5-.6-1.5-1.4v-.1-3.2c0-2.7-2.3-4.9-5-4.9s-4.8 2.2-4.9 4.9v3.2c0 6.3 5 11.4 11.3 11.4 2.3 0 4.6-.7 6.5-2 5.2 3.6 12.2 2.3 15.8-2.9 1.3-1.9 2-4.1 2-6.4v-3.2c0-2.7-2.3-4.9-5-4.9s-4.8 2.2-4.9 4.9v3.2c0 .8-.6 1.5-1.4 1.5-.9 0-1.6-.7-1.6-1.5z"/><path d="m294.9 245.4 3.2-.4c.8-.1 1.6.5 1.7 1.3s-.5 1.6-1.3 1.7h-.1l-3.2.4c-2.7.3-4.6 2.8-4.3 5.5s2.7 4.6 5.4 4.3l3.2-.4c.8-.1 1.6.5 1.7 1.3s-.5 1.6-1.3 1.7h-.1l-3.2.4c-2.7.3-4.6 2.8-4.3 5.5s2.7 4.6 5.4 4.3l3.2-.4c6.2-.7 10.7-6.3 10-12.5-.3-2.3-1.2-4.4-2.7-6.2 2.9-5.5.8-12.4-4.7-15.3-2-1.1-4.3-1.5-6.6-1.3l-3.2.4c-2.7.3-4.6 2.8-4.3 5.5.5 2.6 2.9 4.5 5.5 4.2z"/><path d="m247 245.3 3.2-.4c.8-.1 1.6.5 1.7 1.3s-.5 1.6-1.3 1.7h-.1l-3.2.4c-2.7.3-4.6 2.8-4.3 5.5s2.7 4.6 5.4 4.3l3.2-.4c.8-.1 1.6.5 1.7 1.3s-.5 1.6-1.3 1.7h-.1l-3.2.4c-2.7.3-4.6 2.8-4.3 5.5s2.7 4.6 5.4 4.3l3.2-.4c6.2-.7 10.7-6.3 10-12.5-.3-2.3-1.2-4.4-2.7-6.2 2.9-5.5.8-12.4-4.7-15.3-2-1.1-4.3-1.5-6.6-1.3l-3.2.4c-2.7.3-4.6 2.8-4.3 5.5.5 2.5 2.9 4.4 5.5 4.2z"/><path d="m143.3 125.1-3.1.7c-.8.2-1.6-.3-1.8-1.1s.3-1.6 1.1-1.8h.1l3.1-.7c2.7-.6 4.3-3.3 3.7-5.9s-3.2-4.3-5.8-3.8l-3.1.7c-.8.2-1.6-.3-1.8-1.1s.3-1.6 1.1-1.8h.1l3.1-.7c2.7-.6 4.3-3.3 3.7-5.9s-3.2-4.3-5.8-3.8l-3.1.7c-6.1 1.3-10.1 7.3-8.8 13.4.5 2.3 1.6 4.3 3.3 5.9-2.4 5.8.3 12.4 6.1 14.8 2.1.9 4.5 1.1 6.7.6l3.1-.7c2.7-.6 4.3-3.3 3.7-5.9-.4-2.5-2.9-4.1-5.6-3.6z"/><path d="m172.4 99.9h-3.2c-.8 0-1.5-.6-1.5-1.4s.6-1.5 1.4-1.5h.1 3.2c2.7-.1 4.9-2.3 4.8-5s-2.2-4.8-4.9-4.8h-3.2c-.8 0-1.5-.6-1.5-1.4s.6-1.5 1.4-1.5h.1 3.2c2.7-.1 4.9-2.3 4.8-5s-2.2-4.8-4.9-4.8h-3.2c-6.3 0-11.3 5.1-11.3 11.4 0 2.3.7 4.5 2 6.4-3.5 5.2-2.2 12.2 3 15.8 1.9 1.3 4.2 2 6.5 2h3.2c2.7-.1 4.9-2.3 4.8-5 0-3.1-2.1-5.2-4.8-5.2z"/><path d="m207.2 84.9h-3.2c-.8 0-1.5-.6-1.5-1.4s.6-1.5 1.4-1.5h.1 3.2c2.7-.1 4.9-2.3 4.8-5s-2.2-4.8-4.9-4.8h-3.2c-.8 0-1.5-.6-1.5-1.4s.6-1.5 1.4-1.5h.1 3.2c2.7-.1 4.9-2.3 4.8-5s-2.2-4.8-4.9-4.8h-3.2c-6.3 0-11.3 5.1-11.3 11.4 0 2.3.7 4.5 2 6.4-3.5 5.2-2.2 12.2 3 15.8 1.9 1.3 4.2 2 6.5 2h3.2c2.7-.1 4.9-2.3 4.8-5 .1-3-2.1-5.1-4.8-5.2z"/><path d="m261.6 69.5-3-1.1c-5.9-2.1-12.4.9-14.5 6.8-.8 2.2-.9 4.5-.3 6.7-5.1 3.6-6.3 10.7-2.6 15.8 1.3 1.9 3.2 3.3 5.4 4.1l3 1.1c2.6.9 5.4-.5 6.3-3.1.9-2.5-.4-5.3-2.9-6.2l-3-1.1c-.8-.3-1.2-1.1-.9-1.9s1.1-1.2 1.9-.9h.1l3 1.1c2.6.9 5.4-.5 6.3-3.1.9-2.5-.4-5.3-2.9-6.2l-3-1.1c-.8-.3-1.2-1.1-.9-1.9s1.1-1.2 1.9-.9h.1l3 1.1c2.6.9 5.4-.5 6.3-3.1.5-2.4-.8-5.2-3.3-6.1z"/></g><path d="m491.1 126.6h-1.4c-5.1 0-9.5 2.9-11.6 7.2-4.5-1.6-10.2-5.9-15.6-11.7-2.2-2.4-4.7-4.6-7.3-6.5-3.4-2.4-20.4-15.2-23.4-28.8-.8-3.4-3.2-4.7-5.2-4.9-2.3-.1-4 .9-5.7 3.1l.8-8.2c.7-7.9-3.9-15.5-11.4-18.3l-4.4-1.7c-3.5-1.3-5.5-5-4.9-8.7 1.6-9.5-4.5-18.4-13.9-20.4l-10.5-2.2c-2.7-.6-5.4 1.1-5.9 3.9s1.1 5.4 3.9 5.9l10.5 2.2c4.1.9 6.8 4.8 6.1 9-1.4 8.3 3.3 16.6 11.2 19.6l4.4 1.7c3.3 1.3 5.3 4.6 5 8.1l-2 22h-.7c-6.7-.4-12.9 2.3-17 7-5.9-13.6-19.3-22.9-34.4-22.9h-4.2c-.4-.7-.9-1.8-1.5-3.5-6.1-15.7-21.9-25.4-38.5-23.5-2.7.3-4.7 2.8-4.4 5.5s2.8 4.7 5.5 4.4c12.1-1.4 23.6 5.7 28.1 17.2 1.9 5 4.2 9.9 8.8 9.9h6.2c.4 0 .8 0 1.2.1-.8.4-1.5 1.1-1.9 1.9-.2.3-1.4 2.5-2.4 5.8-12.8-6.2-38.9-19.6-54.9-28-1.9-9.9-6.5-31-23.9-41.3-1.2-.7-2.7-.9-4-.5-1.4.4-2.5 1.4-3 2.7l-.9 1.9c-3.7-6.9-10.2-13.4-20.7-15.1-1.5-.2-3 .2-4.1 1.2s-1.7 2.4-1.7 3.9l.1 1.6c-2-1.5-4.2-3.1-6.7-4.5-13.2-7.8-26.8-9.6-39.4-5.3-1.8.6-3.1 2.1-3.3 4s.5 3.7 2 4.8c.1.1 9.3 6.8 18.6 14.5-10.4.6-19.7 1.2-29.3 3.6-9.4 2.3-18.6 5.8-27.3 10.3-17.1 8.6-32.1 21.4-43.4 36.9-4.1 5.6-7.6 11.4-10.7 17.5-4.2-.2-11.5.1-20 3-11.9 4.1-28.7 14.3-40.7 39.6-1 2.2-.4 4.8 1.6 6.2s4.7 1.2 6.4-.6c.1-.1 5.6-5.4 15.6-2.7-8.1 6.3-19.1 18.7-20.2 39.5-.1 1.7.6 3.2 2 4.2 1.3 1 3 1.3 4.6.8l14.4-4.8c-3.7 9.8-7.7 26.5-7.7 52.3 0 2.1 1.4 4 3.4 4.7s4.3 0 5.6-1.6l12.8-16.3c1.6 12.5 6.7 30.6 22.2 42.9.9.7 2 1.1 3.1 1.1.7 0 1.5-.2 2.2-.5 1.7-.8 2.8-2.6 2.8-4.5v-13.7c9.3 7.9 25.6 17.6 46.9 15.7 17.2 8.8 36.7 13.8 57.3 13.8h113.3c29.5 0 54.6 24.5 54.7 53.5.1 18.5-8.7 35-24.2 45.2-15.4 10.1-33.9 11.8-50.8 4.5l-79.8-34.2c9.9-10.5 21.3-17.6 34.7-21.4-.6 13.5 4 34.5 25.6 41.1 1.5.4 3 .2 4.3-.7s2-2.3 2.1-3.8v-.5l.7.7c5.4 4.8 12.4 7.1 20.9 7.1 1 0 2.1 0 3.2-.1 1.7-.1 3.2-1 4-2.5s.9-3.2.1-4.7l-.7-1.4c1.3.1 2.7.2 4.2.2 8.3-.1 20.3-3 30.6-16.2 5.1-6.6 7-14.8 5.2-22.4-.4-1.7-1.7-3.1-3.4-3.6s-3.6-.1-4.9 1.2c-7.3 6.9-20.9 16.4-26.5 14.9-.5-.1-1.6-.4-2.5-3.2-.2-.8-.2-1.2-.2-1.4.5-.5 2.8-1 6.2-.6.1 0 .3 0 .4.1 2.7.3 5.1-1.6 5.5-4.3.1-.9 0-1.7-.3-2.5-.3-1-1.3-4.9-2-7.8-1.5-5.9-2-7.9-2.2-8.6-3.2-9.4-10.9-16.1-21.5-19-19-5-36.4 7.2-44.5 20.8-.6 1-1.1 2-1.6 3-26.8 1-48.9 10.5-66.9 23.2l-26-11.1c-2.7-2.5-13.1-12.1-26-21.7-20.4-15.1-36.7-22.5-48.2-21.7-1.7.1-3.2 1-4 2.5s-.9 3.2-.1 4.7l1.7 3.5c-10.8-2.7-27.3-4.8-41.7 1.4-1.7.8-2.9 2.4-3 4.3s.9 3.7 2.5 4.6l7.7 4.4c-10.9 5-27.7 14.9-34.5 30.6-.7 1.7-.5 3.7.7 5.1s3 2.1 4.8 1.8l2.7-.5c-9.1 8.3-19.6 20.6-26.2 37.4-.7 1.9-.3 4 1.2 5.4s3.6 1.8 5.5 1l14.8-6.5c-4.3 14.2-6.3 39.7 14.9 72.2 1 1.5 2.7 2.4 4.5 2.3s3.4-1.2 4.2-2.8l1.9-4c6.5 12.7 20.7 32.8 46 35.2h.5c1.5 0 2.9-.6 3.8-1.8 1.1-1.3 1.4-3 1-4.5l-4.6-16.8c8.1 2.8 16.7 4.3 25.2 4.3 1 0 2 0 3-.1 25.5-1 48.6-17.3 58.9-41.5 1.9-4.4 3.8-9.5 5.8-14.9.4-1 .8-2 1.1-3.1 15 9.1 30.7 17.1 46.8 24l37.2 16c15.5 6.7 31.9 9.9 48.3 9.9 23.6 0 47-6.8 67.3-20.2 34.8-22.9 55.4-61.5 55-103.2-.1-14-2.6-27.7-7.5-40.8.4-.2.8-.5 1.2-.7 0 0 .1-.1.2-.1 3.2-1.6 6.9-1.9 10.3-.8 3.5 1.2 6.3 3.6 8 6.9l1.1 2.3c.9 1.7 2.6 2.8 4.5 2.8.5 0 1-.1 1.4-.2 2.3-.7 3.8-3 3.5-5.4l-.1-.9c.8 1.4 2.2 2.4 3.9 2.6 2.1.2 4.2-.9 5.1-2.9.2-.4 1.8-4.1 2.2-9 .6-7-1.6-13.1-6.4-17.5-6.2-5.7-14.5-8.7-24-8.6-8.3.1-15.3 2.5-22 4.9-.8.3-1.5.5-2.3.8-10.8-15.9-25.3-29.2-42.2-38.7-18.6-10.4-39.6-15.9-61-15.9h-114c-4.5 0-8.8-.5-13.1-1.6.4-.3.8-.6 1.2-.9 5.4-4 10.5-7.9 16.1-10.5 9.9-4.7 22.5-9.5 32.6-5 1.6.7 3 1.8 4.3 3.2l7.5 8.4c1.3 1.5 3.4 2 5.3 1.4s3.2-2.3 3.4-4.3l.6-6.9c0-.1 0-.1.1-.1s.1 0 .1 0l7.7 4.6c1.8 1 4 .9 5.6-.3s2.3-3.3 1.8-5.3l-1.1-4s.1-.1.2-.1l7.7 3.9c2.1 1 4.6.5 6.1-1.3s1.5-4.4.1-6.2l-10-13c-.1-.1-.2-.3-.3-.4-9.6-10.1-15.6-13.1-24.1-15.3-12.3-3.2-24.8-.7-33.1 1.5-10.4 2.7-21.1 6.7-33.8 12.7-11.5 5.4-24 7.1-36.1 5.2-2.8-7-4.2-14.4-4-22 .7-29.8 25.9-54 56.1-54 10.1 0 20.7 2.1 34.3 7 3.2 1.1 6.4 2.4 9.5 3.6 3.9 1.5 7.8 3.1 11.9 4.4-.3.9-.7 2-1.4 3.2-2.7 4.5-8.2 7.8-16 9.5-2 .4-3.5 2-3.9 4s.5 4 2.3 5.1c6.9 4.4 21.2 8.8 34.1 1.1-.7 3.1-2.1 5.9-4.6 7.3-1.7 1-2.7 2.8-2.6 4.8.2 2 1.4 3.6 3.3 4.3.7.2 15.3 5.4 29.6-3.9 8.8 13.1 22.9 23.6 34.9 28.3 18 7 34.4 2.8 50.3-1.4 4.3-1.1 8.7-2.3 13-3.2 13.1-2.7 31.3-5.2 41 3.7l2.1 15c.2 1.6 1.2 2.9 2.5 3.7 1.4.8 3.1.8 4.5.2.4-.2 7.7-3.6 11.2-11.1 1.2 1.8 2 3.8 1.5 5.8-.5 2.2.6 4.6 2.6 5.6.7.4 1.5.5 2.2.5 1.4 0 2.8-.6 3.8-1.8.4-.4 7.3-8.9 3.9-20.9h7.2c2.8 0 5-2.2 5-5v-14.4c0-1.5-.6-2.8-1.7-3.8-1.1-.9-2.6-1.4-4-1.2-.3 0-28.1 4.1-49.7.1 8.2-3.8 23.2-7.3 47.4-1.5 3.9.9 7.9 0 11-2.4 3.1-2.5 4.9-6.2 4.9-10.2v-4.8c.4-7.6-5.4-13.4-12.5-13.4zm-154.6 205.2c-.2-.4-.4-.8-.7-1.1.3.4.5.7.7 1.1zm-64.2-.4c0-.1 0-.1 0-.2l.1-1.2c.3-2.7 1.2-5.2 2.5-7.5 6.3-10.4 19.4-20 33.4-16.3 5.2 1.4 11.9 4.7 14.6 12.5.2.7 1.2 4.8 2 7.8.2.8.4 1.5.5 2.2-3 .4-6.1 1.5-8.3 4-1.4 1.6-3.5 5.1-1.8 10.8 2 6.7 6.3 9.1 9.4 9.9 8.2 2.2 18.9-3.9 26.6-9.5-.6 1.3-1.3 2.5-2.2 3.7-14.8 19-33.3 10.5-34 10.2-1.9-.9-4.2-.5-5.7 1s-1.9 3.8-.9 5.8l1.7 3.4c-13.6-2.7-14.9-15-15-16.5-.1-2.6-2.3-4.7-5-4.7-2.6 0-4.8 2-5 4.7l-.8 12.1c-15.4-9.2-12.2-31.1-12.1-32.2zm110.2-222.7c-5.5-1.6-10.3-4.8-13.6-9-1.3-1.7-2.3-3.4-3-5.1-.2-.6-.6-1.2-1-1.7 7.9 2.3 14.5 8.1 17.6 15.8zm-173.3-84.7c6.5 0 13.3 2.1 20.2 6.1 8.3 4.9 13.7 10.9 13.8 11 1.4 1.6 3.6 2.1 5.6 1.4 2-.8 3.2-2.7 3.1-4.9l-.3-6.3c9.1 5.1 10.4 16.9 10.4 17.4.2 2.3 1.9 4.1 4.1 4.5s4.5-.8 5.4-2.9l3.7-8.1c7 6.3 10.7 15.5 12.7 23.1-.1 0-.1-.1-.2-.1-8.5-4.8-18.2-9.4-30.5-14.4l-1.8-.7c-8.1-3.3-16.9-6.8-25.9-8.9-6.2-5.9-14.2-12.4-20.3-17.2zm-100.2 218.6c-1.3-1.7-3.5-2.4-5.6-1.7s-3.4 2.6-3.4 4.7v13.4c-12.4-17.1-11-39.7-11-39.9.2-2.2-1.1-4.2-3.2-5s-4.4-.1-5.7 1.6l-11.6 14.9c1-13.9 3.2-23.6 5.2-29.8 2.8-8.9 5.6-12.7 5.6-12.7 1.4-1.7 1.5-4.2.2-6s-3.6-2.6-5.7-1.9l-18.1 6.1c4.4-20.5 21-28.4 21.8-28.7 1.7-.8 2.8-2.4 2.9-4.3s-.8-3.6-2.4-4.6c-8.2-4.9-15.2-6.1-20.8-5.6 14-20.4 31.1-24.4 40.4-24.9-4 10-6.6 20.5-7.8 31.3-.6 4.9-.8 9.8-.8 14.7.2 39.8 19.6 75.3 49.5 97.8-18.2-5.2-29.4-19.2-29.5-19.4zm-48.6 200.5c-.6-1.9-2.4-3.3-4.4-3.5-2-.1-4 1-4.9 2.8l-2.7 5.5c-22-39.8-5.6-64.9-4.8-66 1.3-1.8 1.2-4.3-.2-6s-3.8-2.3-5.9-1.4l-14 6.2c13.6-23 34.2-33.7 34.4-33.8 2.2-1.1 3.3-3.7 2.5-6.1s-3.2-3.8-5.7-3.3l-13.3 2.5c11.7-13.3 32.2-19.8 32.4-19.9 1.9-.6 3.3-2.2 3.5-4.2s-.7-3.9-2.5-4.9l-6.2-3.6c16.9-2 34.3 5.1 34.5 5.2 1.9.8 4.2.3 5.6-1.2s1.8-3.8.8-5.7l-2.9-5.7c11.1 3.2 25.2 12.4 37.2 21.6-19.3-4.4-39.7-1.1-57 9.6-23.8 14.7-37.7 41.3-36.2 69.3 1.4 26.2 16.5 50.1 39.4 62.7l4.7 17c-24.4-7.1-34.2-36.8-34.3-37.1zm125.1-30.1c-2 5.3-3.8 10.3-5.6 14.5-8.8 20.7-28.5 34.6-50.1 35.4-.9 0-1.7.1-2.6.1-10.7 0-20.9-2.5-30.5-7.4-20.9-10.7-34.7-31.9-36-55.4-1.3-24.8 10.4-47.3 31.4-60.3 19.4-12 43.3-13.2 63.9-3.3.1 0 .1.1.2.1l32.6 14c-10.8 8.9-19.9 18.7-27.5 28.1l-19.7-12.9c-4.6-3.4-9.6-5.5-14.8-6.4-8-1.4-14.9.4-19.2 2.2-6.8 2.8-18.8 9.9-21.7 26.8-2.6 14.8 3.3 27.9 16 35.9 4.4 2.8 11 5.8 19.1 5.8 1 0 2.1 0 3.2-.2 8.6-.9 16.5-5.6 21.8-12.9 1.4-2 3-4.3 4.8-6.9 4.1-6 9.2-13.5 15.5-21.5.1-.1.2-.2.3-.3 15.8-20.1 38.7-43.1 70.3-53-8 5.1-15.3 11.7-21.7 19.6-14.9 18.1-23.1 40.2-29.7 58zm-30.3-26.4c-5 6.6-9.2 12.8-12.7 17.9-1.8 2.6-3.3 4.8-4.7 6.7-3.6 5-9 8.2-14.7 8.8-6.7.7-12.4-1.9-15.9-4.2-6.5-4.1-13.8-12-11.4-25.8 2-11.5 9.6-16.8 15.6-19.2 2.4-1 5.8-1.9 9.8-1.9 1.3 0 2.6.1 4 .3 3.7.6 7.4 2.2 10.7 4.7.1.1.2.1.2.2zm158.2-243.7c-.9-2.6-3.8-4-6.4-3.1s-4 3.8-3.1 6.4c.4 1.2.9 2.4 1.4 3.5-4.6 3.1-9.4 4.1-13.2 4.3 4.2-8.6 2.7-19.5 2.6-20.1-.3-2-1.7-3.6-3.6-4.1s-4 .2-5.2 1.7c-5.8 7.3-12.5 9.1-18.1 8.8 4.8-3 7.6-6.6 9.2-9.5 3.2-5.8 2.9-10.9 2.8-11.5-.2-2.1-1.6-3.8-3.6-4.4-5.1-1.5-10-3.4-15.2-5.4-3.2-1.2-6.5-2.5-9.8-3.7-9.2-3.2-23-7.5-37.7-7.5-17.3 0-33.6 6.6-46.1 18.5-12.5 12-19.7 28.1-20.1 45.3-.2 6.6.7 13.1 2.5 19.3l-12.4-4.1c-2.6-.9-5.4.6-6.3 3.2s.6 5.4 3.2 6.3l14.4 4.7c17.4 5.7 36.2 4.6 53.1-3.3 12.2-5.7 22.4-9.5 32.1-12.1 11.5-3 20.5-3.5 28.1-1.5 6.2 1.6 10.6 3.2 19.2 12.3l.6.8c-1.2.4-2.3 1-3.3 1.8-1.3 1.1-2.4 2.5-3 4-2.9-1.6-6.4-1.6-9.4 0-1.9 1-3.4 2.5-4.3 4.3l-.5-.5c-2.2-2.5-4.8-4.4-7.7-5.7-13.8-6.1-29.2-.5-41 5.1-6.5 3.1-12.3 7.4-17.8 11.6-7.4 5.5-14.4 10.8-22.5 12.8-10.6 2.7-22.8-.9-30.2-9-1.9-2-5-2.2-7.1-.3-2 1.9-2.2 5-.3 7.1 7.7 8.4 19.1 13.2 30.5 13.2 3.2 0 6.4-.4 9.5-1.2 5.3-1.3 10-3.6 14.4-6.4 7.5 2.9 15.3 4.4 23.4 4.4h114c19.6 0 39 5 56.1 14.6 14.5 8.1 27.1 19.3 36.7 32.6-9.5.6-19.9-4.4-24.9-12.5-1.4-2.4-4.5-3.1-6.9-1.7s-3.1 4.5-1.7 6.9c8.1 13.2 26 20.3 40.8 16.1 3-.9 5.9-1.9 8.7-2.8 6.2-2.2 12.1-4.3 18.8-4.3 4.8-.1 11.7 1 17.1 6 1.3 1.2 2.2 2.6 2.7 4-1.9-1.7-3.6-3.1-4.6-3.8-1.6-1.2-3.8-1.3-5.5-.3s-2.7 3-2.5 4.9l.1 1.1c-1.1-.6-2.3-1.1-3.5-1.5-6-2-12.4-1.5-18 1.3-.4.2-.6.3-.6.3-.1 0-.1.1-.2.1-32.2 20-49.2-4.5-49.9-5.6-1.5-2.3-4.6-2.9-6.9-1.4s-3 4.6-1.4 6.9c.2.3 19.1 28.2 53.2 14 4.2 11.6 6.4 23.8 6.5 36.3.3 38.3-18.5 73.7-50.5 94.8-31.6 20.8-71.3 24.4-106.2 9.5l-37.2-16c-16.2-7-32.1-15.1-47.1-24.4 5.2-13.1 11.6-27.3 20.9-39.7l82.6 35.4c8.3 3.5 16.8 5.3 25.3 5.3 12.2 0 24.2-3.6 34.9-10.7 18.4-12.1 28.8-31.6 28.7-53.6-.1-16.8-7-32.8-19.4-44.8-12.3-12-28.4-18.6-45.3-18.6h-113.1c-63.2 0-114.9-50.8-115.2-113.2 0-4.5.2-9.1.7-13.6 2.2-19.5 9.5-38.1 21.1-54 10.4-14.2 24.1-26 39.7-34.1 8-4.1 16.4-7.3 25.1-9.4s17.3-2.7 27.5-3.3c12.6-.7 26.4 4.9 38.7 9.9l1.8.7c11.9 4.8 21.2 9.2 29.3 13.8 8.3 4.7 54.5 28.7 70.4 36.2.1 3.1.7 6.2 1.8 9.2-6-.4-14.1-2.3-18.3-9-1.2-1.9-3.4-2.8-5.5-2.2s-3.6 2.5-3.7 4.7c-.1 3.2-.6 25.6 6.7 39.8-9.1-1.5-18.9-4.3-20.9-9.9zm180.6 1.5c0 1.2-.7 2-1.1 2.3s-1.3.8-2.5.5c-46.3-11.1-64.5 9.1-65.2 10-1.1 1.2-1.5 2.9-1.1 4.5s1.6 2.9 3.1 3.5c18.9 7.1 46.9 5.1 58.9 3.9v3.8h-9.9c-1.8 0-3.5 1-4.4 2.6s-.8 3.5.2 5.1c.4.6.7 1.2 1 1.7-2-1.7-3.5-2.8-3.7-2.9-1.6-1-3.7-1-5.3 0s-2.5 2.9-2.3 4.8c.3 2.5-.4 4.6-1.3 6.2l-1-7.5c-.1-1-.6-2-1.3-2.7-7.4-8-18.1-10.5-28.9-10.5-7.9 0-15.8 1.3-22.6 2.7-4.6 1-9.1 2.1-13.5 3.3-15 3.9-29.2 7.6-44.1 1.8-8.5-3.3-16.9-9.3-23.6-16.4 9.7 2.3 19.3 2.2 21.2 2.2 2.4-.1 4.3-1.7 4.8-4 .4-2.3-.8-4.6-2.9-5.5-6.3-2.7-9.5-16.2-10.4-29 11.3 6.4 25.3 4.6 26 4.5 1.7-.2 3.2-1.4 3.9-3s.5-3.4-.5-4.9c-2.8-4-4.1-8.3-4-12.9 4.6 4.8 10.5 8.3 17.2 10.1l10 2.7c1.4.4 2.8.1 4-.6 1.2-.8 2-2 2.2-3.4.8-5.6 5.8-9.6 11.5-9.3l9.3.6c2.2.1 4.2-1.2 5-3.3.9-2.3 1.9-4.9 2.9-7.2 6.6 12.6 19.5 22.6 24 25.8 2.1 1.5 4 3.2 5.8 5.1 4.3 4.7 15.6 15.7 26.6 15.7 2.8 0 5-2.2 5-5 0-1.6 1.3-2.9 2.9-2.9h1.4c1.6 0 2.9 1.3 2.9 2.9v4.7z" fill="#0f3047"/></svg>