<svg height="512" viewBox="0 0 62 60" width="512" xmlns="http://www.w3.org/2000/svg"><g id="014---Mt-Fuji" fill="none"><g id="Icons" transform="translate(1)"><path id="Shape" d="m29.88 10.92c-.4739545 1.3146749-.7699125 2.686844-.88 4.08h-6.2c-.4858642-.0088364-.9077509.3328918-1 .81-.65 3.37-.57 2.87-.57 3-.9070622.7575536-2.0482618 1.1779955-3.23 1.19-2.11 0-4.91-1.31-5.64-3.17-.7834599 1.0177291-2.1278643 1.4238303-3.34374117 1.0100363-1.21587688-.4137939-2.03346307-1.5556758-2.03346307-2.8400363s.81758619-2.4262424 2.03346307-2.8400363c1.21587687-.413794 2.56028127-.0076928 3.34374117 1.0100363.7504156-1.908075 2.5896719-3.1646359 4.64-3.17 0-2.76142375 2.2385763-5 5-5s5 2.23857625 5 5c1.0327656-.00320859 2.0403541.3186599 2.88.92z" fill="#cfd8dc"/><path id="Shape" d="m43.17 32.92-.17.08c-.25 1.52-.55 3.36-1 6.09.0552284.5522847-.3477153 1.0447715-.9 1.1-.5522847.0552284-1.0447715-.3477153-1.1-.9l-.22-3.59c-.138794-.3517017-.4640813-.5950496-.8406607-.6288995-.3765794-.0338498-.7400497.1475874-.9393393.4688995-.36.73-1 2.46-1.88.69l-1.12-2.68c-.1810349-.3721671-.572619-.5943628-.9849585-.5588927-.4123395.03547-.7602246.321276-.8750415.7188927l-2.14 7.58c-.1303088.451995-.5580227.7520613-1.0273847.7207705s-.853459-.3854779-.9226153-.8507705l-1.14-11.33c-.0699284-.4414841-.4243498-.7829444-.8681318-.8363841-.4437819-.0534397-.8691326.1941213-1.0418682.6063841l-4 7.79c-.1889465.4559002-.6822242.7057946-1.1615746.5884537-.4793504-.117341-.8014256-.5668271-.7584254-1.0584537l.92-4.84c.0325733-.3931338-.1690158-.7686808-.5146663-.9587885-.3456505-.1901078-.7707638-.1592472-1.0853337.0787885l-2.4 1.8-.17-.08c2.4162808-5.4570152 4.0976266-11.2105805 5-17.11.0922491-.4771082.5141358-.8188364 1-.81h14.34c.4858642-.0088364.9077509.3328918 1 .81.8949146 5.9010697 2.5765455 11.6556106 5 17.11z" fill="#f5f5f5"/><path id="Shape" d="m38.15 15.81c-.0922491-.4771082-.5141358-.8188364-1-.81l-3-.0001675c.4858642-.0086689.9077509.3330593 1 .8101675.8949146 5.9010697 2.5765455 11.6556106 5 17.11l-.15.08c-.11.69-.24 1.46-.38 2.33.29.34.2.16.43 4 .0552285.5522847.5477153.9552285 1.1.9s.9552285-.5477153.9-1.1c.45-2.73.75-4.57 1-6.09l.17-.08c-2.45094-5.4636219-4.1562138-11.2319542-5.07-17.15z" fill="#cfd8dc"/><path id="Shape" d="m58 59h-56c-.33701328.0031017-.65291829-.1637649-.84033233-.4438784-.18741404-.2801134-.22112269-.6357877-.08966767-.9461216l3-6.42c.31021708-.7791266 1.09454592-1.2627283 1.93-1.19.36209586.0454653.7064373.1832018 1 .4.5655751.3613159 1.27928686.3992793 1.88.1l3.87-1.94c1.9271792-.9633255 4.2387186-.7173339 5.92.63l.86.73c1.2330254.9900623 2.870645 1.3183323 4.39.88 1.080028-.7181811 2.2414867-1.3056241 3.46-1.75.5517239-.1049091 1.1182761-.1049091 1.67 0l5.48 1.69c1.5962702.3552064 3.2591551.2687778 4.81-.25l3.42-1.1c2.0158328-.6710136 4.2078801-.5784921 6.16.26l3 .89c1.65.44 1.53-.45 2.66-.57.9229742-.1216385 1.797068.4469467 2.06 1.34l2.36 6.39c.0983996.3116604.038293.6517384-.1609758.9107878-.1992688.2590495-.5125511.4043769-.8390242.3892122z" fill="#a0522d"/><path id="Shape" d="m59 57.7-2.22-6.33c-.2527134-.9220971-1.1542406-1.5102362-2.1-1.37-.69.07-.92.43-1.37.6.38.41.19.06 2.65 7.07.10791.3085464.058212.6503559-.1330959.915397-.1913078.265041-.5000741.4198539-.8269041.414603h3c.3264731.0151647.6397554-.1301627.8390242-.3892122.1992688-.2590494.2593754-.5991274.1609758-.9107878z" fill="#783e22"/><path id="Shape" d="m53.1 50.68c-.53.16-1.12-.09-4.12-1-1.95233-.8375691-4.1440356-.9300762-6.16-.26-3.55 1.14-5.28 2-8.23 1.35-7.66-2.36-6.12-2.46-10.61 0-1.519355.4383323-3.1569746.1100623-4.39-.88l-.86-.73c-1.6812814-1.3473339-3.9928208-1.5933255-5.92-.63l-3.87 1.99c-.60071314.2992793-1.3144249.2613159-1.88-.1.36-.72-1.41 2.44 4.88-8.48 1.8514876-2.8742546 3.4860214-5.8825989 4.89-9l.17.06 2.4-1.8c.3145699-.2380357.7396832-.2688963 1.0853337-.0787885.3456505.1901077.5472396.5656547.5146663.9587885l-.92 4.84c-.0430002.4916266.279075.9411127.7584254 1.0584537.4793504.1173409.9726281-.1325535 1.1615746-.5884537l4-7.79c.1727356-.4122628.5980863-.6598238 1.0418682-.6063841.443782.0534397.7982034.3949.8681318.8363841l1.14 11.33c.0691563.4652926.4532533.8194797.9226153.8507705s.8970759-.2687755 1.0273847-.7207705l2.14-7.58c.1148169-.3976167.462702-.6834227.8750415-.7188927.4123395-.0354701.8039236.1867256.9849585.5588927l1.12 2.68c.88 1.77 1.52 0 1.88-.69.1893038-.3517172.5697488-.5570494.9676566-.5222597.3979077.0347898.7369477.3030278.8623434.6822597l.22 3.59c.0357266.3572656.2593382.6683327.5866025.8160254.3272644.1476927.7084622.1095729 1-.1s.4491241-.5587598.4133975-.9160254c.44-2.72.75-4.57 1-6.09l.17-.08c1.4058278 3.1164836 3.0402884 6.1246933 4.89 9z" fill="#7f8e94"/><path id="Shape" d="m48.06 41.94c-1.847593-2.8765609-3.4819672-5.8846114-4.89-9l-.17.06c-.63 3.84-.52 3.15-.7 4.23.8533333 1.5933333 1.7733333 3.1633333 2.76 4.71l4.59 8c2.08.6 2.92.93 3.45.77z" fill="#545c60"/><path id="Shape" d="m8.92 28.32c-.30829139-1.2897517-1.4267841-2.2240886-2.75081382-2.2979021s-2.53944566.73041-2.98918618 1.9779021c-.91390794-.0940156-1.7743225.4466982-2.08603258 1.310934s.00546764 1.8296802.7689817 2.3406724c.76351406.5109921 1.77696052.4360859 2.45705088-.1816064 1.24420293.8582594 2.93259967.6568517 3.94-.47.39663689.7205317 1.19395074 1.1247731 2.0095926 1.0188718.8156419-.1059014 1.4832877-.7003503 1.6827704-1.498281.1994827-.7979308-.1098759-1.6366308-.779724-2.1139047-.669848-.4772738-1.56359152-.4957967-2.252639-.0466861z" fill="#cfd8dc"/><path id="Shape" d="m51.08 22.82c.313414-1.2878 1.4347532-2.2173259 2.7583361-2.2865027 1.3235829-.0691769 2.5357109.7383909 2.9816639 1.9865027.9114665-.0891496 1.7670335.4521742 2.0768044 1.3140099s-.0054086 1.8239626-.7650671 2.335468-1.7696841.4416867-2.4517373-.1694779c-1.2587031.8437652-2.949008.6163891-3.94-.53-.3966369.7205317-1.1939507 1.1247731-2.0095926 1.0188718-.8156419-.1059014-1.4832877-.7003503-1.6827704-1.498281-.1994827-.7979308.1098759-1.6366308.779724-2.1139047.669848-.4772738 1.5635915-.4957967 2.252639-.0466861z" fill="#bdc3c7"/><path id="Shape" d="m57.47 22.56c-.2142944-.0453424-.4357056-.0453424-.65 0-.445953-1.2481118-1.658081-2.0556796-2.9816639-1.9865027-1.3235829.0691768-2.4449221.9987027-2.7583361 2.2865027-.6890475-.4491106-1.582791-.4305877-2.252639.0466861-.6698481.4772739-.9792067 1.3159739-.779724 2.1139047.1994827.7979307.8671285 1.3923796 1.6827704 1.498281.8156419.1059013 1.6129557-.2983401 2.0095926-1.0188718.7618841.8772317 1.9618011 1.2356484 3.08.92-3.2398581 3.3676543-7.8688403 5.0253553-12.51 4.48-1.9537413-4.8561993-3.3493599-9.9186714-4.16-15.09-.0922491-.4771082-.5141358-.8188364-1-.81h-8.15c.3888656-6.05189756 4.3835545-11.27426132 10.1226747-13.23364382 5.7391202-1.95938249 12.0934478-.27025744 16.1020779 4.28029918 4.0086301 4.55055664 4.8828283 11.06718154 2.2152474 16.51334464z" fill="#bb193b"/><path id="Shape" d="m55.21 20.76c-.8162738-.3595648-1.7502171-.3372595-2.5483951.0608632s-1.3778092 1.1307722-1.5816049 1.9991368c-.6890475-.4491106-1.582791-.4305877-2.252639.0466861-.6698481.4772739-.9792067 1.3159739-.779724 2.1139047.1994827.7979307.8671285 1.3923796 1.6827704 1.498281.8156419.1059013 1.6129557-.2983401 2.0095926-1.0188718.1309073.1491324.2748064.2863386.43.41l-.36.52c-2.4494701 2.5523242-5.7221897 4.1568068-9.24 4.53h-.26c-1.9464612-4.8586554-3.3418497-9.9202927-4.16-15.09-.0922491-.4771082-.5141358-.8188364-1-.81h-8.15c.4820347-7.31689942 6.1833867-13.21280789 13.48-13.94 4.53745.45493753 8.6215451 2.94928451 11.0983146 6.77825738 2.4767695 3.82897282 3.0772173 8.57671572 1.6316854 12.90174262z" fill="#ef314c"/><path id="Shape" d="m59 24.5c-.000993.7850157-.4611422 1.4968608-1.1765308 1.8200785-.7153886.3232178-1.553714.1980329-2.1434692-.3200785-1.2587031.8437652-2.949008.6163891-3.94-.53-.3966369.7205317-1.1939507 1.1247731-2.0095926 1.0188718-.8156419-.1059014-1.4832877-.7003503-1.6827704-1.498281-.1994827-.7979308.1098759-1.6366308.779724-2.1139047.669848-.4772738 1.5635915-.4957967 2.252639-.0466861.2037957-.8683646.7834269-1.6010141 1.5816049-1.9991368s1.7321213-.420428 2.5483951-.0608632c.7568548.3389281 1.3396548.9760262 1.61 1.76.5556811-.0502487 1.1070913.1339088 1.5210549.5079951.4139635.3740864.6528432.9040899.6589451 1.4620049z" fill="#cfd8dc"/></g><g id="Layer_5" fill="#000"><path id="Shape" d="m5.38 32.66c1.23036377.5415156 2.6504557.4288098 3.78-.3 1.0836392.8536934 2.6097893.8583448 3.698612.0112725 1.0888228-.8470723 1.4596262-2.3274981.8986391-3.5877996s-1.9091457-1.9755806-3.2672511-1.7334729c-.70447536-1.2732633-2.04484196-2.0635083-3.5-2.0635083s-2.79552464.790245-3.5 2.0635083c-1.1783635.1794729-2.13870014 1.0395271-2.4465225 2.1910463s.09526812 2.3760427 1.02690024 3.1195564c.93163213.7435138 2.21506118.8649619 3.26962226.3093973zm-1.29-3.66c.44547355.0247539.85345417-.2485931 1-.67.30070119-.826331 1.1058567-1.359318 1.98399697-1.3133421.87814027.045976 1.62323614.660128 1.83600303 1.5133421.07164706.3193384.29502202.5834087.59805927.707016.30303724.1236073.64738183.0911068.92194073-.087016.3444474-.2268694.7928466-.2189902 1.1291109.0198404.3362642.2388307.4914013.6596114.3906497 1.0595649-.1007517.3999535-.4367207.6970205-.8460011.7480422-.4092805.0510217-.8078994-.1544702-1.0037595-.5174475-.1583514-.2854495-.44605747-.4756435-.7707265-.5095047s-.64542899.0928732-.8592735.3395047c-.65805433.7626774-1.78062639.916924-2.62.36-.37750997-.2539877-.8788899-.2211103-1.22.08-.34254278.3122944-.85479801.3482517-1.2376092.0868727-.38281118-.261379-.53581872-.7515698-.36966638-1.1843016.16615234-.4327317.60790528-.6945574 1.06727558-.6325711z"/><path id="Shape" d="m45 0c-6.3186154.00402534-12.0430632 3.72628778-14.61 9.5-.4664403-.20472823-.9570533-.34922382-1.46-.43-.4509567-2.92630993-2.9691468-5.08616194-5.93-5.08616194s-5.4790433 2.15985201-5.93 5.08616194c-1.6203718.2547364-3.0658091 1.1617483-4 2.51-1.687013-1.026869-3.87097493-.668792-5.14175056.8430288-1.27077564 1.5118207-1.24796116 3.7248251.05371263 5.2101258 1.3016738 1.4853007 3.49255383 1.7982763 5.15803793.7368454 1.937997 2.1544713 4.9171385 3.0458984 7.72 2.31-1.6921264 7.3812064-4.6673099 14.4079196-8.79 20.76l-4.43 7.7c-1.39963979-.4091751-2.88363078.2962583-3.45 1.64l-3 6.45c-.25520424.6114749-.19100065 1.309652.17144159 1.8643288.36244225.5546768.97607003.8938438 1.63855841.9056712h56c.644512.0038118 1.2513618-.3032132 1.6300983-.8247195s.4829378-1.1935726.2799017-1.8052805l-2.2-6.3c-.2505142-.8430973-.8725492-1.5255075-1.6889019-1.8528279s-1.7375256-.2636666-2.5010981.1728279l-4.6-8c-1.9086194-3.0019961-3.5803487-6.1481908-5-9.41 4.3042091.0469999 8.4419642-1.660817 11.46-4.73.1003215-.0261928.1975442-.0630703.29-.11.4240776.2287375.8981685.3489779 1.38.35 1.2950806-.0056042 2.4403658-.8416505 2.8403526-2.073428.3999867-1.2317774-.0356324-2.5811801-1.0803526-3.346572 2.0238388-4.9358609 1.4545565-10.5557166-1.5180017-14.98545059-2.9725583-4.429734-7.9573341-7.08658741-13.2919983-7.08454941zm-2 32.79c-.06.29.13-.82-1 6.09-.0144142-1.1569476-.0945433-2.3121421-.24-3.46-.2442424-.7703581-.928103-1.3180232-1.7332145-1.3880329-.8051116-.0700097-1.5732392.3513955-1.9467855 1.0680329l-.21.42-1-2.41c-.3668479-.7368667-1.1476934-1.1737194-1.9675905-1.1007906-.8198972.0729289-1.5113787.6407433-1.7424095 1.4307906l-2.13 7.62-1.14-11.38c-.1430457-.8624032-.829618-1.5319763-1.6953358-1.65336-.8657177-.1213837-1.7099592.3335515-2.0846642 1.12336l-4 7.83c.79-4.17.9-4.73.9-4.82.0521613-.7389593-.3084071-1.4462231-.937073-1.8380914-.6286659-.3918684-1.4224422-.4041463-2.062927-.0319086 1.7806682-4.6130287 3.0613286-9.4037713 3.82-14.29h14.34c.8790517 5.7815725 2.5025309 11.4250955 4.83 16.79zm-28.71-16.32c-.1332403-.3332733-.4348702-.5695786-.790347-.61918-.3554768-.0496015-.7102718.0951097-.929653.37918-.5223066.6784861-1.4185762.9492202-2.2291608.6733576-.81058456-.2758627-1.35564203-1.0371172-1.35564203-1.8933576s.54505747-1.6174949 1.35564203-1.8933576c.8105846-.2758626 1.7068542-.0051285 2.2291608.6733576.2209064.2835313.5769822.4266981.9326742.3749986.355692-.0516994.6562768-.290311.7873258-.6249986.5987855-1.5273552 2.0694742-2.5342418 3.71-2.54.5522847 0 1-.4477153 1-1 0-2.209139 1.790861-4 4-4s4 1.790861 4 4c0 .5522847.4477153 1 1 1 .5846589-.0012788 1.1621623.128574 1.69.38-.2556157.8565843-.4395825 1.7329352-.55 2.62h-5.31c-.9748589-.0168028-1.8197691.6717991-2 1.63l-.48 2.57c-.6786683.5091417-1.5016478.7893049-2.35.8-1.72 0-4.15-1.1-4.71-2.53zm41.93 34.6c.2857002.1066243.501924.3452162.58.64l2.2 6.29c-.1 0-1.52 0-56 0l3-6.46c.09989806-.2512562.30746606-.4442858.56530276-.5257079s.53861842-.0426083.76469724.1057079c.87635216.6310732 2.02814392.7308951 3 .26l3.87-1.94c1.5708968-.7831843 3.4528455-.5883656 4.83.5l.88.74c1.4865641 1.1911035 3.4573866 1.5897387 5.29 1.07.42-.12 2.78-1.62 3.35-1.73.4002568-.0704521.8097432-.0704521 1.21 0l5.55 1.71c5.9 1.32 9-3.41 14.22-1.15.09 0 .44.17 3.17.94.5062729.1489157 1.0399605.1797054 1.56.09 1.09-.19 1.26-.79 1.96-.54zm-4.07-1.76-1.83-.54c-6.13-2.59-9.38 2.2-14.44 1.08l-5.55-1.71c-.6833952-.1350161-1.3866048-.1350161-2.07 0-.76.13-1.18.43-3.65 1.79-1.1724292.3085893-2.4217311.0453832-3.37-.71l-.89-.74c-1.9882481-1.5916803-4.7196789-1.8843336-7-.75l-3.62 1.78 4-7c1.7752531-2.7667478 3.3557404-5.6537268 4.73-8.64.2-.13-.3.24 2.48-1.84-.78 4.17-.9 4.75-.9 4.84-.0663337.9579941.5575661 1.8279161 1.4862361 2.0723029.9286699.2443868 1.8999537-.20575 2.3137639-1.0723029 5.15-10 3.79-7.36 4-7.92l1.15 11.39c.1442855.92854.915529 1.6314123 1.8534382 1.6891298.9379091.0577175 1.7895143-.5452872 2.0465618-1.4491298l2.12-7.63 1.14 2.74c.93 1.85 2.67 1.9 3.63-.62.011855 1.1769875.0919897 2.3522958.24 3.52.2707838.9051461 1.1380299 1.4973427 2.0796477 1.4200818.9416179-.077261 1.7007336-.8029026 1.8203523-1.7400818l.61-3.27c1.83 3.64 1.54 2.75 7.62 13.31zm-8.15-19.31c-1.812653-4.6233914-3.1104803-9.4323948-3.87-14.34-.1802309-.9582009-1.0251411-1.6468028-2-1.63h-7c.777813-5.30949969 4.522082-9.70724174 9.6395619-11.32191803s10.7076363-.16214864 14.3917702 3.7395097c3.6841338 3.90165833 4.8139399 9.56586383 2.9086679 14.58240833-.8387006-1.0169608-2.1245959-1.5554184-3.4376803-1.4394993-1.3130844.1159192-2.4847568.8713311-3.1323197 2.0194993-1.3581054-.2421077-2.706264.4731714-3.2672511 1.7334729s-.1901837 2.7407273.8986391 3.5877996c1.0888227.8470723 2.6149728.8424209 3.698612-.0112725.1907149.1172926.3876729.2241173.59.32-2.7002697 2.0341613-6.0489332 3.0152984-9.42 2.76zm14-4.46c-.64 0-.67-.52-1.32-.52-.48 0-.58.3-1.18.44-.7302345.1867064-1.5034203-.0529812-2-.62-.2138445-.2466315-.5346045-.3733659-.8592735-.3395047s-.6123751.2240552-.7707265.5095047c-.1958601.3629773-.594479.5684692-1.0037595.5174475-.4092804-.0510217-.7452494-.3480887-.8460011-.7480422-.1007516-.3999535.0543855-.8207342.3906497-1.0595649.3362643-.2388306.7846635-.2467098 1.1291109-.0198404.2745589.1781228.6189035.2106233.9219407.087016.3030373-.1236073.5264122-.3876776.5980593-.707016.2127669-.8532141.9578628-1.4673661 1.836003-1.5133421.8781403-.0459759 1.6832958.4870111 1.983997 1.3133421.186934.4429177.6419697.7110638 1.12.66.5522847 0 1 .4477153 1 1s-.4477153 1-1 1z"/></g></g></svg>