<svg id="Layer_1_copy" height="512" viewBox="0 0 64 64" width="512" xmlns="http://www.w3.org/2000/svg" data-name="Layer 1 copy"><path d="m62 37-4 4-26-10 26-1z" fill="#fab15b"/><path d="m41.8 32.625 15.7 6.042 2-2-2.641-4.621z" fill="#fab15b"/><path d="m37 39-.125 25h-18.75l-.125-12h-9a3 3 0 0 1 -3-3v-2l2-8-6-1 .09-.11 5.91-6.89-2-4 .02-.03 5.1-7.13z" fill="#fbb042"/><path d="m18.471 12.176 15.529-5.176 4-5-6-1-15.216 7.997" fill="#e29243"/><path d="m32.335 3.083-12.3 6.463 12.772-4.257 1.5-1.877z" fill="#e29243"/><path d="m32 37 23 12 7-2-4-6-20.301-8.12z" fill="#83441d"/><path d="m35.8 36.725 19.418 10.132 3.6-1.027-2.135-3.2-18.7-7.48z" fill="#83441d"/><path d="m35.544 26.158 23.456-8.158 3-7-9-3-30 13 3 9z" fill="#83441d"/><path d="m25.477 22.106 1.748 5.244 7.575-3.05c.029-.012.059-.023.089-.033l22.62-7.867 1.8-4.191-6.212-2.07z" fill="#83441d"/><path d="m60 2-5 6-33 13-3.11-4.35-1.89-2.65 17-7 11-4 7-2 5.22.65z" fill="#fab15b"/><path d="m53.79 6.33-31.07 12.24-1.91-2.67-.72-1.01 14.59-6.01 10.94-3.98 6.54-1.86 1.15.14 2.81.35z" fill="#fab15b"/><g opacity=".2"><path d="m57.22 1.65-3.91 1.53-32.5 12.72-1.92.75-1.89-2.65 17-7 11-4 7-2z" fill="#fff"/></g><path d="m62 25-4 5h-20l-.43-.64-1.57-2.36 18-7 4.92 3.08z" fill="#e29243"/><path d="m39.07 28h17.969l2-2.5-5.249-3.272-14.745 5.734z" fill="#e29243"/><g opacity=".2"><path d="m58.92 23.08-21.35 6.28-1.57-2.36 18-7z" fill="#fff"/></g><path d="m59 61h-7l-17-13-.39-3.92-.61-6.08 23 17 1.71 5.14z" fill="#fab15b"/><path d="m52.677 59h3.548l-.925-2.768-18.861-13.942.465 4.648z" fill="#fab15b"/><path d="m59 61h-7l-17-13-.39-3.92 24.1 16.06z" fill="#e29243"/><path d="m26 31-.26-.19-16.97-12.73a3 3 0 0 1 -.32-4.53l4.33-4.33a3 3 0 0 1 4.91 1z" fill="#c76b28"/><path d="m14.893 10.337a.963.963 0 0 0 -.7.294l-4.333 4.337a1 1 0 0 0 .107 1.507l11.527 8.645-5.662-14.152a.972.972 0 0 0 -.727-.608.99.99 0 0 0 -.212-.023z" fill="#c76b28"/><path d="m32 41 3 2.83v11.17l-3 5-3-6v-10z" fill="#1670b2"/><g opacity=".5"><path d="m18 32c-.98.98-6.53 2.92-11.93 4.65-1.36.43-2.72.85-3.98 1.24l5.91-6.89-2-4 .02-.03c.79.2 1.65.42 2.53.66 4.92 1.34 10.62 3.2 9.45 4.37z" fill="#c76b28"/></g><g opacity=".5"><path d="m23.542 64h-5.542v-12l5.667 2z" fill="#c76b28"/></g><path d="m25.74 30.81-16.97-12.73a3 3 0 0 1 -.32-4.53l2.18-2.18z" fill="#83441d"/><path d="m32 27a4 4 0 1 0 4 4 4 4 0 0 0 -4-4z" fill="#e93527"/><path d="m38 31a6 6 0 1 1 -6-6 5.893 5.893 0 0 1 3.26.97 5.969 5.969 0 0 1 2.74 5.03z" fill="#e93527"/><path d="m35.26 25.97c-4.45.27-7.18 4.26-8.7 7.57a6.007 6.007 0 0 1 5.44-8.54 5.893 5.893 0 0 1 3.26.97z" fill="#f05754"/><g fill="#12374c"><path d="m15 40a1 1 0 0 1 -1-1v-4a1 1 0 0 1 2 0v4a1 1 0 0 1 -1 1z"/><path d="m21 40a1 1 0 0 1 -1-1v-4a1 1 0 0 1 2 0v4a1 1 0 0 1 -1 1z"/><path d="m32 38a7 7 0 1 1 7-7 7.008 7.008 0 0 1 -7 7zm0-12a5 5 0 1 0 5 5 5.006 5.006 0 0 0 -5-5z"/><path d="m32 62a1 1 0 0 1 -.895-.553l-3-6a1 1 0 0 1 -.105-.447v-12a1 1 0 0 1 .293-.707l3-3a1 1 0 0 1 1.414 0l3 3a1 1 0 0 1 .293.707v12a1 1 0 0 1 -.105.447l-3 6a1 1 0 0 1 -.895.553zm-2-7.236 2 4 2-4v-11.35l-2-2-2 2z"/><path d="m26 32a1 1 0 0 1 -.6-.2l-17.233-12.925a4 4 0 0 1 -.428-6.028l4.337-4.337a4 4 0 0 1 6.542 1.344l8.311 20.775a1 1 0 0 1 -.929 1.371zm-11.11-22.663a1.966 1.966 0 0 0 -1.4.587l-4.337 4.337a2 2 0 0 0 .214 3.015l14.38 10.785-6.986-17.461a1.97 1.97 0 0 0 -1.455-1.217 2.088 2.088 0 0 0 -.416-.046z"/><path d="m18 64a1 1 0 0 1 -1-1v-10h-8a4 4 0 0 1 -4-4v-2a1.009 1.009 0 0 1 .03-.242l1.737-6.949-4.932-.822a1 1 0 0 1 -.595-1.637l5.568-6.5-1.7-3.406a1 1 0 0 1 .081-1.028l5.111-7.16a1 1 0 0 1 1.628 1.162l-4.764 6.673 1.731 3.462a1 1 0 0 1 -.135 1.1l-4.847 5.647 4.252.709a1 1 0 0 1 .806 1.229l-1.971 7.885v1.877a2 2 0 0 0 2 2h9a1 1 0 0 1 1 1v11a1 1 0 0 1 -1 1z"/><path d="m18.471 13.177a1 1 0 0 1 -.316-1.948l15.245-5.084 2.75-3.438-3.987-.664-14.914 7.839a1 1 0 1 1 -.931-1.77l15.216-8a1.013 1.013 0 0 1 .63-.1l6 1a1 1 0 0 1 .616 1.611l-4 5a1 1 0 0 1 -.464.323l-15.529 5.179a1 1 0 0 1 -.316.052z"/><path d="m22 22a1 1 0 0 1 -.367-1.931l32.767-12.906 3.665-4.4-6.185-.773a1 1 0 0 1 .244-1.982l8 1a1 1 0 0 1 .644 1.633l-5 6a1 1 0 0 1 -.4.29l-33 13a1.01 1.01 0 0 1 -.368.069z"/><path d="m55 50a1 1 0 0 1 -.462-.113l-23-12a1 1 0 1 1 .925-1.773l22.646 11.815 5.3-1.514-3.068-4.6-20.013-8a1 1 0 0 1 .743-1.857l20.3 8.12a1 1 0 0 1 .46.374l4 6a1 1 0 0 1 -.557 1.517l-7 2a1.015 1.015 0 0 1 -.274.031z"/><path d="m35.544 27.158a1 1 0 0 1 -.329-1.944l23.04-8.014 2.826-6.594a1 1 0 1 1 1.838.787l-3 7a1 1 0 0 1 -.59.551l-23.456 8.156a.993.993 0 0 1 -.329.058z"/><path d="m58 42a1 1 0 0 1 -.707-1.707l4-4a1 1 0 0 1 1.414 1.414l-4 4a1 1 0 0 1 -.707.293z"/><path d="m34 8a1 1 0 0 1 -.342-1.939l11-4a1 1 0 1 1 .684 1.879l-11 4a1 1 0 0 1 -.342.06z"/><path d="m58 31h-20.083a1 1 0 0 1 0-2h19.6l3.7-4.625a1 1 0 1 1 1.562 1.25l-4 5a1 1 0 0 1 -.779.375z"/><path d="m59 62h-7a1 1 0 0 1 -.607-.206l-17-13a1 1 0 1 1 1.215-1.588l16.73 12.794h5.274l-1.562-4.684a1 1 0 0 1 1.9-.633l2 6a1 1 0 0 1 -.95 1.317z"/></g></svg>