<svg id="Layer_2" height="512" viewBox="0 0 64 64" width="512" xmlns="http://www.w3.org/2000/svg" data-name="Layer 2"><path d="m44.93 56.65a5.257 5.257 0 0 1 -7.02-.36c-1.44-2.24-15.76-23.76-16.15-24.37l6.31-4.09 18.05 22.76a5.189 5.189 0 0 1 -1.19 6.06z" fill="#058cc1"/><path d="m39.96 41.36h.01l-8.16 9.28z" fill="#058cc1"/><path d="m39.224 39.174-19.224 21.86a5.2 5.2 0 0 1 -6.176-.1 5.239 5.239 0 0 1 -.9-6.969c6.835-6.364 14.264-13.883 21.1-20.247z" fill="#7cd4f7"/><path d="m20 61.034 19.224-21.86-2.924-3.074c-6.817 6.357-14.222 13.851-21.038 20.2a5.35 5.35 0 0 0 -.426 5.239 5.273 5.273 0 0 0 5.164-.505z" fill="#1799da"/><path d="m31.69 32.4a15.341 15.341 0 0 1 -7.24 3.6c-1.31-1.97-2.3-3.47-2.69-4.08l6.31-4.09z" fill="#0d6e8c"/><path d="m6.5 3.774c-4.79 3.326-5.815 10.361-2.78 16.639l19.323-13.438c-4.819-5.026-11.76-6.52-16.543-3.201z" fill="#f8dc32"/><path d="m24.91 9.256a18.7 18.7 0 0 0 -1.867-2.281l-19.323 13.438a18.7 18.7 0 0 0 1.473 2.526 22.289 22.289 0 0 0 6.9 6.266l16.514-11.484a25.011 25.011 0 0 0 -3.697-8.465z" fill="#33b575"/><path d="m25.725 30.6c3.465-2.4 4.095-7.636 2.883-12.876l-16.508 11.483c4.721 2.793 10.165 3.793 13.625 1.393z" fill="#1799da"/><path d="m10.607 20.177h4v3.999h-4z" fill="#f8dc32" transform="matrix(.178 -.984 .984 .178 -11.46 30.634)"/><path d="m15.254 16.952h3.999v3.999h-3.999z" fill="#f8dc32" transform="matrix(.178 -.984 .984 .178 -4.463 32.561)"/><path d="m5.496 9.091h3.999v4h-3.999z" fill="#268c56" transform="matrix(.178 -.984 .984 .178 -4.751 16.496)"/><path d="m10.143 5.866h3.999v4h-3.999z" fill="#268c56" transform="matrix(.178 -.984 .984 .178 2.244 18.418)"/><path d="m19.902 13.726h3.999v3.999h-3.999z" fill="#f8dc32" transform="matrix(.178 -.984 .984 .178 2.533 34.483)"/><path d="m58.853 30.519-16.63-16.63a18.713 18.713 0 0 0 -2.292 1.951 22.26 22.26 0 0 0 -4.905 7.823l14.263 14.263a25 25 0 0 0 7.611-5.116 18.713 18.713 0 0 0 1.953-2.291z" fill="#33b575"/><path d="m36.042 37.407c2.995 2.995 8.286 2.668 13.245.521l-14.262-14.263c-1.939 5.168-1.977 10.747 1.017 13.742z" fill="#1799da"/><path d="m59.023 13.719c-4.105-4.105-11.173-3.885-16.8.17l16.63 16.63c4.055-5.628 4.275-12.695.17-16.8z" fill="#f8dc32"/><path d="m40 21h4v4h-4z" fill="#f8dc32"/><path d="m44 25h4v4h-4z" fill="#f8dc32"/><path d="m50 14h4v4h-4z" fill="#268c56"/><path d="m54 18h4v4h-4z" fill="#268c56"/><path d="m48 29h4v4h-4z" fill="#f8dc32"/><g fill="#192b54"><path d="m42.075 40.58a9.253 9.253 0 0 1 -6.74-2.467c-2.411-2.41-3.243-6.511-2.282-11.249a23.9 23.9 0 0 1 6.171-11.731 19.077 19.077 0 0 1 6.409-4.25 1 1 0 0 1 .734 1.859 17.086 17.086 0 0 0 -5.729 3.8 21.822 21.822 0 0 0 -5.625 10.715c-.825 4.069-.192 7.509 1.736 9.438 4.183 4.18 13.886.963 19.445-4.6 5.458-5.458 6.41-13.389 2.122-17.678a9.87 9.87 0 0 0 -8.216-2.606 1 1 0 0 1 -.2-1.989 11.834 11.834 0 0 1 9.835 3.189c5.068 5.069 4.116 14.268-2.122 20.506-4.198 4.194-10.373 7.063-15.538 7.063z"/><path d="m23 45.306a1 1 0 0 1 -.7-1.717l.477-.464c3.511-3.417 7.142-6.951 10.567-10.141a1 1 0 0 1 1.363 1.463c-3.41 3.176-7.033 6.7-10.536 10.111l-.477.464a1 1 0 0 1 -.694.284z"/><path d="m16.928 63a5.923 5.923 0 0 1 -3.728-1.29 6.233 6.233 0 0 1 -1.1-8.31.959.959 0 0 1 .147-.173c2-1.866 4.181-3.941 7.057-6.729a1 1 0 0 1 1.396 1.44c-2.845 2.758-5.008 4.821-7 6.675a4.217 4.217 0 0 0 .753 5.54 4.176 4.176 0 0 0 4.883.125l19.137-21.763a1 1 0 1 1 1.5 1.32l-19.222 21.859a1.023 1.023 0 0 1 -.182.162 6.411 6.411 0 0 1 -3.641 1.144z"/><path d="m58.853 31.519a1 1 0 0 1 -.707-.293l-16.63-16.626a1 1 0 0 1 1.414-1.414l16.63 16.63a1 1 0 0 1 -.707 1.707z"/><path d="m49.3 38.933a1 1 0 0 1 -.707-.293l-14.281-14.278a1 1 0 0 1 1.414-1.414l14.274 14.278a1 1 0 0 1 -.707 1.707z"/><path d="m20.894 32.891c-5.372 0-12.211-3.169-16.522-9.381-5.031-7.248-4.332-16.47 1.557-20.557a10.758 10.758 0 0 1 2.757-1.376 1 1 0 1 1 .629 1.9 8.8 8.8 0 0 0 -2.246 1.123c-4.983 3.454-5.456 11.427-1.055 17.769 4.272 6.155 14.141 10.879 19.141 7.41 4.857-3.372 3.416-13.5-1.065-19.953-2.8-4.031-6.964-6.577-11.145-6.81a1 1 0 0 1 -.945-1.053.979.979 0 0 1 1.054-.942c4.791.266 9.529 3.132 12.676 7.665 5.113 7.368 6.44 18.657.563 22.736a9.44 9.44 0 0 1 -5.399 1.469z"/><path d="m27.236 41.189a1 1 0 0 1 -.832-.444l-1.133-1.691c-1.489-2.226-3.03-4.525-4.356-6.589a1 1 0 1 1 1.685-1.082c1.316 2.048 2.852 4.341 4.337 6.558l1.133 1.693a1 1 0 0 1 -.83 1.556z"/><path d="m41.684 58.829a6.422 6.422 0 0 1 -4.473-1.829 1 1 0 0 1 -.145-.177c-1.956-3.047-4.078-6.232-5.9-8.947a1 1 0 1 1 1.662-1.113c1.8 2.693 3.9 5.849 5.852 8.879a4.047 4.047 0 0 0 6.576-4.539l-7.956-10.011a1 1 0 0 1 1.566-1.244l8.039 10.117a.965.965 0 0 1 .127.208 6.2 6.2 0 0 1 -1.451 7.227 5.924 5.924 0 0 1 -3.897 1.429z"/><path d="m33.313 35.439a1 1 0 0 1 -.784-.378l-5.245-6.609a1 1 0 0 1 1.566-1.244l5.245 6.609a1 1 0 0 1 -.782 1.622z"/><path d="m3.682 21.337a1 1 0 0 1 -.571-1.821l19.321-13.409a1 1 0 1 1 1.14 1.643l-19.321 13.408a.993.993 0 0 1 -.569.179z"/><path d="m12 30.17a1 1 0 0 1 -.571-1.821l16.6-11.52a1 1 0 1 1 1.141 1.643l-16.6 11.52a.993.993 0 0 1 -.57.178z"/><path d="m14.219 25.5a1.012 1.012 0 0 1 -.179-.016l-3.94-.712a1 1 0 0 1 -.8-1.163l.713-3.936a1 1 0 0 1 1.162-.806l3.936.712a1 1 0 0 1 .807 1.163l-.718 3.937a1 1 0 0 1 -.981.821zm-2.774-2.518 1.968.355.356-1.968-1.969-.354z"/><path d="m18.867 22.274a1.02 1.02 0 0 1 -.179-.016l-3.936-.711a1 1 0 0 1 -.807-1.162l.711-3.936a1 1 0 0 1 1.162-.807l3.936.711a1 1 0 0 1 .807 1.162l-.711 3.936a1 1 0 0 1 -.983.823zm-2.774-2.518 1.967.355.355-1.967-1.967-.355z"/><path d="m9.109 14.414a1.02 1.02 0 0 1 -.179-.016l-3.937-.711a1 1 0 0 1 -.807-1.162l.714-3.935a1 1 0 0 1 1.162-.807l3.938.711a1 1 0 0 1 .8 1.162l-.711 3.936a1 1 0 0 1 -.98.822zm-2.775-2.514 1.968.355.355-1.967-1.968-.358z"/><path d="m13.757 11.189a1.02 1.02 0 0 1 -.179-.016l-3.937-.711a1 1 0 0 1 -.806-1.162l.711-3.936a1 1 0 0 1 1.162-.807l3.937.711a1 1 0 0 1 .807 1.162l-.711 3.936a1 1 0 0 1 -.984.823zm-2.776-2.517 1.968.355.351-1.966-1.968-.355z"/><path d="m23.515 19.049a1.02 1.02 0 0 1 -.179-.016l-3.936-.711a1 1 0 0 1 -.807-1.162l.711-3.936a1 1 0 0 1 1.162-.807l3.936.711a1 1 0 0 1 .807 1.162l-.709 3.937a1 1 0 0 1 -.985.822zm-2.775-2.518 1.967.355.355-1.967-1.962-.355z"/><path d="m44 26h-4a1 1 0 0 1 -1-1v-4a1 1 0 0 1 1-1h4a1 1 0 0 1 1 1v4a1 1 0 0 1 -1 1zm-3-2h2v-2h-2z"/><path d="m48 30h-4a1 1 0 0 1 -1-1v-4a1 1 0 0 1 1-1h4a1 1 0 0 1 1 1v4a1 1 0 0 1 -1 1zm-3-2h2v-2h-2z"/><path d="m54 19h-4a1 1 0 0 1 -1-1v-4a1 1 0 0 1 1-1h4a1 1 0 0 1 1 1v4a1 1 0 0 1 -1 1zm-3-2h2v-2h-2z"/><path d="m58 23h-4a1 1 0 0 1 -1-1v-4a1 1 0 0 1 1-1h4a1 1 0 0 1 1 1v4a1 1 0 0 1 -1 1zm-3-2h2v-2h-2z"/><path d="m52 34h-4a1 1 0 0 1 -1-1v-4a1 1 0 0 1 1-1h4a1 1 0 0 1 1 1v4a1 1 0 0 1 -1 1zm-3-2h2v-2h-2z"/></g></svg>