<?xml version="1.0" encoding="iso-8859-1"?>
<!-- Generator: Adobe Illustrator 19.0.0, SVG Export Plug-In . SVG Version: 6.00 Build 0)  -->
<svg xmlns="http://www.w3.org/2000/svg" xmlns:xlink="http://www.w3.org/1999/xlink" version="1.1" id="Layer_1" x="0px" y="0px" viewBox="0 0 512.159 512.159" style="enable-background:new 0 0 512.159 512.159;" xml:space="preserve" width="512" height="512">
<g>
	<g>
		<path style="fill:#6D5248;" d="M393.534,25.075c-5.72-15.293-20.809-19.507-36.557-16.511l0.001-0.001    c-63.196,11.401-140.764,11.064-202.09,0l0.001,0.001c-1.18,0.048-27.992-6.391-36.557,16.511    c-67.395,202.186,6.558,479.553,137.601,479.553C383.543,504.628,463.036,233.407,393.534,25.075z"/>
		<g>
			<path style="fill:#60433A;" d="M135.661,57.408c0.017-0.068,0.034-0.136,0.051-0.204c0.783-3.103,1.592-6.177,2.426-9.222     c0.012-0.045,0.025-0.091,0.037-0.136c2.122-7.733,4.424-15.336,6.905-22.771c3.3-8.825,9.366-13.32,15.619-15.512     c-1.954-0.325-3.899-0.655-5.813-1l0.001,0.001c-1.18,0.048-27.992-6.391-36.557,16.511     c-70.816,212.448,14.324,499.722,150.976,478.503C154.758,485.789,86.692,251.784,135.661,57.408z"/>
		</g>
		<ellipse style="fill:#EAEAEA;" cx="332.316" cy="166.221" rx="49.011" ry="16.684"/>
		<ellipse style="fill:#EAEAEA;" cx="179.549" cy="166.221" rx="49.011" ry="16.684"/>
		<path style="fill:#D1D1D1;" d="M156.099,166.107c0-8.061,13.51-14.786,31.472-16.344c-26.324-1.476-57.033,5.057-57.033,16.458    c0,11.437,30.998,18.249,58.706,16.357C170.455,181.303,156.099,174.415,156.099,166.107z"/>
		<path style="fill:#D1D1D1;" d="M308.866,166.107c0-8.061,13.51-14.786,31.472-16.344c-26.324-1.476-57.033,5.057-57.033,16.458    c0,11.437,30.998,18.249,58.706,16.357C323.222,181.303,308.866,174.415,308.866,166.107z"/>
		<path style="fill:#91746D;" d="M291.316,260.812c-15.676-32.889-19.129-65.765-35.383-65.765    c-16.254,0-19.707,32.876-35.383,65.765c-22.318,46.823,8.011,24.068,14.878,38.071c8.846,18.039,32.166,18.031,41.009,0    C283.305,284.88,313.633,307.635,291.316,260.812z"/>
		<path style="fill:#84665D;" d="M253.753,277.761c3.664-37.583-3.793-71.115,9.045-80.359c-2.034-1.523-4.288-2.355-6.865-2.355    c-16.254,0-19.707,32.876-35.383,65.765c-22.318,46.823,8.011,24.068,14.878,38.071c5.101,10.402,15.688,15.463,25.7,12.868    C254.975,311.404,251.078,305.199,253.753,277.761z"/>
		<path style="fill:#F2D59F;" d="M317.601,374.18L317.601,374.18L317.601,374.18c-4.817-3.168-10.013-7.204-14.251-11.99    c-11.159-12.603-33.054-21.411-47.417-5.189c-14.363-16.222-36.258-7.414-47.417,5.189c-4.565,5.155-10.651,9.807-16.553,13.459    c-2.213,1.533-7.409,6.216,0.854,12.148v0c5.59,3.313,12.464,8.518,19.664,16.65c17.408,19.661,43.452,16.31,43.452,16.31    s26.044,3.351,43.452-16.31c6.589-7.442,12.907-12.434,18.216-15.767C322.796,383.484,323.443,378.026,317.601,374.18z"/>
		<path style="fill:#EDBF77;" d="M192.817,387.798L192.817,387.798c5.59,3.314,12.464,8.518,19.664,16.65    c17.408,19.661,43.452,16.31,43.452,16.31s26.044,3.351,43.452-16.31c6.589-7.442,12.907-12.434,18.216-15.767    c3.289-3.289,4.252-6.061,4.126-8.273H188.39C188.01,382.455,188.9,384.986,192.817,387.798z"/>
		<path style="fill:#E83D3D;" d="M212.731,15.544L212.731,15.544c-18.757-1.274-38.66-3.522-57.844-6.98l0.001,0.001    c-1.249,0.047-27.772-6.318-36.447,16.241c-6.913,20.692-12.047,41.137-16.131,62.835c90.262,21.88,216.808,21.921,307.244,0    c-3.972-21.135-9.125-41.859-16.131-62.835c-5.797-15.075-20.82-19.214-36.447-16.241l0.001-0.001    c-27.216,4.91-55.962,7.479-84.313,8.211l0,0C251.758,17.308,230.658,16.804,212.731,15.544z"/>
		<path style="fill:#BC3B3B;" d="M118.441,24.806c-7.24,21.674-12.035,41.342-16.13,62.834c8.197,1.987,16.804,3.817,25.769,5.48    c2.148-12.215,4.482-23.406,7.582-35.713c0.017-0.068,0.034-0.136,0.051-0.204c0.783-3.103,1.592-6.177,2.426-9.222    c0.012-0.045,0.025-0.091,0.037-0.136c2.122-7.733,4.424-15.336,6.905-22.771c3.3-8.825,9.366-13.32,15.619-15.512    c-1.954-0.325-3.899-0.655-5.813-1l0.001,0.001l0,0l0,0C124.382,2.806,118.843,24.528,118.441,24.806z"/>
		<path style="fill:#F6B138;" d="M393.424,24.806c-5.797-15.075-20.82-19.214-36.447-16.241l0.001-0.001    c-61.679,11.127-139.169,11.341-202.09,0l0.001,0.001c-1.249,0.047-27.772-6.318-36.447,16.241    c-1.74,5.209-2.663,8.118-4.592,14.628c85.191,18.335,198.307,18.479,284.167,0C395.962,32.506,395.016,29.572,393.424,24.806z"/>
		<path style="fill:#EDA024;" d="M118.441,24.806c-1.496,4.478-2.518,7.629-4.592,14.627c8.116,1.747,16.593,3.341,25.362,4.786    c1.859-6.563,3.633-12.442,5.869-19.144c3.3-8.825,9.366-13.32,15.619-15.512c-1.954-0.325-3.899-0.655-5.813-1l0.001,0.001l0,0    l0,0C124.382,2.806,118.843,24.528,118.441,24.806z"/>
	</g>
	<g>
		<path d="M388.974,166.188c0-5.603-3.372-13.429-19.438-18.897c-20.712-7.051-53.422-7.055-74.146,0    c-16.066,5.469-19.438,13.295-19.438,18.897s3.372,13.429,19.438,18.897C325.943,195.486,388.974,191.009,388.974,166.188z     M291.226,166.188c2.687-3.097,16.509-9.185,41.236-9.185c24.729,0,38.551,6.088,41.237,9.185    c-2.687,3.097-16.509,9.185-41.237,9.185C307.735,175.373,293.913,169.285,291.226,166.188z"/>
		<path d="M123.185,166.188c0,5.603,3.372,13.429,19.438,18.897c20.712,7.051,53.422,7.055,74.146,0    c16.066-5.469,19.438-13.295,19.438-18.897C236.208,133.768,123.185,133.939,123.185,166.188z M179.696,175.373    c-24.728,0-38.55-6.088-41.236-9.185c2.687-3.097,16.509-9.185,41.236-9.185c24.729,0,38.551,6.088,41.237,9.185    C218.247,169.285,204.425,175.373,179.696,175.373z"/>
		<path d="M376.928,202.636c-1.769-3.747-6.239-5.349-9.983-3.581c-16.775,7.917-45.703,3.977-64.429-3.485    c-3.846-1.533-8.21,0.341-9.743,4.19c-1.534,3.848,0.343,8.21,4.19,9.743c13.872,5.529,30.355,8.846,45.833,8.846    c11.846,0,22.521-1.938,30.551-5.729C377.093,210.852,378.696,206.381,376.928,202.636z"/>
		<path d="M216.682,209.503c3.848-1.533,5.725-5.896,4.19-9.743c-1.532-3.848-5.896-5.724-9.743-4.19    c-18.459,7.356-47.531,11.462-64.429,3.485c-3.744-1.768-8.216-0.166-9.983,3.581c-1.769,3.745-0.165,8.216,3.581,9.983    C161.182,222.477,194.126,218.493,216.682,209.503z"/>
		<path d="M256.08,187.514c-23.146,0-25.535,35.172-42.153,70.038c-10.542,22.117-15.747,40.777,8.666,43.038    c3.363,0.312,5.779,0.605,6.249,1.563c11.589,23.63,42.881,23.646,54.477,0c1.438-2.929,16.085,0.956,21.8-9.099    c3.928-6.912,1.998-16.866-6.885-35.502c-10.262-21.53-15.24-43.501-22.744-56.547    C273.569,197.668,267.728,187.514,256.08,187.514z M292.048,285.166c-4.753,1.056-16.965-0.286-22.196,10.382    c-6.087,12.41-21.379,12.566-27.543,0c-5.23-10.666-17.456-9.329-22.196-10.382c-0.029-1.77,0.691-7.179,7.355-21.16    c13.123-27.533,19.922-61.491,28.612-61.491c8.697,0,15.465,33.906,28.612,61.491    C291.356,277.987,292.077,283.396,292.048,285.166z"/>
		<path d="M323.09,253.961c3.477-2.252,4.47-6.896,2.218-10.372c-0.433-0.668-0.856-1.334-1.271-2    c-2.194-3.515-6.821-4.587-10.333-2.393c-3.515,2.193-4.586,6.819-2.394,10.333c0.46,0.737,0.929,1.474,1.408,2.214    C314.958,255.203,319.598,256.224,323.09,253.961z"/>
		<path d="M361.092,282.734c-3.257-2.561-7.973-1.996-10.531,1.262c-2.56,3.256-1.995,7.971,1.262,10.531    c3.967,3.118,5.648,4.673,8.661,4.673c2.303,0,4.575-1.058,6.045-3.054c2.456-3.335,1.743-8.03-1.592-10.486    C363.645,284.709,362.352,283.724,361.092,282.734z"/>
		<path d="M342.933,276.984c3.016-2.839,3.158-7.586,0.318-10.602c-1.1-1.168-2.2-2.371-3.27-3.576    c-2.749-3.097-7.489-3.379-10.588-0.629c-3.098,2.75-3.379,7.49-0.629,10.588c1.166,1.313,2.366,2.626,3.566,3.9    C335.171,279.681,339.919,279.824,342.933,276.984z"/>
		<path d="M378.739,311.661c0.787,0.392,1.58,0.776,2.375,1.154c3.736,1.773,8.213,0.19,9.992-3.559    c1.776-3.742,0.183-8.216-3.559-9.992c-0.711-0.337-1.418-0.681-2.121-1.031c-3.709-1.844-8.21-0.338-10.058,3.37    C373.523,305.311,375.031,309.814,378.739,311.661z"/>
		<path d="M189.668,241.589c-0.415,0.666-0.839,1.332-1.271,2c-3.26,5.032,0.434,11.578,6.288,11.578    c4.465,0,6.173-3.175,7.71-5.638c2.192-3.514,1.121-8.14-2.394-10.333C196.49,237.005,191.862,238.077,189.668,241.589z"/>
		<path d="M152.612,282.734c-1.261,0.99-2.554,1.975-3.845,2.926c-3.335,2.456-4.048,7.151-1.592,10.486    c1.47,1.997,3.742,3.054,6.045,3.054c2.998,0,4.556-1.446,8.661-4.673c3.257-2.561,3.821-7.275,1.262-10.531    C160.582,280.738,155.868,280.174,152.612,282.734z"/>
		<path d="M175.911,279.024c1.994,0,3.985-0.791,5.461-2.358c1.2-1.274,2.4-2.587,3.566-3.9c2.75-3.098,2.469-7.838-0.629-10.588    c-3.1-2.752-7.839-2.469-10.588,0.629c-1.069,1.205-2.17,2.408-3.27,3.576C165.954,271.158,169.378,279.024,175.911,279.024z"/>
		<path d="M122.598,309.256c1.283,2.703,3.975,4.285,6.78,4.285c1.078,0,2.173-0.233,3.212-0.727    c0.795-0.378,1.588-0.763,2.375-1.154c3.708-1.847,5.216-6.35,3.37-10.058c-1.847-3.707-6.347-5.215-10.058-3.37    c-0.703,0.351-1.41,0.694-2.121,1.031C122.415,301.041,120.821,305.514,122.598,309.256z"/>
		<path d="M183.296,388.57c4.653,6.95,10.715,6.129,23.717,20.816c12.396,13.999,31.496,20.406,49.067,18.876    c5.339,0.466,31.013,1.515,49.067-18.876c13.373-15.105,20.089-13.442,23.51-24.046c2.036-6.312-0.182-13.153-6.788-17.459    c-5.223-3.436-9.515-7.034-12.757-10.696c-7.078-7.994-19.723-16.536-33.986-16.536c-7.029,0-13.5,2.121-19.046,6.193    c-16.709-12.269-39.469-4.976-53.032,10.343c-10.377,11.72-20.583,12.15-21.974,22.388    C180.757,381.894,181.49,385.862,183.296,388.57z M257.037,413.286c-0.31-0.04-0.629-0.06-0.949-0.06    c-0.314,0-0.629,0.019-0.934,0.056c-0.221,0.024-22.459,2.483-36.91-13.838c-3.852-4.351-8.284-8.545-12.039-11.569h99.752    c-4.254,3.424-8.595,7.676-12.04,11.568C279.464,415.766,257.229,413.307,257.037,413.286z M214.278,367.128    c9.424-10.644,25.937-16.766,36.187-5.189c2.985,3.37,8.246,3.369,11.23,0c3.747-4.232,8.141-6.29,13.431-6.29    c7.649,0,16.582,4.506,22.756,11.479c1.728,1.952,3.675,3.869,5.806,5.746h-95.207    C210.61,370.999,212.549,369.081,214.278,367.128z"/>
		<path d="M136.522,386.682c-33.844-79.388-45.369-188.919-28.077-289.983c43.259,9.707,94.089,14.826,147.634,14.826    c53.545,0,104.375-5.119,147.634-14.826c2.898,16.932,4.813,33.261,5.902,46.701c0.345,4.1,3.937,7.187,8.103,6.845    c4.127-0.348,7.192-3.975,6.845-8.103l-0.127-1.554c-5.623-69.59-24.106-119.135-23.864-118.509    c-6.856-17.758-25.163-24.584-42.965-21.271c-0.1,0.019-0.914,0.173-0.814,0.154c-4.535,0.871-14.884,2.55-23.793,3.711    c-4.107,0.536-7.003,4.3-6.468,8.407c0.536,4.107,4.295,6.991,8.407,6.468c9.814-1.28,21.195-3.17,23.641-3.659    c12.118-2.212,23.373-0.115,27.935,11.431c0.672,2.015,1.448,4.364,2.086,6.397c-79.389,15.722-183.089,16.229-265.041,0    c2.295-7.353,3.848-12.75,11.295-16.388c6.277-2.945,12.888-2.398,18.947-1.4c77.165,13.896,149.861,6.732,150.755,6.716    c5.975-0.448,9.036-7.394,5.329-12.13c-4.266-5.416-5.509-0.945-55.439-1.068c-37.786-0.092-73.278-3.622-98.494-8.375    c-1.666-0.313-1.529-0.289-1.652-0.308c-19.824-3.146-36.994,4.062-43.749,24.351c-0.033,0.101-0.717,2.224-0.755,2.342    c-37.135,115.92-30.877,262.353,12.927,365.108c1.623,3.805,6.025,5.584,9.841,3.958    C136.375,394.898,138.146,390.493,136.522,386.682z M342.481,82.645L325.279,57.69c9.581-0.85,18.991-1.879,28.197-3.08    L342.481,82.645z M366.778,61.778l20.02,23.13c-10.021,1.952-20.406,3.666-31.106,5.136L366.778,61.778z M331.338,92.908    c-10.082,0.999-20.382,1.793-30.863,2.379l13.07-28.192L331.338,92.908z M287.506,87.599l-17.928-27.024    c10.435-0.172,20.772-0.542,30.969-1.107L287.506,87.599z M211.208,59.446c10.2,0.571,20.542,0.945,30.983,1.122L224.26,87.599    L211.208,59.446z M211.28,95.265c-10.469-0.591-20.756-1.391-30.827-2.394l17.768-25.775L211.28,95.265z M169.283,82.644    l-11.016-28.088c9.219,1.209,18.644,2.244,28.241,3.101L169.283,82.644z M156.053,89.993c-10.678-1.473-21.028-3.201-31.026-5.155    l19.96-23.06L156.053,89.993z M236.498,96.285l19.384-29.219l19.391,29.228c-6.352,0.15-12.749,0.231-19.193,0.231    C249.505,96.525,242.978,96.44,236.498,96.285z M392.891,48.148c2.518,9.036,4.851,18.434,7.105,29.088l-22.68-26.203    C382.598,50.131,387.795,49.171,392.891,48.148z M134.5,50.973L112.302,76.62c2.238-10.507,4.419-19.326,6.967-28.472    C124.254,49.149,129.338,50.088,134.5,50.973z"/>
		<path d="M426.337,172.485c-0.136-4.139-3.575-7.424-7.742-7.25c-4.14,0.136-7.386,3.603-7.25,7.742    c3.253,99.073-17.727,181.557-46.58,236.754c-60.364,115.479-154.555,116.348-215.507,3.478    c-1.968-3.645-6.519-5.004-10.163-3.036c-3.645,1.969-5.004,6.519-3.036,10.163c67.415,124.838,176.74,121.188,241.999-3.655    C408.107,359.193,429.665,274.035,426.337,172.485z"/>
	</g>
</g>















</svg>
