<svg id="Layer_2" height="512" viewBox="0 0 64 64" width="512" xmlns="http://www.w3.org/2000/svg" data-name="Layer 2"><path d="m46 30-21.833 34h-22.167v-6l6-22a6 6 0 0 1 6-6z" fill="#470718"/><path d="m56 36a6.04 6.04 0 0 0 -6.08-6h-3.92l-21.833 34h37.833v-6z" fill="#e29344"/><path d="m54 16h-44q1.47-1.47 3.25-3.06a71.926 71.926 0 0 1 18-11.6c.25-.12.5-.23.75-.34a71.846 71.846 0 0 1 22 15z" fill="#e29344"/><path d="m31.25 1.34-.83 2.59-2.67 8.32-11.21.54-3.29.15a71.926 71.926 0 0 1 18-11.6z" fill="#fdb25a"/><path d="m40.057 22h.943c7.123-.91 13-3.363 13-5.5 0-3.038-9.85-4.5-22-4.5s-22 1.462-22 4.5c0 2.137 5.877 4.59 13 5.5h.944" fill="#844215"/><path d="m37 24.242v5.758l-5 8-5-8v-5.758" fill="#e29344"/><path d="m42 12.39v6.61c0 2.57-6.01 5.96-8.71 7.36-.78.4-1.29.64-1.29.64s-10-4.69-10-8v-6.61z" fill="#edba70"/><path d="m33.29 26.36c-.78.4-1.29.64-1.29.64s-10-4.69-10-8v-6.61h6v6.73a6.015 6.015 0 0 0 2.15 4.6l.26.22.02.02z" fill="#e5e6e7" opacity=".3"/><path d="m29 41-4 5-2 10 2 5 4-5z" fill="#edba70"/><path d="m34 41 4 5 2 10-2 5-4-5z" fill="#edba70"/><path d="m20 12.39h24v4.11h-24z" fill="#844215" opacity=".3"/><g fill="#1e0202"><path d="m3 63v-4.866l5.965-21.871a.99.99 0 0 0 .035-.263 5.006 5.006 0 0 1 5-5h3a1 1 0 0 0 0-2h-3a7.008 7.008 0 0 0 -7 6.861l-5.965 21.876a.99.99 0 0 0 -.035.263v5a1 1 0 0 0 2 0z"/><path d="m62 64a1 1 0 0 0 1-1v-5a.99.99 0 0 0 -.035-.263l-3.545-13a1 1 0 1 0 -1.93.525l3.51 12.872v4.866a1 1 0 0 0 1 1z"/><path d="m57.625 41.957a1 1 0 0 0 .7-1.228l-1.325-4.868a7.051 7.051 0 0 0 -7.08-6.861h-11.92v-4.2a24.008 24.008 0 0 0 2.406-1.8h.594a1.107 1.107 0 0 0 .127-.008c6.682-.854 13.873-3.25 13.873-6.492a2.306 2.306 0 0 0 -.03-.349.983.983 0 0 0 -.264-.859c-.041-.041-.086-.08-.127-.121a4.134 4.134 0 0 0 -1.179-1.117 73.043 73.043 0 0 0 -9.85-7.887 73 73 0 0 0 -11.15-6.083 1 1 0 0 0 -.8 0 73.146 73.146 0 0 0 -8.111 4.168 1 1 0 1 0 1.023 1.719 71.274 71.274 0 0 1 7.488-3.878 71.027 71.027 0 0 1 10.446 5.74 70.783 70.783 0 0 1 5.9 4.39 82.882 82.882 0 0 0 -16.346-1.223 82.9 82.9 0 0 0 -16.342 1.222c1.442-1.192 2.925-2.334 4.452-3.4q.705-.5 1.444-.985a1 1 0 0 0 -1.107-1.666q-.759.505-1.484 1.013a73.159 73.159 0 0 0 -8.391 6.891 4.109 4.109 0 0 0 -1.149 1.1c-.042.042-.087.081-.129.123a.983.983 0 0 0 -.264.859 2.306 2.306 0 0 0 -.03.343c0 3.242 7.191 5.638 13.873 6.492a1.107 1.107 0 0 0 .127.008h.594a24.008 24.008 0 0 0 2.406 1.8v4.2h-5a1 1 0 0 0 0 2h5.446l4.706 7.53a1 1 0 0 0 1.7 0l4.703-7.53h6.614l-7.525 11.7-1.863-2.329a1 1 0 0 0 -1.781.629v7.679l-3 4.2v-11.879a1 1 0 0 0 -1.781-.625l-4 5a1 1 0 0 0 -.2.429l-2 10a1 1 0 0 0 .052.567l2 5a1 1 0 0 0 .782.618 1.062 1.062 0 0 0 .147.011 1 1 0 0 0 .781-.375l4-5c.012-.015.016-.033.027-.048h.006l3.186-4.456v3.879a1 1 0 0 0 .219.625l4 5a1 1 0 0 0 .781.375 1.062 1.062 0 0 0 .146-.011 1 1 0 0 0 .782-.618l2-5a1 1 0 0 0 .052-.567l-2-10a1 1 0 0 0 -.2-.429l-.818-1.022 8.584-13.353h3.374a5.046 5.046 0 0 1 5.08 5 .99.99 0 0 0 .035.263l1.365 4.992a1 1 0 0 0 .964.737.984.984 0 0 0 .261-.035zm-29.625 13.692-2.709 3.386-1.252-3.135 1.894-9.47 2.067-2.579zm10.961.255-1.252 3.131-2.709-3.386v-11.8l2.067 2.584zm14.028-39.485a.429.429 0 0 1 .011.081c0 .937-3.729 3.177-10.6 4.288a3.48 3.48 0 0 0 .6-1.788v-5.516c4.922.5 7.73 1.316 9.052 2.045.312.296.63.587.937.89zm-11.989-3.112v5.693c0 1.6-4.592 4.764-9 6.893-4.408-2.129-9-5.293-9-6.893v-5.693c2.517-.192 5.5-.307 9-.307s6.483.115 9 .307zm-30 3.193a.427.427 0 0 1 .011-.084c.3-.3.611-.586.918-.878 1.314-.731 4.126-1.55 9.071-2.055v5.517a3.48 3.48 0 0 0 .6 1.788c-6.871-1.111-10.6-3.351-10.6-4.288zm21 19.613-4-6.4v-3.68c1.585.915 2.981 1.594 3.576 1.872a1 1 0 0 0 .849 0c.594-.278 1.99-.958 3.576-1.872v3.68z"/><path d="m20 64a1 1 0 0 0 1-1v-5a1 1 0 0 0 -1-1h-4v-15a1 1 0 0 0 -2 0v15h-6a1 1 0 0 0 0 2h11v4a1 1 0 0 0 1 1z"/><path d="m50 45a1 1 0 0 0 -1 1v11h-6a1 1 0 0 0 -1 1v5a1 1 0 0 0 2 0v-4h12a1 1 0 0 0 0-2h-5v-11a1 1 0 0 0 -1-1z"/><path d="m17 33h-1a1 1 0 0 0 0 2h1a1 1 0 0 0 0-2z"/><path d="m22 34a1 1 0 0 0 -1-1h-1a1 1 0 0 0 0 2h1a1 1 0 0 0 1-1z"/><path d="m34 9a1 1 0 0 0 0-2h-1a1 1 0 0 0 0 2z"/><path d="m38 9a1 1 0 0 0 0-2h-1a1 1 0 0 0 0 2z"/></g></svg>