<svg id="peasant" enable-background="new 0 0 300 300" height="512" viewBox="0 0 300 300" width="512" xmlns="http://www.w3.org/2000/svg"><g><circle cx="179.265" cy="146" fill="#ffe5d2" r="86"/><g fill="#4c241d"><path d="m247.265 168c-7.719 0-14-6.281-14-14s6.281-14 14-14 14 6.281 14 14-6.282 14-14 14zm0-20c-3.309 0-6 2.691-6 6s2.691 6 6 6 6-2.691 6-6-2.692-6-6-6z"/><circle cx="247.265" cy="190" r="4.529"/><circle cx="39.265" cy="154" r="4.529"/><circle cx="243.265" cy="50" r="4.529"/></g><g><path d="m225.265 272h-152v-32.902c0-14.82 9.008-28.25 22.986-34.269l53.014-22.829 53.014 22.829c13.978 6.019 22.986 19.449 22.986 34.269z" fill="#b5a19c"/><path d="m225.265 276h-152c-2.211 0-4-1.791-4-4v-32.902c0-16.404 9.973-31.297 25.402-37.941l53.016-22.83c1.008-.434 2.156-.434 3.164 0l53.016 22.83c15.43 6.645 25.402 21.537 25.402 37.941v32.902c0 2.209-1.789 4-4 4zm-148-8h144v-28.902c0-13.205-8.074-25.215-20.566-30.594l-51.434-22.148-51.434 22.148c-12.492 5.379-20.566 17.389-20.566 30.594z" fill="#4c241d"/></g><g><path d="m149.265 208c-8.837 0-16-7.163-16-16v-12h32v12c0 8.837-7.164 16-16 16z" fill="#edebdc"/><path d="m149.265 212c-11.027 0-20-8.973-20-20v-12c0-2.209 1.789-4 4-4h32c2.211 0 4 1.791 4 4v12c0 11.027-8.973 20-20 20zm-12-28v8c0 6.617 5.383 12 12 12s12-5.383 12-12v-8z" fill="#4c241d"/></g><path d="m105.265 268c-2.211 0-4-1.791-4-4v-20c0-2.209 1.789-4 4-4s4 1.791 4 4v20c0 2.209-1.789 4-4 4z" fill="#4c241d"/><path d="m151.265 180c-41.008 0-76.832-27.07-87.121-65.83-.566-2.135.707-4.324 2.84-4.891 2.141-.57 4.328.703 4.895 2.84 9.358 35.256 42.003 59.881 79.386 59.881 37.047 0 69.617-24.352 79.207-59.217.586-2.131 2.809-3.381 4.914-2.797 2.133.586 3.383 2.787 2.797 4.918-10.535 38.328-46.282 65.096-86.918 65.096z" fill="#bf7e68"/><path d="m193.265 268c-2.211 0-4-1.791-4-4v-20c0-2.209 1.789-4 4-4s4 1.791 4 4v20c0 2.209-1.789 4-4 4z" fill="#4c241d"/><path d="m57.917 189.348c-1.023 0-2.047-.391-2.828-1.172-1.562-1.562-1.562-4.094 0-5.656l14.695-14.695c1.562-1.562 4.094-1.562 5.656 0s1.562 4.094 0 5.656l-14.695 14.695c-.781.781-1.804 1.172-2.828 1.172z" fill="#4c241d"/><g><path d="m201.265 122v-30h-100v30c-5.644 0-10.196 4.676-9.993 10.365.114 3.199 2.081 6.09 4.734 7.88 3.217 2.171 5.98 2.017 8.431 1.192 3.969 19.359 18.022 35.548 37.427 41.794 5.563 1.791 11.581 1.62 17.141-.182l1.775-.575c19.093-6.188 33.023-22.039 37.173-41.079 2.441.861 5.222 1.011 8.371-.95 2.549-1.588 4.495-4.194 4.862-7.175.75-6.09-3.98-11.27-9.921-11.27z" fill="#edebdc"/><path d="m150.015 188.502c-3.195 0-6.348-.486-9.375-1.463-19.199-6.182-33.934-21.713-39.223-41.037-2.578.07-5.172-.77-7.648-2.441-3.914-2.639-6.344-6.771-6.492-11.055-.137-3.836 1.254-7.469 3.914-10.227 1.707-1.77 3.789-3.029 6.074-3.705v-26.574c0-2.209 1.789-4 4-4h100c2.211 0 4 1.791 4 4v26.584c2.484.74 4.738 2.164 6.492 4.145 2.652 3.002 3.895 7.021 3.398 11.029-.492 4.002-3.004 7.771-6.719 10.084-2.414 1.504-4.977 2.258-7.52 2.15-5.441 18.932-20.051 34.176-38.902 40.287l-1.777.574c-3.386 1.1-6.828 1.649-10.222 1.649zm-45.578-51.064c.691 0 1.383.18 1.996.533.992.572 1.691 1.541 1.922 2.664 3.738 18.23 17.047 33.096 34.738 38.791 4.645 1.498 9.719 1.426 14.68-.182l1.777-.574c17.379-5.635 30.598-20.244 34.492-38.127.246-1.121.961-2.084 1.961-2.643 1.004-.562 2.191-.658 3.281-.277 1.816.645 3.242.477 4.926-.572s2.805-2.645 3.008-4.27c.215-1.76-.301-3.447-1.457-4.754-1.137-1.289-2.777-2.027-4.496-2.027-2.211 0-4-1.791-4-4v-26h-92v26c0 2.209-1.789 4-4 4-1.645 0-3.176.65-4.316 1.834-1.141 1.182-1.738 2.74-1.68 4.389.062 1.707 1.199 3.512 2.973 4.707 1.949 1.316 3.332 1.248 4.922.717.413-.141.843-.209 1.273-.209z" fill="#4c241d"/></g><path d="m72.612 189.348c-1.023 0-2.047-.391-2.828-1.172l-14.695-14.696c-1.562-1.562-1.562-4.094 0-5.656s4.094-1.562 5.656 0l14.695 14.695c1.562 1.562 1.562 4.094 0 5.656-.781.782-1.804 1.173-2.828 1.173z" fill="#4c241d"/><path d="m173.269 136c-1.469 0-2.879-.809-3.582-2.211-.988-1.977-.188-4.379 1.789-5.367l8-4c1.977-.99 4.375-.186 5.367 1.789.988 1.977.188 4.379-1.789 5.367l-8 4c-.574.287-1.184.422-1.785.422z" fill="#4c241d"/><path d="m129.261 136c-.602 0-1.211-.135-1.785-.422l-8-4c-1.977-.988-2.777-3.391-1.789-5.367.992-1.975 3.391-2.779 5.367-1.789l8 4c1.977.988 2.777 3.391 1.789 5.367-.703 1.402-2.113 2.211-3.582 2.211z" fill="#4c241d"/><path d="m133.265 148h-4c-2.209 0-4-1.791-4-4 0-2.209 1.791-4 4-4h4c2.209 0 4 1.791 4 4 0 2.209-1.791 4-4 4z" fill="#e66353"/><path d="m173.265 148h-4c-2.209 0-4-1.791-4-4 0-2.209 1.791-4 4-4h4c2.209 0 4 1.791 4 4 0 2.209-1.791 4-4 4z" fill="#e66353"/><g><path d="m105.265 260h88v12h-88z" fill="#6b4f5b"/><path d="m193.265 276h-88c-2.211 0-4-1.791-4-4v-12c0-2.209 1.789-4 4-4h88c2.211 0 4 1.791 4 4v12c0 2.209-1.789 4-4 4zm-84-8h80v-4h-80z" fill="#4c241d"/></g><g><path d="m257.265 112h-216l101.043-81.408c4.29-3.456 9.625-3.456 13.915 0z" fill="#ffce56"/><path d="m257.265 116h-216c-1.695 0-3.207-1.07-3.773-2.67-.562-1.6-.059-3.381 1.266-4.445l101.042-81.408c5.75-4.633 13.18-4.633 18.93 0l101.043 81.408c1.324 1.064 1.828 2.846 1.266 4.445-.567 1.6-2.079 2.67-3.774 2.67zm-204.66-8h193.32l-92.211-74.293c-2.828-2.277-6.07-2.277-8.898 0z" fill="#4c241d"/></g><g><path d="m197.265 112h-96l44.908-81.408c1.907-3.456 4.278-3.456 6.184 0z" fill="#fc8c29"/><path d="m197.265 116h-96c-1.414 0-2.727-.748-3.445-1.967s-.742-2.727-.059-3.965l44.906-81.408c2.129-3.852 4.762-4.66 6.598-4.66s4.469.809 6.594 4.656l44.91 81.412c.684 1.238.66 2.746-.059 3.965s-2.031 1.967-3.445 1.967zm-89.227-8h82.453l-41.227-74.734z" fill="#4c241d"/></g><path d="m149.265 232c-2.211 0-4-1.791-4-4v-16c0-2.209 1.789-4 4-4s4 1.791 4 4v16c0 2.209-1.789 4-4 4z" fill="#4c241d"/><path d="m149.265 116c-2.211 0-4-1.791-4-4v-81.969c0-2.209 1.789-4 4-4s4 1.791 4 4v81.969c0 2.209-1.789 4-4 4z" fill="#4c241d"/></g></svg>