<svg height="512" viewBox="0 0 60 60" width="512" xmlns="http://www.w3.org/2000/svg"><g id="Page-1" fill="none" fill-rule="evenodd"><g id="003---Traditional-Shield-and-Spears" fill-rule="nonzero" transform="translate(0 -1)"><path id="Shape" d="m50 34c.0001987 1.1562276-.0665798 2.311496-.2 3.46-.3133397 2.9195258-1.0756564 5.7731538-2.26 8.46-.5022372 1.1309997-1.0802166 2.2268219-1.73 3.28-.15.24-.3.48-.46.72-.5883269.9055311-1.2364338 1.7707872-1.94 2.59-4.05 4.81-9.26 7.49-13.41 7.49s-9.36-2.68-13.41-7.49c-.7035662-.8192128-1.3516731-1.6844689-1.94-2.59-.16-.24-.31-.48-.46-.72-.6497834-1.0531781-1.2277628-2.1490003-1.73-3.28-1.1843436-2.6868462-1.9466603-5.5404742-2.26-8.46-.1334202-1.148504-.20019867-2.3037724-.2-3.46.0106347-2.1713904.2825906-4.3336077.81-6.44.4620039-1.8793021 1.0739652-3.71853 1.83-5.5.2-.46.4-.91.61-1.36s.4-.83.61-1.24c.64-1.27 1.34-2.5 2.07-3.69 1.4992175-2.4154142 3.1949573-4.7031579 5.07-6.84 1-1.17 2-2.23 3-3.14 2.58-2.39 4.82-3.79 6-3.79s3.42 1.4 6 3.79c1 .91 2 2 3 3.14 1.8711404 2.134031 3.5635167 4.4184046 5.06 6.83.73 1.19 1.43 2.42 2.07 3.69.21.41.42.82.61 1.24s.41.9.61 1.36c.7560348 1.78147 1.3679961 3.6206979 1.83 5.5.5315772 2.1092283.8068975 4.2748571.82 6.45z" fill="#f44335"/><path id="Shape" d="m49.19 27.56c-.4620039-1.8793021-1.0739652-3.71853-1.83-5.5-.2-.46-.4-.91-.61-1.36s-.4-.83-.61-1.24c-.64-1.27-1.34-2.5-2.07-3.69-1.4992175-2.4154142-3.1949573-4.7031579-5.07-6.84-1-1.17-2-2.23-3-3.14-2.58-2.39-4.82-3.79-6-3.79-.526669.0467373-1.0376748.20344574-1.5.46 1.6470751.89609056 3.1615722 2.0168184 4.5 3.33 1 .91 2 2 3 3.14 1.8711404 2.134031 3.5635167 4.4184046 5.06 6.83.73 1.19 1.43 2.42 2.07 3.69.21.41.42.82.61 1.24s.41.9.61 1.36c.7560348 1.78147 1.3679961 3.6206979 1.83 5.5.5315772 2.1092283.8068975 4.2748571.82 6.45.0001987 1.1562276-.0665798 2.311496-.2 3.46-.3133397 2.9195258-1.0756564 5.7731538-2.26 8.46-.5022372 1.1309997-1.0802166 2.2268219-1.73 3.28-.15.24-.3.48-.46.72-.5883269.9055311-1.2364338 1.7707872-1.94 2.59-3.58 4.25-8 6.83-11.91 7.38.4969048.0708462.9980759.1075988 1.5.11 4.15 0 9.36-2.68 13.41-7.49.7035662-.8192128 1.3516731-1.6844689 1.94-2.59.16-.24.31-.48.46-.72.6497834-1.0531781 1.2277628-2.1490003 1.73-3.28 1.1843436-2.6868462 1.9466603-5.5404742 2.26-8.46.1334202-1.148504.2001987-2.3037724.2-3.46-.0106347-2.1713904-.2825906-4.3336077-.81-6.44z" fill="#c81e1e"/><path id="Shape" d="m59 2-4.56 14.26-4.09-1.53-1.93-.72-1.03-1.96-1.96-3.72z" fill="#9e9e9e"/><path id="Shape" d="m55.47 3.65-3.71 11.61 2.68 1 4.56-14.26z" fill="#707070"/><path id="Shape" d="m50.35 14.73-4.21 4.72c-.64-1.27-1.34-2.5-2.07-3.69l3.32-3.71 1 2z" fill="#91562d"/><path id="Shape" d="m16.59 52.51-6.1 6.82c-.73453872.8284271-2.00157288.9045387-2.83.17s-.90453872-2.0015729-.17-2.83l6.68-7.47c.15.24.3.48.46.72.594766.9061313 1.2495653 1.7714018 1.96 2.59z" fill="#91562d"/><path id="Shape" d="m14.57 8.33-1.96 3.72-1.03 1.96-1.93.72-4.09 1.53-4.56-14.26z" fill="#9e9e9e"/><path id="Shape" d="m15.93 15.76c-.73 1.19-1.43 2.42-2.07 3.69l-4.21-4.72 1.93-.73 1-2z" fill="#91562d"/><path id="Shape" d="m52.33 59.49c-.8234448.7329893-2.084749.661426-2.82-.16l-6.1-6.82c.7035662-.8192128 1.3516731-1.6844689 1.94-2.59.16-.24.31-.48.46-.72l6.68 7.47c.7329893.8234448.661426 2.084749-.16 2.82z" fill="#91562d"/><path id="Shape" d="m52.49 56.67-6.68-7.47c-.15.24-.3.48-.46.72-.27.41-.55.8-.83 1.19l5 5.56c.6632917.7550125.6632917 1.8849875 0 2.64.4751632.5358984 1.2001306.7775924 1.9018138.6340382.7016833-.1435543 1.27348-.6505474 1.5-1.3300001.22652-.6794526.0733495-1.4281397-.4018138-1.9640381z" fill="#6d4122"/><path id="Shape" d="m50 34c.0001987 1.1562276-.0665798 2.311496-.2 3.46-1.31.24-3.2.54-5.63.81-1.38.15-2.93.3-4.66.42-2.74.18-5.92.31-9.51.31s-6.77-.13-9.51-.31c-1.73-.12-3.28-.27-4.66-.42-2.43-.27-4.32-.57-5.63-.81-.1334202-1.148504-.20019867-2.3037724-.2-3.46.0106347-2.1713904.2825906-4.3336077.81-6.44.4620039-1.8793021 1.0739652-3.71853 1.83-5.5.2-.46.4-.91.61-1.36 4.729113.8034432 9.5135224 1.2380855 14.31 1.3h2.44 2.44c4.7962173-.0586096 9.5806249-.4899084 14.31-1.29.21.45.41.9.61 1.36.7560348 1.78147 1.3679961 3.6206979 1.83 5.5.5266139 2.103145.7985638 4.261957.81 6.43z" fill="#ffdc00"/><path id="Shape" d="m49.19 27.56c-.4620039-1.8793021-1.0739652-3.71853-1.83-5.5-.2-.46-.4-.91-.61-1.36-.79.14-1.73.29-2.8.44l.41.92c.7560348 1.78147 1.3679961 3.6206979 1.83 5.5.5274094 2.1063923.7993653 4.2686096.81 6.44.0001987 1.1562276-.0665798 2.311496-.2 3.46-1.31.24-3.2.54-5.63.81-1.38.15-2.93.3-4.66.42-2.35.15-5 .27-8 .3h1.49c3.59 0 6.77-.13 9.51-.31 1.73-.12 3.28-.27 4.66-.42 2.43-.27 4.32-.57 5.63-.81.1330352-1.1451902.199813-2.2971085.2-3.45-.0106347-2.1713904-.2825906-4.3336077-.81-6.44z" fill="#fec108"/><path id="Shape" d="m39 8.93c-1.71 3.77-4.62 8.07-9 8.07s-7.29-4.3-9-8.07c1-1.17 2-2.23 3-3.14 1.34 3.38 3.54 7.21 6 7.21s4.66-3.83 6-7.21c1 .91 2 1.97 3 3.14z" fill="#ff9801"/><path id="Shape" d="m47.54 45.92c-.5022372 1.1309997-1.0802166 2.2268219-1.73 3.28-.15.24-.3.48-.46.72-.79-1.64-1.88-2.92-3.35-2.92s-2.35 1.13-3.85 3c-1.81 2.23-4.06 5-8.15 5s-6.34-2.78-8.15-5c-1.5-1.86-2.49-3-3.85-3s-2.56 1.28-3.35 2.92c-.16-.24-.31-.48-.46-.72-.6497834-1.0531781-1.2277628-2.1490003-1.73-3.28 1.2743008-1.8022999 3.3329517-2.887365 5.54-2.92 3.34 0 5.26 2.37 7 4.47s3 3.53 5 3.53 3.26-1.33 5-3.53 3.66-4.47 7-4.47c2.2070483.032635 4.2656992 1.1177001 5.54 2.92z" fill="#ff9801"/><path id="Shape" d="m49.19 27.56-5 10.71c-1.38.15-2.93.3-4.66.42l-9.53-13.26-9.51 13.26c-1.73-.12-3.28-.27-4.66-.42l-5-10.71c.4620039-1.8793021 1.0739652-3.71853 1.83-5.5l5.88 12.51 9-12.59 2.46.02h2.44l9 12.59 5.88-12.51c.7686576 1.7738046 1.3939908 3.6063318 1.87 5.48z" fill="#60a917"/><path id="Shape" d="m47.36 22.06-1.7 3.61c.2.62.38 1.25.53 1.89l-5 10.71-1.83.19.17.23c1.73-.12 3.28-.27 4.66-.42l5-10.71c-.4620039-1.8793021-1.0739652-3.71853-1.83-5.5z" fill="#549414"/><path id="Shape" d="m58.58 1.09-13.58 6.33c-.2466384.11739339-.434521.33056789-.52.59-.0867488.25736027-.0650893.53893497.06.78l1.63 3.11-2 2.22c-1.3409009-2.0517655-2.8245677-4.0065968-4.44-5.85-.9782207-1.12188558-2.0128917-2.19327069-3.1-3.21-1.63-1.52-4.63-4.06-6.63-4.06s-5 2.54-6.66 4.06c-1.0871083 1.01672931-2.1217793 2.08811442-3.1 3.21-1.6154323 1.8434032-3.0990991 3.7982345-4.44 5.85l-2-2.22 1.63-3.11c.134553-.24100693.1635054-.52691121.08-.79-.0854689-.25382957-.2691881-.46276513-.51-.58l-13.58-6.33c-.35992179-.16523201-.78344413-.10248796-1.08.16-.29554136.26201784-.40917281.67344206-.29 1.05l4.56 14.26c.08310637.2631901.27129396.4803296.52.6.13409368.0649512.28100673.099117.43.1.12033416.0020092.23969509-.021863.35-.07l3.45-1.29 3.31 3.71c-.11.22-.22.43-.33.66l-.62 1.38v.09c-.7645623 1.8076597-1.3832045 3.6736184-1.85 5.58-.55777202 2.1835405-.84988556 4.4264352-.87 6.68-.00041734 1.1930987.069705 2.3851785.21 3.57.32120783 3.0236416 1.1106388 5.9789473 2.34 8.76.4328189.9391842.9168809 1.8538944 1.45 2.74l-6.23 6.93c-.74419567.794048-1.00001339 1.928848-.6684885 2.9653955s1.19839633 1.8122714 2.26525975 2.0270781c1.06686341.2148066 2.16639295-.1649939 2.87322875-.9924736l5.35-6c3.95 4.29 9 7 13.41 7s9.46-2.7 13.41-7l5.35 6c.5700379.6373232 1.3849428 1.00112 2.24 1 1.5926735.0025591 2.9097504-1.2398835 3-2.83.0449055-.7955605-.2285341-1.5763023-.76-2.17l-6.24-6.93c.5249176-.8890976.9990115-1.8072372 1.42-2.75 1.2292084-2.7741144 2.018677-5.7228134 2.34-8.74.1500228-1.1876052.2301608-2.382997.24-3.58-.0103051-2.2523474-.2923435-4.4952237-.84-6.68-.466895-1.9031019-1.0855416-3.7657298-1.85-5.57v-.1l-.62-1.38c-.11-.23-.22-.44-.33-.66l3.31-3.71 3.45 1.29c.1103049.048137.2296658.0720092.35.07.1489933-.000883.2959063-.0350488.43-.1.248706-.1196704.4368936-.3368099.52-.6l4.58-14.26c.0981762-.36133863-.0137377-.74724853-.29-1-.2948007-.30108873-.7467093-.38507173-1.13-.21zm-9.58 32.91c0 .87 0 1.74-.13 2.61-.8.13-1.81.29-3 .45l2.94-6.27c.1315522 1.0648689.1950145 2.1370477.19 3.21zm-.87-6.54-4.63 9.87c-1.23.13-2.37.24-3.5.32l-9.19-12.8c-.1880653-.2597632-.4893047-.4135701-.81-.4135701s-.6219347.1538069-.81.4135701l-9.19 12.8c-1.13-.08-2.27-.19-3.5-.32l-4.63-9.87c.2418858-.9640266.5322549-1.9152357.87-2.85l4.88 10.39c.1503379.3197584.4582601.5364444.81.57h.09c.3218574-.0014883.6233242-.1578044.81-.42l8.74-12.15h1.93 1.93l8.74 12.17c.1866758.2621956.4881426.4185117.81.42h.09c.3517399-.0335556.6596621-.2502416.81-.57l4.88-10.39c.3371053.9282036.6274697 1.8727221.87 2.83zm-10.5 10.32c-5.0830839.2699938-10.1769161.2699938-15.26 0l7.63-10.63zm-26.5-1.17c-.08-.87-.13-1.74-.13-2.61.0049345-1.073592.0784173-2.1457733.22-3.21l2.94 6.27c-1.22-.16-2.23-.32-3.03-.45zm14.52-13.69-6.95 9.68-4.96-10.6c.0325144-.0818387.0692299-.1619452.11-.24 3.9036387.6450196 7.8454842 1.0325231 11.8 1.16zm20.5-1.12c.0407701.0780548.0774856.1581613.11.24l-5 10.56-6.95-9.68c3.9670062-.1124889 7.9222659-.486635 11.84-1.12zm-13.72-.8c-1.57 0-3.29 0-4.85 0-4.2985576-.0646957-8.5880409-.4154712-12.84-1.05 1.6571348-3.2739793 3.6692243-6.3558297 6-9.19 2.52 4.73 5.69 7.24 9.26 7.24s6.74-2.51 9.23-7.26c2.3307757 2.8341703 4.3428652 5.9160207 6 9.19-4.2382885.6395169-8.5143568.9969694-12.8 1.07zm2.36-14.93c-1.52 3.62-3.37 5.93-4.79 5.93s-3.27-2.31-4.79-5.93c2.67-2.4 4.29-3.07 4.79-3.07s2.12.67 4.79 3.07zm-11.12 1.46c1.33 2.87 3.47 6.47 6.33 6.47s5-3.6 6.33-6.47c.49.49 1 1 1.49 1.57-1.59 3.28-4.17 6.9-7.82 6.9s-6.23-3.62-7.82-6.9c.5-.55 1-1.1 1.49-1.57zm-21-3.66 10.52 4.92-2.32 4.41-4.68 1.8zm8.72 11.28.56-.21c.2311972-.0815578.4213832-.2502132.53-.47l.36-.68 1.87 2.09c-.35.59-.7 1.2-1 1.83zm30.61 30.85c-1.92 0-3.17 1.56-4.63 3.37-1.77 2.17-3.76 4.63-7.37 4.63s-5.6-2.46-7.37-4.64c-1.46-1.8-2.71-3.36-4.63-3.36-1.3851692.0588661-2.64785.8104618-3.36 2-.35-.61-.68-1.24-1-1.9 1.0719265-1.309487 2.6678693-2.078175 4.36-2.1 2.86 0 4.55 2.08 6.18 4.1 1.91 2.36 3.34 3.9 5.82 3.9s3.91-1.54 5.82-3.9c1.63-2 3.32-4.1 6.18-4.1 1.6837112.0173457 3.2745728.7743764 4.35 2.07-.31.66-.64 1.29-1 1.9-.717356-1.1751644-1.974314-1.9143307-3.35-1.97zm-32.26 12.67c-.37047711.4077472-1.0009586.4390477-1.41.07-.19472508-.1747656-.31319712-.4188898-.33-.68-.02203735-.2663736.07285882-.529163.26-.72l5.81-6.5c.38.56.79 1.11 1.21 1.64zm20.26.33c-4 0-9.84-2.84-14.18-9.15.52-.93 1.26-1.85 2.18-1.85s1.76 1 3.08 2.63c1.84 2.27 4.36 5.37 8.92 5.37s7.08-3.1 8.93-5.38c1.31-1.62 2.17-2.62 3.07-2.62s1.66.92 2.18 1.85c-4.33 6.31-10.18 9.15-14.18 9.15zm22-.94c-.0168015.2661329-.1392012.5145324-.34.69-.4129653.357278-1.0361806.3172142-1.4-.09l-5.54-6.18c.42-.53.83-1.08 1.21-1.64l5.82 6.5c.1751121.1975876.2649803.456408.25.72zm-4.81-14c-1.3986612-1.3317537-3.2587517-2.0700555-5.19-2.06-3.82 0-6 2.68-7.74 4.84s-2.72 3.16-4.26 3.16-2.52-1-4.26-3.16-3.92-4.84-7.74-4.84c-1.9340321-.0046741-3.7944951.740945-5.19 2.08-.6564464-1.7468013-1.1322622-3.556242-1.42-5.4 1.13.18 2.58.39 4.33.58s3.19.32 4.7.43c3.15.21 6.38.31 9.58.31s6.43-.1 9.58-.31c1.51-.11 3-.24 4.7-.43s3.2-.4 4.33-.58c-.2877378 1.843758-.7635536 3.6531987-1.42 5.4zm-.84-26.37c-.34-.63-.69-1.24-1-1.83l1.87-2.09.36.68c.1086168.2197868.2988028.3884422.53.47l.56.21zm7.46-2.69-4.68-1.8-2.32-4.41 10.54-4.92z" fill="#000"/></g></g></svg>